G04 start of page 11 for group -4015 idx -4015 *
G04 Title: (unknown), toppaste *
G04 Creator: pcb 4.0.2 *
G04 CreationDate: Mon Feb 22 18:20:50 2021 UTC *
G04 For: ndholmes *
G04 Format: Gerber/RS-274X *
G04 PCB-Dimensions (mil): 1800.00 1200.00 *
G04 PCB-Coordinate-Origin: lower left *
%MOIN*%
%FSLAX25Y25*%
%LNTOPPASTE*%
%ADD40C,0.0001*%
G54D40*G36*
X26449Y67055D02*Y64693D01*
X32551D01*
Y67055D01*
X26449D01*
G37*
G36*
Y63118D02*Y60756D01*
X32551D01*
Y63118D01*
X26449D01*
G37*
G36*
Y59181D02*Y56819D01*
X32551D01*
Y59181D01*
X26449D01*
G37*
G36*
Y55244D02*Y52882D01*
X32551D01*
Y55244D01*
X26449D01*
G37*
G36*
X10701Y73354D02*Y68630D01*
X17787D01*
Y73354D01*
X10701D01*
G37*
G36*
Y51307D02*Y46583D01*
X17787D01*
Y51307D01*
X10701D01*
G37*
G36*
X52650Y56457D02*X46350D01*
Y43858D01*
X52650D01*
Y56457D01*
G37*
G36*
Y76142D02*X46350D01*
Y63543D01*
X52650D01*
Y76142D01*
G37*
G36*
X66048Y78102D02*Y72984D01*
X71952D01*
Y78102D01*
X66048D01*
G37*
G36*
Y71016D02*Y65898D01*
X71952D01*
Y71016D01*
X66048D01*
G37*
G36*
X55000Y32000D02*Y30000D01*
X63500D01*
Y32000D01*
X55000D01*
G37*
G36*
Y27000D02*Y25000D01*
X63500D01*
Y27000D01*
X55000D01*
G37*
G36*
Y22000D02*Y20000D01*
X63500D01*
Y22000D01*
X55000D01*
G37*
G36*
Y17000D02*Y15000D01*
X63500D01*
Y17000D01*
X55000D01*
G37*
G36*
X81500D02*Y15000D01*
X90000D01*
Y17000D01*
X81500D01*
G37*
G36*
Y22000D02*Y20000D01*
X90000D01*
Y22000D01*
X81500D01*
G37*
G36*
Y27000D02*Y25000D01*
X90000D01*
Y27000D01*
X81500D01*
G37*
G36*
Y32000D02*Y30000D01*
X90000D01*
Y32000D01*
X81500D01*
G37*
G36*
X28516Y20452D02*X23398D01*
Y14548D01*
X28516D01*
Y20452D01*
G37*
G36*
X35602D02*X30484D01*
Y14548D01*
X35602D01*
Y20452D01*
G37*
G36*
X19548Y91602D02*Y86484D01*
X25452D01*
Y91602D01*
X19548D01*
G37*
G36*
Y84516D02*Y79398D01*
X25452D01*
Y84516D01*
X19548D01*
G37*
G36*
X103842Y102594D02*X99158D01*
Y89602D01*
X103842D01*
Y102594D01*
G37*
G36*
X83842D02*X79158D01*
Y89602D01*
X83842D01*
Y102594D01*
G37*
G36*
X93842Y77398D02*X89158D01*
Y64405D01*
X93842D01*
Y77398D01*
G37*
G36*
X28984Y33000D02*X25204D01*
Y25126D01*
X28984D01*
Y33000D01*
G37*
G36*
X34890Y40716D02*X31110D01*
Y25126D01*
X34890D01*
Y40716D01*
G37*
G36*
X37725Y47175D02*X28275D01*
Y35835D01*
X37725D01*
Y47175D01*
G37*
G36*
X29695Y37255D02*X28275Y35835D01*
X31115Y32995D01*
X32535Y34415D01*
X29695Y37255D01*
G37*
G36*
X37725Y35835D02*X36305Y37255D01*
X33465Y34415D01*
X34885Y32995D01*
X37725Y35835D01*
G37*
G36*
X40796Y33000D02*X37016D01*
Y25126D01*
X40796D01*
Y33000D01*
G37*
G36*
X14548Y41602D02*Y36484D01*
X20452D01*
Y41602D01*
X14548D01*
G37*
G36*
Y34516D02*Y29398D01*
X20452D01*
Y34516D01*
X14548D01*
G37*
G36*
X96500Y46500D02*Y44500D01*
X105000D01*
Y46500D01*
X96500D01*
G37*
G36*
Y51500D02*Y49500D01*
X105000D01*
Y51500D01*
X96500D01*
G37*
G36*
Y56500D02*Y54500D01*
X105000D01*
Y56500D01*
X96500D01*
G37*
G36*
Y61500D02*Y59500D01*
X105000D01*
Y61500D01*
X96500D01*
G37*
G36*
X76000D02*Y59500D01*
X84500D01*
Y61500D01*
X76000D01*
G37*
G36*
Y56500D02*Y54500D01*
X84500D01*
Y56500D01*
X76000D01*
G37*
G36*
Y51500D02*Y49500D01*
X84500D01*
Y51500D01*
X76000D01*
G37*
G36*
Y46500D02*Y44500D01*
X84500D01*
Y46500D01*
X76000D01*
G37*
G36*
X59048Y100602D02*Y95484D01*
X64952D01*
Y100602D01*
X59048D01*
G37*
G36*
Y93516D02*Y88398D01*
X64952D01*
Y93516D01*
X59048D01*
G37*
G36*
X50048D02*Y88398D01*
X55952D01*
Y93516D01*
X50048D01*
G37*
G36*
Y100602D02*Y95484D01*
X55952D01*
Y100602D01*
X50048D01*
G37*
G36*
X68048D02*Y95484D01*
X73952D01*
Y100602D01*
X68048D01*
G37*
G36*
Y93516D02*Y88398D01*
X73952D01*
Y93516D01*
X68048D01*
G37*
G36*
X38450Y21850D02*Y20350D01*
X41950D01*
Y21850D01*
X38450D01*
G37*
G36*
Y16750D02*Y15250D01*
X41950D01*
Y16750D01*
X38450D01*
G37*
G36*
X45450D02*Y15250D01*
X48950D01*
Y16750D01*
X45450D01*
G37*
G36*
Y19250D02*Y17750D01*
X48950D01*
Y19250D01*
X45450D01*
G37*
G36*
Y21850D02*Y20350D01*
X48950D01*
Y21850D01*
X45450D01*
G37*
G36*
X59059Y41952D02*X53941D01*
Y36048D01*
X59059D01*
Y41952D01*
G37*
G36*
X66145D02*X61027D01*
Y36048D01*
X66145D01*
Y41952D01*
G37*
G36*
X37480Y89224D02*X35040D01*
Y84422D01*
X37480D01*
Y89224D01*
G37*
G36*
X41220D02*X38780D01*
Y84422D01*
X41220D01*
Y89224D01*
G37*
G36*
X44960D02*X42520D01*
Y84422D01*
X44960D01*
Y89224D01*
G37*
G36*
Y99578D02*X42520D01*
Y94776D01*
X44960D01*
Y99578D01*
G37*
G36*
X41220D02*X38780D01*
Y94776D01*
X41220D01*
Y99578D01*
G37*
G36*
X37480D02*X35040D01*
Y94776D01*
X37480D01*
Y99578D01*
G37*
G36*
X66048Y52016D02*Y46898D01*
X71952D01*
Y52016D01*
X66048D01*
G37*
G36*
Y59102D02*Y53984D01*
X71952D01*
Y59102D01*
X66048D01*
G37*
M02*
