M48
INCH
T27C0.012
%
T27
X001400Y009550
X001400Y009200
X001400Y008850
X001750Y009550
X001750Y009200
X001750Y008850
X001750Y001800
X001950Y001600
X002150Y001800
X002600Y004900
X002600Y004550
X002600Y004200
X002600Y003850
X002800Y008400
X002950Y004900
X003100Y010120
X003100Y009800
X003100Y008400
X003300Y004900
X004000Y007400
X004000Y007000
X004000Y006600
X004700Y002350
X005000Y002350
X005650Y004500
X006550Y002400
X007400Y005800
X007640Y009100
X007650Y003100
X007950Y003100
X008800Y003450
X009050Y006050
X009150Y001600
X009400Y006050
X009600Y002850
X010075Y004225
X010150Y008700
X010150Y008350
X010650Y002900
M30
