G04 start of page 10 for group -4078 idx -4078 *
G04 Title: (unknown), bottomsilk *
G04 Creator: pcb 4.0.2 *
G04 CreationDate: Mon Feb 22 18:20:50 2021 UTC *
G04 For: ndholmes *
G04 Format: Gerber/RS-274X *
G04 PCB-Dimensions (mil): 1800.00 1200.00 *
G04 PCB-Coordinate-Origin: lower left *
%MOIN*%
%FSLAX25Y25*%
%LNBOTTOMSILK*%
%ADD39C,0.0100*%
%ADD38C,0.0060*%
G54D38*X71617Y35807D02*X73138D01*
X73957Y36626D02*X73138Y35807D01*
X73957Y36626D02*Y39668D01*
X73138Y40487D01*
X71617D02*X73138D01*
X67873Y35807D02*X69394D01*
X70213Y36626D02*X69394Y35807D01*
X70213Y36626D02*Y39668D01*
X69394Y40487D01*
X67873D02*X69394D01*
X62023Y35807D02*X64363D01*
X62023D02*X61438Y36392D01*
Y37796D01*
X62023Y38381D02*X61438Y37796D01*
X62023Y38381D02*X63778D01*
Y35807D02*Y40487D01*
X62023D02*X64363D01*
X62023D02*X61438Y39902D01*
Y38966D02*Y39902D01*
X62023Y38381D02*X61438Y38966D01*
X60034Y40487D02*X58864Y38147D01*
X57694Y40487D01*
X58864Y35807D02*Y38147D01*
X53950D02*X56290D01*
X50206Y40487D02*X49621Y39902D01*
X50206Y40487D02*X51961D01*
X52546Y39902D02*X51961Y40487D01*
X52546Y38732D02*Y39902D01*
Y38732D02*X51961Y38147D01*
X50206D02*X51961D01*
X50206D02*X49621Y37562D01*
Y36392D02*Y37562D01*
X50206Y35807D02*X49621Y36392D01*
X50206Y35807D02*X51961D01*
X52546Y36392D02*X51961Y35807D01*
X48217D02*Y39317D01*
X47398Y40487D01*
X46111D02*X47398D01*
X46111D02*X45292Y39317D01*
Y35807D02*Y39317D01*
Y38147D02*X48217D01*
X71000Y29392D02*X70415Y28807D01*
X71000Y32902D02*X70415Y33487D01*
X71000Y29392D02*Y32902D01*
X66671Y28807D02*X68192D01*
X69011Y29626D02*X68192Y28807D01*
X69011Y29626D02*Y32668D01*
X68192Y33487D01*
X66671D02*X68192D01*
X65267D02*X64682Y32902D01*
Y29392D02*Y32902D01*
X65267Y28807D02*X64682Y29392D01*
X61172Y32902D02*X60587Y33487D01*
X58832D02*X60587D01*
X58832D02*X58247Y32902D01*
Y31732D02*Y32902D01*
X61172Y28807D02*X58247Y31732D01*
Y28807D02*X61172D01*
X56843Y29392D02*X56258Y28807D01*
X56843Y29392D02*Y32902D01*
X56258Y33487D01*
X55088D02*X56258D01*
X55088D02*X54503Y32902D01*
Y29392D02*Y32902D01*
X55088Y28807D02*X54503Y29392D01*
X55088Y28807D02*X56258D01*
X56843Y29977D02*X54503Y32317D01*
X53099Y32902D02*X52514Y33487D01*
X50759D02*X52514D01*
X50759D02*X50174Y32902D01*
Y31732D02*Y32902D01*
X53099Y28807D02*X50174Y31732D01*
Y28807D02*X53099D01*
X48770Y32551D02*X47834Y33487D01*
Y28807D02*Y33487D01*
X47015Y28807D02*X48770D01*
X86000Y14500D02*X87300D01*
X88000Y15200D02*X87300Y14500D01*
X88000Y15200D02*Y17800D01*
X87300Y18500D01*
X86000D02*X87300D01*
X84800Y14500D02*Y18500D01*
Y16500D02*X82800Y18500D01*
X84800Y16500D02*X82800Y14500D01*
X79600Y18500D02*X81600D01*
X80600Y14500D02*Y18500D01*
X76400Y16500D02*X78400D01*
X74700Y14500D02*Y18500D01*
X73400D02*X72700Y17800D01*
Y15200D02*Y17800D01*
X73400Y14500D02*X72700Y15200D01*
X73400Y14500D02*X75200D01*
X73400Y18500D02*X75200D01*
X70500D02*X71500D01*
X71000Y14500D02*Y18500D01*
X70500Y14500D02*X71500D01*
X69300D02*Y18500D01*
X66800Y14500D01*
Y18500D01*
X63600D02*X63100Y18000D01*
X63600Y18500D02*X65100D01*
X65600Y18000D02*X65100Y18500D01*
X65600Y15000D02*Y18000D01*
Y15000D02*X65100Y14500D01*
X63600D02*X65100D01*
X63600D02*X63100Y15000D01*
Y16000D01*
X63600Y16500D02*X63100Y16000D01*
X63600Y16500D02*X64600D01*
X61400Y14500D02*Y18500D01*
X60100D02*X59400Y17800D01*
Y15200D02*Y17800D01*
X60100Y14500D02*X59400Y15200D01*
X60100Y14500D02*X61900D01*
X60100Y18500D02*X61900D01*
X58200Y15000D02*Y18000D01*
X57700Y18500D01*
X56700D02*X57700D01*
X56700D02*X56200Y18000D01*
Y15000D02*Y18000D01*
X56700Y14500D02*X56200Y15000D01*
X56700Y14500D02*X57700D01*
X58200Y15000D02*X57700Y14500D01*
X55000D02*Y18500D01*
X52500Y14500D01*
Y18500D01*
X49300D02*X48800Y18000D01*
X49300Y18500D02*X50800D01*
X51300Y18000D02*X50800Y18500D01*
X51300Y15000D02*Y18000D01*
Y15000D02*X50800Y14500D01*
X49300D02*X50800D01*
X49300D02*X48800Y15000D01*
Y16000D01*
X49300Y16500D02*X48800Y16000D01*
X49300Y16500D02*X50300D01*
X45800D02*X44800Y14500D01*
X43800Y16500D02*X44800Y14500D01*
X42600Y18000D02*X42100Y18500D01*
X40600D02*X42100D01*
X40600D02*X40100Y18000D01*
Y17000D02*Y18000D01*
X42600Y14500D02*X40100Y17000D01*
Y14500D02*X42600D01*
X38400D02*X38900D01*
X37200Y15000D02*X36700Y14500D01*
X37200Y15000D02*Y18000D01*
X36700Y18500D01*
X35700D02*X36700D01*
X35700D02*X35200Y18000D01*
Y15000D02*Y18000D01*
X35700Y14500D02*X35200Y15000D01*
X35700Y14500D02*X36700D01*
X37200Y15500D02*X35200Y17500D01*
G54D39*X36378Y95591D02*X83622D01*
X24567Y83780D02*Y44409D01*
X95433D01*
Y83780D02*Y44409D01*
G54D38*X63000Y80000D02*X62500Y79500D01*
X63000Y80000D02*X64500D01*
X65000Y79500D02*X64500Y80000D01*
X65000Y78500D02*Y79500D01*
Y78500D02*X64500Y78000D01*
X63000D02*X64500D01*
X63000D02*X62500Y77500D01*
Y76500D02*Y77500D01*
X63000Y76000D02*X62500Y76500D01*
X63000Y76000D02*X64500D01*
X65000Y76500D02*X64500Y76000D01*
X60800D02*Y80000D01*
X59300D02*X61300D01*
X59300D02*X58800Y79500D01*
Y78500D02*Y79500D01*
X59300Y78000D02*X58800Y78500D01*
X59300Y78000D02*X60800D01*
X57600Y76000D02*Y80000D01*
Y78000D02*X55600Y80000D01*
X57600Y78000D02*X55600Y76000D01*
M02*
