G04 start of page 2 for group 0 idx 0 *
G04 Title: (unknown), top *
G04 Creator: pcb 4.0.2 *
G04 CreationDate: Mon Feb 22 18:20:50 2021 UTC *
G04 For: ndholmes *
G04 Format: Gerber/RS-274X *
G04 PCB-Dimensions (mil): 1800.00 1200.00 *
G04 PCB-Coordinate-Origin: lower left *
%MOIN*%
%FSLAX25Y25*%
%LNTOP*%
%ADD19C,0.0390*%
%ADD18C,0.0120*%
%ADD17C,0.0240*%
%ADD16C,0.0310*%
%ADD15C,0.0250*%
%ADD14C,0.0200*%
%ADD13C,0.0100*%
%ADD12C,0.0350*%
%ADD11C,0.0001*%
G54D11*G36*
X12000Y76500D02*X21000D01*
Y44500D01*
X12000D01*
Y76500D01*
G37*
G36*
X29000Y14000D02*X15838D01*
X15500Y14338D01*
Y20500D01*
X29000D01*
Y14000D01*
G37*
G36*
X19500Y84500D02*X25806D01*
X25771Y84353D01*
X25743Y84000D01*
X25771Y83647D01*
X25854Y83303D01*
X25989Y82975D01*
X26174Y82673D01*
X26404Y82404D01*
X26673Y82174D01*
X26975Y81989D01*
X27303Y81854D01*
X27647Y81771D01*
X28000Y81750D01*
X31000D01*
X31353Y81771D01*
X31697Y81854D01*
X32025Y81989D01*
X32327Y82174D01*
X32596Y82404D01*
X32826Y82673D01*
X33011Y82975D01*
X33107Y83208D01*
X34071Y84172D01*
X34086Y84112D01*
X34146Y83966D01*
X34228Y83832D01*
X34330Y83712D01*
X34450Y83610D01*
X34584Y83528D01*
X34730Y83468D01*
X34883Y83431D01*
X35040Y83422D01*
X37000Y83428D01*
Y77500D01*
X19500D01*
Y84500D01*
G37*
G36*
X29000Y18000D02*X25000D01*
Y33000D01*
X29000D01*
Y18000D01*
G37*
G36*
X53000Y76500D02*Y63500D01*
X36957D01*
X36883Y63546D01*
X36621Y63654D01*
X36345Y63720D01*
X36063Y63743D01*
X35992Y63737D01*
X33337D01*
X33260Y63827D01*
X33141Y63930D01*
X33006Y64012D01*
X32861Y64072D01*
X32708Y64109D01*
X32551Y64118D01*
X26292Y64109D01*
X26139Y64072D01*
X26000Y64014D01*
Y76500D01*
X53000D01*
G37*
G36*
X30113Y36000D02*X24000D01*
Y51000D01*
X35000D01*
Y41710D01*
X34890Y41716D01*
X30953Y41707D01*
X30800Y41670D01*
X30655Y41610D01*
X30520Y41528D01*
X30401Y41425D01*
X30298Y41306D01*
X30216Y41171D01*
X30156Y41026D01*
X30119Y40873D01*
X30110Y40716D01*
X30113Y36000D01*
G37*
G36*
X53000Y57000D02*Y42293D01*
X52987Y42262D01*
X52950Y42109D01*
X52941Y41952D01*
X52948Y37655D01*
X49981Y34688D01*
X49936Y34650D01*
X49783Y34470D01*
X49659Y34269D01*
X49569Y34051D01*
X49514Y33821D01*
X49514Y33821D01*
X49495Y33586D01*
X49500Y33527D01*
Y28000D01*
X45548D01*
X45479Y28004D01*
X45309Y27989D01*
X45265Y27986D01*
X45255Y27984D01*
X45244Y27983D01*
X45140Y27956D01*
X45035Y27931D01*
X45025Y27927D01*
X45015Y27924D01*
X44916Y27882D01*
X44817Y27841D01*
X44808Y27835D01*
X44798Y27831D01*
X44707Y27773D01*
X44616Y27717D01*
X44608Y27711D01*
X44599Y27705D01*
X44566Y27675D01*
X44436Y27564D01*
X44391Y27511D01*
X41948Y25000D01*
X37000D01*
Y33500D01*
X38500D01*
Y57000D01*
X38503D01*
X38680Y56891D01*
X38942Y56783D01*
X39218Y56717D01*
X39500Y56694D01*
X39782Y56717D01*
X40058Y56783D01*
X40320Y56891D01*
X40497Y57000D01*
X53000D01*
G37*
G36*
X26594Y29063D02*X26500D01*
Y19500D01*
X18000D01*
Y20500D01*
X18031D01*
X26594Y29063D01*
G37*
G36*
X37000Y78000D02*Y75000D01*
X26000D01*
Y78000D01*
X37000D01*
G37*
G36*
X24000Y84500D02*X25806D01*
X25771Y84353D01*
X25743Y84000D01*
X25771Y83647D01*
X25854Y83303D01*
X25989Y82975D01*
X26174Y82673D01*
X26404Y82404D01*
X26673Y82174D01*
X26975Y81989D01*
X27303Y81854D01*
X27647Y81771D01*
X28000Y81750D01*
X31000D01*
X31353Y81771D01*
X31697Y81854D01*
X32025Y81989D01*
X32327Y82174D01*
X32596Y82404D01*
X32826Y82673D01*
X33011Y82975D01*
X33107Y83208D01*
X34071Y84172D01*
X34086Y84112D01*
X34146Y83966D01*
X34228Y83832D01*
X34330Y83712D01*
X34450Y83610D01*
X34584Y83528D01*
X34730Y83468D01*
X34883Y83431D01*
X35040Y83422D01*
X37637Y83431D01*
X37790Y83468D01*
X37936Y83528D01*
X38070Y83610D01*
X38130Y83661D01*
X38190Y83610D01*
X38324Y83528D01*
X38470Y83468D01*
X38623Y83431D01*
X38780Y83422D01*
X41377Y83431D01*
X41500Y83460D01*
Y77500D01*
X24000D01*
Y84500D01*
G37*
G36*
X41500Y78500D02*Y75500D01*
X30500D01*
Y78500D01*
X41500D01*
G37*
G36*
X12000Y108000D02*X26500D01*
Y86500D01*
X12000D01*
Y108000D01*
G37*
G54D12*X33000Y32921D02*Y17500D01*
G54D13*X40150Y13650D02*Y21050D01*
X40200Y21100D01*
X45500Y26500D02*X40150Y21000D01*
X14000Y14000D02*X15500Y12500D01*
X14000Y23000D02*Y14000D01*
Y23000D02*X17500Y26500D01*
Y31957D01*
X22500Y55500D02*Y43500D01*
X17500Y38500D01*
X40200Y13700D02*X39000Y12500D01*
X15500D01*
X29500Y58000D02*X25000D01*
X22500Y55500D01*
G54D14*X29500Y61937D02*X36063D01*
X39500Y58500D01*
Y51500D01*
G54D15*X81500Y96098D02*Y80902D01*
Y83000D02*Y74000D01*
X101500Y83500D02*Y96098D01*
X81500Y80902D02*X65098D01*
X76400Y91000D02*X71043D01*
X71000Y90957D01*
X81500Y74000D02*X84500Y71000D01*
X91402D01*
X91500Y70902D01*
X100750Y60500D02*X90500D01*
G54D13*X80250Y55500D02*X87000D01*
X88000Y54500D01*
X85000Y60500D02*X90500Y55000D01*
X80250Y60500D02*X85000D01*
X69000Y68457D02*X64500Y63957D01*
X74000Y58000D02*X70957D01*
X64500Y63957D02*Y46000D01*
G54D15*X62000Y84000D02*X64000Y82000D01*
X65098Y80902D02*X63250Y82750D01*
X69000Y75000D02*Y80902D01*
X53000Y98043D02*X71000D01*
X62000Y90957D02*Y84000D01*
X53000Y90957D02*X48866Y86823D01*
X43740D01*
X42000Y92000D02*X43740Y93740D01*
Y97177D01*
X28000Y84000D02*X31000D01*
X36260Y86823D02*X33823D01*
X31000Y84000D01*
Y101200D02*Y98000D01*
X36260D01*
X40000Y86823D02*Y81000D01*
X24500Y92000D02*X42000D01*
X40000Y97177D02*Y92000D01*
G54D13*X88000Y54500D02*Y38000D01*
X90500Y55000D02*Y39500D01*
X100750Y50500D02*X106000D01*
X90500Y40000D02*Y37000D01*
X100750Y45500D02*Y42250D01*
X93500Y34000D02*X90500Y37000D01*
X93500Y34000D02*X96000D01*
X98500Y31500D01*
X100750Y42250D02*X102250Y40750D01*
X106000Y50500D02*X107000Y49500D01*
X107500Y49000D02*X106500Y50000D01*
X105000Y38000D02*X101750Y41250D01*
X105200Y33200D02*Y37800D01*
X104550Y38450D01*
X106500Y31500D02*X107500Y32500D01*
Y49000D01*
X103500Y31500D02*X105200Y33200D01*
X103500Y26500D02*X104000D01*
X106500Y29000D01*
Y31500D01*
X103500Y21600D02*X101100Y19200D01*
Y14600D01*
X93800Y13000D02*X99500D01*
X101100Y14600D01*
Y16400D01*
X96000Y21500D02*X98500D01*
Y26500D02*X98000D01*
X96000Y28500D01*
X73500Y21000D02*X76000Y18500D01*
X80500D01*
X78000D02*X93000D01*
X96000Y21500D01*
X85750Y21000D02*X91500D01*
X93500Y23000D01*
X75500Y16000D02*X78500Y13000D01*
X97500D01*
X91500Y16000D02*X85750D01*
X88000Y34500D02*Y39000D01*
Y34500D02*X90000D01*
X91500Y33000D01*
X93500Y23000D02*Y34000D01*
X85750Y26000D02*X89000D01*
X91500Y28500D01*
Y33000D01*
G54D15*X76500Y31000D02*X85750D01*
X80250Y45500D02*Y31250D01*
X80000Y31000D01*
G54D13*X73500Y29500D02*Y21000D01*
Y28000D02*Y45000D01*
X69000Y49457D01*
X68000Y42500D02*Y35500D01*
X59250Y21000D02*X66500D01*
X62000Y26000D02*X64000Y24000D01*
X65500D01*
X64500Y31000D02*X73500D01*
X66500Y28500D02*X68500Y26500D01*
Y23000D01*
X66500Y21000D01*
X68000Y35500D02*X66500Y34000D01*
X58000Y16000D02*X75500D01*
G54D15*X59250D02*X47200D01*
X47000D02*Y23500D01*
X50000D01*
G54D13*X45500Y26500D02*X53000D01*
X51000D02*Y33586D01*
X53000Y26500D02*X53500Y26000D01*
X51000Y33586D02*X56414Y39000D01*
X59250Y31000D02*X65500D01*
X66500Y34000D02*X55000D01*
X66500Y28500D02*X54500D01*
X55000Y34000D02*X53500Y32500D01*
Y29500D01*
X54500Y28500D01*
X53500Y26000D02*X59250D01*
X56500Y45000D02*X61000D01*
X62500Y43500D01*
Y39000D01*
X68000Y42500D02*X64500Y46000D01*
G54D11*G36*
X66048Y71016D02*Y65898D01*
X71952D01*
Y71016D01*
X66048D01*
G37*
G36*
X93842Y77398D02*X89158D01*
Y64405D01*
X93842D01*
Y77398D01*
G37*
G36*
X76000Y61500D02*Y59500D01*
X84500D01*
Y61500D01*
X76000D01*
G37*
G36*
Y56500D02*Y54500D01*
X84500D01*
Y56500D01*
X76000D01*
G37*
G36*
Y51500D02*Y49500D01*
X84500D01*
Y51500D01*
X76000D01*
G37*
G36*
Y46500D02*Y44500D01*
X84500D01*
Y46500D01*
X76000D01*
G37*
G36*
X66048Y52016D02*Y46898D01*
X71952D01*
Y52016D01*
X66048D01*
G37*
G36*
Y59102D02*Y53984D01*
X71952D01*
Y59102D01*
X66048D01*
G37*
G36*
X26449Y67055D02*Y64693D01*
X32551D01*
Y67055D01*
X26449D01*
G37*
G36*
Y63118D02*Y60756D01*
X32551D01*
Y63118D01*
X26449D01*
G37*
G36*
Y59181D02*Y56819D01*
X32551D01*
Y59181D01*
X26449D01*
G37*
G36*
Y55244D02*Y52882D01*
X32551D01*
Y55244D01*
X26449D01*
G37*
G36*
X10701Y73354D02*Y68630D01*
X17787D01*
Y73354D01*
X10701D01*
G37*
G36*
X52650Y76142D02*X46350D01*
Y63543D01*
X52650D01*
Y76142D01*
G37*
G36*
X19548Y91602D02*Y86484D01*
X25452D01*
Y91602D01*
X19548D01*
G37*
G36*
Y84516D02*Y79398D01*
X25452D01*
Y84516D01*
X19548D01*
G37*
G36*
X50048Y93516D02*Y88398D01*
X55952D01*
Y93516D01*
X50048D01*
G37*
G36*
Y100602D02*Y95484D01*
X55952D01*
Y100602D01*
X50048D01*
G37*
G36*
X44960Y99578D02*X42520D01*
Y94776D01*
X44960D01*
Y99578D01*
G37*
G36*
X41220D02*X38780D01*
Y94776D01*
X41220D01*
Y99578D01*
G37*
G36*
X37480D02*X35040D01*
Y94776D01*
X37480D01*
Y99578D01*
G37*
G36*
Y89224D02*X35040D01*
Y84422D01*
X37480D01*
Y89224D01*
G37*
G36*
X41220D02*X38780D01*
Y84422D01*
X41220D01*
Y89224D01*
G37*
G36*
X44960D02*X42520D01*
Y84422D01*
X44960D01*
Y89224D01*
G37*
G36*
X52650Y56457D02*X46350D01*
Y43858D01*
X52650D01*
Y56457D01*
G37*
G36*
X28516Y20452D02*X23398D01*
Y14548D01*
X28516D01*
Y20452D01*
G37*
G36*
X28984Y33000D02*X25204D01*
Y25126D01*
X28984D01*
Y33000D01*
G37*
G36*
X35602Y20452D02*X30484D01*
Y14548D01*
X35602D01*
Y20452D01*
G37*
G36*
X34890Y40716D02*X31110D01*
Y25126D01*
X34890D01*
Y40716D01*
G37*
G36*
X37725Y47175D02*X28275D01*
Y35835D01*
X37725D01*
Y47175D01*
G37*
G36*
X29695Y37255D02*X28275Y35835D01*
X31115Y32995D01*
X32535Y34415D01*
X29695Y37255D01*
G37*
G36*
X37725Y35835D02*X36305Y37255D01*
X33465Y34415D01*
X34885Y32995D01*
X37725Y35835D01*
G37*
G36*
X40796Y33000D02*X37016D01*
Y25126D01*
X40796D01*
Y33000D01*
G37*
G36*
X10701Y51307D02*Y46583D01*
X17787D01*
Y51307D01*
X10701D01*
G37*
G36*
X14548Y41602D02*Y36484D01*
X20452D01*
Y41602D01*
X14548D01*
G37*
G36*
Y34516D02*Y29398D01*
X20452D01*
Y34516D01*
X14548D01*
G37*
G36*
X38450Y21850D02*Y20350D01*
X41950D01*
Y21850D01*
X38450D01*
G37*
G36*
Y16750D02*Y15250D01*
X41950D01*
Y16750D01*
X38450D01*
G37*
G36*
X45450D02*Y15250D01*
X48950D01*
Y16750D01*
X45450D01*
G37*
G36*
Y19250D02*Y17750D01*
X48950D01*
Y19250D01*
X45450D01*
G37*
G36*
Y21850D02*Y20350D01*
X48950D01*
Y21850D01*
X45450D01*
G37*
G36*
X66048Y78102D02*Y72984D01*
X71952D01*
Y78102D01*
X66048D01*
G37*
G36*
X103842Y102594D02*X99158D01*
Y89602D01*
X103842D01*
Y102594D01*
G37*
G36*
X83842D02*X79158D01*
Y89602D01*
X83842D01*
Y102594D01*
G37*
G36*
X59048Y100602D02*Y95484D01*
X64952D01*
Y100602D01*
X59048D01*
G37*
G36*
Y93516D02*Y88398D01*
X64952D01*
Y93516D01*
X59048D01*
G37*
G36*
X68048Y100602D02*Y95484D01*
X73952D01*
Y100602D01*
X68048D01*
G37*
G36*
Y93516D02*Y88398D01*
X73952D01*
Y93516D01*
X68048D01*
G37*
G36*
X55000Y32000D02*Y30000D01*
X63500D01*
Y32000D01*
X55000D01*
G37*
G36*
Y27000D02*Y25000D01*
X63500D01*
Y27000D01*
X55000D01*
G37*
G36*
Y22000D02*Y20000D01*
X63500D01*
Y22000D01*
X55000D01*
G37*
G36*
Y17000D02*Y15000D01*
X63500D01*
Y17000D01*
X55000D01*
G37*
G36*
X59059Y41952D02*X53941D01*
Y36048D01*
X59059D01*
Y41952D01*
G37*
G36*
X66145D02*X61027D01*
Y36048D01*
X66145D01*
Y41952D01*
G37*
G36*
X81500Y17000D02*Y15000D01*
X90000D01*
Y17000D01*
X81500D01*
G37*
G36*
Y22000D02*Y20000D01*
X90000D01*
Y22000D01*
X81500D01*
G37*
G36*
Y27000D02*Y25000D01*
X90000D01*
Y27000D01*
X81500D01*
G37*
G36*
Y32000D02*Y30000D01*
X90000D01*
Y32000D01*
X81500D01*
G37*
G36*
X96500Y46500D02*Y44500D01*
X105000D01*
Y46500D01*
X96500D01*
G37*
G36*
Y51500D02*Y49500D01*
X105000D01*
Y51500D01*
X96500D01*
G37*
G36*
Y56500D02*Y54500D01*
X105000D01*
Y56500D01*
X96500D01*
G37*
G36*
Y61500D02*Y59500D01*
X105000D01*
Y61500D01*
X96500D01*
G37*
G54D16*X98500Y31500D03*
Y26500D03*
Y21500D03*
X103500Y31500D03*
Y26500D03*
Y21500D03*
G54D17*X14000Y95500D03*
Y92000D03*
Y88500D03*
X17500Y95500D03*
Y92000D03*
Y88500D03*
X31000Y98000D03*
X101500Y87000D03*
Y83500D03*
X31000Y101200D03*
X76400Y91000D03*
X33000Y49000D03*
X29500D03*
X26000D03*
Y45500D03*
Y42000D03*
X28000Y84000D03*
X31000D03*
X26000Y38500D03*
X56500Y45000D03*
X21500Y18000D03*
X19500Y16000D03*
X17500Y18000D03*
X47000Y23500D03*
X50000D03*
X40000Y74000D03*
Y70000D03*
Y66000D03*
X94000Y60500D03*
X90500D03*
X79500Y31000D03*
X76500D03*
X88000Y34500D03*
X106500Y29000D03*
X100750Y42250D03*
X65500Y24000D03*
X91500Y16000D03*
X96000Y28500D03*
X74000Y58000D03*
G54D18*G54D19*M02*
