G04 start of page 7 for group -4063 idx -4063 *
G04 Title: (unknown), componentmask *
G04 Creator: pcb 4.0.2 *
G04 CreationDate: Mon Feb 22 18:20:50 2021 UTC *
G04 For: ndholmes *
G04 Format: Gerber/RS-274X *
G04 PCB-Dimensions (mil): 1800.00 1200.00 *
G04 PCB-Coordinate-Origin: lower left *
%MOIN*%
%FSLAX25Y25*%
%LNTOPMASK*%
%ADD31C,0.0370*%
%ADD30C,0.0001*%
%ADD29C,0.0490*%
G54D29*X101000Y36500D03*
X105000Y16500D03*
X97000D03*
G54D30*G36*
X65748Y71316D02*Y65598D01*
X72252D01*
Y71316D01*
X65748D01*
G37*
G36*
X94142Y77698D02*X88858D01*
Y64105D01*
X94142D01*
Y77698D01*
G37*
G36*
X75500Y62000D02*Y59000D01*
X85000D01*
Y62000D01*
X75500D01*
G37*
G36*
Y57000D02*Y54000D01*
X85000D01*
Y57000D01*
X75500D01*
G37*
G36*
Y52000D02*Y49000D01*
X85000D01*
Y52000D01*
X75500D01*
G37*
G36*
Y47000D02*Y44000D01*
X85000D01*
Y47000D01*
X75500D01*
G37*
G36*
X65748Y52316D02*Y46598D01*
X72252D01*
Y52316D01*
X65748D01*
G37*
G36*
Y59402D02*Y53684D01*
X72252D01*
Y59402D01*
X65748D01*
G37*
G36*
X26149Y67355D02*Y64393D01*
X32851D01*
Y67355D01*
X26149D01*
G37*
G36*
Y63418D02*Y60456D01*
X32851D01*
Y63418D01*
X26149D01*
G37*
G36*
Y59481D02*Y56519D01*
X32851D01*
Y59481D01*
X26149D01*
G37*
G36*
Y55544D02*Y52582D01*
X32851D01*
Y55544D01*
X26149D01*
G37*
G36*
X10401Y73654D02*Y68330D01*
X18087D01*
Y73654D01*
X10401D01*
G37*
G36*
X52950Y76442D02*X46050D01*
Y63243D01*
X52950D01*
Y76442D01*
G37*
G36*
X19248Y91902D02*Y86184D01*
X25752D01*
Y91902D01*
X19248D01*
G37*
G36*
Y84816D02*Y79098D01*
X25752D01*
Y84816D01*
X19248D01*
G37*
G36*
X49748Y93816D02*Y88098D01*
X56252D01*
Y93816D01*
X49748D01*
G37*
G36*
Y100902D02*Y95184D01*
X56252D01*
Y100902D01*
X49748D01*
G37*
G36*
X45260Y99878D02*X42220D01*
Y94476D01*
X45260D01*
Y99878D01*
G37*
G36*
X41520D02*X38480D01*
Y94476D01*
X41520D01*
Y99878D01*
G37*
G36*
X37780D02*X34740D01*
Y94476D01*
X37780D01*
Y99878D01*
G37*
G36*
Y89524D02*X34740D01*
Y84122D01*
X37780D01*
Y89524D01*
G37*
G36*
X41520D02*X38480D01*
Y84122D01*
X41520D01*
Y89524D01*
G37*
G36*
X45260D02*X42220D01*
Y84122D01*
X45260D01*
Y89524D01*
G37*
G36*
X52950Y56757D02*X46050D01*
Y43558D01*
X52950D01*
Y56757D01*
G37*
G36*
X28816Y20752D02*X23098D01*
Y14248D01*
X28816D01*
Y20752D01*
G37*
G36*
X29284Y33300D02*X24904D01*
Y24826D01*
X29284D01*
Y33300D01*
G37*
G36*
X35902Y20752D02*X30184D01*
Y14248D01*
X35902D01*
Y20752D01*
G37*
G36*
X35190Y41016D02*X30810D01*
Y24826D01*
X35190D01*
Y41016D01*
G37*
G36*
X38025Y47475D02*X27975D01*
Y35535D01*
X38025D01*
Y47475D01*
G37*
G36*
X29695Y37679D02*X27851Y35835D01*
X31115Y32571D01*
X32959Y34415D01*
X29695Y37679D01*
G37*
G36*
X38149Y35835D02*X36305Y37679D01*
X33041Y34415D01*
X34885Y32571D01*
X38149Y35835D01*
G37*
G36*
X41096Y33300D02*X36716D01*
Y24826D01*
X41096D01*
Y33300D01*
G37*
G36*
X10401Y51607D02*Y46283D01*
X18087D01*
Y51607D01*
X10401D01*
G37*
G36*
X14248Y41902D02*Y36184D01*
X20752D01*
Y41902D01*
X14248D01*
G37*
G36*
Y34816D02*Y29098D01*
X20752D01*
Y34816D01*
X14248D01*
G37*
G36*
X38150Y22150D02*Y20050D01*
X42250D01*
Y22150D01*
X38150D01*
G37*
G36*
Y17050D02*Y14950D01*
X42250D01*
Y17050D01*
X38150D01*
G37*
G36*
X45150D02*Y14950D01*
X49250D01*
Y17050D01*
X45150D01*
G37*
G36*
Y19550D02*Y17450D01*
X49250D01*
Y19550D01*
X45150D01*
G37*
G36*
Y22150D02*Y20050D01*
X49250D01*
Y22150D01*
X45150D01*
G37*
G36*
X65748Y78402D02*Y72684D01*
X72252D01*
Y78402D01*
X65748D01*
G37*
G36*
X104142Y102894D02*X98858D01*
Y89302D01*
X104142D01*
Y102894D01*
G37*
G36*
X84142D02*X78858D01*
Y89302D01*
X84142D01*
Y102894D01*
G37*
G36*
X58748Y100902D02*Y95184D01*
X65252D01*
Y100902D01*
X58748D01*
G37*
G36*
Y93816D02*Y88098D01*
X65252D01*
Y93816D01*
X58748D01*
G37*
G36*
X67748Y100902D02*Y95184D01*
X74252D01*
Y100902D01*
X67748D01*
G37*
G36*
Y93816D02*Y88098D01*
X74252D01*
Y93816D01*
X67748D01*
G37*
G36*
X54500Y32500D02*Y29500D01*
X64000D01*
Y32500D01*
X54500D01*
G37*
G36*
Y27500D02*Y24500D01*
X64000D01*
Y27500D01*
X54500D01*
G37*
G36*
Y22500D02*Y19500D01*
X64000D01*
Y22500D01*
X54500D01*
G37*
G36*
Y17500D02*Y14500D01*
X64000D01*
Y17500D01*
X54500D01*
G37*
G36*
X59359Y42252D02*X53641D01*
Y35748D01*
X59359D01*
Y42252D01*
G37*
G36*
X66445D02*X60727D01*
Y35748D01*
X66445D01*
Y42252D01*
G37*
G36*
X81000Y17500D02*Y14500D01*
X90500D01*
Y17500D01*
X81000D01*
G37*
G36*
Y22500D02*Y19500D01*
X90500D01*
Y22500D01*
X81000D01*
G37*
G36*
Y27500D02*Y24500D01*
X90500D01*
Y27500D01*
X81000D01*
G37*
G36*
Y32500D02*Y29500D01*
X90500D01*
Y32500D01*
X81000D01*
G37*
G36*
X96000Y47000D02*Y44000D01*
X105500D01*
Y47000D01*
X96000D01*
G37*
G36*
Y52000D02*Y49000D01*
X105500D01*
Y52000D01*
X96000D01*
G37*
G36*
Y57000D02*Y54000D01*
X105500D01*
Y57000D01*
X96000D01*
G37*
G36*
Y62000D02*Y59000D01*
X105500D01*
Y62000D01*
X96000D01*
G37*
G54D31*X98500Y31500D03*
Y26500D03*
Y21500D03*
X103500Y31500D03*
Y26500D03*
Y21500D03*
M02*
