G04 start of page 13 for group -3984 idx -3984 *
G04 Title: (unknown), fab *
G04 Creator: pcb 4.0.2 *
G04 CreationDate: Mon Feb 22 18:20:50 2021 UTC *
G04 For: ndholmes *
G04 Format: Gerber/RS-274X *
G04 PCB-Dimensions (mil): 1800.00 1200.00 *
G04 PCB-Coordinate-Origin: lower left *
%MOIN*%
%FSLAX25Y25*%
%LNFAB*%
%ADD45C,0.0100*%
%ADD44C,0.0075*%
%ADD43C,0.0060*%
%ADD42R,0.0080X0.0080*%
G54D42*X101000Y38100D02*Y34900D01*
X99400Y36500D02*X102600D01*
X105000Y18100D02*Y14900D01*
X103400Y16500D02*X106600D01*
X97000Y18100D02*Y14900D01*
X95400Y16500D02*X98600D01*
X15000Y162850D02*Y159650D01*
X13400Y161250D02*X16600D01*
G54D43*X140000Y163500D02*Y157500D01*
Y163500D02*X143750Y157500D01*
Y163500D02*Y157500D01*
X145550Y162750D02*Y158250D01*
Y162750D02*X146300Y163500D01*
X147800D01*
X148550Y162750D01*
Y158250D01*
X147800Y157500D02*X148550Y158250D01*
X146300Y157500D02*X147800D01*
X145550Y158250D02*X146300Y157500D01*
X98000Y162750D02*X98750Y163500D01*
X100250D01*
X101000Y162750D01*
X100250Y157500D02*X101000Y158250D01*
X98750Y157500D02*X100250D01*
X98000Y158250D02*X98750Y157500D01*
Y160800D02*X100250D01*
X101000Y162750D02*Y161550D01*
Y160050D02*Y158250D01*
Y160050D02*X100250Y160800D01*
X101000Y161550D02*X100250Y160800D01*
X45000Y158250D02*X45750Y157500D01*
X45000Y162750D02*Y158250D01*
Y162750D02*X45750Y163500D01*
X47250D01*
X48000Y162750D01*
Y158250D01*
X47250Y157500D02*X48000Y158250D01*
X45750Y157500D02*X47250D01*
X45000Y159000D02*X48000Y162000D01*
X49800Y157500D02*X50550D01*
X52350Y158250D02*X53100Y157500D01*
X52350Y162750D02*Y158250D01*
Y162750D02*X53100Y163500D01*
X54600D01*
X55350Y162750D01*
Y158250D01*
X54600Y157500D02*X55350Y158250D01*
X53100Y157500D02*X54600D01*
X52350Y159000D02*X55350Y162000D01*
X57150Y162750D02*X57900Y163500D01*
X59400D01*
X60150Y162750D01*
X59400Y157500D02*X60150Y158250D01*
X57900Y157500D02*X59400D01*
X57150Y158250D02*X57900Y157500D01*
Y160800D02*X59400D01*
X60150Y162750D02*Y161550D01*
Y160050D02*Y158250D01*
Y160050D02*X59400Y160800D01*
X60150Y161550D02*X59400Y160800D01*
X62700Y157500D02*X64950Y160500D01*
Y162750D02*Y160500D01*
X64200Y163500D02*X64950Y162750D01*
X62700Y163500D02*X64200D01*
X61950Y162750D02*X62700Y163500D01*
X61950Y162750D02*Y161250D01*
X62700Y160500D01*
X64950D01*
X40000Y74000D02*Y72400D01*
Y74000D02*X41387Y74800D01*
X40000Y74000D02*X38613Y74800D01*
X40000Y70000D02*Y68400D01*
Y70000D02*X41387Y70800D01*
X40000Y70000D02*X38613Y70800D01*
X40000Y66000D02*Y64400D01*
Y66000D02*X41387Y66800D01*
X40000Y66000D02*X38613Y66800D01*
X33000Y49000D02*Y47400D01*
Y49000D02*X34387Y49800D01*
X33000Y49000D02*X31613Y49800D01*
X29500Y49000D02*Y47400D01*
Y49000D02*X30887Y49800D01*
X29500Y49000D02*X28113Y49800D01*
X26000Y49000D02*Y47400D01*
Y49000D02*X27387Y49800D01*
X26000Y49000D02*X24613Y49800D01*
X26000Y45500D02*Y43900D01*
Y45500D02*X27387Y46300D01*
X26000Y45500D02*X24613Y46300D01*
X26000Y42000D02*Y40400D01*
Y42000D02*X27387Y42800D01*
X26000Y42000D02*X24613Y42800D01*
X26000Y38500D02*Y36900D01*
Y38500D02*X27387Y39300D01*
X26000Y38500D02*X24613Y39300D01*
X21500Y18000D02*Y16400D01*
Y18000D02*X22887Y18800D01*
X21500Y18000D02*X20113Y18800D01*
X17500Y18000D02*Y16400D01*
Y18000D02*X18887Y18800D01*
X17500Y18000D02*X16113Y18800D01*
X19500Y16000D02*Y14400D01*
Y16000D02*X20887Y16800D01*
X19500Y16000D02*X18113Y16800D01*
X79500Y31000D02*Y29400D01*
Y31000D02*X80887Y31800D01*
X79500Y31000D02*X78113Y31800D01*
X28000Y84000D02*Y82400D01*
Y84000D02*X29387Y84800D01*
X28000Y84000D02*X26613Y84800D01*
X31000Y84000D02*Y82400D01*
Y84000D02*X32387Y84800D01*
X31000Y84000D02*X29613Y84800D01*
X14000Y95500D02*Y93900D01*
Y95500D02*X15387Y96300D01*
X14000Y95500D02*X12613Y96300D01*
X14000Y92000D02*Y90400D01*
Y92000D02*X15387Y92800D01*
X14000Y92000D02*X12613Y92800D01*
X14000Y88500D02*Y86900D01*
Y88500D02*X15387Y89300D01*
X14000Y88500D02*X12613Y89300D01*
X17500Y95500D02*Y93900D01*
Y95500D02*X18887Y96300D01*
X17500Y95500D02*X16113Y96300D01*
X17500Y92000D02*Y90400D01*
Y92000D02*X18887Y92800D01*
X17500Y92000D02*X16113Y92800D01*
X17500Y88500D02*Y86900D01*
Y88500D02*X18887Y89300D01*
X17500Y88500D02*X16113Y89300D01*
X31000Y98000D02*Y96400D01*
Y98000D02*X32387Y98800D01*
X31000Y98000D02*X29613Y98800D01*
X101500Y87000D02*Y85400D01*
Y87000D02*X102887Y87800D01*
X101500Y87000D02*X100113Y87800D01*
X101500Y83500D02*Y81900D01*
Y83500D02*X102887Y84300D01*
X101500Y83500D02*X100113Y84300D01*
X94000Y60500D02*Y58900D01*
Y60500D02*X95387Y61300D01*
X94000Y60500D02*X92613Y61300D01*
X90500Y60500D02*Y58900D01*
Y60500D02*X91887Y61300D01*
X90500Y60500D02*X89113Y61300D01*
X76500Y31000D02*Y29400D01*
Y31000D02*X77887Y31800D01*
X76500Y31000D02*X75113Y31800D01*
X88000Y34500D02*Y32900D01*
Y34500D02*X89387Y35300D01*
X88000Y34500D02*X86613Y35300D01*
X106500Y29000D02*Y27400D01*
Y29000D02*X107887Y29800D01*
X106500Y29000D02*X105113Y29800D01*
X100750Y42250D02*Y40650D01*
Y42250D02*X102137Y43050D01*
X100750Y42250D02*X99363Y43050D01*
X31000Y101200D02*Y99600D01*
Y101200D02*X32387Y102000D01*
X31000Y101200D02*X29613Y102000D01*
X76400Y91000D02*Y89400D01*
Y91000D02*X77787Y91800D01*
X76400Y91000D02*X75013Y91800D01*
X56500Y45000D02*Y43400D01*
Y45000D02*X57887Y45800D01*
X56500Y45000D02*X55113Y45800D01*
X65500Y24000D02*Y22400D01*
Y24000D02*X66887Y24800D01*
X65500Y24000D02*X64113Y24800D01*
X91500Y16000D02*Y14400D01*
Y16000D02*X92887Y16800D01*
X91500Y16000D02*X90113Y16800D01*
X96000Y28500D02*Y26900D01*
Y28500D02*X97387Y29300D01*
X96000Y28500D02*X94613Y29300D01*
X47000Y23500D02*Y21900D01*
Y23500D02*X48387Y24300D01*
X47000Y23500D02*X45613Y24300D01*
X50000Y23500D02*Y21900D01*
Y23500D02*X51387Y24300D01*
X50000Y23500D02*X48613Y24300D01*
X74000Y58000D02*Y56400D01*
Y58000D02*X75387Y58800D01*
X74000Y58000D02*X72613Y58800D01*
X15000Y176250D02*Y174650D01*
Y176250D02*X16387Y177050D01*
X15000Y176250D02*X13613Y177050D01*
X135000Y178500D02*X136500Y175500D01*
X138000Y178500D01*
X136500Y175500D02*Y172500D01*
X139800Y175800D02*X142050D01*
X139800Y172500D02*X142800D01*
X139800Y178500D02*Y172500D01*
Y178500D02*X142800D01*
X147600D02*X148350Y177750D01*
X145350Y178500D02*X147600D01*
X144600Y177750D02*X145350Y178500D01*
X144600Y177750D02*Y176250D01*
X145350Y175500D01*
X147600D01*
X148350Y174750D01*
Y173250D01*
X147600Y172500D02*X148350Y173250D01*
X145350Y172500D02*X147600D01*
X144600Y173250D02*X145350Y172500D01*
X98000Y177750D02*X98750Y178500D01*
X100250D01*
X101000Y177750D01*
X100250Y172500D02*X101000Y173250D01*
X98750Y172500D02*X100250D01*
X98000Y173250D02*X98750Y172500D01*
Y175800D02*X100250D01*
X101000Y177750D02*Y176550D01*
Y175050D02*Y173250D01*
Y175050D02*X100250Y175800D01*
X101000Y176550D02*X100250Y175800D01*
X103550Y172500D02*X105800Y175500D01*
Y177750D02*Y175500D01*
X105050Y178500D02*X105800Y177750D01*
X103550Y178500D02*X105050D01*
X102800Y177750D02*X103550Y178500D01*
X102800Y177750D02*Y176250D01*
X103550Y175500D01*
X105800D01*
X45000Y173250D02*X45750Y172500D01*
X45000Y177750D02*Y173250D01*
Y177750D02*X45750Y178500D01*
X47250D01*
X48000Y177750D01*
Y173250D01*
X47250Y172500D02*X48000Y173250D01*
X45750Y172500D02*X47250D01*
X45000Y174000D02*X48000Y177000D01*
X49800Y172500D02*X50550D01*
X52350Y173250D02*X53100Y172500D01*
X52350Y177750D02*Y173250D01*
Y177750D02*X53100Y178500D01*
X54600D01*
X55350Y177750D01*
Y173250D01*
X54600Y172500D02*X55350Y173250D01*
X53100Y172500D02*X54600D01*
X52350Y174000D02*X55350Y177000D01*
X57150Y177300D02*X58350Y178500D01*
Y172500D01*
X57150D02*X59400D01*
X61200Y177750D02*X61950Y178500D01*
X64200D01*
X64950Y177750D01*
Y176250D01*
X61200Y172500D02*X64950Y176250D01*
X61200Y172500D02*X64950D01*
X3000Y193500D02*X3750Y192750D01*
X750Y193500D02*X3000D01*
X0Y192750D02*X750Y193500D01*
X0Y192750D02*Y191250D01*
X750Y190500D01*
X3000D01*
X3750Y189750D01*
Y188250D01*
X3000Y187500D02*X3750Y188250D01*
X750Y187500D02*X3000D01*
X0Y188250D02*X750Y187500D01*
X5550Y190500D02*Y188250D01*
X6300Y187500D01*
X8550Y190500D02*Y186000D01*
X7800Y185250D02*X8550Y186000D01*
X6300Y185250D02*X7800D01*
X5550Y186000D02*X6300Y185250D01*
Y187500D02*X7800D01*
X8550Y188250D01*
X11100Y189750D02*Y187500D01*
Y189750D02*X11850Y190500D01*
X12600D01*
X13350Y189750D01*
Y187500D01*
Y189750D02*X14100Y190500D01*
X14850D01*
X15600Y189750D01*
Y187500D01*
X10350Y190500D02*X11100Y189750D01*
X17400Y193500D02*Y187500D01*
Y188250D02*X18150Y187500D01*
X19650D01*
X20400Y188250D01*
Y189750D02*Y188250D01*
X19650Y190500D02*X20400Y189750D01*
X18150Y190500D02*X19650D01*
X17400Y189750D02*X18150Y190500D01*
X22200Y189750D02*Y188250D01*
Y189750D02*X22950Y190500D01*
X24450D01*
X25200Y189750D01*
Y188250D01*
X24450Y187500D02*X25200Y188250D01*
X22950Y187500D02*X24450D01*
X22200Y188250D02*X22950Y187500D01*
X27000Y193500D02*Y188250D01*
X27750Y187500D01*
X0Y184250D02*X29250D01*
X41750Y193500D02*Y187500D01*
X43700Y193500D02*X44750Y192450D01*
Y188550D01*
X43700Y187500D02*X44750Y188550D01*
X41000Y187500D02*X43700D01*
X41000Y193500D02*X43700D01*
G54D44*X46550Y192000D02*Y191850D01*
G54D43*Y189750D02*Y187500D01*
X50300Y190500D02*X51050Y189750D01*
X48800Y190500D02*X50300D01*
X48050Y189750D02*X48800Y190500D01*
X48050Y189750D02*Y188250D01*
X48800Y187500D01*
X51050Y190500D02*Y188250D01*
X51800Y187500D01*
X48800D02*X50300D01*
X51050Y188250D01*
X54350Y189750D02*Y187500D01*
Y189750D02*X55100Y190500D01*
X55850D01*
X56600Y189750D01*
Y187500D01*
Y189750D02*X57350Y190500D01*
X58100D01*
X58850Y189750D01*
Y187500D01*
X53600Y190500D02*X54350Y189750D01*
X60650Y187500D02*X61400D01*
X65900Y188250D02*X66650Y187500D01*
X65900Y192750D02*X66650Y193500D01*
X65900Y192750D02*Y188250D01*
X68450Y193500D02*X69950D01*
X69200D02*Y187500D01*
X68450D02*X69950D01*
X72500Y189750D02*Y187500D01*
Y189750D02*X73250Y190500D01*
X74000D01*
X74750Y189750D01*
Y187500D01*
X71750Y190500D02*X72500Y189750D01*
X77300Y190500D02*X79550D01*
X76550Y189750D02*X77300Y190500D01*
X76550Y189750D02*Y188250D01*
X77300Y187500D01*
X79550D01*
X81350Y193500D02*Y187500D01*
Y189750D02*X82100Y190500D01*
X83600D01*
X84350Y189750D01*
Y187500D01*
X86150Y193500D02*X86900Y192750D01*
Y188250D01*
X86150Y187500D02*X86900Y188250D01*
X41000Y184250D02*X88700D01*
X96050Y187500D02*X98000D01*
X95000Y188550D02*X96050Y187500D01*
X95000Y192450D02*Y188550D01*
Y192450D02*X96050Y193500D01*
X98000D01*
X99800Y189750D02*Y188250D01*
Y189750D02*X100550Y190500D01*
X102050D01*
X102800Y189750D01*
Y188250D01*
X102050Y187500D02*X102800Y188250D01*
X100550Y187500D02*X102050D01*
X99800Y188250D02*X100550Y187500D01*
X104600Y190500D02*Y188250D01*
X105350Y187500D01*
X106850D01*
X107600Y188250D01*
Y190500D02*Y188250D01*
X110150Y189750D02*Y187500D01*
Y189750D02*X110900Y190500D01*
X111650D01*
X112400Y189750D01*
Y187500D01*
X109400Y190500D02*X110150Y189750D01*
X114950Y193500D02*Y188250D01*
X115700Y187500D01*
X114200Y191250D02*X115700D01*
X95000Y184250D02*X117200D01*
X130750Y193500D02*Y187500D01*
X130000Y193500D02*X133000D01*
X133750Y192750D01*
Y191250D01*
X133000Y190500D02*X133750Y191250D01*
X130750Y190500D02*X133000D01*
X135550Y193500D02*Y188250D01*
X136300Y187500D01*
X140050Y190500D02*X140800Y189750D01*
X138550Y190500D02*X140050D01*
X137800Y189750D02*X138550Y190500D01*
X137800Y189750D02*Y188250D01*
X138550Y187500D01*
X140800Y190500D02*Y188250D01*
X141550Y187500D01*
X138550D02*X140050D01*
X140800Y188250D01*
X144100Y193500D02*Y188250D01*
X144850Y187500D01*
X143350Y191250D02*X144850D01*
X147100Y187500D02*X149350D01*
X146350Y188250D02*X147100Y187500D01*
X146350Y189750D02*Y188250D01*
Y189750D02*X147100Y190500D01*
X148600D01*
X149350Y189750D01*
X146350Y189000D02*X149350D01*
Y189750D02*Y189000D01*
X154150Y193500D02*Y187500D01*
X153400D02*X154150Y188250D01*
X151900Y187500D02*X153400D01*
X151150Y188250D02*X151900Y187500D01*
X151150Y189750D02*Y188250D01*
Y189750D02*X151900Y190500D01*
X153400D01*
X154150Y189750D01*
X157450Y190500D02*Y189750D01*
Y188250D02*Y187500D01*
X155950Y192750D02*Y192000D01*
Y192750D02*X156700Y193500D01*
X158200D01*
X158950Y192750D01*
Y192000D01*
X157450Y190500D02*X158950Y192000D01*
X130000Y184250D02*X160750D01*
X0Y208500D02*X3000D01*
X1500D02*Y202500D01*
X4800Y208500D02*Y202500D01*
Y204750D02*X5550Y205500D01*
X7050D01*
X7800Y204750D01*
Y202500D01*
X10350D02*X12600D01*
X9600Y203250D02*X10350Y202500D01*
X9600Y204750D02*Y203250D01*
Y204750D02*X10350Y205500D01*
X11850D01*
X12600Y204750D01*
X9600Y204000D02*X12600D01*
Y204750D02*Y204000D01*
X15150Y204750D02*Y202500D01*
Y204750D02*X15900Y205500D01*
X17400D01*
X14400D02*X15150Y204750D01*
X19950Y202500D02*X22200D01*
X19200Y203250D02*X19950Y202500D01*
X19200Y204750D02*Y203250D01*
Y204750D02*X19950Y205500D01*
X21450D01*
X22200Y204750D01*
X19200Y204000D02*X22200D01*
Y204750D02*Y204000D01*
X28950Y205500D02*X29700Y204750D01*
X27450Y205500D02*X28950D01*
X26700Y204750D02*X27450Y205500D01*
X26700Y204750D02*Y203250D01*
X27450Y202500D01*
X29700Y205500D02*Y203250D01*
X30450Y202500D01*
X27450D02*X28950D01*
X29700Y203250D01*
X33000Y204750D02*Y202500D01*
Y204750D02*X33750Y205500D01*
X35250D01*
X32250D02*X33000Y204750D01*
X37800Y202500D02*X40050D01*
X37050Y203250D02*X37800Y202500D01*
X37050Y204750D02*Y203250D01*
Y204750D02*X37800Y205500D01*
X39300D01*
X40050Y204750D01*
X37050Y204000D02*X40050D01*
Y204750D02*Y204000D01*
X44550Y207750D02*X45300Y208500D01*
X47550D01*
X48300Y207750D01*
Y206250D01*
X44550Y202500D02*X48300Y206250D01*
X44550Y202500D02*X48300D01*
X55800Y208500D02*Y202500D01*
X55050D02*X55800Y203250D01*
X53550Y202500D02*X55050D01*
X52800Y203250D02*X53550Y202500D01*
X52800Y204750D02*Y203250D01*
Y204750D02*X53550Y205500D01*
X55050D01*
X55800Y204750D01*
G54D44*X57600Y207000D02*Y206850D01*
G54D43*Y204750D02*Y202500D01*
X59850Y207750D02*Y202500D01*
Y207750D02*X60600Y208500D01*
X61350D01*
X59100Y205500D02*X60600D01*
X63600Y207750D02*Y202500D01*
Y207750D02*X64350Y208500D01*
X65100D01*
X62850Y205500D02*X64350D01*
X67350Y202500D02*X69600D01*
X66600Y203250D02*X67350Y202500D01*
X66600Y204750D02*Y203250D01*
Y204750D02*X67350Y205500D01*
X68850D01*
X69600Y204750D01*
X66600Y204000D02*X69600D01*
Y204750D02*Y204000D01*
X72150Y204750D02*Y202500D01*
Y204750D02*X72900Y205500D01*
X74400D01*
X71400D02*X72150Y204750D01*
X76950Y202500D02*X79200D01*
X76200Y203250D02*X76950Y202500D01*
X76200Y204750D02*Y203250D01*
Y204750D02*X76950Y205500D01*
X78450D01*
X79200Y204750D01*
X76200Y204000D02*X79200D01*
Y204750D02*Y204000D01*
X81750Y204750D02*Y202500D01*
Y204750D02*X82500Y205500D01*
X83250D01*
X84000Y204750D01*
Y202500D01*
X81000Y205500D02*X81750Y204750D01*
X86550Y208500D02*Y203250D01*
X87300Y202500D01*
X85800Y206250D02*X87300D01*
X94500Y208500D02*Y202500D01*
X93750D02*X94500Y203250D01*
X92250Y202500D02*X93750D01*
X91500Y203250D02*X92250Y202500D01*
X91500Y204750D02*Y203250D01*
Y204750D02*X92250Y205500D01*
X93750D01*
X94500Y204750D01*
X97050D02*Y202500D01*
Y204750D02*X97800Y205500D01*
X99300D01*
X96300D02*X97050Y204750D01*
G54D44*X101100Y207000D02*Y206850D01*
G54D43*Y204750D02*Y202500D01*
X102600Y208500D02*Y203250D01*
X103350Y202500D01*
X104850Y208500D02*Y203250D01*
X105600Y202500D01*
X110550D02*X112800D01*
X113550Y203250D01*
X112800Y204000D02*X113550Y203250D01*
X110550Y204000D02*X112800D01*
X109800Y204750D02*X110550Y204000D01*
X109800Y204750D02*X110550Y205500D01*
X112800D01*
X113550Y204750D01*
X109800Y203250D02*X110550Y202500D01*
G54D44*X115350Y207000D02*Y206850D01*
G54D43*Y204750D02*Y202500D01*
X116850Y205500D02*X119850D01*
X116850Y202500D02*X119850Y205500D01*
X116850Y202500D02*X119850D01*
X122400D02*X124650D01*
X121650Y203250D02*X122400Y202500D01*
X121650Y204750D02*Y203250D01*
Y204750D02*X122400Y205500D01*
X123900D01*
X124650Y204750D01*
X121650Y204000D02*X124650D01*
Y204750D02*Y204000D01*
X127200Y202500D02*X129450D01*
X130200Y203250D01*
X129450Y204000D02*X130200Y203250D01*
X127200Y204000D02*X129450D01*
X126450Y204750D02*X127200Y204000D01*
X126450Y204750D02*X127200Y205500D01*
X129450D01*
X130200Y204750D01*
X126450Y203250D02*X127200Y202500D01*
X134700Y205500D02*Y203250D01*
X135450Y202500D01*
X136950D01*
X137700Y203250D01*
Y205500D02*Y203250D01*
X140250Y202500D02*X142500D01*
X143250Y203250D01*
X142500Y204000D02*X143250Y203250D01*
X140250Y204000D02*X142500D01*
X139500Y204750D02*X140250Y204000D01*
X139500Y204750D02*X140250Y205500D01*
X142500D01*
X143250Y204750D01*
X139500Y203250D02*X140250Y202500D01*
X145800D02*X148050D01*
X145050Y203250D02*X145800Y202500D01*
X145050Y204750D02*Y203250D01*
Y204750D02*X145800Y205500D01*
X147300D01*
X148050Y204750D01*
X145050Y204000D02*X148050D01*
Y204750D02*Y204000D01*
X152850Y208500D02*Y202500D01*
X152100D02*X152850Y203250D01*
X150600Y202500D02*X152100D01*
X149850Y203250D02*X150600Y202500D01*
X149850Y204750D02*Y203250D01*
Y204750D02*X150600Y205500D01*
X152100D01*
X152850Y204750D01*
G54D44*X157350Y207000D02*Y206850D01*
G54D43*Y204750D02*Y202500D01*
X159600Y204750D02*Y202500D01*
Y204750D02*X160350Y205500D01*
X161100D01*
X161850Y204750D01*
Y202500D01*
X158850Y205500D02*X159600Y204750D01*
X167100Y208500D02*Y203250D01*
X167850Y202500D01*
X166350Y206250D02*X167850D01*
X169350Y208500D02*Y202500D01*
Y204750D02*X170100Y205500D01*
X171600D01*
X172350Y204750D01*
Y202500D01*
G54D44*X174150Y207000D02*Y206850D01*
G54D43*Y204750D02*Y202500D01*
X176400D02*X178650D01*
X179400Y203250D01*
X178650Y204000D02*X179400Y203250D01*
X176400Y204000D02*X178650D01*
X175650Y204750D02*X176400Y204000D01*
X175650Y204750D02*X176400Y205500D01*
X178650D01*
X179400Y204750D01*
X175650Y203250D02*X176400Y202500D01*
X183900Y208500D02*Y203250D01*
X184650Y202500D01*
X188400Y205500D02*X189150Y204750D01*
X186900Y205500D02*X188400D01*
X186150Y204750D02*X186900Y205500D01*
X186150Y204750D02*Y203250D01*
X186900Y202500D01*
X189150Y205500D02*Y203250D01*
X189900Y202500D01*
X186900D02*X188400D01*
X189150Y203250D01*
X191700Y205500D02*Y203250D01*
X192450Y202500D01*
X194700Y205500D02*Y201000D01*
X193950Y200250D02*X194700Y201000D01*
X192450Y200250D02*X193950D01*
X191700Y201000D02*X192450Y200250D01*
Y202500D02*X193950D01*
X194700Y203250D01*
X196500Y204750D02*Y203250D01*
Y204750D02*X197250Y205500D01*
X198750D01*
X199500Y204750D01*
Y203250D01*
X198750Y202500D02*X199500Y203250D01*
X197250Y202500D02*X198750D01*
X196500Y203250D02*X197250Y202500D01*
X201300Y205500D02*Y203250D01*
X202050Y202500D01*
X203550D01*
X204300Y203250D01*
Y205500D02*Y203250D01*
X206850Y208500D02*Y203250D01*
X207600Y202500D01*
X206100Y206250D02*X207600D01*
X209100Y201000D02*X210600Y202500D01*
X215100Y204750D02*X218100Y208500D01*
X215100Y204750D02*X218850D01*
X218100Y208500D02*Y202500D01*
X220650Y207750D02*X221400Y208500D01*
X223650D01*
X224400Y207750D01*
Y206250D01*
X220650Y202500D02*X224400Y206250D01*
X220650Y202500D02*X224400D01*
X228900Y208500D02*Y202500D01*
Y204750D02*X229650Y205500D01*
X231150D01*
X231900Y204750D01*
Y202500D01*
X233700Y204750D02*Y203250D01*
Y204750D02*X234450Y205500D01*
X235950D01*
X236700Y204750D01*
Y203250D01*
X235950Y202500D02*X236700Y203250D01*
X234450Y202500D02*X235950D01*
X233700Y203250D02*X234450Y202500D01*
X238500Y208500D02*Y203250D01*
X239250Y202500D01*
X241500D02*X243750D01*
X240750Y203250D02*X241500Y202500D01*
X240750Y204750D02*Y203250D01*
Y204750D02*X241500Y205500D01*
X243000D01*
X243750Y204750D01*
X240750Y204000D02*X243750D01*
Y204750D02*Y204000D01*
X246300Y202500D02*X248550D01*
X249300Y203250D01*
X248550Y204000D02*X249300Y203250D01*
X246300Y204000D02*X248550D01*
X245550Y204750D02*X246300Y204000D01*
X245550Y204750D02*X246300Y205500D01*
X248550D01*
X249300Y204750D01*
X245550Y203250D02*X246300Y202500D01*
X254550Y208500D02*Y203250D01*
X255300Y202500D01*
X253800Y206250D02*X255300D01*
X256800Y204750D02*Y203250D01*
Y204750D02*X257550Y205500D01*
X259050D01*
X259800Y204750D01*
Y203250D01*
X259050Y202500D02*X259800Y203250D01*
X257550Y202500D02*X259050D01*
X256800Y203250D02*X257550Y202500D01*
X262350Y208500D02*Y203250D01*
X263100Y202500D01*
X261600Y206250D02*X263100D01*
X266850Y205500D02*X267600Y204750D01*
X265350Y205500D02*X266850D01*
X264600Y204750D02*X265350Y205500D01*
X264600Y204750D02*Y203250D01*
X265350Y202500D01*
X267600Y205500D02*Y203250D01*
X268350Y202500D01*
X265350D02*X266850D01*
X267600Y203250D01*
X270150Y208500D02*Y203250D01*
X270900Y202500D01*
G54D45*X10000Y110000D02*X110000D01*
Y10000D01*
X10000D01*
Y110000D01*
G54D43*X3675Y-9500D02*X6675D01*
X7425Y-8750D01*
Y-6950D02*Y-8750D01*
X6675Y-6200D02*X7425Y-6950D01*
X4425Y-6200D02*X6675D01*
X4425Y-3500D02*Y-9500D01*
X3675Y-3500D02*X6675D01*
X7425Y-4250D01*
Y-5450D01*
X6675Y-6200D02*X7425Y-5450D01*
X9225Y-7250D02*Y-8750D01*
Y-7250D02*X9975Y-6500D01*
X11475D01*
X12225Y-7250D01*
Y-8750D01*
X11475Y-9500D02*X12225Y-8750D01*
X9975Y-9500D02*X11475D01*
X9225Y-8750D02*X9975Y-9500D01*
X16275Y-6500D02*X17025Y-7250D01*
X14775Y-6500D02*X16275D01*
X14025Y-7250D02*X14775Y-6500D01*
X14025Y-7250D02*Y-8750D01*
X14775Y-9500D01*
X17025Y-6500D02*Y-8750D01*
X17775Y-9500D01*
X14775D02*X16275D01*
X17025Y-8750D01*
X20325Y-7250D02*Y-9500D01*
Y-7250D02*X21075Y-6500D01*
X22575D01*
X19575D02*X20325Y-7250D01*
X27375Y-3500D02*Y-9500D01*
X26625D02*X27375Y-8750D01*
X25125Y-9500D02*X26625D01*
X24375Y-8750D02*X25125Y-9500D01*
X24375Y-7250D02*Y-8750D01*
Y-7250D02*X25125Y-6500D01*
X26625D01*
X27375Y-7250D01*
X31875D02*Y-8750D01*
Y-7250D02*X32625Y-6500D01*
X34125D01*
X34875Y-7250D01*
Y-8750D01*
X34125Y-9500D02*X34875Y-8750D01*
X32625Y-9500D02*X34125D01*
X31875Y-8750D02*X32625Y-9500D01*
X36675Y-6500D02*Y-8750D01*
X37425Y-9500D01*
X38925D01*
X39675Y-8750D01*
Y-6500D02*Y-8750D01*
X42225Y-3500D02*Y-8750D01*
X42975Y-9500D01*
X41475Y-5750D02*X42975D01*
X44475Y-3500D02*Y-8750D01*
X45225Y-9500D01*
G54D44*X46725Y-5000D02*Y-5150D01*
G54D43*Y-7250D02*Y-9500D01*
X48975Y-7250D02*Y-9500D01*
Y-7250D02*X49725Y-6500D01*
X50475D01*
X51225Y-7250D01*
Y-9500D01*
X48225Y-6500D02*X48975Y-7250D01*
X53775Y-9500D02*X56025D01*
X53025Y-8750D02*X53775Y-9500D01*
X53025Y-7250D02*Y-8750D01*
Y-7250D02*X53775Y-6500D01*
X55275D01*
X56025Y-7250D01*
X53025Y-8000D02*X56025D01*
Y-7250D02*Y-8000D01*
G54D44*X60525Y-5000D02*Y-5150D01*
G54D43*Y-7250D02*Y-9500D01*
X62775D02*X65025D01*
X65775Y-8750D01*
X65025Y-8000D02*X65775Y-8750D01*
X62775Y-8000D02*X65025D01*
X62025Y-7250D02*X62775Y-8000D01*
X62025Y-7250D02*X62775Y-6500D01*
X65025D01*
X65775Y-7250D01*
X62025Y-8750D02*X62775Y-9500D01*
X71025Y-3500D02*Y-8750D01*
X71775Y-9500D01*
X70275Y-5750D02*X71775D01*
X73275Y-3500D02*Y-9500D01*
Y-7250D02*X74025Y-6500D01*
X75525D01*
X76275Y-7250D01*
Y-9500D01*
X78825D02*X81075D01*
X78075Y-8750D02*X78825Y-9500D01*
X78075Y-7250D02*Y-8750D01*
Y-7250D02*X78825Y-6500D01*
X80325D01*
X81075Y-7250D01*
X78075Y-8000D02*X81075D01*
Y-7250D02*Y-8000D01*
X86325Y-6500D02*X88575D01*
X85575Y-7250D02*X86325Y-6500D01*
X85575Y-7250D02*Y-8750D01*
X86325Y-9500D01*
X88575D01*
X91125D02*X93375D01*
X90375Y-8750D02*X91125Y-9500D01*
X90375Y-7250D02*Y-8750D01*
Y-7250D02*X91125Y-6500D01*
X92625D01*
X93375Y-7250D01*
X90375Y-8000D02*X93375D01*
Y-7250D02*Y-8000D01*
X95925Y-7250D02*Y-9500D01*
Y-7250D02*X96675Y-6500D01*
X97425D01*
X98175Y-7250D01*
Y-9500D01*
X95175Y-6500D02*X95925Y-7250D01*
X100725Y-3500D02*Y-8750D01*
X101475Y-9500D01*
X99975Y-5750D02*X101475D01*
X103725Y-9500D02*X105975D01*
X102975Y-8750D02*X103725Y-9500D01*
X102975Y-7250D02*Y-8750D01*
Y-7250D02*X103725Y-6500D01*
X105225D01*
X105975Y-7250D01*
X102975Y-8000D02*X105975D01*
Y-7250D02*Y-8000D01*
X108525Y-7250D02*Y-9500D01*
Y-7250D02*X109275Y-6500D01*
X110775D01*
X107775D02*X108525Y-7250D01*
X112575Y-3500D02*Y-8750D01*
X113325Y-9500D01*
G54D44*X114825Y-5000D02*Y-5150D01*
G54D43*Y-7250D02*Y-9500D01*
X117075Y-7250D02*Y-9500D01*
Y-7250D02*X117825Y-6500D01*
X118575D01*
X119325Y-7250D01*
Y-9500D01*
X116325Y-6500D02*X117075Y-7250D01*
X121875Y-9500D02*X124125D01*
X121125Y-8750D02*X121875Y-9500D01*
X121125Y-7250D02*Y-8750D01*
Y-7250D02*X121875Y-6500D01*
X123375D01*
X124125Y-7250D01*
X121125Y-8000D02*X124125D01*
Y-7250D02*Y-8000D01*
X128625Y-7250D02*Y-8750D01*
Y-7250D02*X129375Y-6500D01*
X130875D01*
X131625Y-7250D01*
Y-8750D01*
X130875Y-9500D02*X131625Y-8750D01*
X129375Y-9500D02*X130875D01*
X128625Y-8750D02*X129375Y-9500D01*
X134175Y-4250D02*Y-9500D01*
Y-4250D02*X134925Y-3500D01*
X135675D01*
X133425Y-6500D02*X134925D01*
X140625Y-3500D02*Y-8750D01*
X141375Y-9500D01*
X139875Y-5750D02*X141375D01*
X142875Y-3500D02*Y-9500D01*
Y-7250D02*X143625Y-6500D01*
X145125D01*
X145875Y-7250D01*
Y-9500D01*
G54D44*X147675Y-5000D02*Y-5150D01*
G54D43*Y-7250D02*Y-9500D01*
X149925D02*X152175D01*
X152925Y-8750D01*
X152175Y-8000D02*X152925Y-8750D01*
X149925Y-8000D02*X152175D01*
X149175Y-7250D02*X149925Y-8000D01*
X149175Y-7250D02*X149925Y-6500D01*
X152175D01*
X152925Y-7250D01*
X149175Y-8750D02*X149925Y-9500D01*
X158175Y-7250D02*Y-11750D01*
X157425Y-6500D02*X158175Y-7250D01*
X158925Y-6500D01*
X160425D01*
X161175Y-7250D01*
Y-8750D01*
X160425Y-9500D02*X161175Y-8750D01*
X158925Y-9500D02*X160425D01*
X158175Y-8750D02*X158925Y-9500D01*
X165225Y-6500D02*X165975Y-7250D01*
X163725Y-6500D02*X165225D01*
X162975Y-7250D02*X163725Y-6500D01*
X162975Y-7250D02*Y-8750D01*
X163725Y-9500D01*
X165975Y-6500D02*Y-8750D01*
X166725Y-9500D01*
X163725D02*X165225D01*
X165975Y-8750D01*
X169275Y-3500D02*Y-8750D01*
X170025Y-9500D01*
X168525Y-5750D02*X170025D01*
X171525Y-3500D02*Y-9500D01*
Y-7250D02*X172275Y-6500D01*
X173775D01*
X174525Y-7250D01*
Y-9500D01*
X200750Y148500D02*Y142500D01*
X202700Y148500D02*X203750Y147450D01*
Y143550D01*
X202700Y142500D02*X203750Y143550D01*
X200000Y142500D02*X202700D01*
X200000Y148500D02*X202700D01*
X207800Y145500D02*X208550Y144750D01*
X206300Y145500D02*X207800D01*
X205550Y144750D02*X206300Y145500D01*
X205550Y144750D02*Y143250D01*
X206300Y142500D01*
X208550Y145500D02*Y143250D01*
X209300Y142500D01*
X206300D02*X207800D01*
X208550Y143250D01*
X211850Y148500D02*Y143250D01*
X212600Y142500D01*
X211100Y146250D02*X212600D01*
X214850Y142500D02*X217100D01*
X214100Y143250D02*X214850Y142500D01*
X214100Y144750D02*Y143250D01*
Y144750D02*X214850Y145500D01*
X216350D01*
X217100Y144750D01*
X214100Y144000D02*X217100D01*
Y144750D02*Y144000D01*
X218900Y146250D02*X219650D01*
X218900Y144750D02*X219650D01*
X224150Y148500D02*Y142500D01*
Y148500D02*X226400Y145500D01*
X228650Y148500D01*
Y142500D01*
X230450Y144750D02*Y143250D01*
Y144750D02*X231200Y145500D01*
X232700D01*
X233450Y144750D01*
Y143250D01*
X232700Y142500D02*X233450Y143250D01*
X231200Y142500D02*X232700D01*
X230450Y143250D02*X231200Y142500D01*
X236000Y144750D02*Y142500D01*
Y144750D02*X236750Y145500D01*
X237500D01*
X238250Y144750D01*
Y142500D01*
X235250Y145500D02*X236000Y144750D01*
X242750Y148500D02*Y142500D01*
Y148500D02*X245750D01*
X242750Y145800D02*X245000D01*
X248300Y142500D02*X250550D01*
X247550Y143250D02*X248300Y142500D01*
X247550Y144750D02*Y143250D01*
Y144750D02*X248300Y145500D01*
X249800D01*
X250550Y144750D01*
X247550Y144000D02*X250550D01*
Y144750D02*Y144000D01*
X252350Y148500D02*Y142500D01*
Y143250D02*X253100Y142500D01*
X254600D01*
X255350Y143250D01*
Y144750D02*Y143250D01*
X254600Y145500D02*X255350Y144750D01*
X253100Y145500D02*X254600D01*
X252350Y144750D02*X253100Y145500D01*
X259850Y147750D02*X260600Y148500D01*
X262850D01*
X263600Y147750D01*
Y146250D01*
X259850Y142500D02*X263600Y146250D01*
X259850Y142500D02*X263600D01*
X265400Y147750D02*X266150Y148500D01*
X268400D01*
X269150Y147750D01*
Y146250D01*
X265400Y142500D02*X269150Y146250D01*
X265400Y142500D02*X269150D01*
X273650Y147300D02*X274850Y148500D01*
Y142500D01*
X273650D02*X275900D01*
X277700Y143250D02*X278450Y142500D01*
X277700Y144450D02*Y143250D01*
Y144450D02*X278750Y145500D01*
X279650D01*
X280700Y144450D01*
Y143250D01*
X279950Y142500D02*X280700Y143250D01*
X278450Y142500D02*X279950D01*
X277700Y146550D02*X278750Y145500D01*
X277700Y147750D02*Y146550D01*
Y147750D02*X278450Y148500D01*
X279950D01*
X280700Y147750D01*
Y146550D01*
X279650Y145500D02*X280700Y146550D01*
X282500Y146250D02*X283250D01*
X282500Y144750D02*X283250D01*
X285050Y147750D02*X285800Y148500D01*
X288050D01*
X288800Y147750D01*
Y146250D01*
X285050Y142500D02*X288800Y146250D01*
X285050Y142500D02*X288800D01*
X290600Y143250D02*X291350Y142500D01*
X290600Y147750D02*Y143250D01*
Y147750D02*X291350Y148500D01*
X292850D01*
X293600Y147750D01*
Y143250D01*
X292850Y142500D02*X293600Y143250D01*
X291350Y142500D02*X292850D01*
X290600Y144000D02*X293600Y147000D01*
X295400Y146250D02*X296150D01*
X295400Y144750D02*X296150D01*
X297950Y148500D02*X300950D01*
X297950D02*Y145500D01*
X298700Y146250D01*
X300200D01*
X300950Y145500D01*
Y143250D01*
X300200Y142500D02*X300950Y143250D01*
X298700Y142500D02*X300200D01*
X297950Y143250D02*X298700Y142500D01*
X302750Y143250D02*X303500Y142500D01*
X302750Y147750D02*Y143250D01*
Y147750D02*X303500Y148500D01*
X305000D01*
X305750Y147750D01*
Y143250D01*
X305000Y142500D02*X305750Y143250D01*
X303500Y142500D02*X305000D01*
X302750Y144000D02*X305750Y147000D01*
X310250Y147750D02*X311000Y148500D01*
X313250D01*
X314000Y147750D01*
Y146250D01*
X310250Y142500D02*X314000Y146250D01*
X310250Y142500D02*X314000D01*
X315800Y143250D02*X316550Y142500D01*
X315800Y147750D02*Y143250D01*
Y147750D02*X316550Y148500D01*
X318050D01*
X318800Y147750D01*
Y143250D01*
X318050Y142500D02*X318800Y143250D01*
X316550Y142500D02*X318050D01*
X315800Y144000D02*X318800Y147000D01*
X320600Y147750D02*X321350Y148500D01*
X323600D01*
X324350Y147750D01*
Y146250D01*
X320600Y142500D02*X324350Y146250D01*
X320600Y142500D02*X324350D01*
X326150Y147300D02*X327350Y148500D01*
Y142500D01*
X326150D02*X328400D01*
X332900Y148500D02*Y143250D01*
X333650Y142500D01*
X335150D01*
X335900Y143250D01*
Y148500D02*Y143250D01*
X337700Y148500D02*X340700D01*
X339200D02*Y142500D01*
X343550D02*X345500D01*
X342500Y143550D02*X343550Y142500D01*
X342500Y147450D02*Y143550D01*
Y147450D02*X343550Y148500D01*
X345500D01*
X200000Y162000D02*Y157500D01*
Y162000D02*X201050Y163500D01*
X202700D01*
X203750Y162000D01*
Y157500D01*
X200000Y160500D02*X203750D01*
X205550D02*Y158250D01*
X206300Y157500D01*
X207800D01*
X208550Y158250D01*
Y160500D02*Y158250D01*
X211100Y163500D02*Y158250D01*
X211850Y157500D01*
X210350Y161250D02*X211850D01*
X213350Y163500D02*Y157500D01*
Y159750D02*X214100Y160500D01*
X215600D01*
X216350Y159750D01*
Y157500D01*
X218150Y159750D02*Y158250D01*
Y159750D02*X218900Y160500D01*
X220400D01*
X221150Y159750D01*
Y158250D01*
X220400Y157500D02*X221150Y158250D01*
X218900Y157500D02*X220400D01*
X218150Y158250D02*X218900Y157500D01*
X223700Y159750D02*Y157500D01*
Y159750D02*X224450Y160500D01*
X225950D01*
X222950D02*X223700Y159750D01*
X227750Y161250D02*X228500D01*
X227750Y159750D02*X228500D01*
X233000Y163500D02*Y157500D01*
Y163500D02*X236750Y157500D01*
Y163500D02*Y157500D01*
X240800Y160500D02*X241550Y159750D01*
X239300Y160500D02*X240800D01*
X238550Y159750D02*X239300Y160500D01*
X238550Y159750D02*Y158250D01*
X239300Y157500D01*
X241550Y160500D02*Y158250D01*
X242300Y157500D01*
X239300D02*X240800D01*
X241550Y158250D01*
X244850Y163500D02*Y158250D01*
X245600Y157500D01*
X244100Y161250D02*X245600D01*
X247100Y163500D02*Y157500D01*
Y159750D02*X247850Y160500D01*
X249350D01*
X250100Y159750D01*
Y157500D01*
X254150Y160500D02*X254900Y159750D01*
X252650Y160500D02*X254150D01*
X251900Y159750D02*X252650Y160500D01*
X251900Y159750D02*Y158250D01*
X252650Y157500D01*
X254900Y160500D02*Y158250D01*
X255650Y157500D01*
X252650D02*X254150D01*
X254900Y158250D01*
X258200Y159750D02*Y157500D01*
Y159750D02*X258950Y160500D01*
X259700D01*
X260450Y159750D01*
Y157500D01*
X257450Y160500D02*X258200Y159750D01*
X265700Y163500D02*Y157500D01*
X267650Y163500D02*X268700Y162450D01*
Y158550D01*
X267650Y157500D02*X268700Y158550D01*
X264950Y157500D02*X267650D01*
X264950Y163500D02*X267650D01*
X270500Y157500D02*X271250D01*
X275750Y163500D02*Y157500D01*
X279500Y163500D02*Y157500D01*
X275750Y160500D02*X279500D01*
X281300Y159750D02*Y158250D01*
Y159750D02*X282050Y160500D01*
X283550D01*
X284300Y159750D01*
Y158250D01*
X283550Y157500D02*X284300Y158250D01*
X282050Y157500D02*X283550D01*
X281300Y158250D02*X282050Y157500D01*
X286100Y163500D02*Y158250D01*
X286850Y157500D01*
X289100Y159750D02*Y157500D01*
Y159750D02*X289850Y160500D01*
X290600D01*
X291350Y159750D01*
Y157500D01*
Y159750D02*X292100Y160500D01*
X292850D01*
X293600Y159750D01*
Y157500D01*
X288350Y160500D02*X289100Y159750D01*
X296150Y157500D02*X298400D01*
X295400Y158250D02*X296150Y157500D01*
X295400Y159750D02*Y158250D01*
Y159750D02*X296150Y160500D01*
X297650D01*
X298400Y159750D01*
X295400Y159000D02*X298400D01*
Y159750D02*Y159000D01*
X300950Y157500D02*X303200D01*
X303950Y158250D01*
X303200Y159000D02*X303950Y158250D01*
X300950Y159000D02*X303200D01*
X300200Y159750D02*X300950Y159000D01*
X300200Y159750D02*X300950Y160500D01*
X303200D01*
X303950Y159750D01*
X300200Y158250D02*X300950Y157500D01*
X200000Y178500D02*X203000D01*
X201500D02*Y172500D01*
G54D44*X204800Y177000D02*Y176850D01*
G54D43*Y174750D02*Y172500D01*
X207050Y178500D02*Y173250D01*
X207800Y172500D01*
X206300Y176250D02*X207800D01*
X209300Y178500D02*Y173250D01*
X210050Y172500D01*
X212300D02*X214550D01*
X211550Y173250D02*X212300Y172500D01*
X211550Y174750D02*Y173250D01*
Y174750D02*X212300Y175500D01*
X213800D01*
X214550Y174750D01*
X211550Y174000D02*X214550D01*
Y174750D02*Y174000D01*
X216350Y176250D02*X217100D01*
X216350Y174750D02*X217100D01*
X221600Y173250D02*X222350Y172500D01*
X221600Y177750D02*X222350Y178500D01*
X221600Y177750D02*Y173250D01*
X224150Y175500D02*Y173250D01*
X224900Y172500D01*
X226400D01*
X227150Y173250D01*
Y175500D02*Y173250D01*
X229700Y174750D02*Y172500D01*
Y174750D02*X230450Y175500D01*
X231200D01*
X231950Y174750D01*
Y172500D01*
X228950Y175500D02*X229700Y174750D01*
X233750Y178500D02*Y172500D01*
Y174750D02*X236000Y172500D01*
X233750Y174750D02*X235250Y176250D01*
X238550Y174750D02*Y172500D01*
Y174750D02*X239300Y175500D01*
X240050D01*
X240800Y174750D01*
Y172500D01*
X237800Y175500D02*X238550Y174750D01*
X242600D02*Y173250D01*
Y174750D02*X243350Y175500D01*
X244850D01*
X245600Y174750D01*
Y173250D01*
X244850Y172500D02*X245600Y173250D01*
X243350Y172500D02*X244850D01*
X242600Y173250D02*X243350Y172500D01*
X247400Y175500D02*Y173250D01*
X248150Y172500D01*
X248900D01*
X249650Y173250D01*
Y175500D02*Y173250D01*
X250400Y172500D01*
X251150D01*
X251900Y173250D01*
Y175500D02*Y173250D01*
X254450Y174750D02*Y172500D01*
Y174750D02*X255200Y175500D01*
X255950D01*
X256700Y174750D01*
Y172500D01*
X253700Y175500D02*X254450Y174750D01*
X258500Y178500D02*X259250Y177750D01*
Y173250D01*
X258500Y172500D02*X259250Y173250D01*
X263750Y175500D02*X266750D01*
X271250Y178500D02*Y172500D01*
Y178500D02*X274250D01*
X271250Y175800D02*X273500D01*
X278300Y175500D02*X279050Y174750D01*
X276800Y175500D02*X278300D01*
X276050Y174750D02*X276800Y175500D01*
X276050Y174750D02*Y173250D01*
X276800Y172500D01*
X279050Y175500D02*Y173250D01*
X279800Y172500D01*
X276800D02*X278300D01*
X279050Y173250D01*
X281600Y178500D02*Y172500D01*
Y173250D02*X282350Y172500D01*
X283850D01*
X284600Y173250D01*
Y174750D02*Y173250D01*
X283850Y175500D02*X284600Y174750D01*
X282350Y175500D02*X283850D01*
X281600Y174750D02*X282350Y175500D01*
X287150Y174750D02*Y172500D01*
Y174750D02*X287900Y175500D01*
X289400D01*
X286400D02*X287150Y174750D01*
G54D44*X291200Y177000D02*Y176850D01*
G54D43*Y174750D02*Y172500D01*
X293450Y175500D02*X295700D01*
X292700Y174750D02*X293450Y175500D01*
X292700Y174750D02*Y173250D01*
X293450Y172500D01*
X295700D01*
X299750Y175500D02*X300500Y174750D01*
X298250Y175500D02*X299750D01*
X297500Y174750D02*X298250Y175500D01*
X297500Y174750D02*Y173250D01*
X298250Y172500D01*
X300500Y175500D02*Y173250D01*
X301250Y172500D01*
X298250D02*X299750D01*
X300500Y173250D01*
X303800Y178500D02*Y173250D01*
X304550Y172500D01*
X303050Y176250D02*X304550D01*
G54D44*X306050Y177000D02*Y176850D01*
G54D43*Y174750D02*Y172500D01*
X307550Y174750D02*Y173250D01*
Y174750D02*X308300Y175500D01*
X309800D01*
X310550Y174750D01*
Y173250D01*
X309800Y172500D02*X310550Y173250D01*
X308300Y172500D02*X309800D01*
X307550Y173250D02*X308300Y172500D01*
X313100Y174750D02*Y172500D01*
Y174750D02*X313850Y175500D01*
X314600D01*
X315350Y174750D01*
Y172500D01*
X312350Y175500D02*X313100Y174750D01*
X320600Y178500D02*Y172500D01*
X322550Y178500D02*X323600Y177450D01*
Y173550D01*
X322550Y172500D02*X323600Y173550D01*
X319850Y172500D02*X322550D01*
X319850Y178500D02*X322550D01*
X326150Y174750D02*Y172500D01*
Y174750D02*X326900Y175500D01*
X328400D01*
X325400D02*X326150Y174750D01*
X332450Y175500D02*X333200Y174750D01*
X330950Y175500D02*X332450D01*
X330200Y174750D02*X330950Y175500D01*
X330200Y174750D02*Y173250D01*
X330950Y172500D01*
X333200Y175500D02*Y173250D01*
X333950Y172500D01*
X330950D02*X332450D01*
X333200Y173250D01*
X335750Y175500D02*Y173250D01*
X336500Y172500D01*
X337250D01*
X338000Y173250D01*
Y175500D02*Y173250D01*
X338750Y172500D01*
X339500D01*
X340250Y173250D01*
Y175500D02*Y173250D01*
G54D44*X342050Y177000D02*Y176850D01*
G54D43*Y174750D02*Y172500D01*
X344300Y174750D02*Y172500D01*
Y174750D02*X345050Y175500D01*
X345800D01*
X346550Y174750D01*
Y172500D01*
X343550Y175500D02*X344300Y174750D01*
X350600Y175500D02*X351350Y174750D01*
X349100Y175500D02*X350600D01*
X348350Y174750D02*X349100Y175500D01*
X348350Y174750D02*Y173250D01*
X349100Y172500D01*
X350600D01*
X351350Y173250D01*
X348350Y171000D02*X349100Y170250D01*
X350600D01*
X351350Y171000D01*
Y175500D02*Y171000D01*
M02*
