G04 start of page 9 for group -4079 idx -4079 *
G04 Title: (unknown), topsilk *
G04 Creator: pcb 4.0.2 *
G04 CreationDate: Mon Feb 22 18:20:50 2021 UTC *
G04 For: ndholmes *
G04 Format: Gerber/RS-274X *
G04 PCB-Dimensions (mil): 1800.00 1200.00 *
G04 PCB-Coordinate-Origin: lower left *
%MOIN*%
%FSLAX25Y25*%
%LNTOPSILK*%
%ADD37C,0.0080*%
%ADD36C,0.0100*%
%ADD35C,0.0060*%
%ADD34C,0.0200*%
G54D34*X106000Y41000D03*
X52000Y34000D03*
G54D35*X82700Y107610D02*X83690Y103650D01*
X84680Y107610D01*
X85868Y105135D02*Y104145D01*
Y105135D02*X86363Y105630D01*
X87353D01*
X87848Y105135D01*
Y104145D01*
X87353Y103650D02*X87848Y104145D01*
X86363Y103650D02*X87353D01*
X85868Y104145D02*X86363Y103650D01*
X89036Y107610D02*Y104145D01*
X89531Y103650D01*
X90521Y105630D02*Y104145D01*
X91016Y103650D01*
X92006D01*
X92501Y104145D01*
Y105630D02*Y104145D01*
X94184Y105135D02*Y103650D01*
Y105135D02*X94679Y105630D01*
X95174D01*
X95669Y105135D01*
Y103650D01*
Y105135D02*X96164Y105630D01*
X96659D01*
X97154Y105135D01*
Y103650D01*
X93689Y105630D02*X94184Y105135D01*
X98837Y103650D02*X100322D01*
X98342Y104145D02*X98837Y103650D01*
X98342Y105135D02*Y104145D01*
Y105135D02*X98837Y105630D01*
X99827D01*
X100322Y105135D01*
X98342Y104640D02*X100322D01*
Y105135D02*Y104640D01*
X12000Y107000D02*X13000D01*
X12500D02*Y103000D01*
X12000D02*X13000D01*
X14200Y104500D02*Y103500D01*
Y104500D02*X14700Y105000D01*
X15700D01*
X16200Y104500D01*
Y103500D01*
X15700Y103000D02*X16200Y103500D01*
X14700Y103000D02*X15700D01*
X14200Y103500D02*X14700Y103000D01*
X17400Y105000D02*Y103500D01*
X17900Y103000D01*
X18400D01*
X18900Y103500D01*
Y105000D02*Y103500D01*
X19400Y103000D01*
X19900D01*
X20400Y103500D01*
Y105000D02*Y103500D01*
X23100Y105000D02*X23600Y104500D01*
X22100Y105000D02*X23100D01*
X21600Y104500D02*X22100Y105000D01*
X21600Y104500D02*Y103500D01*
X22100Y103000D01*
X23600Y105000D02*Y103500D01*
X24100Y103000D01*
X22100D02*X23100D01*
X23600Y103500D01*
X29100Y107000D02*X29600Y106500D01*
X27600Y107000D02*X29100D01*
X27100Y106500D02*X27600Y107000D01*
X27100Y106500D02*Y105500D01*
X27600Y105000D01*
X29100D01*
X29600Y104500D01*
Y103500D01*
X29100Y103000D02*X29600Y103500D01*
X27600Y103000D02*X29100D01*
X27100Y103500D02*X27600Y103000D01*
X31300Y105000D02*X32800D01*
X30800Y104500D02*X31300Y105000D01*
X30800Y104500D02*Y103500D01*
X31300Y103000D01*
X32800D01*
X35500Y105000D02*X36000Y104500D01*
X34500Y105000D02*X35500D01*
X34000Y104500D02*X34500Y105000D01*
X34000Y104500D02*Y103500D01*
X34500Y103000D01*
X36000Y105000D02*Y103500D01*
X36500Y103000D01*
X34500D02*X35500D01*
X36000Y103500D01*
X37700Y107000D02*Y103500D01*
X38200Y103000D01*
X39700D02*X41200D01*
X39200Y103500D02*X39700Y103000D01*
X39200Y104500D02*Y103500D01*
Y104500D02*X39700Y105000D01*
X40700D01*
X41200Y104500D01*
X39200Y104000D02*X41200D01*
Y104500D02*Y104000D01*
X44400Y107000D02*Y103000D01*
X43900D02*X44400Y103500D01*
X42900Y103000D02*X43900D01*
X42400Y103500D02*X42900Y103000D01*
X42400Y104500D02*Y103500D01*
Y104500D02*X42900Y105000D01*
X43900D01*
X44400Y104500D01*
X47400Y105200D02*X48900D01*
X47400Y103000D02*X49400D01*
X47400Y107000D02*Y103000D01*
Y107000D02*X49400D01*
X51100Y104500D02*Y103000D01*
Y104500D02*X51600Y105000D01*
X52100D01*
X52600Y104500D01*
Y103000D01*
X50600Y105000D02*X51100Y104500D01*
X55300Y105000D02*X55800Y104500D01*
X54300Y105000D02*X55300D01*
X53800Y104500D02*X54300Y105000D01*
X53800Y104500D02*Y103500D01*
X54300Y103000D01*
X55300D01*
X55800Y103500D01*
X53800Y102000D02*X54300Y101500D01*
X55300D01*
X55800Y102000D01*
Y105000D02*Y102000D01*
X57000Y106000D02*Y105900D01*
Y104500D02*Y103000D01*
X58500Y104500D02*Y103000D01*
Y104500D02*X59000Y105000D01*
X59500D01*
X60000Y104500D01*
Y103000D01*
X58000Y105000D02*X58500Y104500D01*
X61700Y103000D02*X63200D01*
X61200Y103500D02*X61700Y103000D01*
X61200Y104500D02*Y103500D01*
Y104500D02*X61700Y105000D01*
X62700D01*
X63200Y104500D01*
X61200Y104000D02*X63200D01*
Y104500D02*Y104000D01*
X64900Y103000D02*X66400D01*
X64400Y103500D02*X64900Y103000D01*
X64400Y104500D02*Y103500D01*
Y104500D02*X64900Y105000D01*
X65900D01*
X66400Y104500D01*
X64400Y104000D02*X66400D01*
Y104500D02*Y104000D01*
X68100Y104500D02*Y103000D01*
Y104500D02*X68600Y105000D01*
X69600D01*
X67600D02*X68100Y104500D01*
X70800Y106000D02*Y105900D01*
Y104500D02*Y103000D01*
X72300Y104500D02*Y103000D01*
Y104500D02*X72800Y105000D01*
X73300D01*
X73800Y104500D01*
Y103000D01*
X71800Y105000D02*X72300Y104500D01*
X76500Y105000D02*X77000Y104500D01*
X75500Y105000D02*X76500D01*
X75000Y104500D02*X75500Y105000D01*
X75000Y104500D02*Y103500D01*
X75500Y103000D01*
X76500D01*
X77000Y103500D01*
X75000Y102000D02*X75500Y101500D01*
X76500D01*
X77000Y102000D01*
Y105000D02*Y102000D01*
G54D36*X106000Y62500D02*Y43500D01*
X75000Y62500D02*X106000D01*
X75000D02*Y43500D01*
X93000D02*X106000D01*
X75000D02*X88000D01*
X93000D02*G75*G03X88000Y43500I-2500J0D01*G01*
X54000Y33000D02*Y14000D01*
X91000D01*
Y33000D01*
X54000D02*X70000D01*
X91000D02*X75000D01*
X70000D02*G75*G03X75000Y33000I2500J0D01*G01*
X37700Y22500D02*X49600D01*
X37700D02*Y14500D01*
X49600D01*
Y22500D02*Y14500D01*
G54D37*X59650Y41755D02*X60436D01*
X59650Y36245D02*X60436D01*
G54D36*X66245Y53393D02*Y52607D01*
X71755Y53393D02*Y52607D01*
X55996Y72992D02*X62492D01*
X36508D02*X43004D01*
X36508D02*Y53504D01*
X62492Y72992D02*Y53504D01*
X36508D02*X43004Y47008D01*
X62492Y53504D02*X55996Y47008D01*
X55500Y54000D02*X59500D01*
X57500Y56000D02*Y52000D01*
X71755Y72393D02*Y71607D01*
X66245Y72393D02*Y71607D01*
X25255Y85893D02*Y85107D01*
X19745Y85893D02*Y85107D01*
X29107Y20255D02*X29893D01*
X29107Y14745D02*X29893D01*
X23750Y41150D02*Y30520D01*
X42250Y41150D02*Y30520D01*
X23750Y41150D02*X27000D01*
X42250D02*X39000D01*
X23750Y30520D02*X23929D01*
X42071D02*X42250D01*
X20255Y35893D02*Y35107D01*
X14745Y35893D02*Y35107D01*
X104709Y97358D02*Y69642D01*
X94700D02*X104709D01*
X78291D02*X88300D01*
X78291Y97358D02*Y69642D01*
X84700Y97358D02*X98300D01*
X91500Y87760D02*Y81760D01*
X88500Y84760D02*X94500D01*
X91500Y89760D02*G75*G03X91500Y89760I0J-5000D01*G01*
X64755Y94893D02*Y94107D01*
X59245Y94893D02*Y94107D01*
X73755Y94893D02*Y94107D01*
X68245Y94893D02*Y94107D01*
X50245Y94893D02*Y94107D01*
X55755Y94893D02*Y94107D01*
X33898Y100661D02*Y83339D01*
Y100661D02*X46102D01*
Y83339D01*
X33898D02*X46102D01*
X32398Y81339D02*G75*G03X32398Y81339I0J500D01*G01*
G54D35*X25200Y73969D02*X26000D01*
Y70469D01*
X25500Y69969D02*X26000Y70469D01*
X25000Y69969D02*X25500D01*
X24500Y70469D02*X25000Y69969D01*
X24500Y70969D02*Y70469D01*
X27200Y73169D02*X28000Y73969D01*
Y69969D01*
X27200D02*X28700D01*
X31300Y74100D02*X32600D01*
X30600Y74800D02*X31300Y74100D01*
X30600Y77400D02*Y74800D01*
Y77400D02*X31300Y78100D01*
X32600D01*
X33800Y77300D02*X34600Y78100D01*
Y74100D01*
X33800D02*X35300D01*
X13006Y82343D02*X14306D01*
X12306Y83043D02*X13006Y82343D01*
X12306Y85643D02*Y83043D01*
Y85643D02*X13006Y86343D01*
X14306D01*
X15506Y83843D02*X17506Y86343D01*
X15506Y83843D02*X18006D01*
X17506Y86343D02*Y82343D01*
X100900Y68200D02*X102900D01*
X103400Y67700D01*
Y66700D01*
X102900Y66200D02*X103400Y66700D01*
X101400Y66200D02*X102900D01*
X101400Y68200D02*Y64200D01*
X102200Y66200D02*X103400Y64200D01*
X104600Y67700D02*X105100Y68200D01*
X106100D01*
X106600Y67700D01*
X106100Y64200D02*X106600Y64700D01*
X105100Y64200D02*X106100D01*
X104600Y64700D02*X105100Y64200D01*
Y66400D02*X106100D01*
X106600Y67700D02*Y66900D01*
Y65900D02*Y64700D01*
Y65900D02*X106100Y66400D01*
X106600Y66900D02*X106100Y66400D01*
X87500Y53800D02*Y50300D01*
X88000Y49800D01*
X89000D01*
X89500Y50300D01*
Y53800D02*Y50300D01*
X90700Y51300D02*X92700Y53800D01*
X90700Y51300D02*X93200D01*
X92700Y53800D02*Y49800D01*
X58393Y79150D02*X60393D01*
X60893Y78650D01*
Y77650D01*
X60393Y77150D02*X60893Y77650D01*
X58893Y77150D02*X60393D01*
X58893Y79150D02*Y75150D01*
X59693Y77150D02*X60893Y75150D01*
X62093Y78650D02*X62593Y79150D01*
X64093D01*
X64593Y78650D01*
Y77650D01*
X62093Y75150D02*X64593Y77650D01*
X62093Y75150D02*X64593D01*
X59287Y86504D02*X61287D01*
X61787Y86004D01*
Y85004D01*
X61287Y84504D02*X61787Y85004D01*
X59787Y84504D02*X61287D01*
X59787Y86504D02*Y82504D01*
X60587Y84504D02*X61787Y82504D01*
X62987Y84004D02*X64987Y86504D01*
X62987Y84004D02*X65487D01*
X64987Y86504D02*Y82504D01*
X51396Y82744D02*X52696D01*
X50696Y83444D02*X51396Y82744D01*
X50696Y86044D02*Y83444D01*
Y86044D02*X51396Y86744D01*
X52696D01*
X55396D02*X55896Y86244D01*
X54396Y86744D02*X55396D01*
X53896Y86244D02*X54396Y86744D01*
X53896Y86244D02*Y83244D01*
X54396Y82744D01*
X55396Y84944D02*X55896Y84444D01*
X53896Y84944D02*X55396D01*
X54396Y82744D02*X55396D01*
X55896Y83244D01*
Y84444D02*Y83244D01*
X69067Y82687D02*X70367D01*
X68367Y83387D02*X69067Y82687D01*
X68367Y85987D02*Y83387D01*
Y85987D02*X69067Y86687D01*
X70367D01*
X71567D02*X73567D01*
X71567D02*Y84687D01*
X72067Y85187D01*
X73067D01*
X73567Y84687D01*
Y83187D01*
X73067Y82687D02*X73567Y83187D01*
X72067Y82687D02*X73067D01*
X71567Y83187D02*X72067Y82687D01*
X67043Y60200D02*X68330D01*
X66350Y60893D02*X67043Y60200D01*
X66350Y63467D02*Y60893D01*
Y63467D02*X67043Y64160D01*
X68330D01*
X70013Y60200D02*X71993Y64160D01*
X69518D02*X71993D01*
X37480Y81854D02*Y78354D01*
X37980Y77854D01*
X38980D01*
X39480Y78354D01*
Y81854D02*Y78354D01*
X40680Y81354D02*X41180Y81854D01*
X42180D01*
X42680Y81354D01*
X42180Y77854D02*X42680Y78354D01*
X41180Y77854D02*X42180D01*
X40680Y78354D02*X41180Y77854D01*
Y80054D02*X42180D01*
X42680Y81354D02*Y80554D01*
Y79554D02*Y78354D01*
Y79554D02*X42180Y80054D01*
X42680Y80554D02*X42180Y80054D01*
X70500Y28500D02*Y25000D01*
X71000Y24500D01*
X72000D01*
X72500Y25000D01*
Y28500D02*Y25000D01*
X73700Y28000D02*X74200Y28500D01*
X75700D01*
X76200Y28000D01*
Y27000D01*
X73700Y24500D02*X76200Y27000D01*
X73700Y24500D02*X76200D01*
X16550Y21150D02*X17850D01*
X15850Y21850D02*X16550Y21150D01*
X15850Y24450D02*Y21850D01*
Y24450D02*X16550Y25150D01*
X17850D01*
X19050Y24650D02*X19550Y25150D01*
X21050D01*
X21550Y24650D01*
Y23650D01*
X19050Y21150D02*X21550Y23650D01*
X19050Y21150D02*X21550D01*
X44000Y40500D02*Y37000D01*
X44500Y36500D01*
X45500D01*
X46000Y37000D01*
Y40500D02*Y37000D01*
X47200Y39700D02*X48000Y40500D01*
Y36500D01*
X47200D02*X48700D01*
X18850Y47150D02*X20850D01*
X21350Y46650D01*
Y45650D01*
X20850Y45150D02*X21350Y45650D01*
X19350Y45150D02*X20850D01*
X19350Y47150D02*Y43150D01*
X20150Y45150D02*X21350Y43150D01*
X22550Y46350D02*X23350Y47150D01*
Y43150D01*
X22550D02*X24050D01*
X43100Y28810D02*Y25345D01*
X43595Y24850D01*
X44585D01*
X45080Y25345D01*
Y28810D02*Y25345D01*
X46268Y28810D02*X48248D01*
X46268D02*Y26830D01*
X46763Y27325D01*
X47753D01*
X48248Y26830D01*
Y25345D01*
X47753Y24850D02*X48248Y25345D01*
X46763Y24850D02*X47753D01*
X46268Y25345D02*X46763Y24850D01*
X94039Y39230D02*X94655D01*
Y36535D01*
X94270Y36150D02*X94655Y36535D01*
X93885Y36150D02*X94270D01*
X93500Y36535D02*X93885Y36150D01*
X93500Y36920D02*Y36535D01*
X95579Y38845D02*X95964Y39230D01*
X97119D01*
X97504Y38845D01*
Y38075D01*
X95579Y36150D02*X97504Y38075D01*
X95579Y36150D02*X97504D01*
X59093Y43150D02*X60393D01*
X58393Y43850D02*X59093Y43150D01*
X58393Y46450D02*Y43850D01*
Y46450D02*X59093Y47150D01*
X60393D01*
X61593Y46650D02*X62093Y47150D01*
X63093D01*
X63593Y46650D01*
X63093Y43150D02*X63593Y43650D01*
X62093Y43150D02*X63093D01*
X61593Y43650D02*X62093Y43150D01*
Y45350D02*X63093D01*
X63593Y46650D02*Y45850D01*
Y44850D02*Y43650D01*
Y44850D02*X63093Y45350D01*
X63593Y45850D02*X63093Y45350D01*
M02*
