G04 #@! TF.GenerationSoftware,KiCad,Pcbnew,6.0.2+dfsg-1*
G04 #@! TF.CreationDate,2023-09-18T08:20:45-06:00*
G04 #@! TF.ProjectId,ckt-dingdong-flash,636b742d-6469-46e6-9764-6f6e672d666c,rev?*
G04 #@! TF.SameCoordinates,Original*
G04 #@! TF.FileFunction,Legend,Top*
G04 #@! TF.FilePolarity,Positive*
%FSLAX46Y46*%
G04 Gerber Fmt 4.6, Leading zero omitted, Abs format (unit mm)*
G04 Created by KiCad (PCBNEW 6.0.2+dfsg-1) date 2023-09-18 08:20:45*
%MOMM*%
%LPD*%
G01*
G04 APERTURE LIST*
%ADD10C,0.150000*%
%ADD11C,0.120000*%
%ADD12C,0.152400*%
G04 APERTURE END LIST*
D10*
X81788000Y-175220380D02*
X81788000Y-175458476D01*
X81549904Y-175363238D02*
X81788000Y-175458476D01*
X82026095Y-175363238D01*
X81645142Y-175648952D02*
X81788000Y-175458476D01*
X81930857Y-175648952D01*
X44196000Y-159218380D02*
X44196000Y-159456476D01*
X43957904Y-159361238D02*
X44196000Y-159456476D01*
X44434095Y-159361238D01*
X44053142Y-159646952D02*
X44196000Y-159456476D01*
X44338857Y-159646952D01*
X59817000Y-170394380D02*
X59817000Y-170632476D01*
X59578904Y-170537238D02*
X59817000Y-170632476D01*
X60055095Y-170537238D01*
X59674142Y-170822952D02*
X59817000Y-170632476D01*
X59959857Y-170822952D01*
X41362333Y-159742142D02*
X41314714Y-159789761D01*
X41171857Y-159837380D01*
X41076619Y-159837380D01*
X40933761Y-159789761D01*
X40838523Y-159694523D01*
X40790904Y-159599285D01*
X40743285Y-159408809D01*
X40743285Y-159265952D01*
X40790904Y-159075476D01*
X40838523Y-158980238D01*
X40933761Y-158885000D01*
X41076619Y-158837380D01*
X41171857Y-158837380D01*
X41314714Y-158885000D01*
X41362333Y-158932619D01*
X42219476Y-159170714D02*
X42219476Y-159837380D01*
X41981380Y-158789761D02*
X41743285Y-159504047D01*
X42362333Y-159504047D01*
X45299333Y-175998142D02*
X45251714Y-176045761D01*
X45108857Y-176093380D01*
X45013619Y-176093380D01*
X44870761Y-176045761D01*
X44775523Y-175950523D01*
X44727904Y-175855285D01*
X44680285Y-175664809D01*
X44680285Y-175521952D01*
X44727904Y-175331476D01*
X44775523Y-175236238D01*
X44870761Y-175141000D01*
X45013619Y-175093380D01*
X45108857Y-175093380D01*
X45251714Y-175141000D01*
X45299333Y-175188619D01*
X45680285Y-175188619D02*
X45727904Y-175141000D01*
X45823142Y-175093380D01*
X46061238Y-175093380D01*
X46156476Y-175141000D01*
X46204095Y-175188619D01*
X46251714Y-175283857D01*
X46251714Y-175379095D01*
X46204095Y-175521952D01*
X45632666Y-176093380D01*
X46251714Y-176093380D01*
X48093333Y-175998142D02*
X48045714Y-176045761D01*
X47902857Y-176093380D01*
X47807619Y-176093380D01*
X47664761Y-176045761D01*
X47569523Y-175950523D01*
X47521904Y-175855285D01*
X47474285Y-175664809D01*
X47474285Y-175521952D01*
X47521904Y-175331476D01*
X47569523Y-175236238D01*
X47664761Y-175141000D01*
X47807619Y-175093380D01*
X47902857Y-175093380D01*
X48045714Y-175141000D01*
X48093333Y-175188619D01*
X48426666Y-175093380D02*
X49093333Y-175093380D01*
X48664761Y-176093380D01*
X74930095Y-162393380D02*
X74930095Y-163202904D01*
X74977714Y-163298142D01*
X75025333Y-163345761D01*
X75120571Y-163393380D01*
X75311047Y-163393380D01*
X75406285Y-163345761D01*
X75453904Y-163298142D01*
X75501523Y-163202904D01*
X75501523Y-162393380D01*
X75930095Y-162488619D02*
X75977714Y-162441000D01*
X76072952Y-162393380D01*
X76311047Y-162393380D01*
X76406285Y-162441000D01*
X76453904Y-162488619D01*
X76501523Y-162583857D01*
X76501523Y-162679095D01*
X76453904Y-162821952D01*
X75882476Y-163393380D01*
X76501523Y-163393380D01*
X56475333Y-175998142D02*
X56427714Y-176045761D01*
X56284857Y-176093380D01*
X56189619Y-176093380D01*
X56046761Y-176045761D01*
X55951523Y-175950523D01*
X55903904Y-175855285D01*
X55856285Y-175664809D01*
X55856285Y-175521952D01*
X55903904Y-175331476D01*
X55951523Y-175236238D01*
X56046761Y-175141000D01*
X56189619Y-175093380D01*
X56284857Y-175093380D01*
X56427714Y-175141000D01*
X56475333Y-175188619D01*
X56808666Y-175093380D02*
X57427714Y-175093380D01*
X57094380Y-175474333D01*
X57237238Y-175474333D01*
X57332476Y-175521952D01*
X57380095Y-175569571D01*
X57427714Y-175664809D01*
X57427714Y-175902904D01*
X57380095Y-175998142D01*
X57332476Y-176045761D01*
X57237238Y-176093380D01*
X56951523Y-176093380D01*
X56856285Y-176045761D01*
X56808666Y-175998142D01*
X51678333Y-155190142D02*
X51630714Y-155237761D01*
X51487857Y-155285380D01*
X51392619Y-155285380D01*
X51249761Y-155237761D01*
X51154523Y-155142523D01*
X51106904Y-155047285D01*
X51059285Y-154856809D01*
X51059285Y-154713952D01*
X51106904Y-154523476D01*
X51154523Y-154428238D01*
X51249761Y-154333000D01*
X51392619Y-154285380D01*
X51487857Y-154285380D01*
X51630714Y-154333000D01*
X51678333Y-154380619D01*
X52583095Y-154285380D02*
X52106904Y-154285380D01*
X52059285Y-154761571D01*
X52106904Y-154713952D01*
X52202142Y-154666333D01*
X52440238Y-154666333D01*
X52535476Y-154713952D01*
X52583095Y-154761571D01*
X52630714Y-154856809D01*
X52630714Y-155094904D01*
X52583095Y-155190142D01*
X52535476Y-155237761D01*
X52440238Y-155285380D01*
X52202142Y-155285380D01*
X52106904Y-155237761D01*
X52059285Y-155190142D01*
X46355095Y-169886380D02*
X46355095Y-170695904D01*
X46402714Y-170791142D01*
X46450333Y-170838761D01*
X46545571Y-170886380D01*
X46736047Y-170886380D01*
X46831285Y-170838761D01*
X46878904Y-170791142D01*
X46926523Y-170695904D01*
X46926523Y-169886380D01*
X47926523Y-170886380D02*
X47355095Y-170886380D01*
X47640809Y-170886380D02*
X47640809Y-169886380D01*
X47545571Y-170029238D01*
X47450333Y-170124476D01*
X47355095Y-170172095D01*
X59142333Y-167584380D02*
X58809000Y-167108190D01*
X58570904Y-167584380D02*
X58570904Y-166584380D01*
X58951857Y-166584380D01*
X59047095Y-166632000D01*
X59094714Y-166679619D01*
X59142333Y-166774857D01*
X59142333Y-166917714D01*
X59094714Y-167012952D01*
X59047095Y-167060571D01*
X58951857Y-167108190D01*
X58570904Y-167108190D01*
X59475666Y-166584380D02*
X60142333Y-166584380D01*
X59713761Y-167584380D01*
X48855333Y-155190142D02*
X48807714Y-155237761D01*
X48664857Y-155285380D01*
X48569619Y-155285380D01*
X48426761Y-155237761D01*
X48331523Y-155142523D01*
X48283904Y-155047285D01*
X48236285Y-154856809D01*
X48236285Y-154713952D01*
X48283904Y-154523476D01*
X48331523Y-154428238D01*
X48426761Y-154333000D01*
X48569619Y-154285380D01*
X48664857Y-154285380D01*
X48807714Y-154333000D01*
X48855333Y-154380619D01*
X49712476Y-154285380D02*
X49522000Y-154285380D01*
X49426761Y-154333000D01*
X49379142Y-154380619D01*
X49283904Y-154523476D01*
X49236285Y-154713952D01*
X49236285Y-155094904D01*
X49283904Y-155190142D01*
X49331523Y-155237761D01*
X49426761Y-155285380D01*
X49617238Y-155285380D01*
X49712476Y-155237761D01*
X49760095Y-155190142D01*
X49807714Y-155094904D01*
X49807714Y-154856809D01*
X49760095Y-154761571D01*
X49712476Y-154713952D01*
X49617238Y-154666333D01*
X49426761Y-154666333D01*
X49331523Y-154713952D01*
X49283904Y-154761571D01*
X49236285Y-154856809D01*
X57237333Y-157678380D02*
X56904000Y-157202190D01*
X56665904Y-157678380D02*
X56665904Y-156678380D01*
X57046857Y-156678380D01*
X57142095Y-156726000D01*
X57189714Y-156773619D01*
X57237333Y-156868857D01*
X57237333Y-157011714D01*
X57189714Y-157106952D01*
X57142095Y-157154571D01*
X57046857Y-157202190D01*
X56665904Y-157202190D01*
X57570666Y-156678380D02*
X58189714Y-156678380D01*
X57856380Y-157059333D01*
X57999238Y-157059333D01*
X58094476Y-157106952D01*
X58142095Y-157154571D01*
X58189714Y-157249809D01*
X58189714Y-157487904D01*
X58142095Y-157583142D01*
X58094476Y-157630761D01*
X57999238Y-157678380D01*
X57713523Y-157678380D01*
X57618285Y-157630761D01*
X57570666Y-157583142D01*
X53808333Y-161012142D02*
X53760714Y-161059761D01*
X53617857Y-161107380D01*
X53522619Y-161107380D01*
X53379761Y-161059761D01*
X53284523Y-160964523D01*
X53236904Y-160869285D01*
X53189285Y-160678809D01*
X53189285Y-160535952D01*
X53236904Y-160345476D01*
X53284523Y-160250238D01*
X53379761Y-160155000D01*
X53522619Y-160107380D01*
X53617857Y-160107380D01*
X53760714Y-160155000D01*
X53808333Y-160202619D01*
X54760714Y-161107380D02*
X54189285Y-161107380D01*
X54475000Y-161107380D02*
X54475000Y-160107380D01*
X54379761Y-160250238D01*
X54284523Y-160345476D01*
X54189285Y-160393095D01*
X74723666Y-154900380D02*
X74723666Y-155614666D01*
X74676047Y-155757523D01*
X74580809Y-155852761D01*
X74437952Y-155900380D01*
X74342714Y-155900380D01*
X75152238Y-154995619D02*
X75199857Y-154948000D01*
X75295095Y-154900380D01*
X75533190Y-154900380D01*
X75628428Y-154948000D01*
X75676047Y-154995619D01*
X75723666Y-155090857D01*
X75723666Y-155186095D01*
X75676047Y-155328952D01*
X75104619Y-155900380D01*
X75723666Y-155900380D01*
X41703666Y-160488380D02*
X41703666Y-161202666D01*
X41656047Y-161345523D01*
X41560809Y-161440761D01*
X41417952Y-161488380D01*
X41322714Y-161488380D01*
X42703666Y-161488380D02*
X42132238Y-161488380D01*
X42417952Y-161488380D02*
X42417952Y-160488380D01*
X42322714Y-160631238D01*
X42227476Y-160726476D01*
X42132238Y-160774095D01*
X44323095Y-153503380D02*
X44323095Y-154312904D01*
X44370714Y-154408142D01*
X44418333Y-154455761D01*
X44513571Y-154503380D01*
X44704047Y-154503380D01*
X44799285Y-154455761D01*
X44846904Y-154408142D01*
X44894523Y-154312904D01*
X44894523Y-153503380D01*
X45275476Y-153503380D02*
X45894523Y-153503380D01*
X45561190Y-153884333D01*
X45704047Y-153884333D01*
X45799285Y-153931952D01*
X45846904Y-153979571D01*
X45894523Y-154074809D01*
X45894523Y-154312904D01*
X45846904Y-154408142D01*
X45799285Y-154455761D01*
X45704047Y-154503380D01*
X45418333Y-154503380D01*
X45323095Y-154455761D01*
X45275476Y-154408142D01*
X45616904Y-163520380D02*
X45616904Y-162520380D01*
X45855000Y-162520380D01*
X45997857Y-162568000D01*
X46093095Y-162663238D01*
X46140714Y-162758476D01*
X46188333Y-162948952D01*
X46188333Y-163091809D01*
X46140714Y-163282285D01*
X46093095Y-163377523D01*
X45997857Y-163472761D01*
X45855000Y-163520380D01*
X45616904Y-163520380D01*
X47140714Y-163520380D02*
X46569285Y-163520380D01*
X46855000Y-163520380D02*
X46855000Y-162520380D01*
X46759761Y-162663238D01*
X46664523Y-162758476D01*
X46569285Y-162806095D01*
X53808333Y-176093380D02*
X53475000Y-175617190D01*
X53236904Y-176093380D02*
X53236904Y-175093380D01*
X53617857Y-175093380D01*
X53713095Y-175141000D01*
X53760714Y-175188619D01*
X53808333Y-175283857D01*
X53808333Y-175426714D01*
X53760714Y-175521952D01*
X53713095Y-175569571D01*
X53617857Y-175617190D01*
X53236904Y-175617190D01*
X54760714Y-176093380D02*
X54189285Y-176093380D01*
X54475000Y-176093380D02*
X54475000Y-175093380D01*
X54379761Y-175236238D01*
X54284523Y-175331476D01*
X54189285Y-175379095D01*
X50887333Y-176093380D02*
X50554000Y-175617190D01*
X50315904Y-176093380D02*
X50315904Y-175093380D01*
X50696857Y-175093380D01*
X50792095Y-175141000D01*
X50839714Y-175188619D01*
X50887333Y-175283857D01*
X50887333Y-175426714D01*
X50839714Y-175521952D01*
X50792095Y-175569571D01*
X50696857Y-175617190D01*
X50315904Y-175617190D01*
X51792095Y-175093380D02*
X51315904Y-175093380D01*
X51268285Y-175569571D01*
X51315904Y-175521952D01*
X51411142Y-175474333D01*
X51649238Y-175474333D01*
X51744476Y-175521952D01*
X51792095Y-175569571D01*
X51839714Y-175664809D01*
X51839714Y-175902904D01*
X51792095Y-175998142D01*
X51744476Y-176045761D01*
X51649238Y-176093380D01*
X51411142Y-176093380D01*
X51315904Y-176045761D01*
X51268285Y-175998142D01*
X62738095Y-169628380D02*
X62738095Y-170437904D01*
X62785714Y-170533142D01*
X62833333Y-170580761D01*
X62928571Y-170628380D01*
X63119047Y-170628380D01*
X63214285Y-170580761D01*
X63261904Y-170533142D01*
X63309523Y-170437904D01*
X63309523Y-169628380D01*
X64214285Y-169961714D02*
X64214285Y-170628380D01*
X63976190Y-169580761D02*
X63738095Y-170295047D01*
X64357142Y-170295047D01*
X68794333Y-157170380D02*
X68461000Y-156694190D01*
X68222904Y-157170380D02*
X68222904Y-156170380D01*
X68603857Y-156170380D01*
X68699095Y-156218000D01*
X68746714Y-156265619D01*
X68794333Y-156360857D01*
X68794333Y-156503714D01*
X68746714Y-156598952D01*
X68699095Y-156646571D01*
X68603857Y-156694190D01*
X68222904Y-156694190D01*
X69651476Y-156170380D02*
X69461000Y-156170380D01*
X69365761Y-156218000D01*
X69318142Y-156265619D01*
X69222904Y-156408476D01*
X69175285Y-156598952D01*
X69175285Y-156979904D01*
X69222904Y-157075142D01*
X69270523Y-157122761D01*
X69365761Y-157170380D01*
X69556238Y-157170380D01*
X69651476Y-157122761D01*
X69699095Y-157075142D01*
X69746714Y-156979904D01*
X69746714Y-156741809D01*
X69699095Y-156646571D01*
X69651476Y-156598952D01*
X69556238Y-156551333D01*
X69365761Y-156551333D01*
X69270523Y-156598952D01*
X69222904Y-156646571D01*
X69175285Y-156741809D01*
X54443333Y-155285380D02*
X54110000Y-154809190D01*
X53871904Y-155285380D02*
X53871904Y-154285380D01*
X54252857Y-154285380D01*
X54348095Y-154333000D01*
X54395714Y-154380619D01*
X54443333Y-154475857D01*
X54443333Y-154618714D01*
X54395714Y-154713952D01*
X54348095Y-154761571D01*
X54252857Y-154809190D01*
X53871904Y-154809190D01*
X55300476Y-154618714D02*
X55300476Y-155285380D01*
X55062380Y-154237761D02*
X54824285Y-154952047D01*
X55443333Y-154952047D01*
X69683333Y-161774142D02*
X69635714Y-161821761D01*
X69492857Y-161869380D01*
X69397619Y-161869380D01*
X69254761Y-161821761D01*
X69159523Y-161726523D01*
X69111904Y-161631285D01*
X69064285Y-161440809D01*
X69064285Y-161297952D01*
X69111904Y-161107476D01*
X69159523Y-161012238D01*
X69254761Y-160917000D01*
X69397619Y-160869380D01*
X69492857Y-160869380D01*
X69635714Y-160917000D01*
X69683333Y-160964619D01*
X70254761Y-161297952D02*
X70159523Y-161250333D01*
X70111904Y-161202714D01*
X70064285Y-161107476D01*
X70064285Y-161059857D01*
X70111904Y-160964619D01*
X70159523Y-160917000D01*
X70254761Y-160869380D01*
X70445238Y-160869380D01*
X70540476Y-160917000D01*
X70588095Y-160964619D01*
X70635714Y-161059857D01*
X70635714Y-161107476D01*
X70588095Y-161202714D01*
X70540476Y-161250333D01*
X70445238Y-161297952D01*
X70254761Y-161297952D01*
X70159523Y-161345571D01*
X70111904Y-161393190D01*
X70064285Y-161488428D01*
X70064285Y-161678904D01*
X70111904Y-161774142D01*
X70159523Y-161821761D01*
X70254761Y-161869380D01*
X70445238Y-161869380D01*
X70540476Y-161821761D01*
X70588095Y-161774142D01*
X70635714Y-161678904D01*
X70635714Y-161488428D01*
X70588095Y-161393190D01*
X70540476Y-161345571D01*
X70445238Y-161297952D01*
X56856333Y-163774380D02*
X56523000Y-163298190D01*
X56284904Y-163774380D02*
X56284904Y-162774380D01*
X56665857Y-162774380D01*
X56761095Y-162822000D01*
X56808714Y-162869619D01*
X56856333Y-162964857D01*
X56856333Y-163107714D01*
X56808714Y-163202952D01*
X56761095Y-163250571D01*
X56665857Y-163298190D01*
X56284904Y-163298190D01*
X57237285Y-162869619D02*
X57284904Y-162822000D01*
X57380142Y-162774380D01*
X57618238Y-162774380D01*
X57713476Y-162822000D01*
X57761095Y-162869619D01*
X57808714Y-162964857D01*
X57808714Y-163060095D01*
X57761095Y-163202952D01*
X57189666Y-163774380D01*
X57808714Y-163774380D01*
D11*
X40794000Y-156583748D02*
X40794000Y-157106252D01*
X42264000Y-156583748D02*
X42264000Y-157106252D01*
X42537748Y-176249000D02*
X43060252Y-176249000D01*
X42537748Y-174779000D02*
X43060252Y-174779000D01*
X49122000Y-173362252D02*
X49122000Y-172839748D01*
X47652000Y-173362252D02*
X47652000Y-172839748D01*
X75692000Y-163797000D02*
X71832000Y-163797000D01*
X75692000Y-176817000D02*
X79552000Y-176817000D01*
X75692000Y-176817000D02*
X71832000Y-176817000D01*
X71832000Y-163797000D02*
X71832000Y-164032000D01*
X79552000Y-163797000D02*
X79552000Y-164032000D01*
X79552000Y-176582000D02*
X81367000Y-176582000D01*
X79552000Y-176817000D02*
X79552000Y-176582000D01*
X71832000Y-176817000D02*
X71832000Y-176582000D01*
X75692000Y-163797000D02*
X79552000Y-163797000D01*
X57250000Y-173362252D02*
X57250000Y-172839748D01*
X55780000Y-173362252D02*
X55780000Y-172839748D01*
X51081000Y-156964748D02*
X51081000Y-157487252D01*
X52551000Y-156964748D02*
X52551000Y-157487252D01*
X41201000Y-172764000D02*
X41431000Y-172764000D01*
X41431000Y-173904000D02*
X41431000Y-172764000D01*
X44611000Y-170044000D02*
X45921000Y-170044000D01*
X41201000Y-172764000D02*
X41201000Y-170044000D01*
X45921000Y-172764000D02*
X45691000Y-172764000D01*
X45921000Y-170044000D02*
X45921000Y-172764000D01*
X41201000Y-170044000D02*
X42511000Y-170044000D01*
X59536064Y-168048000D02*
X59081936Y-168048000D01*
X59536064Y-169518000D02*
X59081936Y-169518000D01*
X49757000Y-157507252D02*
X49757000Y-156984748D01*
X48287000Y-157507252D02*
X48287000Y-156984748D01*
D12*
X66255900Y-160832800D02*
X58712100Y-160832800D01*
X66255900Y-156296360D02*
X66255900Y-153619200D01*
X66255900Y-160832800D02*
X66255900Y-158155640D01*
X58712100Y-155615640D02*
X58712100Y-158836360D01*
X66255900Y-153619200D02*
X58712100Y-153619200D01*
D11*
X53907563Y-168383000D02*
X54972000Y-167318563D01*
X54972000Y-167318563D02*
X54972000Y-161563000D01*
X49320750Y-169016750D02*
X50108250Y-169016750D01*
X48152000Y-161563000D02*
X50502000Y-161563000D01*
X53907563Y-168383000D02*
X52622000Y-168383000D01*
X49216437Y-168383000D02*
X50502000Y-168383000D01*
X49714500Y-169410500D02*
X49714500Y-168623000D01*
X48152000Y-167318563D02*
X48152000Y-161563000D01*
X54972000Y-161563000D02*
X52622000Y-161563000D01*
X49216437Y-168383000D02*
X48152000Y-167318563D01*
X72771000Y-158877000D02*
X72771000Y-158242000D01*
X73406000Y-158877000D02*
X72771000Y-158877000D01*
X42806000Y-161990000D02*
X42806000Y-163040000D01*
X40306000Y-168210000D02*
X42806000Y-168210000D01*
X40306000Y-161990000D02*
X42806000Y-161990000D01*
X38336000Y-163160000D02*
X38336000Y-167040000D01*
X42806000Y-168210000D02*
X42806000Y-167160000D01*
X42806000Y-163040000D02*
X43796000Y-163040000D01*
X43652000Y-156845000D02*
X43652000Y-156045000D01*
X46772000Y-156845000D02*
X46772000Y-156045000D01*
X43652000Y-156845000D02*
X43652000Y-158645000D01*
X46772000Y-156845000D02*
X46772000Y-157645000D01*
X47101000Y-168493000D02*
X47101000Y-164593000D01*
X45101000Y-168493000D02*
X45101000Y-164593000D01*
X45101000Y-168493000D02*
X47101000Y-168493000D01*
X53113000Y-172873936D02*
X53113000Y-173328064D01*
X54583000Y-172873936D02*
X54583000Y-173328064D01*
X51789000Y-172873936D02*
X51789000Y-173328064D01*
X50319000Y-172873936D02*
X50319000Y-173328064D01*
X60775000Y-176461000D02*
X60775000Y-176201000D01*
X66225000Y-171011000D02*
X66225000Y-171271000D01*
X60775000Y-171011000D02*
X60775000Y-171271000D01*
X63500000Y-171011000D02*
X60775000Y-171011000D01*
X66225000Y-176461000D02*
X66225000Y-176201000D01*
X60775000Y-171271000D02*
X59100000Y-171271000D01*
X63500000Y-176461000D02*
X60775000Y-176461000D01*
X63500000Y-171011000D02*
X66225000Y-171011000D01*
X63500000Y-176461000D02*
X66225000Y-176461000D01*
X68225936Y-155675000D02*
X68680064Y-155675000D01*
X68225936Y-154205000D02*
X68680064Y-154205000D01*
X53875000Y-157018936D02*
X53875000Y-157473064D01*
X55345000Y-157018936D02*
X55345000Y-157473064D01*
X68714252Y-160247000D02*
X68191748Y-160247000D01*
X68714252Y-158777000D02*
X68191748Y-158777000D01*
X59589936Y-162587000D02*
X60044064Y-162587000D01*
X59589936Y-164057000D02*
X60044064Y-164057000D01*
M02*
