G04 #@! TF.GenerationSoftware,KiCad,Pcbnew,6.0.2+dfsg-1*
G04 #@! TF.CreationDate,2023-09-18T08:20:45-06:00*
G04 #@! TF.ProjectId,ckt-dingdong-flash,636b742d-6469-46e6-9764-6f6e672d666c,rev?*
G04 #@! TF.SameCoordinates,Original*
G04 #@! TF.FileFunction,Soldermask,Top*
G04 #@! TF.FilePolarity,Negative*
%FSLAX46Y46*%
G04 Gerber Fmt 4.6, Leading zero omitted, Abs format (unit mm)*
G04 Created by KiCad (PCBNEW 6.0.2+dfsg-1) date 2023-09-18 08:20:45*
%MOMM*%
%LPD*%
G01*
G04 APERTURE LIST*
%ADD10C,2.527300*%
%ADD11C,1.143000*%
%ADD12C,0.939800*%
G04 APERTURE END LIST*
G36*
G01*
X41054000Y-155318800D02*
X42004000Y-155318800D01*
G75*
G02*
X42330200Y-155645000I0J-326200D01*
G01*
X42330200Y-156145000D01*
G75*
G02*
X42004000Y-156471200I-326200J0D01*
G01*
X41054000Y-156471200D01*
G75*
G02*
X40727800Y-156145000I0J326200D01*
G01*
X40727800Y-155645000D01*
G75*
G02*
X41054000Y-155318800I326200J0D01*
G01*
G37*
G36*
G01*
X41054000Y-157218800D02*
X42004000Y-157218800D01*
G75*
G02*
X42330200Y-157545000I0J-326200D01*
G01*
X42330200Y-158045000D01*
G75*
G02*
X42004000Y-158371200I-326200J0D01*
G01*
X41054000Y-158371200D01*
G75*
G02*
X40727800Y-158045000I0J326200D01*
G01*
X40727800Y-157545000D01*
G75*
G02*
X41054000Y-157218800I326200J0D01*
G01*
G37*
G36*
G01*
X41272800Y-175989000D02*
X41272800Y-175039000D01*
G75*
G02*
X41599000Y-174712800I326200J0D01*
G01*
X42099000Y-174712800D01*
G75*
G02*
X42425200Y-175039000I0J-326200D01*
G01*
X42425200Y-175989000D01*
G75*
G02*
X42099000Y-176315200I-326200J0D01*
G01*
X41599000Y-176315200D01*
G75*
G02*
X41272800Y-175989000I0J326200D01*
G01*
G37*
G36*
G01*
X43172800Y-175989000D02*
X43172800Y-175039000D01*
G75*
G02*
X43499000Y-174712800I326200J0D01*
G01*
X43999000Y-174712800D01*
G75*
G02*
X44325200Y-175039000I0J-326200D01*
G01*
X44325200Y-175989000D01*
G75*
G02*
X43999000Y-176315200I-326200J0D01*
G01*
X43499000Y-176315200D01*
G75*
G02*
X43172800Y-175989000I0J326200D01*
G01*
G37*
G36*
G01*
X48862000Y-174627200D02*
X47912000Y-174627200D01*
G75*
G02*
X47585800Y-174301000I0J326200D01*
G01*
X47585800Y-173801000D01*
G75*
G02*
X47912000Y-173474800I326200J0D01*
G01*
X48862000Y-173474800D01*
G75*
G02*
X49188200Y-173801000I0J-326200D01*
G01*
X49188200Y-174301000D01*
G75*
G02*
X48862000Y-174627200I-326200J0D01*
G01*
G37*
G36*
G01*
X48862000Y-172727200D02*
X47912000Y-172727200D01*
G75*
G02*
X47585800Y-172401000I0J326200D01*
G01*
X47585800Y-171901000D01*
G75*
G02*
X47912000Y-171574800I326200J0D01*
G01*
X48862000Y-171574800D01*
G75*
G02*
X49188200Y-171901000I0J-326200D01*
G01*
X49188200Y-172401000D01*
G75*
G02*
X48862000Y-172727200I-326200J0D01*
G01*
G37*
G36*
G01*
X81443200Y-175872000D02*
X81443200Y-176172000D01*
G75*
G02*
X81217000Y-176398200I-226200J0D01*
G01*
X79467000Y-176398200D01*
G75*
G02*
X79240800Y-176172000I0J226200D01*
G01*
X79240800Y-175872000D01*
G75*
G02*
X79467000Y-175645800I226200J0D01*
G01*
X81217000Y-175645800D01*
G75*
G02*
X81443200Y-175872000I0J-226200D01*
G01*
G37*
G36*
G01*
X81443200Y-174602000D02*
X81443200Y-174902000D01*
G75*
G02*
X81217000Y-175128200I-226200J0D01*
G01*
X79467000Y-175128200D01*
G75*
G02*
X79240800Y-174902000I0J226200D01*
G01*
X79240800Y-174602000D01*
G75*
G02*
X79467000Y-174375800I226200J0D01*
G01*
X81217000Y-174375800D01*
G75*
G02*
X81443200Y-174602000I0J-226200D01*
G01*
G37*
G36*
G01*
X81443200Y-173332000D02*
X81443200Y-173632000D01*
G75*
G02*
X81217000Y-173858200I-226200J0D01*
G01*
X79467000Y-173858200D01*
G75*
G02*
X79240800Y-173632000I0J226200D01*
G01*
X79240800Y-173332000D01*
G75*
G02*
X79467000Y-173105800I226200J0D01*
G01*
X81217000Y-173105800D01*
G75*
G02*
X81443200Y-173332000I0J-226200D01*
G01*
G37*
G36*
G01*
X81443200Y-172062000D02*
X81443200Y-172362000D01*
G75*
G02*
X81217000Y-172588200I-226200J0D01*
G01*
X79467000Y-172588200D01*
G75*
G02*
X79240800Y-172362000I0J226200D01*
G01*
X79240800Y-172062000D01*
G75*
G02*
X79467000Y-171835800I226200J0D01*
G01*
X81217000Y-171835800D01*
G75*
G02*
X81443200Y-172062000I0J-226200D01*
G01*
G37*
G36*
G01*
X81443200Y-170792000D02*
X81443200Y-171092000D01*
G75*
G02*
X81217000Y-171318200I-226200J0D01*
G01*
X79467000Y-171318200D01*
G75*
G02*
X79240800Y-171092000I0J226200D01*
G01*
X79240800Y-170792000D01*
G75*
G02*
X79467000Y-170565800I226200J0D01*
G01*
X81217000Y-170565800D01*
G75*
G02*
X81443200Y-170792000I0J-226200D01*
G01*
G37*
G36*
G01*
X81443200Y-169522000D02*
X81443200Y-169822000D01*
G75*
G02*
X81217000Y-170048200I-226200J0D01*
G01*
X79467000Y-170048200D01*
G75*
G02*
X79240800Y-169822000I0J226200D01*
G01*
X79240800Y-169522000D01*
G75*
G02*
X79467000Y-169295800I226200J0D01*
G01*
X81217000Y-169295800D01*
G75*
G02*
X81443200Y-169522000I0J-226200D01*
G01*
G37*
G36*
G01*
X81443200Y-168252000D02*
X81443200Y-168552000D01*
G75*
G02*
X81217000Y-168778200I-226200J0D01*
G01*
X79467000Y-168778200D01*
G75*
G02*
X79240800Y-168552000I0J226200D01*
G01*
X79240800Y-168252000D01*
G75*
G02*
X79467000Y-168025800I226200J0D01*
G01*
X81217000Y-168025800D01*
G75*
G02*
X81443200Y-168252000I0J-226200D01*
G01*
G37*
G36*
G01*
X81443200Y-166982000D02*
X81443200Y-167282000D01*
G75*
G02*
X81217000Y-167508200I-226200J0D01*
G01*
X79467000Y-167508200D01*
G75*
G02*
X79240800Y-167282000I0J226200D01*
G01*
X79240800Y-166982000D01*
G75*
G02*
X79467000Y-166755800I226200J0D01*
G01*
X81217000Y-166755800D01*
G75*
G02*
X81443200Y-166982000I0J-226200D01*
G01*
G37*
G36*
G01*
X81443200Y-165712000D02*
X81443200Y-166012000D01*
G75*
G02*
X81217000Y-166238200I-226200J0D01*
G01*
X79467000Y-166238200D01*
G75*
G02*
X79240800Y-166012000I0J226200D01*
G01*
X79240800Y-165712000D01*
G75*
G02*
X79467000Y-165485800I226200J0D01*
G01*
X81217000Y-165485800D01*
G75*
G02*
X81443200Y-165712000I0J-226200D01*
G01*
G37*
G36*
G01*
X81443200Y-164442000D02*
X81443200Y-164742000D01*
G75*
G02*
X81217000Y-164968200I-226200J0D01*
G01*
X79467000Y-164968200D01*
G75*
G02*
X79240800Y-164742000I0J226200D01*
G01*
X79240800Y-164442000D01*
G75*
G02*
X79467000Y-164215800I226200J0D01*
G01*
X81217000Y-164215800D01*
G75*
G02*
X81443200Y-164442000I0J-226200D01*
G01*
G37*
G36*
G01*
X72143200Y-164442000D02*
X72143200Y-164742000D01*
G75*
G02*
X71917000Y-164968200I-226200J0D01*
G01*
X70167000Y-164968200D01*
G75*
G02*
X69940800Y-164742000I0J226200D01*
G01*
X69940800Y-164442000D01*
G75*
G02*
X70167000Y-164215800I226200J0D01*
G01*
X71917000Y-164215800D01*
G75*
G02*
X72143200Y-164442000I0J-226200D01*
G01*
G37*
G36*
G01*
X72143200Y-165712000D02*
X72143200Y-166012000D01*
G75*
G02*
X71917000Y-166238200I-226200J0D01*
G01*
X70167000Y-166238200D01*
G75*
G02*
X69940800Y-166012000I0J226200D01*
G01*
X69940800Y-165712000D01*
G75*
G02*
X70167000Y-165485800I226200J0D01*
G01*
X71917000Y-165485800D01*
G75*
G02*
X72143200Y-165712000I0J-226200D01*
G01*
G37*
G36*
G01*
X72143200Y-166982000D02*
X72143200Y-167282000D01*
G75*
G02*
X71917000Y-167508200I-226200J0D01*
G01*
X70167000Y-167508200D01*
G75*
G02*
X69940800Y-167282000I0J226200D01*
G01*
X69940800Y-166982000D01*
G75*
G02*
X70167000Y-166755800I226200J0D01*
G01*
X71917000Y-166755800D01*
G75*
G02*
X72143200Y-166982000I0J-226200D01*
G01*
G37*
G36*
G01*
X72143200Y-168252000D02*
X72143200Y-168552000D01*
G75*
G02*
X71917000Y-168778200I-226200J0D01*
G01*
X70167000Y-168778200D01*
G75*
G02*
X69940800Y-168552000I0J226200D01*
G01*
X69940800Y-168252000D01*
G75*
G02*
X70167000Y-168025800I226200J0D01*
G01*
X71917000Y-168025800D01*
G75*
G02*
X72143200Y-168252000I0J-226200D01*
G01*
G37*
G36*
G01*
X72143200Y-169522000D02*
X72143200Y-169822000D01*
G75*
G02*
X71917000Y-170048200I-226200J0D01*
G01*
X70167000Y-170048200D01*
G75*
G02*
X69940800Y-169822000I0J226200D01*
G01*
X69940800Y-169522000D01*
G75*
G02*
X70167000Y-169295800I226200J0D01*
G01*
X71917000Y-169295800D01*
G75*
G02*
X72143200Y-169522000I0J-226200D01*
G01*
G37*
G36*
G01*
X72143200Y-170792000D02*
X72143200Y-171092000D01*
G75*
G02*
X71917000Y-171318200I-226200J0D01*
G01*
X70167000Y-171318200D01*
G75*
G02*
X69940800Y-171092000I0J226200D01*
G01*
X69940800Y-170792000D01*
G75*
G02*
X70167000Y-170565800I226200J0D01*
G01*
X71917000Y-170565800D01*
G75*
G02*
X72143200Y-170792000I0J-226200D01*
G01*
G37*
G36*
G01*
X72143200Y-172062000D02*
X72143200Y-172362000D01*
G75*
G02*
X71917000Y-172588200I-226200J0D01*
G01*
X70167000Y-172588200D01*
G75*
G02*
X69940800Y-172362000I0J226200D01*
G01*
X69940800Y-172062000D01*
G75*
G02*
X70167000Y-171835800I226200J0D01*
G01*
X71917000Y-171835800D01*
G75*
G02*
X72143200Y-172062000I0J-226200D01*
G01*
G37*
G36*
G01*
X72143200Y-173332000D02*
X72143200Y-173632000D01*
G75*
G02*
X71917000Y-173858200I-226200J0D01*
G01*
X70167000Y-173858200D01*
G75*
G02*
X69940800Y-173632000I0J226200D01*
G01*
X69940800Y-173332000D01*
G75*
G02*
X70167000Y-173105800I226200J0D01*
G01*
X71917000Y-173105800D01*
G75*
G02*
X72143200Y-173332000I0J-226200D01*
G01*
G37*
G36*
G01*
X72143200Y-174602000D02*
X72143200Y-174902000D01*
G75*
G02*
X71917000Y-175128200I-226200J0D01*
G01*
X70167000Y-175128200D01*
G75*
G02*
X69940800Y-174902000I0J226200D01*
G01*
X69940800Y-174602000D01*
G75*
G02*
X70167000Y-174375800I226200J0D01*
G01*
X71917000Y-174375800D01*
G75*
G02*
X72143200Y-174602000I0J-226200D01*
G01*
G37*
G36*
G01*
X72143200Y-175872000D02*
X72143200Y-176172000D01*
G75*
G02*
X71917000Y-176398200I-226200J0D01*
G01*
X70167000Y-176398200D01*
G75*
G02*
X69940800Y-176172000I0J226200D01*
G01*
X69940800Y-175872000D01*
G75*
G02*
X70167000Y-175645800I226200J0D01*
G01*
X71917000Y-175645800D01*
G75*
G02*
X72143200Y-175872000I0J-226200D01*
G01*
G37*
G36*
G01*
X56990000Y-174627200D02*
X56040000Y-174627200D01*
G75*
G02*
X55713800Y-174301000I0J326200D01*
G01*
X55713800Y-173801000D01*
G75*
G02*
X56040000Y-173474800I326200J0D01*
G01*
X56990000Y-173474800D01*
G75*
G02*
X57316200Y-173801000I0J-326200D01*
G01*
X57316200Y-174301000D01*
G75*
G02*
X56990000Y-174627200I-326200J0D01*
G01*
G37*
G36*
G01*
X56990000Y-172727200D02*
X56040000Y-172727200D01*
G75*
G02*
X55713800Y-172401000I0J326200D01*
G01*
X55713800Y-171901000D01*
G75*
G02*
X56040000Y-171574800I326200J0D01*
G01*
X56990000Y-171574800D01*
G75*
G02*
X57316200Y-171901000I0J-326200D01*
G01*
X57316200Y-172401000D01*
G75*
G02*
X56990000Y-172727200I-326200J0D01*
G01*
G37*
G36*
G01*
X51341000Y-155699800D02*
X52291000Y-155699800D01*
G75*
G02*
X52617200Y-156026000I0J-326200D01*
G01*
X52617200Y-156526000D01*
G75*
G02*
X52291000Y-156852200I-326200J0D01*
G01*
X51341000Y-156852200D01*
G75*
G02*
X51014800Y-156526000I0J326200D01*
G01*
X51014800Y-156026000D01*
G75*
G02*
X51341000Y-155699800I326200J0D01*
G01*
G37*
G36*
G01*
X51341000Y-157599800D02*
X52291000Y-157599800D01*
G75*
G02*
X52617200Y-157926000I0J-326200D01*
G01*
X52617200Y-158426000D01*
G75*
G02*
X52291000Y-158752200I-326200J0D01*
G01*
X51341000Y-158752200D01*
G75*
G02*
X51014800Y-158426000I0J326200D01*
G01*
X51014800Y-157926000D01*
G75*
G02*
X51341000Y-157599800I326200J0D01*
G01*
G37*
G36*
G01*
X42336000Y-174080200D02*
X41786000Y-174080200D01*
G75*
G02*
X41709800Y-174004000I0J76200D01*
G01*
X41709800Y-172704000D01*
G75*
G02*
X41786000Y-172627800I76200J0D01*
G01*
X42336000Y-172627800D01*
G75*
G02*
X42412200Y-172704000I0J-76200D01*
G01*
X42412200Y-174004000D01*
G75*
G02*
X42336000Y-174080200I-76200J0D01*
G01*
G37*
G36*
X42577627Y-169355020D02*
G01*
X42622768Y-169328958D01*
X42636000Y-169327800D01*
X44486000Y-169327800D01*
X44534980Y-169345627D01*
X44561042Y-169390768D01*
X44562200Y-169404000D01*
X44562200Y-172004000D01*
X44544373Y-172052980D01*
X44539882Y-172057882D01*
X44037200Y-172560564D01*
X44037200Y-174004000D01*
X44019373Y-174052980D01*
X43974232Y-174079042D01*
X43961000Y-174080200D01*
X43161000Y-174080200D01*
X43112020Y-174062373D01*
X43085958Y-174017232D01*
X43084800Y-174004000D01*
X43084800Y-172560564D01*
X42582118Y-172057882D01*
X42560090Y-172010641D01*
X42559800Y-172004000D01*
X42559800Y-169404000D01*
X42577627Y-169355020D01*
G37*
G36*
G01*
X45336000Y-174080200D02*
X44786000Y-174080200D01*
G75*
G02*
X44709800Y-174004000I0J76200D01*
G01*
X44709800Y-172704000D01*
G75*
G02*
X44786000Y-172627800I76200J0D01*
G01*
X45336000Y-172627800D01*
G75*
G02*
X45412200Y-172704000I0J-76200D01*
G01*
X45412200Y-174004000D01*
G75*
G02*
X45336000Y-174080200I-76200J0D01*
G01*
G37*
G36*
G01*
X60810200Y-168333000D02*
X60810200Y-169233000D01*
G75*
G02*
X60484000Y-169559200I-326200J0D01*
G01*
X59959000Y-169559200D01*
G75*
G02*
X59632800Y-169233000I0J326200D01*
G01*
X59632800Y-168333000D01*
G75*
G02*
X59959000Y-168006800I326200J0D01*
G01*
X60484000Y-168006800D01*
G75*
G02*
X60810200Y-168333000I0J-326200D01*
G01*
G37*
G36*
G01*
X58985200Y-168333000D02*
X58985200Y-169233000D01*
G75*
G02*
X58659000Y-169559200I-326200J0D01*
G01*
X58134000Y-169559200D01*
G75*
G02*
X57807800Y-169233000I0J326200D01*
G01*
X57807800Y-168333000D01*
G75*
G02*
X58134000Y-168006800I326200J0D01*
G01*
X58659000Y-168006800D01*
G75*
G02*
X58985200Y-168333000I0J-326200D01*
G01*
G37*
G36*
G01*
X49497000Y-158772200D02*
X48547000Y-158772200D01*
G75*
G02*
X48220800Y-158446000I0J326200D01*
G01*
X48220800Y-157946000D01*
G75*
G02*
X48547000Y-157619800I326200J0D01*
G01*
X49497000Y-157619800D01*
G75*
G02*
X49823200Y-157946000I0J-326200D01*
G01*
X49823200Y-158446000D01*
G75*
G02*
X49497000Y-158772200I-326200J0D01*
G01*
G37*
G36*
G01*
X49497000Y-156872200D02*
X48547000Y-156872200D01*
G75*
G02*
X48220800Y-156546000I0J326200D01*
G01*
X48220800Y-156046000D01*
G75*
G02*
X48547000Y-155719800I326200J0D01*
G01*
X49497000Y-155719800D01*
G75*
G02*
X49823200Y-156046000I0J-326200D01*
G01*
X49823200Y-156546000D01*
G75*
G02*
X49497000Y-156872200I-326200J0D01*
G01*
G37*
G36*
G01*
X57683400Y-154012900D02*
X61112400Y-154012900D01*
G75*
G02*
X61188600Y-154089100I0J-76200D01*
G01*
X61188600Y-155282900D01*
G75*
G02*
X61112400Y-155359100I-76200J0D01*
G01*
X57683400Y-155359100D01*
G75*
G02*
X57607200Y-155282900I0J76200D01*
G01*
X57607200Y-154089100D01*
G75*
G02*
X57683400Y-154012900I76200J0D01*
G01*
G37*
G36*
G01*
X63830200Y-156552900D02*
X67284600Y-156552900D01*
G75*
G02*
X67360800Y-156629100I0J-76200D01*
G01*
X67360800Y-157822900D01*
G75*
G02*
X67284600Y-157899100I-76200J0D01*
G01*
X63830200Y-157899100D01*
G75*
G02*
X63754000Y-157822900I0J76200D01*
G01*
X63754000Y-156629100D01*
G75*
G02*
X63830200Y-156552900I76200J0D01*
G01*
G37*
G36*
G01*
X57683400Y-159092900D02*
X61112400Y-159092900D01*
G75*
G02*
X61188600Y-159169100I0J-76200D01*
G01*
X61188600Y-160362900D01*
G75*
G02*
X61112400Y-160439100I-76200J0D01*
G01*
X57683400Y-160439100D01*
G75*
G02*
X57607200Y-160362900I0J76200D01*
G01*
X57607200Y-159169100D01*
G75*
G02*
X57683400Y-159092900I76200J0D01*
G01*
G37*
G36*
G01*
X52112000Y-169499200D02*
X51012000Y-169499200D01*
G75*
G02*
X50685800Y-169173000I0J326200D01*
G01*
X50685800Y-166173000D01*
G75*
G02*
X51012000Y-165846800I326200J0D01*
G01*
X52112000Y-165846800D01*
G75*
G02*
X52438200Y-166173000I0J-326200D01*
G01*
X52438200Y-169173000D01*
G75*
G02*
X52112000Y-169499200I-326200J0D01*
G01*
G37*
G36*
G01*
X52112000Y-164099200D02*
X51012000Y-164099200D01*
G75*
G02*
X50685800Y-163773000I0J326200D01*
G01*
X50685800Y-160773000D01*
G75*
G02*
X51012000Y-160446800I326200J0D01*
G01*
X52112000Y-160446800D01*
G75*
G02*
X52438200Y-160773000I0J-326200D01*
G01*
X52438200Y-163773000D01*
G75*
G02*
X52112000Y-164099200I-326200J0D01*
G01*
G37*
D10*
X77851000Y-160147000D03*
X72136000Y-160147000D03*
X77851000Y-155067000D03*
X72136000Y-155067000D03*
D11*
X72136000Y-157607000D03*
X79756000Y-158623000D03*
X79756000Y-156591000D03*
D12*
X73406000Y-158242000D03*
X74676000Y-158242000D03*
X75946000Y-158242000D03*
X77216000Y-158242000D03*
X78486000Y-158242000D03*
X78486000Y-156972000D03*
X77216000Y-156972000D03*
X75946000Y-156972000D03*
X74676000Y-156972000D03*
X73406000Y-156972000D03*
G36*
G01*
X42396000Y-163223800D02*
X43646000Y-163223800D01*
G75*
G02*
X43872200Y-163450000I0J-226200D01*
G01*
X43872200Y-163750000D01*
G75*
G02*
X43646000Y-163976200I-226200J0D01*
G01*
X42396000Y-163976200D01*
G75*
G02*
X42169800Y-163750000I0J226200D01*
G01*
X42169800Y-163450000D01*
G75*
G02*
X42396000Y-163223800I226200J0D01*
G01*
G37*
G36*
G01*
X42396000Y-164223800D02*
X43646000Y-164223800D01*
G75*
G02*
X43872200Y-164450000I0J-226200D01*
G01*
X43872200Y-164750000D01*
G75*
G02*
X43646000Y-164976200I-226200J0D01*
G01*
X42396000Y-164976200D01*
G75*
G02*
X42169800Y-164750000I0J226200D01*
G01*
X42169800Y-164450000D01*
G75*
G02*
X42396000Y-164223800I226200J0D01*
G01*
G37*
G36*
G01*
X42396000Y-165223800D02*
X43646000Y-165223800D01*
G75*
G02*
X43872200Y-165450000I0J-226200D01*
G01*
X43872200Y-165750000D01*
G75*
G02*
X43646000Y-165976200I-226200J0D01*
G01*
X42396000Y-165976200D01*
G75*
G02*
X42169800Y-165750000I0J226200D01*
G01*
X42169800Y-165450000D01*
G75*
G02*
X42396000Y-165223800I226200J0D01*
G01*
G37*
G36*
G01*
X42396000Y-166223800D02*
X43646000Y-166223800D01*
G75*
G02*
X43872200Y-166450000I0J-226200D01*
G01*
X43872200Y-166750000D01*
G75*
G02*
X43646000Y-166976200I-226200J0D01*
G01*
X42396000Y-166976200D01*
G75*
G02*
X42169800Y-166750000I0J226200D01*
G01*
X42169800Y-166450000D01*
G75*
G02*
X42396000Y-166223800I226200J0D01*
G01*
G37*
G36*
G01*
X38496000Y-161623800D02*
X39796000Y-161623800D01*
G75*
G02*
X40122200Y-161950000I0J-326200D01*
G01*
X40122200Y-162650000D01*
G75*
G02*
X39796000Y-162976200I-326200J0D01*
G01*
X38496000Y-162976200D01*
G75*
G02*
X38169800Y-162650000I0J326200D01*
G01*
X38169800Y-161950000D01*
G75*
G02*
X38496000Y-161623800I326200J0D01*
G01*
G37*
G36*
G01*
X38496000Y-167223800D02*
X39796000Y-167223800D01*
G75*
G02*
X40122200Y-167550000I0J-326200D01*
G01*
X40122200Y-168250000D01*
G75*
G02*
X39796000Y-168576200I-326200J0D01*
G01*
X38496000Y-168576200D01*
G75*
G02*
X38169800Y-168250000I0J326200D01*
G01*
X38169800Y-167550000D01*
G75*
G02*
X38496000Y-167223800I326200J0D01*
G01*
G37*
G36*
G01*
X44412000Y-158721200D02*
X44112000Y-158721200D01*
G75*
G02*
X43885800Y-158495000I0J226200D01*
G01*
X43885800Y-157470000D01*
G75*
G02*
X44112000Y-157243800I226200J0D01*
G01*
X44412000Y-157243800D01*
G75*
G02*
X44638200Y-157470000I0J-226200D01*
G01*
X44638200Y-158495000D01*
G75*
G02*
X44412000Y-158721200I-226200J0D01*
G01*
G37*
G36*
G01*
X45362000Y-158721200D02*
X45062000Y-158721200D01*
G75*
G02*
X44835800Y-158495000I0J226200D01*
G01*
X44835800Y-157470000D01*
G75*
G02*
X45062000Y-157243800I226200J0D01*
G01*
X45362000Y-157243800D01*
G75*
G02*
X45588200Y-157470000I0J-226200D01*
G01*
X45588200Y-158495000D01*
G75*
G02*
X45362000Y-158721200I-226200J0D01*
G01*
G37*
G36*
G01*
X46312000Y-158721200D02*
X46012000Y-158721200D01*
G75*
G02*
X45785800Y-158495000I0J226200D01*
G01*
X45785800Y-157470000D01*
G75*
G02*
X46012000Y-157243800I226200J0D01*
G01*
X46312000Y-157243800D01*
G75*
G02*
X46538200Y-157470000I0J-226200D01*
G01*
X46538200Y-158495000D01*
G75*
G02*
X46312000Y-158721200I-226200J0D01*
G01*
G37*
G36*
G01*
X46312000Y-156446200D02*
X46012000Y-156446200D01*
G75*
G02*
X45785800Y-156220000I0J226200D01*
G01*
X45785800Y-155195000D01*
G75*
G02*
X46012000Y-154968800I226200J0D01*
G01*
X46312000Y-154968800D01*
G75*
G02*
X46538200Y-155195000I0J-226200D01*
G01*
X46538200Y-156220000D01*
G75*
G02*
X46312000Y-156446200I-226200J0D01*
G01*
G37*
G36*
G01*
X45362000Y-156446200D02*
X45062000Y-156446200D01*
G75*
G02*
X44835800Y-156220000I0J226200D01*
G01*
X44835800Y-155195000D01*
G75*
G02*
X45062000Y-154968800I226200J0D01*
G01*
X45362000Y-154968800D01*
G75*
G02*
X45588200Y-155195000I0J-226200D01*
G01*
X45588200Y-156220000D01*
G75*
G02*
X45362000Y-156446200I-226200J0D01*
G01*
G37*
G36*
G01*
X44412000Y-156446200D02*
X44112000Y-156446200D01*
G75*
G02*
X43885800Y-156220000I0J226200D01*
G01*
X43885800Y-155195000D01*
G75*
G02*
X44112000Y-154968800I226200J0D01*
G01*
X44412000Y-154968800D01*
G75*
G02*
X44638200Y-155195000I0J-226200D01*
G01*
X44638200Y-156220000D01*
G75*
G02*
X44412000Y-156446200I-226200J0D01*
G01*
G37*
G36*
G01*
X46701000Y-168419200D02*
X45501000Y-168419200D01*
G75*
G02*
X45424800Y-168343000I0J76200D01*
G01*
X45424800Y-167443000D01*
G75*
G02*
X45501000Y-167366800I76200J0D01*
G01*
X46701000Y-167366800D01*
G75*
G02*
X46777200Y-167443000I0J-76200D01*
G01*
X46777200Y-168343000D01*
G75*
G02*
X46701000Y-168419200I-76200J0D01*
G01*
G37*
G36*
G01*
X46701000Y-165119200D02*
X45501000Y-165119200D01*
G75*
G02*
X45424800Y-165043000I0J76200D01*
G01*
X45424800Y-164143000D01*
G75*
G02*
X45501000Y-164066800I76200J0D01*
G01*
X46701000Y-164066800D01*
G75*
G02*
X46777200Y-164143000I0J-76200D01*
G01*
X46777200Y-165043000D01*
G75*
G02*
X46701000Y-165119200I-76200J0D01*
G01*
G37*
G36*
G01*
X53398000Y-171599800D02*
X54298000Y-171599800D01*
G75*
G02*
X54624200Y-171926000I0J-326200D01*
G01*
X54624200Y-172451000D01*
G75*
G02*
X54298000Y-172777200I-326200J0D01*
G01*
X53398000Y-172777200D01*
G75*
G02*
X53071800Y-172451000I0J326200D01*
G01*
X53071800Y-171926000D01*
G75*
G02*
X53398000Y-171599800I326200J0D01*
G01*
G37*
G36*
G01*
X53398000Y-173424800D02*
X54298000Y-173424800D01*
G75*
G02*
X54624200Y-173751000I0J-326200D01*
G01*
X54624200Y-174276000D01*
G75*
G02*
X54298000Y-174602200I-326200J0D01*
G01*
X53398000Y-174602200D01*
G75*
G02*
X53071800Y-174276000I0J326200D01*
G01*
X53071800Y-173751000D01*
G75*
G02*
X53398000Y-173424800I326200J0D01*
G01*
G37*
G36*
G01*
X50604000Y-171599800D02*
X51504000Y-171599800D01*
G75*
G02*
X51830200Y-171926000I0J-326200D01*
G01*
X51830200Y-172451000D01*
G75*
G02*
X51504000Y-172777200I-326200J0D01*
G01*
X50604000Y-172777200D01*
G75*
G02*
X50277800Y-172451000I0J326200D01*
G01*
X50277800Y-171926000D01*
G75*
G02*
X50604000Y-171599800I326200J0D01*
G01*
G37*
G36*
G01*
X50604000Y-173424800D02*
X51504000Y-173424800D01*
G75*
G02*
X51830200Y-173751000I0J-326200D01*
G01*
X51830200Y-174276000D01*
G75*
G02*
X51504000Y-174602200I-326200J0D01*
G01*
X50604000Y-174602200D01*
G75*
G02*
X50277800Y-174276000I0J326200D01*
G01*
X50277800Y-173751000D01*
G75*
G02*
X50604000Y-173424800I326200J0D01*
G01*
G37*
G36*
G01*
X59023800Y-171981000D02*
X59023800Y-171681000D01*
G75*
G02*
X59250000Y-171454800I226200J0D01*
G01*
X60550000Y-171454800D01*
G75*
G02*
X60776200Y-171681000I0J-226200D01*
G01*
X60776200Y-171981000D01*
G75*
G02*
X60550000Y-172207200I-226200J0D01*
G01*
X59250000Y-172207200D01*
G75*
G02*
X59023800Y-171981000I0J226200D01*
G01*
G37*
G36*
G01*
X59023800Y-173251000D02*
X59023800Y-172951000D01*
G75*
G02*
X59250000Y-172724800I226200J0D01*
G01*
X60550000Y-172724800D01*
G75*
G02*
X60776200Y-172951000I0J-226200D01*
G01*
X60776200Y-173251000D01*
G75*
G02*
X60550000Y-173477200I-226200J0D01*
G01*
X59250000Y-173477200D01*
G75*
G02*
X59023800Y-173251000I0J226200D01*
G01*
G37*
G36*
G01*
X59023800Y-174521000D02*
X59023800Y-174221000D01*
G75*
G02*
X59250000Y-173994800I226200J0D01*
G01*
X60550000Y-173994800D01*
G75*
G02*
X60776200Y-174221000I0J-226200D01*
G01*
X60776200Y-174521000D01*
G75*
G02*
X60550000Y-174747200I-226200J0D01*
G01*
X59250000Y-174747200D01*
G75*
G02*
X59023800Y-174521000I0J226200D01*
G01*
G37*
G36*
G01*
X59023800Y-175791000D02*
X59023800Y-175491000D01*
G75*
G02*
X59250000Y-175264800I226200J0D01*
G01*
X60550000Y-175264800D01*
G75*
G02*
X60776200Y-175491000I0J-226200D01*
G01*
X60776200Y-175791000D01*
G75*
G02*
X60550000Y-176017200I-226200J0D01*
G01*
X59250000Y-176017200D01*
G75*
G02*
X59023800Y-175791000I0J226200D01*
G01*
G37*
G36*
G01*
X66223800Y-175791000D02*
X66223800Y-175491000D01*
G75*
G02*
X66450000Y-175264800I226200J0D01*
G01*
X67750000Y-175264800D01*
G75*
G02*
X67976200Y-175491000I0J-226200D01*
G01*
X67976200Y-175791000D01*
G75*
G02*
X67750000Y-176017200I-226200J0D01*
G01*
X66450000Y-176017200D01*
G75*
G02*
X66223800Y-175791000I0J226200D01*
G01*
G37*
G36*
G01*
X66223800Y-174521000D02*
X66223800Y-174221000D01*
G75*
G02*
X66450000Y-173994800I226200J0D01*
G01*
X67750000Y-173994800D01*
G75*
G02*
X67976200Y-174221000I0J-226200D01*
G01*
X67976200Y-174521000D01*
G75*
G02*
X67750000Y-174747200I-226200J0D01*
G01*
X66450000Y-174747200D01*
G75*
G02*
X66223800Y-174521000I0J226200D01*
G01*
G37*
G36*
G01*
X66223800Y-173251000D02*
X66223800Y-172951000D01*
G75*
G02*
X66450000Y-172724800I226200J0D01*
G01*
X67750000Y-172724800D01*
G75*
G02*
X67976200Y-172951000I0J-226200D01*
G01*
X67976200Y-173251000D01*
G75*
G02*
X67750000Y-173477200I-226200J0D01*
G01*
X66450000Y-173477200D01*
G75*
G02*
X66223800Y-173251000I0J226200D01*
G01*
G37*
G36*
G01*
X66223800Y-171981000D02*
X66223800Y-171681000D01*
G75*
G02*
X66450000Y-171454800I226200J0D01*
G01*
X67750000Y-171454800D01*
G75*
G02*
X67976200Y-171681000I0J-226200D01*
G01*
X67976200Y-171981000D01*
G75*
G02*
X67750000Y-172207200I-226200J0D01*
G01*
X66450000Y-172207200D01*
G75*
G02*
X66223800Y-171981000I0J226200D01*
G01*
G37*
G36*
G01*
X66951800Y-155390000D02*
X66951800Y-154490000D01*
G75*
G02*
X67278000Y-154163800I326200J0D01*
G01*
X67803000Y-154163800D01*
G75*
G02*
X68129200Y-154490000I0J-326200D01*
G01*
X68129200Y-155390000D01*
G75*
G02*
X67803000Y-155716200I-326200J0D01*
G01*
X67278000Y-155716200D01*
G75*
G02*
X66951800Y-155390000I0J326200D01*
G01*
G37*
G36*
G01*
X68776800Y-155390000D02*
X68776800Y-154490000D01*
G75*
G02*
X69103000Y-154163800I326200J0D01*
G01*
X69628000Y-154163800D01*
G75*
G02*
X69954200Y-154490000I0J-326200D01*
G01*
X69954200Y-155390000D01*
G75*
G02*
X69628000Y-155716200I-326200J0D01*
G01*
X69103000Y-155716200D01*
G75*
G02*
X68776800Y-155390000I0J326200D01*
G01*
G37*
G36*
G01*
X54160000Y-155744800D02*
X55060000Y-155744800D01*
G75*
G02*
X55386200Y-156071000I0J-326200D01*
G01*
X55386200Y-156596000D01*
G75*
G02*
X55060000Y-156922200I-326200J0D01*
G01*
X54160000Y-156922200D01*
G75*
G02*
X53833800Y-156596000I0J326200D01*
G01*
X53833800Y-156071000D01*
G75*
G02*
X54160000Y-155744800I326200J0D01*
G01*
G37*
G36*
G01*
X54160000Y-157569800D02*
X55060000Y-157569800D01*
G75*
G02*
X55386200Y-157896000I0J-326200D01*
G01*
X55386200Y-158421000D01*
G75*
G02*
X55060000Y-158747200I-326200J0D01*
G01*
X54160000Y-158747200D01*
G75*
G02*
X53833800Y-158421000I0J326200D01*
G01*
X53833800Y-157896000D01*
G75*
G02*
X54160000Y-157569800I326200J0D01*
G01*
G37*
G36*
G01*
X69979200Y-159037000D02*
X69979200Y-159987000D01*
G75*
G02*
X69653000Y-160313200I-326200J0D01*
G01*
X69153000Y-160313200D01*
G75*
G02*
X68826800Y-159987000I0J326200D01*
G01*
X68826800Y-159037000D01*
G75*
G02*
X69153000Y-158710800I326200J0D01*
G01*
X69653000Y-158710800D01*
G75*
G02*
X69979200Y-159037000I0J-326200D01*
G01*
G37*
G36*
G01*
X68079200Y-159037000D02*
X68079200Y-159987000D01*
G75*
G02*
X67753000Y-160313200I-326200J0D01*
G01*
X67253000Y-160313200D01*
G75*
G02*
X66926800Y-159987000I0J326200D01*
G01*
X66926800Y-159037000D01*
G75*
G02*
X67253000Y-158710800I326200J0D01*
G01*
X67753000Y-158710800D01*
G75*
G02*
X68079200Y-159037000I0J-326200D01*
G01*
G37*
G36*
G01*
X58315800Y-163772000D02*
X58315800Y-162872000D01*
G75*
G02*
X58642000Y-162545800I326200J0D01*
G01*
X59167000Y-162545800D01*
G75*
G02*
X59493200Y-162872000I0J-326200D01*
G01*
X59493200Y-163772000D01*
G75*
G02*
X59167000Y-164098200I-326200J0D01*
G01*
X58642000Y-164098200D01*
G75*
G02*
X58315800Y-163772000I0J326200D01*
G01*
G37*
G36*
G01*
X60140800Y-163772000D02*
X60140800Y-162872000D01*
G75*
G02*
X60467000Y-162545800I326200J0D01*
G01*
X60992000Y-162545800D01*
G75*
G02*
X61318200Y-162872000I0J-326200D01*
G01*
X61318200Y-163772000D01*
G75*
G02*
X60992000Y-164098200I-326200J0D01*
G01*
X60467000Y-164098200D01*
G75*
G02*
X60140800Y-163772000I0J326200D01*
G01*
G37*
M02*
