M48
INCH,TZ
T1C0.0157
%
G90
G05
T1
X15300Y-60300
X15300Y-60700
X15300Y-61100
X15300Y-61500
X15750Y-60300
X15750Y-60700
X15750Y-61100
X15750Y-61500
X15900Y-67550
X15900Y-67950
X15900Y-68350
X15900Y-68750
X15900Y-69150
X16100Y-60500
X16450Y-60300
X16450Y-60700
X16500Y-66900
X16500Y-67300
X16500Y-67700
X16950Y-62650
X17700Y-63350
X17700Y-63750
X17700Y-64150
X18200Y-63350
X18200Y-63750
X18700Y-63350
X18700Y-63750
X18700Y-64150
X19550Y-67500
X21750Y-67500
X22250Y-61200
X22900Y-69450
X23900Y-61400
X24300Y-61400
X24300Y-68650
X24700Y-68650
X26050Y-60350
X26050Y-62800
X26450Y-60350
X26850Y-60350
X27250Y-60350
X27650Y-60350
X28650Y-67300
X29050Y-67300
X29100Y-69600
X29250Y-60700
X29350Y-69250
X29600Y-64900
X29600Y-69600
X29700Y-60700
X29750Y-67500
X29750Y-67900
X29750Y-68300
X29750Y-68700
X29850Y-69250
X30021Y-64879
X30150Y-69600
X30350Y-69250
X30375Y-66525
X30550Y-64700
X30650Y-66800
X30850Y-69650
X30978Y-64400
X31450Y-69700
X31550Y-60750
X31550Y-61150
X31750Y-64400
X31900Y-69650
T0
M30
