G04 #@! TF.GenerationSoftware,KiCad,Pcbnew,6.0.2+dfsg-1*
G04 #@! TF.CreationDate,2023-09-18T08:20:45-06:00*
G04 #@! TF.ProjectId,ckt-dingdong-flash,636b742d-6469-46e6-9764-6f6e672d666c,rev?*
G04 #@! TF.SameCoordinates,Original*
G04 #@! TF.FileFunction,Copper,L2,Bot*
G04 #@! TF.FilePolarity,Positive*
%FSLAX46Y46*%
G04 Gerber Fmt 4.6, Leading zero omitted, Abs format (unit mm)*
G04 Created by KiCad (PCBNEW 6.0.2+dfsg-1) date 2023-09-18 08:20:45*
%MOMM*%
%LPD*%
G01*
G04 APERTURE LIST*
G04 #@! TA.AperFunction,ViaPad*
%ADD10C,0.800000*%
G04 #@! TD*
G04 #@! TA.AperFunction,Conductor*
%ADD11C,0.254000*%
G04 #@! TD*
G04 #@! TA.AperFunction,Conductor*
%ADD12C,0.250000*%
G04 #@! TD*
G04 #@! TA.AperFunction,Conductor*
%ADD13C,0.508000*%
G04 #@! TD*
G04 APERTURE END LIST*
G04 #@! TA.AperFunction,SMDPad,CuDef*
G36*
G01*
X59800000Y-156685000D02*
X59800000Y-157935000D01*
G75*
G02*
X59175000Y-158560000I-625000J0D01*
G01*
X57925000Y-158560000D01*
G75*
G02*
X57300000Y-157935000I0J625000D01*
G01*
X57300000Y-156685000D01*
G75*
G02*
X57925000Y-156060000I625000J0D01*
G01*
X59175000Y-156060000D01*
G75*
G02*
X59800000Y-156685000I0J-625000D01*
G01*
G37*
G04 #@! TD.AperFunction*
G04 #@! TA.AperFunction,SMDPad,CuDef*
G36*
G01*
X44300000Y-156685000D02*
X44300000Y-157935000D01*
G75*
G02*
X43675000Y-158560000I-625000J0D01*
G01*
X42425000Y-158560000D01*
G75*
G02*
X41800000Y-157935000I0J625000D01*
G01*
X41800000Y-156685000D01*
G75*
G02*
X42425000Y-156060000I625000J0D01*
G01*
X43675000Y-156060000D01*
G75*
G02*
X44300000Y-156685000I0J-625000D01*
G01*
G37*
G04 #@! TD.AperFunction*
D10*
X77851000Y-169672000D03*
X41910000Y-171958000D03*
X49657000Y-171450000D03*
X41910000Y-170942000D03*
X47498000Y-160909000D03*
X66167000Y-159512000D03*
X55245000Y-171450000D03*
X47498000Y-162941000D03*
X44958000Y-160909000D03*
X44958000Y-162941000D03*
X80137000Y-155321000D03*
X46228000Y-161925000D03*
X61722000Y-155956000D03*
X61722000Y-174371000D03*
X46228000Y-160909000D03*
X80137000Y-154305000D03*
X73787000Y-170942000D03*
X41910000Y-169926000D03*
X47498000Y-161925000D03*
X62738000Y-174371000D03*
X72771000Y-170942000D03*
X77152500Y-168973500D03*
X44958000Y-161925000D03*
X60706000Y-155956000D03*
X76581000Y-176784000D03*
X41783000Y-153162000D03*
X40894000Y-153670000D03*
X67183000Y-153289000D03*
X77089000Y-175895000D03*
X38862000Y-154178000D03*
X40386000Y-173609000D03*
X38862000Y-153162000D03*
X68199000Y-153289000D03*
X40005000Y-154178000D03*
X75184000Y-176784000D03*
X40005000Y-156210000D03*
X38862000Y-156210000D03*
X40005000Y-155194000D03*
X74549000Y-175895000D03*
X38862000Y-155194000D03*
X41783000Y-154178000D03*
X70231000Y-153289000D03*
X40386000Y-171577000D03*
X58166000Y-176403000D03*
X40005000Y-153162000D03*
X40386000Y-174625000D03*
X75819000Y-175895000D03*
X69215000Y-153289000D03*
X40386000Y-175641000D03*
X66167000Y-153289000D03*
X40386000Y-172593000D03*
X73914000Y-176784000D03*
X81026000Y-176911000D03*
X74295000Y-154178000D03*
X79883000Y-177038000D03*
X75438000Y-154178000D03*
X78359000Y-176911000D03*
X80645000Y-163576000D03*
X75565000Y-171450000D03*
X75184000Y-164846000D03*
X75565000Y-172466000D03*
X76254260Y-164791740D03*
X75565000Y-174498000D03*
X78684000Y-163576000D03*
X75565000Y-173482000D03*
X77597000Y-164338000D03*
X56515000Y-155448000D03*
X43053000Y-159131000D03*
D11*
X74295000Y-154178000D02*
X75438000Y-153035000D01*
X75438000Y-153035000D02*
X80899000Y-153035000D01*
X81915000Y-176022000D02*
X81026000Y-176911000D01*
X81915000Y-154051000D02*
X81915000Y-176022000D01*
X80899000Y-153035000D02*
X81915000Y-154051000D01*
D12*
X75438000Y-154178000D02*
X76127000Y-153489000D01*
D11*
X79883000Y-176149000D02*
X81407000Y-174625000D01*
X81407000Y-154305000D02*
X80591000Y-153489000D01*
X81407000Y-174625000D02*
X81407000Y-154305000D01*
X79883000Y-176921500D02*
X79883000Y-176149000D01*
D12*
X76127000Y-153489000D02*
X80591000Y-153489000D01*
D11*
X80899000Y-164846000D02*
X80645000Y-164592000D01*
X80645000Y-164592000D02*
X80645000Y-163576000D01*
X78359000Y-176911000D02*
X80899000Y-174371000D01*
X80899000Y-174371000D02*
X80899000Y-164846000D01*
X78359000Y-165608000D02*
X75946000Y-165608000D01*
X75946000Y-165608000D02*
X75184000Y-164846000D01*
X78867000Y-166116000D02*
X78359000Y-165608000D01*
X77724000Y-171450000D02*
X78867000Y-170307000D01*
X78867000Y-170307000D02*
X78867000Y-166116000D01*
X75565000Y-171450000D02*
X77724000Y-171450000D01*
X79375000Y-165862000D02*
X78613000Y-165100000D01*
X79375000Y-170942000D02*
X79375000Y-165862000D01*
X76907740Y-164791740D02*
X76254260Y-164791740D01*
X77851000Y-172466000D02*
X79375000Y-170942000D01*
X75565000Y-172466000D02*
X77851000Y-172466000D01*
X78613000Y-165100000D02*
X77216000Y-165100000D01*
X77216000Y-165100000D02*
X76907740Y-164791740D01*
X80391000Y-172212000D02*
X78105000Y-174498000D01*
X80391000Y-165283000D02*
X80391000Y-172212000D01*
X78684000Y-163576000D02*
X80391000Y-165283000D01*
X78105000Y-174498000D02*
X75565000Y-174498000D01*
X78359000Y-164338000D02*
X77597000Y-164338000D01*
X79883000Y-171577000D02*
X77978000Y-173482000D01*
X78613000Y-164592000D02*
X78359000Y-164338000D01*
X78867000Y-164592000D02*
X79883000Y-165608000D01*
X79883000Y-165608000D02*
X79883000Y-171577000D01*
X77978000Y-173482000D02*
X75565000Y-173482000D01*
X78867000Y-164592000D02*
X78613000Y-164592000D01*
D13*
X58377000Y-157310000D02*
X56515000Y-155448000D01*
X58550000Y-157310000D02*
X58377000Y-157310000D01*
D11*
X43050000Y-159128000D02*
X43053000Y-159131000D01*
D13*
X43050000Y-157310000D02*
X43050000Y-159128000D01*
G04 #@! TA.AperFunction,Conductor*
G36*
X80448439Y-153887713D02*
G01*
X80460443Y-153897965D01*
X80996035Y-154433558D01*
X81024261Y-154488956D01*
X81025500Y-154504693D01*
X81025500Y-162870253D01*
X81006287Y-162929384D01*
X80955987Y-162965929D01*
X80888851Y-162964172D01*
X80886627Y-162963318D01*
X80881274Y-162960484D01*
X80875400Y-162959009D01*
X80875396Y-162959007D01*
X80804454Y-162941188D01*
X80727633Y-162921892D01*
X80721576Y-162921860D01*
X80721574Y-162921860D01*
X80644450Y-162921456D01*
X80569221Y-162921062D01*
X80563324Y-162922478D01*
X80563322Y-162922478D01*
X80534557Y-162929384D01*
X80415184Y-162958043D01*
X80409798Y-162960823D01*
X80409795Y-162960824D01*
X80279802Y-163027919D01*
X80274414Y-163030700D01*
X80155039Y-163134838D01*
X80063950Y-163264444D01*
X80006406Y-163412037D01*
X79985729Y-163569096D01*
X79986394Y-163575120D01*
X79986394Y-163575124D01*
X79992750Y-163632687D01*
X80003113Y-163726553D01*
X80057553Y-163875319D01*
X80060939Y-163880358D01*
X80075477Y-163901992D01*
X80145908Y-164006805D01*
X80173702Y-164032095D01*
X80230605Y-164083873D01*
X80261410Y-164137879D01*
X80263500Y-164158280D01*
X80263500Y-164373107D01*
X80244287Y-164432238D01*
X80193987Y-164468783D01*
X80131813Y-164468783D01*
X80091765Y-164444242D01*
X79365520Y-163717997D01*
X79337294Y-163662599D01*
X79337059Y-163632691D01*
X79343162Y-163589807D01*
X79343307Y-163576000D01*
X79324276Y-163418733D01*
X79268280Y-163270546D01*
X79178553Y-163139992D01*
X79060275Y-163034611D01*
X78920274Y-162960484D01*
X78766633Y-162921892D01*
X78760576Y-162921860D01*
X78760574Y-162921860D01*
X78683450Y-162921456D01*
X78608221Y-162921062D01*
X78602324Y-162922478D01*
X78602322Y-162922478D01*
X78573557Y-162929384D01*
X78454184Y-162958043D01*
X78448798Y-162960823D01*
X78448795Y-162960824D01*
X78318802Y-163027919D01*
X78313414Y-163030700D01*
X78194039Y-163134838D01*
X78102950Y-163264444D01*
X78045406Y-163412037D01*
X78024729Y-163569096D01*
X78025394Y-163575120D01*
X78025394Y-163575125D01*
X78033751Y-163650818D01*
X78021143Y-163711700D01*
X77975157Y-163753544D01*
X77913358Y-163760367D01*
X77886685Y-163750764D01*
X77838636Y-163725323D01*
X77833274Y-163722484D01*
X77679633Y-163683892D01*
X77673576Y-163683860D01*
X77673574Y-163683860D01*
X77596450Y-163683456D01*
X77521221Y-163683062D01*
X77515324Y-163684478D01*
X77515322Y-163684478D01*
X77401935Y-163711700D01*
X77367184Y-163720043D01*
X77361798Y-163722823D01*
X77361795Y-163722824D01*
X77231802Y-163789919D01*
X77226414Y-163792700D01*
X77221844Y-163796687D01*
X77131707Y-163875319D01*
X77107039Y-163896838D01*
X77015950Y-164026444D01*
X76958406Y-164174037D01*
X76941216Y-164304611D01*
X76938844Y-164322628D01*
X76912078Y-164378745D01*
X76857438Y-164408412D01*
X76795796Y-164400297D01*
X76756199Y-164366478D01*
X76752251Y-164360734D01*
X76752250Y-164360733D01*
X76748813Y-164355732D01*
X76630535Y-164250351D01*
X76593013Y-164230484D01*
X76495896Y-164179063D01*
X76490534Y-164176224D01*
X76336893Y-164137632D01*
X76330836Y-164137600D01*
X76330834Y-164137600D01*
X76253710Y-164137196D01*
X76178481Y-164136802D01*
X76172584Y-164138218D01*
X76172582Y-164138218D01*
X76046945Y-164168381D01*
X76024444Y-164173783D01*
X76019058Y-164176563D01*
X76019055Y-164176564D01*
X75889062Y-164243659D01*
X75883674Y-164246440D01*
X75764299Y-164350578D01*
X75762793Y-164352720D01*
X75710112Y-164383137D01*
X75648278Y-164376640D01*
X75622272Y-164359848D01*
X75613124Y-164351697D01*
X75560275Y-164304611D01*
X75420274Y-164230484D01*
X75266633Y-164191892D01*
X75260576Y-164191860D01*
X75260574Y-164191860D01*
X75183450Y-164191456D01*
X75108221Y-164191062D01*
X75102324Y-164192478D01*
X75102322Y-164192478D01*
X74960082Y-164226627D01*
X74954184Y-164228043D01*
X74948798Y-164230823D01*
X74948795Y-164230824D01*
X74818802Y-164297919D01*
X74813414Y-164300700D01*
X74694039Y-164404838D01*
X74602950Y-164534444D01*
X74545406Y-164682037D01*
X74524729Y-164839096D01*
X74525394Y-164845120D01*
X74525394Y-164845124D01*
X74533421Y-164917825D01*
X74542113Y-164996553D01*
X74596553Y-165145319D01*
X74684908Y-165276805D01*
X74802076Y-165383419D01*
X74941293Y-165459008D01*
X74947163Y-165460548D01*
X75088655Y-165497668D01*
X75088656Y-165497668D01*
X75094522Y-165499207D01*
X75166639Y-165500340D01*
X75246851Y-165501600D01*
X75246853Y-165501600D01*
X75247552Y-165501611D01*
X75247553Y-165501611D01*
X75252916Y-165501695D01*
X75252899Y-165502747D01*
X75308103Y-165514476D01*
X75328945Y-165530467D01*
X75639870Y-165841392D01*
X75653248Y-165857957D01*
X75659929Y-165868304D01*
X75666459Y-165873452D01*
X75687648Y-165890156D01*
X75693597Y-165895442D01*
X75695713Y-165897235D01*
X75698649Y-165900171D01*
X75714934Y-165911809D01*
X75718710Y-165914644D01*
X75759670Y-165946934D01*
X75767004Y-165949509D01*
X75769518Y-165950815D01*
X75775843Y-165955335D01*
X75783808Y-165957717D01*
X75783810Y-165957718D01*
X75825790Y-165970272D01*
X75830291Y-165971734D01*
X75843465Y-165976361D01*
X75873532Y-165986920D01*
X75873536Y-165986921D01*
X75879502Y-165989016D01*
X75885091Y-165989500D01*
X75887256Y-165989500D01*
X75888505Y-165989554D01*
X75890959Y-165989762D01*
X75897524Y-165991725D01*
X75905830Y-165991399D01*
X75905833Y-165991399D01*
X75952172Y-165989578D01*
X75956121Y-165989500D01*
X78159308Y-165989500D01*
X78218439Y-166008713D01*
X78230443Y-166018965D01*
X78456035Y-166244558D01*
X78484261Y-166299956D01*
X78485500Y-166315693D01*
X78485500Y-170107308D01*
X78466287Y-170166439D01*
X78456035Y-170178443D01*
X77595442Y-171039035D01*
X77540044Y-171067261D01*
X77524307Y-171068500D01*
X76149943Y-171068500D01*
X76090812Y-171049287D01*
X76067039Y-171024884D01*
X76059553Y-171013992D01*
X75941275Y-170908611D01*
X75801274Y-170834484D01*
X75647633Y-170795892D01*
X75641576Y-170795860D01*
X75641574Y-170795860D01*
X75564450Y-170795456D01*
X75489221Y-170795062D01*
X75483324Y-170796478D01*
X75483322Y-170796478D01*
X75341082Y-170830627D01*
X75335184Y-170832043D01*
X75329798Y-170834823D01*
X75329795Y-170834824D01*
X75199802Y-170901919D01*
X75194414Y-170904700D01*
X75075039Y-171008838D01*
X74983950Y-171138444D01*
X74926406Y-171286037D01*
X74905729Y-171443096D01*
X74906394Y-171449120D01*
X74906394Y-171449124D01*
X74914421Y-171521824D01*
X74923113Y-171600553D01*
X74925197Y-171606247D01*
X74964626Y-171713993D01*
X74977553Y-171749319D01*
X74980939Y-171754358D01*
X75035075Y-171834920D01*
X75065908Y-171880805D01*
X75070395Y-171884888D01*
X75074358Y-171889479D01*
X75072919Y-171890721D01*
X75099534Y-171937368D01*
X75092719Y-171999168D01*
X75077168Y-172022981D01*
X75075039Y-172024838D01*
X74983950Y-172154444D01*
X74926406Y-172302037D01*
X74905729Y-172459096D01*
X74906394Y-172465120D01*
X74906394Y-172465124D01*
X74914421Y-172537825D01*
X74923113Y-172616553D01*
X74925197Y-172622247D01*
X74964626Y-172729993D01*
X74977553Y-172765319D01*
X74980939Y-172770358D01*
X75035075Y-172850920D01*
X75065908Y-172896805D01*
X75070395Y-172900888D01*
X75074358Y-172905479D01*
X75072919Y-172906721D01*
X75099534Y-172953368D01*
X75092719Y-173015168D01*
X75077168Y-173038981D01*
X75075039Y-173040838D01*
X74983950Y-173170444D01*
X74926406Y-173318037D01*
X74905729Y-173475096D01*
X74906394Y-173481120D01*
X74906394Y-173481124D01*
X74914421Y-173553824D01*
X74923113Y-173632553D01*
X74977553Y-173781319D01*
X74980939Y-173786358D01*
X75035075Y-173866920D01*
X75065908Y-173912805D01*
X75070395Y-173916888D01*
X75074358Y-173921479D01*
X75072919Y-173922721D01*
X75099534Y-173969368D01*
X75092719Y-174031168D01*
X75077168Y-174054981D01*
X75075039Y-174056838D01*
X74983950Y-174186444D01*
X74926406Y-174334037D01*
X74905729Y-174491096D01*
X74906394Y-174497120D01*
X74906394Y-174497124D01*
X74914421Y-174569825D01*
X74923113Y-174648553D01*
X74925197Y-174654247D01*
X74957978Y-174743828D01*
X74960256Y-174805961D01*
X74925578Y-174857566D01*
X74863505Y-174879000D01*
X41502600Y-174879000D01*
X41443469Y-174859787D01*
X41406924Y-174809487D01*
X41402000Y-174778400D01*
X41402000Y-168275000D01*
X63241024Y-168275000D01*
X63246000Y-168300017D01*
X63260737Y-168374106D01*
X63316876Y-168458124D01*
X63400894Y-168514263D01*
X63410610Y-168516196D01*
X63410611Y-168516196D01*
X63490282Y-168532043D01*
X63500000Y-168533976D01*
X63509718Y-168532043D01*
X63515299Y-168530933D01*
X63534924Y-168529000D01*
X68545076Y-168529000D01*
X68564701Y-168530933D01*
X68580000Y-168533976D01*
X68589718Y-168532043D01*
X68669389Y-168516196D01*
X68669390Y-168516196D01*
X68679106Y-168514263D01*
X68763124Y-168458124D01*
X68819263Y-168374106D01*
X68834000Y-168300017D01*
X68838976Y-168275000D01*
X68835933Y-168259701D01*
X68834000Y-168240076D01*
X68834000Y-161959924D01*
X68835933Y-161940299D01*
X68837043Y-161934718D01*
X68838976Y-161925000D01*
X68819263Y-161825894D01*
X68763124Y-161741876D01*
X68679106Y-161685737D01*
X68669390Y-161683804D01*
X68669389Y-161683804D01*
X68605017Y-161671000D01*
X68589718Y-161667957D01*
X68580000Y-161666024D01*
X68570282Y-161667957D01*
X68564701Y-161669067D01*
X68545076Y-161671000D01*
X63534924Y-161671000D01*
X63515299Y-161669067D01*
X63509718Y-161667957D01*
X63500000Y-161666024D01*
X63490282Y-161667957D01*
X63474983Y-161671000D01*
X63410615Y-161683803D01*
X63410613Y-161683804D01*
X63400894Y-161685737D01*
X63316876Y-161741876D01*
X63260737Y-161825894D01*
X63241024Y-161925000D01*
X63242957Y-161934718D01*
X63244067Y-161940299D01*
X63246000Y-161959924D01*
X63246000Y-168240076D01*
X63244067Y-168259701D01*
X63241024Y-168275000D01*
X41402000Y-168275000D01*
X41402000Y-160247930D01*
X70692633Y-160247930D01*
X70693256Y-160252000D01*
X70693256Y-160252003D01*
X70698647Y-160287233D01*
X70728498Y-160482314D01*
X70802164Y-160707693D01*
X70911650Y-160918014D01*
X70914123Y-160921308D01*
X70914127Y-160921314D01*
X71051537Y-161104327D01*
X71054017Y-161107630D01*
X71056997Y-161110478D01*
X71056999Y-161110480D01*
X71222458Y-161268596D01*
X71222462Y-161268599D01*
X71225441Y-161271446D01*
X71228849Y-161273771D01*
X71228853Y-161273774D01*
X71260852Y-161295602D01*
X71421319Y-161405065D01*
X71425063Y-161406803D01*
X71425065Y-161406804D01*
X71461676Y-161423798D01*
X71636391Y-161504898D01*
X71864879Y-161568264D01*
X71868985Y-161568703D01*
X71868986Y-161568703D01*
X71904737Y-161572524D01*
X72058447Y-161588950D01*
X72196110Y-161588950D01*
X72372315Y-161574463D01*
X72376316Y-161573458D01*
X72376322Y-161573457D01*
X72488396Y-161545306D01*
X72602284Y-161516699D01*
X72819730Y-161422151D01*
X72858131Y-161397308D01*
X73015346Y-161295602D01*
X73015350Y-161295599D01*
X73018814Y-161293358D01*
X73021863Y-161290584D01*
X73021869Y-161290579D01*
X73191140Y-161136553D01*
X73194190Y-161133778D01*
X73341147Y-160947698D01*
X73455739Y-160740114D01*
X73534889Y-160516602D01*
X73576471Y-160283165D01*
X73576901Y-160247930D01*
X76407633Y-160247930D01*
X76408256Y-160252000D01*
X76408256Y-160252003D01*
X76413647Y-160287233D01*
X76443498Y-160482314D01*
X76517164Y-160707693D01*
X76626650Y-160918014D01*
X76629123Y-160921308D01*
X76629127Y-160921314D01*
X76766537Y-161104327D01*
X76769017Y-161107630D01*
X76771997Y-161110478D01*
X76771999Y-161110480D01*
X76937458Y-161268596D01*
X76937462Y-161268599D01*
X76940441Y-161271446D01*
X76943849Y-161273771D01*
X76943853Y-161273774D01*
X76975852Y-161295602D01*
X77136319Y-161405065D01*
X77140063Y-161406803D01*
X77140065Y-161406804D01*
X77176676Y-161423798D01*
X77351391Y-161504898D01*
X77579879Y-161568264D01*
X77583985Y-161568703D01*
X77583986Y-161568703D01*
X77619737Y-161572524D01*
X77773447Y-161588950D01*
X77911110Y-161588950D01*
X78087315Y-161574463D01*
X78091316Y-161573458D01*
X78091322Y-161573457D01*
X78203396Y-161545306D01*
X78317284Y-161516699D01*
X78534730Y-161422151D01*
X78573131Y-161397308D01*
X78730346Y-161295602D01*
X78730350Y-161295599D01*
X78733814Y-161293358D01*
X78736863Y-161290584D01*
X78736869Y-161290579D01*
X78906140Y-161136553D01*
X78909190Y-161133778D01*
X79056147Y-160947698D01*
X79170739Y-160740114D01*
X79249889Y-160516602D01*
X79291471Y-160283165D01*
X79294367Y-160046070D01*
X79288976Y-160010835D01*
X79259126Y-159815765D01*
X79258502Y-159811686D01*
X79184836Y-159586307D01*
X79075350Y-159375986D01*
X79072877Y-159372692D01*
X79072873Y-159372686D01*
X78935463Y-159189673D01*
X78932983Y-159186370D01*
X78902717Y-159157447D01*
X78764542Y-159025404D01*
X78764538Y-159025401D01*
X78761559Y-159022554D01*
X78758151Y-159020229D01*
X78758147Y-159020226D01*
X78569095Y-158891264D01*
X78565681Y-158888935D01*
X78533705Y-158874092D01*
X78399512Y-158811802D01*
X78350609Y-158789102D01*
X78122121Y-158725736D01*
X78118015Y-158725297D01*
X78118014Y-158725297D01*
X78060951Y-158719199D01*
X77928553Y-158705050D01*
X77790890Y-158705050D01*
X77614685Y-158719537D01*
X77610684Y-158720542D01*
X77610678Y-158720543D01*
X77498604Y-158748694D01*
X77384716Y-158777301D01*
X77167270Y-158871849D01*
X77163802Y-158874092D01*
X77163803Y-158874092D01*
X76971654Y-158998398D01*
X76971650Y-158998401D01*
X76968186Y-159000642D01*
X76965137Y-159003416D01*
X76965131Y-159003421D01*
X76839207Y-159118004D01*
X76792810Y-159160222D01*
X76790256Y-159163456D01*
X76686532Y-159294794D01*
X76645853Y-159346302D01*
X76531261Y-159553886D01*
X76452111Y-159777398D01*
X76410529Y-160010835D01*
X76407633Y-160247930D01*
X73576901Y-160247930D01*
X73579367Y-160046070D01*
X73573976Y-160010835D01*
X73544126Y-159815765D01*
X73543502Y-159811686D01*
X73469836Y-159586307D01*
X73360350Y-159375986D01*
X73357877Y-159372692D01*
X73357873Y-159372686D01*
X73220463Y-159189673D01*
X73217983Y-159186370D01*
X73187717Y-159157447D01*
X73049542Y-159025404D01*
X73049538Y-159025401D01*
X73046559Y-159022554D01*
X73043151Y-159020229D01*
X73043147Y-159020226D01*
X72854095Y-158891264D01*
X72850681Y-158888935D01*
X72818705Y-158874092D01*
X72684512Y-158811802D01*
X72635609Y-158789102D01*
X72407121Y-158725736D01*
X72403015Y-158725297D01*
X72403014Y-158725297D01*
X72345951Y-158719199D01*
X72213553Y-158705050D01*
X72075890Y-158705050D01*
X71899685Y-158719537D01*
X71895684Y-158720542D01*
X71895678Y-158720543D01*
X71783604Y-158748694D01*
X71669716Y-158777301D01*
X71452270Y-158871849D01*
X71448802Y-158874092D01*
X71448803Y-158874092D01*
X71256654Y-158998398D01*
X71256650Y-158998401D01*
X71253186Y-159000642D01*
X71250137Y-159003416D01*
X71250131Y-159003421D01*
X71124207Y-159118004D01*
X71077810Y-159160222D01*
X71075256Y-159163456D01*
X70971532Y-159294794D01*
X70930853Y-159346302D01*
X70816261Y-159553886D01*
X70737111Y-159777398D01*
X70695529Y-160010835D01*
X70692633Y-160247930D01*
X41402000Y-160247930D01*
X41402000Y-158279722D01*
X41421213Y-158220591D01*
X41471513Y-158184046D01*
X41533687Y-158184046D01*
X41583987Y-158220591D01*
X41594632Y-158240528D01*
X41594728Y-158240480D01*
X41597148Y-158245355D01*
X41651601Y-158355049D01*
X41679694Y-158411643D01*
X41683105Y-158415885D01*
X41683106Y-158415887D01*
X41742147Y-158489318D01*
X41799433Y-158560567D01*
X41803678Y-158563980D01*
X41927858Y-158663824D01*
X41948357Y-158680306D01*
X41953234Y-158682727D01*
X42114640Y-158762850D01*
X42114644Y-158762851D01*
X42119520Y-158765272D01*
X42304934Y-158811501D01*
X42334009Y-158813483D01*
X42391696Y-158836673D01*
X42424736Y-158889342D01*
X42420896Y-158950391D01*
X42414406Y-158967037D01*
X42393729Y-159124096D01*
X42394394Y-159130120D01*
X42394394Y-159130124D01*
X42400290Y-159183520D01*
X42411113Y-159281553D01*
X42416267Y-159295637D01*
X42444463Y-159372686D01*
X42465553Y-159430319D01*
X42468939Y-159435358D01*
X42548587Y-159553886D01*
X42553908Y-159561805D01*
X42671076Y-159668419D01*
X42676403Y-159671311D01*
X42676404Y-159671312D01*
X42697704Y-159682877D01*
X42810293Y-159744008D01*
X42816163Y-159745548D01*
X42957655Y-159782668D01*
X42957656Y-159782668D01*
X42963522Y-159784207D01*
X43035716Y-159785341D01*
X43115852Y-159786600D01*
X43115854Y-159786600D01*
X43121916Y-159786695D01*
X43127827Y-159785341D01*
X43127829Y-159785341D01*
X43270422Y-159752683D01*
X43270425Y-159752682D01*
X43276332Y-159751329D01*
X43417855Y-159680151D01*
X43527732Y-159586307D01*
X43533705Y-159581206D01*
X43533707Y-159581204D01*
X43538314Y-159577269D01*
X43569554Y-159533794D01*
X43627218Y-159453547D01*
X43627220Y-159453544D01*
X43630755Y-159448624D01*
X43658485Y-159379645D01*
X43668125Y-159355663D01*
X43689842Y-159301641D01*
X43712162Y-159144807D01*
X43712307Y-159131000D01*
X43705556Y-159075205D01*
X43694005Y-158979755D01*
X43694004Y-158979753D01*
X43693276Y-158973733D01*
X43691134Y-158968065D01*
X43691133Y-158968060D01*
X43683951Y-158949056D01*
X43681021Y-158886950D01*
X43715155Y-158834984D01*
X43771214Y-158813127D01*
X43795066Y-158811501D01*
X43980480Y-158765272D01*
X43985356Y-158762851D01*
X43985360Y-158762850D01*
X44146766Y-158682727D01*
X44151643Y-158680306D01*
X44172143Y-158663824D01*
X44296322Y-158563980D01*
X44300567Y-158560567D01*
X44357853Y-158489318D01*
X44416894Y-158415887D01*
X44416895Y-158415885D01*
X44420306Y-158411643D01*
X44447530Y-158356800D01*
X44502850Y-158245360D01*
X44502852Y-158245355D01*
X44505272Y-158240480D01*
X44551501Y-158055066D01*
X44554500Y-158011074D01*
X44554500Y-156608926D01*
X44551501Y-156564934D01*
X44505272Y-156379520D01*
X44501777Y-156372478D01*
X44422727Y-156213234D01*
X44420306Y-156208357D01*
X44300567Y-156059433D01*
X44241404Y-156011864D01*
X44155887Y-155943106D01*
X44155885Y-155943105D01*
X44151643Y-155939694D01*
X44043677Y-155886099D01*
X43985360Y-155857150D01*
X43985356Y-155857149D01*
X43980480Y-155854728D01*
X43795066Y-155808499D01*
X43760629Y-155806151D01*
X43752792Y-155805617D01*
X43752789Y-155805617D01*
X43751074Y-155805500D01*
X42348926Y-155805500D01*
X42347211Y-155805617D01*
X42347208Y-155805617D01*
X42339371Y-155806151D01*
X42304934Y-155808499D01*
X42119520Y-155854728D01*
X42114644Y-155857149D01*
X42114640Y-155857150D01*
X42056323Y-155886099D01*
X41948357Y-155939694D01*
X41944115Y-155943105D01*
X41944113Y-155943106D01*
X41858596Y-156011864D01*
X41799433Y-156059433D01*
X41679694Y-156208357D01*
X41594728Y-156379520D01*
X41593820Y-156379069D01*
X41558566Y-156423873D01*
X41498741Y-156440804D01*
X41440391Y-156419337D01*
X41405802Y-156367672D01*
X41402000Y-156340278D01*
X41402000Y-155040600D01*
X41421213Y-154981469D01*
X41471513Y-154944924D01*
X41502600Y-154940000D01*
X55878350Y-154940000D01*
X55937481Y-154959213D01*
X55974026Y-155009513D01*
X55974026Y-155071687D01*
X55960655Y-155098446D01*
X55937439Y-155131478D01*
X55937435Y-155131485D01*
X55933950Y-155136444D01*
X55876406Y-155284037D01*
X55855729Y-155441096D01*
X55856394Y-155447120D01*
X55856394Y-155447124D01*
X55864421Y-155519824D01*
X55873113Y-155598553D01*
X55927553Y-155747319D01*
X55930939Y-155752358D01*
X55996868Y-155850470D01*
X56015908Y-155878805D01*
X56133076Y-155985419D01*
X56272293Y-156061008D01*
X56278163Y-156062548D01*
X56425522Y-156101207D01*
X56425101Y-156102811D01*
X56475907Y-156128034D01*
X57016035Y-156668162D01*
X57044261Y-156723560D01*
X57045500Y-156739297D01*
X57045500Y-158011074D01*
X57048499Y-158055066D01*
X57094728Y-158240480D01*
X57097148Y-158245355D01*
X57097150Y-158245360D01*
X57152470Y-158356800D01*
X57179694Y-158411643D01*
X57183105Y-158415885D01*
X57183106Y-158415887D01*
X57242147Y-158489318D01*
X57299433Y-158560567D01*
X57303678Y-158563980D01*
X57427858Y-158663824D01*
X57448357Y-158680306D01*
X57453234Y-158682727D01*
X57614640Y-158762850D01*
X57614644Y-158762851D01*
X57619520Y-158765272D01*
X57804934Y-158811501D01*
X57839371Y-158813849D01*
X57847208Y-158814383D01*
X57847211Y-158814383D01*
X57848926Y-158814500D01*
X59251074Y-158814500D01*
X59252789Y-158814383D01*
X59252792Y-158814383D01*
X59260629Y-158813849D01*
X59295066Y-158811501D01*
X59480480Y-158765272D01*
X59485356Y-158762851D01*
X59485360Y-158762850D01*
X59646766Y-158682727D01*
X59651643Y-158680306D01*
X59672143Y-158663824D01*
X79002201Y-158663824D01*
X79031810Y-158836141D01*
X79100267Y-158997024D01*
X79203898Y-159137843D01*
X79208351Y-159141626D01*
X79332690Y-159247260D01*
X79332693Y-159247262D01*
X79337146Y-159251045D01*
X79342354Y-159253704D01*
X79342355Y-159253705D01*
X79487658Y-159327901D01*
X79487660Y-159327902D01*
X79492862Y-159330558D01*
X79498534Y-159331946D01*
X79498537Y-159331947D01*
X79557203Y-159346302D01*
X79662693Y-159372115D01*
X79667164Y-159372392D01*
X79667168Y-159372393D01*
X79671800Y-159372680D01*
X79673734Y-159372800D01*
X79799779Y-159372800D01*
X79802684Y-159372461D01*
X79802689Y-159372461D01*
X79923859Y-159358334D01*
X79923860Y-159358334D01*
X79929665Y-159357657D01*
X79935157Y-159355663D01*
X79935159Y-159355663D01*
X80011642Y-159327901D01*
X80094015Y-159298001D01*
X80098905Y-159294795D01*
X80098907Y-159294794D01*
X80235339Y-159205345D01*
X80235341Y-159205343D01*
X80240233Y-159202136D01*
X80360475Y-159075205D01*
X80392409Y-159020226D01*
X80445356Y-158929072D01*
X80445357Y-158929071D01*
X80448292Y-158924017D01*
X80481770Y-158813483D01*
X80497280Y-158762273D01*
X80497281Y-158762270D01*
X80498973Y-158756682D01*
X80500825Y-158726840D01*
X80509437Y-158588011D01*
X80509799Y-158582176D01*
X80480190Y-158409859D01*
X80411733Y-158248976D01*
X80308102Y-158108157D01*
X80250670Y-158059365D01*
X80179310Y-157998740D01*
X80179307Y-157998738D01*
X80174854Y-157994955D01*
X80137040Y-157975646D01*
X80024342Y-157918099D01*
X80024340Y-157918098D01*
X80019138Y-157915442D01*
X80013466Y-157914054D01*
X80013463Y-157914053D01*
X79916541Y-157890337D01*
X79849307Y-157873885D01*
X79844836Y-157873608D01*
X79844832Y-157873607D01*
X79839829Y-157873297D01*
X79839830Y-157873297D01*
X79838266Y-157873200D01*
X79712221Y-157873200D01*
X79709316Y-157873539D01*
X79709311Y-157873539D01*
X79588141Y-157887666D01*
X79588140Y-157887666D01*
X79582335Y-157888343D01*
X79576843Y-157890337D01*
X79576841Y-157890337D01*
X79543545Y-157902423D01*
X79417985Y-157947999D01*
X79413095Y-157951205D01*
X79413093Y-157951206D01*
X79276661Y-158040655D01*
X79276659Y-158040657D01*
X79271767Y-158043864D01*
X79151525Y-158170795D01*
X79148590Y-158175848D01*
X79085773Y-158283996D01*
X79063708Y-158321983D01*
X79053286Y-158356393D01*
X79036553Y-158411643D01*
X79013027Y-158489318D01*
X79002201Y-158663824D01*
X59672143Y-158663824D01*
X59796322Y-158563980D01*
X59800567Y-158560567D01*
X59857853Y-158489318D01*
X59916894Y-158415887D01*
X59916895Y-158415885D01*
X59920306Y-158411643D01*
X59947530Y-158356800D01*
X60002850Y-158245360D01*
X60002852Y-158245355D01*
X60005272Y-158240480D01*
X60051501Y-158055066D01*
X60054500Y-158011074D01*
X60054500Y-157647824D01*
X71382201Y-157647824D01*
X71411810Y-157820141D01*
X71480267Y-157981024D01*
X71583898Y-158121843D01*
X71588351Y-158125626D01*
X71712690Y-158231260D01*
X71712693Y-158231262D01*
X71717146Y-158235045D01*
X71722354Y-158237704D01*
X71722355Y-158237705D01*
X71867658Y-158311901D01*
X71867660Y-158311902D01*
X71872862Y-158314558D01*
X71878534Y-158315946D01*
X71878537Y-158315947D01*
X71958554Y-158335527D01*
X72042693Y-158356115D01*
X72047164Y-158356392D01*
X72047168Y-158356393D01*
X72051800Y-158356680D01*
X72053734Y-158356800D01*
X72179779Y-158356800D01*
X72182684Y-158356461D01*
X72182689Y-158356461D01*
X72303859Y-158342334D01*
X72303860Y-158342334D01*
X72309665Y-158341657D01*
X72315157Y-158339663D01*
X72315159Y-158339663D01*
X72391642Y-158311901D01*
X72474015Y-158282001D01*
X72478905Y-158278795D01*
X72478907Y-158278794D01*
X72615339Y-158189345D01*
X72615341Y-158189343D01*
X72620233Y-158186136D01*
X72740475Y-158059205D01*
X72805069Y-157947999D01*
X72825356Y-157913072D01*
X72825357Y-157913071D01*
X72828292Y-157908017D01*
X72878973Y-157740682D01*
X72889799Y-157566176D01*
X72860190Y-157393859D01*
X72791733Y-157232976D01*
X72688102Y-157092157D01*
X72635475Y-157047447D01*
X72559310Y-156982740D01*
X72559307Y-156982738D01*
X72554854Y-156978955D01*
X72517040Y-156959646D01*
X72404342Y-156902099D01*
X72404340Y-156902098D01*
X72399138Y-156899442D01*
X72393466Y-156898054D01*
X72393463Y-156898053D01*
X72296541Y-156874337D01*
X72229307Y-156857885D01*
X72224836Y-156857608D01*
X72224832Y-156857607D01*
X72219829Y-156857297D01*
X72219830Y-156857297D01*
X72218266Y-156857200D01*
X72092221Y-156857200D01*
X72089316Y-156857539D01*
X72089311Y-156857539D01*
X71968141Y-156871666D01*
X71968140Y-156871666D01*
X71962335Y-156872343D01*
X71956843Y-156874337D01*
X71956841Y-156874337D01*
X71923545Y-156886423D01*
X71797985Y-156931999D01*
X71793095Y-156935205D01*
X71793093Y-156935206D01*
X71656661Y-157024655D01*
X71656659Y-157024657D01*
X71651767Y-157027864D01*
X71531525Y-157154795D01*
X71528590Y-157159848D01*
X71465773Y-157267996D01*
X71443708Y-157305983D01*
X71393027Y-157473318D01*
X71382201Y-157647824D01*
X60054500Y-157647824D01*
X60054500Y-156631824D01*
X79002201Y-156631824D01*
X79031810Y-156804141D01*
X79100267Y-156965024D01*
X79203898Y-157105843D01*
X79208351Y-157109626D01*
X79332690Y-157215260D01*
X79332693Y-157215262D01*
X79337146Y-157219045D01*
X79342354Y-157221704D01*
X79342355Y-157221705D01*
X79487658Y-157295901D01*
X79487660Y-157295902D01*
X79492862Y-157298558D01*
X79498534Y-157299946D01*
X79498537Y-157299947D01*
X79578554Y-157319527D01*
X79662693Y-157340115D01*
X79667164Y-157340392D01*
X79667168Y-157340393D01*
X79671800Y-157340680D01*
X79673734Y-157340800D01*
X79799779Y-157340800D01*
X79802684Y-157340461D01*
X79802689Y-157340461D01*
X79923859Y-157326334D01*
X79923860Y-157326334D01*
X79929665Y-157325657D01*
X79935157Y-157323663D01*
X79935159Y-157323663D01*
X80011642Y-157295901D01*
X80094015Y-157266001D01*
X80098905Y-157262795D01*
X80098907Y-157262794D01*
X80235339Y-157173345D01*
X80235341Y-157173343D01*
X80240233Y-157170136D01*
X80360475Y-157043205D01*
X80425069Y-156931999D01*
X80445356Y-156897072D01*
X80445357Y-156897071D01*
X80448292Y-156892017D01*
X80498973Y-156724682D01*
X80500652Y-156697627D01*
X80509437Y-156556011D01*
X80509799Y-156550176D01*
X80480190Y-156377859D01*
X80411733Y-156216976D01*
X80308102Y-156076157D01*
X80286862Y-156058112D01*
X80179310Y-155966740D01*
X80179307Y-155966738D01*
X80174854Y-155962955D01*
X80169645Y-155960295D01*
X80024342Y-155886099D01*
X80024340Y-155886098D01*
X80019138Y-155883442D01*
X80013466Y-155882054D01*
X80013463Y-155882053D01*
X79911690Y-155857150D01*
X79849307Y-155841885D01*
X79844836Y-155841608D01*
X79844832Y-155841607D01*
X79839829Y-155841297D01*
X79839830Y-155841297D01*
X79838266Y-155841200D01*
X79712221Y-155841200D01*
X79709316Y-155841539D01*
X79709311Y-155841539D01*
X79588141Y-155855666D01*
X79588140Y-155855666D01*
X79582335Y-155856343D01*
X79576843Y-155858337D01*
X79576841Y-155858337D01*
X79534330Y-155873768D01*
X79417985Y-155915999D01*
X79413095Y-155919205D01*
X79413093Y-155919206D01*
X79276661Y-156008655D01*
X79276659Y-156008657D01*
X79271767Y-156011864D01*
X79151525Y-156138795D01*
X79148590Y-156143848D01*
X79109830Y-156210579D01*
X79063708Y-156289983D01*
X79062014Y-156295577D01*
X79018029Y-156440804D01*
X79013027Y-156457318D01*
X79012665Y-156463147D01*
X79012665Y-156463149D01*
X79009834Y-156508780D01*
X79002201Y-156631824D01*
X60054500Y-156631824D01*
X60054500Y-156608926D01*
X60051501Y-156564934D01*
X60005272Y-156379520D01*
X60001777Y-156372478D01*
X59922727Y-156213234D01*
X59920306Y-156208357D01*
X59800567Y-156059433D01*
X59741404Y-156011864D01*
X59655887Y-155943106D01*
X59655885Y-155943105D01*
X59651643Y-155939694D01*
X59543677Y-155886099D01*
X59485360Y-155857150D01*
X59485356Y-155857149D01*
X59480480Y-155854728D01*
X59295066Y-155808499D01*
X59260629Y-155806151D01*
X59252792Y-155805617D01*
X59252789Y-155805617D01*
X59251074Y-155805500D01*
X57848926Y-155805500D01*
X57847211Y-155805617D01*
X57847208Y-155805617D01*
X57839371Y-155806151D01*
X57804934Y-155808499D01*
X57691822Y-155836701D01*
X57629801Y-155832364D01*
X57596351Y-155810224D01*
X57190635Y-155404508D01*
X57161899Y-155345460D01*
X57156005Y-155296755D01*
X57156005Y-155296753D01*
X57155276Y-155290733D01*
X57122187Y-155203165D01*
X57101425Y-155148222D01*
X57101424Y-155148221D01*
X57099280Y-155142546D01*
X57068376Y-155097580D01*
X57050717Y-155037966D01*
X57071472Y-154979358D01*
X57122711Y-154944143D01*
X57151283Y-154940000D01*
X70593581Y-154940000D01*
X70652712Y-154959213D01*
X70689257Y-155009513D01*
X70694173Y-155041828D01*
X70692683Y-155163803D01*
X70692633Y-155167930D01*
X70693256Y-155172000D01*
X70693256Y-155172003D01*
X70698647Y-155207233D01*
X70728498Y-155402314D01*
X70802164Y-155627693D01*
X70804073Y-155631360D01*
X70896844Y-155809571D01*
X70911650Y-155838014D01*
X70914123Y-155841308D01*
X70914127Y-155841314D01*
X71019261Y-155981339D01*
X71054017Y-156027630D01*
X71056997Y-156030478D01*
X71056999Y-156030480D01*
X71222458Y-156188596D01*
X71222462Y-156188599D01*
X71225441Y-156191446D01*
X71228849Y-156193771D01*
X71228853Y-156193774D01*
X71270750Y-156222354D01*
X71421319Y-156325065D01*
X71425063Y-156326803D01*
X71425065Y-156326804D01*
X71461676Y-156343798D01*
X71636391Y-156424898D01*
X71864879Y-156488264D01*
X71868985Y-156488703D01*
X71868986Y-156488703D01*
X71904737Y-156492524D01*
X72058447Y-156508950D01*
X72196110Y-156508950D01*
X72372315Y-156494463D01*
X72376316Y-156493458D01*
X72376322Y-156493457D01*
X72496982Y-156463149D01*
X72602284Y-156436699D01*
X72819730Y-156342151D01*
X72900370Y-156289983D01*
X73015346Y-156215602D01*
X73015350Y-156215599D01*
X73018814Y-156213358D01*
X73021863Y-156210584D01*
X73021869Y-156210579D01*
X73191140Y-156056553D01*
X73194190Y-156053778D01*
X73251399Y-155981339D01*
X73338594Y-155870931D01*
X73338595Y-155870929D01*
X73341147Y-155867698D01*
X73404818Y-155752358D01*
X73453745Y-155663727D01*
X73453747Y-155663722D01*
X73455739Y-155660114D01*
X73534889Y-155436602D01*
X73576471Y-155203165D01*
X73576521Y-155199037D01*
X73576522Y-155199031D01*
X73578472Y-155039371D01*
X73598405Y-154980479D01*
X73649148Y-154944551D01*
X73679064Y-154940000D01*
X76308581Y-154940000D01*
X76367712Y-154959213D01*
X76404257Y-155009513D01*
X76409173Y-155041828D01*
X76407874Y-155148222D01*
X76407633Y-155167930D01*
X76408256Y-155172000D01*
X76408256Y-155172003D01*
X76413647Y-155207233D01*
X76443498Y-155402314D01*
X76517164Y-155627693D01*
X76519073Y-155631360D01*
X76611844Y-155809571D01*
X76626650Y-155838014D01*
X76629123Y-155841308D01*
X76629127Y-155841314D01*
X76734261Y-155981339D01*
X76769017Y-156027630D01*
X76771997Y-156030478D01*
X76771999Y-156030480D01*
X76937458Y-156188596D01*
X76937462Y-156188599D01*
X76940441Y-156191446D01*
X76943849Y-156193771D01*
X76943853Y-156193774D01*
X76985750Y-156222354D01*
X77136319Y-156325065D01*
X77140063Y-156326803D01*
X77140065Y-156326804D01*
X77176676Y-156343798D01*
X77351391Y-156424898D01*
X77579879Y-156488264D01*
X77583985Y-156488703D01*
X77583986Y-156488703D01*
X77619737Y-156492524D01*
X77773447Y-156508950D01*
X77911110Y-156508950D01*
X78087315Y-156494463D01*
X78091316Y-156493458D01*
X78091322Y-156493457D01*
X78211982Y-156463149D01*
X78317284Y-156436699D01*
X78534730Y-156342151D01*
X78615370Y-156289983D01*
X78730346Y-156215602D01*
X78730350Y-156215599D01*
X78733814Y-156213358D01*
X78736863Y-156210584D01*
X78736869Y-156210579D01*
X78906140Y-156056553D01*
X78909190Y-156053778D01*
X78966399Y-155981339D01*
X79053594Y-155870931D01*
X79053595Y-155870929D01*
X79056147Y-155867698D01*
X79119818Y-155752358D01*
X79168745Y-155663727D01*
X79168747Y-155663722D01*
X79170739Y-155660114D01*
X79249889Y-155436602D01*
X79291471Y-155203165D01*
X79291521Y-155199036D01*
X79291522Y-155199030D01*
X79293548Y-155033152D01*
X79313481Y-154974260D01*
X79361247Y-154940000D01*
X79375000Y-154940000D01*
X79375000Y-153969100D01*
X79394213Y-153909969D01*
X79444513Y-153873424D01*
X79475600Y-153868500D01*
X80389308Y-153868500D01*
X80448439Y-153887713D01*
G37*
G04 #@! TD.AperFunction*
G04 #@! TA.AperFunction,Conductor*
G36*
X70808121Y-152674002D02*
G01*
X70854614Y-152727658D01*
X70866000Y-152780000D01*
X70866000Y-154351314D01*
X70850309Y-154412207D01*
X70816261Y-154473886D01*
X70814537Y-154478755D01*
X70814535Y-154478759D01*
X70770872Y-154602060D01*
X70729278Y-154659596D01*
X70663180Y-154685512D01*
X70652099Y-154686000D01*
X40894000Y-154686000D01*
X40894000Y-175260000D01*
X78233000Y-175260000D01*
X78301121Y-175280002D01*
X78347614Y-175333658D01*
X78359000Y-175386000D01*
X78359000Y-176138538D01*
X78338998Y-176206659D01*
X78285342Y-176253152D01*
X78262414Y-176261057D01*
X78136564Y-176291271D01*
X78136562Y-176291272D01*
X78129184Y-176293043D01*
X77988414Y-176365700D01*
X77869039Y-176469838D01*
X77777950Y-176599444D01*
X77720406Y-176747037D01*
X77719414Y-176754570D01*
X77719414Y-176754571D01*
X77712888Y-176804146D01*
X77699729Y-176904096D01*
X77717113Y-177061553D01*
X77771553Y-177210319D01*
X77858402Y-177339564D01*
X77858403Y-177339566D01*
X77859908Y-177341805D01*
X77859535Y-177342056D01*
X77886913Y-177402301D01*
X77876678Y-177472556D01*
X77830085Y-177526125D01*
X77762162Y-177546000D01*
X38480000Y-177546000D01*
X38411879Y-177525998D01*
X38365386Y-177472342D01*
X38354000Y-177420000D01*
X38354000Y-152780000D01*
X38374002Y-152711879D01*
X38427658Y-152665386D01*
X38480000Y-152654000D01*
X70740000Y-152654000D01*
X70808121Y-152674002D01*
G37*
G04 #@! TD.AperFunction*
M02*
