G04 #@! TF.GenerationSoftware,KiCad,Pcbnew,6.0.2+dfsg-1*
G04 #@! TF.CreationDate,2023-09-18T08:20:45-06:00*
G04 #@! TF.ProjectId,ckt-dingdong-flash,636b742d-6469-46e6-9764-6f6e672d666c,rev?*
G04 #@! TF.SameCoordinates,Original*
G04 #@! TF.FileFunction,Paste,Top*
G04 #@! TF.FilePolarity,Positive*
%FSLAX46Y46*%
G04 Gerber Fmt 4.6, Leading zero omitted, Abs format (unit mm)*
G04 Created by KiCad (PCBNEW 6.0.2+dfsg-1) date 2023-09-18 08:20:45*
%MOMM*%
%LPD*%
G01*
G04 APERTURE LIST*
%ADD10R,0.550000X1.300000*%
%ADD11R,3.429000X1.193800*%
%ADD12R,3.454400X1.193800*%
%ADD13R,1.200000X0.900000*%
G04 APERTURE END LIST*
G36*
G01*
X41054000Y-155395000D02*
X42004000Y-155395000D01*
G75*
G02*
X42254000Y-155645000I0J-250000D01*
G01*
X42254000Y-156145000D01*
G75*
G02*
X42004000Y-156395000I-250000J0D01*
G01*
X41054000Y-156395000D01*
G75*
G02*
X40804000Y-156145000I0J250000D01*
G01*
X40804000Y-155645000D01*
G75*
G02*
X41054000Y-155395000I250000J0D01*
G01*
G37*
G36*
G01*
X41054000Y-157295000D02*
X42004000Y-157295000D01*
G75*
G02*
X42254000Y-157545000I0J-250000D01*
G01*
X42254000Y-158045000D01*
G75*
G02*
X42004000Y-158295000I-250000J0D01*
G01*
X41054000Y-158295000D01*
G75*
G02*
X40804000Y-158045000I0J250000D01*
G01*
X40804000Y-157545000D01*
G75*
G02*
X41054000Y-157295000I250000J0D01*
G01*
G37*
G36*
G01*
X41349000Y-175989000D02*
X41349000Y-175039000D01*
G75*
G02*
X41599000Y-174789000I250000J0D01*
G01*
X42099000Y-174789000D01*
G75*
G02*
X42349000Y-175039000I0J-250000D01*
G01*
X42349000Y-175989000D01*
G75*
G02*
X42099000Y-176239000I-250000J0D01*
G01*
X41599000Y-176239000D01*
G75*
G02*
X41349000Y-175989000I0J250000D01*
G01*
G37*
G36*
G01*
X43249000Y-175989000D02*
X43249000Y-175039000D01*
G75*
G02*
X43499000Y-174789000I250000J0D01*
G01*
X43999000Y-174789000D01*
G75*
G02*
X44249000Y-175039000I0J-250000D01*
G01*
X44249000Y-175989000D01*
G75*
G02*
X43999000Y-176239000I-250000J0D01*
G01*
X43499000Y-176239000D01*
G75*
G02*
X43249000Y-175989000I0J250000D01*
G01*
G37*
G36*
G01*
X48862000Y-174551000D02*
X47912000Y-174551000D01*
G75*
G02*
X47662000Y-174301000I0J250000D01*
G01*
X47662000Y-173801000D01*
G75*
G02*
X47912000Y-173551000I250000J0D01*
G01*
X48862000Y-173551000D01*
G75*
G02*
X49112000Y-173801000I0J-250000D01*
G01*
X49112000Y-174301000D01*
G75*
G02*
X48862000Y-174551000I-250000J0D01*
G01*
G37*
G36*
G01*
X48862000Y-172651000D02*
X47912000Y-172651000D01*
G75*
G02*
X47662000Y-172401000I0J250000D01*
G01*
X47662000Y-171901000D01*
G75*
G02*
X47912000Y-171651000I250000J0D01*
G01*
X48862000Y-171651000D01*
G75*
G02*
X49112000Y-171901000I0J-250000D01*
G01*
X49112000Y-172401000D01*
G75*
G02*
X48862000Y-172651000I-250000J0D01*
G01*
G37*
G36*
G01*
X81367000Y-175872000D02*
X81367000Y-176172000D01*
G75*
G02*
X81217000Y-176322000I-150000J0D01*
G01*
X79467000Y-176322000D01*
G75*
G02*
X79317000Y-176172000I0J150000D01*
G01*
X79317000Y-175872000D01*
G75*
G02*
X79467000Y-175722000I150000J0D01*
G01*
X81217000Y-175722000D01*
G75*
G02*
X81367000Y-175872000I0J-150000D01*
G01*
G37*
G36*
G01*
X81367000Y-174602000D02*
X81367000Y-174902000D01*
G75*
G02*
X81217000Y-175052000I-150000J0D01*
G01*
X79467000Y-175052000D01*
G75*
G02*
X79317000Y-174902000I0J150000D01*
G01*
X79317000Y-174602000D01*
G75*
G02*
X79467000Y-174452000I150000J0D01*
G01*
X81217000Y-174452000D01*
G75*
G02*
X81367000Y-174602000I0J-150000D01*
G01*
G37*
G36*
G01*
X81367000Y-173332000D02*
X81367000Y-173632000D01*
G75*
G02*
X81217000Y-173782000I-150000J0D01*
G01*
X79467000Y-173782000D01*
G75*
G02*
X79317000Y-173632000I0J150000D01*
G01*
X79317000Y-173332000D01*
G75*
G02*
X79467000Y-173182000I150000J0D01*
G01*
X81217000Y-173182000D01*
G75*
G02*
X81367000Y-173332000I0J-150000D01*
G01*
G37*
G36*
G01*
X81367000Y-172062000D02*
X81367000Y-172362000D01*
G75*
G02*
X81217000Y-172512000I-150000J0D01*
G01*
X79467000Y-172512000D01*
G75*
G02*
X79317000Y-172362000I0J150000D01*
G01*
X79317000Y-172062000D01*
G75*
G02*
X79467000Y-171912000I150000J0D01*
G01*
X81217000Y-171912000D01*
G75*
G02*
X81367000Y-172062000I0J-150000D01*
G01*
G37*
G36*
G01*
X81367000Y-170792000D02*
X81367000Y-171092000D01*
G75*
G02*
X81217000Y-171242000I-150000J0D01*
G01*
X79467000Y-171242000D01*
G75*
G02*
X79317000Y-171092000I0J150000D01*
G01*
X79317000Y-170792000D01*
G75*
G02*
X79467000Y-170642000I150000J0D01*
G01*
X81217000Y-170642000D01*
G75*
G02*
X81367000Y-170792000I0J-150000D01*
G01*
G37*
G36*
G01*
X81367000Y-169522000D02*
X81367000Y-169822000D01*
G75*
G02*
X81217000Y-169972000I-150000J0D01*
G01*
X79467000Y-169972000D01*
G75*
G02*
X79317000Y-169822000I0J150000D01*
G01*
X79317000Y-169522000D01*
G75*
G02*
X79467000Y-169372000I150000J0D01*
G01*
X81217000Y-169372000D01*
G75*
G02*
X81367000Y-169522000I0J-150000D01*
G01*
G37*
G36*
G01*
X81367000Y-168252000D02*
X81367000Y-168552000D01*
G75*
G02*
X81217000Y-168702000I-150000J0D01*
G01*
X79467000Y-168702000D01*
G75*
G02*
X79317000Y-168552000I0J150000D01*
G01*
X79317000Y-168252000D01*
G75*
G02*
X79467000Y-168102000I150000J0D01*
G01*
X81217000Y-168102000D01*
G75*
G02*
X81367000Y-168252000I0J-150000D01*
G01*
G37*
G36*
G01*
X81367000Y-166982000D02*
X81367000Y-167282000D01*
G75*
G02*
X81217000Y-167432000I-150000J0D01*
G01*
X79467000Y-167432000D01*
G75*
G02*
X79317000Y-167282000I0J150000D01*
G01*
X79317000Y-166982000D01*
G75*
G02*
X79467000Y-166832000I150000J0D01*
G01*
X81217000Y-166832000D01*
G75*
G02*
X81367000Y-166982000I0J-150000D01*
G01*
G37*
G36*
G01*
X81367000Y-165712000D02*
X81367000Y-166012000D01*
G75*
G02*
X81217000Y-166162000I-150000J0D01*
G01*
X79467000Y-166162000D01*
G75*
G02*
X79317000Y-166012000I0J150000D01*
G01*
X79317000Y-165712000D01*
G75*
G02*
X79467000Y-165562000I150000J0D01*
G01*
X81217000Y-165562000D01*
G75*
G02*
X81367000Y-165712000I0J-150000D01*
G01*
G37*
G36*
G01*
X81367000Y-164442000D02*
X81367000Y-164742000D01*
G75*
G02*
X81217000Y-164892000I-150000J0D01*
G01*
X79467000Y-164892000D01*
G75*
G02*
X79317000Y-164742000I0J150000D01*
G01*
X79317000Y-164442000D01*
G75*
G02*
X79467000Y-164292000I150000J0D01*
G01*
X81217000Y-164292000D01*
G75*
G02*
X81367000Y-164442000I0J-150000D01*
G01*
G37*
G36*
G01*
X72067000Y-164442000D02*
X72067000Y-164742000D01*
G75*
G02*
X71917000Y-164892000I-150000J0D01*
G01*
X70167000Y-164892000D01*
G75*
G02*
X70017000Y-164742000I0J150000D01*
G01*
X70017000Y-164442000D01*
G75*
G02*
X70167000Y-164292000I150000J0D01*
G01*
X71917000Y-164292000D01*
G75*
G02*
X72067000Y-164442000I0J-150000D01*
G01*
G37*
G36*
G01*
X72067000Y-165712000D02*
X72067000Y-166012000D01*
G75*
G02*
X71917000Y-166162000I-150000J0D01*
G01*
X70167000Y-166162000D01*
G75*
G02*
X70017000Y-166012000I0J150000D01*
G01*
X70017000Y-165712000D01*
G75*
G02*
X70167000Y-165562000I150000J0D01*
G01*
X71917000Y-165562000D01*
G75*
G02*
X72067000Y-165712000I0J-150000D01*
G01*
G37*
G36*
G01*
X72067000Y-166982000D02*
X72067000Y-167282000D01*
G75*
G02*
X71917000Y-167432000I-150000J0D01*
G01*
X70167000Y-167432000D01*
G75*
G02*
X70017000Y-167282000I0J150000D01*
G01*
X70017000Y-166982000D01*
G75*
G02*
X70167000Y-166832000I150000J0D01*
G01*
X71917000Y-166832000D01*
G75*
G02*
X72067000Y-166982000I0J-150000D01*
G01*
G37*
G36*
G01*
X72067000Y-168252000D02*
X72067000Y-168552000D01*
G75*
G02*
X71917000Y-168702000I-150000J0D01*
G01*
X70167000Y-168702000D01*
G75*
G02*
X70017000Y-168552000I0J150000D01*
G01*
X70017000Y-168252000D01*
G75*
G02*
X70167000Y-168102000I150000J0D01*
G01*
X71917000Y-168102000D01*
G75*
G02*
X72067000Y-168252000I0J-150000D01*
G01*
G37*
G36*
G01*
X72067000Y-169522000D02*
X72067000Y-169822000D01*
G75*
G02*
X71917000Y-169972000I-150000J0D01*
G01*
X70167000Y-169972000D01*
G75*
G02*
X70017000Y-169822000I0J150000D01*
G01*
X70017000Y-169522000D01*
G75*
G02*
X70167000Y-169372000I150000J0D01*
G01*
X71917000Y-169372000D01*
G75*
G02*
X72067000Y-169522000I0J-150000D01*
G01*
G37*
G36*
G01*
X72067000Y-170792000D02*
X72067000Y-171092000D01*
G75*
G02*
X71917000Y-171242000I-150000J0D01*
G01*
X70167000Y-171242000D01*
G75*
G02*
X70017000Y-171092000I0J150000D01*
G01*
X70017000Y-170792000D01*
G75*
G02*
X70167000Y-170642000I150000J0D01*
G01*
X71917000Y-170642000D01*
G75*
G02*
X72067000Y-170792000I0J-150000D01*
G01*
G37*
G36*
G01*
X72067000Y-172062000D02*
X72067000Y-172362000D01*
G75*
G02*
X71917000Y-172512000I-150000J0D01*
G01*
X70167000Y-172512000D01*
G75*
G02*
X70017000Y-172362000I0J150000D01*
G01*
X70017000Y-172062000D01*
G75*
G02*
X70167000Y-171912000I150000J0D01*
G01*
X71917000Y-171912000D01*
G75*
G02*
X72067000Y-172062000I0J-150000D01*
G01*
G37*
G36*
G01*
X72067000Y-173332000D02*
X72067000Y-173632000D01*
G75*
G02*
X71917000Y-173782000I-150000J0D01*
G01*
X70167000Y-173782000D01*
G75*
G02*
X70017000Y-173632000I0J150000D01*
G01*
X70017000Y-173332000D01*
G75*
G02*
X70167000Y-173182000I150000J0D01*
G01*
X71917000Y-173182000D01*
G75*
G02*
X72067000Y-173332000I0J-150000D01*
G01*
G37*
G36*
G01*
X72067000Y-174602000D02*
X72067000Y-174902000D01*
G75*
G02*
X71917000Y-175052000I-150000J0D01*
G01*
X70167000Y-175052000D01*
G75*
G02*
X70017000Y-174902000I0J150000D01*
G01*
X70017000Y-174602000D01*
G75*
G02*
X70167000Y-174452000I150000J0D01*
G01*
X71917000Y-174452000D01*
G75*
G02*
X72067000Y-174602000I0J-150000D01*
G01*
G37*
G36*
G01*
X72067000Y-175872000D02*
X72067000Y-176172000D01*
G75*
G02*
X71917000Y-176322000I-150000J0D01*
G01*
X70167000Y-176322000D01*
G75*
G02*
X70017000Y-176172000I0J150000D01*
G01*
X70017000Y-175872000D01*
G75*
G02*
X70167000Y-175722000I150000J0D01*
G01*
X71917000Y-175722000D01*
G75*
G02*
X72067000Y-175872000I0J-150000D01*
G01*
G37*
G36*
G01*
X56990000Y-174551000D02*
X56040000Y-174551000D01*
G75*
G02*
X55790000Y-174301000I0J250000D01*
G01*
X55790000Y-173801000D01*
G75*
G02*
X56040000Y-173551000I250000J0D01*
G01*
X56990000Y-173551000D01*
G75*
G02*
X57240000Y-173801000I0J-250000D01*
G01*
X57240000Y-174301000D01*
G75*
G02*
X56990000Y-174551000I-250000J0D01*
G01*
G37*
G36*
G01*
X56990000Y-172651000D02*
X56040000Y-172651000D01*
G75*
G02*
X55790000Y-172401000I0J250000D01*
G01*
X55790000Y-171901000D01*
G75*
G02*
X56040000Y-171651000I250000J0D01*
G01*
X56990000Y-171651000D01*
G75*
G02*
X57240000Y-171901000I0J-250000D01*
G01*
X57240000Y-172401000D01*
G75*
G02*
X56990000Y-172651000I-250000J0D01*
G01*
G37*
G36*
G01*
X51341000Y-155776000D02*
X52291000Y-155776000D01*
G75*
G02*
X52541000Y-156026000I0J-250000D01*
G01*
X52541000Y-156526000D01*
G75*
G02*
X52291000Y-156776000I-250000J0D01*
G01*
X51341000Y-156776000D01*
G75*
G02*
X51091000Y-156526000I0J250000D01*
G01*
X51091000Y-156026000D01*
G75*
G02*
X51341000Y-155776000I250000J0D01*
G01*
G37*
G36*
G01*
X51341000Y-157676000D02*
X52291000Y-157676000D01*
G75*
G02*
X52541000Y-157926000I0J-250000D01*
G01*
X52541000Y-158426000D01*
G75*
G02*
X52291000Y-158676000I-250000J0D01*
G01*
X51341000Y-158676000D01*
G75*
G02*
X51091000Y-158426000I0J250000D01*
G01*
X51091000Y-157926000D01*
G75*
G02*
X51341000Y-157676000I250000J0D01*
G01*
G37*
D10*
X42061000Y-173354000D03*
G36*
X44486000Y-169404000D02*
G01*
X44486000Y-172004000D01*
X43961000Y-172529000D01*
X43961000Y-174004000D01*
X43161000Y-174004000D01*
X43161000Y-172529000D01*
X42636000Y-172004000D01*
X42636000Y-169404000D01*
X44486000Y-169404000D01*
G37*
X45061000Y-173354000D03*
G36*
G01*
X60734000Y-168333000D02*
X60734000Y-169233000D01*
G75*
G02*
X60484000Y-169483000I-250000J0D01*
G01*
X59959000Y-169483000D01*
G75*
G02*
X59709000Y-169233000I0J250000D01*
G01*
X59709000Y-168333000D01*
G75*
G02*
X59959000Y-168083000I250000J0D01*
G01*
X60484000Y-168083000D01*
G75*
G02*
X60734000Y-168333000I0J-250000D01*
G01*
G37*
G36*
G01*
X58909000Y-168333000D02*
X58909000Y-169233000D01*
G75*
G02*
X58659000Y-169483000I-250000J0D01*
G01*
X58134000Y-169483000D01*
G75*
G02*
X57884000Y-169233000I0J250000D01*
G01*
X57884000Y-168333000D01*
G75*
G02*
X58134000Y-168083000I250000J0D01*
G01*
X58659000Y-168083000D01*
G75*
G02*
X58909000Y-168333000I0J-250000D01*
G01*
G37*
G36*
G01*
X49497000Y-158696000D02*
X48547000Y-158696000D01*
G75*
G02*
X48297000Y-158446000I0J250000D01*
G01*
X48297000Y-157946000D01*
G75*
G02*
X48547000Y-157696000I250000J0D01*
G01*
X49497000Y-157696000D01*
G75*
G02*
X49747000Y-157946000I0J-250000D01*
G01*
X49747000Y-158446000D01*
G75*
G02*
X49497000Y-158696000I-250000J0D01*
G01*
G37*
G36*
G01*
X49497000Y-156796000D02*
X48547000Y-156796000D01*
G75*
G02*
X48297000Y-156546000I0J250000D01*
G01*
X48297000Y-156046000D01*
G75*
G02*
X48547000Y-155796000I250000J0D01*
G01*
X49497000Y-155796000D01*
G75*
G02*
X49747000Y-156046000I0J-250000D01*
G01*
X49747000Y-156546000D01*
G75*
G02*
X49497000Y-156796000I-250000J0D01*
G01*
G37*
D11*
X59397900Y-154686000D03*
D12*
X65557400Y-157226000D03*
D11*
X59397900Y-159766000D03*
G36*
G01*
X52112000Y-169423000D02*
X51012000Y-169423000D01*
G75*
G02*
X50762000Y-169173000I0J250000D01*
G01*
X50762000Y-166173000D01*
G75*
G02*
X51012000Y-165923000I250000J0D01*
G01*
X52112000Y-165923000D01*
G75*
G02*
X52362000Y-166173000I0J-250000D01*
G01*
X52362000Y-169173000D01*
G75*
G02*
X52112000Y-169423000I-250000J0D01*
G01*
G37*
G36*
G01*
X52112000Y-164023000D02*
X51012000Y-164023000D01*
G75*
G02*
X50762000Y-163773000I0J250000D01*
G01*
X50762000Y-160773000D01*
G75*
G02*
X51012000Y-160523000I250000J0D01*
G01*
X52112000Y-160523000D01*
G75*
G02*
X52362000Y-160773000I0J-250000D01*
G01*
X52362000Y-163773000D01*
G75*
G02*
X52112000Y-164023000I-250000J0D01*
G01*
G37*
G36*
G01*
X42396000Y-163300000D02*
X43646000Y-163300000D01*
G75*
G02*
X43796000Y-163450000I0J-150000D01*
G01*
X43796000Y-163750000D01*
G75*
G02*
X43646000Y-163900000I-150000J0D01*
G01*
X42396000Y-163900000D01*
G75*
G02*
X42246000Y-163750000I0J150000D01*
G01*
X42246000Y-163450000D01*
G75*
G02*
X42396000Y-163300000I150000J0D01*
G01*
G37*
G36*
G01*
X42396000Y-164300000D02*
X43646000Y-164300000D01*
G75*
G02*
X43796000Y-164450000I0J-150000D01*
G01*
X43796000Y-164750000D01*
G75*
G02*
X43646000Y-164900000I-150000J0D01*
G01*
X42396000Y-164900000D01*
G75*
G02*
X42246000Y-164750000I0J150000D01*
G01*
X42246000Y-164450000D01*
G75*
G02*
X42396000Y-164300000I150000J0D01*
G01*
G37*
G36*
G01*
X42396000Y-165300000D02*
X43646000Y-165300000D01*
G75*
G02*
X43796000Y-165450000I0J-150000D01*
G01*
X43796000Y-165750000D01*
G75*
G02*
X43646000Y-165900000I-150000J0D01*
G01*
X42396000Y-165900000D01*
G75*
G02*
X42246000Y-165750000I0J150000D01*
G01*
X42246000Y-165450000D01*
G75*
G02*
X42396000Y-165300000I150000J0D01*
G01*
G37*
G36*
G01*
X42396000Y-166300000D02*
X43646000Y-166300000D01*
G75*
G02*
X43796000Y-166450000I0J-150000D01*
G01*
X43796000Y-166750000D01*
G75*
G02*
X43646000Y-166900000I-150000J0D01*
G01*
X42396000Y-166900000D01*
G75*
G02*
X42246000Y-166750000I0J150000D01*
G01*
X42246000Y-166450000D01*
G75*
G02*
X42396000Y-166300000I150000J0D01*
G01*
G37*
G36*
G01*
X38496000Y-161700000D02*
X39796000Y-161700000D01*
G75*
G02*
X40046000Y-161950000I0J-250000D01*
G01*
X40046000Y-162650000D01*
G75*
G02*
X39796000Y-162900000I-250000J0D01*
G01*
X38496000Y-162900000D01*
G75*
G02*
X38246000Y-162650000I0J250000D01*
G01*
X38246000Y-161950000D01*
G75*
G02*
X38496000Y-161700000I250000J0D01*
G01*
G37*
G36*
G01*
X38496000Y-167300000D02*
X39796000Y-167300000D01*
G75*
G02*
X40046000Y-167550000I0J-250000D01*
G01*
X40046000Y-168250000D01*
G75*
G02*
X39796000Y-168500000I-250000J0D01*
G01*
X38496000Y-168500000D01*
G75*
G02*
X38246000Y-168250000I0J250000D01*
G01*
X38246000Y-167550000D01*
G75*
G02*
X38496000Y-167300000I250000J0D01*
G01*
G37*
G36*
G01*
X44412000Y-158645000D02*
X44112000Y-158645000D01*
G75*
G02*
X43962000Y-158495000I0J150000D01*
G01*
X43962000Y-157470000D01*
G75*
G02*
X44112000Y-157320000I150000J0D01*
G01*
X44412000Y-157320000D01*
G75*
G02*
X44562000Y-157470000I0J-150000D01*
G01*
X44562000Y-158495000D01*
G75*
G02*
X44412000Y-158645000I-150000J0D01*
G01*
G37*
G36*
G01*
X45362000Y-158645000D02*
X45062000Y-158645000D01*
G75*
G02*
X44912000Y-158495000I0J150000D01*
G01*
X44912000Y-157470000D01*
G75*
G02*
X45062000Y-157320000I150000J0D01*
G01*
X45362000Y-157320000D01*
G75*
G02*
X45512000Y-157470000I0J-150000D01*
G01*
X45512000Y-158495000D01*
G75*
G02*
X45362000Y-158645000I-150000J0D01*
G01*
G37*
G36*
G01*
X46312000Y-158645000D02*
X46012000Y-158645000D01*
G75*
G02*
X45862000Y-158495000I0J150000D01*
G01*
X45862000Y-157470000D01*
G75*
G02*
X46012000Y-157320000I150000J0D01*
G01*
X46312000Y-157320000D01*
G75*
G02*
X46462000Y-157470000I0J-150000D01*
G01*
X46462000Y-158495000D01*
G75*
G02*
X46312000Y-158645000I-150000J0D01*
G01*
G37*
G36*
G01*
X46312000Y-156370000D02*
X46012000Y-156370000D01*
G75*
G02*
X45862000Y-156220000I0J150000D01*
G01*
X45862000Y-155195000D01*
G75*
G02*
X46012000Y-155045000I150000J0D01*
G01*
X46312000Y-155045000D01*
G75*
G02*
X46462000Y-155195000I0J-150000D01*
G01*
X46462000Y-156220000D01*
G75*
G02*
X46312000Y-156370000I-150000J0D01*
G01*
G37*
G36*
G01*
X45362000Y-156370000D02*
X45062000Y-156370000D01*
G75*
G02*
X44912000Y-156220000I0J150000D01*
G01*
X44912000Y-155195000D01*
G75*
G02*
X45062000Y-155045000I150000J0D01*
G01*
X45362000Y-155045000D01*
G75*
G02*
X45512000Y-155195000I0J-150000D01*
G01*
X45512000Y-156220000D01*
G75*
G02*
X45362000Y-156370000I-150000J0D01*
G01*
G37*
G36*
G01*
X44412000Y-156370000D02*
X44112000Y-156370000D01*
G75*
G02*
X43962000Y-156220000I0J150000D01*
G01*
X43962000Y-155195000D01*
G75*
G02*
X44112000Y-155045000I150000J0D01*
G01*
X44412000Y-155045000D01*
G75*
G02*
X44562000Y-155195000I0J-150000D01*
G01*
X44562000Y-156220000D01*
G75*
G02*
X44412000Y-156370000I-150000J0D01*
G01*
G37*
D13*
X46101000Y-167893000D03*
X46101000Y-164593000D03*
G36*
G01*
X53398000Y-171676000D02*
X54298000Y-171676000D01*
G75*
G02*
X54548000Y-171926000I0J-250000D01*
G01*
X54548000Y-172451000D01*
G75*
G02*
X54298000Y-172701000I-250000J0D01*
G01*
X53398000Y-172701000D01*
G75*
G02*
X53148000Y-172451000I0J250000D01*
G01*
X53148000Y-171926000D01*
G75*
G02*
X53398000Y-171676000I250000J0D01*
G01*
G37*
G36*
G01*
X53398000Y-173501000D02*
X54298000Y-173501000D01*
G75*
G02*
X54548000Y-173751000I0J-250000D01*
G01*
X54548000Y-174276000D01*
G75*
G02*
X54298000Y-174526000I-250000J0D01*
G01*
X53398000Y-174526000D01*
G75*
G02*
X53148000Y-174276000I0J250000D01*
G01*
X53148000Y-173751000D01*
G75*
G02*
X53398000Y-173501000I250000J0D01*
G01*
G37*
G36*
G01*
X50604000Y-171676000D02*
X51504000Y-171676000D01*
G75*
G02*
X51754000Y-171926000I0J-250000D01*
G01*
X51754000Y-172451000D01*
G75*
G02*
X51504000Y-172701000I-250000J0D01*
G01*
X50604000Y-172701000D01*
G75*
G02*
X50354000Y-172451000I0J250000D01*
G01*
X50354000Y-171926000D01*
G75*
G02*
X50604000Y-171676000I250000J0D01*
G01*
G37*
G36*
G01*
X50604000Y-173501000D02*
X51504000Y-173501000D01*
G75*
G02*
X51754000Y-173751000I0J-250000D01*
G01*
X51754000Y-174276000D01*
G75*
G02*
X51504000Y-174526000I-250000J0D01*
G01*
X50604000Y-174526000D01*
G75*
G02*
X50354000Y-174276000I0J250000D01*
G01*
X50354000Y-173751000D01*
G75*
G02*
X50604000Y-173501000I250000J0D01*
G01*
G37*
G36*
G01*
X59100000Y-171981000D02*
X59100000Y-171681000D01*
G75*
G02*
X59250000Y-171531000I150000J0D01*
G01*
X60550000Y-171531000D01*
G75*
G02*
X60700000Y-171681000I0J-150000D01*
G01*
X60700000Y-171981000D01*
G75*
G02*
X60550000Y-172131000I-150000J0D01*
G01*
X59250000Y-172131000D01*
G75*
G02*
X59100000Y-171981000I0J150000D01*
G01*
G37*
G36*
G01*
X59100000Y-173251000D02*
X59100000Y-172951000D01*
G75*
G02*
X59250000Y-172801000I150000J0D01*
G01*
X60550000Y-172801000D01*
G75*
G02*
X60700000Y-172951000I0J-150000D01*
G01*
X60700000Y-173251000D01*
G75*
G02*
X60550000Y-173401000I-150000J0D01*
G01*
X59250000Y-173401000D01*
G75*
G02*
X59100000Y-173251000I0J150000D01*
G01*
G37*
G36*
G01*
X59100000Y-174521000D02*
X59100000Y-174221000D01*
G75*
G02*
X59250000Y-174071000I150000J0D01*
G01*
X60550000Y-174071000D01*
G75*
G02*
X60700000Y-174221000I0J-150000D01*
G01*
X60700000Y-174521000D01*
G75*
G02*
X60550000Y-174671000I-150000J0D01*
G01*
X59250000Y-174671000D01*
G75*
G02*
X59100000Y-174521000I0J150000D01*
G01*
G37*
G36*
G01*
X59100000Y-175791000D02*
X59100000Y-175491000D01*
G75*
G02*
X59250000Y-175341000I150000J0D01*
G01*
X60550000Y-175341000D01*
G75*
G02*
X60700000Y-175491000I0J-150000D01*
G01*
X60700000Y-175791000D01*
G75*
G02*
X60550000Y-175941000I-150000J0D01*
G01*
X59250000Y-175941000D01*
G75*
G02*
X59100000Y-175791000I0J150000D01*
G01*
G37*
G36*
G01*
X66300000Y-175791000D02*
X66300000Y-175491000D01*
G75*
G02*
X66450000Y-175341000I150000J0D01*
G01*
X67750000Y-175341000D01*
G75*
G02*
X67900000Y-175491000I0J-150000D01*
G01*
X67900000Y-175791000D01*
G75*
G02*
X67750000Y-175941000I-150000J0D01*
G01*
X66450000Y-175941000D01*
G75*
G02*
X66300000Y-175791000I0J150000D01*
G01*
G37*
G36*
G01*
X66300000Y-174521000D02*
X66300000Y-174221000D01*
G75*
G02*
X66450000Y-174071000I150000J0D01*
G01*
X67750000Y-174071000D01*
G75*
G02*
X67900000Y-174221000I0J-150000D01*
G01*
X67900000Y-174521000D01*
G75*
G02*
X67750000Y-174671000I-150000J0D01*
G01*
X66450000Y-174671000D01*
G75*
G02*
X66300000Y-174521000I0J150000D01*
G01*
G37*
G36*
G01*
X66300000Y-173251000D02*
X66300000Y-172951000D01*
G75*
G02*
X66450000Y-172801000I150000J0D01*
G01*
X67750000Y-172801000D01*
G75*
G02*
X67900000Y-172951000I0J-150000D01*
G01*
X67900000Y-173251000D01*
G75*
G02*
X67750000Y-173401000I-150000J0D01*
G01*
X66450000Y-173401000D01*
G75*
G02*
X66300000Y-173251000I0J150000D01*
G01*
G37*
G36*
G01*
X66300000Y-171981000D02*
X66300000Y-171681000D01*
G75*
G02*
X66450000Y-171531000I150000J0D01*
G01*
X67750000Y-171531000D01*
G75*
G02*
X67900000Y-171681000I0J-150000D01*
G01*
X67900000Y-171981000D01*
G75*
G02*
X67750000Y-172131000I-150000J0D01*
G01*
X66450000Y-172131000D01*
G75*
G02*
X66300000Y-171981000I0J150000D01*
G01*
G37*
G36*
G01*
X67028000Y-155390000D02*
X67028000Y-154490000D01*
G75*
G02*
X67278000Y-154240000I250000J0D01*
G01*
X67803000Y-154240000D01*
G75*
G02*
X68053000Y-154490000I0J-250000D01*
G01*
X68053000Y-155390000D01*
G75*
G02*
X67803000Y-155640000I-250000J0D01*
G01*
X67278000Y-155640000D01*
G75*
G02*
X67028000Y-155390000I0J250000D01*
G01*
G37*
G36*
G01*
X68853000Y-155390000D02*
X68853000Y-154490000D01*
G75*
G02*
X69103000Y-154240000I250000J0D01*
G01*
X69628000Y-154240000D01*
G75*
G02*
X69878000Y-154490000I0J-250000D01*
G01*
X69878000Y-155390000D01*
G75*
G02*
X69628000Y-155640000I-250000J0D01*
G01*
X69103000Y-155640000D01*
G75*
G02*
X68853000Y-155390000I0J250000D01*
G01*
G37*
G36*
G01*
X54160000Y-155821000D02*
X55060000Y-155821000D01*
G75*
G02*
X55310000Y-156071000I0J-250000D01*
G01*
X55310000Y-156596000D01*
G75*
G02*
X55060000Y-156846000I-250000J0D01*
G01*
X54160000Y-156846000D01*
G75*
G02*
X53910000Y-156596000I0J250000D01*
G01*
X53910000Y-156071000D01*
G75*
G02*
X54160000Y-155821000I250000J0D01*
G01*
G37*
G36*
G01*
X54160000Y-157646000D02*
X55060000Y-157646000D01*
G75*
G02*
X55310000Y-157896000I0J-250000D01*
G01*
X55310000Y-158421000D01*
G75*
G02*
X55060000Y-158671000I-250000J0D01*
G01*
X54160000Y-158671000D01*
G75*
G02*
X53910000Y-158421000I0J250000D01*
G01*
X53910000Y-157896000D01*
G75*
G02*
X54160000Y-157646000I250000J0D01*
G01*
G37*
G36*
G01*
X69903000Y-159037000D02*
X69903000Y-159987000D01*
G75*
G02*
X69653000Y-160237000I-250000J0D01*
G01*
X69153000Y-160237000D01*
G75*
G02*
X68903000Y-159987000I0J250000D01*
G01*
X68903000Y-159037000D01*
G75*
G02*
X69153000Y-158787000I250000J0D01*
G01*
X69653000Y-158787000D01*
G75*
G02*
X69903000Y-159037000I0J-250000D01*
G01*
G37*
G36*
G01*
X68003000Y-159037000D02*
X68003000Y-159987000D01*
G75*
G02*
X67753000Y-160237000I-250000J0D01*
G01*
X67253000Y-160237000D01*
G75*
G02*
X67003000Y-159987000I0J250000D01*
G01*
X67003000Y-159037000D01*
G75*
G02*
X67253000Y-158787000I250000J0D01*
G01*
X67753000Y-158787000D01*
G75*
G02*
X68003000Y-159037000I0J-250000D01*
G01*
G37*
G36*
G01*
X58392000Y-163772000D02*
X58392000Y-162872000D01*
G75*
G02*
X58642000Y-162622000I250000J0D01*
G01*
X59167000Y-162622000D01*
G75*
G02*
X59417000Y-162872000I0J-250000D01*
G01*
X59417000Y-163772000D01*
G75*
G02*
X59167000Y-164022000I-250000J0D01*
G01*
X58642000Y-164022000D01*
G75*
G02*
X58392000Y-163772000I0J250000D01*
G01*
G37*
G36*
G01*
X60217000Y-163772000D02*
X60217000Y-162872000D01*
G75*
G02*
X60467000Y-162622000I250000J0D01*
G01*
X60992000Y-162622000D01*
G75*
G02*
X61242000Y-162872000I0J-250000D01*
G01*
X61242000Y-163772000D01*
G75*
G02*
X60992000Y-164022000I-250000J0D01*
G01*
X60467000Y-164022000D01*
G75*
G02*
X60217000Y-163772000I0J250000D01*
G01*
G37*
M02*
