G04 start of page 12 for group -3984 idx -3984 *
G04 Title: (unknown), fab *
G04 Creator: pcb 4.0.2 *
G04 CreationDate: Wed Jun 16 02:35:33 2021 UTC *
G04 For: railfan *
G04 Format: Gerber/RS-274X *
G04 PCB-Dimensions (mil): 3000.00 5000.00 *
G04 PCB-Coordinate-Origin: lower left *
%MOIN*%
%FSLAX25Y25*%
%LNFAB*%
%ADD59C,0.0065*%
%ADD58C,0.0100*%
%ADD57C,0.0075*%
%ADD56C,0.0060*%
%ADD55R,0.0080X0.0080*%
G54D55*X16200Y483000D02*G75*G03X17800Y483000I800J0D01*G01*
G75*G03X16200Y483000I-800J0D01*G01*
X282200D02*G75*G03X283800Y483000I800J0D01*G01*
G75*G03X282200Y483000I-800J0D01*G01*
X16200Y17000D02*G75*G03X17800Y17000I800J0D01*G01*
G75*G03X16200Y17000I-800J0D01*G01*
X282200D02*G75*G03X283800Y17000I800J0D01*G01*
G75*G03X282200Y17000I-800J0D01*G01*
X16200Y143000D02*G75*G03X17800Y143000I800J0D01*G01*
G75*G03X16200Y143000I-800J0D01*G01*
X282200D02*G75*G03X283800Y143000I800J0D01*G01*
G75*G03X282200Y143000I-800J0D01*G01*
X14200Y511250D02*G75*G03X15800Y511250I800J0D01*G01*
G75*G03X14200Y511250I-800J0D01*G01*
G54D56*X135000Y513500D02*X136500Y510500D01*
X138000Y513500D01*
X136500Y510500D02*Y507500D01*
X139800Y510800D02*X142050D01*
X139800Y507500D02*X142800D01*
X139800Y513500D02*Y507500D01*
Y513500D02*X142800D01*
X147600D02*X148350Y512750D01*
X145350Y513500D02*X147600D01*
X144600Y512750D02*X145350Y513500D01*
X144600Y512750D02*Y511250D01*
X145350Y510500D01*
X147600D01*
X148350Y509750D01*
Y508250D01*
X147600Y507500D02*X148350Y508250D01*
X145350Y507500D02*X147600D01*
X144600Y508250D02*X145350Y507500D01*
X100250Y513500D02*X101000Y512750D01*
X98750Y513500D02*X100250D01*
X98000Y512750D02*X98750Y513500D01*
X98000Y512750D02*Y508250D01*
X98750Y507500D01*
X100250Y510800D02*X101000Y510050D01*
X98000Y510800D02*X100250D01*
X98750Y507500D02*X100250D01*
X101000Y508250D01*
Y510050D02*Y508250D01*
X45000D02*X45750Y507500D01*
X45000Y512750D02*Y508250D01*
Y512750D02*X45750Y513500D01*
X47250D01*
X48000Y512750D01*
Y508250D01*
X47250Y507500D02*X48000Y508250D01*
X45750Y507500D02*X47250D01*
X45000Y509000D02*X48000Y512000D01*
X49800Y507500D02*X50550D01*
X52350Y512300D02*X53550Y513500D01*
Y507500D01*
X52350D02*X54600D01*
X56400Y512750D02*X57150Y513500D01*
X59400D01*
X60150Y512750D01*
Y511250D01*
X56400Y507500D02*X60150Y511250D01*
X56400Y507500D02*X60150D01*
X62700D02*X64950Y510500D01*
Y512750D02*Y510500D01*
X64200Y513500D02*X64950Y512750D01*
X62700Y513500D02*X64200D01*
X61950Y512750D02*X62700Y513500D01*
X61950Y512750D02*Y511250D01*
X62700Y510500D01*
X64950D01*
X148800Y447200D02*X151200Y444800D01*
X148800D02*X151200Y447200D01*
X13800Y527450D02*X16200Y525050D01*
X13800D02*X16200Y527450D01*
X135000Y528500D02*X136500Y525500D01*
X138000Y528500D01*
X136500Y525500D02*Y522500D01*
X139800Y525800D02*X142050D01*
X139800Y522500D02*X142800D01*
X139800Y528500D02*Y522500D01*
Y528500D02*X142800D01*
X147600D02*X148350Y527750D01*
X145350Y528500D02*X147600D01*
X144600Y527750D02*X145350Y528500D01*
X144600Y527750D02*Y526250D01*
X145350Y525500D01*
X147600D01*
X148350Y524750D01*
Y523250D01*
X147600Y522500D02*X148350Y523250D01*
X145350Y522500D02*X147600D01*
X144600Y523250D02*X145350Y522500D01*
X98000Y527300D02*X99200Y528500D01*
Y522500D01*
X98000D02*X100250D01*
X45000Y523250D02*X45750Y522500D01*
X45000Y527750D02*Y523250D01*
Y527750D02*X45750Y528500D01*
X47250D01*
X48000Y527750D01*
Y523250D01*
X47250Y522500D02*X48000Y523250D01*
X45750Y522500D02*X47250D01*
X45000Y524000D02*X48000Y527000D01*
X49800Y522500D02*X50550D01*
X52350Y527300D02*X53550Y528500D01*
Y522500D01*
X52350D02*X54600D01*
X56400Y527750D02*X57150Y528500D01*
X59400D01*
X60150Y527750D01*
Y526250D01*
X56400Y522500D02*X60150Y526250D01*
X56400Y522500D02*X60150D01*
X61950Y528500D02*X64950D01*
X61950D02*Y525500D01*
X62700Y526250D01*
X64200D01*
X64950Y525500D01*
Y523250D01*
X64200Y522500D02*X64950Y523250D01*
X62700Y522500D02*X64200D01*
X61950Y523250D02*X62700Y522500D01*
X150000Y471600D02*Y468400D01*
X148400Y470000D02*X151600D01*
X169000Y459600D02*Y456400D01*
X167400Y458000D02*X170600D01*
X15000Y542850D02*Y539650D01*
X13400Y541250D02*X16600D01*
X135000Y543500D02*X136500Y540500D01*
X138000Y543500D01*
X136500Y540500D02*Y537500D01*
X139800Y540800D02*X142050D01*
X139800Y537500D02*X142800D01*
X139800Y543500D02*Y537500D01*
Y543500D02*X142800D01*
X147600D02*X148350Y542750D01*
X145350Y543500D02*X147600D01*
X144600Y542750D02*X145350Y543500D01*
X144600Y542750D02*Y541250D01*
X145350Y540500D01*
X147600D01*
X148350Y539750D01*
Y538250D01*
X147600Y537500D02*X148350Y538250D01*
X145350Y537500D02*X147600D01*
X144600Y538250D02*X145350Y537500D01*
X98000Y542750D02*X98750Y543500D01*
X101000D01*
X101750Y542750D01*
Y541250D01*
X98000Y537500D02*X101750Y541250D01*
X98000Y537500D02*X101750D01*
X45000Y538250D02*X45750Y537500D01*
X45000Y542750D02*Y538250D01*
Y542750D02*X45750Y543500D01*
X47250D01*
X48000Y542750D01*
Y538250D01*
X47250Y537500D02*X48000Y538250D01*
X45750Y537500D02*X47250D01*
X45000Y539000D02*X48000Y542000D01*
X49800Y537500D02*X50550D01*
X52350Y542300D02*X53550Y543500D01*
Y537500D01*
X52350D02*X54600D01*
X56400Y542300D02*X57600Y543500D01*
Y537500D01*
X56400D02*X58650D01*
X60450Y538250D02*X61200Y537500D01*
X60450Y542750D02*Y538250D01*
Y542750D02*X61200Y543500D01*
X62700D01*
X63450Y542750D01*
Y538250D01*
X62700Y537500D02*X63450Y538250D01*
X61200Y537500D02*X62700D01*
X60450Y539000D02*X63450Y542000D01*
X109500Y394094D02*Y392494D01*
Y394094D02*X110887Y394894D01*
X109500Y394094D02*X108113Y394894D01*
X156000Y458500D02*Y456900D01*
Y458500D02*X157387Y459300D01*
X156000Y458500D02*X154613Y459300D01*
X137000Y482000D02*Y480400D01*
Y482000D02*X138387Y482800D01*
X137000Y482000D02*X135613Y482800D01*
X15000Y556250D02*Y554650D01*
Y556250D02*X16387Y557050D01*
X15000Y556250D02*X13613Y557050D01*
X135000Y558500D02*X136500Y555500D01*
X138000Y558500D01*
X136500Y555500D02*Y552500D01*
X139800Y555800D02*X142050D01*
X139800Y552500D02*X142800D01*
X139800Y558500D02*Y552500D01*
Y558500D02*X142800D01*
X147600D02*X148350Y557750D01*
X145350Y558500D02*X147600D01*
X144600Y557750D02*X145350Y558500D01*
X144600Y557750D02*Y556250D01*
X145350Y555500D01*
X147600D01*
X148350Y554750D01*
Y553250D01*
X147600Y552500D02*X148350Y553250D01*
X145350Y552500D02*X147600D01*
X144600Y553250D02*X145350Y552500D01*
X98000Y557750D02*X98750Y558500D01*
X100250D01*
X101000Y557750D01*
X100250Y552500D02*X101000Y553250D01*
X98750Y552500D02*X100250D01*
X98000Y553250D02*X98750Y552500D01*
Y555800D02*X100250D01*
X101000Y557750D02*Y556550D01*
Y555050D02*Y553250D01*
Y555050D02*X100250Y555800D01*
X101000Y556550D02*X100250Y555800D01*
X45000Y553250D02*X45750Y552500D01*
X45000Y557750D02*Y553250D01*
Y557750D02*X45750Y558500D01*
X47250D01*
X48000Y557750D01*
Y553250D01*
X47250Y552500D02*X48000Y553250D01*
X45750Y552500D02*X47250D01*
X45000Y554000D02*X48000Y557000D01*
X49800Y552500D02*X50550D01*
X52350Y553250D02*X53100Y552500D01*
X52350Y557750D02*Y553250D01*
Y557750D02*X53100Y558500D01*
X54600D01*
X55350Y557750D01*
Y553250D01*
X54600Y552500D02*X55350Y553250D01*
X53100Y552500D02*X54600D01*
X52350Y554000D02*X55350Y557000D01*
X57150Y557300D02*X58350Y558500D01*
Y552500D01*
X57150D02*X59400D01*
X61200Y557750D02*X61950Y558500D01*
X64200D01*
X64950Y557750D01*
Y556250D01*
X61200Y552500D02*X64950Y556250D01*
X61200Y552500D02*X64950D01*
X3000Y573500D02*X3750Y572750D01*
X750Y573500D02*X3000D01*
X0Y572750D02*X750Y573500D01*
X0Y572750D02*Y571250D01*
X750Y570500D01*
X3000D01*
X3750Y569750D01*
Y568250D01*
X3000Y567500D02*X3750Y568250D01*
X750Y567500D02*X3000D01*
X0Y568250D02*X750Y567500D01*
X5550Y570500D02*Y568250D01*
X6300Y567500D01*
X8550Y570500D02*Y566000D01*
X7800Y565250D02*X8550Y566000D01*
X6300Y565250D02*X7800D01*
X5550Y566000D02*X6300Y565250D01*
Y567500D02*X7800D01*
X8550Y568250D01*
X11100Y569750D02*Y567500D01*
Y569750D02*X11850Y570500D01*
X12600D01*
X13350Y569750D01*
Y567500D01*
Y569750D02*X14100Y570500D01*
X14850D01*
X15600Y569750D01*
Y567500D01*
X10350Y570500D02*X11100Y569750D01*
X17400Y573500D02*Y567500D01*
Y568250D02*X18150Y567500D01*
X19650D01*
X20400Y568250D01*
Y569750D02*Y568250D01*
X19650Y570500D02*X20400Y569750D01*
X18150Y570500D02*X19650D01*
X17400Y569750D02*X18150Y570500D01*
X22200Y569750D02*Y568250D01*
Y569750D02*X22950Y570500D01*
X24450D01*
X25200Y569750D01*
Y568250D01*
X24450Y567500D02*X25200Y568250D01*
X22950Y567500D02*X24450D01*
X22200Y568250D02*X22950Y567500D01*
X27000Y573500D02*Y568250D01*
X27750Y567500D01*
X0Y564250D02*X29250D01*
X41750Y573500D02*Y567500D01*
X43700Y573500D02*X44750Y572450D01*
Y568550D01*
X43700Y567500D02*X44750Y568550D01*
X41000Y567500D02*X43700D01*
X41000Y573500D02*X43700D01*
G54D57*X46550Y572000D02*Y571850D01*
G54D56*Y569750D02*Y567500D01*
X50300Y570500D02*X51050Y569750D01*
X48800Y570500D02*X50300D01*
X48050Y569750D02*X48800Y570500D01*
X48050Y569750D02*Y568250D01*
X48800Y567500D01*
X51050Y570500D02*Y568250D01*
X51800Y567500D01*
X48800D02*X50300D01*
X51050Y568250D01*
X54350Y569750D02*Y567500D01*
Y569750D02*X55100Y570500D01*
X55850D01*
X56600Y569750D01*
Y567500D01*
Y569750D02*X57350Y570500D01*
X58100D01*
X58850Y569750D01*
Y567500D01*
X53600Y570500D02*X54350Y569750D01*
X60650Y567500D02*X61400D01*
X65900Y568250D02*X66650Y567500D01*
X65900Y572750D02*X66650Y573500D01*
X65900Y572750D02*Y568250D01*
X68450Y573500D02*X69950D01*
X69200D02*Y567500D01*
X68450D02*X69950D01*
X72500Y569750D02*Y567500D01*
Y569750D02*X73250Y570500D01*
X74000D01*
X74750Y569750D01*
Y567500D01*
X71750Y570500D02*X72500Y569750D01*
X77300Y570500D02*X79550D01*
X76550Y569750D02*X77300Y570500D01*
X76550Y569750D02*Y568250D01*
X77300Y567500D01*
X79550D01*
X81350Y573500D02*Y567500D01*
Y569750D02*X82100Y570500D01*
X83600D01*
X84350Y569750D01*
Y567500D01*
X86150Y573500D02*X86900Y572750D01*
Y568250D01*
X86150Y567500D02*X86900Y568250D01*
X41000Y564250D02*X88700D01*
X96050Y567500D02*X98000D01*
X95000Y568550D02*X96050Y567500D01*
X95000Y572450D02*Y568550D01*
Y572450D02*X96050Y573500D01*
X98000D01*
X99800Y569750D02*Y568250D01*
Y569750D02*X100550Y570500D01*
X102050D01*
X102800Y569750D01*
Y568250D01*
X102050Y567500D02*X102800Y568250D01*
X100550Y567500D02*X102050D01*
X99800Y568250D02*X100550Y567500D01*
X104600Y570500D02*Y568250D01*
X105350Y567500D01*
X106850D01*
X107600Y568250D01*
Y570500D02*Y568250D01*
X110150Y569750D02*Y567500D01*
Y569750D02*X110900Y570500D01*
X111650D01*
X112400Y569750D01*
Y567500D01*
X109400Y570500D02*X110150Y569750D01*
X114950Y573500D02*Y568250D01*
X115700Y567500D01*
X114200Y571250D02*X115700D01*
X95000Y564250D02*X117200D01*
X130750Y573500D02*Y567500D01*
X130000Y573500D02*X133000D01*
X133750Y572750D01*
Y571250D01*
X133000Y570500D02*X133750Y571250D01*
X130750Y570500D02*X133000D01*
X135550Y573500D02*Y568250D01*
X136300Y567500D01*
X140050Y570500D02*X140800Y569750D01*
X138550Y570500D02*X140050D01*
X137800Y569750D02*X138550Y570500D01*
X137800Y569750D02*Y568250D01*
X138550Y567500D01*
X140800Y570500D02*Y568250D01*
X141550Y567500D01*
X138550D02*X140050D01*
X140800Y568250D01*
X144100Y573500D02*Y568250D01*
X144850Y567500D01*
X143350Y571250D02*X144850D01*
X147100Y567500D02*X149350D01*
X146350Y568250D02*X147100Y567500D01*
X146350Y569750D02*Y568250D01*
Y569750D02*X147100Y570500D01*
X148600D01*
X149350Y569750D01*
X146350Y569000D02*X149350D01*
Y569750D02*Y569000D01*
X154150Y573500D02*Y567500D01*
X153400D02*X154150Y568250D01*
X151900Y567500D02*X153400D01*
X151150Y568250D02*X151900Y567500D01*
X151150Y569750D02*Y568250D01*
Y569750D02*X151900Y570500D01*
X153400D01*
X154150Y569750D01*
X157450Y570500D02*Y569750D01*
Y568250D02*Y567500D01*
X155950Y572750D02*Y572000D01*
Y572750D02*X156700Y573500D01*
X158200D01*
X158950Y572750D01*
Y572000D01*
X157450Y570500D02*X158950Y572000D01*
X130000Y564250D02*X160750D01*
X0Y588500D02*X3000D01*
X1500D02*Y582500D01*
X4800Y588500D02*Y582500D01*
Y584750D02*X5550Y585500D01*
X7050D01*
X7800Y584750D01*
Y582500D01*
X10350D02*X12600D01*
X9600Y583250D02*X10350Y582500D01*
X9600Y584750D02*Y583250D01*
Y584750D02*X10350Y585500D01*
X11850D01*
X12600Y584750D01*
X9600Y584000D02*X12600D01*
Y584750D02*Y584000D01*
X15150Y584750D02*Y582500D01*
Y584750D02*X15900Y585500D01*
X17400D01*
X14400D02*X15150Y584750D01*
X19950Y582500D02*X22200D01*
X19200Y583250D02*X19950Y582500D01*
X19200Y584750D02*Y583250D01*
Y584750D02*X19950Y585500D01*
X21450D01*
X22200Y584750D01*
X19200Y584000D02*X22200D01*
Y584750D02*Y584000D01*
X28950Y585500D02*X29700Y584750D01*
X27450Y585500D02*X28950D01*
X26700Y584750D02*X27450Y585500D01*
X26700Y584750D02*Y583250D01*
X27450Y582500D01*
X29700Y585500D02*Y583250D01*
X30450Y582500D01*
X27450D02*X28950D01*
X29700Y583250D01*
X33000Y584750D02*Y582500D01*
Y584750D02*X33750Y585500D01*
X35250D01*
X32250D02*X33000Y584750D01*
X37800Y582500D02*X40050D01*
X37050Y583250D02*X37800Y582500D01*
X37050Y584750D02*Y583250D01*
Y584750D02*X37800Y585500D01*
X39300D01*
X40050Y584750D01*
X37050Y584000D02*X40050D01*
Y584750D02*Y584000D01*
X44550Y584750D02*X47550Y588500D01*
X44550Y584750D02*X48300D01*
X47550Y588500D02*Y582500D01*
X55800Y588500D02*Y582500D01*
X55050D02*X55800Y583250D01*
X53550Y582500D02*X55050D01*
X52800Y583250D02*X53550Y582500D01*
X52800Y584750D02*Y583250D01*
Y584750D02*X53550Y585500D01*
X55050D01*
X55800Y584750D01*
G54D57*X57600Y587000D02*Y586850D01*
G54D56*Y584750D02*Y582500D01*
X59850Y587750D02*Y582500D01*
Y587750D02*X60600Y588500D01*
X61350D01*
X59100Y585500D02*X60600D01*
X63600Y587750D02*Y582500D01*
Y587750D02*X64350Y588500D01*
X65100D01*
X62850Y585500D02*X64350D01*
X67350Y582500D02*X69600D01*
X66600Y583250D02*X67350Y582500D01*
X66600Y584750D02*Y583250D01*
Y584750D02*X67350Y585500D01*
X68850D01*
X69600Y584750D01*
X66600Y584000D02*X69600D01*
Y584750D02*Y584000D01*
X72150Y584750D02*Y582500D01*
Y584750D02*X72900Y585500D01*
X74400D01*
X71400D02*X72150Y584750D01*
X76950Y582500D02*X79200D01*
X76200Y583250D02*X76950Y582500D01*
X76200Y584750D02*Y583250D01*
Y584750D02*X76950Y585500D01*
X78450D01*
X79200Y584750D01*
X76200Y584000D02*X79200D01*
Y584750D02*Y584000D01*
X81750Y584750D02*Y582500D01*
Y584750D02*X82500Y585500D01*
X83250D01*
X84000Y584750D01*
Y582500D01*
X81000Y585500D02*X81750Y584750D01*
X86550Y588500D02*Y583250D01*
X87300Y582500D01*
X85800Y586250D02*X87300D01*
X94500Y588500D02*Y582500D01*
X93750D02*X94500Y583250D01*
X92250Y582500D02*X93750D01*
X91500Y583250D02*X92250Y582500D01*
X91500Y584750D02*Y583250D01*
Y584750D02*X92250Y585500D01*
X93750D01*
X94500Y584750D01*
X97050D02*Y582500D01*
Y584750D02*X97800Y585500D01*
X99300D01*
X96300D02*X97050Y584750D01*
G54D57*X101100Y587000D02*Y586850D01*
G54D56*Y584750D02*Y582500D01*
X102600Y588500D02*Y583250D01*
X103350Y582500D01*
X104850Y588500D02*Y583250D01*
X105600Y582500D01*
X110550D02*X112800D01*
X113550Y583250D01*
X112800Y584000D02*X113550Y583250D01*
X110550Y584000D02*X112800D01*
X109800Y584750D02*X110550Y584000D01*
X109800Y584750D02*X110550Y585500D01*
X112800D01*
X113550Y584750D01*
X109800Y583250D02*X110550Y582500D01*
G54D57*X115350Y587000D02*Y586850D01*
G54D56*Y584750D02*Y582500D01*
X116850Y585500D02*X119850D01*
X116850Y582500D02*X119850Y585500D01*
X116850Y582500D02*X119850D01*
X122400D02*X124650D01*
X121650Y583250D02*X122400Y582500D01*
X121650Y584750D02*Y583250D01*
Y584750D02*X122400Y585500D01*
X123900D01*
X124650Y584750D01*
X121650Y584000D02*X124650D01*
Y584750D02*Y584000D01*
X127200Y582500D02*X129450D01*
X130200Y583250D01*
X129450Y584000D02*X130200Y583250D01*
X127200Y584000D02*X129450D01*
X126450Y584750D02*X127200Y584000D01*
X126450Y584750D02*X127200Y585500D01*
X129450D01*
X130200Y584750D01*
X126450Y583250D02*X127200Y582500D01*
X134700Y585500D02*Y583250D01*
X135450Y582500D01*
X136950D01*
X137700Y583250D01*
Y585500D02*Y583250D01*
X140250Y582500D02*X142500D01*
X143250Y583250D01*
X142500Y584000D02*X143250Y583250D01*
X140250Y584000D02*X142500D01*
X139500Y584750D02*X140250Y584000D01*
X139500Y584750D02*X140250Y585500D01*
X142500D01*
X143250Y584750D01*
X139500Y583250D02*X140250Y582500D01*
X145800D02*X148050D01*
X145050Y583250D02*X145800Y582500D01*
X145050Y584750D02*Y583250D01*
Y584750D02*X145800Y585500D01*
X147300D01*
X148050Y584750D01*
X145050Y584000D02*X148050D01*
Y584750D02*Y584000D01*
X152850Y588500D02*Y582500D01*
X152100D02*X152850Y583250D01*
X150600Y582500D02*X152100D01*
X149850Y583250D02*X150600Y582500D01*
X149850Y584750D02*Y583250D01*
Y584750D02*X150600Y585500D01*
X152100D01*
X152850Y584750D01*
G54D57*X157350Y587000D02*Y586850D01*
G54D56*Y584750D02*Y582500D01*
X159600Y584750D02*Y582500D01*
Y584750D02*X160350Y585500D01*
X161100D01*
X161850Y584750D01*
Y582500D01*
X158850Y585500D02*X159600Y584750D01*
X167100Y588500D02*Y583250D01*
X167850Y582500D01*
X166350Y586250D02*X167850D01*
X169350Y588500D02*Y582500D01*
Y584750D02*X170100Y585500D01*
X171600D01*
X172350Y584750D01*
Y582500D01*
G54D57*X174150Y587000D02*Y586850D01*
G54D56*Y584750D02*Y582500D01*
X176400D02*X178650D01*
X179400Y583250D01*
X178650Y584000D02*X179400Y583250D01*
X176400Y584000D02*X178650D01*
X175650Y584750D02*X176400Y584000D01*
X175650Y584750D02*X176400Y585500D01*
X178650D01*
X179400Y584750D01*
X175650Y583250D02*X176400Y582500D01*
X183900Y588500D02*Y583250D01*
X184650Y582500D01*
X188400Y585500D02*X189150Y584750D01*
X186900Y585500D02*X188400D01*
X186150Y584750D02*X186900Y585500D01*
X186150Y584750D02*Y583250D01*
X186900Y582500D01*
X189150Y585500D02*Y583250D01*
X189900Y582500D01*
X186900D02*X188400D01*
X189150Y583250D01*
X191700Y585500D02*Y583250D01*
X192450Y582500D01*
X194700Y585500D02*Y581000D01*
X193950Y580250D02*X194700Y581000D01*
X192450Y580250D02*X193950D01*
X191700Y581000D02*X192450Y580250D01*
Y582500D02*X193950D01*
X194700Y583250D01*
X196500Y584750D02*Y583250D01*
Y584750D02*X197250Y585500D01*
X198750D01*
X199500Y584750D01*
Y583250D01*
X198750Y582500D02*X199500Y583250D01*
X197250Y582500D02*X198750D01*
X196500Y583250D02*X197250Y582500D01*
X201300Y585500D02*Y583250D01*
X202050Y582500D01*
X203550D01*
X204300Y583250D01*
Y585500D02*Y583250D01*
X206850Y588500D02*Y583250D01*
X207600Y582500D01*
X206100Y586250D02*X207600D01*
X209100Y581000D02*X210600Y582500D01*
X215100Y587300D02*X216300Y588500D01*
Y582500D01*
X215100D02*X217350D01*
X219150Y587750D02*X219900Y588500D01*
X222150D01*
X222900Y587750D01*
Y586250D01*
X219150Y582500D02*X222900Y586250D01*
X219150Y582500D02*X222900D01*
X227400Y588500D02*Y582500D01*
Y584750D02*X228150Y585500D01*
X229650D01*
X230400Y584750D01*
Y582500D01*
X232200Y584750D02*Y583250D01*
Y584750D02*X232950Y585500D01*
X234450D01*
X235200Y584750D01*
Y583250D01*
X234450Y582500D02*X235200Y583250D01*
X232950Y582500D02*X234450D01*
X232200Y583250D02*X232950Y582500D01*
X237000Y588500D02*Y583250D01*
X237750Y582500D01*
X240000D02*X242250D01*
X239250Y583250D02*X240000Y582500D01*
X239250Y584750D02*Y583250D01*
Y584750D02*X240000Y585500D01*
X241500D01*
X242250Y584750D01*
X239250Y584000D02*X242250D01*
Y584750D02*Y584000D01*
X244800Y582500D02*X247050D01*
X247800Y583250D01*
X247050Y584000D02*X247800Y583250D01*
X244800Y584000D02*X247050D01*
X244050Y584750D02*X244800Y584000D01*
X244050Y584750D02*X244800Y585500D01*
X247050D01*
X247800Y584750D01*
X244050Y583250D02*X244800Y582500D01*
X253050Y588500D02*Y583250D01*
X253800Y582500D01*
X252300Y586250D02*X253800D01*
X255300Y584750D02*Y583250D01*
Y584750D02*X256050Y585500D01*
X257550D01*
X258300Y584750D01*
Y583250D01*
X257550Y582500D02*X258300Y583250D01*
X256050Y582500D02*X257550D01*
X255300Y583250D02*X256050Y582500D01*
X260850Y588500D02*Y583250D01*
X261600Y582500D01*
X260100Y586250D02*X261600D01*
X265350Y585500D02*X266100Y584750D01*
X263850Y585500D02*X265350D01*
X263100Y584750D02*X263850Y585500D01*
X263100Y584750D02*Y583250D01*
X263850Y582500D01*
X266100Y585500D02*Y583250D01*
X266850Y582500D01*
X263850D02*X265350D01*
X266100Y583250D01*
X268650Y588500D02*Y583250D01*
X269400Y582500D01*
G54D58*X0Y500000D02*Y0D01*
X300000D01*
Y500000D01*
X0D01*
X225000Y461500D02*Y426500D01*
X240000D01*
Y461500D01*
X225000D01*
X150000Y42500D02*G75*G03X150000Y42500I0J37500D01*G01*
G54D59*X137641Y76850D02*X139760D01*
X136500Y77991D02*X137641Y76850D01*
X136500Y82229D02*Y77991D01*
Y82229D02*X137641Y83370D01*
X139760D01*
X141716D02*Y77665D01*
X142531Y76850D01*
X144161D01*
X144976Y77665D01*
Y83370D02*Y77665D01*
X146932Y83370D02*X150192D01*
X148562D02*Y76850D01*
X152148Y82555D02*Y77665D01*
Y82555D02*X152963Y83370D01*
X154593D01*
X155408Y82555D01*
Y77665D01*
X154593Y76850D02*X155408Y77665D01*
X152963Y76850D02*X154593D01*
X152148Y77665D02*X152963Y76850D01*
X157364Y83370D02*Y77665D01*
X158179Y76850D01*
X159809D01*
X160624Y77665D01*
Y83370D02*Y77665D01*
X162580Y83370D02*X165840D01*
X164210D02*Y76850D01*
X235650Y432260D02*Y430141D01*
X234509Y429000D02*X235650Y430141D01*
X230271Y429000D02*X234509D01*
X230271D02*X229130Y430141D01*
Y432260D02*Y430141D01*
Y434216D02*X234835D01*
X235650Y435031D01*
Y436661D02*Y435031D01*
Y436661D02*X234835Y437476D01*
X229130D02*X234835D01*
X229130Y442692D02*Y439432D01*
Y441062D02*X235650D01*
X229945Y444648D02*X234835D01*
X229945D02*X229130Y445463D01*
Y447093D02*Y445463D01*
Y447093D02*X229945Y447908D01*
X234835D01*
X235650Y447093D02*X234835Y447908D01*
X235650Y447093D02*Y445463D01*
X234835Y444648D02*X235650Y445463D01*
X229130Y449864D02*X234835D01*
X235650Y450679D01*
Y452309D02*Y450679D01*
Y452309D02*X234835Y453124D01*
X229130D02*X234835D01*
X229130Y458340D02*Y455080D01*
Y456710D02*X235650D01*
G54D56*X63675Y-9500D02*X66675D01*
X67425Y-8750D01*
Y-6950D02*Y-8750D01*
X66675Y-6200D02*X67425Y-6950D01*
X64425Y-6200D02*X66675D01*
X64425Y-3500D02*Y-9500D01*
X63675Y-3500D02*X66675D01*
X67425Y-4250D01*
Y-5450D01*
X66675Y-6200D02*X67425Y-5450D01*
X69225Y-7250D02*Y-8750D01*
Y-7250D02*X69975Y-6500D01*
X71475D01*
X72225Y-7250D01*
Y-8750D01*
X71475Y-9500D02*X72225Y-8750D01*
X69975Y-9500D02*X71475D01*
X69225Y-8750D02*X69975Y-9500D01*
X76275Y-6500D02*X77025Y-7250D01*
X74775Y-6500D02*X76275D01*
X74025Y-7250D02*X74775Y-6500D01*
X74025Y-7250D02*Y-8750D01*
X74775Y-9500D01*
X77025Y-6500D02*Y-8750D01*
X77775Y-9500D01*
X74775D02*X76275D01*
X77025Y-8750D01*
X80325Y-7250D02*Y-9500D01*
Y-7250D02*X81075Y-6500D01*
X82575D01*
X79575D02*X80325Y-7250D01*
X87375Y-3500D02*Y-9500D01*
X86625D02*X87375Y-8750D01*
X85125Y-9500D02*X86625D01*
X84375Y-8750D02*X85125Y-9500D01*
X84375Y-7250D02*Y-8750D01*
Y-7250D02*X85125Y-6500D01*
X86625D01*
X87375Y-7250D01*
X91875D02*Y-8750D01*
Y-7250D02*X92625Y-6500D01*
X94125D01*
X94875Y-7250D01*
Y-8750D01*
X94125Y-9500D02*X94875Y-8750D01*
X92625Y-9500D02*X94125D01*
X91875Y-8750D02*X92625Y-9500D01*
X96675Y-6500D02*Y-8750D01*
X97425Y-9500D01*
X98925D01*
X99675Y-8750D01*
Y-6500D02*Y-8750D01*
X102225Y-3500D02*Y-8750D01*
X102975Y-9500D01*
X101475Y-5750D02*X102975D01*
X104475Y-3500D02*Y-8750D01*
X105225Y-9500D01*
G54D57*X106725Y-5000D02*Y-5150D01*
G54D56*Y-7250D02*Y-9500D01*
X108975Y-7250D02*Y-9500D01*
Y-7250D02*X109725Y-6500D01*
X110475D01*
X111225Y-7250D01*
Y-9500D01*
X108225Y-6500D02*X108975Y-7250D01*
X113775Y-9500D02*X116025D01*
X113025Y-8750D02*X113775Y-9500D01*
X113025Y-7250D02*Y-8750D01*
Y-7250D02*X113775Y-6500D01*
X115275D01*
X116025Y-7250D01*
X113025Y-8000D02*X116025D01*
Y-7250D02*Y-8000D01*
G54D57*X120525Y-5000D02*Y-5150D01*
G54D56*Y-7250D02*Y-9500D01*
X122775D02*X125025D01*
X125775Y-8750D01*
X125025Y-8000D02*X125775Y-8750D01*
X122775Y-8000D02*X125025D01*
X122025Y-7250D02*X122775Y-8000D01*
X122025Y-7250D02*X122775Y-6500D01*
X125025D01*
X125775Y-7250D01*
X122025Y-8750D02*X122775Y-9500D01*
X131025Y-3500D02*Y-8750D01*
X131775Y-9500D01*
X130275Y-5750D02*X131775D01*
X133275Y-3500D02*Y-9500D01*
Y-7250D02*X134025Y-6500D01*
X135525D01*
X136275Y-7250D01*
Y-9500D01*
X138825D02*X141075D01*
X138075Y-8750D02*X138825Y-9500D01*
X138075Y-7250D02*Y-8750D01*
Y-7250D02*X138825Y-6500D01*
X140325D01*
X141075Y-7250D01*
X138075Y-8000D02*X141075D01*
Y-7250D02*Y-8000D01*
X146325Y-6500D02*X148575D01*
X145575Y-7250D02*X146325Y-6500D01*
X145575Y-7250D02*Y-8750D01*
X146325Y-9500D01*
X148575D01*
X151125D02*X153375D01*
X150375Y-8750D02*X151125Y-9500D01*
X150375Y-7250D02*Y-8750D01*
Y-7250D02*X151125Y-6500D01*
X152625D01*
X153375Y-7250D01*
X150375Y-8000D02*X153375D01*
Y-7250D02*Y-8000D01*
X155925Y-7250D02*Y-9500D01*
Y-7250D02*X156675Y-6500D01*
X157425D01*
X158175Y-7250D01*
Y-9500D01*
X155175Y-6500D02*X155925Y-7250D01*
X160725Y-3500D02*Y-8750D01*
X161475Y-9500D01*
X159975Y-5750D02*X161475D01*
X163725Y-9500D02*X165975D01*
X162975Y-8750D02*X163725Y-9500D01*
X162975Y-7250D02*Y-8750D01*
Y-7250D02*X163725Y-6500D01*
X165225D01*
X165975Y-7250D01*
X162975Y-8000D02*X165975D01*
Y-7250D02*Y-8000D01*
X168525Y-7250D02*Y-9500D01*
Y-7250D02*X169275Y-6500D01*
X170775D01*
X167775D02*X168525Y-7250D01*
X172575Y-3500D02*Y-8750D01*
X173325Y-9500D01*
G54D57*X174825Y-5000D02*Y-5150D01*
G54D56*Y-7250D02*Y-9500D01*
X177075Y-7250D02*Y-9500D01*
Y-7250D02*X177825Y-6500D01*
X178575D01*
X179325Y-7250D01*
Y-9500D01*
X176325Y-6500D02*X177075Y-7250D01*
X181875Y-9500D02*X184125D01*
X181125Y-8750D02*X181875Y-9500D01*
X181125Y-7250D02*Y-8750D01*
Y-7250D02*X181875Y-6500D01*
X183375D01*
X184125Y-7250D01*
X181125Y-8000D02*X184125D01*
Y-7250D02*Y-8000D01*
X188625Y-7250D02*Y-8750D01*
Y-7250D02*X189375Y-6500D01*
X190875D01*
X191625Y-7250D01*
Y-8750D01*
X190875Y-9500D02*X191625Y-8750D01*
X189375Y-9500D02*X190875D01*
X188625Y-8750D02*X189375Y-9500D01*
X194175Y-4250D02*Y-9500D01*
Y-4250D02*X194925Y-3500D01*
X195675D01*
X193425Y-6500D02*X194925D01*
X200625Y-3500D02*Y-8750D01*
X201375Y-9500D01*
X199875Y-5750D02*X201375D01*
X202875Y-3500D02*Y-9500D01*
Y-7250D02*X203625Y-6500D01*
X205125D01*
X205875Y-7250D01*
Y-9500D01*
G54D57*X207675Y-5000D02*Y-5150D01*
G54D56*Y-7250D02*Y-9500D01*
X209925D02*X212175D01*
X212925Y-8750D01*
X212175Y-8000D02*X212925Y-8750D01*
X209925Y-8000D02*X212175D01*
X209175Y-7250D02*X209925Y-8000D01*
X209175Y-7250D02*X209925Y-6500D01*
X212175D01*
X212925Y-7250D01*
X209175Y-8750D02*X209925Y-9500D01*
X218175Y-7250D02*Y-11750D01*
X217425Y-6500D02*X218175Y-7250D01*
X218925Y-6500D01*
X220425D01*
X221175Y-7250D01*
Y-8750D01*
X220425Y-9500D02*X221175Y-8750D01*
X218925Y-9500D02*X220425D01*
X218175Y-8750D02*X218925Y-9500D01*
X225225Y-6500D02*X225975Y-7250D01*
X223725Y-6500D02*X225225D01*
X222975Y-7250D02*X223725Y-6500D01*
X222975Y-7250D02*Y-8750D01*
X223725Y-9500D01*
X225975Y-6500D02*Y-8750D01*
X226725Y-9500D01*
X223725D02*X225225D01*
X225975Y-8750D01*
X229275Y-3500D02*Y-8750D01*
X230025Y-9500D01*
X228525Y-5750D02*X230025D01*
X231525Y-3500D02*Y-9500D01*
Y-7250D02*X232275Y-6500D01*
X233775D01*
X234525Y-7250D01*
Y-9500D01*
X200750Y528500D02*Y522500D01*
X202700Y528500D02*X203750Y527450D01*
Y523550D01*
X202700Y522500D02*X203750Y523550D01*
X200000Y522500D02*X202700D01*
X200000Y528500D02*X202700D01*
X207800Y525500D02*X208550Y524750D01*
X206300Y525500D02*X207800D01*
X205550Y524750D02*X206300Y525500D01*
X205550Y524750D02*Y523250D01*
X206300Y522500D01*
X208550Y525500D02*Y523250D01*
X209300Y522500D01*
X206300D02*X207800D01*
X208550Y523250D01*
X211850Y528500D02*Y523250D01*
X212600Y522500D01*
X211100Y526250D02*X212600D01*
X214850Y522500D02*X217100D01*
X214100Y523250D02*X214850Y522500D01*
X214100Y524750D02*Y523250D01*
Y524750D02*X214850Y525500D01*
X216350D01*
X217100Y524750D01*
X214100Y524000D02*X217100D01*
Y524750D02*Y524000D01*
X218900Y526250D02*X219650D01*
X218900Y524750D02*X219650D01*
X224150Y528500D02*Y525500D01*
X224900Y522500D01*
X226400Y525500D01*
X227900Y522500D01*
X228650Y525500D01*
Y528500D02*Y525500D01*
X231200Y522500D02*X233450D01*
X230450Y523250D02*X231200Y522500D01*
X230450Y524750D02*Y523250D01*
Y524750D02*X231200Y525500D01*
X232700D01*
X233450Y524750D01*
X230450Y524000D02*X233450D01*
Y524750D02*Y524000D01*
X238250Y528500D02*Y522500D01*
X237500D02*X238250Y523250D01*
X236000Y522500D02*X237500D01*
X235250Y523250D02*X236000Y522500D01*
X235250Y524750D02*Y523250D01*
Y524750D02*X236000Y525500D01*
X237500D01*
X238250Y524750D01*
X243800Y528500D02*X245000D01*
Y523250D01*
X244250Y522500D02*X245000Y523250D01*
X243500Y522500D02*X244250D01*
X242750Y523250D02*X243500Y522500D01*
X242750Y524000D02*Y523250D01*
X246800Y525500D02*Y523250D01*
X247550Y522500D01*
X249050D01*
X249800Y523250D01*
Y525500D02*Y523250D01*
X252350Y524750D02*Y522500D01*
Y524750D02*X253100Y525500D01*
X253850D01*
X254600Y524750D01*
Y522500D01*
X251600Y525500D02*X252350Y524750D01*
X259100Y527300D02*X260300Y528500D01*
Y522500D01*
X259100D02*X261350D01*
X265400Y528500D02*X266150Y527750D01*
X263900Y528500D02*X265400D01*
X263150Y527750D02*X263900Y528500D01*
X263150Y527750D02*Y523250D01*
X263900Y522500D01*
X265400Y525800D02*X266150Y525050D01*
X263150Y525800D02*X265400D01*
X263900Y522500D02*X265400D01*
X266150Y523250D01*
Y525050D02*Y523250D01*
X270650D02*X271400Y522500D01*
X270650Y527750D02*Y523250D01*
Y527750D02*X271400Y528500D01*
X272900D01*
X273650Y527750D01*
Y523250D01*
X272900Y522500D02*X273650Y523250D01*
X271400Y522500D02*X272900D01*
X270650Y524000D02*X273650Y527000D01*
X275450Y527750D02*X276200Y528500D01*
X278450D01*
X279200Y527750D01*
Y526250D01*
X275450Y522500D02*X279200Y526250D01*
X275450Y522500D02*X279200D01*
X281000Y526250D02*X281750D01*
X281000Y524750D02*X281750D01*
X283550Y527750D02*X284300Y528500D01*
X285800D01*
X286550Y527750D01*
X285800Y522500D02*X286550Y523250D01*
X284300Y522500D02*X285800D01*
X283550Y523250D02*X284300Y522500D01*
Y525800D02*X285800D01*
X286550Y527750D02*Y526550D01*
Y525050D02*Y523250D01*
Y525050D02*X285800Y525800D01*
X286550Y526550D02*X285800Y525800D01*
X288350Y528500D02*X291350D01*
X288350D02*Y525500D01*
X289100Y526250D01*
X290600D01*
X291350Y525500D01*
Y523250D01*
X290600Y522500D02*X291350Y523250D01*
X289100Y522500D02*X290600D01*
X288350Y523250D02*X289100Y522500D01*
X293150Y526250D02*X293900D01*
X293150Y524750D02*X293900D01*
X295700Y527750D02*X296450Y528500D01*
X297950D01*
X298700Y527750D01*
X297950Y522500D02*X298700Y523250D01*
X296450Y522500D02*X297950D01*
X295700Y523250D02*X296450Y522500D01*
Y525800D02*X297950D01*
X298700Y527750D02*Y526550D01*
Y525050D02*Y523250D01*
Y525050D02*X297950Y525800D01*
X298700Y526550D02*X297950Y525800D01*
X300500Y527750D02*X301250Y528500D01*
X302750D01*
X303500Y527750D01*
X302750Y522500D02*X303500Y523250D01*
X301250Y522500D02*X302750D01*
X300500Y523250D02*X301250Y522500D01*
Y525800D02*X302750D01*
X303500Y527750D02*Y526550D01*
Y525050D02*Y523250D01*
Y525050D02*X302750Y525800D01*
X303500Y526550D02*X302750Y525800D01*
X308000Y527750D02*X308750Y528500D01*
X311000D01*
X311750Y527750D01*
Y526250D01*
X308000Y522500D02*X311750Y526250D01*
X308000Y522500D02*X311750D01*
X313550Y523250D02*X314300Y522500D01*
X313550Y527750D02*Y523250D01*
Y527750D02*X314300Y528500D01*
X315800D01*
X316550Y527750D01*
Y523250D01*
X315800Y522500D02*X316550Y523250D01*
X314300Y522500D02*X315800D01*
X313550Y524000D02*X316550Y527000D01*
X318350Y527750D02*X319100Y528500D01*
X321350D01*
X322100Y527750D01*
Y526250D01*
X318350Y522500D02*X322100Y526250D01*
X318350Y522500D02*X322100D01*
X323900Y527300D02*X325100Y528500D01*
Y522500D01*
X323900D02*X326150D01*
X330650Y528500D02*Y523250D01*
X331400Y522500D01*
X332900D01*
X333650Y523250D01*
Y528500D02*Y523250D01*
X335450Y528500D02*X338450D01*
X336950D02*Y522500D01*
X341300D02*X343250D01*
X340250Y523550D02*X341300Y522500D01*
X340250Y527450D02*Y523550D01*
Y527450D02*X341300Y528500D01*
X343250D01*
X200000Y542000D02*Y537500D01*
Y542000D02*X201050Y543500D01*
X202700D01*
X203750Y542000D01*
Y537500D01*
X200000Y540500D02*X203750D01*
X205550D02*Y538250D01*
X206300Y537500D01*
X207800D01*
X208550Y538250D01*
Y540500D02*Y538250D01*
X211100Y543500D02*Y538250D01*
X211850Y537500D01*
X210350Y541250D02*X211850D01*
X213350Y543500D02*Y537500D01*
Y539750D02*X214100Y540500D01*
X215600D01*
X216350Y539750D01*
Y537500D01*
X218150Y539750D02*Y538250D01*
Y539750D02*X218900Y540500D01*
X220400D01*
X221150Y539750D01*
Y538250D01*
X220400Y537500D02*X221150Y538250D01*
X218900Y537500D02*X220400D01*
X218150Y538250D02*X218900Y537500D01*
X223700Y539750D02*Y537500D01*
Y539750D02*X224450Y540500D01*
X225950D01*
X222950D02*X223700Y539750D01*
X227750Y541250D02*X228500D01*
X227750Y539750D02*X228500D01*
X233000Y543500D02*Y537500D01*
Y543500D02*X235250Y540500D01*
X237500Y543500D01*
Y537500D01*
G54D57*X239300Y542000D02*Y541850D01*
G54D56*Y539750D02*Y537500D01*
X241550Y540500D02*X243800D01*
X240800Y539750D02*X241550Y540500D01*
X240800Y539750D02*Y538250D01*
X241550Y537500D01*
X243800D01*
X245600Y543500D02*Y537500D01*
Y539750D02*X246350Y540500D01*
X247850D01*
X248600Y539750D01*
Y537500D01*
X252650Y540500D02*X253400Y539750D01*
X251150Y540500D02*X252650D01*
X250400Y539750D02*X251150Y540500D01*
X250400Y539750D02*Y538250D01*
X251150Y537500D01*
X253400Y540500D02*Y538250D01*
X254150Y537500D01*
X251150D02*X252650D01*
X253400Y538250D01*
X256700Y537500D02*X258950D01*
X255950Y538250D02*X256700Y537500D01*
X255950Y539750D02*Y538250D01*
Y539750D02*X256700Y540500D01*
X258200D01*
X258950Y539750D01*
X255950Y539000D02*X258950D01*
Y539750D02*Y539000D01*
X260750Y543500D02*Y538250D01*
X261500Y537500D01*
X266450Y543500D02*Y537500D01*
X265700Y543500D02*X268700D01*
X269450Y542750D01*
Y541250D01*
X268700Y540500D02*X269450Y541250D01*
X266450Y540500D02*X268700D01*
X272000Y537500D02*X274250D01*
X271250Y538250D02*X272000Y537500D01*
X271250Y539750D02*Y538250D01*
Y539750D02*X272000Y540500D01*
X273500D01*
X274250Y539750D01*
X271250Y539000D02*X274250D01*
Y539750D02*Y539000D01*
X276800Y543500D02*Y538250D01*
X277550Y537500D01*
X276050Y541250D02*X277550D01*
X279800Y537500D02*X282050D01*
X279050Y538250D02*X279800Y537500D01*
X279050Y539750D02*Y538250D01*
Y539750D02*X279800Y540500D01*
X281300D01*
X282050Y539750D01*
X279050Y539000D02*X282050D01*
Y539750D02*Y539000D01*
X284600Y539750D02*Y537500D01*
Y539750D02*X285350Y540500D01*
X286850D01*
X283850D02*X284600Y539750D01*
X289400Y537500D02*X291650D01*
X292400Y538250D01*
X291650Y539000D02*X292400Y538250D01*
X289400Y539000D02*X291650D01*
X288650Y539750D02*X289400Y539000D01*
X288650Y539750D02*X289400Y540500D01*
X291650D01*
X292400Y539750D01*
X288650Y538250D02*X289400Y537500D01*
X294950D02*X297200D01*
X294200Y538250D02*X294950Y537500D01*
X294200Y539750D02*Y538250D01*
Y539750D02*X294950Y540500D01*
X296450D01*
X297200Y539750D01*
X294200Y539000D02*X297200D01*
Y539750D02*Y539000D01*
X299750Y539750D02*Y537500D01*
Y539750D02*X300500Y540500D01*
X301250D01*
X302000Y539750D01*
Y537500D01*
X299000Y540500D02*X299750Y539750D01*
X200000Y558500D02*X203000D01*
X201500D02*Y552500D01*
G54D57*X204800Y557000D02*Y556850D01*
G54D56*Y554750D02*Y552500D01*
X207050Y558500D02*Y553250D01*
X207800Y552500D01*
X206300Y556250D02*X207800D01*
X209300Y558500D02*Y553250D01*
X210050Y552500D01*
X212300D02*X214550D01*
X211550Y553250D02*X212300Y552500D01*
X211550Y554750D02*Y553250D01*
Y554750D02*X212300Y555500D01*
X213800D01*
X214550Y554750D01*
X211550Y554000D02*X214550D01*
Y554750D02*Y554000D01*
X216350Y556250D02*X217100D01*
X216350Y554750D02*X217100D01*
X221600Y553250D02*X222350Y552500D01*
X221600Y557750D02*X222350Y558500D01*
X221600Y557750D02*Y553250D01*
X224150Y555500D02*Y553250D01*
X224900Y552500D01*
X226400D01*
X227150Y553250D01*
Y555500D02*Y553250D01*
X229700Y554750D02*Y552500D01*
Y554750D02*X230450Y555500D01*
X231200D01*
X231950Y554750D01*
Y552500D01*
X228950Y555500D02*X229700Y554750D01*
X233750Y558500D02*Y552500D01*
Y554750D02*X236000Y552500D01*
X233750Y554750D02*X235250Y556250D01*
X238550Y554750D02*Y552500D01*
Y554750D02*X239300Y555500D01*
X240050D01*
X240800Y554750D01*
Y552500D01*
X237800Y555500D02*X238550Y554750D01*
X242600D02*Y553250D01*
Y554750D02*X243350Y555500D01*
X244850D01*
X245600Y554750D01*
Y553250D01*
X244850Y552500D02*X245600Y553250D01*
X243350Y552500D02*X244850D01*
X242600Y553250D02*X243350Y552500D01*
X247400Y555500D02*Y553250D01*
X248150Y552500D01*
X248900D01*
X249650Y553250D01*
Y555500D02*Y553250D01*
X250400Y552500D01*
X251150D01*
X251900Y553250D01*
Y555500D02*Y553250D01*
X254450Y554750D02*Y552500D01*
Y554750D02*X255200Y555500D01*
X255950D01*
X256700Y554750D01*
Y552500D01*
X253700Y555500D02*X254450Y554750D01*
X258500Y558500D02*X259250Y557750D01*
Y553250D01*
X258500Y552500D02*X259250Y553250D01*
X263750Y555500D02*X266750D01*
X271250Y558500D02*Y552500D01*
Y558500D02*X274250D01*
X271250Y555800D02*X273500D01*
X278300Y555500D02*X279050Y554750D01*
X276800Y555500D02*X278300D01*
X276050Y554750D02*X276800Y555500D01*
X276050Y554750D02*Y553250D01*
X276800Y552500D01*
X279050Y555500D02*Y553250D01*
X279800Y552500D01*
X276800D02*X278300D01*
X279050Y553250D01*
X281600Y558500D02*Y552500D01*
Y553250D02*X282350Y552500D01*
X283850D01*
X284600Y553250D01*
Y554750D02*Y553250D01*
X283850Y555500D02*X284600Y554750D01*
X282350Y555500D02*X283850D01*
X281600Y554750D02*X282350Y555500D01*
X287150Y554750D02*Y552500D01*
Y554750D02*X287900Y555500D01*
X289400D01*
X286400D02*X287150Y554750D01*
G54D57*X291200Y557000D02*Y556850D01*
G54D56*Y554750D02*Y552500D01*
X293450Y555500D02*X295700D01*
X292700Y554750D02*X293450Y555500D01*
X292700Y554750D02*Y553250D01*
X293450Y552500D01*
X295700D01*
X299750Y555500D02*X300500Y554750D01*
X298250Y555500D02*X299750D01*
X297500Y554750D02*X298250Y555500D01*
X297500Y554750D02*Y553250D01*
X298250Y552500D01*
X300500Y555500D02*Y553250D01*
X301250Y552500D01*
X298250D02*X299750D01*
X300500Y553250D01*
X303800Y558500D02*Y553250D01*
X304550Y552500D01*
X303050Y556250D02*X304550D01*
G54D57*X306050Y557000D02*Y556850D01*
G54D56*Y554750D02*Y552500D01*
X307550Y554750D02*Y553250D01*
Y554750D02*X308300Y555500D01*
X309800D01*
X310550Y554750D01*
Y553250D01*
X309800Y552500D02*X310550Y553250D01*
X308300Y552500D02*X309800D01*
X307550Y553250D02*X308300Y552500D01*
X313100Y554750D02*Y552500D01*
Y554750D02*X313850Y555500D01*
X314600D01*
X315350Y554750D01*
Y552500D01*
X312350Y555500D02*X313100Y554750D01*
X320600Y558500D02*Y552500D01*
X322550Y558500D02*X323600Y557450D01*
Y553550D01*
X322550Y552500D02*X323600Y553550D01*
X319850Y552500D02*X322550D01*
X319850Y558500D02*X322550D01*
X326150Y554750D02*Y552500D01*
Y554750D02*X326900Y555500D01*
X328400D01*
X325400D02*X326150Y554750D01*
X332450Y555500D02*X333200Y554750D01*
X330950Y555500D02*X332450D01*
X330200Y554750D02*X330950Y555500D01*
X330200Y554750D02*Y553250D01*
X330950Y552500D01*
X333200Y555500D02*Y553250D01*
X333950Y552500D01*
X330950D02*X332450D01*
X333200Y553250D01*
X335750Y555500D02*Y553250D01*
X336500Y552500D01*
X337250D01*
X338000Y553250D01*
Y555500D02*Y553250D01*
X338750Y552500D01*
X339500D01*
X340250Y553250D01*
Y555500D02*Y553250D01*
G54D57*X342050Y557000D02*Y556850D01*
G54D56*Y554750D02*Y552500D01*
X344300Y554750D02*Y552500D01*
Y554750D02*X345050Y555500D01*
X345800D01*
X346550Y554750D01*
Y552500D01*
X343550Y555500D02*X344300Y554750D01*
X350600Y555500D02*X351350Y554750D01*
X349100Y555500D02*X350600D01*
X348350Y554750D02*X349100Y555500D01*
X348350Y554750D02*Y553250D01*
X349100Y552500D01*
X350600D01*
X351350Y553250D01*
X348350Y551000D02*X349100Y550250D01*
X350600D01*
X351350Y551000D01*
Y555500D02*Y551000D01*
M02*
