G04 start of page 9 for group -4078 idx -4078 *
G04 Title: (unknown), bottomsilk *
G04 Creator: pcb 4.0.2 *
G04 CreationDate: Wed Jun 16 02:35:33 2021 UTC *
G04 For: railfan *
G04 Format: Gerber/RS-274X *
G04 PCB-Dimensions (mil): 3000.00 5000.00 *
G04 PCB-Coordinate-Origin: lower left *
%MOIN*%
%FSLAX25Y25*%
%LNBOTTOMSILK*%
%ADD52C,0.0060*%
%ADD51C,0.0100*%
%ADD50C,0.0116*%
%ADD49C,0.0093*%
%ADD48C,0.0001*%
G54D48*G36*
X192957Y305709D02*Y305644D01*
X192697Y305633D01*
X192431Y305693D01*
X192084Y306073D01*
X192051Y306588D01*
X192181Y306821D01*
X192360Y306990D01*
X192426Y307022D01*
Y313853D01*
X191514Y315003D01*
Y317341D01*
X188698D01*
Y316403D01*
X190104Y314623D01*
X191514Y312844D01*
Y308270D01*
X190158Y306914D01*
X186767D01*
Y311802D01*
X186669Y311872D01*
X186371Y312382D01*
X186528Y312947D01*
X187130Y313218D01*
X187706Y312909D01*
X187841Y312393D01*
X187597Y311927D01*
X187472Y311834D01*
X187467Y311672D01*
X187461Y311216D01*
Y310543D01*
X187456Y309719D01*
Y307597D01*
X189876D01*
X190852Y308574D01*
Y312583D01*
X189431Y314368D01*
X188015Y316158D01*
Y316750D01*
X188009Y317336D01*
X187098D01*
Y318122D01*
X188009D01*
Y319495D01*
X187098D01*
Y320255D01*
X188009D01*
Y321649D01*
X187098D01*
Y322408D01*
X188009D01*
Y323781D01*
X187098D01*
Y324541D01*
X188009D01*
Y325935D01*
X187098D01*
Y326694D01*
X188009D01*
Y328094D01*
X187098D01*
Y328854D01*
X188009D01*
Y330096D01*
X188698D01*
Y328854D01*
X191514D01*
Y330096D01*
X192171D01*
Y328854D01*
X193082D01*
Y328094D01*
X192181D01*
X191498Y328148D01*
X188709D01*
X188704Y327459D01*
X188693Y326765D01*
X190093D01*
X190776Y326770D01*
X191210Y326776D01*
X191433Y326787D01*
X191498Y326797D01*
X191509Y327015D01*
X191503Y327492D01*
X191498Y328148D01*
X192181Y328094D01*
Y326722D01*
X193082D01*
Y325962D01*
X192171D01*
X191514Y326005D01*
X188693D01*
X188704Y325316D01*
Y325300D01*
X188709Y324611D01*
X190093D01*
X191080Y324617D01*
X191492Y324627D01*
X191509Y324844D01*
X191514Y325327D01*
Y326005D01*
X192171Y325962D01*
X192181Y324584D01*
X193082D01*
Y323824D01*
X192171D01*
Y322452D01*
X191514Y322479D01*
Y323852D01*
X188698D01*
Y322479D01*
X191514D01*
X192171Y322452D01*
X193082D01*
Y321692D01*
X192181D01*
X191498Y321719D01*
X188698D01*
Y320336D01*
X190093D01*
X190776Y320341D01*
X191210Y320347D01*
X191433Y320358D01*
X191498Y320368D01*
X191509Y320586D01*
X191503Y321057D01*
X191498Y321719D01*
X192181Y321692D01*
Y320325D01*
X193082D01*
Y319566D01*
X192171D01*
Y318193D01*
X191514D01*
Y319566D01*
X188698D01*
Y318193D01*
X193082D01*
Y317406D01*
X192171D01*
Y315339D01*
X192643Y314748D01*
X193109Y314156D01*
Y311851D01*
X194758D01*
Y312627D01*
X194661Y312697D01*
X194422Y313006D01*
X194368Y313381D01*
X194487Y313701D01*
X194710Y313923D01*
X195003Y314026D01*
X195339Y313994D01*
X195627Y313815D01*
X195811Y313527D01*
X195822Y313093D01*
X195713Y312876D01*
X195545Y312697D01*
X195447Y312627D01*
X195442Y311900D01*
Y311167D01*
X193109D01*
Y309670D01*
X193776Y309675D01*
X194444D01*
X194509Y309773D01*
X194818Y310012D01*
X195198Y310066D01*
X195513Y309946D01*
X195730Y309724D01*
X195838Y309431D01*
X195811Y309100D01*
X195627Y308807D01*
X195328Y308617D01*
X194900D01*
X194547Y308840D01*
X194455Y308964D01*
X194259Y308981D01*
X193782Y308986D01*
X193109D01*
Y307104D01*
X193239Y306990D01*
X193435Y306740D01*
X193489Y306425D01*
X193353Y305980D01*
X192957Y305709D01*
G37*
G36*
X177115Y306729D02*Y306735D01*
X175743Y306740D01*
X174365Y306914D01*
X172900Y307359D01*
X171630Y308037D01*
X170588Y308948D01*
X169791Y310066D01*
X169281Y311330D01*
X169026Y312730D01*
X169032Y314162D01*
X169308Y315534D01*
X169796Y316674D01*
X170523Y317726D01*
X171489Y318714D01*
X172715Y319642D01*
X173193Y319951D01*
X173752Y320282D01*
X174435Y320667D01*
X175303Y321139D01*
X176074Y321562D01*
X176649Y321888D01*
X177088Y322164D01*
X177441Y322408D01*
X178168Y323076D01*
X178515Y323727D01*
X178553Y324139D01*
X178515Y324622D01*
X178331Y325219D01*
X177994Y325680D01*
X177137Y326152D01*
X176486Y326201D01*
X175851Y326136D01*
X174902Y325604D01*
X174142Y324535D01*
X173882Y323960D01*
X173654Y323358D01*
X173578Y323157D01*
X173399Y323201D01*
X172921Y323331D01*
X172216Y323532D01*
X171353Y323776D01*
X169151Y324416D01*
X169211Y324671D01*
X169704Y326174D01*
X170431Y327476D01*
X171370Y328561D01*
X172509Y329407D01*
X173648Y329933D01*
X174923Y330259D01*
X176307Y330384D01*
X177766Y330302D01*
X179638Y329863D01*
X181168Y329038D01*
X182329Y327855D01*
X183089Y326331D01*
X183382Y325132D01*
X183474Y323846D01*
X183344Y322533D01*
X182926Y321350D01*
X182389Y320466D01*
X181640Y319625D01*
X180983Y319045D01*
X180208Y318480D01*
X179193Y317851D01*
X177815Y317075D01*
X177121Y316696D01*
X176605Y316403D01*
X176198Y316158D01*
X175835Y315925D01*
X174576Y314878D01*
X173979Y313809D01*
X173377Y313983D01*
X174061Y315247D01*
X175493Y316457D01*
X175867Y316696D01*
X176291Y316951D01*
X176833Y317260D01*
X177560Y317661D01*
X178645Y318269D01*
X179448Y318746D01*
X180078Y319159D01*
X180620Y319566D01*
X181483Y320358D01*
X182123Y321199D01*
X182562Y322105D01*
X182801Y323087D01*
X182839Y323797D01*
X182812Y324573D01*
X182611Y325723D01*
X182242Y326749D01*
X181700Y327633D01*
X181000Y328360D01*
X179600Y329196D01*
X177853Y329657D01*
X175932Y329743D01*
X174175Y329440D01*
X172921Y328913D01*
X171847Y328138D01*
X170957Y327134D01*
X170279Y325919D01*
X170160Y325604D01*
X170035Y325262D01*
X169948Y324985D01*
X169921Y324861D01*
X170062Y324817D01*
X170420Y324714D01*
X170919Y324562D01*
X171495Y324394D01*
X172081Y324226D01*
X172591Y324074D01*
X172970Y323971D01*
X173133Y323922D01*
X173193Y323966D01*
X173279Y324166D01*
X173773Y325186D01*
X174348Y325951D01*
X175016Y326477D01*
X175786Y326770D01*
X176361Y326836D01*
X176942Y326819D01*
X177897Y326537D01*
X178602Y325973D01*
X179036Y325159D01*
X179182Y324117D01*
X179014Y323249D01*
X178466Y322463D01*
X178037Y322061D01*
X177484Y321660D01*
X176692Y321182D01*
X175547Y320547D01*
X174055Y319717D01*
X172981Y319056D01*
X172173Y318459D01*
X171473Y317813D01*
X170789Y317032D01*
X170268Y316213D01*
X169910Y315323D01*
X169683Y314336D01*
X169634Y313402D01*
X169683Y312447D01*
X169840Y311661D01*
X170068Y310966D01*
X170534Y310060D01*
X171137Y309279D01*
X171891Y308623D01*
X172791Y308091D01*
X173952Y307657D01*
X175282Y307402D01*
X175705Y307369D01*
X176253Y307353D01*
X176801D01*
X177197Y307364D01*
X179068Y307782D01*
X180642Y308650D01*
X181928Y309979D01*
X182926Y311758D01*
X183051Y312084D01*
X183197Y312491D01*
X183322Y312860D01*
X183371Y313044D01*
Y313077D01*
X183208Y313126D01*
X182671Y313245D01*
X181521Y313489D01*
X180891Y313625D01*
X180365Y313739D01*
X180007Y313815D01*
X179855Y313842D01*
X179806Y313826D01*
X179757Y313657D01*
X179611Y313153D01*
X179410Y312627D01*
X178618Y311384D01*
X177549Y310559D01*
X176220Y310256D01*
X175184Y310424D01*
X174327Y310885D01*
X173697Y311617D01*
X173339Y312567D01*
X173377Y313983D01*
X173979Y313809D01*
X173925Y313212D01*
X173979Y312583D01*
X174538Y311547D01*
X175558Y310961D01*
X175813Y310918D01*
X176204Y310901D01*
X176600Y310918D01*
X176838Y310961D01*
X177609Y311324D01*
X178255Y311932D01*
X178770Y312757D01*
X179133Y313782D01*
X179215Y314118D01*
X179264Y314368D01*
X179318Y314580D01*
X179519Y314547D01*
X180045Y314444D01*
X180821Y314281D01*
X181754Y314081D01*
X184174Y313565D01*
X184076Y313196D01*
X183430Y311341D01*
X182568Y309778D01*
X181624Y308671D01*
X180517Y307793D01*
X178933Y307071D01*
X177115Y306729D01*
G37*
G36*
X166530Y318535D02*Y307022D01*
X153846D01*
Y311460D01*
X161610D01*
X161604Y314091D01*
X161593Y316723D01*
X155929D01*
Y321133D01*
X161610D01*
Y325653D01*
X154150D01*
Y330064D01*
X166530D01*
Y318535D01*
X165890Y318540D01*
X165879Y329440D01*
X154784D01*
Y326271D01*
X162244D01*
Y320488D01*
X156559D01*
Y317319D01*
X162244D01*
Y310798D01*
X154470D01*
Y307641D01*
X165896D01*
X165890Y318540D01*
X166530Y318535D01*
G37*
G36*
X189393Y308623D02*Y308617D01*
X188850Y308650D01*
X188465Y309024D01*
X188433Y309523D01*
X188693Y309919D01*
X188796Y309990D01*
Y312887D01*
X187885Y314043D01*
X186968Y315198D01*
X185980D01*
X185855Y315062D01*
X185297Y314813D01*
X184911Y314927D01*
X184635Y315214D01*
X184570Y315486D01*
X184586Y315768D01*
X184722Y316012D01*
X184944Y316202D01*
X185096Y316272D01*
X185297Y316278D01*
X185503Y316267D01*
X185655Y316202D01*
X185883Y316007D01*
X185969Y315887D01*
X187299D01*
X188389Y314504D01*
X189485Y313126D01*
Y311552D01*
X189490Y310440D01*
X189501Y309979D01*
X189632Y309887D01*
X189859Y309534D01*
X189854Y309100D01*
X189675Y308812D01*
X189393Y308623D01*
G37*
G36*
X190559Y332782D02*X190120Y332760D01*
X189669Y332782D01*
X189018Y332955D01*
X188416Y333275D01*
X187901Y333720D01*
X187494Y334268D01*
X187228Y334941D01*
X187120Y335668D01*
X187190Y336395D01*
X187423Y337079D01*
X187847Y337697D01*
X188400Y338202D01*
X189344Y338629D01*
X190353Y338716D01*
X191324Y338473D01*
X192171Y337898D01*
X192691Y337247D01*
X193001Y336482D01*
X193082Y335863D01*
X193044Y335223D01*
X192757Y334360D01*
X192209Y333628D01*
X191444Y333069D01*
X190559Y332782D01*
G37*
G54D49*X192840Y345900D02*Y355180D01*
X189824D02*X188200Y353556D01*
Y347524D02*Y353556D01*
X189824Y345900D02*X188200Y347524D01*
X189824Y345900D02*X194000D01*
X189824Y355180D02*X194000D01*
X183096D02*X185416D01*
X184256Y345900D02*Y355180D01*
X183096Y345900D02*X185416D01*
X180312D02*Y355180D01*
X174512Y345900D01*
Y355180D01*
X167088D02*X165928Y354020D01*
X167088Y355180D02*X170568D01*
X171728Y354020D02*X170568Y355180D01*
X171728Y347060D02*Y354020D01*
Y347060D02*X170568Y345900D01*
X167088D02*X170568D01*
X167088D02*X165928Y347060D01*
Y349380D01*
X167088Y350540D02*X165928Y349380D01*
X167088Y350540D02*X169408D01*
X161984Y345900D02*Y355180D01*
X158968D02*X157344Y353556D01*
Y347524D02*Y353556D01*
X158968Y345900D02*X157344Y347524D01*
X158968Y345900D02*X163144D01*
X158968Y355180D02*X163144D01*
X154560Y347060D02*Y354020D01*
X153400Y355180D01*
X151080D02*X153400D01*
X151080D02*X149920Y354020D01*
Y347060D02*Y354020D01*
X151080Y345900D02*X149920Y347060D01*
X151080Y345900D02*X153400D01*
X154560Y347060D02*X153400Y345900D01*
X147136D02*Y355180D01*
X141336Y345900D01*
Y355180D01*
X133912D02*X132752Y354020D01*
X133912Y355180D02*X137392D01*
X138552Y354020D02*X137392Y355180D01*
X138552Y347060D02*Y354020D01*
Y347060D02*X137392Y345900D01*
X133912D02*X137392D01*
X133912D02*X132752Y347060D01*
Y349380D01*
X133912Y350540D02*X132752Y349380D01*
X133912Y350540D02*X136232D01*
X125328D02*X129968D01*
X121384Y345900D02*Y355180D01*
X118368D02*X116744Y353556D01*
Y347524D02*Y353556D01*
X118368Y345900D02*X116744Y347524D01*
X118368Y345900D02*X122544D01*
X118368Y355180D02*X122544D01*
X110480Y351004D02*X113960D01*
X109320Y345900D02*X113960D01*
Y355180D01*
X109320D02*X113960D01*
X106536Y345900D02*Y355180D01*
X103056Y350540D01*
X99576Y355180D01*
Y345900D02*Y355180D01*
X96792Y347060D02*Y354020D01*
X95632Y355180D01*
X93312D02*X95632D01*
X93312D02*X92152Y354020D01*
Y347060D02*Y354020D01*
X93312Y345900D02*X92152Y347060D01*
X93312Y345900D02*X95632D01*
X96792Y347060D02*X95632Y345900D01*
X76840Y350540D02*X74520Y345900D01*
X72200Y350540D02*X74520Y345900D01*
X69416Y353324D02*X67560Y355180D01*
Y345900D02*Y355180D01*
X65936Y345900D02*X69416D01*
X61992D02*X63152D01*
X59208Y347060D02*X58048Y345900D01*
X59208Y347060D02*Y354020D01*
X58048Y355180D01*
X55728D02*X58048D01*
X55728D02*X54568Y354020D01*
Y347060D02*Y354020D01*
X55728Y345900D02*X54568Y347060D01*
X55728Y345900D02*X58048D01*
X59208Y348220D02*X54568Y352860D01*
X134360Y314400D02*X137376D01*
X139000Y316024D02*X137376Y314400D01*
X139000Y316024D02*Y322056D01*
X137376Y323680D01*
X134360D02*X137376D01*
X126936Y314400D02*X129952D01*
X131576Y316024D02*X129952Y314400D01*
X131576Y316024D02*Y322056D01*
X129952Y323680D01*
X126936D02*X129952D01*
X115336Y314400D02*X119976D01*
X115336D02*X114176Y315560D01*
Y318344D01*
X115336Y319504D02*X114176Y318344D01*
X115336Y319504D02*X118816D01*
Y314400D02*Y323680D01*
X115336D02*X119976D01*
X115336D02*X114176Y322520D01*
Y320664D02*Y322520D01*
X115336Y319504D02*X114176Y320664D01*
X111392Y323680D02*X109072Y319040D01*
X106752Y323680D01*
X109072Y314400D02*Y319040D01*
X99328D02*X103968D01*
X91904Y323680D02*X90744Y322520D01*
X91904Y323680D02*X95384D01*
X96544Y322520D02*X95384Y323680D01*
X96544Y320200D02*Y322520D01*
Y320200D02*X95384Y319040D01*
X91904D02*X95384D01*
X91904D02*X90744Y317880D01*
Y315560D02*Y317880D01*
X91904Y314400D02*X90744Y315560D01*
X91904Y314400D02*X95384D01*
X96544Y315560D02*X95384Y314400D01*
X87960D02*Y321360D01*
X86336Y323680D01*
X83784D02*X86336D01*
X83784D02*X82160Y321360D01*
Y314400D02*Y321360D01*
Y319040D02*X87960D01*
X75200Y315560D02*X74040Y314400D01*
X75200Y322520D02*X74040Y323680D01*
X75200Y315560D02*Y322520D01*
X66616Y314400D02*X69632D01*
X71256Y316024D02*X69632Y314400D01*
X71256Y316024D02*Y322056D01*
X69632Y323680D01*
X66616D02*X69632D01*
X63832D02*X62672Y322520D01*
Y315560D02*Y322520D01*
X63832Y314400D02*X62672Y315560D01*
X55712Y322520D02*X54552Y323680D01*
X51072D02*X54552D01*
X51072D02*X49912Y322520D01*
Y320200D02*Y322520D01*
X55712Y314400D02*X49912Y320200D01*
Y314400D02*X55712D01*
X47128Y315560D02*X45968Y314400D01*
X47128Y315560D02*Y322520D01*
X45968Y323680D01*
X43648D02*X45968D01*
X43648D02*X42488Y322520D01*
Y315560D02*Y322520D01*
X43648Y314400D02*X42488Y315560D01*
X43648Y314400D02*X45968D01*
X47128Y316720D02*X42488Y321360D01*
X39704Y322520D02*X38544Y323680D01*
X35064D02*X38544D01*
X35064D02*X33904Y322520D01*
Y320200D02*Y322520D01*
X39704Y314400D02*X33904Y320200D01*
Y314400D02*X39704D01*
X31120Y321824D02*X29264Y323680D01*
Y314400D02*Y323680D01*
X27640Y314400D02*X31120D01*
X194000Y289400D02*Y298680D01*
Y292880D02*X192840Y294040D01*
X190520D02*X192840D01*
X190520D02*X189360Y292880D01*
Y289400D02*Y292880D01*
X185416Y290560D02*Y298680D01*
Y290560D02*X184256Y289400D01*
Y295200D02*X186576D01*
X180776Y290560D02*Y298680D01*
Y290560D02*X179616Y289400D01*
Y295200D02*X181936D01*
X176136Y285920D02*Y292880D01*
X177296Y294040D02*X176136Y292880D01*
X174976Y294040D01*
X172656D02*X174976D01*
X172656D02*X171496Y292880D01*
Y290560D02*Y292880D01*
X172656Y289400D02*X171496Y290560D01*
X172656Y289400D02*X174976D01*
X176136Y290560D02*X174976Y289400D01*
X164072D02*X167552D01*
X164072D02*X162912Y290560D01*
X164072Y291720D02*X162912Y290560D01*
X164072Y291720D02*X167552D01*
X168712Y292880D02*X167552Y291720D01*
X168712Y292880D02*X167552Y294040D01*
X164072D02*X167552D01*
X164072D02*X162912Y292880D01*
X168712Y290560D02*X167552Y289400D01*
X158968Y295200D02*X160128D01*
X158968Y292880D02*X160128D01*
X156184Y290560D02*X149224Y297520D01*
X146440Y290560D02*X139480Y297520D01*
X136696Y290560D02*Y294040D01*
Y290560D02*X135536Y289400D01*
X134376D02*X135536D01*
X134376D02*X133216Y290560D01*
Y294040D01*
Y290560D02*X132056Y289400D01*
X130896D02*X132056D01*
X130896D02*X129736Y290560D01*
Y294040D01*
X126952Y290560D02*Y294040D01*
Y290560D02*X125792Y289400D01*
X124632D02*X125792D01*
X124632D02*X123472Y290560D01*
Y294040D01*
Y290560D02*X122312Y289400D01*
X121152D02*X122312D01*
X121152D02*X119992Y290560D01*
Y294040D01*
X117208Y290560D02*Y294040D01*
Y290560D02*X116048Y289400D01*
X114888D02*X116048D01*
X114888D02*X113728Y290560D01*
Y294040D01*
Y290560D02*X112568Y289400D01*
X111408D02*X112568D01*
X111408D02*X110248Y290560D01*
Y294040D01*
X106304Y289400D02*X107464D01*
G54D50*X103520Y296128D02*Y296360D01*
G54D49*Y289400D02*Y292880D01*
X97720Y294040D02*X96560Y292880D01*
X97720Y294040D02*X100040D01*
X101200Y292880D02*X100040Y294040D01*
X101200Y290560D02*Y292880D01*
Y290560D02*X100040Y289400D01*
X96560Y290560D02*Y294040D01*
Y290560D02*X95400Y289400D01*
X97720D02*X100040D01*
X97720D02*X96560Y290560D01*
X87976Y289400D02*X91456D01*
X87976D02*X86816Y290560D01*
X87976Y291720D02*X86816Y290560D01*
X87976Y291720D02*X91456D01*
X92616Y292880D02*X91456Y291720D01*
X92616Y292880D02*X91456Y294040D01*
X87976D02*X91456D01*
X87976D02*X86816Y292880D01*
X92616Y290560D02*X91456Y289400D01*
X79392Y294040D02*X82872D01*
X84032Y292880D02*X82872Y294040D01*
X84032Y290560D02*Y292880D01*
Y290560D02*X82872Y289400D01*
X79392D02*X82872D01*
X73128Y294040D02*X71968Y292880D01*
X73128Y294040D02*X75448D01*
X76608Y292880D02*X75448Y294040D01*
X76608Y290560D02*Y292880D01*
Y290560D02*X75448Y289400D01*
X71968Y290560D02*Y294040D01*
Y290560D02*X70808Y289400D01*
X73128D02*X75448D01*
X73128D02*X71968Y290560D01*
X68024D02*Y298680D01*
Y290560D02*X66864Y289400D01*
X59904D02*X63384D01*
X64544Y290560D02*X63384Y289400D01*
X64544Y290560D02*Y292880D01*
X63384Y294040D01*
X61064D02*X63384D01*
X61064D02*X59904Y292880D01*
Y291720D02*X64544D01*
X59904D02*Y292880D01*
X52480Y289400D02*Y298680D01*
X53640Y289400D02*X52480Y290560D01*
X53640Y289400D02*X55960D01*
X57120Y290560D02*X55960Y289400D01*
X57120Y290560D02*Y292880D01*
X55960Y294040D01*
X53640D02*X55960D01*
X53640D02*X52480Y292880D01*
X48536Y289400D02*X49696D01*
X41112Y294040D02*X44592D01*
X45752Y292880D02*X44592Y294040D01*
X45752Y290560D02*Y292880D01*
Y290560D02*X44592Y289400D01*
X41112D02*X44592D01*
X38328Y290560D02*Y292880D01*
X37168Y294040D01*
X34848D02*X37168D01*
X34848D02*X33688Y292880D01*
Y290560D02*Y292880D01*
X34848Y289400D02*X33688Y290560D01*
X34848Y289400D02*X37168D01*
X38328Y290560D02*X37168Y289400D01*
X29744D02*Y292880D01*
X28584Y294040D01*
X27424D02*X28584D01*
X27424D02*X26264Y292880D01*
Y289400D02*Y292880D01*
X25104Y294040D01*
X23944D02*X25104D01*
X23944D02*X22784Y292880D01*
Y289400D02*Y292880D01*
X30904Y294040D02*X29744Y292880D01*
G54D51*X167000Y499500D02*Y470000D01*
X133000Y499500D02*X167000D01*
X133000D02*Y443500D01*
X138000D01*
X167000Y447500D02*Y443500D01*
X162000D02*X167000D01*
X133000Y499500D02*X167000D01*
X133000Y499000D02*X167000D01*
X133000Y498500D02*X167000D01*
X133000Y498000D02*X167000D01*
X133000Y497500D02*X167000D01*
X133000Y497000D02*X167000D01*
X133000Y496500D02*X167000D01*
X133000Y496000D02*X167000D01*
X133000Y486500D02*X167000D01*
X133000Y487000D02*X167000D01*
X133000Y487500D02*X167000D01*
X133000Y488000D02*X167000D01*
X133000Y488500D02*X167000D01*
X133000Y489000D02*X167000D01*
X133000Y489500D02*X167000D01*
X133000Y490000D02*X167000D01*
G54D52*X130000Y166500D02*X129500Y166000D01*
X130000Y166500D02*X131500D01*
X132000Y166000D02*X131500Y166500D01*
X132000Y165000D02*Y166000D01*
Y165000D02*X131500Y164500D01*
X130000D02*X131500D01*
X130000D02*X129500Y164000D01*
Y163000D02*Y164000D01*
X130000Y162500D02*X129500Y163000D01*
X130000Y162500D02*X131500D01*
X132000Y163000D02*X131500Y162500D01*
X128300Y164500D02*Y166500D01*
Y164500D02*X127800Y162500D01*
X126800Y164500D01*
X125800Y162500D01*
X125300Y164500D01*
Y166500D01*
X124100Y165700D02*X123300Y166500D01*
Y162500D02*Y166500D01*
X122600Y162500D02*X124100D01*
X119400D02*X121400D01*
X119400D02*X118900Y163000D01*
Y164200D01*
X119400Y164700D02*X118900Y164200D01*
X119400Y164700D02*X120900D01*
Y162500D02*Y166500D01*
X119400D02*X121400D01*
X119400D02*X118900Y166000D01*
Y165200D02*Y166000D01*
X119400Y164700D02*X118900Y165200D01*
X179500Y166500D02*X179000Y166000D01*
X179500Y166500D02*X181000D01*
X181500Y166000D02*X181000Y166500D01*
X181500Y165000D02*Y166000D01*
Y165000D02*X181000Y164500D01*
X179500D02*X181000D01*
X179500D02*X179000Y164000D01*
Y163000D02*Y164000D01*
X179500Y162500D02*X179000Y163000D01*
X179500Y162500D02*X181000D01*
X181500Y163000D02*X181000Y162500D01*
X177800Y164500D02*Y166500D01*
Y164500D02*X177300Y162500D01*
X176300Y164500D01*
X175300Y162500D01*
X174800Y164500D01*
Y166500D01*
X173600Y165700D02*X172800Y166500D01*
Y162500D02*Y166500D01*
X172100Y162500D02*X173600D01*
X170900D02*Y165500D01*
X170200Y166500D01*
X169100D02*X170200D01*
X169100D02*X168400Y165500D01*
Y162500D02*Y165500D01*
Y164500D02*X170900D01*
X189500Y402000D02*X190300D01*
X189500Y398500D02*Y402000D01*
X190000Y398000D02*X189500Y398500D01*
X190000Y398000D02*X190500D01*
X191000Y398500D02*X190500Y398000D01*
X191000Y398500D02*Y399000D01*
X188300Y401500D02*X187800Y402000D01*
X186300D02*X187800D01*
X186300D02*X185800Y401500D01*
Y400500D02*Y401500D01*
X188300Y398000D02*X185800Y400500D01*
Y398000D02*X188300D01*
X112500Y402000D02*X113300D01*
X112500Y398500D02*Y402000D01*
X113000Y398000D02*X112500Y398500D01*
X113000Y398000D02*X113500D01*
X114000Y398500D02*X113500Y398000D01*
X114000Y398500D02*Y399000D01*
X111300Y401500D02*X110800Y402000D01*
X109800D02*X110800D01*
X109800D02*X109300Y401500D01*
X109800Y398000D02*X109300Y398500D01*
X109800Y398000D02*X110800D01*
X111300Y398500D02*X110800Y398000D01*
X109800Y400200D02*X110800D01*
X109300Y400700D02*Y401500D01*
Y398500D02*Y399700D01*
X109800Y400200D01*
X109300Y400700D02*X109800Y400200D01*
X202800Y420500D02*X203600D01*
X202800Y417000D02*Y420500D01*
X203300Y416500D02*X202800Y417000D01*
X203300Y416500D02*X203800D01*
X204300Y417000D02*X203800Y416500D01*
X204300Y417000D02*Y417500D01*
X201100Y416500D02*Y420500D01*
X199600D02*X201600D01*
X199600D02*X199100Y420000D01*
Y419000D02*Y420000D01*
X199600Y418500D02*X199100Y419000D01*
X199600Y418500D02*X201100D01*
X197900Y420000D02*X197400Y420500D01*
X195900D02*X197400D01*
X195900D02*X195400Y420000D01*
Y419000D02*Y420000D01*
X197900Y416500D02*X195400Y419000D01*
Y416500D02*X197900D01*
X199500Y465500D02*X200300D01*
X199500Y462000D02*Y465500D01*
X200000Y461500D02*X199500Y462000D01*
X200000Y461500D02*X200500D01*
X201000Y462000D02*X200500Y461500D01*
X201000Y462000D02*Y462500D01*
X198300Y464700D02*X197500Y465500D01*
Y461500D02*Y465500D01*
X196800Y461500D02*X198300D01*
X127000Y460000D02*X127800D01*
X127000Y456500D02*Y460000D01*
X127500Y456000D02*X127000Y456500D01*
X127500Y456000D02*X128000D01*
X128500Y456500D02*X128000Y456000D01*
X128500Y456500D02*Y457000D01*
X125800Y457500D02*X123800Y460000D01*
X123300Y457500D02*X125800D01*
X123800Y456000D02*Y460000D01*
X169200Y439000D02*X170000D01*
X169200Y435500D02*Y439000D01*
X169700Y435000D02*X169200Y435500D01*
X169700Y435000D02*X170200D01*
X170700Y435500D02*X170200Y435000D01*
X170700Y435500D02*Y436000D01*
X167500Y435000D02*Y439000D01*
X166000D02*X168000D01*
X166000D02*X165500Y438500D01*
Y437500D02*Y438500D01*
X166000Y437000D02*X165500Y437500D01*
X166000Y437000D02*X167500D01*
X164300Y438200D02*X163500Y439000D01*
Y435000D02*Y439000D01*
X162800Y435000D02*X164300D01*
M02*
