G04 start of page 11 for group -4014 idx -4014 *
G04 Title: (unknown), bottompaste *
G04 Creator: pcb 4.0.2 *
G04 CreationDate: Wed Jun 16 02:35:33 2021 UTC *
G04 For: railfan *
G04 Format: Gerber/RS-274X *
G04 PCB-Dimensions (mil): 3000.00 5000.00 *
G04 PCB-Coordinate-Origin: lower left *
%MOIN*%
%FSLAX25Y25*%
%LNBOTTOMPASTE*%
%ADD54C,0.0600*%
%ADD53C,0.0001*%
G54D53*G36*
X196949Y407087D02*Y404725D01*
X203051D01*
Y407087D01*
X196949D01*
G37*
G36*
Y403150D02*Y400788D01*
X203051D01*
Y403150D01*
X196949D01*
G37*
G36*
Y399212D02*Y396850D01*
X203051D01*
Y399212D01*
X196949D01*
G37*
G36*
Y395275D02*Y392913D01*
X203051D01*
Y395275D01*
X196949D01*
G37*
G36*
X211713Y413386D02*Y408662D01*
X218799D01*
Y413386D01*
X211713D01*
G37*
G36*
Y391338D02*Y386614D01*
X218799D01*
Y391338D01*
X211713D01*
G37*
G36*
X96949Y395275D02*Y392913D01*
X103051D01*
Y395275D01*
X96949D01*
G37*
G36*
Y399212D02*Y396850D01*
X103051D01*
Y399212D01*
X96949D01*
G37*
G36*
Y403150D02*Y400788D01*
X103051D01*
Y403150D01*
X96949D01*
G37*
G36*
Y407087D02*Y404725D01*
X103051D01*
Y407087D01*
X96949D01*
G37*
G36*
X81201Y391338D02*Y386614D01*
X88287D01*
Y391338D01*
X81201D01*
G37*
G36*
Y413386D02*Y408662D01*
X88287D01*
Y413386D01*
X81201D01*
G37*
G54D54*X183700Y418500D03*
G54D53*G36*
X186700Y421500D02*X183700D01*
Y415500D01*
X186700D01*
Y421500D01*
G37*
G54D54*X190500Y418500D03*
G54D53*G36*
Y421500D02*X187500D01*
Y415500D01*
X190500D01*
Y421500D01*
G37*
G36*
X130000Y160000D02*X120000D01*
Y140000D01*
X130000D01*
Y160000D01*
G37*
G36*
X180000D02*X170000D01*
Y140000D01*
X180000D01*
Y160000D01*
G37*
G36*
X182449Y451087D02*Y448725D01*
X188551D01*
Y451087D01*
X182449D01*
G37*
G36*
Y447150D02*Y444788D01*
X188551D01*
Y447150D01*
X182449D01*
G37*
G36*
Y443212D02*Y440850D01*
X188551D01*
Y443212D01*
X182449D01*
G37*
G36*
Y439275D02*Y436913D01*
X188551D01*
Y439275D01*
X182449D01*
G37*
G36*
X197213Y457386D02*Y452662D01*
X204299D01*
Y457386D01*
X197213D01*
G37*
G36*
Y435338D02*Y430614D01*
X204299D01*
Y435338D01*
X197213D01*
G37*
G54D54*X163100Y430000D03*
G54D53*G36*
X166100Y433000D02*X163100D01*
Y427000D01*
X166100D01*
Y433000D01*
G37*
G54D54*X169900Y430000D03*
G54D53*G36*
Y433000D02*X166900D01*
Y427000D01*
X169900D01*
Y433000D01*
G37*
M02*
