G04 start of page 4 for group 2 idx 2 *
G04 Title: (unknown), outline *
G04 Creator: pcb 4.0.2 *
G04 CreationDate: Wed Jun 16 02:35:33 2021 UTC *
G04 For: railfan *
G04 Format: Gerber/RS-274X *
G04 PCB-Dimensions (mil): 3000.00 5000.00 *
G04 PCB-Coordinate-Origin: lower left *
%MOIN*%
%FSLAX25Y25*%
%LNOUTLINE*%
%ADD34C,0.0080*%
%ADD33C,0.0100*%
G54D33*X300000Y0D02*Y500000D01*
X0D01*
X225000Y461500D02*Y426500D01*
X240000D01*
Y461500D01*
X225000D01*
X0Y500000D02*Y0D01*
X300000D01*
X150000Y42500D02*G75*G03X150000Y42500I0J37500D01*G01*
G54D34*X137641Y76850D02*X139760D01*
X136500Y77991D02*X137641Y76850D01*
X136500Y82229D02*Y77991D01*
Y82229D02*X137641Y83370D01*
X139760D01*
X141716D02*Y77665D01*
X142531Y76850D01*
X144161D01*
X144976Y77665D01*
Y83370D02*Y77665D01*
X146932Y83370D02*X150192D01*
X148562D02*Y76850D01*
X152148Y82555D02*Y77665D01*
Y82555D02*X152963Y83370D01*
X154593D01*
X155408Y82555D01*
Y77665D01*
X154593Y76850D02*X155408Y77665D01*
X152963Y76850D02*X154593D01*
X152148Y77665D02*X152963Y76850D01*
X157364Y83370D02*Y77665D01*
X158179Y76850D01*
X159809D01*
X160624Y77665D01*
Y83370D02*Y77665D01*
X162580Y83370D02*X165840D01*
X164210D02*Y76850D01*
X235650Y432260D02*Y430141D01*
X234509Y429000D02*X235650Y430141D01*
X230271Y429000D02*X234509D01*
X230271D02*X229130Y430141D01*
Y432260D02*Y430141D01*
Y434216D02*X234835D01*
X235650Y435031D01*
Y436661D02*Y435031D01*
Y436661D02*X234835Y437476D01*
X229130D02*X234835D01*
X229130Y442692D02*Y439432D01*
Y441062D02*X235650D01*
X229945Y444648D02*X234835D01*
X229945D02*X229130Y445463D01*
Y447093D02*Y445463D01*
Y447093D02*X229945Y447908D01*
X234835D01*
X235650Y447093D02*X234835Y447908D01*
X235650Y447093D02*Y445463D01*
X234835Y444648D02*X235650Y445463D01*
X229130Y449864D02*X234835D01*
X235650Y450679D01*
Y452309D02*Y450679D01*
Y452309D02*X234835Y453124D01*
X229130D02*X234835D01*
X229130Y458340D02*Y455080D01*
Y456710D02*X235650D01*
M02*
