G04 #@! TF.GenerationSoftware,KiCad,Pcbnew,6.0.2+dfsg-1*
G04 #@! TF.CreationDate,2024-01-21T16:33:43-07:00*
G04 #@! TF.ProjectId,ckt-dingdong-spk-array,636b742d-6469-46e6-9764-6f6e672d7370,rev?*
G04 #@! TF.SameCoordinates,Original*
G04 #@! TF.FileFunction,Legend,Top*
G04 #@! TF.FilePolarity,Positive*
%FSLAX46Y46*%
G04 Gerber Fmt 4.6, Leading zero omitted, Abs format (unit mm)*
G04 Created by KiCad (PCBNEW 6.0.2+dfsg-1) date 2024-01-21 16:33:43*
%MOMM*%
%LPD*%
G01*
G04 APERTURE LIST*
%ADD10C,0.152400*%
%ADD11C,0.150000*%
%ADD12C,0.120000*%
G04 APERTURE END LIST*
D10*
X169231238Y-46738217D02*
X169182857Y-46786598D01*
X169037714Y-46834979D01*
X168940952Y-46834979D01*
X168795809Y-46786598D01*
X168699047Y-46689836D01*
X168650666Y-46593074D01*
X168602285Y-46399550D01*
X168602285Y-46254407D01*
X168650666Y-46060883D01*
X168699047Y-45964121D01*
X168795809Y-45867360D01*
X168940952Y-45818979D01*
X169037714Y-45818979D01*
X169182857Y-45867360D01*
X169231238Y-45915740D01*
X169666666Y-46834979D02*
X169666666Y-45818979D01*
X170247238Y-46834979D02*
X169811809Y-46254407D01*
X170247238Y-45818979D02*
X169666666Y-46399550D01*
X170537523Y-45818979D02*
X171118095Y-45818979D01*
X170827809Y-46834979D02*
X170827809Y-45818979D01*
X171456761Y-46447931D02*
X172230857Y-46447931D01*
X172714666Y-46834979D02*
X172714666Y-45818979D01*
X172956571Y-45818979D01*
X173101714Y-45867360D01*
X173198476Y-45964121D01*
X173246857Y-46060883D01*
X173295238Y-46254407D01*
X173295238Y-46399550D01*
X173246857Y-46593074D01*
X173198476Y-46689836D01*
X173101714Y-46786598D01*
X172956571Y-46834979D01*
X172714666Y-46834979D01*
X173730666Y-46834979D02*
X173730666Y-45818979D01*
X174214476Y-46834979D02*
X174214476Y-45818979D01*
X174795047Y-46834979D01*
X174795047Y-45818979D01*
X175811047Y-45867360D02*
X175714285Y-45818979D01*
X175569142Y-45818979D01*
X175424000Y-45867360D01*
X175327238Y-45964121D01*
X175278857Y-46060883D01*
X175230476Y-46254407D01*
X175230476Y-46399550D01*
X175278857Y-46593074D01*
X175327238Y-46689836D01*
X175424000Y-46786598D01*
X175569142Y-46834979D01*
X175665904Y-46834979D01*
X175811047Y-46786598D01*
X175859428Y-46738217D01*
X175859428Y-46399550D01*
X175665904Y-46399550D01*
X176294857Y-46834979D02*
X176294857Y-45818979D01*
X176536761Y-45818979D01*
X176681904Y-45867360D01*
X176778666Y-45964121D01*
X176827047Y-46060883D01*
X176875428Y-46254407D01*
X176875428Y-46399550D01*
X176827047Y-46593074D01*
X176778666Y-46689836D01*
X176681904Y-46786598D01*
X176536761Y-46834979D01*
X176294857Y-46834979D01*
X177504380Y-45818979D02*
X177697904Y-45818979D01*
X177794666Y-45867360D01*
X177891428Y-45964121D01*
X177939809Y-46157645D01*
X177939809Y-46496312D01*
X177891428Y-46689836D01*
X177794666Y-46786598D01*
X177697904Y-46834979D01*
X177504380Y-46834979D01*
X177407619Y-46786598D01*
X177310857Y-46689836D01*
X177262476Y-46496312D01*
X177262476Y-46157645D01*
X177310857Y-45964121D01*
X177407619Y-45867360D01*
X177504380Y-45818979D01*
X178375238Y-46834979D02*
X178375238Y-45818979D01*
X178955809Y-46834979D01*
X178955809Y-45818979D01*
X179971809Y-45867360D02*
X179875047Y-45818979D01*
X179729904Y-45818979D01*
X179584761Y-45867360D01*
X179488000Y-45964121D01*
X179439619Y-46060883D01*
X179391238Y-46254407D01*
X179391238Y-46399550D01*
X179439619Y-46593074D01*
X179488000Y-46689836D01*
X179584761Y-46786598D01*
X179729904Y-46834979D01*
X179826666Y-46834979D01*
X179971809Y-46786598D01*
X180020190Y-46738217D01*
X180020190Y-46399550D01*
X179826666Y-46399550D01*
X180455619Y-46447931D02*
X181229714Y-46447931D01*
X181665142Y-46786598D02*
X181810285Y-46834979D01*
X182052190Y-46834979D01*
X182148952Y-46786598D01*
X182197333Y-46738217D01*
X182245714Y-46641455D01*
X182245714Y-46544693D01*
X182197333Y-46447931D01*
X182148952Y-46399550D01*
X182052190Y-46351169D01*
X181858666Y-46302788D01*
X181761904Y-46254407D01*
X181713523Y-46206026D01*
X181665142Y-46109264D01*
X181665142Y-46012502D01*
X181713523Y-45915740D01*
X181761904Y-45867360D01*
X181858666Y-45818979D01*
X182100571Y-45818979D01*
X182245714Y-45867360D01*
X182681142Y-46834979D02*
X182681142Y-45818979D01*
X183068190Y-45818979D01*
X183164952Y-45867360D01*
X183213333Y-45915740D01*
X183261714Y-46012502D01*
X183261714Y-46157645D01*
X183213333Y-46254407D01*
X183164952Y-46302788D01*
X183068190Y-46351169D01*
X182681142Y-46351169D01*
X183697142Y-46834979D02*
X183697142Y-45818979D01*
X184277714Y-46834979D02*
X183842285Y-46254407D01*
X184277714Y-45818979D02*
X183697142Y-46399550D01*
X174988571Y-47793405D02*
X175230476Y-48470739D01*
X175472380Y-47793405D01*
X175811047Y-47551500D02*
X175859428Y-47503120D01*
X175956190Y-47454739D01*
X176198095Y-47454739D01*
X176294857Y-47503120D01*
X176343238Y-47551500D01*
X176391619Y-47648262D01*
X176391619Y-47745024D01*
X176343238Y-47890167D01*
X175762666Y-48470739D01*
X176391619Y-48470739D01*
X176827047Y-48373977D02*
X176875428Y-48422358D01*
X176827047Y-48470739D01*
X176778666Y-48422358D01*
X176827047Y-48373977D01*
X176827047Y-48470739D01*
X177504380Y-47454739D02*
X177601142Y-47454739D01*
X177697904Y-47503120D01*
X177746285Y-47551500D01*
X177794666Y-47648262D01*
X177843047Y-47841786D01*
X177843047Y-48083691D01*
X177794666Y-48277215D01*
X177746285Y-48373977D01*
X177697904Y-48422358D01*
X177601142Y-48470739D01*
X177504380Y-48470739D01*
X177407619Y-48422358D01*
X177359238Y-48373977D01*
X177310857Y-48277215D01*
X177262476Y-48083691D01*
X177262476Y-47841786D01*
X177310857Y-47648262D01*
X177359238Y-47551500D01*
X177407619Y-47503120D01*
X177504380Y-47454739D01*
X167247619Y-50106499D02*
X167247619Y-49090499D01*
X167876571Y-50106499D02*
X167779809Y-50058118D01*
X167731428Y-50009737D01*
X167683047Y-49912975D01*
X167683047Y-49622689D01*
X167731428Y-49525927D01*
X167779809Y-49477546D01*
X167876571Y-49429165D01*
X168021714Y-49429165D01*
X168118476Y-49477546D01*
X168166857Y-49525927D01*
X168215238Y-49622689D01*
X168215238Y-49912975D01*
X168166857Y-50009737D01*
X168118476Y-50058118D01*
X168021714Y-50106499D01*
X167876571Y-50106499D01*
X168553904Y-49429165D02*
X168747428Y-50106499D01*
X168940952Y-49622689D01*
X169134476Y-50106499D01*
X169328000Y-49429165D01*
X170150476Y-50106499D02*
X170150476Y-49574308D01*
X170102095Y-49477546D01*
X170005333Y-49429165D01*
X169811809Y-49429165D01*
X169715047Y-49477546D01*
X170150476Y-50058118D02*
X170053714Y-50106499D01*
X169811809Y-50106499D01*
X169715047Y-50058118D01*
X169666666Y-49961356D01*
X169666666Y-49864594D01*
X169715047Y-49767832D01*
X169811809Y-49719451D01*
X170053714Y-49719451D01*
X170150476Y-49671070D01*
X171360000Y-50058118D02*
X171505142Y-50106499D01*
X171747047Y-50106499D01*
X171843809Y-50058118D01*
X171892190Y-50009737D01*
X171940571Y-49912975D01*
X171940571Y-49816213D01*
X171892190Y-49719451D01*
X171843809Y-49671070D01*
X171747047Y-49622689D01*
X171553523Y-49574308D01*
X171456761Y-49525927D01*
X171408380Y-49477546D01*
X171360000Y-49380784D01*
X171360000Y-49284022D01*
X171408380Y-49187260D01*
X171456761Y-49138880D01*
X171553523Y-49090499D01*
X171795428Y-49090499D01*
X171940571Y-49138880D01*
X172811428Y-50058118D02*
X172714666Y-50106499D01*
X172521142Y-50106499D01*
X172424380Y-50058118D01*
X172376000Y-50009737D01*
X172327619Y-49912975D01*
X172327619Y-49622689D01*
X172376000Y-49525927D01*
X172424380Y-49477546D01*
X172521142Y-49429165D01*
X172714666Y-49429165D01*
X172811428Y-49477546D01*
X173682285Y-50106499D02*
X173682285Y-49574308D01*
X173633904Y-49477546D01*
X173537142Y-49429165D01*
X173343619Y-49429165D01*
X173246857Y-49477546D01*
X173682285Y-50058118D02*
X173585523Y-50106499D01*
X173343619Y-50106499D01*
X173246857Y-50058118D01*
X173198476Y-49961356D01*
X173198476Y-49864594D01*
X173246857Y-49767832D01*
X173343619Y-49719451D01*
X173585523Y-49719451D01*
X173682285Y-49671070D01*
X174311238Y-50106499D02*
X174214476Y-50058118D01*
X174166095Y-49961356D01*
X174166095Y-49090499D01*
X175085333Y-50058118D02*
X174988571Y-50106499D01*
X174795047Y-50106499D01*
X174698285Y-50058118D01*
X174649904Y-49961356D01*
X174649904Y-49574308D01*
X174698285Y-49477546D01*
X174795047Y-49429165D01*
X174988571Y-49429165D01*
X175085333Y-49477546D01*
X175133714Y-49574308D01*
X175133714Y-49671070D01*
X174649904Y-49767832D01*
X176004571Y-50106499D02*
X176004571Y-49090499D01*
X176004571Y-50058118D02*
X175907809Y-50106499D01*
X175714285Y-50106499D01*
X175617523Y-50058118D01*
X175569142Y-50009737D01*
X175520761Y-49912975D01*
X175520761Y-49622689D01*
X175569142Y-49525927D01*
X175617523Y-49477546D01*
X175714285Y-49429165D01*
X175907809Y-49429165D01*
X176004571Y-49477546D01*
X177262476Y-49574308D02*
X177601142Y-49574308D01*
X177746285Y-50106499D02*
X177262476Y-50106499D01*
X177262476Y-49090499D01*
X177746285Y-49090499D01*
X178181714Y-49429165D02*
X178181714Y-50106499D01*
X178181714Y-49525927D02*
X178230095Y-49477546D01*
X178326857Y-49429165D01*
X178472000Y-49429165D01*
X178568761Y-49477546D01*
X178617142Y-49574308D01*
X178617142Y-50106499D01*
X179536380Y-49429165D02*
X179536380Y-50251641D01*
X179488000Y-50348403D01*
X179439619Y-50396784D01*
X179342857Y-50445165D01*
X179197714Y-50445165D01*
X179100952Y-50396784D01*
X179536380Y-50058118D02*
X179439619Y-50106499D01*
X179246095Y-50106499D01*
X179149333Y-50058118D01*
X179100952Y-50009737D01*
X179052571Y-49912975D01*
X179052571Y-49622689D01*
X179100952Y-49525927D01*
X179149333Y-49477546D01*
X179246095Y-49429165D01*
X179439619Y-49429165D01*
X179536380Y-49477546D01*
X180020190Y-50106499D02*
X180020190Y-49429165D01*
X180020190Y-49090499D02*
X179971809Y-49138880D01*
X180020190Y-49187260D01*
X180068571Y-49138880D01*
X180020190Y-49090499D01*
X180020190Y-49187260D01*
X180504000Y-49429165D02*
X180504000Y-50106499D01*
X180504000Y-49525927D02*
X180552380Y-49477546D01*
X180649142Y-49429165D01*
X180794285Y-49429165D01*
X180891047Y-49477546D01*
X180939428Y-49574308D01*
X180939428Y-50106499D01*
X181810285Y-50058118D02*
X181713523Y-50106499D01*
X181520000Y-50106499D01*
X181423238Y-50058118D01*
X181374857Y-49961356D01*
X181374857Y-49574308D01*
X181423238Y-49477546D01*
X181520000Y-49429165D01*
X181713523Y-49429165D01*
X181810285Y-49477546D01*
X181858666Y-49574308D01*
X181858666Y-49671070D01*
X181374857Y-49767832D01*
X182681142Y-50058118D02*
X182584380Y-50106499D01*
X182390857Y-50106499D01*
X182294095Y-50058118D01*
X182245714Y-49961356D01*
X182245714Y-49574308D01*
X182294095Y-49477546D01*
X182390857Y-49429165D01*
X182584380Y-49429165D01*
X182681142Y-49477546D01*
X182729523Y-49574308D01*
X182729523Y-49671070D01*
X182245714Y-49767832D01*
X183164952Y-50106499D02*
X183164952Y-49429165D01*
X183164952Y-49622689D02*
X183213333Y-49525927D01*
X183261714Y-49477546D01*
X183358476Y-49429165D01*
X183455238Y-49429165D01*
X183793904Y-50106499D02*
X183793904Y-49429165D01*
X183793904Y-49090499D02*
X183745523Y-49138880D01*
X183793904Y-49187260D01*
X183842285Y-49138880D01*
X183793904Y-49090499D01*
X183793904Y-49187260D01*
X184277714Y-49429165D02*
X184277714Y-50106499D01*
X184277714Y-49525927D02*
X184326095Y-49477546D01*
X184422857Y-49429165D01*
X184568000Y-49429165D01*
X184664761Y-49477546D01*
X184713142Y-49574308D01*
X184713142Y-50106499D01*
X185632380Y-49429165D02*
X185632380Y-50251641D01*
X185584000Y-50348403D01*
X185535619Y-50396784D01*
X185438857Y-50445165D01*
X185293714Y-50445165D01*
X185196952Y-50396784D01*
X185632380Y-50058118D02*
X185535619Y-50106499D01*
X185342095Y-50106499D01*
X185245333Y-50058118D01*
X185196952Y-50009737D01*
X185148571Y-49912975D01*
X185148571Y-49622689D01*
X185196952Y-49525927D01*
X185245333Y-49477546D01*
X185342095Y-49429165D01*
X185535619Y-49429165D01*
X185632380Y-49477546D01*
X170416571Y-50968163D02*
X170319809Y-50919782D01*
X170126285Y-50919782D01*
X170029523Y-50968163D01*
X169932761Y-51064925D01*
X169884380Y-51161687D01*
X169884380Y-51355211D01*
X169932761Y-51451973D01*
X170029523Y-51548735D01*
X170126285Y-51597116D01*
X170319809Y-51597116D01*
X170416571Y-51548735D01*
X170223047Y-50581116D02*
X169981142Y-50629497D01*
X169739238Y-50774640D01*
X169594095Y-51016544D01*
X169545714Y-51258449D01*
X169594095Y-51500354D01*
X169739238Y-51742259D01*
X169981142Y-51887401D01*
X170223047Y-51935782D01*
X170464952Y-51887401D01*
X170706857Y-51742259D01*
X170852000Y-51500354D01*
X170900380Y-51258449D01*
X170852000Y-51016544D01*
X170706857Y-50774640D01*
X170464952Y-50629497D01*
X170223047Y-50581116D01*
X171287428Y-50823020D02*
X171335809Y-50774640D01*
X171432571Y-50726259D01*
X171674476Y-50726259D01*
X171771238Y-50774640D01*
X171819619Y-50823020D01*
X171868000Y-50919782D01*
X171868000Y-51016544D01*
X171819619Y-51161687D01*
X171239047Y-51742259D01*
X171868000Y-51742259D01*
X172496952Y-50726259D02*
X172593714Y-50726259D01*
X172690476Y-50774640D01*
X172738857Y-50823020D01*
X172787238Y-50919782D01*
X172835619Y-51113306D01*
X172835619Y-51355211D01*
X172787238Y-51548735D01*
X172738857Y-51645497D01*
X172690476Y-51693878D01*
X172593714Y-51742259D01*
X172496952Y-51742259D01*
X172400190Y-51693878D01*
X172351809Y-51645497D01*
X172303428Y-51548735D01*
X172255047Y-51355211D01*
X172255047Y-51113306D01*
X172303428Y-50919782D01*
X172351809Y-50823020D01*
X172400190Y-50774640D01*
X172496952Y-50726259D01*
X173222666Y-50823020D02*
X173271047Y-50774640D01*
X173367809Y-50726259D01*
X173609714Y-50726259D01*
X173706476Y-50774640D01*
X173754857Y-50823020D01*
X173803238Y-50919782D01*
X173803238Y-51016544D01*
X173754857Y-51161687D01*
X173174285Y-51742259D01*
X173803238Y-51742259D01*
X174141904Y-50726259D02*
X174770857Y-50726259D01*
X174432190Y-51113306D01*
X174577333Y-51113306D01*
X174674095Y-51161687D01*
X174722476Y-51210068D01*
X174770857Y-51306830D01*
X174770857Y-51548735D01*
X174722476Y-51645497D01*
X174674095Y-51693878D01*
X174577333Y-51742259D01*
X174287047Y-51742259D01*
X174190285Y-51693878D01*
X174141904Y-51645497D01*
X176560952Y-51645497D02*
X176512571Y-51693878D01*
X176367428Y-51742259D01*
X176270666Y-51742259D01*
X176125523Y-51693878D01*
X176028761Y-51597116D01*
X175980380Y-51500354D01*
X175932000Y-51306830D01*
X175932000Y-51161687D01*
X175980380Y-50968163D01*
X176028761Y-50871401D01*
X176125523Y-50774640D01*
X176270666Y-50726259D01*
X176367428Y-50726259D01*
X176512571Y-50774640D01*
X176560952Y-50823020D01*
X177576952Y-51645497D02*
X177528571Y-51693878D01*
X177383428Y-51742259D01*
X177286666Y-51742259D01*
X177141523Y-51693878D01*
X177044761Y-51597116D01*
X176996380Y-51500354D01*
X176948000Y-51306830D01*
X176948000Y-51161687D01*
X176996380Y-50968163D01*
X177044761Y-50871401D01*
X177141523Y-50774640D01*
X177286666Y-50726259D01*
X177383428Y-50726259D01*
X177528571Y-50774640D01*
X177576952Y-50823020D01*
X179125142Y-51210068D02*
X179270285Y-51258449D01*
X179318666Y-51306830D01*
X179367047Y-51403592D01*
X179367047Y-51548735D01*
X179318666Y-51645497D01*
X179270285Y-51693878D01*
X179173523Y-51742259D01*
X178786476Y-51742259D01*
X178786476Y-50726259D01*
X179125142Y-50726259D01*
X179221904Y-50774640D01*
X179270285Y-50823020D01*
X179318666Y-50919782D01*
X179318666Y-51016544D01*
X179270285Y-51113306D01*
X179221904Y-51161687D01*
X179125142Y-51210068D01*
X178786476Y-51210068D01*
X179996000Y-51258449D02*
X179996000Y-51742259D01*
X179657333Y-50726259D02*
X179996000Y-51258449D01*
X180334666Y-50726259D01*
X180673333Y-51355211D02*
X181447428Y-51355211D01*
X181882857Y-51693878D02*
X182028000Y-51742259D01*
X182269904Y-51742259D01*
X182366666Y-51693878D01*
X182415047Y-51645497D01*
X182463428Y-51548735D01*
X182463428Y-51451973D01*
X182415047Y-51355211D01*
X182366666Y-51306830D01*
X182269904Y-51258449D01*
X182076380Y-51210068D01*
X181979619Y-51161687D01*
X181931238Y-51113306D01*
X181882857Y-51016544D01*
X181882857Y-50919782D01*
X181931238Y-50823020D01*
X181979619Y-50774640D01*
X182076380Y-50726259D01*
X182318285Y-50726259D01*
X182463428Y-50774640D01*
X182850476Y-51451973D02*
X183334285Y-51451973D01*
X182753714Y-51742259D02*
X183092380Y-50726259D01*
X183431047Y-51742259D01*
X141291238Y-74678217D02*
X141242857Y-74726598D01*
X141097714Y-74774979D01*
X141000952Y-74774979D01*
X140855809Y-74726598D01*
X140759047Y-74629836D01*
X140710666Y-74533074D01*
X140662285Y-74339550D01*
X140662285Y-74194407D01*
X140710666Y-74000883D01*
X140759047Y-73904121D01*
X140855809Y-73807360D01*
X141000952Y-73758979D01*
X141097714Y-73758979D01*
X141242857Y-73807360D01*
X141291238Y-73855740D01*
X141726666Y-74774979D02*
X141726666Y-73758979D01*
X142307238Y-74774979D02*
X141871809Y-74194407D01*
X142307238Y-73758979D02*
X141726666Y-74339550D01*
X142597523Y-73758979D02*
X143178095Y-73758979D01*
X142887809Y-74774979D02*
X142887809Y-73758979D01*
X143516761Y-74387931D02*
X144290857Y-74387931D01*
X144774666Y-74774979D02*
X144774666Y-73758979D01*
X145016571Y-73758979D01*
X145161714Y-73807360D01*
X145258476Y-73904121D01*
X145306857Y-74000883D01*
X145355238Y-74194407D01*
X145355238Y-74339550D01*
X145306857Y-74533074D01*
X145258476Y-74629836D01*
X145161714Y-74726598D01*
X145016571Y-74774979D01*
X144774666Y-74774979D01*
X145790666Y-74774979D02*
X145790666Y-73758979D01*
X146274476Y-74774979D02*
X146274476Y-73758979D01*
X146855047Y-74774979D01*
X146855047Y-73758979D01*
X147871047Y-73807360D02*
X147774285Y-73758979D01*
X147629142Y-73758979D01*
X147484000Y-73807360D01*
X147387238Y-73904121D01*
X147338857Y-74000883D01*
X147290476Y-74194407D01*
X147290476Y-74339550D01*
X147338857Y-74533074D01*
X147387238Y-74629836D01*
X147484000Y-74726598D01*
X147629142Y-74774979D01*
X147725904Y-74774979D01*
X147871047Y-74726598D01*
X147919428Y-74678217D01*
X147919428Y-74339550D01*
X147725904Y-74339550D01*
X148354857Y-74774979D02*
X148354857Y-73758979D01*
X148596761Y-73758979D01*
X148741904Y-73807360D01*
X148838666Y-73904121D01*
X148887047Y-74000883D01*
X148935428Y-74194407D01*
X148935428Y-74339550D01*
X148887047Y-74533074D01*
X148838666Y-74629836D01*
X148741904Y-74726598D01*
X148596761Y-74774979D01*
X148354857Y-74774979D01*
X149564380Y-73758979D02*
X149757904Y-73758979D01*
X149854666Y-73807360D01*
X149951428Y-73904121D01*
X149999809Y-74097645D01*
X149999809Y-74436312D01*
X149951428Y-74629836D01*
X149854666Y-74726598D01*
X149757904Y-74774979D01*
X149564380Y-74774979D01*
X149467619Y-74726598D01*
X149370857Y-74629836D01*
X149322476Y-74436312D01*
X149322476Y-74097645D01*
X149370857Y-73904121D01*
X149467619Y-73807360D01*
X149564380Y-73758979D01*
X150435238Y-74774979D02*
X150435238Y-73758979D01*
X151015809Y-74774979D01*
X151015809Y-73758979D01*
X152031809Y-73807360D02*
X151935047Y-73758979D01*
X151789904Y-73758979D01*
X151644761Y-73807360D01*
X151548000Y-73904121D01*
X151499619Y-74000883D01*
X151451238Y-74194407D01*
X151451238Y-74339550D01*
X151499619Y-74533074D01*
X151548000Y-74629836D01*
X151644761Y-74726598D01*
X151789904Y-74774979D01*
X151886666Y-74774979D01*
X152031809Y-74726598D01*
X152080190Y-74678217D01*
X152080190Y-74339550D01*
X151886666Y-74339550D01*
X152515619Y-74387931D02*
X153289714Y-74387931D01*
X153725142Y-74726598D02*
X153870285Y-74774979D01*
X154112190Y-74774979D01*
X154208952Y-74726598D01*
X154257333Y-74678217D01*
X154305714Y-74581455D01*
X154305714Y-74484693D01*
X154257333Y-74387931D01*
X154208952Y-74339550D01*
X154112190Y-74291169D01*
X153918666Y-74242788D01*
X153821904Y-74194407D01*
X153773523Y-74146026D01*
X153725142Y-74049264D01*
X153725142Y-73952502D01*
X153773523Y-73855740D01*
X153821904Y-73807360D01*
X153918666Y-73758979D01*
X154160571Y-73758979D01*
X154305714Y-73807360D01*
X154741142Y-74774979D02*
X154741142Y-73758979D01*
X155128190Y-73758979D01*
X155224952Y-73807360D01*
X155273333Y-73855740D01*
X155321714Y-73952502D01*
X155321714Y-74097645D01*
X155273333Y-74194407D01*
X155224952Y-74242788D01*
X155128190Y-74291169D01*
X154741142Y-74291169D01*
X155757142Y-74774979D02*
X155757142Y-73758979D01*
X156337714Y-74774979D02*
X155902285Y-74194407D01*
X156337714Y-73758979D02*
X155757142Y-74339550D01*
X147048571Y-75733405D02*
X147290476Y-76410739D01*
X147532380Y-75733405D01*
X147871047Y-75491500D02*
X147919428Y-75443120D01*
X148016190Y-75394739D01*
X148258095Y-75394739D01*
X148354857Y-75443120D01*
X148403238Y-75491500D01*
X148451619Y-75588262D01*
X148451619Y-75685024D01*
X148403238Y-75830167D01*
X147822666Y-76410739D01*
X148451619Y-76410739D01*
X148887047Y-76313977D02*
X148935428Y-76362358D01*
X148887047Y-76410739D01*
X148838666Y-76362358D01*
X148887047Y-76313977D01*
X148887047Y-76410739D01*
X149564380Y-75394739D02*
X149661142Y-75394739D01*
X149757904Y-75443120D01*
X149806285Y-75491500D01*
X149854666Y-75588262D01*
X149903047Y-75781786D01*
X149903047Y-76023691D01*
X149854666Y-76217215D01*
X149806285Y-76313977D01*
X149757904Y-76362358D01*
X149661142Y-76410739D01*
X149564380Y-76410739D01*
X149467619Y-76362358D01*
X149419238Y-76313977D01*
X149370857Y-76217215D01*
X149322476Y-76023691D01*
X149322476Y-75781786D01*
X149370857Y-75588262D01*
X149419238Y-75491500D01*
X149467619Y-75443120D01*
X149564380Y-75394739D01*
X139307619Y-78046499D02*
X139307619Y-77030499D01*
X139936571Y-78046499D02*
X139839809Y-77998118D01*
X139791428Y-77949737D01*
X139743047Y-77852975D01*
X139743047Y-77562689D01*
X139791428Y-77465927D01*
X139839809Y-77417546D01*
X139936571Y-77369165D01*
X140081714Y-77369165D01*
X140178476Y-77417546D01*
X140226857Y-77465927D01*
X140275238Y-77562689D01*
X140275238Y-77852975D01*
X140226857Y-77949737D01*
X140178476Y-77998118D01*
X140081714Y-78046499D01*
X139936571Y-78046499D01*
X140613904Y-77369165D02*
X140807428Y-78046499D01*
X141000952Y-77562689D01*
X141194476Y-78046499D01*
X141388000Y-77369165D01*
X142210476Y-78046499D02*
X142210476Y-77514308D01*
X142162095Y-77417546D01*
X142065333Y-77369165D01*
X141871809Y-77369165D01*
X141775047Y-77417546D01*
X142210476Y-77998118D02*
X142113714Y-78046499D01*
X141871809Y-78046499D01*
X141775047Y-77998118D01*
X141726666Y-77901356D01*
X141726666Y-77804594D01*
X141775047Y-77707832D01*
X141871809Y-77659451D01*
X142113714Y-77659451D01*
X142210476Y-77611070D01*
X143420000Y-77998118D02*
X143565142Y-78046499D01*
X143807047Y-78046499D01*
X143903809Y-77998118D01*
X143952190Y-77949737D01*
X144000571Y-77852975D01*
X144000571Y-77756213D01*
X143952190Y-77659451D01*
X143903809Y-77611070D01*
X143807047Y-77562689D01*
X143613523Y-77514308D01*
X143516761Y-77465927D01*
X143468380Y-77417546D01*
X143420000Y-77320784D01*
X143420000Y-77224022D01*
X143468380Y-77127260D01*
X143516761Y-77078880D01*
X143613523Y-77030499D01*
X143855428Y-77030499D01*
X144000571Y-77078880D01*
X144871428Y-77998118D02*
X144774666Y-78046499D01*
X144581142Y-78046499D01*
X144484380Y-77998118D01*
X144436000Y-77949737D01*
X144387619Y-77852975D01*
X144387619Y-77562689D01*
X144436000Y-77465927D01*
X144484380Y-77417546D01*
X144581142Y-77369165D01*
X144774666Y-77369165D01*
X144871428Y-77417546D01*
X145742285Y-78046499D02*
X145742285Y-77514308D01*
X145693904Y-77417546D01*
X145597142Y-77369165D01*
X145403619Y-77369165D01*
X145306857Y-77417546D01*
X145742285Y-77998118D02*
X145645523Y-78046499D01*
X145403619Y-78046499D01*
X145306857Y-77998118D01*
X145258476Y-77901356D01*
X145258476Y-77804594D01*
X145306857Y-77707832D01*
X145403619Y-77659451D01*
X145645523Y-77659451D01*
X145742285Y-77611070D01*
X146371238Y-78046499D02*
X146274476Y-77998118D01*
X146226095Y-77901356D01*
X146226095Y-77030499D01*
X147145333Y-77998118D02*
X147048571Y-78046499D01*
X146855047Y-78046499D01*
X146758285Y-77998118D01*
X146709904Y-77901356D01*
X146709904Y-77514308D01*
X146758285Y-77417546D01*
X146855047Y-77369165D01*
X147048571Y-77369165D01*
X147145333Y-77417546D01*
X147193714Y-77514308D01*
X147193714Y-77611070D01*
X146709904Y-77707832D01*
X148064571Y-78046499D02*
X148064571Y-77030499D01*
X148064571Y-77998118D02*
X147967809Y-78046499D01*
X147774285Y-78046499D01*
X147677523Y-77998118D01*
X147629142Y-77949737D01*
X147580761Y-77852975D01*
X147580761Y-77562689D01*
X147629142Y-77465927D01*
X147677523Y-77417546D01*
X147774285Y-77369165D01*
X147967809Y-77369165D01*
X148064571Y-77417546D01*
X149322476Y-77514308D02*
X149661142Y-77514308D01*
X149806285Y-78046499D02*
X149322476Y-78046499D01*
X149322476Y-77030499D01*
X149806285Y-77030499D01*
X150241714Y-77369165D02*
X150241714Y-78046499D01*
X150241714Y-77465927D02*
X150290095Y-77417546D01*
X150386857Y-77369165D01*
X150532000Y-77369165D01*
X150628761Y-77417546D01*
X150677142Y-77514308D01*
X150677142Y-78046499D01*
X151596380Y-77369165D02*
X151596380Y-78191641D01*
X151548000Y-78288403D01*
X151499619Y-78336784D01*
X151402857Y-78385165D01*
X151257714Y-78385165D01*
X151160952Y-78336784D01*
X151596380Y-77998118D02*
X151499619Y-78046499D01*
X151306095Y-78046499D01*
X151209333Y-77998118D01*
X151160952Y-77949737D01*
X151112571Y-77852975D01*
X151112571Y-77562689D01*
X151160952Y-77465927D01*
X151209333Y-77417546D01*
X151306095Y-77369165D01*
X151499619Y-77369165D01*
X151596380Y-77417546D01*
X152080190Y-78046499D02*
X152080190Y-77369165D01*
X152080190Y-77030499D02*
X152031809Y-77078880D01*
X152080190Y-77127260D01*
X152128571Y-77078880D01*
X152080190Y-77030499D01*
X152080190Y-77127260D01*
X152564000Y-77369165D02*
X152564000Y-78046499D01*
X152564000Y-77465927D02*
X152612380Y-77417546D01*
X152709142Y-77369165D01*
X152854285Y-77369165D01*
X152951047Y-77417546D01*
X152999428Y-77514308D01*
X152999428Y-78046499D01*
X153870285Y-77998118D02*
X153773523Y-78046499D01*
X153580000Y-78046499D01*
X153483238Y-77998118D01*
X153434857Y-77901356D01*
X153434857Y-77514308D01*
X153483238Y-77417546D01*
X153580000Y-77369165D01*
X153773523Y-77369165D01*
X153870285Y-77417546D01*
X153918666Y-77514308D01*
X153918666Y-77611070D01*
X153434857Y-77707832D01*
X154741142Y-77998118D02*
X154644380Y-78046499D01*
X154450857Y-78046499D01*
X154354095Y-77998118D01*
X154305714Y-77901356D01*
X154305714Y-77514308D01*
X154354095Y-77417546D01*
X154450857Y-77369165D01*
X154644380Y-77369165D01*
X154741142Y-77417546D01*
X154789523Y-77514308D01*
X154789523Y-77611070D01*
X154305714Y-77707832D01*
X155224952Y-78046499D02*
X155224952Y-77369165D01*
X155224952Y-77562689D02*
X155273333Y-77465927D01*
X155321714Y-77417546D01*
X155418476Y-77369165D01*
X155515238Y-77369165D01*
X155853904Y-78046499D02*
X155853904Y-77369165D01*
X155853904Y-77030499D02*
X155805523Y-77078880D01*
X155853904Y-77127260D01*
X155902285Y-77078880D01*
X155853904Y-77030499D01*
X155853904Y-77127260D01*
X156337714Y-77369165D02*
X156337714Y-78046499D01*
X156337714Y-77465927D02*
X156386095Y-77417546D01*
X156482857Y-77369165D01*
X156628000Y-77369165D01*
X156724761Y-77417546D01*
X156773142Y-77514308D01*
X156773142Y-78046499D01*
X157692380Y-77369165D02*
X157692380Y-78191641D01*
X157644000Y-78288403D01*
X157595619Y-78336784D01*
X157498857Y-78385165D01*
X157353714Y-78385165D01*
X157256952Y-78336784D01*
X157692380Y-77998118D02*
X157595619Y-78046499D01*
X157402095Y-78046499D01*
X157305333Y-77998118D01*
X157256952Y-77949737D01*
X157208571Y-77852975D01*
X157208571Y-77562689D01*
X157256952Y-77465927D01*
X157305333Y-77417546D01*
X157402095Y-77369165D01*
X157595619Y-77369165D01*
X157692380Y-77417546D01*
X142476571Y-78908163D02*
X142379809Y-78859782D01*
X142186285Y-78859782D01*
X142089523Y-78908163D01*
X141992761Y-79004925D01*
X141944380Y-79101687D01*
X141944380Y-79295211D01*
X141992761Y-79391973D01*
X142089523Y-79488735D01*
X142186285Y-79537116D01*
X142379809Y-79537116D01*
X142476571Y-79488735D01*
X142283047Y-78521116D02*
X142041142Y-78569497D01*
X141799238Y-78714640D01*
X141654095Y-78956544D01*
X141605714Y-79198449D01*
X141654095Y-79440354D01*
X141799238Y-79682259D01*
X142041142Y-79827401D01*
X142283047Y-79875782D01*
X142524952Y-79827401D01*
X142766857Y-79682259D01*
X142912000Y-79440354D01*
X142960380Y-79198449D01*
X142912000Y-78956544D01*
X142766857Y-78714640D01*
X142524952Y-78569497D01*
X142283047Y-78521116D01*
X143347428Y-78763020D02*
X143395809Y-78714640D01*
X143492571Y-78666259D01*
X143734476Y-78666259D01*
X143831238Y-78714640D01*
X143879619Y-78763020D01*
X143928000Y-78859782D01*
X143928000Y-78956544D01*
X143879619Y-79101687D01*
X143299047Y-79682259D01*
X143928000Y-79682259D01*
X144556952Y-78666259D02*
X144653714Y-78666259D01*
X144750476Y-78714640D01*
X144798857Y-78763020D01*
X144847238Y-78859782D01*
X144895619Y-79053306D01*
X144895619Y-79295211D01*
X144847238Y-79488735D01*
X144798857Y-79585497D01*
X144750476Y-79633878D01*
X144653714Y-79682259D01*
X144556952Y-79682259D01*
X144460190Y-79633878D01*
X144411809Y-79585497D01*
X144363428Y-79488735D01*
X144315047Y-79295211D01*
X144315047Y-79053306D01*
X144363428Y-78859782D01*
X144411809Y-78763020D01*
X144460190Y-78714640D01*
X144556952Y-78666259D01*
X145282666Y-78763020D02*
X145331047Y-78714640D01*
X145427809Y-78666259D01*
X145669714Y-78666259D01*
X145766476Y-78714640D01*
X145814857Y-78763020D01*
X145863238Y-78859782D01*
X145863238Y-78956544D01*
X145814857Y-79101687D01*
X145234285Y-79682259D01*
X145863238Y-79682259D01*
X146201904Y-78666259D02*
X146830857Y-78666259D01*
X146492190Y-79053306D01*
X146637333Y-79053306D01*
X146734095Y-79101687D01*
X146782476Y-79150068D01*
X146830857Y-79246830D01*
X146830857Y-79488735D01*
X146782476Y-79585497D01*
X146734095Y-79633878D01*
X146637333Y-79682259D01*
X146347047Y-79682259D01*
X146250285Y-79633878D01*
X146201904Y-79585497D01*
X148620952Y-79585497D02*
X148572571Y-79633878D01*
X148427428Y-79682259D01*
X148330666Y-79682259D01*
X148185523Y-79633878D01*
X148088761Y-79537116D01*
X148040380Y-79440354D01*
X147992000Y-79246830D01*
X147992000Y-79101687D01*
X148040380Y-78908163D01*
X148088761Y-78811401D01*
X148185523Y-78714640D01*
X148330666Y-78666259D01*
X148427428Y-78666259D01*
X148572571Y-78714640D01*
X148620952Y-78763020D01*
X149636952Y-79585497D02*
X149588571Y-79633878D01*
X149443428Y-79682259D01*
X149346666Y-79682259D01*
X149201523Y-79633878D01*
X149104761Y-79537116D01*
X149056380Y-79440354D01*
X149008000Y-79246830D01*
X149008000Y-79101687D01*
X149056380Y-78908163D01*
X149104761Y-78811401D01*
X149201523Y-78714640D01*
X149346666Y-78666259D01*
X149443428Y-78666259D01*
X149588571Y-78714640D01*
X149636952Y-78763020D01*
X151185142Y-79150068D02*
X151330285Y-79198449D01*
X151378666Y-79246830D01*
X151427047Y-79343592D01*
X151427047Y-79488735D01*
X151378666Y-79585497D01*
X151330285Y-79633878D01*
X151233523Y-79682259D01*
X150846476Y-79682259D01*
X150846476Y-78666259D01*
X151185142Y-78666259D01*
X151281904Y-78714640D01*
X151330285Y-78763020D01*
X151378666Y-78859782D01*
X151378666Y-78956544D01*
X151330285Y-79053306D01*
X151281904Y-79101687D01*
X151185142Y-79150068D01*
X150846476Y-79150068D01*
X152056000Y-79198449D02*
X152056000Y-79682259D01*
X151717333Y-78666259D02*
X152056000Y-79198449D01*
X152394666Y-78666259D01*
X152733333Y-79295211D02*
X153507428Y-79295211D01*
X153942857Y-79633878D02*
X154088000Y-79682259D01*
X154329904Y-79682259D01*
X154426666Y-79633878D01*
X154475047Y-79585497D01*
X154523428Y-79488735D01*
X154523428Y-79391973D01*
X154475047Y-79295211D01*
X154426666Y-79246830D01*
X154329904Y-79198449D01*
X154136380Y-79150068D01*
X154039619Y-79101687D01*
X153991238Y-79053306D01*
X153942857Y-78956544D01*
X153942857Y-78859782D01*
X153991238Y-78763020D01*
X154039619Y-78714640D01*
X154136380Y-78666259D01*
X154378285Y-78666259D01*
X154523428Y-78714640D01*
X154910476Y-79391973D02*
X155394285Y-79391973D01*
X154813714Y-79682259D02*
X155152380Y-78666259D01*
X155491047Y-79682259D01*
X113351238Y-46738217D02*
X113302857Y-46786598D01*
X113157714Y-46834979D01*
X113060952Y-46834979D01*
X112915809Y-46786598D01*
X112819047Y-46689836D01*
X112770666Y-46593074D01*
X112722285Y-46399550D01*
X112722285Y-46254407D01*
X112770666Y-46060883D01*
X112819047Y-45964121D01*
X112915809Y-45867360D01*
X113060952Y-45818979D01*
X113157714Y-45818979D01*
X113302857Y-45867360D01*
X113351238Y-45915740D01*
X113786666Y-46834979D02*
X113786666Y-45818979D01*
X114367238Y-46834979D02*
X113931809Y-46254407D01*
X114367238Y-45818979D02*
X113786666Y-46399550D01*
X114657523Y-45818979D02*
X115238095Y-45818979D01*
X114947809Y-46834979D02*
X114947809Y-45818979D01*
X115576761Y-46447931D02*
X116350857Y-46447931D01*
X116834666Y-46834979D02*
X116834666Y-45818979D01*
X117076571Y-45818979D01*
X117221714Y-45867360D01*
X117318476Y-45964121D01*
X117366857Y-46060883D01*
X117415238Y-46254407D01*
X117415238Y-46399550D01*
X117366857Y-46593074D01*
X117318476Y-46689836D01*
X117221714Y-46786598D01*
X117076571Y-46834979D01*
X116834666Y-46834979D01*
X117850666Y-46834979D02*
X117850666Y-45818979D01*
X118334476Y-46834979D02*
X118334476Y-45818979D01*
X118915047Y-46834979D01*
X118915047Y-45818979D01*
X119931047Y-45867360D02*
X119834285Y-45818979D01*
X119689142Y-45818979D01*
X119544000Y-45867360D01*
X119447238Y-45964121D01*
X119398857Y-46060883D01*
X119350476Y-46254407D01*
X119350476Y-46399550D01*
X119398857Y-46593074D01*
X119447238Y-46689836D01*
X119544000Y-46786598D01*
X119689142Y-46834979D01*
X119785904Y-46834979D01*
X119931047Y-46786598D01*
X119979428Y-46738217D01*
X119979428Y-46399550D01*
X119785904Y-46399550D01*
X120414857Y-46834979D02*
X120414857Y-45818979D01*
X120656761Y-45818979D01*
X120801904Y-45867360D01*
X120898666Y-45964121D01*
X120947047Y-46060883D01*
X120995428Y-46254407D01*
X120995428Y-46399550D01*
X120947047Y-46593074D01*
X120898666Y-46689836D01*
X120801904Y-46786598D01*
X120656761Y-46834979D01*
X120414857Y-46834979D01*
X121624380Y-45818979D02*
X121817904Y-45818979D01*
X121914666Y-45867360D01*
X122011428Y-45964121D01*
X122059809Y-46157645D01*
X122059809Y-46496312D01*
X122011428Y-46689836D01*
X121914666Y-46786598D01*
X121817904Y-46834979D01*
X121624380Y-46834979D01*
X121527619Y-46786598D01*
X121430857Y-46689836D01*
X121382476Y-46496312D01*
X121382476Y-46157645D01*
X121430857Y-45964121D01*
X121527619Y-45867360D01*
X121624380Y-45818979D01*
X122495238Y-46834979D02*
X122495238Y-45818979D01*
X123075809Y-46834979D01*
X123075809Y-45818979D01*
X124091809Y-45867360D02*
X123995047Y-45818979D01*
X123849904Y-45818979D01*
X123704761Y-45867360D01*
X123608000Y-45964121D01*
X123559619Y-46060883D01*
X123511238Y-46254407D01*
X123511238Y-46399550D01*
X123559619Y-46593074D01*
X123608000Y-46689836D01*
X123704761Y-46786598D01*
X123849904Y-46834979D01*
X123946666Y-46834979D01*
X124091809Y-46786598D01*
X124140190Y-46738217D01*
X124140190Y-46399550D01*
X123946666Y-46399550D01*
X124575619Y-46447931D02*
X125349714Y-46447931D01*
X125785142Y-46786598D02*
X125930285Y-46834979D01*
X126172190Y-46834979D01*
X126268952Y-46786598D01*
X126317333Y-46738217D01*
X126365714Y-46641455D01*
X126365714Y-46544693D01*
X126317333Y-46447931D01*
X126268952Y-46399550D01*
X126172190Y-46351169D01*
X125978666Y-46302788D01*
X125881904Y-46254407D01*
X125833523Y-46206026D01*
X125785142Y-46109264D01*
X125785142Y-46012502D01*
X125833523Y-45915740D01*
X125881904Y-45867360D01*
X125978666Y-45818979D01*
X126220571Y-45818979D01*
X126365714Y-45867360D01*
X126801142Y-46834979D02*
X126801142Y-45818979D01*
X127188190Y-45818979D01*
X127284952Y-45867360D01*
X127333333Y-45915740D01*
X127381714Y-46012502D01*
X127381714Y-46157645D01*
X127333333Y-46254407D01*
X127284952Y-46302788D01*
X127188190Y-46351169D01*
X126801142Y-46351169D01*
X127817142Y-46834979D02*
X127817142Y-45818979D01*
X128397714Y-46834979D02*
X127962285Y-46254407D01*
X128397714Y-45818979D02*
X127817142Y-46399550D01*
X119108571Y-47793405D02*
X119350476Y-48470739D01*
X119592380Y-47793405D01*
X119931047Y-47551500D02*
X119979428Y-47503120D01*
X120076190Y-47454739D01*
X120318095Y-47454739D01*
X120414857Y-47503120D01*
X120463238Y-47551500D01*
X120511619Y-47648262D01*
X120511619Y-47745024D01*
X120463238Y-47890167D01*
X119882666Y-48470739D01*
X120511619Y-48470739D01*
X120947047Y-48373977D02*
X120995428Y-48422358D01*
X120947047Y-48470739D01*
X120898666Y-48422358D01*
X120947047Y-48373977D01*
X120947047Y-48470739D01*
X121624380Y-47454739D02*
X121721142Y-47454739D01*
X121817904Y-47503120D01*
X121866285Y-47551500D01*
X121914666Y-47648262D01*
X121963047Y-47841786D01*
X121963047Y-48083691D01*
X121914666Y-48277215D01*
X121866285Y-48373977D01*
X121817904Y-48422358D01*
X121721142Y-48470739D01*
X121624380Y-48470739D01*
X121527619Y-48422358D01*
X121479238Y-48373977D01*
X121430857Y-48277215D01*
X121382476Y-48083691D01*
X121382476Y-47841786D01*
X121430857Y-47648262D01*
X121479238Y-47551500D01*
X121527619Y-47503120D01*
X121624380Y-47454739D01*
X111367619Y-50106499D02*
X111367619Y-49090499D01*
X111996571Y-50106499D02*
X111899809Y-50058118D01*
X111851428Y-50009737D01*
X111803047Y-49912975D01*
X111803047Y-49622689D01*
X111851428Y-49525927D01*
X111899809Y-49477546D01*
X111996571Y-49429165D01*
X112141714Y-49429165D01*
X112238476Y-49477546D01*
X112286857Y-49525927D01*
X112335238Y-49622689D01*
X112335238Y-49912975D01*
X112286857Y-50009737D01*
X112238476Y-50058118D01*
X112141714Y-50106499D01*
X111996571Y-50106499D01*
X112673904Y-49429165D02*
X112867428Y-50106499D01*
X113060952Y-49622689D01*
X113254476Y-50106499D01*
X113448000Y-49429165D01*
X114270476Y-50106499D02*
X114270476Y-49574308D01*
X114222095Y-49477546D01*
X114125333Y-49429165D01*
X113931809Y-49429165D01*
X113835047Y-49477546D01*
X114270476Y-50058118D02*
X114173714Y-50106499D01*
X113931809Y-50106499D01*
X113835047Y-50058118D01*
X113786666Y-49961356D01*
X113786666Y-49864594D01*
X113835047Y-49767832D01*
X113931809Y-49719451D01*
X114173714Y-49719451D01*
X114270476Y-49671070D01*
X115480000Y-50058118D02*
X115625142Y-50106499D01*
X115867047Y-50106499D01*
X115963809Y-50058118D01*
X116012190Y-50009737D01*
X116060571Y-49912975D01*
X116060571Y-49816213D01*
X116012190Y-49719451D01*
X115963809Y-49671070D01*
X115867047Y-49622689D01*
X115673523Y-49574308D01*
X115576761Y-49525927D01*
X115528380Y-49477546D01*
X115480000Y-49380784D01*
X115480000Y-49284022D01*
X115528380Y-49187260D01*
X115576761Y-49138880D01*
X115673523Y-49090499D01*
X115915428Y-49090499D01*
X116060571Y-49138880D01*
X116931428Y-50058118D02*
X116834666Y-50106499D01*
X116641142Y-50106499D01*
X116544380Y-50058118D01*
X116496000Y-50009737D01*
X116447619Y-49912975D01*
X116447619Y-49622689D01*
X116496000Y-49525927D01*
X116544380Y-49477546D01*
X116641142Y-49429165D01*
X116834666Y-49429165D01*
X116931428Y-49477546D01*
X117802285Y-50106499D02*
X117802285Y-49574308D01*
X117753904Y-49477546D01*
X117657142Y-49429165D01*
X117463619Y-49429165D01*
X117366857Y-49477546D01*
X117802285Y-50058118D02*
X117705523Y-50106499D01*
X117463619Y-50106499D01*
X117366857Y-50058118D01*
X117318476Y-49961356D01*
X117318476Y-49864594D01*
X117366857Y-49767832D01*
X117463619Y-49719451D01*
X117705523Y-49719451D01*
X117802285Y-49671070D01*
X118431238Y-50106499D02*
X118334476Y-50058118D01*
X118286095Y-49961356D01*
X118286095Y-49090499D01*
X119205333Y-50058118D02*
X119108571Y-50106499D01*
X118915047Y-50106499D01*
X118818285Y-50058118D01*
X118769904Y-49961356D01*
X118769904Y-49574308D01*
X118818285Y-49477546D01*
X118915047Y-49429165D01*
X119108571Y-49429165D01*
X119205333Y-49477546D01*
X119253714Y-49574308D01*
X119253714Y-49671070D01*
X118769904Y-49767832D01*
X120124571Y-50106499D02*
X120124571Y-49090499D01*
X120124571Y-50058118D02*
X120027809Y-50106499D01*
X119834285Y-50106499D01*
X119737523Y-50058118D01*
X119689142Y-50009737D01*
X119640761Y-49912975D01*
X119640761Y-49622689D01*
X119689142Y-49525927D01*
X119737523Y-49477546D01*
X119834285Y-49429165D01*
X120027809Y-49429165D01*
X120124571Y-49477546D01*
X121382476Y-49574308D02*
X121721142Y-49574308D01*
X121866285Y-50106499D02*
X121382476Y-50106499D01*
X121382476Y-49090499D01*
X121866285Y-49090499D01*
X122301714Y-49429165D02*
X122301714Y-50106499D01*
X122301714Y-49525927D02*
X122350095Y-49477546D01*
X122446857Y-49429165D01*
X122592000Y-49429165D01*
X122688761Y-49477546D01*
X122737142Y-49574308D01*
X122737142Y-50106499D01*
X123656380Y-49429165D02*
X123656380Y-50251641D01*
X123608000Y-50348403D01*
X123559619Y-50396784D01*
X123462857Y-50445165D01*
X123317714Y-50445165D01*
X123220952Y-50396784D01*
X123656380Y-50058118D02*
X123559619Y-50106499D01*
X123366095Y-50106499D01*
X123269333Y-50058118D01*
X123220952Y-50009737D01*
X123172571Y-49912975D01*
X123172571Y-49622689D01*
X123220952Y-49525927D01*
X123269333Y-49477546D01*
X123366095Y-49429165D01*
X123559619Y-49429165D01*
X123656380Y-49477546D01*
X124140190Y-50106499D02*
X124140190Y-49429165D01*
X124140190Y-49090499D02*
X124091809Y-49138880D01*
X124140190Y-49187260D01*
X124188571Y-49138880D01*
X124140190Y-49090499D01*
X124140190Y-49187260D01*
X124624000Y-49429165D02*
X124624000Y-50106499D01*
X124624000Y-49525927D02*
X124672380Y-49477546D01*
X124769142Y-49429165D01*
X124914285Y-49429165D01*
X125011047Y-49477546D01*
X125059428Y-49574308D01*
X125059428Y-50106499D01*
X125930285Y-50058118D02*
X125833523Y-50106499D01*
X125640000Y-50106499D01*
X125543238Y-50058118D01*
X125494857Y-49961356D01*
X125494857Y-49574308D01*
X125543238Y-49477546D01*
X125640000Y-49429165D01*
X125833523Y-49429165D01*
X125930285Y-49477546D01*
X125978666Y-49574308D01*
X125978666Y-49671070D01*
X125494857Y-49767832D01*
X126801142Y-50058118D02*
X126704380Y-50106499D01*
X126510857Y-50106499D01*
X126414095Y-50058118D01*
X126365714Y-49961356D01*
X126365714Y-49574308D01*
X126414095Y-49477546D01*
X126510857Y-49429165D01*
X126704380Y-49429165D01*
X126801142Y-49477546D01*
X126849523Y-49574308D01*
X126849523Y-49671070D01*
X126365714Y-49767832D01*
X127284952Y-50106499D02*
X127284952Y-49429165D01*
X127284952Y-49622689D02*
X127333333Y-49525927D01*
X127381714Y-49477546D01*
X127478476Y-49429165D01*
X127575238Y-49429165D01*
X127913904Y-50106499D02*
X127913904Y-49429165D01*
X127913904Y-49090499D02*
X127865523Y-49138880D01*
X127913904Y-49187260D01*
X127962285Y-49138880D01*
X127913904Y-49090499D01*
X127913904Y-49187260D01*
X128397714Y-49429165D02*
X128397714Y-50106499D01*
X128397714Y-49525927D02*
X128446095Y-49477546D01*
X128542857Y-49429165D01*
X128688000Y-49429165D01*
X128784761Y-49477546D01*
X128833142Y-49574308D01*
X128833142Y-50106499D01*
X129752380Y-49429165D02*
X129752380Y-50251641D01*
X129704000Y-50348403D01*
X129655619Y-50396784D01*
X129558857Y-50445165D01*
X129413714Y-50445165D01*
X129316952Y-50396784D01*
X129752380Y-50058118D02*
X129655619Y-50106499D01*
X129462095Y-50106499D01*
X129365333Y-50058118D01*
X129316952Y-50009737D01*
X129268571Y-49912975D01*
X129268571Y-49622689D01*
X129316952Y-49525927D01*
X129365333Y-49477546D01*
X129462095Y-49429165D01*
X129655619Y-49429165D01*
X129752380Y-49477546D01*
X114536571Y-50968163D02*
X114439809Y-50919782D01*
X114246285Y-50919782D01*
X114149523Y-50968163D01*
X114052761Y-51064925D01*
X114004380Y-51161687D01*
X114004380Y-51355211D01*
X114052761Y-51451973D01*
X114149523Y-51548735D01*
X114246285Y-51597116D01*
X114439809Y-51597116D01*
X114536571Y-51548735D01*
X114343047Y-50581116D02*
X114101142Y-50629497D01*
X113859238Y-50774640D01*
X113714095Y-51016544D01*
X113665714Y-51258449D01*
X113714095Y-51500354D01*
X113859238Y-51742259D01*
X114101142Y-51887401D01*
X114343047Y-51935782D01*
X114584952Y-51887401D01*
X114826857Y-51742259D01*
X114972000Y-51500354D01*
X115020380Y-51258449D01*
X114972000Y-51016544D01*
X114826857Y-50774640D01*
X114584952Y-50629497D01*
X114343047Y-50581116D01*
X115407428Y-50823020D02*
X115455809Y-50774640D01*
X115552571Y-50726259D01*
X115794476Y-50726259D01*
X115891238Y-50774640D01*
X115939619Y-50823020D01*
X115988000Y-50919782D01*
X115988000Y-51016544D01*
X115939619Y-51161687D01*
X115359047Y-51742259D01*
X115988000Y-51742259D01*
X116616952Y-50726259D02*
X116713714Y-50726259D01*
X116810476Y-50774640D01*
X116858857Y-50823020D01*
X116907238Y-50919782D01*
X116955619Y-51113306D01*
X116955619Y-51355211D01*
X116907238Y-51548735D01*
X116858857Y-51645497D01*
X116810476Y-51693878D01*
X116713714Y-51742259D01*
X116616952Y-51742259D01*
X116520190Y-51693878D01*
X116471809Y-51645497D01*
X116423428Y-51548735D01*
X116375047Y-51355211D01*
X116375047Y-51113306D01*
X116423428Y-50919782D01*
X116471809Y-50823020D01*
X116520190Y-50774640D01*
X116616952Y-50726259D01*
X117342666Y-50823020D02*
X117391047Y-50774640D01*
X117487809Y-50726259D01*
X117729714Y-50726259D01*
X117826476Y-50774640D01*
X117874857Y-50823020D01*
X117923238Y-50919782D01*
X117923238Y-51016544D01*
X117874857Y-51161687D01*
X117294285Y-51742259D01*
X117923238Y-51742259D01*
X118261904Y-50726259D02*
X118890857Y-50726259D01*
X118552190Y-51113306D01*
X118697333Y-51113306D01*
X118794095Y-51161687D01*
X118842476Y-51210068D01*
X118890857Y-51306830D01*
X118890857Y-51548735D01*
X118842476Y-51645497D01*
X118794095Y-51693878D01*
X118697333Y-51742259D01*
X118407047Y-51742259D01*
X118310285Y-51693878D01*
X118261904Y-51645497D01*
X120680952Y-51645497D02*
X120632571Y-51693878D01*
X120487428Y-51742259D01*
X120390666Y-51742259D01*
X120245523Y-51693878D01*
X120148761Y-51597116D01*
X120100380Y-51500354D01*
X120052000Y-51306830D01*
X120052000Y-51161687D01*
X120100380Y-50968163D01*
X120148761Y-50871401D01*
X120245523Y-50774640D01*
X120390666Y-50726259D01*
X120487428Y-50726259D01*
X120632571Y-50774640D01*
X120680952Y-50823020D01*
X121696952Y-51645497D02*
X121648571Y-51693878D01*
X121503428Y-51742259D01*
X121406666Y-51742259D01*
X121261523Y-51693878D01*
X121164761Y-51597116D01*
X121116380Y-51500354D01*
X121068000Y-51306830D01*
X121068000Y-51161687D01*
X121116380Y-50968163D01*
X121164761Y-50871401D01*
X121261523Y-50774640D01*
X121406666Y-50726259D01*
X121503428Y-50726259D01*
X121648571Y-50774640D01*
X121696952Y-50823020D01*
X123245142Y-51210068D02*
X123390285Y-51258449D01*
X123438666Y-51306830D01*
X123487047Y-51403592D01*
X123487047Y-51548735D01*
X123438666Y-51645497D01*
X123390285Y-51693878D01*
X123293523Y-51742259D01*
X122906476Y-51742259D01*
X122906476Y-50726259D01*
X123245142Y-50726259D01*
X123341904Y-50774640D01*
X123390285Y-50823020D01*
X123438666Y-50919782D01*
X123438666Y-51016544D01*
X123390285Y-51113306D01*
X123341904Y-51161687D01*
X123245142Y-51210068D01*
X122906476Y-51210068D01*
X124116000Y-51258449D02*
X124116000Y-51742259D01*
X123777333Y-50726259D02*
X124116000Y-51258449D01*
X124454666Y-50726259D01*
X124793333Y-51355211D02*
X125567428Y-51355211D01*
X126002857Y-51693878D02*
X126148000Y-51742259D01*
X126389904Y-51742259D01*
X126486666Y-51693878D01*
X126535047Y-51645497D01*
X126583428Y-51548735D01*
X126583428Y-51451973D01*
X126535047Y-51355211D01*
X126486666Y-51306830D01*
X126389904Y-51258449D01*
X126196380Y-51210068D01*
X126099619Y-51161687D01*
X126051238Y-51113306D01*
X126002857Y-51016544D01*
X126002857Y-50919782D01*
X126051238Y-50823020D01*
X126099619Y-50774640D01*
X126196380Y-50726259D01*
X126438285Y-50726259D01*
X126583428Y-50774640D01*
X126970476Y-51451973D02*
X127454285Y-51451973D01*
X126873714Y-51742259D02*
X127212380Y-50726259D01*
X127551047Y-51742259D01*
X113351238Y-74678217D02*
X113302857Y-74726598D01*
X113157714Y-74774979D01*
X113060952Y-74774979D01*
X112915809Y-74726598D01*
X112819047Y-74629836D01*
X112770666Y-74533074D01*
X112722285Y-74339550D01*
X112722285Y-74194407D01*
X112770666Y-74000883D01*
X112819047Y-73904121D01*
X112915809Y-73807360D01*
X113060952Y-73758979D01*
X113157714Y-73758979D01*
X113302857Y-73807360D01*
X113351238Y-73855740D01*
X113786666Y-74774979D02*
X113786666Y-73758979D01*
X114367238Y-74774979D02*
X113931809Y-74194407D01*
X114367238Y-73758979D02*
X113786666Y-74339550D01*
X114657523Y-73758979D02*
X115238095Y-73758979D01*
X114947809Y-74774979D02*
X114947809Y-73758979D01*
X115576761Y-74387931D02*
X116350857Y-74387931D01*
X116834666Y-74774979D02*
X116834666Y-73758979D01*
X117076571Y-73758979D01*
X117221714Y-73807360D01*
X117318476Y-73904121D01*
X117366857Y-74000883D01*
X117415238Y-74194407D01*
X117415238Y-74339550D01*
X117366857Y-74533074D01*
X117318476Y-74629836D01*
X117221714Y-74726598D01*
X117076571Y-74774979D01*
X116834666Y-74774979D01*
X117850666Y-74774979D02*
X117850666Y-73758979D01*
X118334476Y-74774979D02*
X118334476Y-73758979D01*
X118915047Y-74774979D01*
X118915047Y-73758979D01*
X119931047Y-73807360D02*
X119834285Y-73758979D01*
X119689142Y-73758979D01*
X119544000Y-73807360D01*
X119447238Y-73904121D01*
X119398857Y-74000883D01*
X119350476Y-74194407D01*
X119350476Y-74339550D01*
X119398857Y-74533074D01*
X119447238Y-74629836D01*
X119544000Y-74726598D01*
X119689142Y-74774979D01*
X119785904Y-74774979D01*
X119931047Y-74726598D01*
X119979428Y-74678217D01*
X119979428Y-74339550D01*
X119785904Y-74339550D01*
X120414857Y-74774979D02*
X120414857Y-73758979D01*
X120656761Y-73758979D01*
X120801904Y-73807360D01*
X120898666Y-73904121D01*
X120947047Y-74000883D01*
X120995428Y-74194407D01*
X120995428Y-74339550D01*
X120947047Y-74533074D01*
X120898666Y-74629836D01*
X120801904Y-74726598D01*
X120656761Y-74774979D01*
X120414857Y-74774979D01*
X121624380Y-73758979D02*
X121817904Y-73758979D01*
X121914666Y-73807360D01*
X122011428Y-73904121D01*
X122059809Y-74097645D01*
X122059809Y-74436312D01*
X122011428Y-74629836D01*
X121914666Y-74726598D01*
X121817904Y-74774979D01*
X121624380Y-74774979D01*
X121527619Y-74726598D01*
X121430857Y-74629836D01*
X121382476Y-74436312D01*
X121382476Y-74097645D01*
X121430857Y-73904121D01*
X121527619Y-73807360D01*
X121624380Y-73758979D01*
X122495238Y-74774979D02*
X122495238Y-73758979D01*
X123075809Y-74774979D01*
X123075809Y-73758979D01*
X124091809Y-73807360D02*
X123995047Y-73758979D01*
X123849904Y-73758979D01*
X123704761Y-73807360D01*
X123608000Y-73904121D01*
X123559619Y-74000883D01*
X123511238Y-74194407D01*
X123511238Y-74339550D01*
X123559619Y-74533074D01*
X123608000Y-74629836D01*
X123704761Y-74726598D01*
X123849904Y-74774979D01*
X123946666Y-74774979D01*
X124091809Y-74726598D01*
X124140190Y-74678217D01*
X124140190Y-74339550D01*
X123946666Y-74339550D01*
X124575619Y-74387931D02*
X125349714Y-74387931D01*
X125785142Y-74726598D02*
X125930285Y-74774979D01*
X126172190Y-74774979D01*
X126268952Y-74726598D01*
X126317333Y-74678217D01*
X126365714Y-74581455D01*
X126365714Y-74484693D01*
X126317333Y-74387931D01*
X126268952Y-74339550D01*
X126172190Y-74291169D01*
X125978666Y-74242788D01*
X125881904Y-74194407D01*
X125833523Y-74146026D01*
X125785142Y-74049264D01*
X125785142Y-73952502D01*
X125833523Y-73855740D01*
X125881904Y-73807360D01*
X125978666Y-73758979D01*
X126220571Y-73758979D01*
X126365714Y-73807360D01*
X126801142Y-74774979D02*
X126801142Y-73758979D01*
X127188190Y-73758979D01*
X127284952Y-73807360D01*
X127333333Y-73855740D01*
X127381714Y-73952502D01*
X127381714Y-74097645D01*
X127333333Y-74194407D01*
X127284952Y-74242788D01*
X127188190Y-74291169D01*
X126801142Y-74291169D01*
X127817142Y-74774979D02*
X127817142Y-73758979D01*
X128397714Y-74774979D02*
X127962285Y-74194407D01*
X128397714Y-73758979D02*
X127817142Y-74339550D01*
X119108571Y-75733405D02*
X119350476Y-76410739D01*
X119592380Y-75733405D01*
X119931047Y-75491500D02*
X119979428Y-75443120D01*
X120076190Y-75394739D01*
X120318095Y-75394739D01*
X120414857Y-75443120D01*
X120463238Y-75491500D01*
X120511619Y-75588262D01*
X120511619Y-75685024D01*
X120463238Y-75830167D01*
X119882666Y-76410739D01*
X120511619Y-76410739D01*
X120947047Y-76313977D02*
X120995428Y-76362358D01*
X120947047Y-76410739D01*
X120898666Y-76362358D01*
X120947047Y-76313977D01*
X120947047Y-76410739D01*
X121624380Y-75394739D02*
X121721142Y-75394739D01*
X121817904Y-75443120D01*
X121866285Y-75491500D01*
X121914666Y-75588262D01*
X121963047Y-75781786D01*
X121963047Y-76023691D01*
X121914666Y-76217215D01*
X121866285Y-76313977D01*
X121817904Y-76362358D01*
X121721142Y-76410739D01*
X121624380Y-76410739D01*
X121527619Y-76362358D01*
X121479238Y-76313977D01*
X121430857Y-76217215D01*
X121382476Y-76023691D01*
X121382476Y-75781786D01*
X121430857Y-75588262D01*
X121479238Y-75491500D01*
X121527619Y-75443120D01*
X121624380Y-75394739D01*
X111367619Y-78046499D02*
X111367619Y-77030499D01*
X111996571Y-78046499D02*
X111899809Y-77998118D01*
X111851428Y-77949737D01*
X111803047Y-77852975D01*
X111803047Y-77562689D01*
X111851428Y-77465927D01*
X111899809Y-77417546D01*
X111996571Y-77369165D01*
X112141714Y-77369165D01*
X112238476Y-77417546D01*
X112286857Y-77465927D01*
X112335238Y-77562689D01*
X112335238Y-77852975D01*
X112286857Y-77949737D01*
X112238476Y-77998118D01*
X112141714Y-78046499D01*
X111996571Y-78046499D01*
X112673904Y-77369165D02*
X112867428Y-78046499D01*
X113060952Y-77562689D01*
X113254476Y-78046499D01*
X113448000Y-77369165D01*
X114270476Y-78046499D02*
X114270476Y-77514308D01*
X114222095Y-77417546D01*
X114125333Y-77369165D01*
X113931809Y-77369165D01*
X113835047Y-77417546D01*
X114270476Y-77998118D02*
X114173714Y-78046499D01*
X113931809Y-78046499D01*
X113835047Y-77998118D01*
X113786666Y-77901356D01*
X113786666Y-77804594D01*
X113835047Y-77707832D01*
X113931809Y-77659451D01*
X114173714Y-77659451D01*
X114270476Y-77611070D01*
X115480000Y-77998118D02*
X115625142Y-78046499D01*
X115867047Y-78046499D01*
X115963809Y-77998118D01*
X116012190Y-77949737D01*
X116060571Y-77852975D01*
X116060571Y-77756213D01*
X116012190Y-77659451D01*
X115963809Y-77611070D01*
X115867047Y-77562689D01*
X115673523Y-77514308D01*
X115576761Y-77465927D01*
X115528380Y-77417546D01*
X115480000Y-77320784D01*
X115480000Y-77224022D01*
X115528380Y-77127260D01*
X115576761Y-77078880D01*
X115673523Y-77030499D01*
X115915428Y-77030499D01*
X116060571Y-77078880D01*
X116931428Y-77998118D02*
X116834666Y-78046499D01*
X116641142Y-78046499D01*
X116544380Y-77998118D01*
X116496000Y-77949737D01*
X116447619Y-77852975D01*
X116447619Y-77562689D01*
X116496000Y-77465927D01*
X116544380Y-77417546D01*
X116641142Y-77369165D01*
X116834666Y-77369165D01*
X116931428Y-77417546D01*
X117802285Y-78046499D02*
X117802285Y-77514308D01*
X117753904Y-77417546D01*
X117657142Y-77369165D01*
X117463619Y-77369165D01*
X117366857Y-77417546D01*
X117802285Y-77998118D02*
X117705523Y-78046499D01*
X117463619Y-78046499D01*
X117366857Y-77998118D01*
X117318476Y-77901356D01*
X117318476Y-77804594D01*
X117366857Y-77707832D01*
X117463619Y-77659451D01*
X117705523Y-77659451D01*
X117802285Y-77611070D01*
X118431238Y-78046499D02*
X118334476Y-77998118D01*
X118286095Y-77901356D01*
X118286095Y-77030499D01*
X119205333Y-77998118D02*
X119108571Y-78046499D01*
X118915047Y-78046499D01*
X118818285Y-77998118D01*
X118769904Y-77901356D01*
X118769904Y-77514308D01*
X118818285Y-77417546D01*
X118915047Y-77369165D01*
X119108571Y-77369165D01*
X119205333Y-77417546D01*
X119253714Y-77514308D01*
X119253714Y-77611070D01*
X118769904Y-77707832D01*
X120124571Y-78046499D02*
X120124571Y-77030499D01*
X120124571Y-77998118D02*
X120027809Y-78046499D01*
X119834285Y-78046499D01*
X119737523Y-77998118D01*
X119689142Y-77949737D01*
X119640761Y-77852975D01*
X119640761Y-77562689D01*
X119689142Y-77465927D01*
X119737523Y-77417546D01*
X119834285Y-77369165D01*
X120027809Y-77369165D01*
X120124571Y-77417546D01*
X121382476Y-77514308D02*
X121721142Y-77514308D01*
X121866285Y-78046499D02*
X121382476Y-78046499D01*
X121382476Y-77030499D01*
X121866285Y-77030499D01*
X122301714Y-77369165D02*
X122301714Y-78046499D01*
X122301714Y-77465927D02*
X122350095Y-77417546D01*
X122446857Y-77369165D01*
X122592000Y-77369165D01*
X122688761Y-77417546D01*
X122737142Y-77514308D01*
X122737142Y-78046499D01*
X123656380Y-77369165D02*
X123656380Y-78191641D01*
X123608000Y-78288403D01*
X123559619Y-78336784D01*
X123462857Y-78385165D01*
X123317714Y-78385165D01*
X123220952Y-78336784D01*
X123656380Y-77998118D02*
X123559619Y-78046499D01*
X123366095Y-78046499D01*
X123269333Y-77998118D01*
X123220952Y-77949737D01*
X123172571Y-77852975D01*
X123172571Y-77562689D01*
X123220952Y-77465927D01*
X123269333Y-77417546D01*
X123366095Y-77369165D01*
X123559619Y-77369165D01*
X123656380Y-77417546D01*
X124140190Y-78046499D02*
X124140190Y-77369165D01*
X124140190Y-77030499D02*
X124091809Y-77078880D01*
X124140190Y-77127260D01*
X124188571Y-77078880D01*
X124140190Y-77030499D01*
X124140190Y-77127260D01*
X124624000Y-77369165D02*
X124624000Y-78046499D01*
X124624000Y-77465927D02*
X124672380Y-77417546D01*
X124769142Y-77369165D01*
X124914285Y-77369165D01*
X125011047Y-77417546D01*
X125059428Y-77514308D01*
X125059428Y-78046499D01*
X125930285Y-77998118D02*
X125833523Y-78046499D01*
X125640000Y-78046499D01*
X125543238Y-77998118D01*
X125494857Y-77901356D01*
X125494857Y-77514308D01*
X125543238Y-77417546D01*
X125640000Y-77369165D01*
X125833523Y-77369165D01*
X125930285Y-77417546D01*
X125978666Y-77514308D01*
X125978666Y-77611070D01*
X125494857Y-77707832D01*
X126801142Y-77998118D02*
X126704380Y-78046499D01*
X126510857Y-78046499D01*
X126414095Y-77998118D01*
X126365714Y-77901356D01*
X126365714Y-77514308D01*
X126414095Y-77417546D01*
X126510857Y-77369165D01*
X126704380Y-77369165D01*
X126801142Y-77417546D01*
X126849523Y-77514308D01*
X126849523Y-77611070D01*
X126365714Y-77707832D01*
X127284952Y-78046499D02*
X127284952Y-77369165D01*
X127284952Y-77562689D02*
X127333333Y-77465927D01*
X127381714Y-77417546D01*
X127478476Y-77369165D01*
X127575238Y-77369165D01*
X127913904Y-78046499D02*
X127913904Y-77369165D01*
X127913904Y-77030499D02*
X127865523Y-77078880D01*
X127913904Y-77127260D01*
X127962285Y-77078880D01*
X127913904Y-77030499D01*
X127913904Y-77127260D01*
X128397714Y-77369165D02*
X128397714Y-78046499D01*
X128397714Y-77465927D02*
X128446095Y-77417546D01*
X128542857Y-77369165D01*
X128688000Y-77369165D01*
X128784761Y-77417546D01*
X128833142Y-77514308D01*
X128833142Y-78046499D01*
X129752380Y-77369165D02*
X129752380Y-78191641D01*
X129704000Y-78288403D01*
X129655619Y-78336784D01*
X129558857Y-78385165D01*
X129413714Y-78385165D01*
X129316952Y-78336784D01*
X129752380Y-77998118D02*
X129655619Y-78046499D01*
X129462095Y-78046499D01*
X129365333Y-77998118D01*
X129316952Y-77949737D01*
X129268571Y-77852975D01*
X129268571Y-77562689D01*
X129316952Y-77465927D01*
X129365333Y-77417546D01*
X129462095Y-77369165D01*
X129655619Y-77369165D01*
X129752380Y-77417546D01*
X114536571Y-78908163D02*
X114439809Y-78859782D01*
X114246285Y-78859782D01*
X114149523Y-78908163D01*
X114052761Y-79004925D01*
X114004380Y-79101687D01*
X114004380Y-79295211D01*
X114052761Y-79391973D01*
X114149523Y-79488735D01*
X114246285Y-79537116D01*
X114439809Y-79537116D01*
X114536571Y-79488735D01*
X114343047Y-78521116D02*
X114101142Y-78569497D01*
X113859238Y-78714640D01*
X113714095Y-78956544D01*
X113665714Y-79198449D01*
X113714095Y-79440354D01*
X113859238Y-79682259D01*
X114101142Y-79827401D01*
X114343047Y-79875782D01*
X114584952Y-79827401D01*
X114826857Y-79682259D01*
X114972000Y-79440354D01*
X115020380Y-79198449D01*
X114972000Y-78956544D01*
X114826857Y-78714640D01*
X114584952Y-78569497D01*
X114343047Y-78521116D01*
X115407428Y-78763020D02*
X115455809Y-78714640D01*
X115552571Y-78666259D01*
X115794476Y-78666259D01*
X115891238Y-78714640D01*
X115939619Y-78763020D01*
X115988000Y-78859782D01*
X115988000Y-78956544D01*
X115939619Y-79101687D01*
X115359047Y-79682259D01*
X115988000Y-79682259D01*
X116616952Y-78666259D02*
X116713714Y-78666259D01*
X116810476Y-78714640D01*
X116858857Y-78763020D01*
X116907238Y-78859782D01*
X116955619Y-79053306D01*
X116955619Y-79295211D01*
X116907238Y-79488735D01*
X116858857Y-79585497D01*
X116810476Y-79633878D01*
X116713714Y-79682259D01*
X116616952Y-79682259D01*
X116520190Y-79633878D01*
X116471809Y-79585497D01*
X116423428Y-79488735D01*
X116375047Y-79295211D01*
X116375047Y-79053306D01*
X116423428Y-78859782D01*
X116471809Y-78763020D01*
X116520190Y-78714640D01*
X116616952Y-78666259D01*
X117342666Y-78763020D02*
X117391047Y-78714640D01*
X117487809Y-78666259D01*
X117729714Y-78666259D01*
X117826476Y-78714640D01*
X117874857Y-78763020D01*
X117923238Y-78859782D01*
X117923238Y-78956544D01*
X117874857Y-79101687D01*
X117294285Y-79682259D01*
X117923238Y-79682259D01*
X118261904Y-78666259D02*
X118890857Y-78666259D01*
X118552190Y-79053306D01*
X118697333Y-79053306D01*
X118794095Y-79101687D01*
X118842476Y-79150068D01*
X118890857Y-79246830D01*
X118890857Y-79488735D01*
X118842476Y-79585497D01*
X118794095Y-79633878D01*
X118697333Y-79682259D01*
X118407047Y-79682259D01*
X118310285Y-79633878D01*
X118261904Y-79585497D01*
X120680952Y-79585497D02*
X120632571Y-79633878D01*
X120487428Y-79682259D01*
X120390666Y-79682259D01*
X120245523Y-79633878D01*
X120148761Y-79537116D01*
X120100380Y-79440354D01*
X120052000Y-79246830D01*
X120052000Y-79101687D01*
X120100380Y-78908163D01*
X120148761Y-78811401D01*
X120245523Y-78714640D01*
X120390666Y-78666259D01*
X120487428Y-78666259D01*
X120632571Y-78714640D01*
X120680952Y-78763020D01*
X121696952Y-79585497D02*
X121648571Y-79633878D01*
X121503428Y-79682259D01*
X121406666Y-79682259D01*
X121261523Y-79633878D01*
X121164761Y-79537116D01*
X121116380Y-79440354D01*
X121068000Y-79246830D01*
X121068000Y-79101687D01*
X121116380Y-78908163D01*
X121164761Y-78811401D01*
X121261523Y-78714640D01*
X121406666Y-78666259D01*
X121503428Y-78666259D01*
X121648571Y-78714640D01*
X121696952Y-78763020D01*
X123245142Y-79150068D02*
X123390285Y-79198449D01*
X123438666Y-79246830D01*
X123487047Y-79343592D01*
X123487047Y-79488735D01*
X123438666Y-79585497D01*
X123390285Y-79633878D01*
X123293523Y-79682259D01*
X122906476Y-79682259D01*
X122906476Y-78666259D01*
X123245142Y-78666259D01*
X123341904Y-78714640D01*
X123390285Y-78763020D01*
X123438666Y-78859782D01*
X123438666Y-78956544D01*
X123390285Y-79053306D01*
X123341904Y-79101687D01*
X123245142Y-79150068D01*
X122906476Y-79150068D01*
X124116000Y-79198449D02*
X124116000Y-79682259D01*
X123777333Y-78666259D02*
X124116000Y-79198449D01*
X124454666Y-78666259D01*
X124793333Y-79295211D02*
X125567428Y-79295211D01*
X126002857Y-79633878D02*
X126148000Y-79682259D01*
X126389904Y-79682259D01*
X126486666Y-79633878D01*
X126535047Y-79585497D01*
X126583428Y-79488735D01*
X126583428Y-79391973D01*
X126535047Y-79295211D01*
X126486666Y-79246830D01*
X126389904Y-79198449D01*
X126196380Y-79150068D01*
X126099619Y-79101687D01*
X126051238Y-79053306D01*
X126002857Y-78956544D01*
X126002857Y-78859782D01*
X126051238Y-78763020D01*
X126099619Y-78714640D01*
X126196380Y-78666259D01*
X126438285Y-78666259D01*
X126583428Y-78714640D01*
X126970476Y-79391973D02*
X127454285Y-79391973D01*
X126873714Y-79682259D02*
X127212380Y-78666259D01*
X127551047Y-79682259D01*
X141291238Y-46738217D02*
X141242857Y-46786598D01*
X141097714Y-46834979D01*
X141000952Y-46834979D01*
X140855809Y-46786598D01*
X140759047Y-46689836D01*
X140710666Y-46593074D01*
X140662285Y-46399550D01*
X140662285Y-46254407D01*
X140710666Y-46060883D01*
X140759047Y-45964121D01*
X140855809Y-45867360D01*
X141000952Y-45818979D01*
X141097714Y-45818979D01*
X141242857Y-45867360D01*
X141291238Y-45915740D01*
X141726666Y-46834979D02*
X141726666Y-45818979D01*
X142307238Y-46834979D02*
X141871809Y-46254407D01*
X142307238Y-45818979D02*
X141726666Y-46399550D01*
X142597523Y-45818979D02*
X143178095Y-45818979D01*
X142887809Y-46834979D02*
X142887809Y-45818979D01*
X143516761Y-46447931D02*
X144290857Y-46447931D01*
X144774666Y-46834979D02*
X144774666Y-45818979D01*
X145016571Y-45818979D01*
X145161714Y-45867360D01*
X145258476Y-45964121D01*
X145306857Y-46060883D01*
X145355238Y-46254407D01*
X145355238Y-46399550D01*
X145306857Y-46593074D01*
X145258476Y-46689836D01*
X145161714Y-46786598D01*
X145016571Y-46834979D01*
X144774666Y-46834979D01*
X145790666Y-46834979D02*
X145790666Y-45818979D01*
X146274476Y-46834979D02*
X146274476Y-45818979D01*
X146855047Y-46834979D01*
X146855047Y-45818979D01*
X147871047Y-45867360D02*
X147774285Y-45818979D01*
X147629142Y-45818979D01*
X147484000Y-45867360D01*
X147387238Y-45964121D01*
X147338857Y-46060883D01*
X147290476Y-46254407D01*
X147290476Y-46399550D01*
X147338857Y-46593074D01*
X147387238Y-46689836D01*
X147484000Y-46786598D01*
X147629142Y-46834979D01*
X147725904Y-46834979D01*
X147871047Y-46786598D01*
X147919428Y-46738217D01*
X147919428Y-46399550D01*
X147725904Y-46399550D01*
X148354857Y-46834979D02*
X148354857Y-45818979D01*
X148596761Y-45818979D01*
X148741904Y-45867360D01*
X148838666Y-45964121D01*
X148887047Y-46060883D01*
X148935428Y-46254407D01*
X148935428Y-46399550D01*
X148887047Y-46593074D01*
X148838666Y-46689836D01*
X148741904Y-46786598D01*
X148596761Y-46834979D01*
X148354857Y-46834979D01*
X149564380Y-45818979D02*
X149757904Y-45818979D01*
X149854666Y-45867360D01*
X149951428Y-45964121D01*
X149999809Y-46157645D01*
X149999809Y-46496312D01*
X149951428Y-46689836D01*
X149854666Y-46786598D01*
X149757904Y-46834979D01*
X149564380Y-46834979D01*
X149467619Y-46786598D01*
X149370857Y-46689836D01*
X149322476Y-46496312D01*
X149322476Y-46157645D01*
X149370857Y-45964121D01*
X149467619Y-45867360D01*
X149564380Y-45818979D01*
X150435238Y-46834979D02*
X150435238Y-45818979D01*
X151015809Y-46834979D01*
X151015809Y-45818979D01*
X152031809Y-45867360D02*
X151935047Y-45818979D01*
X151789904Y-45818979D01*
X151644761Y-45867360D01*
X151548000Y-45964121D01*
X151499619Y-46060883D01*
X151451238Y-46254407D01*
X151451238Y-46399550D01*
X151499619Y-46593074D01*
X151548000Y-46689836D01*
X151644761Y-46786598D01*
X151789904Y-46834979D01*
X151886666Y-46834979D01*
X152031809Y-46786598D01*
X152080190Y-46738217D01*
X152080190Y-46399550D01*
X151886666Y-46399550D01*
X152515619Y-46447931D02*
X153289714Y-46447931D01*
X153725142Y-46786598D02*
X153870285Y-46834979D01*
X154112190Y-46834979D01*
X154208952Y-46786598D01*
X154257333Y-46738217D01*
X154305714Y-46641455D01*
X154305714Y-46544693D01*
X154257333Y-46447931D01*
X154208952Y-46399550D01*
X154112190Y-46351169D01*
X153918666Y-46302788D01*
X153821904Y-46254407D01*
X153773523Y-46206026D01*
X153725142Y-46109264D01*
X153725142Y-46012502D01*
X153773523Y-45915740D01*
X153821904Y-45867360D01*
X153918666Y-45818979D01*
X154160571Y-45818979D01*
X154305714Y-45867360D01*
X154741142Y-46834979D02*
X154741142Y-45818979D01*
X155128190Y-45818979D01*
X155224952Y-45867360D01*
X155273333Y-45915740D01*
X155321714Y-46012502D01*
X155321714Y-46157645D01*
X155273333Y-46254407D01*
X155224952Y-46302788D01*
X155128190Y-46351169D01*
X154741142Y-46351169D01*
X155757142Y-46834979D02*
X155757142Y-45818979D01*
X156337714Y-46834979D02*
X155902285Y-46254407D01*
X156337714Y-45818979D02*
X155757142Y-46399550D01*
X147048571Y-47793405D02*
X147290476Y-48470739D01*
X147532380Y-47793405D01*
X147871047Y-47551500D02*
X147919428Y-47503120D01*
X148016190Y-47454739D01*
X148258095Y-47454739D01*
X148354857Y-47503120D01*
X148403238Y-47551500D01*
X148451619Y-47648262D01*
X148451619Y-47745024D01*
X148403238Y-47890167D01*
X147822666Y-48470739D01*
X148451619Y-48470739D01*
X148887047Y-48373977D02*
X148935428Y-48422358D01*
X148887047Y-48470739D01*
X148838666Y-48422358D01*
X148887047Y-48373977D01*
X148887047Y-48470739D01*
X149564380Y-47454739D02*
X149661142Y-47454739D01*
X149757904Y-47503120D01*
X149806285Y-47551500D01*
X149854666Y-47648262D01*
X149903047Y-47841786D01*
X149903047Y-48083691D01*
X149854666Y-48277215D01*
X149806285Y-48373977D01*
X149757904Y-48422358D01*
X149661142Y-48470739D01*
X149564380Y-48470739D01*
X149467619Y-48422358D01*
X149419238Y-48373977D01*
X149370857Y-48277215D01*
X149322476Y-48083691D01*
X149322476Y-47841786D01*
X149370857Y-47648262D01*
X149419238Y-47551500D01*
X149467619Y-47503120D01*
X149564380Y-47454739D01*
X139307619Y-50106499D02*
X139307619Y-49090499D01*
X139936571Y-50106499D02*
X139839809Y-50058118D01*
X139791428Y-50009737D01*
X139743047Y-49912975D01*
X139743047Y-49622689D01*
X139791428Y-49525927D01*
X139839809Y-49477546D01*
X139936571Y-49429165D01*
X140081714Y-49429165D01*
X140178476Y-49477546D01*
X140226857Y-49525927D01*
X140275238Y-49622689D01*
X140275238Y-49912975D01*
X140226857Y-50009737D01*
X140178476Y-50058118D01*
X140081714Y-50106499D01*
X139936571Y-50106499D01*
X140613904Y-49429165D02*
X140807428Y-50106499D01*
X141000952Y-49622689D01*
X141194476Y-50106499D01*
X141388000Y-49429165D01*
X142210476Y-50106499D02*
X142210476Y-49574308D01*
X142162095Y-49477546D01*
X142065333Y-49429165D01*
X141871809Y-49429165D01*
X141775047Y-49477546D01*
X142210476Y-50058118D02*
X142113714Y-50106499D01*
X141871809Y-50106499D01*
X141775047Y-50058118D01*
X141726666Y-49961356D01*
X141726666Y-49864594D01*
X141775047Y-49767832D01*
X141871809Y-49719451D01*
X142113714Y-49719451D01*
X142210476Y-49671070D01*
X143420000Y-50058118D02*
X143565142Y-50106499D01*
X143807047Y-50106499D01*
X143903809Y-50058118D01*
X143952190Y-50009737D01*
X144000571Y-49912975D01*
X144000571Y-49816213D01*
X143952190Y-49719451D01*
X143903809Y-49671070D01*
X143807047Y-49622689D01*
X143613523Y-49574308D01*
X143516761Y-49525927D01*
X143468380Y-49477546D01*
X143420000Y-49380784D01*
X143420000Y-49284022D01*
X143468380Y-49187260D01*
X143516761Y-49138880D01*
X143613523Y-49090499D01*
X143855428Y-49090499D01*
X144000571Y-49138880D01*
X144871428Y-50058118D02*
X144774666Y-50106499D01*
X144581142Y-50106499D01*
X144484380Y-50058118D01*
X144436000Y-50009737D01*
X144387619Y-49912975D01*
X144387619Y-49622689D01*
X144436000Y-49525927D01*
X144484380Y-49477546D01*
X144581142Y-49429165D01*
X144774666Y-49429165D01*
X144871428Y-49477546D01*
X145742285Y-50106499D02*
X145742285Y-49574308D01*
X145693904Y-49477546D01*
X145597142Y-49429165D01*
X145403619Y-49429165D01*
X145306857Y-49477546D01*
X145742285Y-50058118D02*
X145645523Y-50106499D01*
X145403619Y-50106499D01*
X145306857Y-50058118D01*
X145258476Y-49961356D01*
X145258476Y-49864594D01*
X145306857Y-49767832D01*
X145403619Y-49719451D01*
X145645523Y-49719451D01*
X145742285Y-49671070D01*
X146371238Y-50106499D02*
X146274476Y-50058118D01*
X146226095Y-49961356D01*
X146226095Y-49090499D01*
X147145333Y-50058118D02*
X147048571Y-50106499D01*
X146855047Y-50106499D01*
X146758285Y-50058118D01*
X146709904Y-49961356D01*
X146709904Y-49574308D01*
X146758285Y-49477546D01*
X146855047Y-49429165D01*
X147048571Y-49429165D01*
X147145333Y-49477546D01*
X147193714Y-49574308D01*
X147193714Y-49671070D01*
X146709904Y-49767832D01*
X148064571Y-50106499D02*
X148064571Y-49090499D01*
X148064571Y-50058118D02*
X147967809Y-50106499D01*
X147774285Y-50106499D01*
X147677523Y-50058118D01*
X147629142Y-50009737D01*
X147580761Y-49912975D01*
X147580761Y-49622689D01*
X147629142Y-49525927D01*
X147677523Y-49477546D01*
X147774285Y-49429165D01*
X147967809Y-49429165D01*
X148064571Y-49477546D01*
X149322476Y-49574308D02*
X149661142Y-49574308D01*
X149806285Y-50106499D02*
X149322476Y-50106499D01*
X149322476Y-49090499D01*
X149806285Y-49090499D01*
X150241714Y-49429165D02*
X150241714Y-50106499D01*
X150241714Y-49525927D02*
X150290095Y-49477546D01*
X150386857Y-49429165D01*
X150532000Y-49429165D01*
X150628761Y-49477546D01*
X150677142Y-49574308D01*
X150677142Y-50106499D01*
X151596380Y-49429165D02*
X151596380Y-50251641D01*
X151548000Y-50348403D01*
X151499619Y-50396784D01*
X151402857Y-50445165D01*
X151257714Y-50445165D01*
X151160952Y-50396784D01*
X151596380Y-50058118D02*
X151499619Y-50106499D01*
X151306095Y-50106499D01*
X151209333Y-50058118D01*
X151160952Y-50009737D01*
X151112571Y-49912975D01*
X151112571Y-49622689D01*
X151160952Y-49525927D01*
X151209333Y-49477546D01*
X151306095Y-49429165D01*
X151499619Y-49429165D01*
X151596380Y-49477546D01*
X152080190Y-50106499D02*
X152080190Y-49429165D01*
X152080190Y-49090499D02*
X152031809Y-49138880D01*
X152080190Y-49187260D01*
X152128571Y-49138880D01*
X152080190Y-49090499D01*
X152080190Y-49187260D01*
X152564000Y-49429165D02*
X152564000Y-50106499D01*
X152564000Y-49525927D02*
X152612380Y-49477546D01*
X152709142Y-49429165D01*
X152854285Y-49429165D01*
X152951047Y-49477546D01*
X152999428Y-49574308D01*
X152999428Y-50106499D01*
X153870285Y-50058118D02*
X153773523Y-50106499D01*
X153580000Y-50106499D01*
X153483238Y-50058118D01*
X153434857Y-49961356D01*
X153434857Y-49574308D01*
X153483238Y-49477546D01*
X153580000Y-49429165D01*
X153773523Y-49429165D01*
X153870285Y-49477546D01*
X153918666Y-49574308D01*
X153918666Y-49671070D01*
X153434857Y-49767832D01*
X154741142Y-50058118D02*
X154644380Y-50106499D01*
X154450857Y-50106499D01*
X154354095Y-50058118D01*
X154305714Y-49961356D01*
X154305714Y-49574308D01*
X154354095Y-49477546D01*
X154450857Y-49429165D01*
X154644380Y-49429165D01*
X154741142Y-49477546D01*
X154789523Y-49574308D01*
X154789523Y-49671070D01*
X154305714Y-49767832D01*
X155224952Y-50106499D02*
X155224952Y-49429165D01*
X155224952Y-49622689D02*
X155273333Y-49525927D01*
X155321714Y-49477546D01*
X155418476Y-49429165D01*
X155515238Y-49429165D01*
X155853904Y-50106499D02*
X155853904Y-49429165D01*
X155853904Y-49090499D02*
X155805523Y-49138880D01*
X155853904Y-49187260D01*
X155902285Y-49138880D01*
X155853904Y-49090499D01*
X155853904Y-49187260D01*
X156337714Y-49429165D02*
X156337714Y-50106499D01*
X156337714Y-49525927D02*
X156386095Y-49477546D01*
X156482857Y-49429165D01*
X156628000Y-49429165D01*
X156724761Y-49477546D01*
X156773142Y-49574308D01*
X156773142Y-50106499D01*
X157692380Y-49429165D02*
X157692380Y-50251641D01*
X157644000Y-50348403D01*
X157595619Y-50396784D01*
X157498857Y-50445165D01*
X157353714Y-50445165D01*
X157256952Y-50396784D01*
X157692380Y-50058118D02*
X157595619Y-50106499D01*
X157402095Y-50106499D01*
X157305333Y-50058118D01*
X157256952Y-50009737D01*
X157208571Y-49912975D01*
X157208571Y-49622689D01*
X157256952Y-49525927D01*
X157305333Y-49477546D01*
X157402095Y-49429165D01*
X157595619Y-49429165D01*
X157692380Y-49477546D01*
X142476571Y-50968163D02*
X142379809Y-50919782D01*
X142186285Y-50919782D01*
X142089523Y-50968163D01*
X141992761Y-51064925D01*
X141944380Y-51161687D01*
X141944380Y-51355211D01*
X141992761Y-51451973D01*
X142089523Y-51548735D01*
X142186285Y-51597116D01*
X142379809Y-51597116D01*
X142476571Y-51548735D01*
X142283047Y-50581116D02*
X142041142Y-50629497D01*
X141799238Y-50774640D01*
X141654095Y-51016544D01*
X141605714Y-51258449D01*
X141654095Y-51500354D01*
X141799238Y-51742259D01*
X142041142Y-51887401D01*
X142283047Y-51935782D01*
X142524952Y-51887401D01*
X142766857Y-51742259D01*
X142912000Y-51500354D01*
X142960380Y-51258449D01*
X142912000Y-51016544D01*
X142766857Y-50774640D01*
X142524952Y-50629497D01*
X142283047Y-50581116D01*
X143347428Y-50823020D02*
X143395809Y-50774640D01*
X143492571Y-50726259D01*
X143734476Y-50726259D01*
X143831238Y-50774640D01*
X143879619Y-50823020D01*
X143928000Y-50919782D01*
X143928000Y-51016544D01*
X143879619Y-51161687D01*
X143299047Y-51742259D01*
X143928000Y-51742259D01*
X144556952Y-50726259D02*
X144653714Y-50726259D01*
X144750476Y-50774640D01*
X144798857Y-50823020D01*
X144847238Y-50919782D01*
X144895619Y-51113306D01*
X144895619Y-51355211D01*
X144847238Y-51548735D01*
X144798857Y-51645497D01*
X144750476Y-51693878D01*
X144653714Y-51742259D01*
X144556952Y-51742259D01*
X144460190Y-51693878D01*
X144411809Y-51645497D01*
X144363428Y-51548735D01*
X144315047Y-51355211D01*
X144315047Y-51113306D01*
X144363428Y-50919782D01*
X144411809Y-50823020D01*
X144460190Y-50774640D01*
X144556952Y-50726259D01*
X145282666Y-50823020D02*
X145331047Y-50774640D01*
X145427809Y-50726259D01*
X145669714Y-50726259D01*
X145766476Y-50774640D01*
X145814857Y-50823020D01*
X145863238Y-50919782D01*
X145863238Y-51016544D01*
X145814857Y-51161687D01*
X145234285Y-51742259D01*
X145863238Y-51742259D01*
X146201904Y-50726259D02*
X146830857Y-50726259D01*
X146492190Y-51113306D01*
X146637333Y-51113306D01*
X146734095Y-51161687D01*
X146782476Y-51210068D01*
X146830857Y-51306830D01*
X146830857Y-51548735D01*
X146782476Y-51645497D01*
X146734095Y-51693878D01*
X146637333Y-51742259D01*
X146347047Y-51742259D01*
X146250285Y-51693878D01*
X146201904Y-51645497D01*
X148620952Y-51645497D02*
X148572571Y-51693878D01*
X148427428Y-51742259D01*
X148330666Y-51742259D01*
X148185523Y-51693878D01*
X148088761Y-51597116D01*
X148040380Y-51500354D01*
X147992000Y-51306830D01*
X147992000Y-51161687D01*
X148040380Y-50968163D01*
X148088761Y-50871401D01*
X148185523Y-50774640D01*
X148330666Y-50726259D01*
X148427428Y-50726259D01*
X148572571Y-50774640D01*
X148620952Y-50823020D01*
X149636952Y-51645497D02*
X149588571Y-51693878D01*
X149443428Y-51742259D01*
X149346666Y-51742259D01*
X149201523Y-51693878D01*
X149104761Y-51597116D01*
X149056380Y-51500354D01*
X149008000Y-51306830D01*
X149008000Y-51161687D01*
X149056380Y-50968163D01*
X149104761Y-50871401D01*
X149201523Y-50774640D01*
X149346666Y-50726259D01*
X149443428Y-50726259D01*
X149588571Y-50774640D01*
X149636952Y-50823020D01*
X151185142Y-51210068D02*
X151330285Y-51258449D01*
X151378666Y-51306830D01*
X151427047Y-51403592D01*
X151427047Y-51548735D01*
X151378666Y-51645497D01*
X151330285Y-51693878D01*
X151233523Y-51742259D01*
X150846476Y-51742259D01*
X150846476Y-50726259D01*
X151185142Y-50726259D01*
X151281904Y-50774640D01*
X151330285Y-50823020D01*
X151378666Y-50919782D01*
X151378666Y-51016544D01*
X151330285Y-51113306D01*
X151281904Y-51161687D01*
X151185142Y-51210068D01*
X150846476Y-51210068D01*
X152056000Y-51258449D02*
X152056000Y-51742259D01*
X151717333Y-50726259D02*
X152056000Y-51258449D01*
X152394666Y-50726259D01*
X152733333Y-51355211D02*
X153507428Y-51355211D01*
X153942857Y-51693878D02*
X154088000Y-51742259D01*
X154329904Y-51742259D01*
X154426666Y-51693878D01*
X154475047Y-51645497D01*
X154523428Y-51548735D01*
X154523428Y-51451973D01*
X154475047Y-51355211D01*
X154426666Y-51306830D01*
X154329904Y-51258449D01*
X154136380Y-51210068D01*
X154039619Y-51161687D01*
X153991238Y-51113306D01*
X153942857Y-51016544D01*
X153942857Y-50919782D01*
X153991238Y-50823020D01*
X154039619Y-50774640D01*
X154136380Y-50726259D01*
X154378285Y-50726259D01*
X154523428Y-50774640D01*
X154910476Y-51451973D02*
X155394285Y-51451973D01*
X154813714Y-51742259D02*
X155152380Y-50726259D01*
X155491047Y-51742259D01*
X169231238Y-74678217D02*
X169182857Y-74726598D01*
X169037714Y-74774979D01*
X168940952Y-74774979D01*
X168795809Y-74726598D01*
X168699047Y-74629836D01*
X168650666Y-74533074D01*
X168602285Y-74339550D01*
X168602285Y-74194407D01*
X168650666Y-74000883D01*
X168699047Y-73904121D01*
X168795809Y-73807360D01*
X168940952Y-73758979D01*
X169037714Y-73758979D01*
X169182857Y-73807360D01*
X169231238Y-73855740D01*
X169666666Y-74774979D02*
X169666666Y-73758979D01*
X170247238Y-74774979D02*
X169811809Y-74194407D01*
X170247238Y-73758979D02*
X169666666Y-74339550D01*
X170537523Y-73758979D02*
X171118095Y-73758979D01*
X170827809Y-74774979D02*
X170827809Y-73758979D01*
X171456761Y-74387931D02*
X172230857Y-74387931D01*
X172714666Y-74774979D02*
X172714666Y-73758979D01*
X172956571Y-73758979D01*
X173101714Y-73807360D01*
X173198476Y-73904121D01*
X173246857Y-74000883D01*
X173295238Y-74194407D01*
X173295238Y-74339550D01*
X173246857Y-74533074D01*
X173198476Y-74629836D01*
X173101714Y-74726598D01*
X172956571Y-74774979D01*
X172714666Y-74774979D01*
X173730666Y-74774979D02*
X173730666Y-73758979D01*
X174214476Y-74774979D02*
X174214476Y-73758979D01*
X174795047Y-74774979D01*
X174795047Y-73758979D01*
X175811047Y-73807360D02*
X175714285Y-73758979D01*
X175569142Y-73758979D01*
X175424000Y-73807360D01*
X175327238Y-73904121D01*
X175278857Y-74000883D01*
X175230476Y-74194407D01*
X175230476Y-74339550D01*
X175278857Y-74533074D01*
X175327238Y-74629836D01*
X175424000Y-74726598D01*
X175569142Y-74774979D01*
X175665904Y-74774979D01*
X175811047Y-74726598D01*
X175859428Y-74678217D01*
X175859428Y-74339550D01*
X175665904Y-74339550D01*
X176294857Y-74774979D02*
X176294857Y-73758979D01*
X176536761Y-73758979D01*
X176681904Y-73807360D01*
X176778666Y-73904121D01*
X176827047Y-74000883D01*
X176875428Y-74194407D01*
X176875428Y-74339550D01*
X176827047Y-74533074D01*
X176778666Y-74629836D01*
X176681904Y-74726598D01*
X176536761Y-74774979D01*
X176294857Y-74774979D01*
X177504380Y-73758979D02*
X177697904Y-73758979D01*
X177794666Y-73807360D01*
X177891428Y-73904121D01*
X177939809Y-74097645D01*
X177939809Y-74436312D01*
X177891428Y-74629836D01*
X177794666Y-74726598D01*
X177697904Y-74774979D01*
X177504380Y-74774979D01*
X177407619Y-74726598D01*
X177310857Y-74629836D01*
X177262476Y-74436312D01*
X177262476Y-74097645D01*
X177310857Y-73904121D01*
X177407619Y-73807360D01*
X177504380Y-73758979D01*
X178375238Y-74774979D02*
X178375238Y-73758979D01*
X178955809Y-74774979D01*
X178955809Y-73758979D01*
X179971809Y-73807360D02*
X179875047Y-73758979D01*
X179729904Y-73758979D01*
X179584761Y-73807360D01*
X179488000Y-73904121D01*
X179439619Y-74000883D01*
X179391238Y-74194407D01*
X179391238Y-74339550D01*
X179439619Y-74533074D01*
X179488000Y-74629836D01*
X179584761Y-74726598D01*
X179729904Y-74774979D01*
X179826666Y-74774979D01*
X179971809Y-74726598D01*
X180020190Y-74678217D01*
X180020190Y-74339550D01*
X179826666Y-74339550D01*
X180455619Y-74387931D02*
X181229714Y-74387931D01*
X181665142Y-74726598D02*
X181810285Y-74774979D01*
X182052190Y-74774979D01*
X182148952Y-74726598D01*
X182197333Y-74678217D01*
X182245714Y-74581455D01*
X182245714Y-74484693D01*
X182197333Y-74387931D01*
X182148952Y-74339550D01*
X182052190Y-74291169D01*
X181858666Y-74242788D01*
X181761904Y-74194407D01*
X181713523Y-74146026D01*
X181665142Y-74049264D01*
X181665142Y-73952502D01*
X181713523Y-73855740D01*
X181761904Y-73807360D01*
X181858666Y-73758979D01*
X182100571Y-73758979D01*
X182245714Y-73807360D01*
X182681142Y-74774979D02*
X182681142Y-73758979D01*
X183068190Y-73758979D01*
X183164952Y-73807360D01*
X183213333Y-73855740D01*
X183261714Y-73952502D01*
X183261714Y-74097645D01*
X183213333Y-74194407D01*
X183164952Y-74242788D01*
X183068190Y-74291169D01*
X182681142Y-74291169D01*
X183697142Y-74774979D02*
X183697142Y-73758979D01*
X184277714Y-74774979D02*
X183842285Y-74194407D01*
X184277714Y-73758979D02*
X183697142Y-74339550D01*
X174988571Y-75733405D02*
X175230476Y-76410739D01*
X175472380Y-75733405D01*
X175811047Y-75491500D02*
X175859428Y-75443120D01*
X175956190Y-75394739D01*
X176198095Y-75394739D01*
X176294857Y-75443120D01*
X176343238Y-75491500D01*
X176391619Y-75588262D01*
X176391619Y-75685024D01*
X176343238Y-75830167D01*
X175762666Y-76410739D01*
X176391619Y-76410739D01*
X176827047Y-76313977D02*
X176875428Y-76362358D01*
X176827047Y-76410739D01*
X176778666Y-76362358D01*
X176827047Y-76313977D01*
X176827047Y-76410739D01*
X177504380Y-75394739D02*
X177601142Y-75394739D01*
X177697904Y-75443120D01*
X177746285Y-75491500D01*
X177794666Y-75588262D01*
X177843047Y-75781786D01*
X177843047Y-76023691D01*
X177794666Y-76217215D01*
X177746285Y-76313977D01*
X177697904Y-76362358D01*
X177601142Y-76410739D01*
X177504380Y-76410739D01*
X177407619Y-76362358D01*
X177359238Y-76313977D01*
X177310857Y-76217215D01*
X177262476Y-76023691D01*
X177262476Y-75781786D01*
X177310857Y-75588262D01*
X177359238Y-75491500D01*
X177407619Y-75443120D01*
X177504380Y-75394739D01*
X167247619Y-78046499D02*
X167247619Y-77030499D01*
X167876571Y-78046499D02*
X167779809Y-77998118D01*
X167731428Y-77949737D01*
X167683047Y-77852975D01*
X167683047Y-77562689D01*
X167731428Y-77465927D01*
X167779809Y-77417546D01*
X167876571Y-77369165D01*
X168021714Y-77369165D01*
X168118476Y-77417546D01*
X168166857Y-77465927D01*
X168215238Y-77562689D01*
X168215238Y-77852975D01*
X168166857Y-77949737D01*
X168118476Y-77998118D01*
X168021714Y-78046499D01*
X167876571Y-78046499D01*
X168553904Y-77369165D02*
X168747428Y-78046499D01*
X168940952Y-77562689D01*
X169134476Y-78046499D01*
X169328000Y-77369165D01*
X170150476Y-78046499D02*
X170150476Y-77514308D01*
X170102095Y-77417546D01*
X170005333Y-77369165D01*
X169811809Y-77369165D01*
X169715047Y-77417546D01*
X170150476Y-77998118D02*
X170053714Y-78046499D01*
X169811809Y-78046499D01*
X169715047Y-77998118D01*
X169666666Y-77901356D01*
X169666666Y-77804594D01*
X169715047Y-77707832D01*
X169811809Y-77659451D01*
X170053714Y-77659451D01*
X170150476Y-77611070D01*
X171360000Y-77998118D02*
X171505142Y-78046499D01*
X171747047Y-78046499D01*
X171843809Y-77998118D01*
X171892190Y-77949737D01*
X171940571Y-77852975D01*
X171940571Y-77756213D01*
X171892190Y-77659451D01*
X171843809Y-77611070D01*
X171747047Y-77562689D01*
X171553523Y-77514308D01*
X171456761Y-77465927D01*
X171408380Y-77417546D01*
X171360000Y-77320784D01*
X171360000Y-77224022D01*
X171408380Y-77127260D01*
X171456761Y-77078880D01*
X171553523Y-77030499D01*
X171795428Y-77030499D01*
X171940571Y-77078880D01*
X172811428Y-77998118D02*
X172714666Y-78046499D01*
X172521142Y-78046499D01*
X172424380Y-77998118D01*
X172376000Y-77949737D01*
X172327619Y-77852975D01*
X172327619Y-77562689D01*
X172376000Y-77465927D01*
X172424380Y-77417546D01*
X172521142Y-77369165D01*
X172714666Y-77369165D01*
X172811428Y-77417546D01*
X173682285Y-78046499D02*
X173682285Y-77514308D01*
X173633904Y-77417546D01*
X173537142Y-77369165D01*
X173343619Y-77369165D01*
X173246857Y-77417546D01*
X173682285Y-77998118D02*
X173585523Y-78046499D01*
X173343619Y-78046499D01*
X173246857Y-77998118D01*
X173198476Y-77901356D01*
X173198476Y-77804594D01*
X173246857Y-77707832D01*
X173343619Y-77659451D01*
X173585523Y-77659451D01*
X173682285Y-77611070D01*
X174311238Y-78046499D02*
X174214476Y-77998118D01*
X174166095Y-77901356D01*
X174166095Y-77030499D01*
X175085333Y-77998118D02*
X174988571Y-78046499D01*
X174795047Y-78046499D01*
X174698285Y-77998118D01*
X174649904Y-77901356D01*
X174649904Y-77514308D01*
X174698285Y-77417546D01*
X174795047Y-77369165D01*
X174988571Y-77369165D01*
X175085333Y-77417546D01*
X175133714Y-77514308D01*
X175133714Y-77611070D01*
X174649904Y-77707832D01*
X176004571Y-78046499D02*
X176004571Y-77030499D01*
X176004571Y-77998118D02*
X175907809Y-78046499D01*
X175714285Y-78046499D01*
X175617523Y-77998118D01*
X175569142Y-77949737D01*
X175520761Y-77852975D01*
X175520761Y-77562689D01*
X175569142Y-77465927D01*
X175617523Y-77417546D01*
X175714285Y-77369165D01*
X175907809Y-77369165D01*
X176004571Y-77417546D01*
X177262476Y-77514308D02*
X177601142Y-77514308D01*
X177746285Y-78046499D02*
X177262476Y-78046499D01*
X177262476Y-77030499D01*
X177746285Y-77030499D01*
X178181714Y-77369165D02*
X178181714Y-78046499D01*
X178181714Y-77465927D02*
X178230095Y-77417546D01*
X178326857Y-77369165D01*
X178472000Y-77369165D01*
X178568761Y-77417546D01*
X178617142Y-77514308D01*
X178617142Y-78046499D01*
X179536380Y-77369165D02*
X179536380Y-78191641D01*
X179488000Y-78288403D01*
X179439619Y-78336784D01*
X179342857Y-78385165D01*
X179197714Y-78385165D01*
X179100952Y-78336784D01*
X179536380Y-77998118D02*
X179439619Y-78046499D01*
X179246095Y-78046499D01*
X179149333Y-77998118D01*
X179100952Y-77949737D01*
X179052571Y-77852975D01*
X179052571Y-77562689D01*
X179100952Y-77465927D01*
X179149333Y-77417546D01*
X179246095Y-77369165D01*
X179439619Y-77369165D01*
X179536380Y-77417546D01*
X180020190Y-78046499D02*
X180020190Y-77369165D01*
X180020190Y-77030499D02*
X179971809Y-77078880D01*
X180020190Y-77127260D01*
X180068571Y-77078880D01*
X180020190Y-77030499D01*
X180020190Y-77127260D01*
X180504000Y-77369165D02*
X180504000Y-78046499D01*
X180504000Y-77465927D02*
X180552380Y-77417546D01*
X180649142Y-77369165D01*
X180794285Y-77369165D01*
X180891047Y-77417546D01*
X180939428Y-77514308D01*
X180939428Y-78046499D01*
X181810285Y-77998118D02*
X181713523Y-78046499D01*
X181520000Y-78046499D01*
X181423238Y-77998118D01*
X181374857Y-77901356D01*
X181374857Y-77514308D01*
X181423238Y-77417546D01*
X181520000Y-77369165D01*
X181713523Y-77369165D01*
X181810285Y-77417546D01*
X181858666Y-77514308D01*
X181858666Y-77611070D01*
X181374857Y-77707832D01*
X182681142Y-77998118D02*
X182584380Y-78046499D01*
X182390857Y-78046499D01*
X182294095Y-77998118D01*
X182245714Y-77901356D01*
X182245714Y-77514308D01*
X182294095Y-77417546D01*
X182390857Y-77369165D01*
X182584380Y-77369165D01*
X182681142Y-77417546D01*
X182729523Y-77514308D01*
X182729523Y-77611070D01*
X182245714Y-77707832D01*
X183164952Y-78046499D02*
X183164952Y-77369165D01*
X183164952Y-77562689D02*
X183213333Y-77465927D01*
X183261714Y-77417546D01*
X183358476Y-77369165D01*
X183455238Y-77369165D01*
X183793904Y-78046499D02*
X183793904Y-77369165D01*
X183793904Y-77030499D02*
X183745523Y-77078880D01*
X183793904Y-77127260D01*
X183842285Y-77078880D01*
X183793904Y-77030499D01*
X183793904Y-77127260D01*
X184277714Y-77369165D02*
X184277714Y-78046499D01*
X184277714Y-77465927D02*
X184326095Y-77417546D01*
X184422857Y-77369165D01*
X184568000Y-77369165D01*
X184664761Y-77417546D01*
X184713142Y-77514308D01*
X184713142Y-78046499D01*
X185632380Y-77369165D02*
X185632380Y-78191641D01*
X185584000Y-78288403D01*
X185535619Y-78336784D01*
X185438857Y-78385165D01*
X185293714Y-78385165D01*
X185196952Y-78336784D01*
X185632380Y-77998118D02*
X185535619Y-78046499D01*
X185342095Y-78046499D01*
X185245333Y-77998118D01*
X185196952Y-77949737D01*
X185148571Y-77852975D01*
X185148571Y-77562689D01*
X185196952Y-77465927D01*
X185245333Y-77417546D01*
X185342095Y-77369165D01*
X185535619Y-77369165D01*
X185632380Y-77417546D01*
X170416571Y-78908163D02*
X170319809Y-78859782D01*
X170126285Y-78859782D01*
X170029523Y-78908163D01*
X169932761Y-79004925D01*
X169884380Y-79101687D01*
X169884380Y-79295211D01*
X169932761Y-79391973D01*
X170029523Y-79488735D01*
X170126285Y-79537116D01*
X170319809Y-79537116D01*
X170416571Y-79488735D01*
X170223047Y-78521116D02*
X169981142Y-78569497D01*
X169739238Y-78714640D01*
X169594095Y-78956544D01*
X169545714Y-79198449D01*
X169594095Y-79440354D01*
X169739238Y-79682259D01*
X169981142Y-79827401D01*
X170223047Y-79875782D01*
X170464952Y-79827401D01*
X170706857Y-79682259D01*
X170852000Y-79440354D01*
X170900380Y-79198449D01*
X170852000Y-78956544D01*
X170706857Y-78714640D01*
X170464952Y-78569497D01*
X170223047Y-78521116D01*
X171287428Y-78763020D02*
X171335809Y-78714640D01*
X171432571Y-78666259D01*
X171674476Y-78666259D01*
X171771238Y-78714640D01*
X171819619Y-78763020D01*
X171868000Y-78859782D01*
X171868000Y-78956544D01*
X171819619Y-79101687D01*
X171239047Y-79682259D01*
X171868000Y-79682259D01*
X172496952Y-78666259D02*
X172593714Y-78666259D01*
X172690476Y-78714640D01*
X172738857Y-78763020D01*
X172787238Y-78859782D01*
X172835619Y-79053306D01*
X172835619Y-79295211D01*
X172787238Y-79488735D01*
X172738857Y-79585497D01*
X172690476Y-79633878D01*
X172593714Y-79682259D01*
X172496952Y-79682259D01*
X172400190Y-79633878D01*
X172351809Y-79585497D01*
X172303428Y-79488735D01*
X172255047Y-79295211D01*
X172255047Y-79053306D01*
X172303428Y-78859782D01*
X172351809Y-78763020D01*
X172400190Y-78714640D01*
X172496952Y-78666259D01*
X173222666Y-78763020D02*
X173271047Y-78714640D01*
X173367809Y-78666259D01*
X173609714Y-78666259D01*
X173706476Y-78714640D01*
X173754857Y-78763020D01*
X173803238Y-78859782D01*
X173803238Y-78956544D01*
X173754857Y-79101687D01*
X173174285Y-79682259D01*
X173803238Y-79682259D01*
X174141904Y-78666259D02*
X174770857Y-78666259D01*
X174432190Y-79053306D01*
X174577333Y-79053306D01*
X174674095Y-79101687D01*
X174722476Y-79150068D01*
X174770857Y-79246830D01*
X174770857Y-79488735D01*
X174722476Y-79585497D01*
X174674095Y-79633878D01*
X174577333Y-79682259D01*
X174287047Y-79682259D01*
X174190285Y-79633878D01*
X174141904Y-79585497D01*
X176560952Y-79585497D02*
X176512571Y-79633878D01*
X176367428Y-79682259D01*
X176270666Y-79682259D01*
X176125523Y-79633878D01*
X176028761Y-79537116D01*
X175980380Y-79440354D01*
X175932000Y-79246830D01*
X175932000Y-79101687D01*
X175980380Y-78908163D01*
X176028761Y-78811401D01*
X176125523Y-78714640D01*
X176270666Y-78666259D01*
X176367428Y-78666259D01*
X176512571Y-78714640D01*
X176560952Y-78763020D01*
X177576952Y-79585497D02*
X177528571Y-79633878D01*
X177383428Y-79682259D01*
X177286666Y-79682259D01*
X177141523Y-79633878D01*
X177044761Y-79537116D01*
X176996380Y-79440354D01*
X176948000Y-79246830D01*
X176948000Y-79101687D01*
X176996380Y-78908163D01*
X177044761Y-78811401D01*
X177141523Y-78714640D01*
X177286666Y-78666259D01*
X177383428Y-78666259D01*
X177528571Y-78714640D01*
X177576952Y-78763020D01*
X179125142Y-79150068D02*
X179270285Y-79198449D01*
X179318666Y-79246830D01*
X179367047Y-79343592D01*
X179367047Y-79488735D01*
X179318666Y-79585497D01*
X179270285Y-79633878D01*
X179173523Y-79682259D01*
X178786476Y-79682259D01*
X178786476Y-78666259D01*
X179125142Y-78666259D01*
X179221904Y-78714640D01*
X179270285Y-78763020D01*
X179318666Y-78859782D01*
X179318666Y-78956544D01*
X179270285Y-79053306D01*
X179221904Y-79101687D01*
X179125142Y-79150068D01*
X178786476Y-79150068D01*
X179996000Y-79198449D02*
X179996000Y-79682259D01*
X179657333Y-78666259D02*
X179996000Y-79198449D01*
X180334666Y-78666259D01*
X180673333Y-79295211D02*
X181447428Y-79295211D01*
X181882857Y-79633878D02*
X182028000Y-79682259D01*
X182269904Y-79682259D01*
X182366666Y-79633878D01*
X182415047Y-79585497D01*
X182463428Y-79488735D01*
X182463428Y-79391973D01*
X182415047Y-79295211D01*
X182366666Y-79246830D01*
X182269904Y-79198449D01*
X182076380Y-79150068D01*
X181979619Y-79101687D01*
X181931238Y-79053306D01*
X181882857Y-78956544D01*
X181882857Y-78859782D01*
X181931238Y-78763020D01*
X181979619Y-78714640D01*
X182076380Y-78666259D01*
X182318285Y-78666259D01*
X182463428Y-78714640D01*
X182850476Y-79391973D02*
X183334285Y-79391973D01*
X182753714Y-79682259D02*
X183092380Y-78666259D01*
X183431047Y-79682259D01*
X113351238Y-102618217D02*
X113302857Y-102666598D01*
X113157714Y-102714979D01*
X113060952Y-102714979D01*
X112915809Y-102666598D01*
X112819047Y-102569836D01*
X112770666Y-102473074D01*
X112722285Y-102279550D01*
X112722285Y-102134407D01*
X112770666Y-101940883D01*
X112819047Y-101844121D01*
X112915809Y-101747360D01*
X113060952Y-101698979D01*
X113157714Y-101698979D01*
X113302857Y-101747360D01*
X113351238Y-101795740D01*
X113786666Y-102714979D02*
X113786666Y-101698979D01*
X114367238Y-102714979D02*
X113931809Y-102134407D01*
X114367238Y-101698979D02*
X113786666Y-102279550D01*
X114657523Y-101698979D02*
X115238095Y-101698979D01*
X114947809Y-102714979D02*
X114947809Y-101698979D01*
X115576761Y-102327931D02*
X116350857Y-102327931D01*
X116834666Y-102714979D02*
X116834666Y-101698979D01*
X117076571Y-101698979D01*
X117221714Y-101747360D01*
X117318476Y-101844121D01*
X117366857Y-101940883D01*
X117415238Y-102134407D01*
X117415238Y-102279550D01*
X117366857Y-102473074D01*
X117318476Y-102569836D01*
X117221714Y-102666598D01*
X117076571Y-102714979D01*
X116834666Y-102714979D01*
X117850666Y-102714979D02*
X117850666Y-101698979D01*
X118334476Y-102714979D02*
X118334476Y-101698979D01*
X118915047Y-102714979D01*
X118915047Y-101698979D01*
X119931047Y-101747360D02*
X119834285Y-101698979D01*
X119689142Y-101698979D01*
X119544000Y-101747360D01*
X119447238Y-101844121D01*
X119398857Y-101940883D01*
X119350476Y-102134407D01*
X119350476Y-102279550D01*
X119398857Y-102473074D01*
X119447238Y-102569836D01*
X119544000Y-102666598D01*
X119689142Y-102714979D01*
X119785904Y-102714979D01*
X119931047Y-102666598D01*
X119979428Y-102618217D01*
X119979428Y-102279550D01*
X119785904Y-102279550D01*
X120414857Y-102714979D02*
X120414857Y-101698979D01*
X120656761Y-101698979D01*
X120801904Y-101747360D01*
X120898666Y-101844121D01*
X120947047Y-101940883D01*
X120995428Y-102134407D01*
X120995428Y-102279550D01*
X120947047Y-102473074D01*
X120898666Y-102569836D01*
X120801904Y-102666598D01*
X120656761Y-102714979D01*
X120414857Y-102714979D01*
X121624380Y-101698979D02*
X121817904Y-101698979D01*
X121914666Y-101747360D01*
X122011428Y-101844121D01*
X122059809Y-102037645D01*
X122059809Y-102376312D01*
X122011428Y-102569836D01*
X121914666Y-102666598D01*
X121817904Y-102714979D01*
X121624380Y-102714979D01*
X121527619Y-102666598D01*
X121430857Y-102569836D01*
X121382476Y-102376312D01*
X121382476Y-102037645D01*
X121430857Y-101844121D01*
X121527619Y-101747360D01*
X121624380Y-101698979D01*
X122495238Y-102714979D02*
X122495238Y-101698979D01*
X123075809Y-102714979D01*
X123075809Y-101698979D01*
X124091809Y-101747360D02*
X123995047Y-101698979D01*
X123849904Y-101698979D01*
X123704761Y-101747360D01*
X123608000Y-101844121D01*
X123559619Y-101940883D01*
X123511238Y-102134407D01*
X123511238Y-102279550D01*
X123559619Y-102473074D01*
X123608000Y-102569836D01*
X123704761Y-102666598D01*
X123849904Y-102714979D01*
X123946666Y-102714979D01*
X124091809Y-102666598D01*
X124140190Y-102618217D01*
X124140190Y-102279550D01*
X123946666Y-102279550D01*
X124575619Y-102327931D02*
X125349714Y-102327931D01*
X125785142Y-102666598D02*
X125930285Y-102714979D01*
X126172190Y-102714979D01*
X126268952Y-102666598D01*
X126317333Y-102618217D01*
X126365714Y-102521455D01*
X126365714Y-102424693D01*
X126317333Y-102327931D01*
X126268952Y-102279550D01*
X126172190Y-102231169D01*
X125978666Y-102182788D01*
X125881904Y-102134407D01*
X125833523Y-102086026D01*
X125785142Y-101989264D01*
X125785142Y-101892502D01*
X125833523Y-101795740D01*
X125881904Y-101747360D01*
X125978666Y-101698979D01*
X126220571Y-101698979D01*
X126365714Y-101747360D01*
X126801142Y-102714979D02*
X126801142Y-101698979D01*
X127188190Y-101698979D01*
X127284952Y-101747360D01*
X127333333Y-101795740D01*
X127381714Y-101892502D01*
X127381714Y-102037645D01*
X127333333Y-102134407D01*
X127284952Y-102182788D01*
X127188190Y-102231169D01*
X126801142Y-102231169D01*
X127817142Y-102714979D02*
X127817142Y-101698979D01*
X128397714Y-102714979D02*
X127962285Y-102134407D01*
X128397714Y-101698979D02*
X127817142Y-102279550D01*
X119108571Y-103673405D02*
X119350476Y-104350739D01*
X119592380Y-103673405D01*
X119931047Y-103431500D02*
X119979428Y-103383120D01*
X120076190Y-103334739D01*
X120318095Y-103334739D01*
X120414857Y-103383120D01*
X120463238Y-103431500D01*
X120511619Y-103528262D01*
X120511619Y-103625024D01*
X120463238Y-103770167D01*
X119882666Y-104350739D01*
X120511619Y-104350739D01*
X120947047Y-104253977D02*
X120995428Y-104302358D01*
X120947047Y-104350739D01*
X120898666Y-104302358D01*
X120947047Y-104253977D01*
X120947047Y-104350739D01*
X121624380Y-103334739D02*
X121721142Y-103334739D01*
X121817904Y-103383120D01*
X121866285Y-103431500D01*
X121914666Y-103528262D01*
X121963047Y-103721786D01*
X121963047Y-103963691D01*
X121914666Y-104157215D01*
X121866285Y-104253977D01*
X121817904Y-104302358D01*
X121721142Y-104350739D01*
X121624380Y-104350739D01*
X121527619Y-104302358D01*
X121479238Y-104253977D01*
X121430857Y-104157215D01*
X121382476Y-103963691D01*
X121382476Y-103721786D01*
X121430857Y-103528262D01*
X121479238Y-103431500D01*
X121527619Y-103383120D01*
X121624380Y-103334739D01*
X111367619Y-105986499D02*
X111367619Y-104970499D01*
X111996571Y-105986499D02*
X111899809Y-105938118D01*
X111851428Y-105889737D01*
X111803047Y-105792975D01*
X111803047Y-105502689D01*
X111851428Y-105405927D01*
X111899809Y-105357546D01*
X111996571Y-105309165D01*
X112141714Y-105309165D01*
X112238476Y-105357546D01*
X112286857Y-105405927D01*
X112335238Y-105502689D01*
X112335238Y-105792975D01*
X112286857Y-105889737D01*
X112238476Y-105938118D01*
X112141714Y-105986499D01*
X111996571Y-105986499D01*
X112673904Y-105309165D02*
X112867428Y-105986499D01*
X113060952Y-105502689D01*
X113254476Y-105986499D01*
X113448000Y-105309165D01*
X114270476Y-105986499D02*
X114270476Y-105454308D01*
X114222095Y-105357546D01*
X114125333Y-105309165D01*
X113931809Y-105309165D01*
X113835047Y-105357546D01*
X114270476Y-105938118D02*
X114173714Y-105986499D01*
X113931809Y-105986499D01*
X113835047Y-105938118D01*
X113786666Y-105841356D01*
X113786666Y-105744594D01*
X113835047Y-105647832D01*
X113931809Y-105599451D01*
X114173714Y-105599451D01*
X114270476Y-105551070D01*
X115480000Y-105938118D02*
X115625142Y-105986499D01*
X115867047Y-105986499D01*
X115963809Y-105938118D01*
X116012190Y-105889737D01*
X116060571Y-105792975D01*
X116060571Y-105696213D01*
X116012190Y-105599451D01*
X115963809Y-105551070D01*
X115867047Y-105502689D01*
X115673523Y-105454308D01*
X115576761Y-105405927D01*
X115528380Y-105357546D01*
X115480000Y-105260784D01*
X115480000Y-105164022D01*
X115528380Y-105067260D01*
X115576761Y-105018880D01*
X115673523Y-104970499D01*
X115915428Y-104970499D01*
X116060571Y-105018880D01*
X116931428Y-105938118D02*
X116834666Y-105986499D01*
X116641142Y-105986499D01*
X116544380Y-105938118D01*
X116496000Y-105889737D01*
X116447619Y-105792975D01*
X116447619Y-105502689D01*
X116496000Y-105405927D01*
X116544380Y-105357546D01*
X116641142Y-105309165D01*
X116834666Y-105309165D01*
X116931428Y-105357546D01*
X117802285Y-105986499D02*
X117802285Y-105454308D01*
X117753904Y-105357546D01*
X117657142Y-105309165D01*
X117463619Y-105309165D01*
X117366857Y-105357546D01*
X117802285Y-105938118D02*
X117705523Y-105986499D01*
X117463619Y-105986499D01*
X117366857Y-105938118D01*
X117318476Y-105841356D01*
X117318476Y-105744594D01*
X117366857Y-105647832D01*
X117463619Y-105599451D01*
X117705523Y-105599451D01*
X117802285Y-105551070D01*
X118431238Y-105986499D02*
X118334476Y-105938118D01*
X118286095Y-105841356D01*
X118286095Y-104970499D01*
X119205333Y-105938118D02*
X119108571Y-105986499D01*
X118915047Y-105986499D01*
X118818285Y-105938118D01*
X118769904Y-105841356D01*
X118769904Y-105454308D01*
X118818285Y-105357546D01*
X118915047Y-105309165D01*
X119108571Y-105309165D01*
X119205333Y-105357546D01*
X119253714Y-105454308D01*
X119253714Y-105551070D01*
X118769904Y-105647832D01*
X120124571Y-105986499D02*
X120124571Y-104970499D01*
X120124571Y-105938118D02*
X120027809Y-105986499D01*
X119834285Y-105986499D01*
X119737523Y-105938118D01*
X119689142Y-105889737D01*
X119640761Y-105792975D01*
X119640761Y-105502689D01*
X119689142Y-105405927D01*
X119737523Y-105357546D01*
X119834285Y-105309165D01*
X120027809Y-105309165D01*
X120124571Y-105357546D01*
X121382476Y-105454308D02*
X121721142Y-105454308D01*
X121866285Y-105986499D02*
X121382476Y-105986499D01*
X121382476Y-104970499D01*
X121866285Y-104970499D01*
X122301714Y-105309165D02*
X122301714Y-105986499D01*
X122301714Y-105405927D02*
X122350095Y-105357546D01*
X122446857Y-105309165D01*
X122592000Y-105309165D01*
X122688761Y-105357546D01*
X122737142Y-105454308D01*
X122737142Y-105986499D01*
X123656380Y-105309165D02*
X123656380Y-106131641D01*
X123608000Y-106228403D01*
X123559619Y-106276784D01*
X123462857Y-106325165D01*
X123317714Y-106325165D01*
X123220952Y-106276784D01*
X123656380Y-105938118D02*
X123559619Y-105986499D01*
X123366095Y-105986499D01*
X123269333Y-105938118D01*
X123220952Y-105889737D01*
X123172571Y-105792975D01*
X123172571Y-105502689D01*
X123220952Y-105405927D01*
X123269333Y-105357546D01*
X123366095Y-105309165D01*
X123559619Y-105309165D01*
X123656380Y-105357546D01*
X124140190Y-105986499D02*
X124140190Y-105309165D01*
X124140190Y-104970499D02*
X124091809Y-105018880D01*
X124140190Y-105067260D01*
X124188571Y-105018880D01*
X124140190Y-104970499D01*
X124140190Y-105067260D01*
X124624000Y-105309165D02*
X124624000Y-105986499D01*
X124624000Y-105405927D02*
X124672380Y-105357546D01*
X124769142Y-105309165D01*
X124914285Y-105309165D01*
X125011047Y-105357546D01*
X125059428Y-105454308D01*
X125059428Y-105986499D01*
X125930285Y-105938118D02*
X125833523Y-105986499D01*
X125640000Y-105986499D01*
X125543238Y-105938118D01*
X125494857Y-105841356D01*
X125494857Y-105454308D01*
X125543238Y-105357546D01*
X125640000Y-105309165D01*
X125833523Y-105309165D01*
X125930285Y-105357546D01*
X125978666Y-105454308D01*
X125978666Y-105551070D01*
X125494857Y-105647832D01*
X126801142Y-105938118D02*
X126704380Y-105986499D01*
X126510857Y-105986499D01*
X126414095Y-105938118D01*
X126365714Y-105841356D01*
X126365714Y-105454308D01*
X126414095Y-105357546D01*
X126510857Y-105309165D01*
X126704380Y-105309165D01*
X126801142Y-105357546D01*
X126849523Y-105454308D01*
X126849523Y-105551070D01*
X126365714Y-105647832D01*
X127284952Y-105986499D02*
X127284952Y-105309165D01*
X127284952Y-105502689D02*
X127333333Y-105405927D01*
X127381714Y-105357546D01*
X127478476Y-105309165D01*
X127575238Y-105309165D01*
X127913904Y-105986499D02*
X127913904Y-105309165D01*
X127913904Y-104970499D02*
X127865523Y-105018880D01*
X127913904Y-105067260D01*
X127962285Y-105018880D01*
X127913904Y-104970499D01*
X127913904Y-105067260D01*
X128397714Y-105309165D02*
X128397714Y-105986499D01*
X128397714Y-105405927D02*
X128446095Y-105357546D01*
X128542857Y-105309165D01*
X128688000Y-105309165D01*
X128784761Y-105357546D01*
X128833142Y-105454308D01*
X128833142Y-105986499D01*
X129752380Y-105309165D02*
X129752380Y-106131641D01*
X129704000Y-106228403D01*
X129655619Y-106276784D01*
X129558857Y-106325165D01*
X129413714Y-106325165D01*
X129316952Y-106276784D01*
X129752380Y-105938118D02*
X129655619Y-105986499D01*
X129462095Y-105986499D01*
X129365333Y-105938118D01*
X129316952Y-105889737D01*
X129268571Y-105792975D01*
X129268571Y-105502689D01*
X129316952Y-105405927D01*
X129365333Y-105357546D01*
X129462095Y-105309165D01*
X129655619Y-105309165D01*
X129752380Y-105357546D01*
X114536571Y-106848163D02*
X114439809Y-106799782D01*
X114246285Y-106799782D01*
X114149523Y-106848163D01*
X114052761Y-106944925D01*
X114004380Y-107041687D01*
X114004380Y-107235211D01*
X114052761Y-107331973D01*
X114149523Y-107428735D01*
X114246285Y-107477116D01*
X114439809Y-107477116D01*
X114536571Y-107428735D01*
X114343047Y-106461116D02*
X114101142Y-106509497D01*
X113859238Y-106654640D01*
X113714095Y-106896544D01*
X113665714Y-107138449D01*
X113714095Y-107380354D01*
X113859238Y-107622259D01*
X114101142Y-107767401D01*
X114343047Y-107815782D01*
X114584952Y-107767401D01*
X114826857Y-107622259D01*
X114972000Y-107380354D01*
X115020380Y-107138449D01*
X114972000Y-106896544D01*
X114826857Y-106654640D01*
X114584952Y-106509497D01*
X114343047Y-106461116D01*
X115407428Y-106703020D02*
X115455809Y-106654640D01*
X115552571Y-106606259D01*
X115794476Y-106606259D01*
X115891238Y-106654640D01*
X115939619Y-106703020D01*
X115988000Y-106799782D01*
X115988000Y-106896544D01*
X115939619Y-107041687D01*
X115359047Y-107622259D01*
X115988000Y-107622259D01*
X116616952Y-106606259D02*
X116713714Y-106606259D01*
X116810476Y-106654640D01*
X116858857Y-106703020D01*
X116907238Y-106799782D01*
X116955619Y-106993306D01*
X116955619Y-107235211D01*
X116907238Y-107428735D01*
X116858857Y-107525497D01*
X116810476Y-107573878D01*
X116713714Y-107622259D01*
X116616952Y-107622259D01*
X116520190Y-107573878D01*
X116471809Y-107525497D01*
X116423428Y-107428735D01*
X116375047Y-107235211D01*
X116375047Y-106993306D01*
X116423428Y-106799782D01*
X116471809Y-106703020D01*
X116520190Y-106654640D01*
X116616952Y-106606259D01*
X117342666Y-106703020D02*
X117391047Y-106654640D01*
X117487809Y-106606259D01*
X117729714Y-106606259D01*
X117826476Y-106654640D01*
X117874857Y-106703020D01*
X117923238Y-106799782D01*
X117923238Y-106896544D01*
X117874857Y-107041687D01*
X117294285Y-107622259D01*
X117923238Y-107622259D01*
X118261904Y-106606259D02*
X118890857Y-106606259D01*
X118552190Y-106993306D01*
X118697333Y-106993306D01*
X118794095Y-107041687D01*
X118842476Y-107090068D01*
X118890857Y-107186830D01*
X118890857Y-107428735D01*
X118842476Y-107525497D01*
X118794095Y-107573878D01*
X118697333Y-107622259D01*
X118407047Y-107622259D01*
X118310285Y-107573878D01*
X118261904Y-107525497D01*
X120680952Y-107525497D02*
X120632571Y-107573878D01*
X120487428Y-107622259D01*
X120390666Y-107622259D01*
X120245523Y-107573878D01*
X120148761Y-107477116D01*
X120100380Y-107380354D01*
X120052000Y-107186830D01*
X120052000Y-107041687D01*
X120100380Y-106848163D01*
X120148761Y-106751401D01*
X120245523Y-106654640D01*
X120390666Y-106606259D01*
X120487428Y-106606259D01*
X120632571Y-106654640D01*
X120680952Y-106703020D01*
X121696952Y-107525497D02*
X121648571Y-107573878D01*
X121503428Y-107622259D01*
X121406666Y-107622259D01*
X121261523Y-107573878D01*
X121164761Y-107477116D01*
X121116380Y-107380354D01*
X121068000Y-107186830D01*
X121068000Y-107041687D01*
X121116380Y-106848163D01*
X121164761Y-106751401D01*
X121261523Y-106654640D01*
X121406666Y-106606259D01*
X121503428Y-106606259D01*
X121648571Y-106654640D01*
X121696952Y-106703020D01*
X123245142Y-107090068D02*
X123390285Y-107138449D01*
X123438666Y-107186830D01*
X123487047Y-107283592D01*
X123487047Y-107428735D01*
X123438666Y-107525497D01*
X123390285Y-107573878D01*
X123293523Y-107622259D01*
X122906476Y-107622259D01*
X122906476Y-106606259D01*
X123245142Y-106606259D01*
X123341904Y-106654640D01*
X123390285Y-106703020D01*
X123438666Y-106799782D01*
X123438666Y-106896544D01*
X123390285Y-106993306D01*
X123341904Y-107041687D01*
X123245142Y-107090068D01*
X122906476Y-107090068D01*
X124116000Y-107138449D02*
X124116000Y-107622259D01*
X123777333Y-106606259D02*
X124116000Y-107138449D01*
X124454666Y-106606259D01*
X124793333Y-107235211D02*
X125567428Y-107235211D01*
X126002857Y-107573878D02*
X126148000Y-107622259D01*
X126389904Y-107622259D01*
X126486666Y-107573878D01*
X126535047Y-107525497D01*
X126583428Y-107428735D01*
X126583428Y-107331973D01*
X126535047Y-107235211D01*
X126486666Y-107186830D01*
X126389904Y-107138449D01*
X126196380Y-107090068D01*
X126099619Y-107041687D01*
X126051238Y-106993306D01*
X126002857Y-106896544D01*
X126002857Y-106799782D01*
X126051238Y-106703020D01*
X126099619Y-106654640D01*
X126196380Y-106606259D01*
X126438285Y-106606259D01*
X126583428Y-106654640D01*
X126970476Y-107331973D02*
X127454285Y-107331973D01*
X126873714Y-107622259D02*
X127212380Y-106606259D01*
X127551047Y-107622259D01*
X141291238Y-102618217D02*
X141242857Y-102666598D01*
X141097714Y-102714979D01*
X141000952Y-102714979D01*
X140855809Y-102666598D01*
X140759047Y-102569836D01*
X140710666Y-102473074D01*
X140662285Y-102279550D01*
X140662285Y-102134407D01*
X140710666Y-101940883D01*
X140759047Y-101844121D01*
X140855809Y-101747360D01*
X141000952Y-101698979D01*
X141097714Y-101698979D01*
X141242857Y-101747360D01*
X141291238Y-101795740D01*
X141726666Y-102714979D02*
X141726666Y-101698979D01*
X142307238Y-102714979D02*
X141871809Y-102134407D01*
X142307238Y-101698979D02*
X141726666Y-102279550D01*
X142597523Y-101698979D02*
X143178095Y-101698979D01*
X142887809Y-102714979D02*
X142887809Y-101698979D01*
X143516761Y-102327931D02*
X144290857Y-102327931D01*
X144774666Y-102714979D02*
X144774666Y-101698979D01*
X145016571Y-101698979D01*
X145161714Y-101747360D01*
X145258476Y-101844121D01*
X145306857Y-101940883D01*
X145355238Y-102134407D01*
X145355238Y-102279550D01*
X145306857Y-102473074D01*
X145258476Y-102569836D01*
X145161714Y-102666598D01*
X145016571Y-102714979D01*
X144774666Y-102714979D01*
X145790666Y-102714979D02*
X145790666Y-101698979D01*
X146274476Y-102714979D02*
X146274476Y-101698979D01*
X146855047Y-102714979D01*
X146855047Y-101698979D01*
X147871047Y-101747360D02*
X147774285Y-101698979D01*
X147629142Y-101698979D01*
X147484000Y-101747360D01*
X147387238Y-101844121D01*
X147338857Y-101940883D01*
X147290476Y-102134407D01*
X147290476Y-102279550D01*
X147338857Y-102473074D01*
X147387238Y-102569836D01*
X147484000Y-102666598D01*
X147629142Y-102714979D01*
X147725904Y-102714979D01*
X147871047Y-102666598D01*
X147919428Y-102618217D01*
X147919428Y-102279550D01*
X147725904Y-102279550D01*
X148354857Y-102714979D02*
X148354857Y-101698979D01*
X148596761Y-101698979D01*
X148741904Y-101747360D01*
X148838666Y-101844121D01*
X148887047Y-101940883D01*
X148935428Y-102134407D01*
X148935428Y-102279550D01*
X148887047Y-102473074D01*
X148838666Y-102569836D01*
X148741904Y-102666598D01*
X148596761Y-102714979D01*
X148354857Y-102714979D01*
X149564380Y-101698979D02*
X149757904Y-101698979D01*
X149854666Y-101747360D01*
X149951428Y-101844121D01*
X149999809Y-102037645D01*
X149999809Y-102376312D01*
X149951428Y-102569836D01*
X149854666Y-102666598D01*
X149757904Y-102714979D01*
X149564380Y-102714979D01*
X149467619Y-102666598D01*
X149370857Y-102569836D01*
X149322476Y-102376312D01*
X149322476Y-102037645D01*
X149370857Y-101844121D01*
X149467619Y-101747360D01*
X149564380Y-101698979D01*
X150435238Y-102714979D02*
X150435238Y-101698979D01*
X151015809Y-102714979D01*
X151015809Y-101698979D01*
X152031809Y-101747360D02*
X151935047Y-101698979D01*
X151789904Y-101698979D01*
X151644761Y-101747360D01*
X151548000Y-101844121D01*
X151499619Y-101940883D01*
X151451238Y-102134407D01*
X151451238Y-102279550D01*
X151499619Y-102473074D01*
X151548000Y-102569836D01*
X151644761Y-102666598D01*
X151789904Y-102714979D01*
X151886666Y-102714979D01*
X152031809Y-102666598D01*
X152080190Y-102618217D01*
X152080190Y-102279550D01*
X151886666Y-102279550D01*
X152515619Y-102327931D02*
X153289714Y-102327931D01*
X153725142Y-102666598D02*
X153870285Y-102714979D01*
X154112190Y-102714979D01*
X154208952Y-102666598D01*
X154257333Y-102618217D01*
X154305714Y-102521455D01*
X154305714Y-102424693D01*
X154257333Y-102327931D01*
X154208952Y-102279550D01*
X154112190Y-102231169D01*
X153918666Y-102182788D01*
X153821904Y-102134407D01*
X153773523Y-102086026D01*
X153725142Y-101989264D01*
X153725142Y-101892502D01*
X153773523Y-101795740D01*
X153821904Y-101747360D01*
X153918666Y-101698979D01*
X154160571Y-101698979D01*
X154305714Y-101747360D01*
X154741142Y-102714979D02*
X154741142Y-101698979D01*
X155128190Y-101698979D01*
X155224952Y-101747360D01*
X155273333Y-101795740D01*
X155321714Y-101892502D01*
X155321714Y-102037645D01*
X155273333Y-102134407D01*
X155224952Y-102182788D01*
X155128190Y-102231169D01*
X154741142Y-102231169D01*
X155757142Y-102714979D02*
X155757142Y-101698979D01*
X156337714Y-102714979D02*
X155902285Y-102134407D01*
X156337714Y-101698979D02*
X155757142Y-102279550D01*
X147048571Y-103673405D02*
X147290476Y-104350739D01*
X147532380Y-103673405D01*
X147871047Y-103431500D02*
X147919428Y-103383120D01*
X148016190Y-103334739D01*
X148258095Y-103334739D01*
X148354857Y-103383120D01*
X148403238Y-103431500D01*
X148451619Y-103528262D01*
X148451619Y-103625024D01*
X148403238Y-103770167D01*
X147822666Y-104350739D01*
X148451619Y-104350739D01*
X148887047Y-104253977D02*
X148935428Y-104302358D01*
X148887047Y-104350739D01*
X148838666Y-104302358D01*
X148887047Y-104253977D01*
X148887047Y-104350739D01*
X149564380Y-103334739D02*
X149661142Y-103334739D01*
X149757904Y-103383120D01*
X149806285Y-103431500D01*
X149854666Y-103528262D01*
X149903047Y-103721786D01*
X149903047Y-103963691D01*
X149854666Y-104157215D01*
X149806285Y-104253977D01*
X149757904Y-104302358D01*
X149661142Y-104350739D01*
X149564380Y-104350739D01*
X149467619Y-104302358D01*
X149419238Y-104253977D01*
X149370857Y-104157215D01*
X149322476Y-103963691D01*
X149322476Y-103721786D01*
X149370857Y-103528262D01*
X149419238Y-103431500D01*
X149467619Y-103383120D01*
X149564380Y-103334739D01*
X139307619Y-105986499D02*
X139307619Y-104970499D01*
X139936571Y-105986499D02*
X139839809Y-105938118D01*
X139791428Y-105889737D01*
X139743047Y-105792975D01*
X139743047Y-105502689D01*
X139791428Y-105405927D01*
X139839809Y-105357546D01*
X139936571Y-105309165D01*
X140081714Y-105309165D01*
X140178476Y-105357546D01*
X140226857Y-105405927D01*
X140275238Y-105502689D01*
X140275238Y-105792975D01*
X140226857Y-105889737D01*
X140178476Y-105938118D01*
X140081714Y-105986499D01*
X139936571Y-105986499D01*
X140613904Y-105309165D02*
X140807428Y-105986499D01*
X141000952Y-105502689D01*
X141194476Y-105986499D01*
X141388000Y-105309165D01*
X142210476Y-105986499D02*
X142210476Y-105454308D01*
X142162095Y-105357546D01*
X142065333Y-105309165D01*
X141871809Y-105309165D01*
X141775047Y-105357546D01*
X142210476Y-105938118D02*
X142113714Y-105986499D01*
X141871809Y-105986499D01*
X141775047Y-105938118D01*
X141726666Y-105841356D01*
X141726666Y-105744594D01*
X141775047Y-105647832D01*
X141871809Y-105599451D01*
X142113714Y-105599451D01*
X142210476Y-105551070D01*
X143420000Y-105938118D02*
X143565142Y-105986499D01*
X143807047Y-105986499D01*
X143903809Y-105938118D01*
X143952190Y-105889737D01*
X144000571Y-105792975D01*
X144000571Y-105696213D01*
X143952190Y-105599451D01*
X143903809Y-105551070D01*
X143807047Y-105502689D01*
X143613523Y-105454308D01*
X143516761Y-105405927D01*
X143468380Y-105357546D01*
X143420000Y-105260784D01*
X143420000Y-105164022D01*
X143468380Y-105067260D01*
X143516761Y-105018880D01*
X143613523Y-104970499D01*
X143855428Y-104970499D01*
X144000571Y-105018880D01*
X144871428Y-105938118D02*
X144774666Y-105986499D01*
X144581142Y-105986499D01*
X144484380Y-105938118D01*
X144436000Y-105889737D01*
X144387619Y-105792975D01*
X144387619Y-105502689D01*
X144436000Y-105405927D01*
X144484380Y-105357546D01*
X144581142Y-105309165D01*
X144774666Y-105309165D01*
X144871428Y-105357546D01*
X145742285Y-105986499D02*
X145742285Y-105454308D01*
X145693904Y-105357546D01*
X145597142Y-105309165D01*
X145403619Y-105309165D01*
X145306857Y-105357546D01*
X145742285Y-105938118D02*
X145645523Y-105986499D01*
X145403619Y-105986499D01*
X145306857Y-105938118D01*
X145258476Y-105841356D01*
X145258476Y-105744594D01*
X145306857Y-105647832D01*
X145403619Y-105599451D01*
X145645523Y-105599451D01*
X145742285Y-105551070D01*
X146371238Y-105986499D02*
X146274476Y-105938118D01*
X146226095Y-105841356D01*
X146226095Y-104970499D01*
X147145333Y-105938118D02*
X147048571Y-105986499D01*
X146855047Y-105986499D01*
X146758285Y-105938118D01*
X146709904Y-105841356D01*
X146709904Y-105454308D01*
X146758285Y-105357546D01*
X146855047Y-105309165D01*
X147048571Y-105309165D01*
X147145333Y-105357546D01*
X147193714Y-105454308D01*
X147193714Y-105551070D01*
X146709904Y-105647832D01*
X148064571Y-105986499D02*
X148064571Y-104970499D01*
X148064571Y-105938118D02*
X147967809Y-105986499D01*
X147774285Y-105986499D01*
X147677523Y-105938118D01*
X147629142Y-105889737D01*
X147580761Y-105792975D01*
X147580761Y-105502689D01*
X147629142Y-105405927D01*
X147677523Y-105357546D01*
X147774285Y-105309165D01*
X147967809Y-105309165D01*
X148064571Y-105357546D01*
X149322476Y-105454308D02*
X149661142Y-105454308D01*
X149806285Y-105986499D02*
X149322476Y-105986499D01*
X149322476Y-104970499D01*
X149806285Y-104970499D01*
X150241714Y-105309165D02*
X150241714Y-105986499D01*
X150241714Y-105405927D02*
X150290095Y-105357546D01*
X150386857Y-105309165D01*
X150532000Y-105309165D01*
X150628761Y-105357546D01*
X150677142Y-105454308D01*
X150677142Y-105986499D01*
X151596380Y-105309165D02*
X151596380Y-106131641D01*
X151548000Y-106228403D01*
X151499619Y-106276784D01*
X151402857Y-106325165D01*
X151257714Y-106325165D01*
X151160952Y-106276784D01*
X151596380Y-105938118D02*
X151499619Y-105986499D01*
X151306095Y-105986499D01*
X151209333Y-105938118D01*
X151160952Y-105889737D01*
X151112571Y-105792975D01*
X151112571Y-105502689D01*
X151160952Y-105405927D01*
X151209333Y-105357546D01*
X151306095Y-105309165D01*
X151499619Y-105309165D01*
X151596380Y-105357546D01*
X152080190Y-105986499D02*
X152080190Y-105309165D01*
X152080190Y-104970499D02*
X152031809Y-105018880D01*
X152080190Y-105067260D01*
X152128571Y-105018880D01*
X152080190Y-104970499D01*
X152080190Y-105067260D01*
X152564000Y-105309165D02*
X152564000Y-105986499D01*
X152564000Y-105405927D02*
X152612380Y-105357546D01*
X152709142Y-105309165D01*
X152854285Y-105309165D01*
X152951047Y-105357546D01*
X152999428Y-105454308D01*
X152999428Y-105986499D01*
X153870285Y-105938118D02*
X153773523Y-105986499D01*
X153580000Y-105986499D01*
X153483238Y-105938118D01*
X153434857Y-105841356D01*
X153434857Y-105454308D01*
X153483238Y-105357546D01*
X153580000Y-105309165D01*
X153773523Y-105309165D01*
X153870285Y-105357546D01*
X153918666Y-105454308D01*
X153918666Y-105551070D01*
X153434857Y-105647832D01*
X154741142Y-105938118D02*
X154644380Y-105986499D01*
X154450857Y-105986499D01*
X154354095Y-105938118D01*
X154305714Y-105841356D01*
X154305714Y-105454308D01*
X154354095Y-105357546D01*
X154450857Y-105309165D01*
X154644380Y-105309165D01*
X154741142Y-105357546D01*
X154789523Y-105454308D01*
X154789523Y-105551070D01*
X154305714Y-105647832D01*
X155224952Y-105986499D02*
X155224952Y-105309165D01*
X155224952Y-105502689D02*
X155273333Y-105405927D01*
X155321714Y-105357546D01*
X155418476Y-105309165D01*
X155515238Y-105309165D01*
X155853904Y-105986499D02*
X155853904Y-105309165D01*
X155853904Y-104970499D02*
X155805523Y-105018880D01*
X155853904Y-105067260D01*
X155902285Y-105018880D01*
X155853904Y-104970499D01*
X155853904Y-105067260D01*
X156337714Y-105309165D02*
X156337714Y-105986499D01*
X156337714Y-105405927D02*
X156386095Y-105357546D01*
X156482857Y-105309165D01*
X156628000Y-105309165D01*
X156724761Y-105357546D01*
X156773142Y-105454308D01*
X156773142Y-105986499D01*
X157692380Y-105309165D02*
X157692380Y-106131641D01*
X157644000Y-106228403D01*
X157595619Y-106276784D01*
X157498857Y-106325165D01*
X157353714Y-106325165D01*
X157256952Y-106276784D01*
X157692380Y-105938118D02*
X157595619Y-105986499D01*
X157402095Y-105986499D01*
X157305333Y-105938118D01*
X157256952Y-105889737D01*
X157208571Y-105792975D01*
X157208571Y-105502689D01*
X157256952Y-105405927D01*
X157305333Y-105357546D01*
X157402095Y-105309165D01*
X157595619Y-105309165D01*
X157692380Y-105357546D01*
X142476571Y-106848163D02*
X142379809Y-106799782D01*
X142186285Y-106799782D01*
X142089523Y-106848163D01*
X141992761Y-106944925D01*
X141944380Y-107041687D01*
X141944380Y-107235211D01*
X141992761Y-107331973D01*
X142089523Y-107428735D01*
X142186285Y-107477116D01*
X142379809Y-107477116D01*
X142476571Y-107428735D01*
X142283047Y-106461116D02*
X142041142Y-106509497D01*
X141799238Y-106654640D01*
X141654095Y-106896544D01*
X141605714Y-107138449D01*
X141654095Y-107380354D01*
X141799238Y-107622259D01*
X142041142Y-107767401D01*
X142283047Y-107815782D01*
X142524952Y-107767401D01*
X142766857Y-107622259D01*
X142912000Y-107380354D01*
X142960380Y-107138449D01*
X142912000Y-106896544D01*
X142766857Y-106654640D01*
X142524952Y-106509497D01*
X142283047Y-106461116D01*
X143347428Y-106703020D02*
X143395809Y-106654640D01*
X143492571Y-106606259D01*
X143734476Y-106606259D01*
X143831238Y-106654640D01*
X143879619Y-106703020D01*
X143928000Y-106799782D01*
X143928000Y-106896544D01*
X143879619Y-107041687D01*
X143299047Y-107622259D01*
X143928000Y-107622259D01*
X144556952Y-106606259D02*
X144653714Y-106606259D01*
X144750476Y-106654640D01*
X144798857Y-106703020D01*
X144847238Y-106799782D01*
X144895619Y-106993306D01*
X144895619Y-107235211D01*
X144847238Y-107428735D01*
X144798857Y-107525497D01*
X144750476Y-107573878D01*
X144653714Y-107622259D01*
X144556952Y-107622259D01*
X144460190Y-107573878D01*
X144411809Y-107525497D01*
X144363428Y-107428735D01*
X144315047Y-107235211D01*
X144315047Y-106993306D01*
X144363428Y-106799782D01*
X144411809Y-106703020D01*
X144460190Y-106654640D01*
X144556952Y-106606259D01*
X145282666Y-106703020D02*
X145331047Y-106654640D01*
X145427809Y-106606259D01*
X145669714Y-106606259D01*
X145766476Y-106654640D01*
X145814857Y-106703020D01*
X145863238Y-106799782D01*
X145863238Y-106896544D01*
X145814857Y-107041687D01*
X145234285Y-107622259D01*
X145863238Y-107622259D01*
X146201904Y-106606259D02*
X146830857Y-106606259D01*
X146492190Y-106993306D01*
X146637333Y-106993306D01*
X146734095Y-107041687D01*
X146782476Y-107090068D01*
X146830857Y-107186830D01*
X146830857Y-107428735D01*
X146782476Y-107525497D01*
X146734095Y-107573878D01*
X146637333Y-107622259D01*
X146347047Y-107622259D01*
X146250285Y-107573878D01*
X146201904Y-107525497D01*
X148620952Y-107525497D02*
X148572571Y-107573878D01*
X148427428Y-107622259D01*
X148330666Y-107622259D01*
X148185523Y-107573878D01*
X148088761Y-107477116D01*
X148040380Y-107380354D01*
X147992000Y-107186830D01*
X147992000Y-107041687D01*
X148040380Y-106848163D01*
X148088761Y-106751401D01*
X148185523Y-106654640D01*
X148330666Y-106606259D01*
X148427428Y-106606259D01*
X148572571Y-106654640D01*
X148620952Y-106703020D01*
X149636952Y-107525497D02*
X149588571Y-107573878D01*
X149443428Y-107622259D01*
X149346666Y-107622259D01*
X149201523Y-107573878D01*
X149104761Y-107477116D01*
X149056380Y-107380354D01*
X149008000Y-107186830D01*
X149008000Y-107041687D01*
X149056380Y-106848163D01*
X149104761Y-106751401D01*
X149201523Y-106654640D01*
X149346666Y-106606259D01*
X149443428Y-106606259D01*
X149588571Y-106654640D01*
X149636952Y-106703020D01*
X151185142Y-107090068D02*
X151330285Y-107138449D01*
X151378666Y-107186830D01*
X151427047Y-107283592D01*
X151427047Y-107428735D01*
X151378666Y-107525497D01*
X151330285Y-107573878D01*
X151233523Y-107622259D01*
X150846476Y-107622259D01*
X150846476Y-106606259D01*
X151185142Y-106606259D01*
X151281904Y-106654640D01*
X151330285Y-106703020D01*
X151378666Y-106799782D01*
X151378666Y-106896544D01*
X151330285Y-106993306D01*
X151281904Y-107041687D01*
X151185142Y-107090068D01*
X150846476Y-107090068D01*
X152056000Y-107138449D02*
X152056000Y-107622259D01*
X151717333Y-106606259D02*
X152056000Y-107138449D01*
X152394666Y-106606259D01*
X152733333Y-107235211D02*
X153507428Y-107235211D01*
X153942857Y-107573878D02*
X154088000Y-107622259D01*
X154329904Y-107622259D01*
X154426666Y-107573878D01*
X154475047Y-107525497D01*
X154523428Y-107428735D01*
X154523428Y-107331973D01*
X154475047Y-107235211D01*
X154426666Y-107186830D01*
X154329904Y-107138449D01*
X154136380Y-107090068D01*
X154039619Y-107041687D01*
X153991238Y-106993306D01*
X153942857Y-106896544D01*
X153942857Y-106799782D01*
X153991238Y-106703020D01*
X154039619Y-106654640D01*
X154136380Y-106606259D01*
X154378285Y-106606259D01*
X154523428Y-106654640D01*
X154910476Y-107331973D02*
X155394285Y-107331973D01*
X154813714Y-107622259D02*
X155152380Y-106606259D01*
X155491047Y-107622259D01*
X169231238Y-102618217D02*
X169182857Y-102666598D01*
X169037714Y-102714979D01*
X168940952Y-102714979D01*
X168795809Y-102666598D01*
X168699047Y-102569836D01*
X168650666Y-102473074D01*
X168602285Y-102279550D01*
X168602285Y-102134407D01*
X168650666Y-101940883D01*
X168699047Y-101844121D01*
X168795809Y-101747360D01*
X168940952Y-101698979D01*
X169037714Y-101698979D01*
X169182857Y-101747360D01*
X169231238Y-101795740D01*
X169666666Y-102714979D02*
X169666666Y-101698979D01*
X170247238Y-102714979D02*
X169811809Y-102134407D01*
X170247238Y-101698979D02*
X169666666Y-102279550D01*
X170537523Y-101698979D02*
X171118095Y-101698979D01*
X170827809Y-102714979D02*
X170827809Y-101698979D01*
X171456761Y-102327931D02*
X172230857Y-102327931D01*
X172714666Y-102714979D02*
X172714666Y-101698979D01*
X172956571Y-101698979D01*
X173101714Y-101747360D01*
X173198476Y-101844121D01*
X173246857Y-101940883D01*
X173295238Y-102134407D01*
X173295238Y-102279550D01*
X173246857Y-102473074D01*
X173198476Y-102569836D01*
X173101714Y-102666598D01*
X172956571Y-102714979D01*
X172714666Y-102714979D01*
X173730666Y-102714979D02*
X173730666Y-101698979D01*
X174214476Y-102714979D02*
X174214476Y-101698979D01*
X174795047Y-102714979D01*
X174795047Y-101698979D01*
X175811047Y-101747360D02*
X175714285Y-101698979D01*
X175569142Y-101698979D01*
X175424000Y-101747360D01*
X175327238Y-101844121D01*
X175278857Y-101940883D01*
X175230476Y-102134407D01*
X175230476Y-102279550D01*
X175278857Y-102473074D01*
X175327238Y-102569836D01*
X175424000Y-102666598D01*
X175569142Y-102714979D01*
X175665904Y-102714979D01*
X175811047Y-102666598D01*
X175859428Y-102618217D01*
X175859428Y-102279550D01*
X175665904Y-102279550D01*
X176294857Y-102714979D02*
X176294857Y-101698979D01*
X176536761Y-101698979D01*
X176681904Y-101747360D01*
X176778666Y-101844121D01*
X176827047Y-101940883D01*
X176875428Y-102134407D01*
X176875428Y-102279550D01*
X176827047Y-102473074D01*
X176778666Y-102569836D01*
X176681904Y-102666598D01*
X176536761Y-102714979D01*
X176294857Y-102714979D01*
X177504380Y-101698979D02*
X177697904Y-101698979D01*
X177794666Y-101747360D01*
X177891428Y-101844121D01*
X177939809Y-102037645D01*
X177939809Y-102376312D01*
X177891428Y-102569836D01*
X177794666Y-102666598D01*
X177697904Y-102714979D01*
X177504380Y-102714979D01*
X177407619Y-102666598D01*
X177310857Y-102569836D01*
X177262476Y-102376312D01*
X177262476Y-102037645D01*
X177310857Y-101844121D01*
X177407619Y-101747360D01*
X177504380Y-101698979D01*
X178375238Y-102714979D02*
X178375238Y-101698979D01*
X178955809Y-102714979D01*
X178955809Y-101698979D01*
X179971809Y-101747360D02*
X179875047Y-101698979D01*
X179729904Y-101698979D01*
X179584761Y-101747360D01*
X179488000Y-101844121D01*
X179439619Y-101940883D01*
X179391238Y-102134407D01*
X179391238Y-102279550D01*
X179439619Y-102473074D01*
X179488000Y-102569836D01*
X179584761Y-102666598D01*
X179729904Y-102714979D01*
X179826666Y-102714979D01*
X179971809Y-102666598D01*
X180020190Y-102618217D01*
X180020190Y-102279550D01*
X179826666Y-102279550D01*
X180455619Y-102327931D02*
X181229714Y-102327931D01*
X181665142Y-102666598D02*
X181810285Y-102714979D01*
X182052190Y-102714979D01*
X182148952Y-102666598D01*
X182197333Y-102618217D01*
X182245714Y-102521455D01*
X182245714Y-102424693D01*
X182197333Y-102327931D01*
X182148952Y-102279550D01*
X182052190Y-102231169D01*
X181858666Y-102182788D01*
X181761904Y-102134407D01*
X181713523Y-102086026D01*
X181665142Y-101989264D01*
X181665142Y-101892502D01*
X181713523Y-101795740D01*
X181761904Y-101747360D01*
X181858666Y-101698979D01*
X182100571Y-101698979D01*
X182245714Y-101747360D01*
X182681142Y-102714979D02*
X182681142Y-101698979D01*
X183068190Y-101698979D01*
X183164952Y-101747360D01*
X183213333Y-101795740D01*
X183261714Y-101892502D01*
X183261714Y-102037645D01*
X183213333Y-102134407D01*
X183164952Y-102182788D01*
X183068190Y-102231169D01*
X182681142Y-102231169D01*
X183697142Y-102714979D02*
X183697142Y-101698979D01*
X184277714Y-102714979D02*
X183842285Y-102134407D01*
X184277714Y-101698979D02*
X183697142Y-102279550D01*
X174988571Y-103673405D02*
X175230476Y-104350739D01*
X175472380Y-103673405D01*
X175811047Y-103431500D02*
X175859428Y-103383120D01*
X175956190Y-103334739D01*
X176198095Y-103334739D01*
X176294857Y-103383120D01*
X176343238Y-103431500D01*
X176391619Y-103528262D01*
X176391619Y-103625024D01*
X176343238Y-103770167D01*
X175762666Y-104350739D01*
X176391619Y-104350739D01*
X176827047Y-104253977D02*
X176875428Y-104302358D01*
X176827047Y-104350739D01*
X176778666Y-104302358D01*
X176827047Y-104253977D01*
X176827047Y-104350739D01*
X177504380Y-103334739D02*
X177601142Y-103334739D01*
X177697904Y-103383120D01*
X177746285Y-103431500D01*
X177794666Y-103528262D01*
X177843047Y-103721786D01*
X177843047Y-103963691D01*
X177794666Y-104157215D01*
X177746285Y-104253977D01*
X177697904Y-104302358D01*
X177601142Y-104350739D01*
X177504380Y-104350739D01*
X177407619Y-104302358D01*
X177359238Y-104253977D01*
X177310857Y-104157215D01*
X177262476Y-103963691D01*
X177262476Y-103721786D01*
X177310857Y-103528262D01*
X177359238Y-103431500D01*
X177407619Y-103383120D01*
X177504380Y-103334739D01*
X167247619Y-105986499D02*
X167247619Y-104970499D01*
X167876571Y-105986499D02*
X167779809Y-105938118D01*
X167731428Y-105889737D01*
X167683047Y-105792975D01*
X167683047Y-105502689D01*
X167731428Y-105405927D01*
X167779809Y-105357546D01*
X167876571Y-105309165D01*
X168021714Y-105309165D01*
X168118476Y-105357546D01*
X168166857Y-105405927D01*
X168215238Y-105502689D01*
X168215238Y-105792975D01*
X168166857Y-105889737D01*
X168118476Y-105938118D01*
X168021714Y-105986499D01*
X167876571Y-105986499D01*
X168553904Y-105309165D02*
X168747428Y-105986499D01*
X168940952Y-105502689D01*
X169134476Y-105986499D01*
X169328000Y-105309165D01*
X170150476Y-105986499D02*
X170150476Y-105454308D01*
X170102095Y-105357546D01*
X170005333Y-105309165D01*
X169811809Y-105309165D01*
X169715047Y-105357546D01*
X170150476Y-105938118D02*
X170053714Y-105986499D01*
X169811809Y-105986499D01*
X169715047Y-105938118D01*
X169666666Y-105841356D01*
X169666666Y-105744594D01*
X169715047Y-105647832D01*
X169811809Y-105599451D01*
X170053714Y-105599451D01*
X170150476Y-105551070D01*
X171360000Y-105938118D02*
X171505142Y-105986499D01*
X171747047Y-105986499D01*
X171843809Y-105938118D01*
X171892190Y-105889737D01*
X171940571Y-105792975D01*
X171940571Y-105696213D01*
X171892190Y-105599451D01*
X171843809Y-105551070D01*
X171747047Y-105502689D01*
X171553523Y-105454308D01*
X171456761Y-105405927D01*
X171408380Y-105357546D01*
X171360000Y-105260784D01*
X171360000Y-105164022D01*
X171408380Y-105067260D01*
X171456761Y-105018880D01*
X171553523Y-104970499D01*
X171795428Y-104970499D01*
X171940571Y-105018880D01*
X172811428Y-105938118D02*
X172714666Y-105986499D01*
X172521142Y-105986499D01*
X172424380Y-105938118D01*
X172376000Y-105889737D01*
X172327619Y-105792975D01*
X172327619Y-105502689D01*
X172376000Y-105405927D01*
X172424380Y-105357546D01*
X172521142Y-105309165D01*
X172714666Y-105309165D01*
X172811428Y-105357546D01*
X173682285Y-105986499D02*
X173682285Y-105454308D01*
X173633904Y-105357546D01*
X173537142Y-105309165D01*
X173343619Y-105309165D01*
X173246857Y-105357546D01*
X173682285Y-105938118D02*
X173585523Y-105986499D01*
X173343619Y-105986499D01*
X173246857Y-105938118D01*
X173198476Y-105841356D01*
X173198476Y-105744594D01*
X173246857Y-105647832D01*
X173343619Y-105599451D01*
X173585523Y-105599451D01*
X173682285Y-105551070D01*
X174311238Y-105986499D02*
X174214476Y-105938118D01*
X174166095Y-105841356D01*
X174166095Y-104970499D01*
X175085333Y-105938118D02*
X174988571Y-105986499D01*
X174795047Y-105986499D01*
X174698285Y-105938118D01*
X174649904Y-105841356D01*
X174649904Y-105454308D01*
X174698285Y-105357546D01*
X174795047Y-105309165D01*
X174988571Y-105309165D01*
X175085333Y-105357546D01*
X175133714Y-105454308D01*
X175133714Y-105551070D01*
X174649904Y-105647832D01*
X176004571Y-105986499D02*
X176004571Y-104970499D01*
X176004571Y-105938118D02*
X175907809Y-105986499D01*
X175714285Y-105986499D01*
X175617523Y-105938118D01*
X175569142Y-105889737D01*
X175520761Y-105792975D01*
X175520761Y-105502689D01*
X175569142Y-105405927D01*
X175617523Y-105357546D01*
X175714285Y-105309165D01*
X175907809Y-105309165D01*
X176004571Y-105357546D01*
X177262476Y-105454308D02*
X177601142Y-105454308D01*
X177746285Y-105986499D02*
X177262476Y-105986499D01*
X177262476Y-104970499D01*
X177746285Y-104970499D01*
X178181714Y-105309165D02*
X178181714Y-105986499D01*
X178181714Y-105405927D02*
X178230095Y-105357546D01*
X178326857Y-105309165D01*
X178472000Y-105309165D01*
X178568761Y-105357546D01*
X178617142Y-105454308D01*
X178617142Y-105986499D01*
X179536380Y-105309165D02*
X179536380Y-106131641D01*
X179488000Y-106228403D01*
X179439619Y-106276784D01*
X179342857Y-106325165D01*
X179197714Y-106325165D01*
X179100952Y-106276784D01*
X179536380Y-105938118D02*
X179439619Y-105986499D01*
X179246095Y-105986499D01*
X179149333Y-105938118D01*
X179100952Y-105889737D01*
X179052571Y-105792975D01*
X179052571Y-105502689D01*
X179100952Y-105405927D01*
X179149333Y-105357546D01*
X179246095Y-105309165D01*
X179439619Y-105309165D01*
X179536380Y-105357546D01*
X180020190Y-105986499D02*
X180020190Y-105309165D01*
X180020190Y-104970499D02*
X179971809Y-105018880D01*
X180020190Y-105067260D01*
X180068571Y-105018880D01*
X180020190Y-104970499D01*
X180020190Y-105067260D01*
X180504000Y-105309165D02*
X180504000Y-105986499D01*
X180504000Y-105405927D02*
X180552380Y-105357546D01*
X180649142Y-105309165D01*
X180794285Y-105309165D01*
X180891047Y-105357546D01*
X180939428Y-105454308D01*
X180939428Y-105986499D01*
X181810285Y-105938118D02*
X181713523Y-105986499D01*
X181520000Y-105986499D01*
X181423238Y-105938118D01*
X181374857Y-105841356D01*
X181374857Y-105454308D01*
X181423238Y-105357546D01*
X181520000Y-105309165D01*
X181713523Y-105309165D01*
X181810285Y-105357546D01*
X181858666Y-105454308D01*
X181858666Y-105551070D01*
X181374857Y-105647832D01*
X182681142Y-105938118D02*
X182584380Y-105986499D01*
X182390857Y-105986499D01*
X182294095Y-105938118D01*
X182245714Y-105841356D01*
X182245714Y-105454308D01*
X182294095Y-105357546D01*
X182390857Y-105309165D01*
X182584380Y-105309165D01*
X182681142Y-105357546D01*
X182729523Y-105454308D01*
X182729523Y-105551070D01*
X182245714Y-105647832D01*
X183164952Y-105986499D02*
X183164952Y-105309165D01*
X183164952Y-105502689D02*
X183213333Y-105405927D01*
X183261714Y-105357546D01*
X183358476Y-105309165D01*
X183455238Y-105309165D01*
X183793904Y-105986499D02*
X183793904Y-105309165D01*
X183793904Y-104970499D02*
X183745523Y-105018880D01*
X183793904Y-105067260D01*
X183842285Y-105018880D01*
X183793904Y-104970499D01*
X183793904Y-105067260D01*
X184277714Y-105309165D02*
X184277714Y-105986499D01*
X184277714Y-105405927D02*
X184326095Y-105357546D01*
X184422857Y-105309165D01*
X184568000Y-105309165D01*
X184664761Y-105357546D01*
X184713142Y-105454308D01*
X184713142Y-105986499D01*
X185632380Y-105309165D02*
X185632380Y-106131641D01*
X185584000Y-106228403D01*
X185535619Y-106276784D01*
X185438857Y-106325165D01*
X185293714Y-106325165D01*
X185196952Y-106276784D01*
X185632380Y-105938118D02*
X185535619Y-105986499D01*
X185342095Y-105986499D01*
X185245333Y-105938118D01*
X185196952Y-105889737D01*
X185148571Y-105792975D01*
X185148571Y-105502689D01*
X185196952Y-105405927D01*
X185245333Y-105357546D01*
X185342095Y-105309165D01*
X185535619Y-105309165D01*
X185632380Y-105357546D01*
X170416571Y-106848163D02*
X170319809Y-106799782D01*
X170126285Y-106799782D01*
X170029523Y-106848163D01*
X169932761Y-106944925D01*
X169884380Y-107041687D01*
X169884380Y-107235211D01*
X169932761Y-107331973D01*
X170029523Y-107428735D01*
X170126285Y-107477116D01*
X170319809Y-107477116D01*
X170416571Y-107428735D01*
X170223047Y-106461116D02*
X169981142Y-106509497D01*
X169739238Y-106654640D01*
X169594095Y-106896544D01*
X169545714Y-107138449D01*
X169594095Y-107380354D01*
X169739238Y-107622259D01*
X169981142Y-107767401D01*
X170223047Y-107815782D01*
X170464952Y-107767401D01*
X170706857Y-107622259D01*
X170852000Y-107380354D01*
X170900380Y-107138449D01*
X170852000Y-106896544D01*
X170706857Y-106654640D01*
X170464952Y-106509497D01*
X170223047Y-106461116D01*
X171287428Y-106703020D02*
X171335809Y-106654640D01*
X171432571Y-106606259D01*
X171674476Y-106606259D01*
X171771238Y-106654640D01*
X171819619Y-106703020D01*
X171868000Y-106799782D01*
X171868000Y-106896544D01*
X171819619Y-107041687D01*
X171239047Y-107622259D01*
X171868000Y-107622259D01*
X172496952Y-106606259D02*
X172593714Y-106606259D01*
X172690476Y-106654640D01*
X172738857Y-106703020D01*
X172787238Y-106799782D01*
X172835619Y-106993306D01*
X172835619Y-107235211D01*
X172787238Y-107428735D01*
X172738857Y-107525497D01*
X172690476Y-107573878D01*
X172593714Y-107622259D01*
X172496952Y-107622259D01*
X172400190Y-107573878D01*
X172351809Y-107525497D01*
X172303428Y-107428735D01*
X172255047Y-107235211D01*
X172255047Y-106993306D01*
X172303428Y-106799782D01*
X172351809Y-106703020D01*
X172400190Y-106654640D01*
X172496952Y-106606259D01*
X173222666Y-106703020D02*
X173271047Y-106654640D01*
X173367809Y-106606259D01*
X173609714Y-106606259D01*
X173706476Y-106654640D01*
X173754857Y-106703020D01*
X173803238Y-106799782D01*
X173803238Y-106896544D01*
X173754857Y-107041687D01*
X173174285Y-107622259D01*
X173803238Y-107622259D01*
X174141904Y-106606259D02*
X174770857Y-106606259D01*
X174432190Y-106993306D01*
X174577333Y-106993306D01*
X174674095Y-107041687D01*
X174722476Y-107090068D01*
X174770857Y-107186830D01*
X174770857Y-107428735D01*
X174722476Y-107525497D01*
X174674095Y-107573878D01*
X174577333Y-107622259D01*
X174287047Y-107622259D01*
X174190285Y-107573878D01*
X174141904Y-107525497D01*
X176560952Y-107525497D02*
X176512571Y-107573878D01*
X176367428Y-107622259D01*
X176270666Y-107622259D01*
X176125523Y-107573878D01*
X176028761Y-107477116D01*
X175980380Y-107380354D01*
X175932000Y-107186830D01*
X175932000Y-107041687D01*
X175980380Y-106848163D01*
X176028761Y-106751401D01*
X176125523Y-106654640D01*
X176270666Y-106606259D01*
X176367428Y-106606259D01*
X176512571Y-106654640D01*
X176560952Y-106703020D01*
X177576952Y-107525497D02*
X177528571Y-107573878D01*
X177383428Y-107622259D01*
X177286666Y-107622259D01*
X177141523Y-107573878D01*
X177044761Y-107477116D01*
X176996380Y-107380354D01*
X176948000Y-107186830D01*
X176948000Y-107041687D01*
X176996380Y-106848163D01*
X177044761Y-106751401D01*
X177141523Y-106654640D01*
X177286666Y-106606259D01*
X177383428Y-106606259D01*
X177528571Y-106654640D01*
X177576952Y-106703020D01*
X179125142Y-107090068D02*
X179270285Y-107138449D01*
X179318666Y-107186830D01*
X179367047Y-107283592D01*
X179367047Y-107428735D01*
X179318666Y-107525497D01*
X179270285Y-107573878D01*
X179173523Y-107622259D01*
X178786476Y-107622259D01*
X178786476Y-106606259D01*
X179125142Y-106606259D01*
X179221904Y-106654640D01*
X179270285Y-106703020D01*
X179318666Y-106799782D01*
X179318666Y-106896544D01*
X179270285Y-106993306D01*
X179221904Y-107041687D01*
X179125142Y-107090068D01*
X178786476Y-107090068D01*
X179996000Y-107138449D02*
X179996000Y-107622259D01*
X179657333Y-106606259D02*
X179996000Y-107138449D01*
X180334666Y-106606259D01*
X180673333Y-107235211D02*
X181447428Y-107235211D01*
X181882857Y-107573878D02*
X182028000Y-107622259D01*
X182269904Y-107622259D01*
X182366666Y-107573878D01*
X182415047Y-107525497D01*
X182463428Y-107428735D01*
X182463428Y-107331973D01*
X182415047Y-107235211D01*
X182366666Y-107186830D01*
X182269904Y-107138449D01*
X182076380Y-107090068D01*
X181979619Y-107041687D01*
X181931238Y-106993306D01*
X181882857Y-106896544D01*
X181882857Y-106799782D01*
X181931238Y-106703020D01*
X181979619Y-106654640D01*
X182076380Y-106606259D01*
X182318285Y-106606259D01*
X182463428Y-106654640D01*
X182850476Y-107331973D02*
X183334285Y-107331973D01*
X182753714Y-107622259D02*
X183092380Y-106606259D01*
X183431047Y-107622259D01*
D11*
X142534380Y-96533333D02*
X143248666Y-96533333D01*
X143391523Y-96580952D01*
X143486761Y-96676190D01*
X143534380Y-96819047D01*
X143534380Y-96914285D01*
X143534380Y-95533333D02*
X143534380Y-96104761D01*
X143534380Y-95819047D02*
X142534380Y-95819047D01*
X142677238Y-95914285D01*
X142772476Y-96009523D01*
X142820095Y-96104761D01*
X114594380Y-40653333D02*
X115308666Y-40653333D01*
X115451523Y-40700952D01*
X115546761Y-40796190D01*
X115594380Y-40939047D01*
X115594380Y-41034285D01*
X115594380Y-39653333D02*
X115594380Y-40224761D01*
X115594380Y-39939047D02*
X114594380Y-39939047D01*
X114737238Y-40034285D01*
X114832476Y-40129523D01*
X114880095Y-40224761D01*
X142534380Y-68593333D02*
X143248666Y-68593333D01*
X143391523Y-68640952D01*
X143486761Y-68736190D01*
X143534380Y-68879047D01*
X143534380Y-68974285D01*
X143534380Y-67593333D02*
X143534380Y-68164761D01*
X143534380Y-67879047D02*
X142534380Y-67879047D01*
X142677238Y-67974285D01*
X142772476Y-68069523D01*
X142820095Y-68164761D01*
X114594380Y-68593333D02*
X115308666Y-68593333D01*
X115451523Y-68640952D01*
X115546761Y-68736190D01*
X115594380Y-68879047D01*
X115594380Y-68974285D01*
X115594380Y-67593333D02*
X115594380Y-68164761D01*
X115594380Y-67879047D02*
X114594380Y-67879047D01*
X114737238Y-67974285D01*
X114832476Y-68069523D01*
X114880095Y-68164761D01*
X170474380Y-96533333D02*
X171188666Y-96533333D01*
X171331523Y-96580952D01*
X171426761Y-96676190D01*
X171474380Y-96819047D01*
X171474380Y-96914285D01*
X171474380Y-95533333D02*
X171474380Y-96104761D01*
X171474380Y-95819047D02*
X170474380Y-95819047D01*
X170617238Y-95914285D01*
X170712476Y-96009523D01*
X170760095Y-96104761D01*
X114594380Y-96533333D02*
X115308666Y-96533333D01*
X115451523Y-96580952D01*
X115546761Y-96676190D01*
X115594380Y-96819047D01*
X115594380Y-96914285D01*
X115594380Y-95533333D02*
X115594380Y-96104761D01*
X115594380Y-95819047D02*
X114594380Y-95819047D01*
X114737238Y-95914285D01*
X114832476Y-96009523D01*
X114880095Y-96104761D01*
X170474380Y-68593333D02*
X171188666Y-68593333D01*
X171331523Y-68640952D01*
X171426761Y-68736190D01*
X171474380Y-68879047D01*
X171474380Y-68974285D01*
X171474380Y-67593333D02*
X171474380Y-68164761D01*
X171474380Y-67879047D02*
X170474380Y-67879047D01*
X170617238Y-67974285D01*
X170712476Y-68069523D01*
X170760095Y-68164761D01*
X170474380Y-40653333D02*
X171188666Y-40653333D01*
X171331523Y-40700952D01*
X171426761Y-40796190D01*
X171474380Y-40939047D01*
X171474380Y-41034285D01*
X171474380Y-39653333D02*
X171474380Y-40224761D01*
X171474380Y-39939047D02*
X170474380Y-39939047D01*
X170617238Y-40034285D01*
X170712476Y-40129523D01*
X170760095Y-40224761D01*
X142534380Y-40653333D02*
X143248666Y-40653333D01*
X143391523Y-40700952D01*
X143486761Y-40796190D01*
X143534380Y-40939047D01*
X143534380Y-41034285D01*
X143534380Y-39653333D02*
X143534380Y-40224761D01*
X143534380Y-39939047D02*
X142534380Y-39939047D01*
X142677238Y-40034285D01*
X142772476Y-40129523D01*
X142820095Y-40224761D01*
D12*
X140887000Y-94140000D02*
X141877000Y-94140000D01*
X138387000Y-93090000D02*
X140887000Y-93090000D01*
X140887000Y-99310000D02*
X140887000Y-98260000D01*
X140887000Y-93090000D02*
X140887000Y-94140000D01*
X136417000Y-94260000D02*
X136417000Y-98140000D01*
X138387000Y-99310000D02*
X140887000Y-99310000D01*
X112947000Y-38260000D02*
X113937000Y-38260000D01*
X110447000Y-37210000D02*
X112947000Y-37210000D01*
X108477000Y-38380000D02*
X108477000Y-42260000D01*
X112947000Y-37210000D02*
X112947000Y-38260000D01*
X112947000Y-43430000D02*
X112947000Y-42380000D01*
X110447000Y-43430000D02*
X112947000Y-43430000D01*
X140887000Y-65150000D02*
X140887000Y-66200000D01*
X140887000Y-66200000D02*
X141877000Y-66200000D01*
X140887000Y-71370000D02*
X140887000Y-70320000D01*
X138387000Y-71370000D02*
X140887000Y-71370000D01*
X136417000Y-66320000D02*
X136417000Y-70200000D01*
X138387000Y-65150000D02*
X140887000Y-65150000D01*
X112947000Y-65150000D02*
X112947000Y-66200000D01*
X108477000Y-66320000D02*
X108477000Y-70200000D01*
X112947000Y-66200000D02*
X113937000Y-66200000D01*
X110447000Y-71370000D02*
X112947000Y-71370000D01*
X112947000Y-71370000D02*
X112947000Y-70320000D01*
X110447000Y-65150000D02*
X112947000Y-65150000D01*
X166327000Y-99310000D02*
X168827000Y-99310000D01*
X166327000Y-93090000D02*
X168827000Y-93090000D01*
X168827000Y-94140000D02*
X169817000Y-94140000D01*
X168827000Y-93090000D02*
X168827000Y-94140000D01*
X164357000Y-94260000D02*
X164357000Y-98140000D01*
X168827000Y-99310000D02*
X168827000Y-98260000D01*
X112947000Y-94140000D02*
X113937000Y-94140000D01*
X108477000Y-94260000D02*
X108477000Y-98140000D01*
X112947000Y-99310000D02*
X112947000Y-98260000D01*
X112947000Y-93090000D02*
X112947000Y-94140000D01*
X110447000Y-99310000D02*
X112947000Y-99310000D01*
X110447000Y-93090000D02*
X112947000Y-93090000D01*
X166327000Y-65150000D02*
X168827000Y-65150000D01*
X168827000Y-71370000D02*
X168827000Y-70320000D01*
X164357000Y-66320000D02*
X164357000Y-70200000D01*
X168827000Y-66200000D02*
X169817000Y-66200000D01*
X166327000Y-71370000D02*
X168827000Y-71370000D01*
X168827000Y-65150000D02*
X168827000Y-66200000D01*
X166327000Y-43430000D02*
X168827000Y-43430000D01*
X168827000Y-38260000D02*
X169817000Y-38260000D01*
X166327000Y-37210000D02*
X168827000Y-37210000D01*
X168827000Y-43430000D02*
X168827000Y-42380000D01*
X168827000Y-37210000D02*
X168827000Y-38260000D01*
X164357000Y-38380000D02*
X164357000Y-42260000D01*
X140887000Y-43430000D02*
X140887000Y-42380000D01*
X136417000Y-38380000D02*
X136417000Y-42260000D01*
X138387000Y-43430000D02*
X140887000Y-43430000D01*
X140887000Y-37210000D02*
X140887000Y-38260000D01*
X138387000Y-37210000D02*
X140887000Y-37210000D01*
X140887000Y-38260000D02*
X141877000Y-38260000D01*
M02*
