M48
INCH,TZ
T1C0.0120
%
G90
G05
T1
X44415Y-11624
X44415Y-22624
X44415Y-33624
X44565Y-14874
X44565Y-25874
X44565Y-36874
X45365Y-15424
X45365Y-16424
X45365Y-26424
X45365Y-27424
X45365Y-37424
X45365Y-38424
X45865Y-14874
X45865Y-25874
X45865Y-36874
X50515Y-11624
X50515Y-22624
X50515Y-33624
X55415Y-11624
X55415Y-22624
X55415Y-33624
X55565Y-14874
X55565Y-25874
X55565Y-36874
X56365Y-15424
X56365Y-16424
X56365Y-26424
X56365Y-27424
X56365Y-37424
X56365Y-38424
X56865Y-14874
X56865Y-25874
X56865Y-36874
X61515Y-11624
X61515Y-22624
X61515Y-33624
X66415Y-11624
X66415Y-22624
X66415Y-33624
X66565Y-14874
X66565Y-25874
X66565Y-36874
X67365Y-15424
X67365Y-16424
X67365Y-26424
X67365Y-27424
X67365Y-37424
X67365Y-38424
X67865Y-14874
X67865Y-25874
X67865Y-36874
X72515Y-11624
X72515Y-22624
X72515Y-33624
T0
M30
