G04 #@! TF.GenerationSoftware,KiCad,Pcbnew,6.0.2+dfsg-1*
G04 #@! TF.CreationDate,2024-01-21T16:33:43-07:00*
G04 #@! TF.ProjectId,ckt-dingdong-spk-array,636b742d-6469-46e6-9764-6f6e672d7370,rev?*
G04 #@! TF.SameCoordinates,Original*
G04 #@! TF.FileFunction,Legend,Bot*
G04 #@! TF.FilePolarity,Positive*
%FSLAX46Y46*%
G04 Gerber Fmt 4.6, Leading zero omitted, Abs format (unit mm)*
G04 Created by KiCad (PCBNEW 6.0.2+dfsg-1) date 2024-01-21 16:33:43*
%MOMM*%
%LPD*%
G01*
G04 APERTURE LIST*
%ADD10C,0.150000*%
%ADD11C,0.120000*%
G04 APERTURE END LIST*
D10*
X122321904Y-93564761D02*
X122179047Y-93612380D01*
X121940952Y-93612380D01*
X121845714Y-93564761D01*
X121798095Y-93517142D01*
X121750476Y-93421904D01*
X121750476Y-93326666D01*
X121798095Y-93231428D01*
X121845714Y-93183809D01*
X121940952Y-93136190D01*
X122131428Y-93088571D01*
X122226666Y-93040952D01*
X122274285Y-92993333D01*
X122321904Y-92898095D01*
X122321904Y-92802857D01*
X122274285Y-92707619D01*
X122226666Y-92660000D01*
X122131428Y-92612380D01*
X121893333Y-92612380D01*
X121750476Y-92660000D01*
X121321904Y-93612380D02*
X121321904Y-92612380D01*
X120940952Y-92612380D01*
X120845714Y-92660000D01*
X120798095Y-92707619D01*
X120750476Y-92802857D01*
X120750476Y-92945714D01*
X120798095Y-93040952D01*
X120845714Y-93088571D01*
X120940952Y-93136190D01*
X121321904Y-93136190D01*
X120321904Y-93612380D02*
X120321904Y-92612380D01*
X119750476Y-93612380D02*
X120179047Y-93040952D01*
X119750476Y-92612380D02*
X120321904Y-93183809D01*
X118798095Y-93612380D02*
X119369523Y-93612380D01*
X119083809Y-93612380D02*
X119083809Y-92612380D01*
X119179047Y-92755238D01*
X119274285Y-92850476D01*
X119369523Y-92898095D01*
X178201904Y-93564761D02*
X178059047Y-93612380D01*
X177820952Y-93612380D01*
X177725714Y-93564761D01*
X177678095Y-93517142D01*
X177630476Y-93421904D01*
X177630476Y-93326666D01*
X177678095Y-93231428D01*
X177725714Y-93183809D01*
X177820952Y-93136190D01*
X178011428Y-93088571D01*
X178106666Y-93040952D01*
X178154285Y-92993333D01*
X178201904Y-92898095D01*
X178201904Y-92802857D01*
X178154285Y-92707619D01*
X178106666Y-92660000D01*
X178011428Y-92612380D01*
X177773333Y-92612380D01*
X177630476Y-92660000D01*
X177201904Y-93612380D02*
X177201904Y-92612380D01*
X176820952Y-92612380D01*
X176725714Y-92660000D01*
X176678095Y-92707619D01*
X176630476Y-92802857D01*
X176630476Y-92945714D01*
X176678095Y-93040952D01*
X176725714Y-93088571D01*
X176820952Y-93136190D01*
X177201904Y-93136190D01*
X176201904Y-93612380D02*
X176201904Y-92612380D01*
X175630476Y-93612380D02*
X176059047Y-93040952D01*
X175630476Y-92612380D02*
X176201904Y-93183809D01*
X174678095Y-93612380D02*
X175249523Y-93612380D01*
X174963809Y-93612380D02*
X174963809Y-92612380D01*
X175059047Y-92755238D01*
X175154285Y-92850476D01*
X175249523Y-92898095D01*
X122321904Y-65624761D02*
X122179047Y-65672380D01*
X121940952Y-65672380D01*
X121845714Y-65624761D01*
X121798095Y-65577142D01*
X121750476Y-65481904D01*
X121750476Y-65386666D01*
X121798095Y-65291428D01*
X121845714Y-65243809D01*
X121940952Y-65196190D01*
X122131428Y-65148571D01*
X122226666Y-65100952D01*
X122274285Y-65053333D01*
X122321904Y-64958095D01*
X122321904Y-64862857D01*
X122274285Y-64767619D01*
X122226666Y-64720000D01*
X122131428Y-64672380D01*
X121893333Y-64672380D01*
X121750476Y-64720000D01*
X121321904Y-65672380D02*
X121321904Y-64672380D01*
X120940952Y-64672380D01*
X120845714Y-64720000D01*
X120798095Y-64767619D01*
X120750476Y-64862857D01*
X120750476Y-65005714D01*
X120798095Y-65100952D01*
X120845714Y-65148571D01*
X120940952Y-65196190D01*
X121321904Y-65196190D01*
X120321904Y-65672380D02*
X120321904Y-64672380D01*
X119750476Y-65672380D02*
X120179047Y-65100952D01*
X119750476Y-64672380D02*
X120321904Y-65243809D01*
X118798095Y-65672380D02*
X119369523Y-65672380D01*
X119083809Y-65672380D02*
X119083809Y-64672380D01*
X119179047Y-64815238D01*
X119274285Y-64910476D01*
X119369523Y-64958095D01*
X122321904Y-37684761D02*
X122179047Y-37732380D01*
X121940952Y-37732380D01*
X121845714Y-37684761D01*
X121798095Y-37637142D01*
X121750476Y-37541904D01*
X121750476Y-37446666D01*
X121798095Y-37351428D01*
X121845714Y-37303809D01*
X121940952Y-37256190D01*
X122131428Y-37208571D01*
X122226666Y-37160952D01*
X122274285Y-37113333D01*
X122321904Y-37018095D01*
X122321904Y-36922857D01*
X122274285Y-36827619D01*
X122226666Y-36780000D01*
X122131428Y-36732380D01*
X121893333Y-36732380D01*
X121750476Y-36780000D01*
X121321904Y-37732380D02*
X121321904Y-36732380D01*
X120940952Y-36732380D01*
X120845714Y-36780000D01*
X120798095Y-36827619D01*
X120750476Y-36922857D01*
X120750476Y-37065714D01*
X120798095Y-37160952D01*
X120845714Y-37208571D01*
X120940952Y-37256190D01*
X121321904Y-37256190D01*
X120321904Y-37732380D02*
X120321904Y-36732380D01*
X119750476Y-37732380D02*
X120179047Y-37160952D01*
X119750476Y-36732380D02*
X120321904Y-37303809D01*
X118798095Y-37732380D02*
X119369523Y-37732380D01*
X119083809Y-37732380D02*
X119083809Y-36732380D01*
X119179047Y-36875238D01*
X119274285Y-36970476D01*
X119369523Y-37018095D01*
X178201904Y-37684761D02*
X178059047Y-37732380D01*
X177820952Y-37732380D01*
X177725714Y-37684761D01*
X177678095Y-37637142D01*
X177630476Y-37541904D01*
X177630476Y-37446666D01*
X177678095Y-37351428D01*
X177725714Y-37303809D01*
X177820952Y-37256190D01*
X178011428Y-37208571D01*
X178106666Y-37160952D01*
X178154285Y-37113333D01*
X178201904Y-37018095D01*
X178201904Y-36922857D01*
X178154285Y-36827619D01*
X178106666Y-36780000D01*
X178011428Y-36732380D01*
X177773333Y-36732380D01*
X177630476Y-36780000D01*
X177201904Y-37732380D02*
X177201904Y-36732380D01*
X176820952Y-36732380D01*
X176725714Y-36780000D01*
X176678095Y-36827619D01*
X176630476Y-36922857D01*
X176630476Y-37065714D01*
X176678095Y-37160952D01*
X176725714Y-37208571D01*
X176820952Y-37256190D01*
X177201904Y-37256190D01*
X176201904Y-37732380D02*
X176201904Y-36732380D01*
X175630476Y-37732380D02*
X176059047Y-37160952D01*
X175630476Y-36732380D02*
X176201904Y-37303809D01*
X174678095Y-37732380D02*
X175249523Y-37732380D01*
X174963809Y-37732380D02*
X174963809Y-36732380D01*
X175059047Y-36875238D01*
X175154285Y-36970476D01*
X175249523Y-37018095D01*
X150261904Y-37684761D02*
X150119047Y-37732380D01*
X149880952Y-37732380D01*
X149785714Y-37684761D01*
X149738095Y-37637142D01*
X149690476Y-37541904D01*
X149690476Y-37446666D01*
X149738095Y-37351428D01*
X149785714Y-37303809D01*
X149880952Y-37256190D01*
X150071428Y-37208571D01*
X150166666Y-37160952D01*
X150214285Y-37113333D01*
X150261904Y-37018095D01*
X150261904Y-36922857D01*
X150214285Y-36827619D01*
X150166666Y-36780000D01*
X150071428Y-36732380D01*
X149833333Y-36732380D01*
X149690476Y-36780000D01*
X149261904Y-37732380D02*
X149261904Y-36732380D01*
X148880952Y-36732380D01*
X148785714Y-36780000D01*
X148738095Y-36827619D01*
X148690476Y-36922857D01*
X148690476Y-37065714D01*
X148738095Y-37160952D01*
X148785714Y-37208571D01*
X148880952Y-37256190D01*
X149261904Y-37256190D01*
X148261904Y-37732380D02*
X148261904Y-36732380D01*
X147690476Y-37732380D02*
X148119047Y-37160952D01*
X147690476Y-36732380D02*
X148261904Y-37303809D01*
X146738095Y-37732380D02*
X147309523Y-37732380D01*
X147023809Y-37732380D02*
X147023809Y-36732380D01*
X147119047Y-36875238D01*
X147214285Y-36970476D01*
X147309523Y-37018095D01*
X178201904Y-65624761D02*
X178059047Y-65672380D01*
X177820952Y-65672380D01*
X177725714Y-65624761D01*
X177678095Y-65577142D01*
X177630476Y-65481904D01*
X177630476Y-65386666D01*
X177678095Y-65291428D01*
X177725714Y-65243809D01*
X177820952Y-65196190D01*
X178011428Y-65148571D01*
X178106666Y-65100952D01*
X178154285Y-65053333D01*
X178201904Y-64958095D01*
X178201904Y-64862857D01*
X178154285Y-64767619D01*
X178106666Y-64720000D01*
X178011428Y-64672380D01*
X177773333Y-64672380D01*
X177630476Y-64720000D01*
X177201904Y-65672380D02*
X177201904Y-64672380D01*
X176820952Y-64672380D01*
X176725714Y-64720000D01*
X176678095Y-64767619D01*
X176630476Y-64862857D01*
X176630476Y-65005714D01*
X176678095Y-65100952D01*
X176725714Y-65148571D01*
X176820952Y-65196190D01*
X177201904Y-65196190D01*
X176201904Y-65672380D02*
X176201904Y-64672380D01*
X175630476Y-65672380D02*
X176059047Y-65100952D01*
X175630476Y-64672380D02*
X176201904Y-65243809D01*
X174678095Y-65672380D02*
X175249523Y-65672380D01*
X174963809Y-65672380D02*
X174963809Y-64672380D01*
X175059047Y-64815238D01*
X175154285Y-64910476D01*
X175249523Y-64958095D01*
X150261904Y-93564761D02*
X150119047Y-93612380D01*
X149880952Y-93612380D01*
X149785714Y-93564761D01*
X149738095Y-93517142D01*
X149690476Y-93421904D01*
X149690476Y-93326666D01*
X149738095Y-93231428D01*
X149785714Y-93183809D01*
X149880952Y-93136190D01*
X150071428Y-93088571D01*
X150166666Y-93040952D01*
X150214285Y-92993333D01*
X150261904Y-92898095D01*
X150261904Y-92802857D01*
X150214285Y-92707619D01*
X150166666Y-92660000D01*
X150071428Y-92612380D01*
X149833333Y-92612380D01*
X149690476Y-92660000D01*
X149261904Y-93612380D02*
X149261904Y-92612380D01*
X148880952Y-92612380D01*
X148785714Y-92660000D01*
X148738095Y-92707619D01*
X148690476Y-92802857D01*
X148690476Y-92945714D01*
X148738095Y-93040952D01*
X148785714Y-93088571D01*
X148880952Y-93136190D01*
X149261904Y-93136190D01*
X148261904Y-93612380D02*
X148261904Y-92612380D01*
X147690476Y-93612380D02*
X148119047Y-93040952D01*
X147690476Y-92612380D02*
X148261904Y-93183809D01*
X146738095Y-93612380D02*
X147309523Y-93612380D01*
X147023809Y-93612380D02*
X147023809Y-92612380D01*
X147119047Y-92755238D01*
X147214285Y-92850476D01*
X147309523Y-92898095D01*
X150261904Y-65624761D02*
X150119047Y-65672380D01*
X149880952Y-65672380D01*
X149785714Y-65624761D01*
X149738095Y-65577142D01*
X149690476Y-65481904D01*
X149690476Y-65386666D01*
X149738095Y-65291428D01*
X149785714Y-65243809D01*
X149880952Y-65196190D01*
X150071428Y-65148571D01*
X150166666Y-65100952D01*
X150214285Y-65053333D01*
X150261904Y-64958095D01*
X150261904Y-64862857D01*
X150214285Y-64767619D01*
X150166666Y-64720000D01*
X150071428Y-64672380D01*
X149833333Y-64672380D01*
X149690476Y-64720000D01*
X149261904Y-65672380D02*
X149261904Y-64672380D01*
X148880952Y-64672380D01*
X148785714Y-64720000D01*
X148738095Y-64767619D01*
X148690476Y-64862857D01*
X148690476Y-65005714D01*
X148738095Y-65100952D01*
X148785714Y-65148571D01*
X148880952Y-65196190D01*
X149261904Y-65196190D01*
X148261904Y-65672380D02*
X148261904Y-64672380D01*
X147690476Y-65672380D02*
X148119047Y-65100952D01*
X147690476Y-64672380D02*
X148261904Y-65243809D01*
X146738095Y-65672380D02*
X147309523Y-65672380D01*
X147023809Y-65672380D02*
X147023809Y-64672380D01*
X147119047Y-64815238D01*
X147214285Y-64910476D01*
X147309523Y-64958095D01*
D11*
X126560000Y-87160000D02*
X114560000Y-87160000D01*
X111560000Y-100160000D02*
X129560000Y-100160000D01*
X129560000Y-100160000D02*
X129560000Y-90160000D01*
X111560000Y-90160000D02*
X111560000Y-100160000D01*
X182440000Y-87160000D02*
X170440000Y-87160000D01*
X167440000Y-100160000D02*
X185440000Y-100160000D01*
X167440000Y-90160000D02*
X167440000Y-100160000D01*
X185440000Y-100160000D02*
X185440000Y-90160000D01*
X111560000Y-62220000D02*
X111560000Y-72220000D01*
X111560000Y-72220000D02*
X129560000Y-72220000D01*
X126560000Y-59220000D02*
X114560000Y-59220000D01*
X129560000Y-72220000D02*
X129560000Y-62220000D01*
X111560000Y-44280000D02*
X129560000Y-44280000D01*
X111560000Y-34280000D02*
X111560000Y-44280000D01*
X126560000Y-31280000D02*
X114560000Y-31280000D01*
X129560000Y-44280000D02*
X129560000Y-34280000D01*
X167440000Y-34280000D02*
X167440000Y-44280000D01*
X182440000Y-31280000D02*
X170440000Y-31280000D01*
X167440000Y-44280000D02*
X185440000Y-44280000D01*
X185440000Y-44280000D02*
X185440000Y-34280000D01*
X139500000Y-34280000D02*
X139500000Y-44280000D01*
X139500000Y-44280000D02*
X157500000Y-44280000D01*
X157500000Y-44280000D02*
X157500000Y-34280000D01*
X154500000Y-31280000D02*
X142500000Y-31280000D01*
X167440000Y-72220000D02*
X185440000Y-72220000D01*
X185440000Y-72220000D02*
X185440000Y-62220000D01*
X167440000Y-62220000D02*
X167440000Y-72220000D01*
X182440000Y-59220000D02*
X170440000Y-59220000D01*
X157500000Y-100160000D02*
X157500000Y-90160000D01*
X139500000Y-100160000D02*
X157500000Y-100160000D01*
X154500000Y-87160000D02*
X142500000Y-87160000D01*
X139500000Y-90160000D02*
X139500000Y-100160000D01*
X139500000Y-62220000D02*
X139500000Y-72220000D01*
X139500000Y-72220000D02*
X157500000Y-72220000D01*
X157500000Y-72220000D02*
X157500000Y-62220000D01*
X154500000Y-59220000D02*
X142500000Y-59220000D01*
M02*
