M48
INCH,TZ
T1C0.0197
%
G90
G05
T1
X42465Y-15374
X42465Y-15707
X42465Y-16041
X42465Y-16374
X42465Y-26374
X42465Y-26707
X42465Y-27041
X42465Y-27374
X42465Y-37374
X42465Y-37707
X42465Y-38041
X42465Y-38374
X46965Y-10874
X46965Y-20874
X46965Y-21874
X46965Y-31874
X46965Y-32874
X46965Y-42874
X47298Y-10874
X47298Y-20874
X47298Y-21874
X47298Y-31874
X47298Y-32874
X47298Y-42874
X47631Y-10874
X47631Y-20874
X47631Y-21874
X47631Y-31874
X47631Y-32874
X47631Y-42874
X47965Y-10874
X47965Y-20874
X47965Y-21874
X47965Y-31874
X47965Y-32874
X47965Y-42874
X52465Y-15374
X52465Y-15707
X52465Y-16041
X52465Y-16374
X52465Y-26374
X52465Y-26707
X52465Y-27041
X52465Y-27374
X52465Y-37374
X52465Y-37707
X52465Y-38041
X52465Y-38374
X53465Y-15374
X53465Y-15707
X53465Y-16041
X53465Y-16374
X53465Y-26374
X53465Y-26707
X53465Y-27041
X53465Y-27374
X53465Y-37374
X53465Y-37707
X53465Y-38041
X53465Y-38374
X57965Y-10874
X57965Y-20874
X57965Y-21874
X57965Y-31874
X57965Y-32874
X57965Y-42874
X58298Y-10874
X58298Y-20874
X58298Y-21874
X58298Y-31874
X58298Y-32874
X58298Y-42874
X58631Y-10874
X58631Y-20874
X58631Y-21874
X58631Y-31874
X58631Y-32874
X58631Y-42874
X58965Y-10874
X58965Y-20874
X58965Y-21874
X58965Y-31874
X58965Y-32874
X58965Y-42874
X63465Y-15374
X63465Y-15707
X63465Y-16041
X63465Y-16374
X63465Y-26374
X63465Y-26707
X63465Y-27041
X63465Y-27374
X63465Y-37374
X63465Y-37707
X63465Y-38041
X63465Y-38374
X64465Y-15374
X64465Y-15707
X64465Y-16041
X64465Y-16374
X64465Y-26374
X64465Y-26707
X64465Y-27041
X64465Y-27374
X64465Y-37374
X64465Y-37707
X64465Y-38041
X64465Y-38374
X68965Y-10874
X68965Y-20874
X68965Y-21874
X68965Y-31874
X68965Y-32874
X68965Y-42874
X69298Y-10874
X69298Y-20874
X69298Y-21874
X69298Y-31874
X69298Y-32874
X69298Y-42874
X69631Y-10874
X69631Y-20874
X69631Y-21874
X69631Y-31874
X69631Y-32874
X69631Y-42874
X69965Y-10874
X69965Y-20874
X69965Y-21874
X69965Y-31874
X69965Y-32874
X69965Y-42874
X74465Y-15374
X74465Y-15707
X74465Y-16041
X74465Y-16374
X74465Y-26374
X74465Y-26707
X74465Y-27041
X74465Y-27374
X74465Y-37374
X74465Y-37707
X74465Y-38041
X74465Y-38374
T0
M30
