G04 #@! TF.GenerationSoftware,KiCad,Pcbnew,6.0.2+dfsg-1*
G04 #@! TF.CreationDate,2024-01-21T16:33:43-07:00*
G04 #@! TF.ProjectId,ckt-dingdong-spk-array,636b742d-6469-46e6-9764-6f6e672d7370,rev?*
G04 #@! TF.SameCoordinates,Original*
G04 #@! TF.FileFunction,Copper,L2,Bot*
G04 #@! TF.FilePolarity,Positive*
%FSLAX46Y46*%
G04 Gerber Fmt 4.6, Leading zero omitted, Abs format (unit mm)*
G04 Created by KiCad (PCBNEW 6.0.2+dfsg-1) date 2024-01-21 16:33:43*
%MOMM*%
%LPD*%
G01*
G04 APERTURE LIST*
G04 #@! TA.AperFunction,SMDPad,CuDef*
%ADD10C,1.000000*%
G04 #@! TD*
G04 #@! TA.AperFunction,ViaPad*
%ADD11C,0.609600*%
G04 #@! TD*
G04 #@! TA.AperFunction,Conductor*
%ADD12C,0.635000*%
G04 #@! TD*
G04 APERTURE END LIST*
D10*
X107860000Y-113980000D03*
G04 #@! TA.AperFunction,SMDPad,CuDef*
G36*
G01*
X129560000Y-87785000D02*
X129560000Y-89035000D01*
G75*
G02*
X128935000Y-89660000I-625000J0D01*
G01*
X127685000Y-89660000D01*
G75*
G02*
X127060000Y-89035000I0J625000D01*
G01*
X127060000Y-87785000D01*
G75*
G02*
X127685000Y-87160000I625000J0D01*
G01*
X128935000Y-87160000D01*
G75*
G02*
X129560000Y-87785000I0J-625000D01*
G01*
G37*
G04 #@! TD.AperFunction*
G04 #@! TA.AperFunction,SMDPad,CuDef*
G36*
G01*
X114060000Y-87785000D02*
X114060000Y-89035000D01*
G75*
G02*
X113435000Y-89660000I-625000J0D01*
G01*
X112185000Y-89660000D01*
G75*
G02*
X111560000Y-89035000I0J625000D01*
G01*
X111560000Y-87785000D01*
G75*
G02*
X112185000Y-87160000I625000J0D01*
G01*
X113435000Y-87160000D01*
G75*
G02*
X114060000Y-87785000I0J-625000D01*
G01*
G37*
G04 #@! TD.AperFunction*
X107860000Y-22540000D03*
G04 #@! TA.AperFunction,SMDPad,CuDef*
G36*
G01*
X185440000Y-87785000D02*
X185440000Y-89035000D01*
G75*
G02*
X184815000Y-89660000I-625000J0D01*
G01*
X183565000Y-89660000D01*
G75*
G02*
X182940000Y-89035000I0J625000D01*
G01*
X182940000Y-87785000D01*
G75*
G02*
X183565000Y-87160000I625000J0D01*
G01*
X184815000Y-87160000D01*
G75*
G02*
X185440000Y-87785000I0J-625000D01*
G01*
G37*
G04 #@! TD.AperFunction*
G04 #@! TA.AperFunction,SMDPad,CuDef*
G36*
G01*
X169940000Y-87785000D02*
X169940000Y-89035000D01*
G75*
G02*
X169315000Y-89660000I-625000J0D01*
G01*
X168065000Y-89660000D01*
G75*
G02*
X167440000Y-89035000I0J625000D01*
G01*
X167440000Y-87785000D01*
G75*
G02*
X168065000Y-87160000I625000J0D01*
G01*
X169315000Y-87160000D01*
G75*
G02*
X169940000Y-87785000I0J-625000D01*
G01*
G37*
G04 #@! TD.AperFunction*
G04 #@! TA.AperFunction,SMDPad,CuDef*
G36*
G01*
X129560000Y-59845000D02*
X129560000Y-61095000D01*
G75*
G02*
X128935000Y-61720000I-625000J0D01*
G01*
X127685000Y-61720000D01*
G75*
G02*
X127060000Y-61095000I0J625000D01*
G01*
X127060000Y-59845000D01*
G75*
G02*
X127685000Y-59220000I625000J0D01*
G01*
X128935000Y-59220000D01*
G75*
G02*
X129560000Y-59845000I0J-625000D01*
G01*
G37*
G04 #@! TD.AperFunction*
G04 #@! TA.AperFunction,SMDPad,CuDef*
G36*
G01*
X114060000Y-59845000D02*
X114060000Y-61095000D01*
G75*
G02*
X113435000Y-61720000I-625000J0D01*
G01*
X112185000Y-61720000D01*
G75*
G02*
X111560000Y-61095000I0J625000D01*
G01*
X111560000Y-59845000D01*
G75*
G02*
X112185000Y-59220000I625000J0D01*
G01*
X113435000Y-59220000D01*
G75*
G02*
X114060000Y-59845000I0J-625000D01*
G01*
G37*
G04 #@! TD.AperFunction*
G04 #@! TA.AperFunction,SMDPad,CuDef*
G36*
G01*
X129560000Y-31905000D02*
X129560000Y-33155000D01*
G75*
G02*
X128935000Y-33780000I-625000J0D01*
G01*
X127685000Y-33780000D01*
G75*
G02*
X127060000Y-33155000I0J625000D01*
G01*
X127060000Y-31905000D01*
G75*
G02*
X127685000Y-31280000I625000J0D01*
G01*
X128935000Y-31280000D01*
G75*
G02*
X129560000Y-31905000I0J-625000D01*
G01*
G37*
G04 #@! TD.AperFunction*
G04 #@! TA.AperFunction,SMDPad,CuDef*
G36*
G01*
X114060000Y-31905000D02*
X114060000Y-33155000D01*
G75*
G02*
X113435000Y-33780000I-625000J0D01*
G01*
X112185000Y-33780000D01*
G75*
G02*
X111560000Y-33155000I0J625000D01*
G01*
X111560000Y-31905000D01*
G75*
G02*
X112185000Y-31280000I625000J0D01*
G01*
X113435000Y-31280000D01*
G75*
G02*
X114060000Y-31905000I0J-625000D01*
G01*
G37*
G04 #@! TD.AperFunction*
G04 #@! TA.AperFunction,SMDPad,CuDef*
G36*
G01*
X185440000Y-31905000D02*
X185440000Y-33155000D01*
G75*
G02*
X184815000Y-33780000I-625000J0D01*
G01*
X183565000Y-33780000D01*
G75*
G02*
X182940000Y-33155000I0J625000D01*
G01*
X182940000Y-31905000D01*
G75*
G02*
X183565000Y-31280000I625000J0D01*
G01*
X184815000Y-31280000D01*
G75*
G02*
X185440000Y-31905000I0J-625000D01*
G01*
G37*
G04 #@! TD.AperFunction*
G04 #@! TA.AperFunction,SMDPad,CuDef*
G36*
G01*
X169940000Y-31905000D02*
X169940000Y-33155000D01*
G75*
G02*
X169315000Y-33780000I-625000J0D01*
G01*
X168065000Y-33780000D01*
G75*
G02*
X167440000Y-33155000I0J625000D01*
G01*
X167440000Y-31905000D01*
G75*
G02*
X168065000Y-31280000I625000J0D01*
G01*
X169315000Y-31280000D01*
G75*
G02*
X169940000Y-31905000I0J-625000D01*
G01*
G37*
G04 #@! TD.AperFunction*
G04 #@! TA.AperFunction,SMDPad,CuDef*
G36*
G01*
X157500000Y-31905000D02*
X157500000Y-33155000D01*
G75*
G02*
X156875000Y-33780000I-625000J0D01*
G01*
X155625000Y-33780000D01*
G75*
G02*
X155000000Y-33155000I0J625000D01*
G01*
X155000000Y-31905000D01*
G75*
G02*
X155625000Y-31280000I625000J0D01*
G01*
X156875000Y-31280000D01*
G75*
G02*
X157500000Y-31905000I0J-625000D01*
G01*
G37*
G04 #@! TD.AperFunction*
G04 #@! TA.AperFunction,SMDPad,CuDef*
G36*
G01*
X142000000Y-31905000D02*
X142000000Y-33155000D01*
G75*
G02*
X141375000Y-33780000I-625000J0D01*
G01*
X140125000Y-33780000D01*
G75*
G02*
X139500000Y-33155000I0J625000D01*
G01*
X139500000Y-31905000D01*
G75*
G02*
X140125000Y-31280000I625000J0D01*
G01*
X141375000Y-31280000D01*
G75*
G02*
X142000000Y-31905000I0J-625000D01*
G01*
G37*
G04 #@! TD.AperFunction*
X189140000Y-22540000D03*
G04 #@! TA.AperFunction,SMDPad,CuDef*
G36*
G01*
X185440000Y-59845000D02*
X185440000Y-61095000D01*
G75*
G02*
X184815000Y-61720000I-625000J0D01*
G01*
X183565000Y-61720000D01*
G75*
G02*
X182940000Y-61095000I0J625000D01*
G01*
X182940000Y-59845000D01*
G75*
G02*
X183565000Y-59220000I625000J0D01*
G01*
X184815000Y-59220000D01*
G75*
G02*
X185440000Y-59845000I0J-625000D01*
G01*
G37*
G04 #@! TD.AperFunction*
G04 #@! TA.AperFunction,SMDPad,CuDef*
G36*
G01*
X169940000Y-59845000D02*
X169940000Y-61095000D01*
G75*
G02*
X169315000Y-61720000I-625000J0D01*
G01*
X168065000Y-61720000D01*
G75*
G02*
X167440000Y-61095000I0J625000D01*
G01*
X167440000Y-59845000D01*
G75*
G02*
X168065000Y-59220000I625000J0D01*
G01*
X169315000Y-59220000D01*
G75*
G02*
X169940000Y-59845000I0J-625000D01*
G01*
G37*
G04 #@! TD.AperFunction*
G04 #@! TA.AperFunction,SMDPad,CuDef*
G36*
G01*
X157500000Y-87785000D02*
X157500000Y-89035000D01*
G75*
G02*
X156875000Y-89660000I-625000J0D01*
G01*
X155625000Y-89660000D01*
G75*
G02*
X155000000Y-89035000I0J625000D01*
G01*
X155000000Y-87785000D01*
G75*
G02*
X155625000Y-87160000I625000J0D01*
G01*
X156875000Y-87160000D01*
G75*
G02*
X157500000Y-87785000I0J-625000D01*
G01*
G37*
G04 #@! TD.AperFunction*
G04 #@! TA.AperFunction,SMDPad,CuDef*
G36*
G01*
X142000000Y-87785000D02*
X142000000Y-89035000D01*
G75*
G02*
X141375000Y-89660000I-625000J0D01*
G01*
X140125000Y-89660000D01*
G75*
G02*
X139500000Y-89035000I0J625000D01*
G01*
X139500000Y-87785000D01*
G75*
G02*
X140125000Y-87160000I625000J0D01*
G01*
X141375000Y-87160000D01*
G75*
G02*
X142000000Y-87785000I0J-625000D01*
G01*
G37*
G04 #@! TD.AperFunction*
G04 #@! TA.AperFunction,SMDPad,CuDef*
G36*
G01*
X157500000Y-59845000D02*
X157500000Y-61095000D01*
G75*
G02*
X156875000Y-61720000I-625000J0D01*
G01*
X155625000Y-61720000D01*
G75*
G02*
X155000000Y-61095000I0J625000D01*
G01*
X155000000Y-59845000D01*
G75*
G02*
X155625000Y-59220000I625000J0D01*
G01*
X156875000Y-59220000D01*
G75*
G02*
X157500000Y-59845000I0J-625000D01*
G01*
G37*
G04 #@! TD.AperFunction*
G04 #@! TA.AperFunction,SMDPad,CuDef*
G36*
G01*
X142000000Y-59845000D02*
X142000000Y-61095000D01*
G75*
G02*
X141375000Y-61720000I-625000J0D01*
G01*
X140125000Y-61720000D01*
G75*
G02*
X139500000Y-61095000I0J625000D01*
G01*
X139500000Y-59845000D01*
G75*
G02*
X140125000Y-59220000I625000J0D01*
G01*
X141375000Y-59220000D01*
G75*
G02*
X142000000Y-59845000I0J-625000D01*
G01*
G37*
G04 #@! TD.AperFunction*
D11*
X116496000Y-37780000D03*
X128307000Y-29525000D03*
X113194000Y-37780000D03*
X112813000Y-29525000D03*
X115226000Y-39177000D03*
X115226000Y-41717000D03*
X144436000Y-37780000D03*
X156247000Y-29525000D03*
X141134000Y-37780000D03*
X140753000Y-29525000D03*
X143166000Y-39177000D03*
X143166000Y-41717000D03*
X172376000Y-37780000D03*
X184187000Y-29525000D03*
X169074000Y-37780000D03*
X168693000Y-29525000D03*
X171106000Y-39177000D03*
X171106000Y-41717000D03*
X116496000Y-65720000D03*
X128307000Y-57465000D03*
X113194000Y-65720000D03*
X112813000Y-57465000D03*
X115226000Y-67117000D03*
X115226000Y-69657000D03*
X144436000Y-65720000D03*
X156247000Y-57465000D03*
X141134000Y-65720000D03*
X140753000Y-57465000D03*
X143166000Y-67117000D03*
X143166000Y-69657000D03*
X172376000Y-65720000D03*
X184187000Y-57465000D03*
X169074000Y-65720000D03*
X168693000Y-57465000D03*
X171106000Y-67117000D03*
X171106000Y-69657000D03*
X116496000Y-93660000D03*
X128307000Y-85405000D03*
X113194000Y-93660000D03*
X112813000Y-85405000D03*
X115226000Y-95057000D03*
X115226000Y-97597000D03*
X144436000Y-93660000D03*
X156247000Y-85405000D03*
X141134000Y-93660000D03*
X140753000Y-85405000D03*
X143166000Y-95057000D03*
X143166000Y-97597000D03*
X172376000Y-93660000D03*
X184187000Y-85405000D03*
X169074000Y-93660000D03*
X168693000Y-85405000D03*
X171106000Y-95057000D03*
X171106000Y-97597000D03*
D12*
X128310000Y-29528000D02*
X128310000Y-32530000D01*
X113194000Y-37780000D02*
X116496000Y-37780000D01*
X128307000Y-29525000D02*
X128310000Y-29528000D01*
X112813000Y-32527000D02*
X112810000Y-32530000D01*
X115226000Y-41717000D02*
X115226000Y-39177000D01*
X112813000Y-29525000D02*
X112813000Y-32527000D01*
X156250000Y-29528000D02*
X156250000Y-32530000D01*
X141134000Y-37780000D02*
X144436000Y-37780000D01*
X156247000Y-29525000D02*
X156250000Y-29528000D01*
X140753000Y-32527000D02*
X140750000Y-32530000D01*
X143166000Y-41717000D02*
X143166000Y-39177000D01*
X140753000Y-29525000D02*
X140753000Y-32527000D01*
X184190000Y-29528000D02*
X184190000Y-32530000D01*
X169074000Y-37780000D02*
X172376000Y-37780000D01*
X184187000Y-29525000D02*
X184190000Y-29528000D01*
X168693000Y-32527000D02*
X168690000Y-32530000D01*
X171106000Y-41717000D02*
X171106000Y-39177000D01*
X168693000Y-29525000D02*
X168693000Y-32527000D01*
X128310000Y-57468000D02*
X128310000Y-60470000D01*
X113194000Y-65720000D02*
X116496000Y-65720000D01*
X128307000Y-57465000D02*
X128310000Y-57468000D01*
X112813000Y-60467000D02*
X112810000Y-60470000D01*
X115226000Y-69657000D02*
X115226000Y-67117000D01*
X112813000Y-57465000D02*
X112813000Y-60467000D01*
X156250000Y-57468000D02*
X156250000Y-60470000D01*
X141134000Y-65720000D02*
X144436000Y-65720000D01*
X156247000Y-57465000D02*
X156250000Y-57468000D01*
X140753000Y-60467000D02*
X140750000Y-60470000D01*
X143166000Y-69657000D02*
X143166000Y-67117000D01*
X140753000Y-57465000D02*
X140753000Y-60467000D01*
X184190000Y-57468000D02*
X184190000Y-60470000D01*
X169074000Y-65720000D02*
X172376000Y-65720000D01*
X184187000Y-57465000D02*
X184190000Y-57468000D01*
X168693000Y-60467000D02*
X168690000Y-60470000D01*
X171106000Y-69657000D02*
X171106000Y-67117000D01*
X168693000Y-57465000D02*
X168693000Y-60467000D01*
X128310000Y-85408000D02*
X128310000Y-88410000D01*
X113194000Y-93660000D02*
X116496000Y-93660000D01*
X128307000Y-85405000D02*
X128310000Y-85408000D01*
X112813000Y-88407000D02*
X112810000Y-88410000D01*
X115226000Y-97597000D02*
X115226000Y-95057000D01*
X112813000Y-85405000D02*
X112813000Y-88407000D01*
X156250000Y-85408000D02*
X156250000Y-88410000D01*
X141134000Y-93660000D02*
X144436000Y-93660000D01*
X156247000Y-85405000D02*
X156250000Y-85408000D01*
X140753000Y-88407000D02*
X140750000Y-88410000D01*
X143166000Y-97597000D02*
X143166000Y-95057000D01*
X140753000Y-85405000D02*
X140753000Y-88407000D01*
X184190000Y-85408000D02*
X184190000Y-88410000D01*
X169074000Y-93660000D02*
X172376000Y-93660000D01*
X184187000Y-85405000D02*
X184190000Y-85408000D01*
X168693000Y-88407000D02*
X168690000Y-88410000D01*
X171106000Y-97597000D02*
X171106000Y-95057000D01*
X168693000Y-85405000D02*
X168693000Y-88407000D01*
M02*
