G04 #@! TF.GenerationSoftware,KiCad,Pcbnew,6.0.2+dfsg-1*
G04 #@! TF.CreationDate,2024-01-21T16:33:43-07:00*
G04 #@! TF.ProjectId,ckt-dingdong-spk-array,636b742d-6469-46e6-9764-6f6e672d7370,rev?*
G04 #@! TF.SameCoordinates,Original*
G04 #@! TF.FileFunction,Soldermask,Top*
G04 #@! TF.FilePolarity,Negative*
%FSLAX46Y46*%
G04 Gerber Fmt 4.6, Leading zero omitted, Abs format (unit mm)*
G04 Created by KiCad (PCBNEW 6.0.2+dfsg-1) date 2024-01-21 16:33:43*
%MOMM*%
%LPD*%
G01*
G04 APERTURE LIST*
%ADD10C,0.500000*%
%ADD11C,2.000000*%
G04 APERTURE END LIST*
D10*
X133260000Y-40743333D03*
X175170000Y-108900000D03*
G36*
G01*
X140477000Y-94323800D02*
X141727000Y-94323800D01*
G75*
G02*
X141953200Y-94550000I0J-226200D01*
G01*
X141953200Y-94850000D01*
G75*
G02*
X141727000Y-95076200I-226200J0D01*
G01*
X140477000Y-95076200D01*
G75*
G02*
X140250800Y-94850000I0J226200D01*
G01*
X140250800Y-94550000D01*
G75*
G02*
X140477000Y-94323800I226200J0D01*
G01*
G37*
G36*
G01*
X140477000Y-95323800D02*
X141727000Y-95323800D01*
G75*
G02*
X141953200Y-95550000I0J-226200D01*
G01*
X141953200Y-95850000D01*
G75*
G02*
X141727000Y-96076200I-226200J0D01*
G01*
X140477000Y-96076200D01*
G75*
G02*
X140250800Y-95850000I0J226200D01*
G01*
X140250800Y-95550000D01*
G75*
G02*
X140477000Y-95323800I226200J0D01*
G01*
G37*
G36*
G01*
X140477000Y-96323800D02*
X141727000Y-96323800D01*
G75*
G02*
X141953200Y-96550000I0J-226200D01*
G01*
X141953200Y-96850000D01*
G75*
G02*
X141727000Y-97076200I-226200J0D01*
G01*
X140477000Y-97076200D01*
G75*
G02*
X140250800Y-96850000I0J226200D01*
G01*
X140250800Y-96550000D01*
G75*
G02*
X140477000Y-96323800I226200J0D01*
G01*
G37*
G36*
G01*
X140477000Y-97323800D02*
X141727000Y-97323800D01*
G75*
G02*
X141953200Y-97550000I0J-226200D01*
G01*
X141953200Y-97850000D01*
G75*
G02*
X141727000Y-98076200I-226200J0D01*
G01*
X140477000Y-98076200D01*
G75*
G02*
X140250800Y-97850000I0J226200D01*
G01*
X140250800Y-97550000D01*
G75*
G02*
X140477000Y-97323800I226200J0D01*
G01*
G37*
G36*
G01*
X136577000Y-98323800D02*
X137877000Y-98323800D01*
G75*
G02*
X138203200Y-98650000I0J-326200D01*
G01*
X138203200Y-99350000D01*
G75*
G02*
X137877000Y-99676200I-326200J0D01*
G01*
X136577000Y-99676200D01*
G75*
G02*
X136250800Y-99350000I0J326200D01*
G01*
X136250800Y-98650000D01*
G75*
G02*
X136577000Y-98323800I326200J0D01*
G01*
G37*
G36*
G01*
X136577000Y-92723800D02*
X137877000Y-92723800D01*
G75*
G02*
X138203200Y-93050000I0J-326200D01*
G01*
X138203200Y-93750000D01*
G75*
G02*
X137877000Y-94076200I-326200J0D01*
G01*
X136577000Y-94076200D01*
G75*
G02*
X136250800Y-93750000I0J326200D01*
G01*
X136250800Y-93050000D01*
G75*
G02*
X136577000Y-92723800I326200J0D01*
G01*
G37*
X147230000Y-83500000D03*
X135800000Y-39050000D03*
X121830000Y-53020000D03*
X148923333Y-53020000D03*
X120983333Y-55560000D03*
X177710000Y-108900000D03*
X133260000Y-41590000D03*
X107860000Y-95776666D03*
X107860000Y-67836666D03*
X148923333Y-108900000D03*
X163740000Y-39896667D03*
G36*
G01*
X112537000Y-38443800D02*
X113787000Y-38443800D01*
G75*
G02*
X114013200Y-38670000I0J-226200D01*
G01*
X114013200Y-38970000D01*
G75*
G02*
X113787000Y-39196200I-226200J0D01*
G01*
X112537000Y-39196200D01*
G75*
G02*
X112310800Y-38970000I0J226200D01*
G01*
X112310800Y-38670000D01*
G75*
G02*
X112537000Y-38443800I226200J0D01*
G01*
G37*
G36*
G01*
X112537000Y-39443800D02*
X113787000Y-39443800D01*
G75*
G02*
X114013200Y-39670000I0J-226200D01*
G01*
X114013200Y-39970000D01*
G75*
G02*
X113787000Y-40196200I-226200J0D01*
G01*
X112537000Y-40196200D01*
G75*
G02*
X112310800Y-39970000I0J226200D01*
G01*
X112310800Y-39670000D01*
G75*
G02*
X112537000Y-39443800I226200J0D01*
G01*
G37*
G36*
G01*
X112537000Y-40443800D02*
X113787000Y-40443800D01*
G75*
G02*
X114013200Y-40670000I0J-226200D01*
G01*
X114013200Y-40970000D01*
G75*
G02*
X113787000Y-41196200I-226200J0D01*
G01*
X112537000Y-41196200D01*
G75*
G02*
X112310800Y-40970000I0J226200D01*
G01*
X112310800Y-40670000D01*
G75*
G02*
X112537000Y-40443800I226200J0D01*
G01*
G37*
G36*
G01*
X112537000Y-41443800D02*
X113787000Y-41443800D01*
G75*
G02*
X114013200Y-41670000I0J-226200D01*
G01*
X114013200Y-41970000D01*
G75*
G02*
X113787000Y-42196200I-226200J0D01*
G01*
X112537000Y-42196200D01*
G75*
G02*
X112310800Y-41970000I0J226200D01*
G01*
X112310800Y-41670000D01*
G75*
G02*
X112537000Y-41443800I226200J0D01*
G01*
G37*
G36*
G01*
X108637000Y-36843800D02*
X109937000Y-36843800D01*
G75*
G02*
X110263200Y-37170000I0J-326200D01*
G01*
X110263200Y-37870000D01*
G75*
G02*
X109937000Y-38196200I-326200J0D01*
G01*
X108637000Y-38196200D01*
G75*
G02*
X108310800Y-37870000I0J326200D01*
G01*
X108310800Y-37170000D01*
G75*
G02*
X108637000Y-36843800I326200J0D01*
G01*
G37*
G36*
G01*
X108637000Y-42443800D02*
X109937000Y-42443800D01*
G75*
G02*
X110263200Y-42770000I0J-326200D01*
G01*
X110263200Y-43470000D01*
G75*
G02*
X109937000Y-43796200I-326200J0D01*
G01*
X108637000Y-43796200D01*
G75*
G02*
X108310800Y-43470000I0J326200D01*
G01*
X108310800Y-42770000D01*
G75*
G02*
X108637000Y-42443800I326200J0D01*
G01*
G37*
X148076666Y-27620000D03*
X107860000Y-40743333D03*
X175170000Y-55560000D03*
G36*
G01*
X140477000Y-66383800D02*
X141727000Y-66383800D01*
G75*
G02*
X141953200Y-66610000I0J-226200D01*
G01*
X141953200Y-66910000D01*
G75*
G02*
X141727000Y-67136200I-226200J0D01*
G01*
X140477000Y-67136200D01*
G75*
G02*
X140250800Y-66910000I0J226200D01*
G01*
X140250800Y-66610000D01*
G75*
G02*
X140477000Y-66383800I226200J0D01*
G01*
G37*
G36*
G01*
X140477000Y-67383800D02*
X141727000Y-67383800D01*
G75*
G02*
X141953200Y-67610000I0J-226200D01*
G01*
X141953200Y-67910000D01*
G75*
G02*
X141727000Y-68136200I-226200J0D01*
G01*
X140477000Y-68136200D01*
G75*
G02*
X140250800Y-67910000I0J226200D01*
G01*
X140250800Y-67610000D01*
G75*
G02*
X140477000Y-67383800I226200J0D01*
G01*
G37*
G36*
G01*
X140477000Y-68383800D02*
X141727000Y-68383800D01*
G75*
G02*
X141953200Y-68610000I0J-226200D01*
G01*
X141953200Y-68910000D01*
G75*
G02*
X141727000Y-69136200I-226200J0D01*
G01*
X140477000Y-69136200D01*
G75*
G02*
X140250800Y-68910000I0J226200D01*
G01*
X140250800Y-68610000D01*
G75*
G02*
X140477000Y-68383800I226200J0D01*
G01*
G37*
G36*
G01*
X140477000Y-69383800D02*
X141727000Y-69383800D01*
G75*
G02*
X141953200Y-69610000I0J-226200D01*
G01*
X141953200Y-69910000D01*
G75*
G02*
X141727000Y-70136200I-226200J0D01*
G01*
X140477000Y-70136200D01*
G75*
G02*
X140250800Y-69910000I0J226200D01*
G01*
X140250800Y-69610000D01*
G75*
G02*
X140477000Y-69383800I226200J0D01*
G01*
G37*
G36*
G01*
X136577000Y-64783800D02*
X137877000Y-64783800D01*
G75*
G02*
X138203200Y-65110000I0J-326200D01*
G01*
X138203200Y-65810000D01*
G75*
G02*
X137877000Y-66136200I-326200J0D01*
G01*
X136577000Y-66136200D01*
G75*
G02*
X136250800Y-65810000I0J326200D01*
G01*
X136250800Y-65110000D01*
G75*
G02*
X136577000Y-64783800I326200J0D01*
G01*
G37*
G36*
G01*
X136577000Y-70383800D02*
X137877000Y-70383800D01*
G75*
G02*
X138203200Y-70710000I0J-326200D01*
G01*
X138203200Y-71410000D01*
G75*
G02*
X137877000Y-71736200I-326200J0D01*
G01*
X136577000Y-71736200D01*
G75*
G02*
X136250800Y-71410000I0J326200D01*
G01*
X136250800Y-70710000D01*
G75*
G02*
X136577000Y-70383800I326200J0D01*
G01*
G37*
X135800000Y-96623333D03*
X176016666Y-83500000D03*
X177710000Y-55560000D03*
X176016666Y-53020000D03*
X135800000Y-66990000D03*
X107860000Y-94930000D03*
X161200000Y-39050000D03*
X133260000Y-96623333D03*
X176863333Y-27620000D03*
X163740000Y-96623333D03*
X175170000Y-83500000D03*
X189140000Y-96623333D03*
X120136667Y-108900000D03*
X161200000Y-95776666D03*
X161200000Y-97470000D03*
X120136667Y-27620000D03*
X148076666Y-55560000D03*
X107860000Y-96623333D03*
X120983333Y-108900000D03*
X148076666Y-108900000D03*
X133260000Y-66990000D03*
D11*
X107860000Y-113980000D03*
D10*
X176863333Y-55560000D03*
X161200000Y-68683333D03*
X189140000Y-95776666D03*
X119290000Y-55560000D03*
X133260000Y-68683333D03*
X161200000Y-66990000D03*
X163740000Y-69530000D03*
X133260000Y-39896667D03*
X161200000Y-69530000D03*
X120136667Y-55560000D03*
X119290000Y-53020000D03*
X176863333Y-53020000D03*
X149770000Y-108900000D03*
X121830000Y-80960000D03*
D11*
X189140000Y-22540000D03*
D10*
X147230000Y-55560000D03*
X121830000Y-83500000D03*
X176016666Y-27620000D03*
X147230000Y-108900000D03*
G36*
G01*
X112537000Y-66383800D02*
X113787000Y-66383800D01*
G75*
G02*
X114013200Y-66610000I0J-226200D01*
G01*
X114013200Y-66910000D01*
G75*
G02*
X113787000Y-67136200I-226200J0D01*
G01*
X112537000Y-67136200D01*
G75*
G02*
X112310800Y-66910000I0J226200D01*
G01*
X112310800Y-66610000D01*
G75*
G02*
X112537000Y-66383800I226200J0D01*
G01*
G37*
G36*
G01*
X112537000Y-67383800D02*
X113787000Y-67383800D01*
G75*
G02*
X114013200Y-67610000I0J-226200D01*
G01*
X114013200Y-67910000D01*
G75*
G02*
X113787000Y-68136200I-226200J0D01*
G01*
X112537000Y-68136200D01*
G75*
G02*
X112310800Y-67910000I0J226200D01*
G01*
X112310800Y-67610000D01*
G75*
G02*
X112537000Y-67383800I226200J0D01*
G01*
G37*
G36*
G01*
X112537000Y-68383800D02*
X113787000Y-68383800D01*
G75*
G02*
X114013200Y-68610000I0J-226200D01*
G01*
X114013200Y-68910000D01*
G75*
G02*
X113787000Y-69136200I-226200J0D01*
G01*
X112537000Y-69136200D01*
G75*
G02*
X112310800Y-68910000I0J226200D01*
G01*
X112310800Y-68610000D01*
G75*
G02*
X112537000Y-68383800I226200J0D01*
G01*
G37*
G36*
G01*
X112537000Y-69383800D02*
X113787000Y-69383800D01*
G75*
G02*
X114013200Y-69610000I0J-226200D01*
G01*
X114013200Y-69910000D01*
G75*
G02*
X113787000Y-70136200I-226200J0D01*
G01*
X112537000Y-70136200D01*
G75*
G02*
X112310800Y-69910000I0J226200D01*
G01*
X112310800Y-69610000D01*
G75*
G02*
X112537000Y-69383800I226200J0D01*
G01*
G37*
G36*
G01*
X108637000Y-64783800D02*
X109937000Y-64783800D01*
G75*
G02*
X110263200Y-65110000I0J-326200D01*
G01*
X110263200Y-65810000D01*
G75*
G02*
X109937000Y-66136200I-326200J0D01*
G01*
X108637000Y-66136200D01*
G75*
G02*
X108310800Y-65810000I0J326200D01*
G01*
X108310800Y-65110000D01*
G75*
G02*
X108637000Y-64783800I326200J0D01*
G01*
G37*
G36*
G01*
X108637000Y-70383800D02*
X109937000Y-70383800D01*
G75*
G02*
X110263200Y-70710000I0J-326200D01*
G01*
X110263200Y-71410000D01*
G75*
G02*
X109937000Y-71736200I-326200J0D01*
G01*
X108637000Y-71736200D01*
G75*
G02*
X108310800Y-71410000I0J326200D01*
G01*
X108310800Y-70710000D01*
G75*
G02*
X108637000Y-70383800I326200J0D01*
G01*
G37*
X163740000Y-41590000D03*
X176016666Y-108900000D03*
X133260000Y-39050000D03*
X119290000Y-108900000D03*
X177710000Y-27620000D03*
X177710000Y-53020000D03*
X189140000Y-68683333D03*
X107860000Y-97470000D03*
X163740000Y-39050000D03*
X161200000Y-41590000D03*
X120136667Y-80960000D03*
D11*
X107860000Y-22540000D03*
D10*
X149770000Y-83500000D03*
X135800000Y-94930000D03*
X107860000Y-41590000D03*
G36*
G01*
X168417000Y-94323800D02*
X169667000Y-94323800D01*
G75*
G02*
X169893200Y-94550000I0J-226200D01*
G01*
X169893200Y-94850000D01*
G75*
G02*
X169667000Y-95076200I-226200J0D01*
G01*
X168417000Y-95076200D01*
G75*
G02*
X168190800Y-94850000I0J226200D01*
G01*
X168190800Y-94550000D01*
G75*
G02*
X168417000Y-94323800I226200J0D01*
G01*
G37*
G36*
G01*
X168417000Y-95323800D02*
X169667000Y-95323800D01*
G75*
G02*
X169893200Y-95550000I0J-226200D01*
G01*
X169893200Y-95850000D01*
G75*
G02*
X169667000Y-96076200I-226200J0D01*
G01*
X168417000Y-96076200D01*
G75*
G02*
X168190800Y-95850000I0J226200D01*
G01*
X168190800Y-95550000D01*
G75*
G02*
X168417000Y-95323800I226200J0D01*
G01*
G37*
G36*
G01*
X168417000Y-96323800D02*
X169667000Y-96323800D01*
G75*
G02*
X169893200Y-96550000I0J-226200D01*
G01*
X169893200Y-96850000D01*
G75*
G02*
X169667000Y-97076200I-226200J0D01*
G01*
X168417000Y-97076200D01*
G75*
G02*
X168190800Y-96850000I0J226200D01*
G01*
X168190800Y-96550000D01*
G75*
G02*
X168417000Y-96323800I226200J0D01*
G01*
G37*
G36*
G01*
X168417000Y-97323800D02*
X169667000Y-97323800D01*
G75*
G02*
X169893200Y-97550000I0J-226200D01*
G01*
X169893200Y-97850000D01*
G75*
G02*
X169667000Y-98076200I-226200J0D01*
G01*
X168417000Y-98076200D01*
G75*
G02*
X168190800Y-97850000I0J226200D01*
G01*
X168190800Y-97550000D01*
G75*
G02*
X168417000Y-97323800I226200J0D01*
G01*
G37*
G36*
G01*
X164517000Y-92723800D02*
X165817000Y-92723800D01*
G75*
G02*
X166143200Y-93050000I0J-326200D01*
G01*
X166143200Y-93750000D01*
G75*
G02*
X165817000Y-94076200I-326200J0D01*
G01*
X164517000Y-94076200D01*
G75*
G02*
X164190800Y-93750000I0J326200D01*
G01*
X164190800Y-93050000D01*
G75*
G02*
X164517000Y-92723800I326200J0D01*
G01*
G37*
G36*
G01*
X164517000Y-98323800D02*
X165817000Y-98323800D01*
G75*
G02*
X166143200Y-98650000I0J-326200D01*
G01*
X166143200Y-99350000D01*
G75*
G02*
X165817000Y-99676200I-326200J0D01*
G01*
X164517000Y-99676200D01*
G75*
G02*
X164190800Y-99350000I0J326200D01*
G01*
X164190800Y-98650000D01*
G75*
G02*
X164517000Y-98323800I326200J0D01*
G01*
G37*
X148923333Y-80960000D03*
X120983333Y-83500000D03*
X133260000Y-67836666D03*
X163740000Y-67836666D03*
X148076666Y-80960000D03*
X189140000Y-41590000D03*
X189140000Y-40743333D03*
X161200000Y-40743333D03*
X161200000Y-67836666D03*
X175170000Y-27620000D03*
X176863333Y-80960000D03*
X149770000Y-80960000D03*
G36*
G01*
X112537000Y-94323800D02*
X113787000Y-94323800D01*
G75*
G02*
X114013200Y-94550000I0J-226200D01*
G01*
X114013200Y-94850000D01*
G75*
G02*
X113787000Y-95076200I-226200J0D01*
G01*
X112537000Y-95076200D01*
G75*
G02*
X112310800Y-94850000I0J226200D01*
G01*
X112310800Y-94550000D01*
G75*
G02*
X112537000Y-94323800I226200J0D01*
G01*
G37*
G36*
G01*
X112537000Y-95323800D02*
X113787000Y-95323800D01*
G75*
G02*
X114013200Y-95550000I0J-226200D01*
G01*
X114013200Y-95850000D01*
G75*
G02*
X113787000Y-96076200I-226200J0D01*
G01*
X112537000Y-96076200D01*
G75*
G02*
X112310800Y-95850000I0J226200D01*
G01*
X112310800Y-95550000D01*
G75*
G02*
X112537000Y-95323800I226200J0D01*
G01*
G37*
G36*
G01*
X112537000Y-96323800D02*
X113787000Y-96323800D01*
G75*
G02*
X114013200Y-96550000I0J-226200D01*
G01*
X114013200Y-96850000D01*
G75*
G02*
X113787000Y-97076200I-226200J0D01*
G01*
X112537000Y-97076200D01*
G75*
G02*
X112310800Y-96850000I0J226200D01*
G01*
X112310800Y-96550000D01*
G75*
G02*
X112537000Y-96323800I226200J0D01*
G01*
G37*
G36*
G01*
X112537000Y-97323800D02*
X113787000Y-97323800D01*
G75*
G02*
X114013200Y-97550000I0J-226200D01*
G01*
X114013200Y-97850000D01*
G75*
G02*
X113787000Y-98076200I-226200J0D01*
G01*
X112537000Y-98076200D01*
G75*
G02*
X112310800Y-97850000I0J226200D01*
G01*
X112310800Y-97550000D01*
G75*
G02*
X112537000Y-97323800I226200J0D01*
G01*
G37*
G36*
G01*
X108637000Y-92723800D02*
X109937000Y-92723800D01*
G75*
G02*
X110263200Y-93050000I0J-326200D01*
G01*
X110263200Y-93750000D01*
G75*
G02*
X109937000Y-94076200I-326200J0D01*
G01*
X108637000Y-94076200D01*
G75*
G02*
X108310800Y-93750000I0J326200D01*
G01*
X108310800Y-93050000D01*
G75*
G02*
X108637000Y-92723800I326200J0D01*
G01*
G37*
G36*
G01*
X108637000Y-98323800D02*
X109937000Y-98323800D01*
G75*
G02*
X110263200Y-98650000I0J-326200D01*
G01*
X110263200Y-99350000D01*
G75*
G02*
X109937000Y-99676200I-326200J0D01*
G01*
X108637000Y-99676200D01*
G75*
G02*
X108310800Y-99350000I0J326200D01*
G01*
X108310800Y-98650000D01*
G75*
G02*
X108637000Y-98323800I326200J0D01*
G01*
G37*
X189140000Y-69530000D03*
X149770000Y-55560000D03*
X149770000Y-27620000D03*
X176863333Y-108900000D03*
X175170000Y-53020000D03*
X189140000Y-39050000D03*
X120983333Y-80960000D03*
X107860000Y-68683333D03*
X163740000Y-97470000D03*
G36*
G01*
X168417000Y-66383800D02*
X169667000Y-66383800D01*
G75*
G02*
X169893200Y-66610000I0J-226200D01*
G01*
X169893200Y-66910000D01*
G75*
G02*
X169667000Y-67136200I-226200J0D01*
G01*
X168417000Y-67136200D01*
G75*
G02*
X168190800Y-66910000I0J226200D01*
G01*
X168190800Y-66610000D01*
G75*
G02*
X168417000Y-66383800I226200J0D01*
G01*
G37*
G36*
G01*
X168417000Y-67383800D02*
X169667000Y-67383800D01*
G75*
G02*
X169893200Y-67610000I0J-226200D01*
G01*
X169893200Y-67910000D01*
G75*
G02*
X169667000Y-68136200I-226200J0D01*
G01*
X168417000Y-68136200D01*
G75*
G02*
X168190800Y-67910000I0J226200D01*
G01*
X168190800Y-67610000D01*
G75*
G02*
X168417000Y-67383800I226200J0D01*
G01*
G37*
G36*
G01*
X168417000Y-68383800D02*
X169667000Y-68383800D01*
G75*
G02*
X169893200Y-68610000I0J-226200D01*
G01*
X169893200Y-68910000D01*
G75*
G02*
X169667000Y-69136200I-226200J0D01*
G01*
X168417000Y-69136200D01*
G75*
G02*
X168190800Y-68910000I0J226200D01*
G01*
X168190800Y-68610000D01*
G75*
G02*
X168417000Y-68383800I226200J0D01*
G01*
G37*
G36*
G01*
X168417000Y-69383800D02*
X169667000Y-69383800D01*
G75*
G02*
X169893200Y-69610000I0J-226200D01*
G01*
X169893200Y-69910000D01*
G75*
G02*
X169667000Y-70136200I-226200J0D01*
G01*
X168417000Y-70136200D01*
G75*
G02*
X168190800Y-69910000I0J226200D01*
G01*
X168190800Y-69610000D01*
G75*
G02*
X168417000Y-69383800I226200J0D01*
G01*
G37*
G36*
G01*
X164517000Y-70383800D02*
X165817000Y-70383800D01*
G75*
G02*
X166143200Y-70710000I0J-326200D01*
G01*
X166143200Y-71410000D01*
G75*
G02*
X165817000Y-71736200I-326200J0D01*
G01*
X164517000Y-71736200D01*
G75*
G02*
X164190800Y-71410000I0J326200D01*
G01*
X164190800Y-70710000D01*
G75*
G02*
X164517000Y-70383800I326200J0D01*
G01*
G37*
G36*
G01*
X164517000Y-64783800D02*
X165817000Y-64783800D01*
G75*
G02*
X166143200Y-65110000I0J-326200D01*
G01*
X166143200Y-65810000D01*
G75*
G02*
X165817000Y-66136200I-326200J0D01*
G01*
X164517000Y-66136200D01*
G75*
G02*
X164190800Y-65810000I0J326200D01*
G01*
X164190800Y-65110000D01*
G75*
G02*
X164517000Y-64783800I326200J0D01*
G01*
G37*
X119290000Y-80960000D03*
X135800000Y-67836666D03*
X163740000Y-94930000D03*
X148923333Y-55560000D03*
X176016666Y-55560000D03*
X133260000Y-69530000D03*
X120136667Y-83500000D03*
X135800000Y-69530000D03*
X148076666Y-53020000D03*
X176863333Y-83500000D03*
X163740000Y-68683333D03*
X135800000Y-41590000D03*
X107860000Y-66990000D03*
X121830000Y-108900000D03*
G36*
G01*
X168417000Y-38443800D02*
X169667000Y-38443800D01*
G75*
G02*
X169893200Y-38670000I0J-226200D01*
G01*
X169893200Y-38970000D01*
G75*
G02*
X169667000Y-39196200I-226200J0D01*
G01*
X168417000Y-39196200D01*
G75*
G02*
X168190800Y-38970000I0J226200D01*
G01*
X168190800Y-38670000D01*
G75*
G02*
X168417000Y-38443800I226200J0D01*
G01*
G37*
G36*
G01*
X168417000Y-39443800D02*
X169667000Y-39443800D01*
G75*
G02*
X169893200Y-39670000I0J-226200D01*
G01*
X169893200Y-39970000D01*
G75*
G02*
X169667000Y-40196200I-226200J0D01*
G01*
X168417000Y-40196200D01*
G75*
G02*
X168190800Y-39970000I0J226200D01*
G01*
X168190800Y-39670000D01*
G75*
G02*
X168417000Y-39443800I226200J0D01*
G01*
G37*
G36*
G01*
X168417000Y-40443800D02*
X169667000Y-40443800D01*
G75*
G02*
X169893200Y-40670000I0J-226200D01*
G01*
X169893200Y-40970000D01*
G75*
G02*
X169667000Y-41196200I-226200J0D01*
G01*
X168417000Y-41196200D01*
G75*
G02*
X168190800Y-40970000I0J226200D01*
G01*
X168190800Y-40670000D01*
G75*
G02*
X168417000Y-40443800I226200J0D01*
G01*
G37*
G36*
G01*
X168417000Y-41443800D02*
X169667000Y-41443800D01*
G75*
G02*
X169893200Y-41670000I0J-226200D01*
G01*
X169893200Y-41970000D01*
G75*
G02*
X169667000Y-42196200I-226200J0D01*
G01*
X168417000Y-42196200D01*
G75*
G02*
X168190800Y-41970000I0J226200D01*
G01*
X168190800Y-41670000D01*
G75*
G02*
X168417000Y-41443800I226200J0D01*
G01*
G37*
G36*
G01*
X164517000Y-42443800D02*
X165817000Y-42443800D01*
G75*
G02*
X166143200Y-42770000I0J-326200D01*
G01*
X166143200Y-43470000D01*
G75*
G02*
X165817000Y-43796200I-326200J0D01*
G01*
X164517000Y-43796200D01*
G75*
G02*
X164190800Y-43470000I0J326200D01*
G01*
X164190800Y-42770000D01*
G75*
G02*
X164517000Y-42443800I326200J0D01*
G01*
G37*
G36*
G01*
X164517000Y-36843800D02*
X165817000Y-36843800D01*
G75*
G02*
X166143200Y-37170000I0J-326200D01*
G01*
X166143200Y-37870000D01*
G75*
G02*
X165817000Y-38196200I-326200J0D01*
G01*
X164517000Y-38196200D01*
G75*
G02*
X164190800Y-37870000I0J326200D01*
G01*
X164190800Y-37170000D01*
G75*
G02*
X164517000Y-36843800I326200J0D01*
G01*
G37*
X121830000Y-55560000D03*
X148076666Y-83500000D03*
X121830000Y-27620000D03*
X175170000Y-80960000D03*
X119290000Y-27620000D03*
X119290000Y-83500000D03*
X107860000Y-69530000D03*
X135800000Y-68683333D03*
X189140000Y-97470000D03*
X148923333Y-27620000D03*
X147230000Y-27620000D03*
X107860000Y-39896667D03*
X135800000Y-95776666D03*
X135800000Y-97470000D03*
X133260000Y-95776666D03*
X161200000Y-39896667D03*
X189140000Y-39896667D03*
X161200000Y-96623333D03*
X133260000Y-94930000D03*
X149770000Y-53020000D03*
X148923333Y-83500000D03*
X189140000Y-66990000D03*
X147230000Y-80960000D03*
X147230000Y-53020000D03*
X189140000Y-67836666D03*
X177710000Y-80960000D03*
X107860000Y-39050000D03*
X163740000Y-40743333D03*
G36*
G01*
X140477000Y-38443800D02*
X141727000Y-38443800D01*
G75*
G02*
X141953200Y-38670000I0J-226200D01*
G01*
X141953200Y-38970000D01*
G75*
G02*
X141727000Y-39196200I-226200J0D01*
G01*
X140477000Y-39196200D01*
G75*
G02*
X140250800Y-38970000I0J226200D01*
G01*
X140250800Y-38670000D01*
G75*
G02*
X140477000Y-38443800I226200J0D01*
G01*
G37*
G36*
G01*
X140477000Y-39443800D02*
X141727000Y-39443800D01*
G75*
G02*
X141953200Y-39670000I0J-226200D01*
G01*
X141953200Y-39970000D01*
G75*
G02*
X141727000Y-40196200I-226200J0D01*
G01*
X140477000Y-40196200D01*
G75*
G02*
X140250800Y-39970000I0J226200D01*
G01*
X140250800Y-39670000D01*
G75*
G02*
X140477000Y-39443800I226200J0D01*
G01*
G37*
G36*
G01*
X140477000Y-40443800D02*
X141727000Y-40443800D01*
G75*
G02*
X141953200Y-40670000I0J-226200D01*
G01*
X141953200Y-40970000D01*
G75*
G02*
X141727000Y-41196200I-226200J0D01*
G01*
X140477000Y-41196200D01*
G75*
G02*
X140250800Y-40970000I0J226200D01*
G01*
X140250800Y-40670000D01*
G75*
G02*
X140477000Y-40443800I226200J0D01*
G01*
G37*
G36*
G01*
X140477000Y-41443800D02*
X141727000Y-41443800D01*
G75*
G02*
X141953200Y-41670000I0J-226200D01*
G01*
X141953200Y-41970000D01*
G75*
G02*
X141727000Y-42196200I-226200J0D01*
G01*
X140477000Y-42196200D01*
G75*
G02*
X140250800Y-41970000I0J226200D01*
G01*
X140250800Y-41670000D01*
G75*
G02*
X140477000Y-41443800I226200J0D01*
G01*
G37*
G36*
G01*
X136577000Y-36843800D02*
X137877000Y-36843800D01*
G75*
G02*
X138203200Y-37170000I0J-326200D01*
G01*
X138203200Y-37870000D01*
G75*
G02*
X137877000Y-38196200I-326200J0D01*
G01*
X136577000Y-38196200D01*
G75*
G02*
X136250800Y-37870000I0J326200D01*
G01*
X136250800Y-37170000D01*
G75*
G02*
X136577000Y-36843800I326200J0D01*
G01*
G37*
G36*
G01*
X136577000Y-42443800D02*
X137877000Y-42443800D01*
G75*
G02*
X138203200Y-42770000I0J-326200D01*
G01*
X138203200Y-43470000D01*
G75*
G02*
X137877000Y-43796200I-326200J0D01*
G01*
X136577000Y-43796200D01*
G75*
G02*
X136250800Y-43470000I0J326200D01*
G01*
X136250800Y-42770000D01*
G75*
G02*
X136577000Y-42443800I326200J0D01*
G01*
G37*
X177710000Y-83500000D03*
X135800000Y-40743333D03*
X135800000Y-39896667D03*
X120983333Y-53020000D03*
X120136667Y-53020000D03*
X163740000Y-95776666D03*
X189140000Y-94930000D03*
X133260000Y-97470000D03*
X161200000Y-94930000D03*
X176016666Y-80960000D03*
X163740000Y-66990000D03*
X120983333Y-27620000D03*
M02*
