G04 #@! TF.GenerationSoftware,KiCad,Pcbnew,6.0.2+dfsg-1*
G04 #@! TF.CreationDate,2022-10-15T22:16:15-06:00*
G04 #@! TF.ProjectId,ckt-dingdong-spk-array,636b742d-6469-46e6-9764-6f6e672d7370,rev?*
G04 #@! TF.SameCoordinates,Original*
G04 #@! TF.FileFunction,Paste,Top*
G04 #@! TF.FilePolarity,Positive*
%FSLAX46Y46*%
G04 Gerber Fmt 4.6, Leading zero omitted, Abs format (unit mm)*
G04 Created by KiCad (PCBNEW 6.0.2+dfsg-1) date 2022-10-15 22:16:15*
%MOMM*%
%LPD*%
G01*
G04 APERTURE LIST*
G04 APERTURE END LIST*
G36*
G01*
X28796000Y-33820000D02*
X31796000Y-33820000D01*
G75*
G02*
X32046000Y-34070000I0J-250000D01*
G01*
X32046000Y-34570000D01*
G75*
G02*
X31796000Y-34820000I-250000J0D01*
G01*
X28796000Y-34820000D01*
G75*
G02*
X28546000Y-34570000I0J250000D01*
G01*
X28546000Y-34070000D01*
G75*
G02*
X28796000Y-33820000I250000J0D01*
G01*
G37*
G36*
G01*
X28796000Y-35820000D02*
X31796000Y-35820000D01*
G75*
G02*
X32046000Y-36070000I0J-250000D01*
G01*
X32046000Y-36570000D01*
G75*
G02*
X31796000Y-36820000I-250000J0D01*
G01*
X28796000Y-36820000D01*
G75*
G02*
X28546000Y-36570000I0J250000D01*
G01*
X28546000Y-36070000D01*
G75*
G02*
X28796000Y-35820000I250000J0D01*
G01*
G37*
G36*
G01*
X23096001Y-31220000D02*
X25995999Y-31220000D01*
G75*
G02*
X26246000Y-31470001I0J-250001D01*
G01*
X26246000Y-32469999D01*
G75*
G02*
X25995999Y-32720000I-250001J0D01*
G01*
X23096001Y-32720000D01*
G75*
G02*
X22846000Y-32469999I0J250001D01*
G01*
X22846000Y-31470001D01*
G75*
G02*
X23096001Y-31220000I250001J0D01*
G01*
G37*
G36*
G01*
X23096001Y-37920000D02*
X25995999Y-37920000D01*
G75*
G02*
X26246000Y-38170001I0J-250001D01*
G01*
X26246000Y-39169999D01*
G75*
G02*
X25995999Y-39420000I-250001J0D01*
G01*
X23096001Y-39420000D01*
G75*
G02*
X22846000Y-39169999I0J250001D01*
G01*
X22846000Y-38170001D01*
G75*
G02*
X23096001Y-37920000I250001J0D01*
G01*
G37*
G36*
G01*
X28796000Y-61760000D02*
X31796000Y-61760000D01*
G75*
G02*
X32046000Y-62010000I0J-250000D01*
G01*
X32046000Y-62510000D01*
G75*
G02*
X31796000Y-62760000I-250000J0D01*
G01*
X28796000Y-62760000D01*
G75*
G02*
X28546000Y-62510000I0J250000D01*
G01*
X28546000Y-62010000D01*
G75*
G02*
X28796000Y-61760000I250000J0D01*
G01*
G37*
G36*
G01*
X28796000Y-63760000D02*
X31796000Y-63760000D01*
G75*
G02*
X32046000Y-64010000I0J-250000D01*
G01*
X32046000Y-64510000D01*
G75*
G02*
X31796000Y-64760000I-250000J0D01*
G01*
X28796000Y-64760000D01*
G75*
G02*
X28546000Y-64510000I0J250000D01*
G01*
X28546000Y-64010000D01*
G75*
G02*
X28796000Y-63760000I250000J0D01*
G01*
G37*
G36*
G01*
X23096001Y-59160000D02*
X25995999Y-59160000D01*
G75*
G02*
X26246000Y-59410001I0J-250001D01*
G01*
X26246000Y-60409999D01*
G75*
G02*
X25995999Y-60660000I-250001J0D01*
G01*
X23096001Y-60660000D01*
G75*
G02*
X22846000Y-60409999I0J250001D01*
G01*
X22846000Y-59410001D01*
G75*
G02*
X23096001Y-59160000I250001J0D01*
G01*
G37*
G36*
G01*
X23096001Y-65860000D02*
X25995999Y-65860000D01*
G75*
G02*
X26246000Y-66110001I0J-250001D01*
G01*
X26246000Y-67109999D01*
G75*
G02*
X25995999Y-67360000I-250001J0D01*
G01*
X23096001Y-67360000D01*
G75*
G02*
X22846000Y-67109999I0J250001D01*
G01*
X22846000Y-66110001D01*
G75*
G02*
X23096001Y-65860000I250001J0D01*
G01*
G37*
G36*
G01*
X28796000Y-145580000D02*
X31796000Y-145580000D01*
G75*
G02*
X32046000Y-145830000I0J-250000D01*
G01*
X32046000Y-146330000D01*
G75*
G02*
X31796000Y-146580000I-250000J0D01*
G01*
X28796000Y-146580000D01*
G75*
G02*
X28546000Y-146330000I0J250000D01*
G01*
X28546000Y-145830000D01*
G75*
G02*
X28796000Y-145580000I250000J0D01*
G01*
G37*
G36*
G01*
X28796000Y-147580000D02*
X31796000Y-147580000D01*
G75*
G02*
X32046000Y-147830000I0J-250000D01*
G01*
X32046000Y-148330000D01*
G75*
G02*
X31796000Y-148580000I-250000J0D01*
G01*
X28796000Y-148580000D01*
G75*
G02*
X28546000Y-148330000I0J250000D01*
G01*
X28546000Y-147830000D01*
G75*
G02*
X28796000Y-147580000I250000J0D01*
G01*
G37*
G36*
G01*
X23096001Y-149680000D02*
X25995999Y-149680000D01*
G75*
G02*
X26246000Y-149930001I0J-250001D01*
G01*
X26246000Y-150929999D01*
G75*
G02*
X25995999Y-151180000I-250001J0D01*
G01*
X23096001Y-151180000D01*
G75*
G02*
X22846000Y-150929999I0J250001D01*
G01*
X22846000Y-149930001D01*
G75*
G02*
X23096001Y-149680000I250001J0D01*
G01*
G37*
G36*
G01*
X23096001Y-142980000D02*
X25995999Y-142980000D01*
G75*
G02*
X26246000Y-143230001I0J-250001D01*
G01*
X26246000Y-144229999D01*
G75*
G02*
X25995999Y-144480000I-250001J0D01*
G01*
X23096001Y-144480000D01*
G75*
G02*
X22846000Y-144229999I0J250001D01*
G01*
X22846000Y-143230001D01*
G75*
G02*
X23096001Y-142980000I250001J0D01*
G01*
G37*
G36*
G01*
X28796000Y-117640000D02*
X31796000Y-117640000D01*
G75*
G02*
X32046000Y-117890000I0J-250000D01*
G01*
X32046000Y-118390000D01*
G75*
G02*
X31796000Y-118640000I-250000J0D01*
G01*
X28796000Y-118640000D01*
G75*
G02*
X28546000Y-118390000I0J250000D01*
G01*
X28546000Y-117890000D01*
G75*
G02*
X28796000Y-117640000I250000J0D01*
G01*
G37*
G36*
G01*
X28796000Y-119640000D02*
X31796000Y-119640000D01*
G75*
G02*
X32046000Y-119890000I0J-250000D01*
G01*
X32046000Y-120390000D01*
G75*
G02*
X31796000Y-120640000I-250000J0D01*
G01*
X28796000Y-120640000D01*
G75*
G02*
X28546000Y-120390000I0J250000D01*
G01*
X28546000Y-119890000D01*
G75*
G02*
X28796000Y-119640000I250000J0D01*
G01*
G37*
G36*
G01*
X23096001Y-121740000D02*
X25995999Y-121740000D01*
G75*
G02*
X26246000Y-121990001I0J-250001D01*
G01*
X26246000Y-122989999D01*
G75*
G02*
X25995999Y-123240000I-250001J0D01*
G01*
X23096001Y-123240000D01*
G75*
G02*
X22846000Y-122989999I0J250001D01*
G01*
X22846000Y-121990001D01*
G75*
G02*
X23096001Y-121740000I250001J0D01*
G01*
G37*
G36*
G01*
X23096001Y-115040000D02*
X25995999Y-115040000D01*
G75*
G02*
X26246000Y-115290001I0J-250001D01*
G01*
X26246000Y-116289999D01*
G75*
G02*
X25995999Y-116540000I-250001J0D01*
G01*
X23096001Y-116540000D01*
G75*
G02*
X22846000Y-116289999I0J250001D01*
G01*
X22846000Y-115290001D01*
G75*
G02*
X23096001Y-115040000I250001J0D01*
G01*
G37*
G36*
G01*
X28796000Y-173520000D02*
X31796000Y-173520000D01*
G75*
G02*
X32046000Y-173770000I0J-250000D01*
G01*
X32046000Y-174270000D01*
G75*
G02*
X31796000Y-174520000I-250000J0D01*
G01*
X28796000Y-174520000D01*
G75*
G02*
X28546000Y-174270000I0J250000D01*
G01*
X28546000Y-173770000D01*
G75*
G02*
X28796000Y-173520000I250000J0D01*
G01*
G37*
G36*
G01*
X28796000Y-175520000D02*
X31796000Y-175520000D01*
G75*
G02*
X32046000Y-175770000I0J-250000D01*
G01*
X32046000Y-176270000D01*
G75*
G02*
X31796000Y-176520000I-250000J0D01*
G01*
X28796000Y-176520000D01*
G75*
G02*
X28546000Y-176270000I0J250000D01*
G01*
X28546000Y-175770000D01*
G75*
G02*
X28796000Y-175520000I250000J0D01*
G01*
G37*
G36*
G01*
X23096001Y-170920000D02*
X25995999Y-170920000D01*
G75*
G02*
X26246000Y-171170001I0J-250001D01*
G01*
X26246000Y-172169999D01*
G75*
G02*
X25995999Y-172420000I-250001J0D01*
G01*
X23096001Y-172420000D01*
G75*
G02*
X22846000Y-172169999I0J250001D01*
G01*
X22846000Y-171170001D01*
G75*
G02*
X23096001Y-170920000I250001J0D01*
G01*
G37*
G36*
G01*
X23096001Y-177620000D02*
X25995999Y-177620000D01*
G75*
G02*
X26246000Y-177870001I0J-250001D01*
G01*
X26246000Y-178869999D01*
G75*
G02*
X25995999Y-179120000I-250001J0D01*
G01*
X23096001Y-179120000D01*
G75*
G02*
X22846000Y-178869999I0J250001D01*
G01*
X22846000Y-177870001D01*
G75*
G02*
X23096001Y-177620000I250001J0D01*
G01*
G37*
G36*
G01*
X28796000Y-89700000D02*
X31796000Y-89700000D01*
G75*
G02*
X32046000Y-89950000I0J-250000D01*
G01*
X32046000Y-90450000D01*
G75*
G02*
X31796000Y-90700000I-250000J0D01*
G01*
X28796000Y-90700000D01*
G75*
G02*
X28546000Y-90450000I0J250000D01*
G01*
X28546000Y-89950000D01*
G75*
G02*
X28796000Y-89700000I250000J0D01*
G01*
G37*
G36*
G01*
X28796000Y-91700000D02*
X31796000Y-91700000D01*
G75*
G02*
X32046000Y-91950000I0J-250000D01*
G01*
X32046000Y-92450000D01*
G75*
G02*
X31796000Y-92700000I-250000J0D01*
G01*
X28796000Y-92700000D01*
G75*
G02*
X28546000Y-92450000I0J250000D01*
G01*
X28546000Y-91950000D01*
G75*
G02*
X28796000Y-91700000I250000J0D01*
G01*
G37*
G36*
G01*
X23096001Y-93800000D02*
X25995999Y-93800000D01*
G75*
G02*
X26246000Y-94050001I0J-250001D01*
G01*
X26246000Y-95049999D01*
G75*
G02*
X25995999Y-95300000I-250001J0D01*
G01*
X23096001Y-95300000D01*
G75*
G02*
X22846000Y-95049999I0J250001D01*
G01*
X22846000Y-94050001D01*
G75*
G02*
X23096001Y-93800000I250001J0D01*
G01*
G37*
G36*
G01*
X23096001Y-87100000D02*
X25995999Y-87100000D01*
G75*
G02*
X26246000Y-87350001I0J-250001D01*
G01*
X26246000Y-88349999D01*
G75*
G02*
X25995999Y-88600000I-250001J0D01*
G01*
X23096001Y-88600000D01*
G75*
G02*
X22846000Y-88349999I0J250001D01*
G01*
X22846000Y-87350001D01*
G75*
G02*
X23096001Y-87100000I250001J0D01*
G01*
G37*
M02*
