G04 #@! TF.GenerationSoftware,KiCad,Pcbnew,6.0.2+dfsg-1*
G04 #@! TF.CreationDate,2022-10-15T22:16:15-06:00*
G04 #@! TF.ProjectId,ckt-dingdong-spk-array,636b742d-6469-46e6-9764-6f6e672d7370,rev?*
G04 #@! TF.SameCoordinates,Original*
G04 #@! TF.FileFunction,Legend,Bot*
G04 #@! TF.FilePolarity,Positive*
%FSLAX46Y46*%
G04 Gerber Fmt 4.6, Leading zero omitted, Abs format (unit mm)*
G04 Created by KiCad (PCBNEW 6.0.2+dfsg-1) date 2022-10-15 22:16:15*
%MOMM*%
%LPD*%
G01*
G04 APERTURE LIST*
%ADD10C,0.150000*%
%ADD11C,0.120000*%
G04 APERTURE END LIST*
D10*
X37081904Y-60624761D02*
X36939047Y-60672380D01*
X36700952Y-60672380D01*
X36605714Y-60624761D01*
X36558095Y-60577142D01*
X36510476Y-60481904D01*
X36510476Y-60386666D01*
X36558095Y-60291428D01*
X36605714Y-60243809D01*
X36700952Y-60196190D01*
X36891428Y-60148571D01*
X36986666Y-60100952D01*
X37034285Y-60053333D01*
X37081904Y-59958095D01*
X37081904Y-59862857D01*
X37034285Y-59767619D01*
X36986666Y-59720000D01*
X36891428Y-59672380D01*
X36653333Y-59672380D01*
X36510476Y-59720000D01*
X36081904Y-60672380D02*
X36081904Y-59672380D01*
X35700952Y-59672380D01*
X35605714Y-59720000D01*
X35558095Y-59767619D01*
X35510476Y-59862857D01*
X35510476Y-60005714D01*
X35558095Y-60100952D01*
X35605714Y-60148571D01*
X35700952Y-60196190D01*
X36081904Y-60196190D01*
X35081904Y-60672380D02*
X35081904Y-59672380D01*
X34510476Y-60672380D02*
X34939047Y-60100952D01*
X34510476Y-59672380D02*
X35081904Y-60243809D01*
X33558095Y-60672380D02*
X34129523Y-60672380D01*
X33843809Y-60672380D02*
X33843809Y-59672380D01*
X33939047Y-59815238D01*
X34034285Y-59910476D01*
X34129523Y-59958095D01*
X37081904Y-116504761D02*
X36939047Y-116552380D01*
X36700952Y-116552380D01*
X36605714Y-116504761D01*
X36558095Y-116457142D01*
X36510476Y-116361904D01*
X36510476Y-116266666D01*
X36558095Y-116171428D01*
X36605714Y-116123809D01*
X36700952Y-116076190D01*
X36891428Y-116028571D01*
X36986666Y-115980952D01*
X37034285Y-115933333D01*
X37081904Y-115838095D01*
X37081904Y-115742857D01*
X37034285Y-115647619D01*
X36986666Y-115600000D01*
X36891428Y-115552380D01*
X36653333Y-115552380D01*
X36510476Y-115600000D01*
X36081904Y-116552380D02*
X36081904Y-115552380D01*
X35700952Y-115552380D01*
X35605714Y-115600000D01*
X35558095Y-115647619D01*
X35510476Y-115742857D01*
X35510476Y-115885714D01*
X35558095Y-115980952D01*
X35605714Y-116028571D01*
X35700952Y-116076190D01*
X36081904Y-116076190D01*
X35081904Y-116552380D02*
X35081904Y-115552380D01*
X34510476Y-116552380D02*
X34939047Y-115980952D01*
X34510476Y-115552380D02*
X35081904Y-116123809D01*
X33558095Y-116552380D02*
X34129523Y-116552380D01*
X33843809Y-116552380D02*
X33843809Y-115552380D01*
X33939047Y-115695238D01*
X34034285Y-115790476D01*
X34129523Y-115838095D01*
X37081904Y-172384761D02*
X36939047Y-172432380D01*
X36700952Y-172432380D01*
X36605714Y-172384761D01*
X36558095Y-172337142D01*
X36510476Y-172241904D01*
X36510476Y-172146666D01*
X36558095Y-172051428D01*
X36605714Y-172003809D01*
X36700952Y-171956190D01*
X36891428Y-171908571D01*
X36986666Y-171860952D01*
X37034285Y-171813333D01*
X37081904Y-171718095D01*
X37081904Y-171622857D01*
X37034285Y-171527619D01*
X36986666Y-171480000D01*
X36891428Y-171432380D01*
X36653333Y-171432380D01*
X36510476Y-171480000D01*
X36081904Y-172432380D02*
X36081904Y-171432380D01*
X35700952Y-171432380D01*
X35605714Y-171480000D01*
X35558095Y-171527619D01*
X35510476Y-171622857D01*
X35510476Y-171765714D01*
X35558095Y-171860952D01*
X35605714Y-171908571D01*
X35700952Y-171956190D01*
X36081904Y-171956190D01*
X35081904Y-172432380D02*
X35081904Y-171432380D01*
X34510476Y-172432380D02*
X34939047Y-171860952D01*
X34510476Y-171432380D02*
X35081904Y-172003809D01*
X33558095Y-172432380D02*
X34129523Y-172432380D01*
X33843809Y-172432380D02*
X33843809Y-171432380D01*
X33939047Y-171575238D01*
X34034285Y-171670476D01*
X34129523Y-171718095D01*
X37081904Y-32684761D02*
X36939047Y-32732380D01*
X36700952Y-32732380D01*
X36605714Y-32684761D01*
X36558095Y-32637142D01*
X36510476Y-32541904D01*
X36510476Y-32446666D01*
X36558095Y-32351428D01*
X36605714Y-32303809D01*
X36700952Y-32256190D01*
X36891428Y-32208571D01*
X36986666Y-32160952D01*
X37034285Y-32113333D01*
X37081904Y-32018095D01*
X37081904Y-31922857D01*
X37034285Y-31827619D01*
X36986666Y-31780000D01*
X36891428Y-31732380D01*
X36653333Y-31732380D01*
X36510476Y-31780000D01*
X36081904Y-32732380D02*
X36081904Y-31732380D01*
X35700952Y-31732380D01*
X35605714Y-31780000D01*
X35558095Y-31827619D01*
X35510476Y-31922857D01*
X35510476Y-32065714D01*
X35558095Y-32160952D01*
X35605714Y-32208571D01*
X35700952Y-32256190D01*
X36081904Y-32256190D01*
X35081904Y-32732380D02*
X35081904Y-31732380D01*
X34510476Y-32732380D02*
X34939047Y-32160952D01*
X34510476Y-31732380D02*
X35081904Y-32303809D01*
X33558095Y-32732380D02*
X34129523Y-32732380D01*
X33843809Y-32732380D02*
X33843809Y-31732380D01*
X33939047Y-31875238D01*
X34034285Y-31970476D01*
X34129523Y-32018095D01*
X37081904Y-144444761D02*
X36939047Y-144492380D01*
X36700952Y-144492380D01*
X36605714Y-144444761D01*
X36558095Y-144397142D01*
X36510476Y-144301904D01*
X36510476Y-144206666D01*
X36558095Y-144111428D01*
X36605714Y-144063809D01*
X36700952Y-144016190D01*
X36891428Y-143968571D01*
X36986666Y-143920952D01*
X37034285Y-143873333D01*
X37081904Y-143778095D01*
X37081904Y-143682857D01*
X37034285Y-143587619D01*
X36986666Y-143540000D01*
X36891428Y-143492380D01*
X36653333Y-143492380D01*
X36510476Y-143540000D01*
X36081904Y-144492380D02*
X36081904Y-143492380D01*
X35700952Y-143492380D01*
X35605714Y-143540000D01*
X35558095Y-143587619D01*
X35510476Y-143682857D01*
X35510476Y-143825714D01*
X35558095Y-143920952D01*
X35605714Y-143968571D01*
X35700952Y-144016190D01*
X36081904Y-144016190D01*
X35081904Y-144492380D02*
X35081904Y-143492380D01*
X34510476Y-144492380D02*
X34939047Y-143920952D01*
X34510476Y-143492380D02*
X35081904Y-144063809D01*
X33558095Y-144492380D02*
X34129523Y-144492380D01*
X33843809Y-144492380D02*
X33843809Y-143492380D01*
X33939047Y-143635238D01*
X34034285Y-143730476D01*
X34129523Y-143778095D01*
X37081904Y-88564761D02*
X36939047Y-88612380D01*
X36700952Y-88612380D01*
X36605714Y-88564761D01*
X36558095Y-88517142D01*
X36510476Y-88421904D01*
X36510476Y-88326666D01*
X36558095Y-88231428D01*
X36605714Y-88183809D01*
X36700952Y-88136190D01*
X36891428Y-88088571D01*
X36986666Y-88040952D01*
X37034285Y-87993333D01*
X37081904Y-87898095D01*
X37081904Y-87802857D01*
X37034285Y-87707619D01*
X36986666Y-87660000D01*
X36891428Y-87612380D01*
X36653333Y-87612380D01*
X36510476Y-87660000D01*
X36081904Y-88612380D02*
X36081904Y-87612380D01*
X35700952Y-87612380D01*
X35605714Y-87660000D01*
X35558095Y-87707619D01*
X35510476Y-87802857D01*
X35510476Y-87945714D01*
X35558095Y-88040952D01*
X35605714Y-88088571D01*
X35700952Y-88136190D01*
X36081904Y-88136190D01*
X35081904Y-88612380D02*
X35081904Y-87612380D01*
X34510476Y-88612380D02*
X34939047Y-88040952D01*
X34510476Y-87612380D02*
X35081904Y-88183809D01*
X33558095Y-88612380D02*
X34129523Y-88612380D01*
X33843809Y-88612380D02*
X33843809Y-87612380D01*
X33939047Y-87755238D01*
X34034285Y-87850476D01*
X34129523Y-87898095D01*
D11*
X26320000Y-67220000D02*
X44320000Y-67220000D01*
X44320000Y-67220000D02*
X44320000Y-57220000D01*
X41320000Y-54220000D02*
X29320000Y-54220000D01*
X26320000Y-57220000D02*
X26320000Y-67220000D01*
X41320000Y-110100000D02*
X29320000Y-110100000D01*
X44320000Y-123100000D02*
X44320000Y-113100000D01*
X26320000Y-123100000D02*
X44320000Y-123100000D01*
X26320000Y-113100000D02*
X26320000Y-123100000D01*
X41320000Y-165980000D02*
X29320000Y-165980000D01*
X26320000Y-168980000D02*
X26320000Y-178980000D01*
X44320000Y-178980000D02*
X44320000Y-168980000D01*
X26320000Y-178980000D02*
X44320000Y-178980000D01*
X26320000Y-29280000D02*
X26320000Y-39280000D01*
X41320000Y-26280000D02*
X29320000Y-26280000D01*
X26320000Y-39280000D02*
X44320000Y-39280000D01*
X44320000Y-39280000D02*
X44320000Y-29280000D01*
X26320000Y-151040000D02*
X44320000Y-151040000D01*
X41320000Y-138040000D02*
X29320000Y-138040000D01*
X44320000Y-151040000D02*
X44320000Y-141040000D01*
X26320000Y-141040000D02*
X26320000Y-151040000D01*
X44320000Y-95160000D02*
X44320000Y-85160000D01*
X26320000Y-95160000D02*
X44320000Y-95160000D01*
X41320000Y-82160000D02*
X29320000Y-82160000D01*
X26320000Y-85160000D02*
X26320000Y-95160000D01*
M02*
