G04 #@! TF.GenerationSoftware,KiCad,Pcbnew,6.0.2+dfsg-1*
G04 #@! TF.CreationDate,2022-10-15T22:16:15-06:00*
G04 #@! TF.ProjectId,ckt-dingdong-spk-array,636b742d-6469-46e6-9764-6f6e672d7370,rev?*
G04 #@! TF.SameCoordinates,Original*
G04 #@! TF.FileFunction,Profile,NP*
%FSLAX46Y46*%
G04 Gerber Fmt 4.6, Leading zero omitted, Abs format (unit mm)*
G04 Created by KiCad (PCBNEW 6.0.2+dfsg-1) date 2022-10-15 22:16:15*
%MOMM*%
%LPD*%
G01*
G04 APERTURE LIST*
G04 #@! TA.AperFunction,Profile*
%ADD10C,0.100000*%
G04 #@! TD*
G04 APERTURE END LIST*
D10*
X20228781Y-37256041D02*
X20259264Y-37202232D01*
X36614213Y-49545813D02*
X36603640Y-49484879D01*
X20406403Y-92883837D02*
X20449047Y-92839047D01*
X32789877Y-187720000D02*
X32851825Y-187721520D01*
X33870735Y-188332232D02*
X33901218Y-188386041D01*
X36876009Y-76420666D02*
X36916403Y-76373837D01*
X21421825Y-64531520D02*
X21483501Y-64536070D01*
X36614213Y-49034186D02*
X36627763Y-48973845D01*
X22206162Y-64856403D02*
X22250952Y-64899047D01*
X48012057Y-103899623D02*
X48012533Y-103899503D01*
X48855519Y-92543657D02*
X48914242Y-92524258D01*
X33802039Y-161810579D02*
X33763990Y-161859333D01*
X49218174Y-173748479D02*
X49156498Y-173743929D01*
X48020000Y-159764413D02*
X48020000Y-149610122D01*
X48014795Y-106441432D02*
X48014362Y-106441201D01*
X48026070Y-149486498D02*
X48033640Y-149425120D01*
X50233596Y-189846162D02*
X50190952Y-189890952D01*
X48346403Y-117456162D02*
X48306009Y-117409333D01*
X33328718Y-76080976D02*
X33383958Y-76108781D01*
X33540579Y-20327960D02*
X33589333Y-20366009D01*
X22620281Y-134388424D02*
X22620209Y-134388909D01*
X33383958Y-106291218D02*
X33328718Y-106319023D01*
X22622250Y-75956018D02*
X22622561Y-75956397D01*
X48017108Y-75956761D02*
X48017438Y-75956397D01*
X20093640Y-60914879D02*
X20086070Y-60853501D01*
X49665757Y-61935741D02*
X49606154Y-61952236D01*
X20589420Y-145562039D02*
X20540666Y-145523990D01*
X37099420Y-190012039D02*
X37050666Y-189973990D01*
X48017108Y-50563238D02*
X48016761Y-50562891D01*
X48741281Y-173629023D02*
X48686041Y-173601218D01*
X49361825Y-64531520D02*
X49423501Y-64536070D01*
X20117763Y-189306154D02*
X20104213Y-189245813D01*
X48093657Y-89094480D02*
X48074258Y-89035757D01*
X48579983Y-117657649D02*
X48529420Y-117622039D01*
X49838718Y-20200976D02*
X49893958Y-20228781D01*
X36603640Y-49484879D02*
X36596070Y-49423501D01*
X37604186Y-106415786D02*
X37543845Y-106402236D01*
X22621685Y-75955216D02*
X22621957Y-75955624D01*
X50464085Y-37367820D02*
X50486342Y-37425519D01*
X22621685Y-48015216D02*
X22621957Y-48015624D01*
X21340122Y-148350000D02*
X21359877Y-148350000D01*
X48019863Y-50569888D02*
X48019839Y-50569398D01*
X48026070Y-37726498D02*
X48033640Y-37665120D01*
X48010601Y-103899839D02*
X48011090Y-103899790D01*
X48019008Y-75953918D02*
X48019196Y-75953465D01*
X33802039Y-20589420D02*
X33837649Y-20639983D01*
X37604186Y-20104213D02*
X37665120Y-20093640D01*
X50347649Y-65089983D02*
X50380735Y-65142232D01*
X48013002Y-106440638D02*
X48012533Y-106440496D01*
X37149983Y-187932350D02*
X37202232Y-187899264D01*
X22635586Y-106440000D02*
X22635340Y-106440003D01*
X22620803Y-131833465D02*
X22620991Y-131833918D01*
X22110579Y-89682039D02*
X22060016Y-89717649D01*
X20080000Y-188999877D02*
X20080000Y-177550122D01*
X48018314Y-103895216D02*
X48018567Y-103894795D01*
X22621957Y-103895624D02*
X22622250Y-103896018D01*
X50486342Y-177125519D02*
X50505741Y-177184242D01*
X50347649Y-61430016D02*
X50312039Y-61480579D01*
X36738781Y-49893958D02*
X36710976Y-49838718D01*
X37604186Y-75984213D02*
X37665120Y-75973640D01*
X34012236Y-104853845D02*
X34025786Y-104914186D01*
X50411218Y-33383958D02*
X50380735Y-33437767D01*
X33272179Y-162224085D02*
X33214480Y-162246342D01*
X36769264Y-48632232D02*
X36802350Y-48579983D01*
X50146162Y-92796403D02*
X50190952Y-92839047D01*
X48010111Y-134380136D02*
X48004659Y-134380003D01*
X37003837Y-189933596D02*
X36959047Y-189890952D01*
X37604186Y-103924213D02*
X37665120Y-103913640D01*
X21340122Y-34050000D02*
X21278174Y-34048479D01*
X21725757Y-148404258D02*
X21784480Y-148423657D01*
X21953958Y-117721218D02*
X21898718Y-117749023D01*
X48020000Y-177550122D02*
X48021520Y-177488174D01*
X33995741Y-133485757D02*
X33976342Y-133544480D01*
X33540579Y-134132039D02*
X33490016Y-134167649D01*
X50312039Y-189750579D02*
X50273990Y-189799333D01*
X36644258Y-20974242D02*
X36663657Y-20915519D01*
X49606154Y-173712236D02*
X49545813Y-173725786D01*
X48013465Y-134380803D02*
X48013002Y-134380638D01*
X21605813Y-145785786D02*
X21544879Y-145796359D01*
X50347649Y-37149983D02*
X50380735Y-37202232D01*
X37367820Y-162224085D02*
X37311281Y-162199023D01*
X48018567Y-103894795D02*
X48018798Y-103894362D01*
X48579983Y-89717649D02*
X48529420Y-89682039D01*
X22627466Y-75959503D02*
X22627942Y-75959623D01*
X36603640Y-21544879D02*
X36596070Y-21483501D01*
X48797820Y-36685914D02*
X48855519Y-36663657D01*
X20080000Y-88669877D02*
X20080000Y-65790122D01*
X22623981Y-131837749D02*
X22624375Y-131838042D01*
X48018567Y-134385204D02*
X48018314Y-134384783D01*
X22620000Y-159764413D02*
X22620003Y-159764659D01*
X22624783Y-131838314D02*
X22625204Y-131838567D01*
X21421825Y-148351520D02*
X21483501Y-148356070D01*
X49361825Y-148351520D02*
X49423501Y-148356070D01*
X49034186Y-36614213D02*
X49095120Y-36603640D01*
X50546359Y-149425120D02*
X50553929Y-149486498D01*
X15006997Y-195339361D02*
X15007466Y-195339503D01*
X22620803Y-22626534D02*
X22620638Y-22626997D01*
X48004659Y-131839996D02*
X48010111Y-131839863D01*
X22621957Y-134384375D02*
X22621685Y-134384783D01*
X22613929Y-65666498D02*
X22618479Y-65728174D01*
X22621685Y-187715216D02*
X22621957Y-187715624D01*
X20175914Y-37367820D02*
X20200976Y-37311281D01*
X50273990Y-33589333D02*
X50233596Y-33636162D01*
X50553929Y-189123501D02*
X50546359Y-189184879D01*
X20449047Y-36959047D02*
X20493837Y-36916403D01*
X22623981Y-187717749D02*
X22624375Y-187718042D01*
X49423501Y-61983929D02*
X49361825Y-61988479D01*
X21216498Y-176296070D02*
X21278174Y-176291520D01*
X15007942Y-15000376D02*
X15007466Y-15000496D01*
X37850122Y-187720000D02*
X48004413Y-187720000D01*
X37850122Y-78500000D02*
X37788174Y-78498479D01*
X48011575Y-162320281D02*
X48011090Y-162320209D01*
X48168781Y-65196041D02*
X48199264Y-65142232D01*
X48019196Y-48013465D02*
X48019361Y-48013002D01*
X20086070Y-149486498D02*
X20093640Y-149425120D01*
X32851825Y-22618479D02*
X32789877Y-22620000D01*
X33272179Y-190164085D02*
X33214480Y-190186342D01*
X22206162Y-36916403D02*
X22250952Y-36959047D01*
X49606154Y-20117763D02*
X49665757Y-20134258D01*
X22627942Y-162320376D02*
X22627466Y-162320496D01*
X15000638Y-195333002D02*
X15000803Y-195333465D01*
X48019863Y-134389888D02*
X48019839Y-134389398D01*
X36802350Y-22060016D02*
X36769264Y-22007767D01*
X33096154Y-103937763D02*
X33155757Y-103954258D01*
X20589420Y-92717960D02*
X20639983Y-92682350D01*
X20080000Y-37850122D02*
X20081520Y-37788174D01*
X34050000Y-77220122D02*
X34050000Y-77239877D01*
X22620991Y-106446081D02*
X22620803Y-106446534D01*
X22007767Y-176469264D02*
X22060016Y-176502350D01*
X36738781Y-77833958D02*
X36710976Y-77778718D01*
X55634362Y-195338798D02*
X55634795Y-195338567D01*
X49280122Y-148350000D02*
X49299877Y-148350000D01*
X32913501Y-159786070D02*
X32974879Y-159793640D01*
X20746041Y-92618781D02*
X20801281Y-92590976D01*
X21544879Y-148363640D02*
X21605813Y-148374213D01*
X37726498Y-22613929D02*
X37665120Y-22606359D01*
X34036359Y-49095120D02*
X34043929Y-49156498D01*
X20228781Y-145143958D02*
X20200976Y-145088718D01*
X37543845Y-50522236D02*
X37484242Y-50505741D01*
X33437767Y-190080735D02*
X33383958Y-190111218D01*
X22440735Y-176902232D02*
X22471218Y-176956041D01*
X48018798Y-22625637D02*
X48018567Y-22625204D01*
X33837649Y-105880016D02*
X33802039Y-105930579D01*
X22625204Y-187718567D02*
X22625637Y-187718798D01*
X37202232Y-20259264D02*
X37256041Y-20228781D01*
X48018314Y-78504783D02*
X48018042Y-78504375D01*
X48017108Y-106443238D02*
X48016761Y-106442891D01*
X50535786Y-60975813D02*
X50522236Y-61036154D01*
X37484242Y-134325741D02*
X37425519Y-134306342D01*
X22635340Y-187719996D02*
X22635586Y-187720000D01*
X33328718Y-20200976D02*
X33383958Y-20228781D01*
X36614213Y-105425813D02*
X36603640Y-105364879D01*
X20692232Y-190080735D02*
X20639983Y-190047649D01*
X22620000Y-50575586D02*
X22620000Y-60729877D01*
X49545813Y-89905786D02*
X49484879Y-89916359D01*
X33214480Y-22546342D02*
X33155757Y-22565741D01*
X36590000Y-77239877D02*
X36590000Y-77220122D01*
X22582236Y-116916154D02*
X22565741Y-116975757D01*
X48140976Y-61268718D02*
X48115914Y-61212179D01*
X49218174Y-92471520D02*
X49280122Y-92470000D01*
X33837649Y-22060016D02*
X33802039Y-22110579D01*
X55624413Y-15000000D02*
X15015586Y-15000000D01*
X33680952Y-106070952D02*
X33636162Y-106113596D01*
X48021520Y-88731825D02*
X48020000Y-88669877D01*
X50558479Y-172551825D02*
X50553929Y-172613501D01*
X33096154Y-75997763D02*
X33155757Y-76014258D01*
X33214480Y-78426342D02*
X33155757Y-78445741D01*
X22524085Y-89152179D02*
X22499023Y-89208718D01*
X20153657Y-20915519D02*
X20175914Y-20857820D01*
X20104213Y-144795813D02*
X20093640Y-144734879D01*
X50553929Y-88793501D02*
X50546359Y-88854879D01*
X48199264Y-33437767D02*
X48168781Y-33383958D01*
X20259264Y-189647767D02*
X20228781Y-189593958D01*
X20104213Y-189245813D02*
X20093640Y-189184879D01*
X50439023Y-33328718D02*
X50411218Y-33383958D01*
X37003837Y-160106403D02*
X37050666Y-160066009D01*
X22620496Y-75952533D02*
X22620638Y-75953002D01*
X48019008Y-78506081D02*
X48018798Y-78505637D01*
X21155120Y-61976359D02*
X21094186Y-61965786D01*
X32913501Y-103906070D02*
X32974879Y-103913640D01*
X48013918Y-103899008D02*
X48014362Y-103898798D01*
X50233596Y-92883837D02*
X50273990Y-92930666D01*
X48019008Y-159773918D02*
X48019196Y-159773465D01*
X20366009Y-117409333D02*
X20327960Y-117360579D01*
X48017438Y-162323602D02*
X48017108Y-162323238D01*
X48529420Y-89682039D02*
X48480666Y-89643990D01*
X34036359Y-77424879D02*
X34025786Y-77485813D01*
X21666154Y-61952236D02*
X21605813Y-61965786D01*
X50050579Y-117622039D02*
X50000016Y-117657649D01*
X50000016Y-148562350D02*
X50050579Y-148597960D01*
X37484242Y-22565741D02*
X37425519Y-22546342D01*
X34048479Y-133038174D02*
X34050000Y-133100122D01*
X48579983Y-120622350D02*
X48632232Y-120589264D01*
X55631090Y-195339790D02*
X55631575Y-195339718D01*
X22627466Y-48019503D02*
X22627942Y-48019623D01*
X33995741Y-104794242D02*
X34012236Y-104853845D01*
X22622891Y-50563238D02*
X22622561Y-50563602D01*
X37484242Y-78445741D02*
X37425519Y-78426342D01*
X20093640Y-65605120D02*
X20104213Y-65544186D01*
X49484879Y-20093640D02*
X49545813Y-20104213D01*
X33272179Y-134284085D02*
X33214480Y-134306342D01*
X20080000Y-116609877D02*
X20080000Y-93730122D01*
X34025786Y-49034186D02*
X34036359Y-49095120D01*
X22629398Y-187719839D02*
X22629888Y-187719863D01*
X22626081Y-78500991D02*
X22625637Y-78501201D01*
X48232350Y-61430016D02*
X48199264Y-61377767D01*
X36591520Y-77158174D02*
X36596070Y-77096498D01*
X48019718Y-162328424D02*
X48019623Y-162327942D01*
X48232350Y-33490016D02*
X48199264Y-33437767D01*
X22440735Y-148962232D02*
X22471218Y-149016041D01*
X50439023Y-149071281D02*
X50464085Y-149127820D01*
X48026070Y-116733501D02*
X48021520Y-116671825D01*
X22629888Y-162320136D02*
X22629398Y-162320160D01*
X48168781Y-145143958D02*
X48140976Y-145088718D01*
X34043929Y-189123501D02*
X34036359Y-189184879D01*
X48010601Y-187719839D02*
X48011090Y-187719790D01*
X34048479Y-105241825D02*
X34043929Y-105303501D01*
X36769264Y-22007767D02*
X36738781Y-21953958D01*
X48016761Y-134382891D02*
X48016397Y-134382561D01*
X50411218Y-149016041D02*
X50439023Y-149071281D01*
X22624375Y-48018042D02*
X22624783Y-48018314D01*
X50439023Y-93191281D02*
X50464085Y-93247820D01*
X49484879Y-64543640D02*
X49545813Y-64554213D01*
X33723596Y-104313837D02*
X33763990Y-104360666D01*
X34012236Y-76913845D02*
X34025786Y-76974186D01*
X36591520Y-105241825D02*
X36590000Y-105179877D01*
X21842179Y-145714085D02*
X21784480Y-145736342D01*
X49034186Y-34025786D02*
X48973845Y-34012236D01*
X37665120Y-75973640D02*
X37726498Y-75966070D01*
X20086070Y-37726498D02*
X20093640Y-37665120D01*
X22407649Y-33490016D02*
X22372039Y-33540579D01*
X48019196Y-78506534D02*
X48019008Y-78506081D01*
X48026070Y-65666498D02*
X48033640Y-65605120D01*
X20134258Y-33155757D02*
X20117763Y-33096154D01*
X21421825Y-176291520D02*
X21483501Y-176296070D01*
X20746041Y-20228781D02*
X20801281Y-20200976D01*
X37850122Y-131840000D02*
X48004413Y-131840000D01*
X48026070Y-93606498D02*
X48033640Y-93545120D01*
X20493837Y-36916403D02*
X20540666Y-36876009D01*
X37099420Y-134132039D02*
X37050666Y-134093990D01*
X50505741Y-89035757D02*
X50486342Y-89094480D01*
X33954085Y-105662179D02*
X33929023Y-105718718D01*
X22626997Y-134380638D02*
X22626534Y-134380803D01*
X33540579Y-132087960D02*
X33589333Y-132126009D01*
X36876009Y-161859333D02*
X36837960Y-161810579D01*
X21033845Y-61952236D02*
X20974242Y-61935741D01*
X48016018Y-162322250D02*
X48015624Y-162321957D01*
X33328718Y-134259023D02*
X33272179Y-134284085D01*
X55633465Y-15000803D02*
X55633002Y-15000638D01*
X36685914Y-105662179D02*
X36663657Y-105604480D01*
X33929023Y-189538718D02*
X33901218Y-189593958D01*
X37425519Y-22546342D02*
X37367820Y-22524085D01*
X22333990Y-176750666D02*
X22372039Y-176799420D01*
X55637438Y-15003602D02*
X55637108Y-15003238D01*
X48973845Y-176327763D02*
X49034186Y-176314213D01*
X22622891Y-22623238D02*
X22622561Y-22623602D01*
X48973845Y-92507763D02*
X49034186Y-92494213D01*
X55630111Y-15000136D02*
X55624659Y-15000003D01*
X34036359Y-132915120D02*
X34043929Y-132976498D01*
X22626081Y-106440991D02*
X22625637Y-106441201D01*
X20175914Y-20857820D02*
X20200976Y-20801281D01*
X21784480Y-64603657D02*
X21842179Y-64625914D01*
X22007767Y-173570735D02*
X21953958Y-173601218D01*
X48529420Y-145562039D02*
X48480666Y-145523990D01*
X50535786Y-144795813D02*
X50522236Y-144856154D01*
X50558479Y-60791825D02*
X50553929Y-60853501D01*
X36596070Y-133243501D02*
X36591520Y-133181825D01*
X21278174Y-61988479D02*
X21216498Y-61983929D01*
X48579983Y-33837649D02*
X48529420Y-33802039D01*
X22565741Y-149244242D02*
X22582236Y-149303845D01*
X50380735Y-176902232D02*
X50411218Y-176956041D01*
X49606154Y-34012236D02*
X49545813Y-34025786D01*
X32913501Y-187726070D02*
X32974879Y-187733640D01*
X22007767Y-89750735D02*
X21953958Y-89781218D01*
X37149983Y-48232350D02*
X37202232Y-48199264D01*
X50439023Y-65251281D02*
X50464085Y-65307820D01*
X22620160Y-131830601D02*
X22620209Y-131831090D01*
X33383958Y-190111218D02*
X33328718Y-190139023D01*
X33437767Y-132019264D02*
X33490016Y-132052350D01*
X20746041Y-145661218D02*
X20692232Y-145630735D01*
X22622250Y-187716018D02*
X22622561Y-187716397D01*
X21725757Y-89875741D02*
X21666154Y-89892236D01*
X48115914Y-33272179D02*
X48093657Y-33214480D01*
X48019790Y-48011090D02*
X48019839Y-48010601D01*
X50000016Y-117657649D02*
X49947767Y-117690735D01*
X33589333Y-106153990D02*
X33540579Y-106192039D01*
X36916403Y-50146162D02*
X36876009Y-50099333D01*
X36837960Y-132349420D02*
X36876009Y-132300666D01*
X33328718Y-190139023D02*
X33272179Y-190164085D01*
X36802350Y-20639983D02*
X36837960Y-20589420D01*
X22613929Y-93606498D02*
X22618479Y-93668174D01*
X22620160Y-134389398D02*
X22620136Y-134389888D01*
X48433837Y-64856403D02*
X48480666Y-64816009D01*
X34036359Y-188795120D02*
X34043929Y-188856498D01*
X48074258Y-89035757D02*
X48057763Y-88976154D01*
X21544879Y-34036359D02*
X21483501Y-34043929D01*
X48033640Y-60914879D02*
X48026070Y-60853501D01*
X22629888Y-159779863D02*
X22635340Y-159779996D01*
X48346403Y-145396162D02*
X48306009Y-145349333D01*
X22333990Y-120870666D02*
X22372039Y-120919420D01*
X49838718Y-117749023D02*
X49782179Y-117774085D01*
X48019008Y-162326081D02*
X48018798Y-162325637D01*
X22582236Y-144856154D02*
X22565741Y-144915757D01*
X50050579Y-173502039D02*
X50000016Y-173537649D01*
X49893958Y-64678781D02*
X49947767Y-64709264D01*
X33272179Y-159875914D02*
X33328718Y-159900976D01*
X48020000Y-162335586D02*
X48019996Y-162335340D01*
X49361825Y-92471520D02*
X49423501Y-92476070D01*
X49838718Y-92590976D02*
X49893958Y-92618781D01*
X22625637Y-162321201D02*
X22625204Y-162321432D01*
X48011575Y-50560281D02*
X48011090Y-50560209D01*
X48015624Y-103898042D02*
X48016018Y-103897749D01*
X21155120Y-148363640D02*
X21216498Y-148356070D01*
X22159333Y-120696009D02*
X22206162Y-120736403D01*
X22546342Y-33214480D02*
X22524085Y-33272179D01*
X49782179Y-36685914D02*
X49838718Y-36710976D01*
X48004659Y-78500003D02*
X48004413Y-78500000D01*
X50380735Y-20692232D02*
X50411218Y-20746041D01*
X20153657Y-89094480D02*
X20134258Y-89035757D01*
X21898718Y-120530976D02*
X21953958Y-120558781D01*
X50146162Y-148676403D02*
X50190952Y-148719047D01*
X21340122Y-117870000D02*
X21278174Y-117868479D01*
X33723596Y-133966162D02*
X33680952Y-134010952D01*
X48017108Y-131836761D02*
X48017438Y-131836397D01*
X20692232Y-176469264D02*
X20746041Y-176438781D01*
X48012533Y-78500496D02*
X48012057Y-78500376D01*
X33383958Y-20228781D02*
X33437767Y-20259264D01*
X33802039Y-22110579D02*
X33763990Y-22159333D01*
X20175914Y-89152179D02*
X20153657Y-89094480D01*
X49545813Y-61965786D02*
X49484879Y-61976359D01*
X22622561Y-50563602D02*
X22622250Y-50563981D01*
X22629888Y-106440136D02*
X22629398Y-106440160D01*
X20228781Y-149016041D02*
X20259264Y-148962232D01*
X33901218Y-20746041D02*
X33929023Y-20801281D01*
X48741281Y-61869023D02*
X48686041Y-61841218D01*
X37202232Y-134200735D02*
X37149983Y-134167649D01*
X22524085Y-177067820D02*
X22546342Y-177125519D01*
X22623238Y-106442891D02*
X22622891Y-106443238D01*
X22620003Y-48004659D02*
X22620136Y-48010111D01*
X49606154Y-117832236D02*
X49545813Y-117845786D01*
X22621201Y-78505637D02*
X22620991Y-78506081D01*
X33901218Y-105773958D02*
X33870735Y-105827767D01*
X48019863Y-75950111D02*
X48019996Y-75944659D01*
X22499023Y-121131281D02*
X22524085Y-121187820D01*
X20746041Y-120558781D02*
X20801281Y-120530976D01*
X48019623Y-48012057D02*
X48019718Y-48011575D01*
X22620281Y-48011575D02*
X22620376Y-48012057D01*
X20692232Y-61810735D02*
X20639983Y-61777649D01*
X22620496Y-78507466D02*
X22620376Y-78507942D01*
X32789877Y-106440000D02*
X22635586Y-106440000D01*
X22622250Y-22623981D02*
X22621957Y-22624375D01*
X34025786Y-104914186D02*
X34036359Y-104975120D01*
X49095120Y-36603640D02*
X49156498Y-36596070D01*
X48199264Y-65142232D02*
X48232350Y-65089983D01*
X22627466Y-103899503D02*
X22627942Y-103899623D01*
X50411218Y-37256041D02*
X50439023Y-37311281D01*
X55639503Y-15007466D02*
X55639361Y-15006997D01*
X48140976Y-37311281D02*
X48168781Y-37256041D01*
X22622561Y-103896397D02*
X22622891Y-103896761D01*
X22620803Y-50566534D02*
X22620638Y-50566997D01*
X48012533Y-75959503D02*
X48013002Y-75959361D01*
X48019361Y-48013002D02*
X48019503Y-48012533D01*
X15003981Y-15002250D02*
X15003602Y-15002561D01*
X48013918Y-187719008D02*
X48014362Y-187718798D01*
X21155120Y-89916359D02*
X21094186Y-89905786D01*
X22635340Y-22620003D02*
X22629888Y-22620136D01*
X20093640Y-116794879D02*
X20086070Y-116733501D01*
X20134258Y-20974242D02*
X20153657Y-20915519D01*
X48389047Y-92839047D02*
X48433837Y-92796403D01*
X37665120Y-131853640D02*
X37726498Y-131846070D01*
X48013465Y-187719196D02*
X48013918Y-187719008D01*
X50099333Y-148636009D02*
X50146162Y-148676403D01*
X22620000Y-65790122D02*
X22620000Y-75944413D01*
X33636162Y-161993596D02*
X33589333Y-162033990D01*
X36802350Y-50000016D02*
X36769264Y-49947767D01*
X20974242Y-89875741D02*
X20915519Y-89856342D01*
X48020000Y-75944413D02*
X48020000Y-65790122D01*
X33437767Y-187899264D02*
X33490016Y-187932350D01*
X50347649Y-189700016D02*
X50312039Y-189750579D01*
X33540579Y-106192039D02*
X33490016Y-106227649D01*
X36837960Y-189750579D02*
X36802350Y-189700016D01*
X37425519Y-187793657D02*
X37484242Y-187774258D01*
X33763990Y-76420666D02*
X33802039Y-76469420D01*
X36644258Y-188614242D02*
X36663657Y-188555519D01*
X33636162Y-20406403D02*
X33680952Y-20449047D01*
X21842179Y-33954085D02*
X21784480Y-33976342D01*
X20228781Y-93136041D02*
X20259264Y-93082232D01*
X22060016Y-36802350D02*
X22110579Y-36837960D01*
X48057763Y-37543845D02*
X48074258Y-37484242D01*
X48389047Y-117500952D02*
X48346403Y-117456162D01*
X21483501Y-117863929D02*
X21421825Y-117868479D01*
X22620000Y-48004413D02*
X22620003Y-48004659D01*
X50099333Y-36876009D02*
X50146162Y-36916403D01*
X50560000Y-88669877D02*
X50558479Y-88731825D01*
X20117763Y-177243845D02*
X20134258Y-177184242D01*
X48044213Y-149364186D02*
X48057763Y-149303845D01*
X48019361Y-106446997D02*
X48019196Y-106446534D01*
X48021520Y-172551825D02*
X48020000Y-172489877D01*
X20915519Y-173676342D02*
X20857820Y-173654085D01*
X22624375Y-134381957D02*
X22623981Y-134382250D01*
X48026070Y-177426498D02*
X48033640Y-177365120D01*
X20327960Y-65039420D02*
X20366009Y-64990666D01*
X22471218Y-37256041D02*
X22499023Y-37311281D01*
X37202232Y-50380735D02*
X37149983Y-50347649D01*
X49838718Y-173629023D02*
X49782179Y-173654085D01*
X36710976Y-49838718D02*
X36685914Y-49782179D01*
X48010601Y-134380160D02*
X48010111Y-134380136D01*
X37050666Y-162033990D02*
X37003837Y-161993596D01*
X36603640Y-160855120D02*
X36614213Y-160794186D01*
X20175914Y-65307820D02*
X20200976Y-65251281D01*
X48019008Y-134386081D02*
X48018798Y-134385637D01*
X20857820Y-145714085D02*
X20801281Y-145689023D01*
X50505741Y-61095757D02*
X50486342Y-61154480D01*
X50439023Y-173028718D02*
X50411218Y-173083958D01*
X36959047Y-188089047D02*
X37003837Y-188046403D01*
X48013918Y-78500991D02*
X48013465Y-78500803D01*
X15006534Y-15000803D02*
X15006081Y-15000991D01*
X50380735Y-173137767D02*
X50347649Y-173190016D01*
X22621957Y-187715624D02*
X22622250Y-187716018D01*
X22622561Y-134383602D02*
X22622250Y-134383981D01*
X48015624Y-106441957D02*
X48015216Y-106441685D01*
X50273990Y-173289333D02*
X50233596Y-173336162D01*
X20117763Y-116916154D02*
X20104213Y-116855813D01*
X50233596Y-117456162D02*
X50190952Y-117500952D01*
X48389047Y-64899047D02*
X48433837Y-64856403D01*
X33929023Y-105718718D02*
X33901218Y-105773958D01*
X21605813Y-36614213D02*
X21666154Y-36627763D01*
X33035813Y-106415786D02*
X32974879Y-106426359D01*
X48267960Y-33540579D02*
X48232350Y-33490016D01*
X20081520Y-93668174D02*
X20086070Y-93606498D01*
X48017438Y-22623602D02*
X48017108Y-22623238D01*
X48346403Y-92883837D02*
X48389047Y-92839047D01*
X22620803Y-48013465D02*
X22620991Y-48013918D01*
X22206162Y-176616403D02*
X22250952Y-176659047D01*
X22626081Y-131839008D02*
X22626534Y-131839196D01*
X32789877Y-48020000D02*
X32851825Y-48021520D01*
X21605813Y-148374213D02*
X21666154Y-148387763D01*
X36685914Y-77722179D02*
X36663657Y-77664480D01*
X37149983Y-50347649D02*
X37099420Y-50312039D01*
X48016397Y-131837438D02*
X48016761Y-131837108D01*
X20540666Y-36876009D02*
X20589420Y-36837960D01*
X48015624Y-159778042D02*
X48016018Y-159777749D01*
X22620376Y-78507942D02*
X22620281Y-78508424D01*
X20081520Y-116671825D02*
X20080000Y-116609877D01*
X37367820Y-134284085D02*
X37311281Y-134259023D01*
X22635340Y-131839996D02*
X22635586Y-131840000D01*
X20366009Y-20540666D02*
X20406403Y-20493837D01*
X22407649Y-176849983D02*
X22440735Y-176902232D01*
X34050000Y-49280122D02*
X34050000Y-49299877D01*
X49545813Y-145785786D02*
X49484879Y-145796359D01*
X48011575Y-187719718D02*
X48012057Y-187719623D01*
X22372039Y-65039420D02*
X22407649Y-65089983D01*
X34036359Y-77035120D02*
X34043929Y-77096498D01*
X36916403Y-189846162D02*
X36876009Y-189799333D01*
X21784480Y-173676342D02*
X21725757Y-173695741D01*
X34036359Y-161244879D02*
X34025786Y-161305813D01*
X48018798Y-106445637D02*
X48018567Y-106445204D01*
X37484242Y-190205741D02*
X37425519Y-190186342D01*
X49280122Y-61990000D02*
X49218174Y-61988479D01*
X48014795Y-187718567D02*
X48015216Y-187718314D01*
X20200976Y-65251281D02*
X20228781Y-65196041D01*
X21359877Y-176290000D02*
X21421825Y-176291520D01*
X48018798Y-131834362D02*
X48019008Y-131833918D01*
X21784480Y-89856342D02*
X21725757Y-89875741D01*
X15007942Y-195339623D02*
X15008424Y-195339718D01*
X49606154Y-61952236D02*
X49545813Y-61965786D01*
X49665757Y-120464258D02*
X49724480Y-120483657D01*
X21605813Y-61965786D02*
X21544879Y-61976359D01*
X36685914Y-21842179D02*
X36663657Y-21784480D01*
X48018042Y-48015624D02*
X48018314Y-48015216D01*
X22626081Y-48019008D02*
X22626534Y-48019196D01*
X37149983Y-134167649D02*
X37099420Y-134132039D01*
X33763990Y-48480666D02*
X33802039Y-48529420D01*
X33328718Y-48140976D02*
X33383958Y-48168781D01*
X37311281Y-50439023D02*
X37256041Y-50411218D01*
X48014795Y-78501432D02*
X48014362Y-78501201D01*
X37850122Y-22620000D02*
X37788174Y-22618479D01*
X36916403Y-160193837D02*
X36959047Y-160149047D01*
X22524085Y-149127820D02*
X22546342Y-149185519D01*
X20104213Y-21094186D02*
X20117763Y-21033845D01*
X22626081Y-187719008D02*
X22626534Y-187719196D01*
X48020000Y-121670122D02*
X48021520Y-121608174D01*
X21784480Y-33976342D02*
X21725757Y-33995741D01*
X22624783Y-159778314D02*
X22625204Y-159778567D01*
X33437767Y-48199264D02*
X33490016Y-48232350D01*
X22628909Y-22620209D02*
X22628424Y-22620281D01*
X48019996Y-75944659D02*
X48020000Y-75944413D01*
X21842179Y-64625914D02*
X21898718Y-64650976D01*
X36710976Y-161598718D02*
X36685914Y-161542179D01*
X20639983Y-148562350D02*
X20692232Y-148529264D01*
X48010111Y-75959863D02*
X48010601Y-75959839D01*
X33096154Y-190222236D02*
X33035813Y-190235786D01*
X37050666Y-76246009D02*
X37099420Y-76207960D01*
X55638042Y-195335624D02*
X55638314Y-195335216D01*
X33995741Y-188614242D02*
X34012236Y-188673845D01*
X49034186Y-61965786D02*
X48973845Y-61952236D01*
X22060016Y-33837649D02*
X22007767Y-33870735D01*
X20080000Y-60729877D02*
X20080000Y-37850122D01*
X33954085Y-48797820D02*
X33976342Y-48855519D01*
X32789877Y-20080000D02*
X32851825Y-20081520D01*
X22159333Y-148636009D02*
X22206162Y-148676403D01*
X22620003Y-162335340D02*
X22620000Y-162335586D01*
X22635340Y-134380003D02*
X22629888Y-134380136D01*
X22613929Y-144673501D02*
X22606359Y-144734879D01*
X33636162Y-189933596D02*
X33589333Y-189973990D01*
X21216498Y-61983929D02*
X21155120Y-61976359D01*
X33328718Y-131960976D02*
X33383958Y-131988781D01*
X48140976Y-65251281D02*
X48168781Y-65196041D01*
X48267960Y-89420579D02*
X48232350Y-89370016D01*
X48306009Y-89469333D02*
X48267960Y-89420579D01*
X22621685Y-106444783D02*
X22621432Y-106445204D01*
X20081520Y-149548174D02*
X20086070Y-149486498D01*
X50558479Y-121608174D02*
X50560000Y-121670122D01*
X48020000Y-103884413D02*
X48020000Y-93730122D01*
X33954085Y-49782179D02*
X33929023Y-49838718D01*
X20153657Y-65365519D02*
X20175914Y-65307820D01*
X22621201Y-103894362D02*
X22621432Y-103894795D01*
X22595786Y-172735813D02*
X22582236Y-172796154D01*
X15001957Y-15004375D02*
X15001685Y-15004783D01*
X50558479Y-65728174D02*
X50560000Y-65790122D01*
X48019718Y-134388424D02*
X48019623Y-134387942D01*
X48014795Y-159778567D02*
X48015216Y-159778314D01*
X48019996Y-159764659D02*
X48020000Y-159764413D01*
X22606359Y-172674879D02*
X22595786Y-172735813D01*
X48016761Y-162322891D02*
X48016397Y-162322561D01*
X22621432Y-22625204D02*
X22621201Y-22625637D01*
X22624375Y-78501957D02*
X22623981Y-78502250D01*
X55636761Y-195337108D02*
X55637108Y-195336761D01*
X55637108Y-195336761D02*
X55637438Y-195336397D01*
X22620376Y-131832057D02*
X22620496Y-131832533D01*
X21278174Y-34048479D02*
X21216498Y-34043929D01*
X32851825Y-131841520D02*
X32913501Y-131846070D01*
X48026070Y-144673501D02*
X48021520Y-144611825D01*
X33680952Y-22250952D02*
X33636162Y-22293596D01*
X34025786Y-49545813D02*
X34012236Y-49606154D01*
X37850122Y-20080000D02*
X49299877Y-20080000D01*
X22620136Y-131830111D02*
X22620160Y-131830601D01*
X48015216Y-134381685D02*
X48014795Y-134381432D01*
X48004659Y-50560003D02*
X48004413Y-50560000D01*
X37256041Y-190111218D02*
X37202232Y-190080735D01*
X49893958Y-89781218D02*
X49838718Y-89809023D01*
X48018042Y-22624375D02*
X48017749Y-22623981D01*
X33540579Y-160027960D02*
X33589333Y-160066009D01*
X50000016Y-120622350D02*
X50050579Y-120657960D01*
X48044213Y-88915813D02*
X48033640Y-88854879D01*
X22635340Y-162320003D02*
X22629888Y-162320136D01*
X48004659Y-75959996D02*
X48010111Y-75959863D01*
X22620209Y-187711090D02*
X22620281Y-187711575D01*
X55639996Y-195324659D02*
X55640000Y-195324413D01*
X22620991Y-134386081D02*
X22620803Y-134386534D01*
X37256041Y-104048781D02*
X37311281Y-104020976D01*
X34025786Y-105425813D02*
X34012236Y-105486154D01*
X50439023Y-89208718D02*
X50411218Y-89263958D01*
X33763990Y-105979333D02*
X33723596Y-106026162D01*
X20589420Y-173502039D02*
X20540666Y-173463990D01*
X36876009Y-22159333D02*
X36837960Y-22110579D01*
X22606359Y-60914879D02*
X22595786Y-60975813D01*
X20081520Y-121608174D02*
X20086070Y-121546498D01*
X48016761Y-78502891D02*
X48016397Y-78502561D01*
X21033845Y-20117763D02*
X21094186Y-20104213D01*
X48579983Y-173537649D02*
X48529420Y-173502039D01*
X48686041Y-120558781D02*
X48741281Y-120530976D01*
X36959047Y-78130952D02*
X36916403Y-78086162D01*
X33214480Y-103973657D02*
X33272179Y-103995914D01*
X55633465Y-195339196D02*
X55633918Y-195339008D01*
X36591520Y-105098174D02*
X36596070Y-105036498D01*
X36959047Y-48389047D02*
X37003837Y-48346403D01*
X50560000Y-188999877D02*
X50558479Y-189061825D01*
X20974242Y-148404258D02*
X21033845Y-148387763D01*
X37099420Y-48267960D02*
X37149983Y-48232350D01*
X22007767Y-92649264D02*
X22060016Y-92682350D01*
X22565741Y-89035757D02*
X22546342Y-89094480D01*
X20259264Y-37202232D02*
X20292350Y-37149983D01*
X21725757Y-61935741D02*
X21666154Y-61952236D01*
X48015216Y-106441685D02*
X48014795Y-106441432D01*
X48010111Y-48019863D02*
X48010601Y-48019839D01*
X22623602Y-50562561D02*
X22623238Y-50562891D01*
X48018798Y-50565637D02*
X48018567Y-50565204D01*
X48017108Y-22623238D02*
X48016761Y-22622891D01*
X22333990Y-145349333D02*
X22293596Y-145396162D01*
X34025786Y-161305813D02*
X34012236Y-161366154D01*
X37367820Y-20175914D02*
X37425519Y-20153657D01*
X22620803Y-78506534D02*
X22620638Y-78506997D01*
X15008424Y-195339718D02*
X15008909Y-195339790D01*
X48973845Y-120447763D02*
X49034186Y-120434213D01*
X48019839Y-134389398D02*
X48019790Y-134388909D01*
X22620376Y-75952057D02*
X22620496Y-75952533D01*
X21544879Y-117856359D02*
X21483501Y-117863929D01*
X36837960Y-161810579D02*
X36802350Y-161760016D01*
X20801281Y-36710976D02*
X20857820Y-36685914D01*
X22622561Y-162323602D02*
X22622250Y-162323981D01*
X50273990Y-176750666D02*
X50312039Y-176799420D01*
X49299877Y-34050000D02*
X49280122Y-34050000D01*
X22629398Y-22620160D02*
X22628909Y-22620209D01*
X48018798Y-159774362D02*
X48019008Y-159773918D01*
X15009398Y-195339839D02*
X15009888Y-195339863D01*
X48433837Y-148676403D02*
X48480666Y-148636009D01*
X15004375Y-15001957D02*
X15003981Y-15002250D01*
X22595786Y-88915813D02*
X22582236Y-88976154D01*
X21094186Y-190235786D02*
X21033845Y-190222236D01*
X55631575Y-15000281D02*
X55631090Y-15000209D01*
X22606359Y-93545120D02*
X22613929Y-93606498D01*
X37003837Y-76286403D02*
X37050666Y-76246009D01*
X22007767Y-33870735D02*
X21953958Y-33901218D01*
X48019839Y-50569398D02*
X48019790Y-50568909D01*
X22621201Y-48014362D02*
X22621432Y-48014795D01*
X33929023Y-20801281D02*
X33954085Y-20857820D01*
X22620000Y-88669877D02*
X22618479Y-88731825D01*
X50190952Y-33680952D02*
X50146162Y-33723596D01*
X20086070Y-116733501D02*
X20081520Y-116671825D01*
X48011090Y-78500209D02*
X48010601Y-78500160D01*
X48016018Y-159777749D02*
X48016397Y-159777438D01*
X20117763Y-88976154D02*
X20104213Y-88915813D01*
X55636761Y-15002891D02*
X55636397Y-15002561D01*
X22620000Y-134395586D02*
X22620000Y-144549877D01*
X33763990Y-104360666D02*
X33802039Y-104409420D01*
X20589420Y-117622039D02*
X20540666Y-117583990D01*
X21666154Y-148387763D02*
X21725757Y-148404258D01*
X33954085Y-189482179D02*
X33929023Y-189538718D01*
X49361825Y-190258479D02*
X49299877Y-190260000D01*
X22627942Y-48019623D02*
X22628424Y-48019718D01*
X21666154Y-117832236D02*
X21605813Y-117845786D01*
X50312039Y-117360579D02*
X50273990Y-117409333D01*
X48015216Y-159778314D02*
X48015624Y-159778042D01*
X48012057Y-78500376D02*
X48011575Y-78500281D01*
X37543845Y-162282236D02*
X37484242Y-162265741D01*
X20292350Y-148909983D02*
X20327960Y-148859420D01*
X50546359Y-189184879D02*
X50535786Y-189245813D01*
X50411218Y-145143958D02*
X50380735Y-145197767D01*
X33870735Y-133767767D02*
X33837649Y-133820016D01*
X48019718Y-159771575D02*
X48019790Y-159771090D01*
X48019503Y-103892533D02*
X48019623Y-103892057D01*
X33680952Y-188089047D02*
X33723596Y-188133837D01*
X50000016Y-92682350D02*
X50050579Y-92717960D01*
X50233596Y-20493837D02*
X50273990Y-20540666D01*
X49361825Y-120411520D02*
X49423501Y-120416070D01*
X48020000Y-37850122D02*
X48021520Y-37788174D01*
X50560000Y-121670122D02*
X50560000Y-144549877D01*
X48004413Y-131840000D02*
X48004659Y-131839996D01*
X22499023Y-145088718D02*
X22471218Y-145143958D01*
X48016018Y-48017749D02*
X48016397Y-48017438D01*
X20134258Y-37484242D02*
X20153657Y-37425519D01*
X48016018Y-106442250D02*
X48015624Y-106441957D01*
X48168781Y-89263958D02*
X48140976Y-89208718D01*
X48017749Y-103896018D02*
X48018042Y-103895624D01*
X20449047Y-117500952D02*
X20406403Y-117456162D01*
X50560000Y-177550122D02*
X50560000Y-188999877D01*
X37003837Y-104226403D02*
X37050666Y-104186009D01*
X20327960Y-89420579D02*
X20292350Y-89370016D01*
X49361825Y-89928479D02*
X49299877Y-89930000D01*
X33383958Y-134231218D02*
X33328718Y-134259023D01*
X37850122Y-190260000D02*
X37788174Y-190258479D01*
X22110579Y-61742039D02*
X22060016Y-61777649D01*
X22626997Y-50560638D02*
X22626534Y-50560803D01*
X36663657Y-21784480D02*
X36644258Y-21725757D01*
X21725757Y-64584258D02*
X21784480Y-64603657D01*
X22620496Y-50567466D02*
X22620376Y-50567942D01*
X48017108Y-103896761D02*
X48017438Y-103896397D01*
X22624375Y-159778042D02*
X22624783Y-159778314D01*
X20104213Y-60975813D02*
X20093640Y-60914879D01*
X48018567Y-187714795D02*
X48018798Y-187714362D01*
X34043929Y-160916498D02*
X34048479Y-160978174D01*
X50273990Y-37050666D02*
X50312039Y-37099420D01*
X22546342Y-117034480D02*
X22524085Y-117092179D01*
X37149983Y-76172350D02*
X37202232Y-76139264D01*
X34043929Y-77096498D02*
X34048479Y-77158174D01*
X22620160Y-162329398D02*
X22620136Y-162329888D01*
X22546342Y-93305519D02*
X22565741Y-93364242D01*
X22623981Y-103897749D02*
X22624375Y-103898042D01*
X33155757Y-78445741D02*
X33096154Y-78462236D01*
X33155757Y-20134258D02*
X33214480Y-20153657D01*
X22627466Y-22620496D02*
X22626997Y-22620638D01*
X50312039Y-65039420D02*
X50347649Y-65089983D01*
X20540666Y-145523990D02*
X20493837Y-145483596D01*
X48855519Y-176363657D02*
X48914242Y-176344258D01*
X48232350Y-176849983D02*
X48267960Y-176799420D01*
X20153657Y-37425519D02*
X20175914Y-37367820D01*
X48480666Y-33763990D02*
X48433837Y-33723596D01*
X22618479Y-65728174D02*
X22620000Y-65790122D01*
X22629888Y-22620136D02*
X22629888Y-22620136D01*
X48018798Y-78505637D02*
X48018567Y-78505204D01*
X22626534Y-131839196D02*
X22626997Y-131839361D01*
X15000003Y-195324659D02*
X15000136Y-195330111D01*
X22524085Y-93247820D02*
X22546342Y-93305519D01*
X33723596Y-106026162D02*
X33680952Y-106070952D01*
X20104213Y-116855813D02*
X20093640Y-116794879D01*
X37484242Y-50505741D02*
X37425519Y-50486342D01*
X21421825Y-34048479D02*
X21359877Y-34050000D01*
X21216498Y-34043929D02*
X21155120Y-34036359D01*
X36876009Y-104360666D02*
X36916403Y-104313837D01*
X48018042Y-131835624D02*
X48018314Y-131835216D01*
X22620281Y-162328424D02*
X22620209Y-162328909D01*
X21421825Y-120411520D02*
X21483501Y-120416070D01*
X22620000Y-121670122D02*
X22620000Y-131824413D01*
X32913501Y-50553929D02*
X32851825Y-50558479D01*
X22627466Y-50560496D02*
X22626997Y-50560638D01*
X50522236Y-189306154D02*
X50505741Y-189365757D01*
X20692232Y-120589264D02*
X20746041Y-120558781D01*
X48093657Y-177125519D02*
X48115914Y-177067820D01*
X21094186Y-120434213D02*
X21155120Y-120423640D01*
X33870735Y-105827767D02*
X33837649Y-105880016D01*
X49095120Y-64543640D02*
X49156498Y-64536070D01*
X33870735Y-48632232D02*
X33901218Y-48686041D01*
X34043929Y-21483501D02*
X34036359Y-21544879D01*
X20080000Y-32789877D02*
X20080000Y-21340122D01*
X22629888Y-22620136D02*
X22629398Y-22620160D01*
X33976342Y-48855519D02*
X33995741Y-48914242D01*
X20117763Y-149303845D02*
X20134258Y-149244242D01*
X33096154Y-134342236D02*
X33035813Y-134355786D01*
X22625637Y-22621201D02*
X22625204Y-22621432D01*
X48017749Y-187716018D02*
X48018042Y-187715624D01*
X48480666Y-64816009D02*
X48529420Y-64777960D01*
X36644258Y-132734242D02*
X36663657Y-132675519D01*
X22625204Y-78501432D02*
X22624783Y-78501685D01*
X22613929Y-177426498D02*
X22618479Y-177488174D01*
X22620003Y-50575340D02*
X22620000Y-50575586D01*
X48019361Y-103893002D02*
X48019503Y-103892533D01*
X48013918Y-75959008D02*
X48014362Y-75958798D01*
X55639718Y-15008424D02*
X55639623Y-15007942D01*
X22623238Y-50562891D02*
X22622891Y-50563238D01*
X48074258Y-144915757D02*
X48057763Y-144856154D01*
X21898718Y-176410976D02*
X21953958Y-176438781D01*
X50522236Y-21033845D02*
X50535786Y-21094186D01*
X15000003Y-15015340D02*
X15000000Y-15015586D01*
X55639361Y-15006997D02*
X55639196Y-15006534D01*
X37788174Y-75961520D02*
X37850122Y-75960000D01*
X21483501Y-89923929D02*
X21421825Y-89928479D01*
X49838718Y-145689023D02*
X49782179Y-145714085D01*
X37788174Y-20081520D02*
X37850122Y-20080000D01*
X48013918Y-159779008D02*
X48014362Y-159778798D01*
X49156498Y-145803929D02*
X49095120Y-145796359D01*
X22628424Y-50560281D02*
X22627942Y-50560376D01*
X33837649Y-104459983D02*
X33870735Y-104512232D01*
X21359877Y-64530000D02*
X21359877Y-64530000D01*
X22622250Y-106443981D02*
X22621957Y-106444375D01*
X48168781Y-121076041D02*
X48199264Y-121022232D01*
X22620496Y-131832533D02*
X22620638Y-131833002D01*
X50558479Y-144611825D02*
X50553929Y-144673501D01*
X37311281Y-22499023D02*
X37256041Y-22471218D01*
X48973845Y-145772236D02*
X48914242Y-145755741D01*
X48004413Y-106440000D02*
X37850122Y-106440000D01*
X48013002Y-187719361D02*
X48013465Y-187719196D01*
X50522236Y-33096154D02*
X50505741Y-33155757D01*
X48019790Y-78508909D02*
X48019718Y-78508424D01*
X48013002Y-159779361D02*
X48013465Y-159779196D01*
X20540666Y-120696009D02*
X20589420Y-120657960D01*
X22407649Y-61430016D02*
X22372039Y-61480579D01*
X50522236Y-88976154D02*
X50505741Y-89035757D01*
X15003238Y-15002891D02*
X15002891Y-15003238D01*
X49947767Y-190080735D02*
X49893958Y-190111218D01*
X48019839Y-131830601D02*
X48019863Y-131830111D01*
X37367820Y-187815914D02*
X37425519Y-187793657D01*
X49156498Y-92476070D02*
X49218174Y-92471520D01*
X49724480Y-64603657D02*
X49782179Y-64625914D01*
X20366009Y-148810666D02*
X20406403Y-148763837D01*
X22110579Y-145562039D02*
X22060016Y-145597649D01*
X20366009Y-33589333D02*
X20327960Y-33540579D01*
X34036359Y-104975120D02*
X34043929Y-105036498D01*
X37149983Y-162107649D02*
X37099420Y-162072039D01*
X50380735Y-93082232D02*
X50411218Y-93136041D01*
X48011090Y-106440209D02*
X48010601Y-106440160D01*
X20857820Y-36685914D02*
X20915519Y-36663657D01*
X48014362Y-78501201D02*
X48013918Y-78500991D01*
X48033640Y-88854879D02*
X48026070Y-88793501D01*
X22623602Y-131837438D02*
X22623981Y-131837749D01*
X37484242Y-131894258D02*
X37543845Y-131877763D01*
X48480666Y-61703990D02*
X48433837Y-61663596D01*
X22620003Y-131824659D02*
X22620136Y-131830111D01*
X22440735Y-33437767D02*
X22407649Y-33490016D01*
X34050000Y-133119877D02*
X34048479Y-133181825D01*
X50050579Y-176537960D02*
X50099333Y-176576009D01*
X22606359Y-32974879D02*
X22595786Y-33035813D01*
X22627466Y-106440496D02*
X22626997Y-106440638D01*
X50464085Y-89152179D02*
X50439023Y-89208718D01*
X20134258Y-177184242D02*
X20153657Y-177125519D01*
X22622250Y-78503981D02*
X22621957Y-78504375D01*
X36644258Y-105545757D02*
X36627763Y-105486154D01*
X50190952Y-92839047D02*
X50233596Y-92883837D01*
X37149983Y-159992350D02*
X37202232Y-159959264D01*
X50464085Y-121187820D02*
X50486342Y-121245519D01*
X48632232Y-92649264D02*
X48686041Y-92618781D01*
X20692232Y-64709264D02*
X20746041Y-64678781D01*
X22546342Y-37425519D02*
X22565741Y-37484242D01*
X36663657Y-133544480D02*
X36644258Y-133485757D01*
X48019503Y-75952533D02*
X48019623Y-75952057D01*
X22613929Y-116733501D02*
X22606359Y-116794879D01*
X50190952Y-117500952D02*
X50146162Y-117543596D01*
X32789877Y-162320000D02*
X22635586Y-162320000D01*
X21483501Y-36596070D02*
X21544879Y-36603640D01*
X48018314Y-106444783D02*
X48018042Y-106444375D01*
X20327960Y-37099420D02*
X20366009Y-37050666D01*
X22620376Y-48012057D02*
X22620496Y-48012533D01*
X15006997Y-15000638D02*
X15006534Y-15000803D01*
X48018314Y-159775216D02*
X48018567Y-159774795D01*
X21155120Y-117856359D02*
X21094186Y-117845786D01*
X48019839Y-106449398D02*
X48019790Y-106448909D01*
X20692232Y-20259264D02*
X20746041Y-20228781D01*
X20175914Y-121187820D02*
X20200976Y-121131281D01*
X20104213Y-149364186D02*
X20117763Y-149303845D01*
X49782179Y-148445914D02*
X49838718Y-148470976D01*
X20327960Y-145300579D02*
X20292350Y-145250016D01*
X48306009Y-120870666D02*
X48346403Y-120823837D01*
X48013002Y-78500638D02*
X48012533Y-78500496D01*
X22621957Y-159775624D02*
X22622250Y-159776018D01*
X48010111Y-75959863D02*
X48010111Y-75959863D01*
X36591520Y-133181825D02*
X36590000Y-133119877D01*
X22159333Y-36876009D02*
X22206162Y-36916403D01*
X20134258Y-149244242D02*
X20153657Y-149185519D01*
X20449047Y-176659047D02*
X20493837Y-176616403D01*
X49947767Y-64709264D02*
X50000016Y-64742350D01*
X22620000Y-93730122D02*
X22620000Y-103884413D01*
X49484879Y-145796359D02*
X49423501Y-145803929D01*
X49423501Y-117863929D02*
X49361825Y-117868479D01*
X50190952Y-173380952D02*
X50146162Y-173423596D01*
X21544879Y-92483640D02*
X21605813Y-92494213D01*
X49606154Y-145772236D02*
X49545813Y-145785786D01*
X22621432Y-48014795D02*
X22621685Y-48015216D01*
X48267960Y-37099420D02*
X48306009Y-37050666D01*
X48074258Y-177184242D02*
X48093657Y-177125519D01*
X37604186Y-78475786D02*
X37543845Y-78462236D01*
X36614213Y-76974186D02*
X36627763Y-76913845D01*
X20639983Y-117657649D02*
X20589420Y-117622039D01*
X33272179Y-50464085D02*
X33214480Y-50486342D01*
X48018567Y-162325204D02*
X48018314Y-162324783D01*
X33035813Y-187744213D02*
X33096154Y-187757763D01*
X33763990Y-161859333D02*
X33723596Y-161906162D01*
X33837649Y-160339983D02*
X33870735Y-160392232D01*
X15002250Y-195336018D02*
X15002561Y-195336397D01*
X22621432Y-106445204D02*
X22621201Y-106445637D01*
X21278174Y-173748479D02*
X21216498Y-173743929D01*
X22159333Y-33763990D02*
X22110579Y-33802039D01*
X21544879Y-120423640D02*
X21605813Y-120434213D01*
X50190952Y-64899047D02*
X50233596Y-64943837D01*
X37788174Y-159781520D02*
X37850122Y-159780000D01*
X20857820Y-64625914D02*
X20915519Y-64603657D01*
X50273990Y-92930666D02*
X50312039Y-92979420D01*
X22623981Y-75957749D02*
X22624375Y-75958042D01*
X48014795Y-50561432D02*
X48014362Y-50561201D01*
X33901218Y-49893958D02*
X33870735Y-49947767D01*
X33870735Y-189647767D02*
X33837649Y-189700016D01*
X20086070Y-177426498D02*
X20093640Y-177365120D01*
X37726498Y-103906070D02*
X37788174Y-103901520D01*
X22621201Y-162325637D02*
X22620991Y-162326081D01*
X33929023Y-77778718D02*
X33901218Y-77833958D01*
X48093657Y-33214480D02*
X48074258Y-33155757D01*
X37543845Y-20117763D02*
X37604186Y-20104213D01*
X48389047Y-36959047D02*
X48433837Y-36916403D01*
X22623602Y-134382561D02*
X22623238Y-134382891D01*
X33437767Y-104079264D02*
X33490016Y-104112350D01*
X48115914Y-149127820D02*
X48140976Y-149071281D01*
X22620003Y-75944659D02*
X22620136Y-75950111D01*
X48011090Y-75959790D02*
X48011575Y-75959718D01*
X15000209Y-195331090D02*
X15000281Y-195331575D01*
X48018567Y-50565204D02*
X48018314Y-50564783D01*
X20406403Y-64943837D02*
X20449047Y-64899047D01*
X49545813Y-64554213D02*
X49606154Y-64567763D01*
X22625637Y-187718798D02*
X22626081Y-187719008D01*
X22627942Y-22620376D02*
X22627466Y-22620496D01*
X48797820Y-176385914D02*
X48855519Y-176363657D01*
X48019361Y-187713002D02*
X48019503Y-187712533D01*
X48004413Y-134380000D02*
X37850122Y-134380000D01*
X50439023Y-145088718D02*
X50411218Y-145143958D01*
X22629398Y-50560160D02*
X22628909Y-50560209D01*
X48057763Y-93423845D02*
X48074258Y-93364242D01*
X36802350Y-48579983D02*
X36837960Y-48529420D01*
X22440735Y-117257767D02*
X22407649Y-117310016D01*
X49423501Y-34043929D02*
X49361825Y-34048479D01*
X48019503Y-134387466D02*
X48019361Y-134386997D01*
X37311281Y-78379023D02*
X37256041Y-78351218D01*
X50190952Y-61620952D02*
X50146162Y-61663596D01*
X50347649Y-89370016D02*
X50312039Y-89420579D01*
X48199264Y-117257767D02*
X48168781Y-117203958D01*
X32851825Y-20081520D02*
X32913501Y-20086070D01*
X22440735Y-61377767D02*
X22407649Y-61430016D01*
X48232350Y-37149983D02*
X48267960Y-37099420D01*
X36591520Y-189061825D02*
X36590000Y-188999877D01*
X48018798Y-48014362D02*
X48019008Y-48013918D01*
X33589333Y-50273990D02*
X33540579Y-50312039D01*
X21340122Y-92470000D02*
X21359877Y-92470000D01*
X21359877Y-36590000D02*
X21421825Y-36591520D01*
X22620281Y-131831575D02*
X22620376Y-131832057D01*
X22620136Y-48010111D02*
X22620160Y-48010601D01*
X22620000Y-75944413D02*
X22620003Y-75944659D01*
X36590000Y-133119877D02*
X36590000Y-133100122D01*
X36837960Y-50050579D02*
X36802350Y-50000016D01*
X33763990Y-133919333D02*
X33723596Y-133966162D01*
X55639839Y-15009398D02*
X55639790Y-15008909D01*
X50486342Y-93305519D02*
X50505741Y-93364242D01*
X15000000Y-15015586D02*
X15000000Y-195324413D01*
X15008424Y-15000281D02*
X15007942Y-15000376D01*
X48632232Y-176469264D02*
X48686041Y-176438781D01*
X48267960Y-145300579D02*
X48232350Y-145250016D01*
X37099420Y-132087960D02*
X37149983Y-132052350D01*
X50486342Y-33214480D02*
X50464085Y-33272179D01*
X22613929Y-37726498D02*
X22618479Y-37788174D01*
X21544879Y-64543640D02*
X21605813Y-64554213D01*
X21544879Y-61976359D02*
X21483501Y-61983929D01*
X20259264Y-89317767D02*
X20228781Y-89263958D01*
X20153657Y-189424480D02*
X20134258Y-189365757D01*
X50560000Y-116609877D02*
X50558479Y-116671825D01*
X36738781Y-21953958D02*
X36710976Y-21898718D01*
X49484879Y-61976359D02*
X49423501Y-61983929D01*
X48010111Y-159779863D02*
X48010601Y-159779839D01*
X22635586Y-22620000D02*
X22635340Y-22620003D01*
X55639790Y-15008909D02*
X55639718Y-15008424D01*
X20857820Y-190164085D02*
X20801281Y-190139023D01*
X22627942Y-50560376D02*
X22627466Y-50560496D01*
X48093657Y-117034480D02*
X48074258Y-116975757D01*
X37050666Y-188006009D02*
X37099420Y-187967960D01*
X22625637Y-134381201D02*
X22625204Y-134381432D01*
X36614213Y-161305813D02*
X36603640Y-161244879D01*
X48019996Y-134395340D02*
X48019863Y-134389888D01*
X22626534Y-50560803D02*
X22626081Y-50560991D01*
X50553929Y-144673501D02*
X50546359Y-144734879D01*
X33837649Y-20639983D02*
X33870735Y-20692232D01*
X36876009Y-133919333D02*
X36837960Y-133870579D01*
X55639996Y-15015340D02*
X55639863Y-15009888D01*
X48014362Y-134381201D02*
X48013918Y-134380991D01*
X36959047Y-50190952D02*
X36916403Y-50146162D01*
X21953958Y-64678781D02*
X22007767Y-64709264D01*
X49545813Y-20104213D02*
X49606154Y-20117763D01*
X33490016Y-162107649D02*
X33437767Y-162140735D01*
X22628424Y-106440281D02*
X22627942Y-106440376D01*
X36916403Y-161906162D02*
X36876009Y-161859333D01*
X48012057Y-134380376D02*
X48011575Y-134380281D01*
X37425519Y-162246342D02*
X37367820Y-162224085D01*
X22250952Y-89560952D02*
X22206162Y-89603596D01*
X48579983Y-176502350D02*
X48632232Y-176469264D01*
X36603640Y-132915120D02*
X36614213Y-132854186D01*
X48018314Y-187715216D02*
X48018567Y-187714795D01*
X15009888Y-15000136D02*
X15009398Y-15000160D01*
X37788174Y-131841520D02*
X37850122Y-131840000D01*
X50505741Y-116975757D02*
X50486342Y-117034480D01*
X37788174Y-50558479D02*
X37726498Y-50553929D01*
X37850122Y-48020000D02*
X48004413Y-48020000D01*
X36802350Y-76519983D02*
X36837960Y-76469420D01*
X33636162Y-134053596D02*
X33589333Y-134093990D01*
X33383958Y-104048781D02*
X33437767Y-104079264D01*
X50553929Y-149486498D02*
X50558479Y-149548174D01*
X48914242Y-176344258D02*
X48973845Y-176327763D01*
X48013918Y-162320991D02*
X48013465Y-162320803D01*
X49545813Y-148374213D02*
X49606154Y-148387763D01*
X21953958Y-120558781D02*
X22007767Y-120589264D01*
X33802039Y-189750579D02*
X33763990Y-189799333D01*
X22620000Y-37850122D02*
X22620000Y-48004413D01*
X48011575Y-131839718D02*
X48012057Y-131839623D01*
X22620209Y-106448909D02*
X22620160Y-106449398D01*
X49299877Y-64530000D02*
X49361825Y-64531520D01*
X15001685Y-15004783D02*
X15001432Y-15005204D01*
X22333990Y-33589333D02*
X22293596Y-33636162D01*
X15000160Y-195330601D02*
X15000209Y-195331090D01*
X22635340Y-50560003D02*
X22629888Y-50560136D01*
X49893958Y-92618781D02*
X49947767Y-92649264D01*
X48015216Y-187718314D02*
X48015624Y-187718042D01*
X33763990Y-78039333D02*
X33723596Y-78086162D01*
X48306009Y-148810666D02*
X48346403Y-148763837D01*
X20086070Y-60853501D02*
X20081520Y-60791825D01*
X22613929Y-32913501D02*
X22606359Y-32974879D01*
X34036359Y-49484879D02*
X34025786Y-49545813D01*
X22628909Y-75959790D02*
X22629398Y-75959839D01*
X49484879Y-173736359D02*
X49423501Y-173743929D01*
X34050000Y-105160122D02*
X34050000Y-105179877D01*
X49299877Y-173750000D02*
X49280122Y-173750000D01*
X48019361Y-75953002D02*
X48019503Y-75952533D01*
X50560000Y-37850122D02*
X50560000Y-60729877D01*
X34050000Y-49299877D02*
X34048479Y-49361825D01*
X55634795Y-195338567D02*
X55635216Y-195338314D01*
X36627763Y-160733845D02*
X36644258Y-160674242D01*
X50273990Y-64990666D02*
X50312039Y-65039420D01*
X36738781Y-189593958D02*
X36710976Y-189538718D01*
X22624375Y-162321957D02*
X22623981Y-162322250D01*
X49606154Y-190222236D02*
X49545813Y-190235786D01*
X48016397Y-134382561D02*
X48016018Y-134382250D01*
X37256041Y-78351218D02*
X37202232Y-78320735D01*
X15005204Y-195338567D02*
X15005637Y-195338798D01*
X48199264Y-37202232D02*
X48232350Y-37149983D01*
X22623238Y-159777108D02*
X22623602Y-159777438D01*
X48019839Y-78509398D02*
X48019790Y-78508909D01*
X48011090Y-162320209D02*
X48010601Y-162320160D01*
X48020000Y-88669877D02*
X48020000Y-78515586D01*
X48015624Y-162321957D02*
X48015216Y-162321685D01*
X20228781Y-121076041D02*
X20259264Y-121022232D01*
X22159333Y-89643990D02*
X22110579Y-89682039D01*
X33763990Y-188180666D02*
X33802039Y-188229420D01*
X22620496Y-103892533D02*
X22620638Y-103893002D01*
X50464085Y-20857820D02*
X50486342Y-20915519D01*
X37726498Y-159786070D02*
X37788174Y-159781520D01*
X48033640Y-177365120D02*
X48044213Y-177304186D01*
X21725757Y-36644258D02*
X21784480Y-36663657D01*
X36916403Y-48433837D02*
X36959047Y-48389047D01*
X37367820Y-106344085D02*
X37311281Y-106319023D01*
X48480666Y-120696009D02*
X48529420Y-120657960D01*
X37256041Y-50411218D02*
X37202232Y-50380735D01*
X32974879Y-22606359D02*
X32913501Y-22613929D01*
X22582236Y-149303845D02*
X22595786Y-149364186D01*
X37050666Y-78213990D02*
X37003837Y-78173596D01*
X22159333Y-61703990D02*
X22110579Y-61742039D01*
X36596070Y-77096498D02*
X36603640Y-77035120D01*
X22620136Y-106449888D02*
X22620003Y-106455340D01*
X22620376Y-50567942D02*
X22620281Y-50568424D01*
X37149983Y-106227649D02*
X37099420Y-106192039D01*
X50522236Y-37543845D02*
X50535786Y-37604186D01*
X33035813Y-162295786D02*
X32974879Y-162306359D01*
X36627763Y-21666154D02*
X36614213Y-21605813D01*
X48855519Y-148423657D02*
X48914242Y-148404258D01*
X48074258Y-33155757D02*
X48057763Y-33096154D01*
X48021520Y-93668174D02*
X48026070Y-93606498D01*
X20134258Y-144915757D02*
X20117763Y-144856154D01*
X48057763Y-61036154D02*
X48044213Y-60975813D01*
X37604186Y-190235786D02*
X37543845Y-190222236D01*
X36627763Y-161366154D02*
X36614213Y-161305813D01*
X22635586Y-134380000D02*
X22635340Y-134380003D01*
X37425519Y-134306342D02*
X37367820Y-134284085D01*
X20153657Y-149185519D02*
X20175914Y-149127820D01*
X21340122Y-20080000D02*
X32789877Y-20080000D01*
X33723596Y-50146162D02*
X33680952Y-50190952D01*
X33636162Y-50233596D02*
X33589333Y-50273990D01*
X33870735Y-132452232D02*
X33901218Y-132506041D01*
X36614213Y-189245813D02*
X36603640Y-189184879D01*
X55630601Y-195339839D02*
X55631090Y-195339790D01*
X50099333Y-64816009D02*
X50146162Y-64856403D01*
X34012236Y-77546154D02*
X33995741Y-77605757D01*
X34012236Y-49606154D02*
X33995741Y-49665757D01*
X22250952Y-61620952D02*
X22206162Y-61663596D01*
X48914242Y-148404258D02*
X48973845Y-148387763D01*
X48019196Y-134386534D02*
X48019008Y-134386081D01*
X20801281Y-176410976D02*
X20857820Y-176385914D01*
X50546359Y-121485120D02*
X50553929Y-121546498D01*
X21340122Y-89930000D02*
X21278174Y-89928479D01*
X48973845Y-64567763D02*
X49034186Y-64554213D01*
X20801281Y-173629023D02*
X20746041Y-173601218D01*
X48004413Y-48020000D02*
X48004659Y-48019996D01*
X22620000Y-78515586D02*
X22620000Y-88669877D01*
X48012057Y-162320376D02*
X48011575Y-162320281D01*
X33035813Y-134355786D02*
X32974879Y-134366359D01*
X15015340Y-195339996D02*
X15015586Y-195340000D01*
X48057763Y-144856154D02*
X48044213Y-144795813D01*
X33328718Y-187840976D02*
X33383958Y-187868781D01*
X36802350Y-77940016D02*
X36769264Y-77887767D01*
X33383958Y-22471218D02*
X33328718Y-22499023D01*
X48015624Y-131838042D02*
X48016018Y-131837749D01*
X36685914Y-132617820D02*
X36710976Y-132561281D01*
X21842179Y-176385914D02*
X21898718Y-176410976D01*
X22621432Y-187714795D02*
X22621685Y-187715216D01*
X50190952Y-20449047D02*
X50233596Y-20493837D01*
X20801281Y-148470976D02*
X20857820Y-148445914D01*
X37367820Y-131935914D02*
X37425519Y-131913657D01*
X20200976Y-89208718D02*
X20175914Y-89152179D01*
X21033845Y-36627763D02*
X21094186Y-36614213D01*
X32789877Y-134380000D02*
X22635586Y-134380000D01*
X49545813Y-92494213D02*
X49606154Y-92507763D01*
X21898718Y-61869023D02*
X21842179Y-61894085D01*
X36837960Y-105930579D02*
X36802350Y-105880016D01*
X22499023Y-33328718D02*
X22471218Y-33383958D01*
X37484242Y-76014258D02*
X37543845Y-75997763D01*
X50312039Y-33540579D02*
X50273990Y-33589333D01*
X20175914Y-177067820D02*
X20200976Y-177011281D01*
X21094186Y-34025786D02*
X21033845Y-34012236D01*
X49280122Y-120410000D02*
X49299877Y-120410000D01*
X50505741Y-37484242D02*
X50522236Y-37543845D01*
X22620003Y-103884659D02*
X22620136Y-103890111D01*
X22333990Y-89469333D02*
X22293596Y-89516162D01*
X34012236Y-160733845D02*
X34025786Y-160794186D01*
X36710976Y-21898718D02*
X36685914Y-21842179D01*
X20857820Y-20175914D02*
X20915519Y-20153657D01*
X21605813Y-64554213D02*
X21666154Y-64567763D01*
X50233596Y-64943837D02*
X50273990Y-64990666D01*
X22629888Y-103899863D02*
X22635340Y-103899996D01*
X37311281Y-76080976D02*
X37367820Y-76055914D01*
X36644258Y-161425757D02*
X36627763Y-161366154D01*
X22620376Y-106447942D02*
X22620281Y-106448424D01*
X22621201Y-22625637D02*
X22620991Y-22626081D01*
X49299877Y-190260000D02*
X37850122Y-190260000D01*
X55639839Y-195330601D02*
X55639863Y-195330111D01*
X15001201Y-195334362D02*
X15001432Y-195334795D01*
X34012236Y-189306154D02*
X33995741Y-189365757D01*
X49361825Y-20081520D02*
X49423501Y-20086070D01*
X32974879Y-131853640D02*
X33035813Y-131864213D01*
X22620209Y-162328909D02*
X22620160Y-162329398D01*
X48168781Y-33383958D02*
X48140976Y-33328718D01*
X22595786Y-177304186D02*
X22606359Y-177365120D01*
X20915519Y-64603657D02*
X20974242Y-64584258D01*
X48019196Y-50566534D02*
X48019008Y-50566081D01*
X22628909Y-103899790D02*
X22629398Y-103899839D01*
X22618479Y-177488174D02*
X22620000Y-177550122D01*
X21340122Y-61990000D02*
X21278174Y-61988479D01*
X20086070Y-21216498D02*
X20093640Y-21155120D01*
X15000803Y-15006534D02*
X15000638Y-15006997D01*
X22250952Y-173380952D02*
X22206162Y-173423596D01*
X36627763Y-76913845D02*
X36644258Y-76854242D01*
X49423501Y-176296070D02*
X49484879Y-176303640D01*
X37788174Y-187721520D02*
X37850122Y-187720000D01*
X48010111Y-50560136D02*
X48004659Y-50560003D01*
X48004413Y-187720000D02*
X48004659Y-187719996D01*
X36876009Y-20540666D02*
X36916403Y-20493837D01*
X48018042Y-75955624D02*
X48018314Y-75955216D01*
X48019839Y-162329398D02*
X48019790Y-162328909D01*
X37850122Y-162320000D02*
X37788174Y-162318479D01*
X22372039Y-61480579D02*
X22333990Y-61529333D01*
X50190952Y-189890952D02*
X50146162Y-189933596D01*
X21340122Y-120410000D02*
X21359877Y-120410000D01*
X22625637Y-78501201D02*
X22625204Y-78501432D01*
X36837960Y-133870579D02*
X36802350Y-133820016D01*
X20589420Y-20327960D02*
X20639983Y-20292350D01*
X21155120Y-145796359D02*
X21094186Y-145785786D01*
X50312039Y-89420579D02*
X50273990Y-89469333D01*
X22372039Y-92979420D02*
X22407649Y-93029983D01*
X48013918Y-131839008D02*
X48014362Y-131838798D01*
X48018567Y-131834795D02*
X48018798Y-131834362D01*
X37367820Y-78404085D02*
X37311281Y-78379023D01*
X20366009Y-64990666D02*
X20406403Y-64943837D01*
X22623981Y-22622250D02*
X22623602Y-22622561D01*
X48480666Y-176576009D02*
X48529420Y-176537960D01*
X21784480Y-117796342D02*
X21725757Y-117815741D01*
X36644258Y-49665757D02*
X36627763Y-49606154D01*
X48632232Y-33870735D02*
X48579983Y-33837649D01*
X36685914Y-133602179D02*
X36663657Y-133544480D01*
X20200976Y-33328718D02*
X20175914Y-33272179D01*
X48015624Y-75958042D02*
X48016018Y-75957749D01*
X48140976Y-89208718D02*
X48115914Y-89152179D01*
X49034186Y-148374213D02*
X49095120Y-148363640D01*
X20449047Y-145440952D02*
X20406403Y-145396162D01*
X22627466Y-78500496D02*
X22626997Y-78500638D01*
X22250952Y-148719047D02*
X22293596Y-148763837D01*
X50505741Y-93364242D02*
X50522236Y-93423845D01*
X48004659Y-159779996D02*
X48010111Y-159779863D01*
X50233596Y-37003837D02*
X50273990Y-37050666D01*
X48741281Y-89809023D02*
X48686041Y-89781218D01*
X33096154Y-48057763D02*
X33155757Y-48074258D01*
X20449047Y-173380952D02*
X20406403Y-173336162D01*
X49724480Y-190186342D02*
X49665757Y-190205741D01*
X21842179Y-92565914D02*
X21898718Y-92590976D01*
X55638798Y-195334362D02*
X55639008Y-195333918D01*
X36627763Y-132793845D02*
X36644258Y-132734242D01*
X48013002Y-50560638D02*
X48012533Y-50560496D01*
X20406403Y-33636162D02*
X20366009Y-33589333D01*
X34012236Y-21666154D02*
X33995741Y-21725757D01*
X20153657Y-121245519D02*
X20175914Y-121187820D01*
X22333990Y-37050666D02*
X22372039Y-37099420D01*
X33929023Y-104621281D02*
X33954085Y-104677820D01*
X50050579Y-120657960D02*
X50099333Y-120696009D01*
X48010111Y-22620136D02*
X48004659Y-22620003D01*
X22110579Y-120657960D02*
X22159333Y-120696009D01*
X34050000Y-188999877D02*
X34048479Y-189061825D01*
X20259264Y-65142232D02*
X20292350Y-65089983D01*
X20081520Y-37788174D02*
X20086070Y-37726498D01*
X49665757Y-176344258D02*
X49724480Y-176363657D01*
X48010111Y-131839863D02*
X48010111Y-131839863D01*
X32789877Y-131840000D02*
X32851825Y-131841520D01*
X49218174Y-176291520D02*
X49280122Y-176290000D01*
X33096154Y-187757763D02*
X33155757Y-187774258D01*
X50347649Y-173190016D02*
X50312039Y-173240579D01*
X20104213Y-172735813D02*
X20093640Y-172674879D01*
X33636162Y-76286403D02*
X33680952Y-76329047D01*
X36837960Y-104409420D02*
X36876009Y-104360666D01*
X48012057Y-131839623D02*
X48012533Y-131839503D01*
X48012533Y-103899503D02*
X48013002Y-103899361D01*
X48017438Y-187716397D02*
X48017749Y-187716018D01*
X55634362Y-15001201D02*
X55633918Y-15000991D01*
X48033640Y-116794879D02*
X48026070Y-116733501D01*
X48973845Y-61952236D02*
X48914242Y-61935741D01*
X36802350Y-132399983D02*
X36837960Y-132349420D01*
X48015624Y-22621957D02*
X48015216Y-22621685D01*
X37050666Y-160066009D02*
X37099420Y-160027960D01*
X48017749Y-50563981D02*
X48017438Y-50563602D01*
X49423501Y-89923929D02*
X49361825Y-89928479D01*
X36710976Y-132561281D02*
X36738781Y-132506041D01*
X48019996Y-187704659D02*
X48020000Y-187704413D01*
X55634795Y-15001432D02*
X55634362Y-15001201D01*
X48017438Y-48016397D02*
X48017749Y-48016018D01*
X50233596Y-33636162D02*
X50190952Y-33680952D01*
X48016018Y-75957749D02*
X48016397Y-75957438D01*
X49838718Y-64650976D02*
X49893958Y-64678781D01*
X48021520Y-116671825D02*
X48020000Y-116609877D01*
X22293596Y-61576162D02*
X22250952Y-61620952D01*
X22595786Y-33035813D02*
X22582236Y-33096154D01*
X48019839Y-103890601D02*
X48019863Y-103890111D01*
X50560000Y-93730122D02*
X50560000Y-116609877D01*
X49361825Y-117868479D02*
X49299877Y-117870000D01*
X20153657Y-177125519D02*
X20175914Y-177067820D01*
X22635586Y-159780000D02*
X32789877Y-159780000D01*
X50558479Y-116671825D02*
X50553929Y-116733501D01*
X20104213Y-88915813D02*
X20093640Y-88854879D01*
X37850122Y-50560000D02*
X37788174Y-50558479D01*
X22620209Y-75951090D02*
X22620281Y-75951575D01*
X22622891Y-187716761D02*
X22623238Y-187717108D01*
X33680952Y-20449047D02*
X33723596Y-20493837D01*
X48015216Y-131838314D02*
X48015624Y-131838042D01*
X50050579Y-33802039D02*
X50000016Y-33837649D01*
X22293596Y-120823837D02*
X22333990Y-120870666D01*
X50553929Y-93606498D02*
X50558479Y-93668174D01*
X22627466Y-159779503D02*
X22627942Y-159779623D01*
X21725757Y-120464258D02*
X21784480Y-120483657D01*
X20081520Y-177488174D02*
X20086070Y-177426498D01*
X48017108Y-159776761D02*
X48017438Y-159776397D01*
X20327960Y-148859420D02*
X20366009Y-148810666D01*
X49724480Y-61916342D02*
X49665757Y-61935741D01*
X22407649Y-37149983D02*
X22440735Y-37202232D01*
X34043929Y-105036498D02*
X34048479Y-105098174D01*
X22546342Y-89094480D02*
X22524085Y-89152179D01*
X55639863Y-15009888D02*
X55639839Y-15009398D01*
X21278174Y-148351520D02*
X21340122Y-148350000D01*
X33437767Y-159959264D02*
X33490016Y-159992350D01*
X48267960Y-120919420D02*
X48306009Y-120870666D01*
X22627942Y-103899623D02*
X22628424Y-103899718D01*
X22623238Y-75957108D02*
X22623602Y-75957438D01*
X36603640Y-49095120D02*
X36614213Y-49034186D01*
X22499023Y-177011281D02*
X22524085Y-177067820D01*
X48914242Y-145755741D02*
X48855519Y-145736342D01*
X20093640Y-149425120D02*
X20104213Y-149364186D01*
X48389047Y-61620952D02*
X48346403Y-61576162D01*
X20915519Y-89856342D02*
X20857820Y-89834085D01*
X20406403Y-117456162D02*
X20366009Y-117409333D01*
X37202232Y-190080735D02*
X37149983Y-190047649D01*
X48019503Y-48012533D02*
X48019623Y-48012057D01*
X36591520Y-49361825D02*
X36590000Y-49299877D01*
X20327960Y-33540579D02*
X20292350Y-33490016D01*
X20974242Y-145755741D02*
X20915519Y-145736342D01*
X21421825Y-92471520D02*
X21483501Y-92476070D01*
X20406403Y-173336162D02*
X20366009Y-173289333D01*
X33901218Y-132506041D02*
X33929023Y-132561281D01*
X49838718Y-33929023D02*
X49782179Y-33954085D01*
X22628909Y-78500209D02*
X22628424Y-78500281D01*
X48019196Y-131833465D02*
X48019361Y-131833002D01*
X36916403Y-20493837D02*
X36959047Y-20449047D01*
X34043929Y-49423501D02*
X34036359Y-49484879D01*
X22620991Y-187713918D02*
X22621201Y-187714362D01*
X32913501Y-48026070D02*
X32974879Y-48033640D01*
X33763990Y-160240666D02*
X33802039Y-160289420D01*
X33035813Y-48044213D02*
X33096154Y-48057763D01*
X49606154Y-92507763D02*
X49665757Y-92524258D01*
X20493837Y-61663596D02*
X20449047Y-61620952D01*
X22565741Y-144915757D02*
X22546342Y-144974480D01*
X48346403Y-120823837D02*
X48389047Y-120779047D01*
X20540666Y-92756009D02*
X20589420Y-92717960D01*
X37311281Y-106319023D02*
X37256041Y-106291218D01*
X33870735Y-77887767D02*
X33837649Y-77940016D01*
X34012236Y-161366154D02*
X33995741Y-161425757D01*
X36710976Y-20801281D02*
X36738781Y-20746041D01*
X50146162Y-20406403D02*
X50190952Y-20449047D01*
X34043929Y-161183501D02*
X34036359Y-161244879D01*
X20228781Y-61323958D02*
X20200976Y-61268718D01*
X36596070Y-188856498D02*
X36603640Y-188795120D01*
X22471218Y-89263958D02*
X22440735Y-89317767D01*
X50553929Y-65666498D02*
X50558479Y-65728174D01*
X32913501Y-78493929D02*
X32851825Y-78498479D01*
X20857820Y-173654085D02*
X20801281Y-173629023D01*
X15009888Y-195339863D02*
X15015340Y-195339996D01*
X20259264Y-121022232D02*
X20292350Y-120969983D01*
X48346403Y-173336162D02*
X48306009Y-173289333D01*
X22293596Y-92883837D02*
X22333990Y-92930666D01*
X33589333Y-188006009D02*
X33636162Y-188046403D01*
X34025786Y-77485813D02*
X34012236Y-77546154D01*
X49218174Y-64531520D02*
X49280122Y-64530000D01*
X21359877Y-145810000D02*
X21340122Y-145810000D01*
X49782179Y-120505914D02*
X49838718Y-120530976D01*
X37604186Y-50535786D02*
X37543845Y-50522236D01*
X49724480Y-176363657D02*
X49782179Y-176385914D01*
X33837649Y-133820016D02*
X33802039Y-133870579D01*
X22620160Y-103890601D02*
X22620209Y-103891090D01*
X22635340Y-103899996D02*
X22635586Y-103900000D01*
X32913501Y-162313929D02*
X32851825Y-162318479D01*
X48632232Y-89750735D02*
X48579983Y-89717649D01*
X21421825Y-117868479D02*
X21359877Y-117870000D01*
X22624783Y-22621685D02*
X22624375Y-22621957D01*
X33155757Y-103954258D02*
X33214480Y-103973657D01*
X36916403Y-76373837D02*
X36959047Y-76329047D01*
X20746041Y-117721218D02*
X20692232Y-117690735D01*
X22524085Y-121187820D02*
X22546342Y-121245519D01*
X36738781Y-132506041D02*
X36769264Y-132452232D01*
X34025786Y-188734186D02*
X34036359Y-188795120D01*
X49606154Y-120447763D02*
X49665757Y-120464258D01*
X21421825Y-145808479D02*
X21359877Y-145810000D01*
X22628909Y-50560209D02*
X22628424Y-50560281D01*
X21155120Y-190246359D02*
X21094186Y-190235786D01*
X21483501Y-61983929D02*
X21421825Y-61988479D01*
X37543845Y-134342236D02*
X37484242Y-134325741D01*
X20081520Y-144611825D02*
X20080000Y-144549877D01*
X49782179Y-190164085D02*
X49724480Y-190186342D01*
X22622561Y-22623602D02*
X22622250Y-22623981D01*
X48914242Y-64584258D02*
X48973845Y-64567763D01*
X48632232Y-120589264D02*
X48686041Y-120558781D01*
X48579983Y-145597649D02*
X48529420Y-145562039D01*
X22250952Y-92839047D02*
X22293596Y-92883837D01*
X22620376Y-103892057D02*
X22620496Y-103892533D01*
X21898718Y-148470976D02*
X21953958Y-148498781D01*
X20080000Y-172489877D02*
X20080000Y-149610122D01*
X37484242Y-159834258D02*
X37543845Y-159817763D01*
X48010601Y-48019839D02*
X48011090Y-48019790D01*
X22159333Y-173463990D02*
X22110579Y-173502039D01*
X22635586Y-48020000D02*
X32789877Y-48020000D01*
X49665757Y-20134258D02*
X49724480Y-20153657D01*
X15000496Y-195332533D02*
X15000638Y-195333002D01*
X22471218Y-61323958D02*
X22440735Y-61377767D01*
X36663657Y-160615519D02*
X36685914Y-160557820D01*
X22471218Y-149016041D02*
X22499023Y-149071281D01*
X36596070Y-49156498D02*
X36603640Y-49095120D01*
X22620000Y-22635586D02*
X22620000Y-32789877D01*
X20153657Y-61154480D02*
X20134258Y-61095757D01*
X22250952Y-120779047D02*
X22293596Y-120823837D01*
X22620496Y-162327466D02*
X22620376Y-162327942D01*
X32789877Y-75960000D02*
X32851825Y-75961520D01*
X22620991Y-103893918D02*
X22621201Y-103894362D01*
X50000016Y-190047649D02*
X49947767Y-190080735D01*
X37050666Y-22333990D02*
X37003837Y-22293596D01*
X22623238Y-162322891D02*
X22622891Y-162323238D01*
X20259264Y-145197767D02*
X20228781Y-145143958D01*
X48016018Y-187717749D02*
X48016397Y-187717438D01*
X48306009Y-173289333D02*
X48267960Y-173240579D01*
X48017438Y-50563602D02*
X48017108Y-50563238D01*
X22620376Y-22627942D02*
X22620281Y-22628424D01*
X49299877Y-36590000D02*
X49361825Y-36591520D01*
X50347649Y-117310016D02*
X50312039Y-117360579D01*
X48020000Y-134395586D02*
X48019996Y-134395340D01*
X37425519Y-131913657D02*
X37484242Y-131894258D01*
X22595786Y-116855813D02*
X22582236Y-116916154D01*
X15000991Y-195333918D02*
X15001201Y-195334362D01*
X20915519Y-145736342D02*
X20857820Y-145714085D01*
X37367820Y-103995914D02*
X37425519Y-103973657D01*
X48019996Y-78515340D02*
X48019863Y-78509888D01*
X22407649Y-173190016D02*
X22372039Y-173240579D01*
X20857820Y-61894085D02*
X20801281Y-61869023D01*
X20104213Y-37604186D02*
X20117763Y-37543845D01*
X22622561Y-78503602D02*
X22622250Y-78503981D01*
X50535786Y-88915813D02*
X50522236Y-88976154D01*
X20406403Y-89516162D02*
X20366009Y-89469333D01*
X49423501Y-20086070D02*
X49484879Y-20093640D01*
X36837960Y-20589420D02*
X36876009Y-20540666D01*
X50464085Y-189482179D02*
X50439023Y-189538718D01*
X22627942Y-134380376D02*
X22627466Y-134380496D01*
X20228781Y-189593958D02*
X20200976Y-189538718D01*
X22159333Y-176576009D02*
X22206162Y-176616403D01*
X50553929Y-121546498D02*
X50558479Y-121608174D01*
X50546359Y-37665120D02*
X50553929Y-37726498D01*
X33929023Y-160501281D02*
X33954085Y-160557820D01*
X33589333Y-132126009D02*
X33636162Y-132166403D01*
X22620209Y-78508909D02*
X22620160Y-78509398D01*
X20406403Y-120823837D02*
X20449047Y-120779047D01*
X22007767Y-145630735D02*
X21953958Y-145661218D01*
X48014795Y-22621432D02*
X48014362Y-22621201D01*
X49218174Y-148351520D02*
X49280122Y-148350000D01*
X22621201Y-134385637D02*
X22620991Y-134386081D01*
X33035813Y-103924213D02*
X33096154Y-103937763D01*
X49280122Y-36590000D02*
X49299877Y-36590000D01*
X48632232Y-145630735D02*
X48579983Y-145597649D01*
X48686041Y-36738781D02*
X48741281Y-36710976D01*
X49724480Y-36663657D02*
X49782179Y-36685914D01*
X48306009Y-92930666D02*
X48346403Y-92883837D01*
X22606359Y-149425120D02*
X22613929Y-149486498D01*
X20134258Y-93364242D02*
X20153657Y-93305519D01*
X22620003Y-187704659D02*
X22620136Y-187710111D01*
X22582236Y-61036154D02*
X22565741Y-61095757D01*
X37726498Y-20086070D02*
X37788174Y-20081520D01*
X36663657Y-132675519D02*
X36685914Y-132617820D01*
X49218174Y-61988479D02*
X49156498Y-61983929D01*
X20974242Y-117815741D02*
X20915519Y-117796342D01*
X22623238Y-78502891D02*
X22622891Y-78503238D01*
X33837649Y-76519983D02*
X33870735Y-76572232D01*
X50486342Y-117034480D02*
X50464085Y-117092179D01*
X21784480Y-61916342D02*
X21725757Y-61935741D01*
X48797820Y-89834085D02*
X48741281Y-89809023D01*
X48019863Y-159770111D02*
X48019996Y-159764659D01*
X48044213Y-177304186D02*
X48057763Y-177243845D01*
X22595786Y-37604186D02*
X22606359Y-37665120D01*
X21666154Y-92507763D02*
X21725757Y-92524258D01*
X36603640Y-188795120D02*
X36614213Y-188734186D01*
X48057763Y-65483845D02*
X48074258Y-65424242D01*
X33383958Y-50411218D02*
X33328718Y-50439023D01*
X48033640Y-32974879D02*
X48026070Y-32913501D01*
X48013918Y-106440991D02*
X48013465Y-106440803D01*
X50464085Y-145032179D02*
X50439023Y-145088718D01*
X20117763Y-93423845D02*
X20134258Y-93364242D01*
X20540666Y-189973990D02*
X20493837Y-189933596D01*
X36596070Y-21483501D02*
X36591520Y-21421825D01*
X48115914Y-117092179D02*
X48093657Y-117034480D01*
X36738781Y-104566041D02*
X36769264Y-104512232D01*
X48797820Y-61894085D02*
X48741281Y-61869023D01*
X48480666Y-173463990D02*
X48433837Y-173423596D01*
X55631090Y-15000209D02*
X55630601Y-15000160D01*
X49423501Y-190253929D02*
X49361825Y-190258479D01*
X15000803Y-195333465D02*
X15000991Y-195333918D01*
X22620136Y-75950111D02*
X22620160Y-75950601D01*
X48044213Y-172735813D02*
X48033640Y-172674879D01*
X49280122Y-34050000D02*
X49218174Y-34048479D01*
X21216498Y-36596070D02*
X21278174Y-36591520D01*
X49893958Y-190111218D02*
X49838718Y-190139023D01*
X20589420Y-176537960D02*
X20639983Y-176502350D01*
X34050000Y-21359877D02*
X34048479Y-21421825D01*
X50522236Y-121363845D02*
X50535786Y-121424186D01*
X20915519Y-33976342D02*
X20857820Y-33954085D01*
X22582236Y-65483845D02*
X22595786Y-65544186D01*
X20175914Y-172972179D02*
X20153657Y-172914480D01*
X50535786Y-177304186D02*
X50546359Y-177365120D01*
X22635586Y-187720000D02*
X32789877Y-187720000D01*
X55639503Y-195332533D02*
X55639623Y-195332057D01*
X36710976Y-76681281D02*
X36738781Y-76626041D01*
X50312039Y-120919420D02*
X50347649Y-120969983D01*
X20086070Y-172613501D02*
X20081520Y-172551825D01*
X22250952Y-176659047D02*
X22293596Y-176703837D01*
X49724480Y-33976342D02*
X49665757Y-33995741D01*
X37788174Y-48021520D02*
X37850122Y-48020000D01*
X49095120Y-61976359D02*
X49034186Y-61965786D01*
X22628424Y-78500281D02*
X22627942Y-78500376D01*
X33636162Y-104226403D02*
X33680952Y-104269047D01*
X50546359Y-88854879D02*
X50535786Y-88915813D01*
X36738781Y-160446041D02*
X36769264Y-160392232D01*
X48140976Y-117148718D02*
X48115914Y-117092179D01*
X37726498Y-187726070D02*
X37788174Y-187721520D01*
X33901218Y-76626041D02*
X33929023Y-76681281D01*
X33272179Y-106344085D02*
X33214480Y-106366342D01*
X22620281Y-75951575D02*
X22620376Y-75952057D01*
X33870735Y-104512232D02*
X33901218Y-104566041D01*
X37256041Y-162171218D02*
X37202232Y-162140735D01*
X22626534Y-22620803D02*
X22626081Y-22620991D01*
X33540579Y-104147960D02*
X33589333Y-104186009D01*
X22293596Y-173336162D02*
X22250952Y-173380952D01*
X49095120Y-120423640D02*
X49156498Y-120416070D01*
X49665757Y-148404258D02*
X49724480Y-148423657D01*
X50190952Y-145440952D02*
X50146162Y-145483596D01*
X48004659Y-106440003D02*
X48004413Y-106440000D01*
X48033640Y-172674879D02*
X48026070Y-172613501D01*
X22623602Y-75957438D02*
X22623981Y-75957749D01*
X20589420Y-190012039D02*
X20540666Y-189973990D01*
X15000209Y-15008909D02*
X15000160Y-15009398D01*
X36837960Y-76469420D02*
X36876009Y-76420666D01*
X21421825Y-89928479D02*
X21359877Y-89930000D01*
X22635586Y-103900000D02*
X32789877Y-103900000D01*
X48579983Y-61777649D02*
X48529420Y-61742039D01*
X22622891Y-48016761D02*
X22623238Y-48017108D01*
X49724480Y-89856342D02*
X49665757Y-89875741D01*
X37003837Y-106113596D02*
X36959047Y-106070952D01*
X48389047Y-148719047D02*
X48433837Y-148676403D01*
X33995741Y-160674242D02*
X34012236Y-160733845D01*
X48016397Y-162322561D02*
X48016018Y-162322250D01*
X36685914Y-20857820D02*
X36710976Y-20801281D01*
X49947767Y-89750735D02*
X49893958Y-89781218D01*
X22626534Y-106440803D02*
X22626081Y-106440991D01*
X48019863Y-78509888D02*
X48019839Y-78509398D01*
X48017438Y-131836397D02*
X48017749Y-131836018D01*
X48014362Y-50561201D02*
X48013918Y-50560991D01*
X33870735Y-161707767D02*
X33837649Y-161760016D01*
X20080000Y-21340122D02*
X20081520Y-21278174D01*
X15000281Y-195331575D02*
X15000376Y-195332057D01*
X21666154Y-120447763D02*
X21725757Y-120464258D01*
X50560000Y-65790122D02*
X50560000Y-88669877D01*
X36916403Y-132253837D02*
X36959047Y-132209047D01*
X50190952Y-89560952D02*
X50146162Y-89603596D01*
X48004659Y-162320003D02*
X48004413Y-162320000D01*
X49545813Y-36614213D02*
X49606154Y-36627763D01*
X48019718Y-75951575D02*
X48019790Y-75951090D01*
X22625204Y-50561432D02*
X22624783Y-50561685D01*
X48433837Y-173423596D02*
X48389047Y-173380952D01*
X33540579Y-22372039D02*
X33490016Y-22407649D01*
X48018042Y-159775624D02*
X48018314Y-159775216D01*
X48074258Y-61095757D02*
X48057763Y-61036154D01*
X49838718Y-190139023D02*
X49782179Y-190164085D01*
X21898718Y-64650976D02*
X21953958Y-64678781D01*
X22620000Y-106455586D02*
X22620000Y-116609877D01*
X32851825Y-159781520D02*
X32913501Y-159786070D01*
X20093640Y-32974879D02*
X20086070Y-32913501D01*
X22623238Y-48017108D02*
X22623602Y-48017438D01*
X48010601Y-50560160D02*
X48010111Y-50560136D01*
X36614213Y-160794186D02*
X36627763Y-160733845D01*
X48016018Y-134382250D02*
X48015624Y-134381957D01*
X48015216Y-50561685D02*
X48014795Y-50561432D01*
X22499023Y-93191281D02*
X22524085Y-93247820D01*
X22620803Y-159773465D02*
X22620991Y-159773918D01*
X48012057Y-22620376D02*
X48011575Y-22620281D01*
X33763990Y-132300666D02*
X33802039Y-132349420D01*
X21666154Y-34012236D02*
X21605813Y-34025786D01*
X21155120Y-20093640D02*
X21216498Y-20086070D01*
X20366009Y-92930666D02*
X20406403Y-92883837D01*
X20746041Y-33901218D02*
X20692232Y-33870735D01*
X49156498Y-176296070D02*
X49218174Y-176291520D01*
X34050000Y-161059877D02*
X34048479Y-161121825D01*
X22628424Y-134380281D02*
X22627942Y-134380376D01*
X22471218Y-65196041D02*
X22499023Y-65251281D01*
X20093640Y-21155120D02*
X20104213Y-21094186D01*
X36590000Y-105179877D02*
X36590000Y-105160122D01*
X21094186Y-145785786D02*
X21033845Y-145772236D01*
X22625637Y-75958798D02*
X22626081Y-75959008D01*
X36837960Y-188229420D02*
X36876009Y-188180666D01*
X22628424Y-159779718D02*
X22628909Y-159779790D01*
X55637749Y-195336018D02*
X55638042Y-195335624D01*
X48011090Y-103899790D02*
X48011575Y-103899718D01*
X49299877Y-89930000D02*
X49280122Y-89930000D01*
X48741281Y-148470976D02*
X48797820Y-148445914D01*
X48019718Y-50568424D02*
X48019623Y-50567942D01*
X20589420Y-36837960D02*
X20639983Y-36802350D01*
X33837649Y-189700016D02*
X33802039Y-189750579D01*
X50099333Y-173463990D02*
X50050579Y-173502039D01*
X36644258Y-21725757D02*
X36627763Y-21666154D01*
X33328718Y-22499023D02*
X33272179Y-22524085D01*
X36627763Y-49606154D02*
X36614213Y-49545813D01*
X21953958Y-61841218D02*
X21898718Y-61869023D01*
X48026070Y-121546498D02*
X48033640Y-121485120D01*
X50535786Y-65544186D02*
X50546359Y-65605120D01*
X50233596Y-145396162D02*
X50190952Y-145440952D01*
X37665120Y-78486359D02*
X37604186Y-78475786D01*
X22623238Y-134382891D02*
X22622891Y-134383238D01*
X48914242Y-36644258D02*
X48973845Y-36627763D01*
X48433837Y-176616403D02*
X48480666Y-176576009D01*
X33723596Y-22206162D02*
X33680952Y-22250952D01*
X22613929Y-88793501D02*
X22606359Y-88854879D01*
X48018042Y-162324375D02*
X48017749Y-162323981D01*
X20540666Y-33763990D02*
X20493837Y-33723596D01*
X49299877Y-61990000D02*
X49280122Y-61990000D01*
X48529420Y-33802039D02*
X48480666Y-33763990D01*
X22565741Y-116975757D02*
X22546342Y-117034480D01*
X33383958Y-131988781D02*
X33437767Y-132019264D01*
X34025786Y-21094186D02*
X34036359Y-21155120D01*
X48010601Y-22620160D02*
X48010111Y-22620136D01*
X33272179Y-78404085D02*
X33214480Y-78426342D01*
X22333990Y-61529333D02*
X22293596Y-61576162D01*
X55639623Y-15007942D02*
X55639503Y-15007466D01*
X37149983Y-78287649D02*
X37099420Y-78252039D01*
X48389047Y-120779047D02*
X48433837Y-120736403D01*
X48168781Y-93136041D02*
X48199264Y-93082232D01*
X21953958Y-89781218D02*
X21898718Y-89809023D01*
X36603640Y-133304879D02*
X36596070Y-133243501D01*
X48010111Y-78500136D02*
X48004659Y-78500003D01*
X20081520Y-21278174D02*
X20086070Y-21216498D01*
X33901218Y-21953958D02*
X33870735Y-22007767D01*
X37726498Y-162313929D02*
X37665120Y-162306359D01*
X37367820Y-159875914D02*
X37425519Y-159853657D01*
X21094186Y-36614213D02*
X21155120Y-36603640D01*
X49299877Y-176290000D02*
X49361825Y-176291520D01*
X48021520Y-65728174D02*
X48026070Y-65666498D01*
X50411218Y-189593958D02*
X50380735Y-189647767D01*
X22627942Y-187719623D02*
X22628424Y-187719718D01*
X32974879Y-190246359D02*
X32913501Y-190253929D01*
X32851825Y-187721520D02*
X32913501Y-187726070D01*
X20134258Y-65424242D02*
X20153657Y-65365519D01*
X48057763Y-88976154D02*
X48044213Y-88915813D01*
X48018042Y-134384375D02*
X48017749Y-134383981D01*
X22250952Y-145440952D02*
X22206162Y-145483596D01*
X50558479Y-21278174D02*
X50560000Y-21340122D01*
X22565741Y-177184242D02*
X22582236Y-177243845D01*
X22620160Y-187710601D02*
X22620209Y-187711090D01*
X22621201Y-75954362D02*
X22621432Y-75954795D01*
X48015216Y-22621685D02*
X48014795Y-22621432D01*
X22623238Y-22622891D02*
X22622891Y-22623238D01*
X22626534Y-75959196D02*
X22626997Y-75959361D01*
X33802039Y-105930579D02*
X33763990Y-105979333D01*
X22629398Y-106440160D02*
X22628909Y-106440209D01*
X36644258Y-104794242D02*
X36663657Y-104735519D01*
X48019503Y-187712533D02*
X48019623Y-187712057D01*
X37311281Y-187840976D02*
X37367820Y-187815914D01*
X48686041Y-89781218D02*
X48632232Y-89750735D01*
X33802039Y-77990579D02*
X33763990Y-78039333D01*
X48914242Y-120464258D02*
X48973845Y-120447763D01*
X22620281Y-78508424D02*
X22620209Y-78508909D01*
X50553929Y-116733501D02*
X50546359Y-116794879D01*
X50439023Y-121131281D02*
X50464085Y-121187820D01*
X33976342Y-188555519D02*
X33995741Y-188614242D01*
X50411218Y-65196041D02*
X50439023Y-65251281D01*
X37543845Y-48057763D02*
X37604186Y-48044213D01*
X33995741Y-132734242D02*
X34012236Y-132793845D01*
X20200976Y-93191281D02*
X20228781Y-93136041D01*
X36627763Y-77546154D02*
X36614213Y-77485813D01*
X36590000Y-188980122D02*
X36590000Y-188980122D01*
X55635624Y-195338042D02*
X55636018Y-195337749D01*
X49095120Y-173736359D02*
X49034186Y-173725786D01*
X48004659Y-48019996D02*
X48010111Y-48019863D01*
X22620638Y-134386997D02*
X22620496Y-134387466D01*
X49724480Y-117796342D02*
X49665757Y-117815741D01*
X48019996Y-131824659D02*
X48020000Y-131824413D01*
X48012057Y-187719623D02*
X48012533Y-187719503D01*
X36685914Y-160557820D02*
X36710976Y-160501281D01*
X21898718Y-117749023D02*
X21842179Y-117774085D01*
X22627942Y-78500376D02*
X22627466Y-78500496D01*
X22626534Y-48019196D02*
X22626997Y-48019361D01*
X33976342Y-104735519D02*
X33995741Y-104794242D01*
X22582236Y-172796154D02*
X22565741Y-172855757D01*
X55624659Y-195339996D02*
X55630111Y-195339863D01*
X20493837Y-189933596D02*
X20449047Y-189890952D01*
X48855519Y-173676342D02*
X48797820Y-173654085D01*
X33954085Y-77722179D02*
X33929023Y-77778718D01*
X48140976Y-145088718D02*
X48115914Y-145032179D01*
X50558479Y-32851825D02*
X50553929Y-32913501D01*
X50439023Y-20801281D02*
X50464085Y-20857820D01*
X33096154Y-50522236D02*
X33035813Y-50535786D01*
X36663657Y-105604480D02*
X36644258Y-105545757D01*
X34012236Y-105486154D02*
X33995741Y-105545757D01*
X36644258Y-76854242D02*
X36663657Y-76795519D01*
X22620803Y-134386534D02*
X22620638Y-134386997D01*
X22626081Y-134380991D02*
X22625637Y-134381201D01*
X20200976Y-173028718D02*
X20175914Y-172972179D01*
X48019718Y-78508424D02*
X48019623Y-78507942D01*
X15000281Y-15008424D02*
X15000209Y-15008909D01*
X48033640Y-144734879D02*
X48026070Y-144673501D01*
X36710976Y-77778718D02*
X36685914Y-77722179D01*
X22110579Y-64777960D02*
X22159333Y-64816009D01*
X20292350Y-189700016D02*
X20259264Y-189647767D01*
X36596070Y-189123501D02*
X36591520Y-189061825D01*
X37484242Y-20134258D02*
X37543845Y-20117763D01*
X33589333Y-104186009D02*
X33636162Y-104226403D01*
X32974879Y-20093640D02*
X33035813Y-20104213D01*
X34043929Y-105303501D02*
X34036359Y-105364879D01*
X50000016Y-89717649D02*
X49947767Y-89750735D01*
X32789877Y-22620000D02*
X22635586Y-22620000D01*
X48016018Y-131837749D02*
X48016397Y-131837438D01*
X20639983Y-176502350D02*
X20692232Y-176469264D01*
X50312039Y-92979420D02*
X50347649Y-93029983D01*
X22606359Y-144734879D02*
X22595786Y-144795813D01*
X48686041Y-176438781D02*
X48741281Y-176410976D01*
X21033845Y-190222236D02*
X20974242Y-190205741D01*
X22621432Y-75954795D02*
X22621685Y-75955216D01*
X22606359Y-116794879D02*
X22595786Y-116855813D01*
X49280122Y-64530000D02*
X49299877Y-64530000D01*
X50273990Y-20540666D02*
X50312039Y-20589420D01*
X20292350Y-37149983D02*
X20327960Y-37099420D01*
X21340122Y-64530000D02*
X21359877Y-64530000D01*
X50560000Y-21340122D02*
X50560000Y-32789877D01*
X48021520Y-60791825D02*
X48020000Y-60729877D01*
X48012533Y-159779503D02*
X48013002Y-159779361D01*
X22627466Y-131839503D02*
X22627942Y-131839623D01*
X37149983Y-190047649D02*
X37099420Y-190012039D01*
X36876009Y-48480666D02*
X36916403Y-48433837D01*
X21340122Y-36590000D02*
X21359877Y-36590000D01*
X21666154Y-64567763D02*
X21725757Y-64584258D01*
X48019503Y-50567466D02*
X48019361Y-50566997D01*
X20259264Y-20692232D02*
X20292350Y-20639983D01*
X22626534Y-78500803D02*
X22626081Y-78500991D01*
X22624375Y-106441957D02*
X22623981Y-106442250D01*
X48013465Y-50560803D02*
X48013002Y-50560638D01*
X22565741Y-93364242D02*
X22582236Y-93423845D01*
X49724480Y-148423657D02*
X49782179Y-148445914D01*
X22007767Y-64709264D02*
X22060016Y-64742350D01*
X36591520Y-77301825D02*
X36590000Y-77239877D01*
X21421825Y-173748479D02*
X21359877Y-173750000D01*
X50558479Y-88731825D02*
X50553929Y-88793501D01*
X48115914Y-93247820D02*
X48140976Y-93191281D01*
X21784480Y-36663657D02*
X21842179Y-36685914D01*
X36802350Y-105880016D02*
X36769264Y-105827767D01*
X22626997Y-106440638D02*
X22626534Y-106440803D01*
X22626997Y-103899361D02*
X22627466Y-103899503D01*
X49893958Y-117721218D02*
X49838718Y-117749023D01*
X21725757Y-92524258D02*
X21784480Y-92543657D01*
X49484879Y-148363640D02*
X49545813Y-148374213D01*
X34025786Y-160794186D02*
X34036359Y-160855120D01*
X48855519Y-33976342D02*
X48797820Y-33954085D01*
X48018567Y-106445204D02*
X48018314Y-106444783D01*
X20746041Y-173601218D02*
X20692232Y-173570735D01*
X36685914Y-189482179D02*
X36663657Y-189424480D01*
X37543845Y-106402236D02*
X37484242Y-106385741D01*
X15001685Y-195335216D02*
X15001957Y-195335624D01*
X22624783Y-106441685D02*
X22624375Y-106441957D01*
X37726498Y-48026070D02*
X37788174Y-48021520D01*
X33437767Y-20259264D02*
X33490016Y-20292350D01*
X48010111Y-106440136D02*
X48004659Y-106440003D01*
X33954085Y-161542179D02*
X33929023Y-161598718D01*
X22623602Y-22622561D02*
X22623238Y-22622891D01*
X22621957Y-78504375D02*
X22621685Y-78504783D01*
X48346403Y-148763837D02*
X48389047Y-148719047D01*
X20746041Y-64678781D02*
X20801281Y-64650976D01*
X37484242Y-187774258D02*
X37543845Y-187757763D01*
X49893958Y-148498781D02*
X49947767Y-148529264D01*
X48686041Y-148498781D02*
X48741281Y-148470976D01*
X22606359Y-177365120D02*
X22613929Y-177426498D01*
X33490016Y-104112350D02*
X33540579Y-104147960D01*
X48074258Y-93364242D02*
X48093657Y-93305519D01*
X50439023Y-61268718D02*
X50411218Y-61323958D01*
X37484242Y-48074258D02*
X37543845Y-48057763D01*
X48019790Y-22628909D02*
X48019718Y-22628424D01*
X48267960Y-117360579D02*
X48232350Y-117310016D01*
X33680952Y-134010952D02*
X33636162Y-134053596D01*
X50146162Y-117543596D02*
X50099333Y-117583990D01*
X20540666Y-176576009D02*
X20589420Y-176537960D01*
X22620209Y-103891090D02*
X22620281Y-103891575D01*
X50464085Y-33272179D02*
X50439023Y-33328718D01*
X33995741Y-77605757D02*
X33976342Y-77664480D01*
X20540666Y-61703990D02*
X20493837Y-61663596D01*
X22206162Y-145483596D02*
X22159333Y-145523990D01*
X48019196Y-106446534D02*
X48019008Y-106446081D01*
X20080000Y-65790122D02*
X20081520Y-65728174D01*
X33540579Y-187967960D02*
X33589333Y-188006009D01*
X22293596Y-89516162D02*
X22250952Y-89560952D01*
X20292350Y-65089983D02*
X20327960Y-65039420D01*
X21544879Y-89916359D02*
X21483501Y-89923929D01*
X22622891Y-162323238D02*
X22622561Y-162323602D01*
X48306009Y-64990666D02*
X48346403Y-64943837D01*
X21898718Y-89809023D02*
X21842179Y-89834085D01*
X22250952Y-117500952D02*
X22206162Y-117543596D01*
X50505741Y-121304242D02*
X50522236Y-121363845D01*
X48140976Y-33328718D02*
X48115914Y-33272179D01*
X37484242Y-162265741D02*
X37425519Y-162246342D01*
X20259264Y-33437767D02*
X20228781Y-33383958D01*
X20093640Y-144734879D02*
X20086070Y-144673501D01*
X33155757Y-50505741D02*
X33096154Y-50522236D01*
X49947767Y-176469264D02*
X50000016Y-176502350D01*
X48019790Y-75951090D02*
X48019839Y-75950601D01*
X33976342Y-133544480D02*
X33954085Y-133602179D01*
X50312039Y-37099420D02*
X50347649Y-37149983D01*
X15002561Y-15003602D02*
X15002250Y-15003981D01*
X22624375Y-103898042D02*
X22624783Y-103898314D01*
X49665757Y-145755741D02*
X49606154Y-145772236D01*
X48529420Y-173502039D02*
X48480666Y-173463990D01*
X33272179Y-22524085D02*
X33214480Y-22546342D01*
X48529420Y-148597960D02*
X48579983Y-148562350D01*
X36916403Y-133966162D02*
X36876009Y-133919333D01*
X20134258Y-61095757D02*
X20117763Y-61036154D01*
X50558479Y-189061825D02*
X50553929Y-189123501D01*
X37425519Y-48093657D02*
X37484242Y-48074258D01*
X55633002Y-15000638D02*
X55632533Y-15000496D01*
X22625204Y-75958567D02*
X22625637Y-75958798D01*
X36738781Y-161653958D02*
X36710976Y-161598718D01*
X37003837Y-134053596D02*
X36959047Y-134010952D01*
X48855519Y-61916342D02*
X48797820Y-61894085D01*
X22620496Y-22627466D02*
X22620376Y-22627942D01*
X33155757Y-190205741D02*
X33096154Y-190222236D01*
X48019008Y-48013918D02*
X48019196Y-48013465D01*
X48017438Y-159776397D02*
X48017749Y-159776018D01*
X48018314Y-22624783D02*
X48018042Y-22624375D01*
X32851825Y-78498479D02*
X32789877Y-78500000D01*
X20117763Y-61036154D02*
X20104213Y-60975813D01*
X21483501Y-148356070D02*
X21544879Y-148363640D01*
X33995741Y-105545757D02*
X33976342Y-105604480D01*
X21033845Y-120447763D02*
X21094186Y-120434213D01*
X22620281Y-103891575D02*
X22620376Y-103892057D01*
X22624783Y-187718314D02*
X22625204Y-187718567D01*
X20292350Y-20639983D02*
X20327960Y-20589420D01*
X22007767Y-117690735D02*
X21953958Y-117721218D01*
X37003837Y-161993596D02*
X36959047Y-161950952D01*
X22333990Y-117409333D02*
X22293596Y-117456162D01*
X21216498Y-173743929D02*
X21155120Y-173736359D01*
X48306009Y-61529333D02*
X48267960Y-61480579D01*
X22620281Y-106448424D02*
X22620209Y-106448909D01*
X48019839Y-75950601D02*
X48019863Y-75950111D01*
X48018798Y-134385637D02*
X48018567Y-134385204D01*
X37003837Y-132166403D02*
X37050666Y-132126009D01*
X48267960Y-176799420D02*
X48306009Y-176750666D01*
X21725757Y-176344258D02*
X21784480Y-176363657D01*
X33328718Y-106319023D02*
X33272179Y-106344085D01*
X33723596Y-132253837D02*
X33763990Y-132300666D01*
X22620136Y-50569888D02*
X22620003Y-50575340D01*
X37788174Y-106438479D02*
X37726498Y-106433929D01*
X33901218Y-188386041D02*
X33929023Y-188441281D01*
X20801281Y-92590976D02*
X20857820Y-92565914D01*
X21544879Y-145796359D02*
X21483501Y-145803929D01*
X33680952Y-104269047D02*
X33723596Y-104313837D01*
X21605813Y-92494213D02*
X21666154Y-92507763D01*
X48021520Y-144611825D02*
X48020000Y-144549877D01*
X33214480Y-162246342D02*
X33155757Y-162265741D01*
X48004659Y-187719996D02*
X48010111Y-187719863D01*
X33155757Y-76014258D02*
X33214480Y-76033657D01*
X22621432Y-159774795D02*
X22621685Y-159775216D01*
X20093640Y-93545120D02*
X20104213Y-93484186D01*
X49361825Y-176291520D02*
X49423501Y-176296070D01*
X37425519Y-190186342D02*
X37367820Y-190164085D01*
X50535786Y-33035813D02*
X50522236Y-33096154D01*
X20801281Y-117749023D02*
X20746041Y-117721218D01*
X21216498Y-148356070D02*
X21278174Y-148351520D01*
X36603640Y-161244879D02*
X36596070Y-161183501D01*
X33929023Y-133658718D02*
X33901218Y-133713958D01*
X48019503Y-131832533D02*
X48019623Y-131832057D01*
X32974879Y-78486359D02*
X32913501Y-78493929D01*
X21033845Y-89892236D02*
X20974242Y-89875741D01*
X33155757Y-131894258D02*
X33214480Y-131913657D01*
X48016397Y-78502561D02*
X48016018Y-78502250D01*
X49484879Y-117856359D02*
X49423501Y-117863929D01*
X20153657Y-33214480D02*
X20134258Y-33155757D01*
X49361825Y-34048479D02*
X49299877Y-34050000D01*
X21953958Y-33901218D02*
X21898718Y-33929023D01*
X55638314Y-195335216D02*
X55638567Y-195334795D01*
X50050579Y-92717960D02*
X50099333Y-92756009D01*
X48741281Y-117749023D02*
X48686041Y-117721218D01*
X49423501Y-145803929D02*
X49361825Y-145808479D01*
X48013465Y-22620803D02*
X48013002Y-22620638D01*
X50380735Y-145197767D02*
X50347649Y-145250016D01*
X48057763Y-121363845D02*
X48074258Y-121304242D01*
X20134258Y-121304242D02*
X20153657Y-121245519D01*
X37543845Y-78462236D02*
X37484242Y-78445741D01*
X21784480Y-145736342D02*
X21725757Y-145755741D01*
X48093657Y-144974480D02*
X48074258Y-144915757D01*
X22626081Y-162320991D02*
X22625637Y-162321201D01*
X48019623Y-75952057D02*
X48019718Y-75951575D01*
X50233596Y-61576162D02*
X50190952Y-61620952D01*
X48529420Y-120657960D02*
X48579983Y-120622350D01*
X48019196Y-22626534D02*
X48019008Y-22626081D01*
X34025786Y-76974186D02*
X34036359Y-77035120D01*
X50000016Y-36802350D02*
X50050579Y-36837960D01*
X22622250Y-159776018D02*
X22622561Y-159776397D01*
X49484879Y-176303640D02*
X49545813Y-176314213D01*
X20746041Y-148498781D02*
X20801281Y-148470976D01*
X48020000Y-172489877D02*
X48020000Y-162335586D01*
X15000160Y-15009398D02*
X15000136Y-15009888D01*
X22629888Y-48019863D02*
X22635340Y-48019996D01*
X48019008Y-103893918D02*
X48019196Y-103893465D01*
X34036359Y-160855120D02*
X34043929Y-160916498D01*
X37003837Y-188046403D02*
X37050666Y-188006009D01*
X48579983Y-36802350D02*
X48632232Y-36769264D01*
X48016397Y-187717438D02*
X48016761Y-187717108D01*
X32851825Y-162318479D02*
X32789877Y-162320000D01*
X22629888Y-131839863D02*
X22635340Y-131839996D01*
X15006081Y-15000991D02*
X15005637Y-15001201D01*
X20974242Y-20134258D02*
X21033845Y-20117763D01*
X21094186Y-89905786D02*
X21033845Y-89892236D01*
X32851825Y-190258479D02*
X32789877Y-190260000D01*
X33976342Y-160615519D02*
X33995741Y-160674242D01*
X36590000Y-188999877D02*
X36590000Y-188980122D01*
X21359877Y-120410000D02*
X21359877Y-120410000D01*
X22440735Y-173137767D02*
X22407649Y-173190016D01*
X22623602Y-187717438D02*
X22623981Y-187717749D01*
X50312039Y-176799420D02*
X50347649Y-176849983D01*
X48017438Y-106443602D02*
X48017108Y-106443238D01*
X50546359Y-21155120D02*
X50553929Y-21216498D01*
X50439023Y-37311281D02*
X50464085Y-37367820D01*
X33437767Y-76139264D02*
X33490016Y-76172350D01*
X20259264Y-176902232D02*
X20292350Y-176849983D01*
X20117763Y-172796154D02*
X20104213Y-172735813D01*
X22628909Y-159779790D02*
X22629398Y-159779839D01*
X49665757Y-92524258D02*
X49724480Y-92543657D01*
X20080000Y-121670122D02*
X20081520Y-121608174D01*
X48019623Y-187712057D02*
X48019718Y-187711575D01*
X48019623Y-134387942D02*
X48019503Y-134387466D01*
X48026070Y-172613501D02*
X48021520Y-172551825D01*
X50411218Y-61323958D02*
X50380735Y-61377767D01*
X48011575Y-103899718D02*
X48012057Y-103899623D01*
X33995741Y-20974242D02*
X34012236Y-21033845D01*
X50486342Y-61154480D02*
X50464085Y-61212179D01*
X48016761Y-50562891D02*
X48016397Y-50562561D01*
X20366009Y-189799333D02*
X20327960Y-189750579D01*
X22624783Y-134381685D02*
X22624375Y-134381957D01*
X48016397Y-22622561D02*
X48016018Y-22622250D01*
X15007466Y-15000496D02*
X15006997Y-15000638D01*
X50099333Y-33763990D02*
X50050579Y-33802039D01*
X48686041Y-92618781D02*
X48741281Y-92590976D01*
X21953958Y-36738781D02*
X22007767Y-36769264D01*
X21725757Y-33995741D02*
X21666154Y-34012236D01*
X55635624Y-15001957D02*
X55635216Y-15001685D01*
X21278174Y-117868479D02*
X21216498Y-117863929D01*
X33929023Y-48741281D02*
X33954085Y-48797820D01*
X48013002Y-162320638D02*
X48012533Y-162320496D01*
X20153657Y-93305519D02*
X20175914Y-93247820D01*
X48741281Y-92590976D02*
X48797820Y-92565914D01*
X32974879Y-75973640D02*
X33035813Y-75984213D01*
X36738781Y-133713958D02*
X36710976Y-133658718D01*
X48019790Y-103891090D02*
X48019839Y-103890601D01*
X49724480Y-145736342D02*
X49665757Y-145755741D01*
X50560000Y-144549877D02*
X50558479Y-144611825D01*
X49893958Y-20228781D02*
X49947767Y-20259264D01*
X49724480Y-20153657D02*
X49782179Y-20175914D01*
X22372039Y-37099420D02*
X22407649Y-37149983D01*
X50522236Y-177243845D02*
X50535786Y-177304186D01*
X22206162Y-173423596D02*
X22159333Y-173463990D01*
X20093640Y-189184879D02*
X20086070Y-189123501D01*
X36596070Y-132976498D02*
X36603640Y-132915120D01*
X22595786Y-93484186D02*
X22606359Y-93545120D01*
X22623602Y-48017438D02*
X22623981Y-48017749D01*
X21725757Y-173695741D02*
X21666154Y-173712236D01*
X50146162Y-189933596D02*
X50099333Y-189973990D01*
X22628424Y-22620281D02*
X22627942Y-22620376D01*
X37665120Y-134366359D02*
X37604186Y-134355786D01*
X48074258Y-65424242D02*
X48093657Y-65365519D01*
X22626534Y-134380803D02*
X22626081Y-134380991D01*
X20117763Y-121363845D02*
X20134258Y-121304242D01*
X22620136Y-187710111D02*
X22620160Y-187710601D01*
X21953958Y-176438781D02*
X22007767Y-176469264D01*
X36685914Y-161542179D02*
X36663657Y-161484480D01*
X48074258Y-37484242D02*
X48093657Y-37425519D01*
X48306009Y-117409333D02*
X48267960Y-117360579D01*
X20801281Y-64650976D02*
X20857820Y-64625914D01*
X48433837Y-117543596D02*
X48389047Y-117500952D01*
X20639983Y-20292350D02*
X20692232Y-20259264D01*
X22007767Y-61810735D02*
X21953958Y-61841218D01*
X21725757Y-117815741D02*
X21666154Y-117832236D01*
X48433837Y-36916403D02*
X48480666Y-36876009D01*
X21953958Y-92618781D02*
X22007767Y-92649264D01*
X37202232Y-48199264D02*
X37256041Y-48168781D01*
X15001201Y-15005637D02*
X15000991Y-15006081D01*
X48019790Y-106448909D02*
X48019718Y-106448424D01*
X21953958Y-173601218D02*
X21898718Y-173629023D01*
X48480666Y-89643990D02*
X48433837Y-89603596D01*
X50535786Y-189245813D02*
X50522236Y-189306154D01*
X20093640Y-88854879D02*
X20086070Y-88793501D01*
X22407649Y-65089983D02*
X22440735Y-65142232D01*
X22620003Y-106455340D02*
X22620000Y-106455586D01*
X22060016Y-173537649D02*
X22007767Y-173570735D01*
X37256041Y-131988781D02*
X37311281Y-131960976D01*
X37256041Y-159928781D02*
X37311281Y-159900976D01*
X49484879Y-92483640D02*
X49545813Y-92494213D01*
X50380735Y-33437767D02*
X50347649Y-33490016D01*
X32974879Y-106426359D02*
X32913501Y-106433929D01*
X33723596Y-161906162D02*
X33680952Y-161950952D01*
X55639790Y-195331090D02*
X55639839Y-195330601D01*
X33383958Y-48168781D02*
X33437767Y-48199264D01*
X48015624Y-134381957D02*
X48015216Y-134381685D01*
X37425519Y-20153657D02*
X37484242Y-20134258D01*
X48021520Y-32851825D02*
X48020000Y-32789877D01*
X21784480Y-92543657D02*
X21842179Y-92565914D01*
X22623981Y-48017749D02*
X22624375Y-48018042D01*
X48019863Y-22629888D02*
X48019839Y-22629398D01*
X33636162Y-48346403D02*
X33680952Y-48389047D01*
X48016761Y-187717108D02*
X48017108Y-187716761D01*
X22635340Y-106440003D02*
X22629888Y-106440136D01*
X36663657Y-161484480D02*
X36644258Y-161425757D01*
X21033845Y-176327763D02*
X21094186Y-176314213D01*
X49484879Y-190246359D02*
X49423501Y-190253929D01*
X20857820Y-92565914D02*
X20915519Y-92543657D01*
X22635340Y-78500003D02*
X22629888Y-78500136D01*
X50099333Y-117583990D02*
X50050579Y-117622039D01*
X21094186Y-173725786D02*
X21033845Y-173712236D01*
X22622561Y-159776397D02*
X22622891Y-159776761D01*
X21666154Y-145772236D02*
X21605813Y-145785786D01*
X34048479Y-49361825D02*
X34043929Y-49423501D01*
X21094186Y-61965786D02*
X21033845Y-61952236D01*
X50312039Y-61480579D02*
X50273990Y-61529333D01*
X49156498Y-148356070D02*
X49218174Y-148351520D01*
X21842179Y-148445914D02*
X21898718Y-148470976D01*
X33437767Y-106260735D02*
X33383958Y-106291218D01*
X20449047Y-120779047D02*
X20493837Y-120736403D01*
X48267960Y-65039420D02*
X48306009Y-64990666D01*
X22626997Y-48019361D02*
X22627466Y-48019503D01*
X36590000Y-21359877D02*
X36590000Y-21340122D01*
X36590000Y-49280122D02*
X36591520Y-49218174D01*
X48004413Y-50560000D02*
X37850122Y-50560000D01*
X20292350Y-89370016D02*
X20259264Y-89317767D01*
X48267960Y-61480579D02*
X48232350Y-61430016D01*
X48017108Y-48016761D02*
X48017438Y-48016397D01*
X48016761Y-48017108D02*
X48017108Y-48016761D01*
X48019863Y-22629888D02*
X48019863Y-22629888D01*
X37665120Y-22606359D02*
X37604186Y-22595786D01*
X22620496Y-48012533D02*
X22620638Y-48013002D01*
X37202232Y-78320735D02*
X37149983Y-78287649D01*
X22621432Y-78505204D02*
X22621201Y-78505637D01*
X22622561Y-48016397D02*
X22622891Y-48016761D01*
X49034186Y-120434213D02*
X49095120Y-120423640D01*
X36916403Y-106026162D02*
X36876009Y-105979333D01*
X36710976Y-48741281D02*
X36738781Y-48686041D01*
X48797820Y-117774085D02*
X48741281Y-117749023D01*
X21094186Y-20104213D02*
X21155120Y-20093640D01*
X20175914Y-189482179D02*
X20153657Y-189424480D01*
X48973845Y-117832236D02*
X48914242Y-117815741D01*
X49095120Y-89916359D02*
X49034186Y-89905786D01*
X21359877Y-117870000D02*
X21340122Y-117870000D01*
X33837649Y-132399983D02*
X33870735Y-132452232D01*
X36644258Y-133485757D02*
X36627763Y-133426154D01*
X22622891Y-103896761D02*
X22623238Y-103897108D01*
X36959047Y-160149047D02*
X37003837Y-160106403D01*
X22621201Y-106445637D02*
X22620991Y-106446081D01*
X20086070Y-32913501D02*
X20081520Y-32851825D01*
X22629398Y-159779839D02*
X22629888Y-159779863D01*
X22623981Y-50562250D02*
X22623602Y-50562561D01*
X48004413Y-22620000D02*
X37850122Y-22620000D01*
X22440735Y-37202232D02*
X22471218Y-37256041D01*
X36769264Y-188332232D02*
X36802350Y-188279983D01*
X48011090Y-50560209D02*
X48010601Y-50560160D01*
X37099420Y-160027960D02*
X37149983Y-159992350D01*
X37256041Y-48168781D02*
X37311281Y-48140976D01*
X37367820Y-190164085D02*
X37311281Y-190139023D01*
X22620991Y-131833918D02*
X22621201Y-131834362D01*
X37543845Y-22582236D02*
X37484242Y-22565741D01*
X33976342Y-77664480D02*
X33954085Y-77722179D01*
X22628909Y-187719790D02*
X22629398Y-187719839D01*
X33096154Y-162282236D02*
X33035813Y-162295786D01*
X33976342Y-76795519D02*
X33995741Y-76854242D01*
X22628909Y-162320209D02*
X22628424Y-162320281D01*
X48017749Y-22623981D02*
X48017438Y-22623602D01*
X22622250Y-134383981D02*
X22621957Y-134384375D01*
X36603640Y-105364879D02*
X36596070Y-105303501D01*
X36663657Y-20915519D02*
X36685914Y-20857820D01*
X33214480Y-159853657D02*
X33272179Y-159875914D01*
X33870735Y-76572232D02*
X33901218Y-76626041D01*
X33096154Y-22582236D02*
X33035813Y-22595786D01*
X48018567Y-159774795D02*
X48018798Y-159774362D01*
X36603640Y-77424879D02*
X36596070Y-77363501D01*
X50535786Y-172735813D02*
X50522236Y-172796154D01*
X20080000Y-144549877D02*
X20080000Y-121670122D01*
X22628424Y-162320281D02*
X22627942Y-162320376D01*
X48267960Y-173240579D02*
X48232350Y-173190016D01*
X49782179Y-20175914D02*
X49838718Y-20200976D01*
X22629888Y-78500136D02*
X22629398Y-78500160D01*
X22620376Y-134387942D02*
X22620281Y-134388424D01*
X48115914Y-121187820D02*
X48140976Y-121131281D01*
X50380735Y-61377767D02*
X50347649Y-61430016D01*
X21605813Y-173725786D02*
X21544879Y-173736359D01*
X34048479Y-188918174D02*
X34050000Y-188980122D01*
X36769264Y-49947767D02*
X36738781Y-49893958D01*
X34036359Y-133304879D02*
X34025786Y-133365813D01*
X33589333Y-22333990D02*
X33540579Y-22372039D01*
X55636397Y-195337438D02*
X55636761Y-195337108D01*
X36627763Y-48973845D02*
X36644258Y-48914242D01*
X22618479Y-144611825D02*
X22613929Y-144673501D01*
X48019790Y-162328909D02*
X48019718Y-162328424D01*
X48019790Y-159771090D02*
X48019839Y-159770601D01*
X49156498Y-61983929D02*
X49095120Y-61976359D01*
X37726498Y-106433929D02*
X37665120Y-106426359D01*
X22621432Y-134385204D02*
X22621201Y-134385637D01*
X22621432Y-162325204D02*
X22621201Y-162325637D01*
X21666154Y-173712236D02*
X21605813Y-173725786D01*
X48267960Y-92979420D02*
X48306009Y-92930666D01*
X22499023Y-173028718D02*
X22471218Y-173083958D01*
X21155120Y-120423640D02*
X21216498Y-120416070D01*
X48012533Y-134380496D02*
X48012057Y-134380376D01*
X20692232Y-92649264D02*
X20746041Y-92618781D01*
X21216498Y-190253929D02*
X21155120Y-190246359D01*
X34050000Y-188980122D02*
X34050000Y-188999877D01*
X48020000Y-187704413D02*
X48020000Y-177550122D01*
X49782179Y-176385914D02*
X49838718Y-176410976D01*
X48010601Y-162320160D02*
X48010111Y-162320136D01*
X20175914Y-149127820D02*
X20200976Y-149071281D01*
X36663657Y-188555519D02*
X36685914Y-188497820D01*
X49893958Y-33901218D02*
X49838718Y-33929023D01*
X15005637Y-15001201D02*
X15005204Y-15001432D01*
X55631575Y-195339718D02*
X55632057Y-195339623D01*
X37543845Y-131877763D02*
X37604186Y-131864213D01*
X22629398Y-103899839D02*
X22629888Y-103899863D01*
X48020000Y-116609877D02*
X48020000Y-106455586D01*
X22627466Y-134380496D02*
X22626997Y-134380638D01*
X48019863Y-48010111D02*
X48019996Y-48004659D01*
X34048479Y-21421825D02*
X34043929Y-21483501D01*
X21483501Y-173743929D02*
X21421825Y-173748479D01*
X21340122Y-176290000D02*
X21359877Y-176290000D01*
X48019623Y-162327942D02*
X48019503Y-162327466D01*
X37788174Y-22618479D02*
X37726498Y-22613929D01*
X22499023Y-89208718D02*
X22471218Y-89263958D01*
X48686041Y-61841218D02*
X48632232Y-61810735D01*
X48115914Y-172972179D02*
X48093657Y-172914480D01*
X50380735Y-65142232D02*
X50411218Y-65196041D01*
X22625637Y-103898798D02*
X22626081Y-103899008D01*
X22613929Y-172613501D02*
X22606359Y-172674879D01*
X48686041Y-64678781D02*
X48741281Y-64650976D01*
X33954085Y-188497820D02*
X33976342Y-188555519D01*
X33272179Y-20175914D02*
X33328718Y-20200976D01*
X20974242Y-33995741D02*
X20915519Y-33976342D01*
X33096154Y-131877763D02*
X33155757Y-131894258D01*
X48019623Y-22627942D02*
X48019503Y-22627466D01*
X33035813Y-20104213D02*
X33096154Y-20117763D01*
X37604186Y-48044213D02*
X37665120Y-48033640D01*
X48013465Y-48019196D02*
X48013918Y-48019008D01*
X50347649Y-120969983D02*
X50380735Y-121022232D01*
X22620991Y-50566081D02*
X22620803Y-50566534D01*
X48015216Y-103898314D02*
X48015624Y-103898042D01*
X33636162Y-188046403D02*
X33680952Y-188089047D01*
X48013918Y-50560991D02*
X48013465Y-50560803D01*
X48013465Y-159779196D02*
X48013918Y-159779008D01*
X22613929Y-149486498D02*
X22618479Y-149548174D01*
X48529420Y-117622039D02*
X48480666Y-117583990D01*
X49665757Y-36644258D02*
X49724480Y-36663657D01*
X48057763Y-33096154D02*
X48044213Y-33035813D01*
X48199264Y-61377767D02*
X48168781Y-61323958D01*
X20692232Y-36769264D02*
X20746041Y-36738781D01*
X50505741Y-20974242D02*
X50522236Y-21033845D01*
X33723596Y-48433837D02*
X33763990Y-48480666D01*
X32974879Y-187733640D02*
X33035813Y-187744213D01*
X49423501Y-92476070D02*
X49484879Y-92483640D01*
X33763990Y-20540666D02*
X33802039Y-20589420D01*
X55636018Y-15002250D02*
X55635624Y-15001957D01*
X50505741Y-177184242D02*
X50522236Y-177243845D01*
X33035813Y-78475786D02*
X32974879Y-78486359D01*
X20093640Y-172674879D02*
X20086070Y-172613501D01*
X20327960Y-61480579D02*
X20292350Y-61430016D01*
X37149983Y-22407649D02*
X37099420Y-22372039D01*
X48015216Y-75958314D02*
X48015624Y-75958042D01*
X21094186Y-117845786D02*
X21033845Y-117832236D01*
X22621432Y-50565204D02*
X22621201Y-50565637D01*
X50273990Y-89469333D02*
X50233596Y-89516162D01*
X20134258Y-172855757D02*
X20117763Y-172796154D01*
X21898718Y-145689023D02*
X21842179Y-145714085D01*
X33096154Y-20117763D02*
X33155757Y-20134258D01*
X48015624Y-78501957D02*
X48015216Y-78501685D01*
X36663657Y-76795519D02*
X36685914Y-76737820D01*
X48010111Y-131839863D02*
X48010601Y-131839839D01*
X36738781Y-48686041D02*
X36769264Y-48632232D01*
X36959047Y-189890952D02*
X36916403Y-189846162D01*
X48686041Y-145661218D02*
X48632232Y-145630735D01*
X21359877Y-148350000D02*
X21421825Y-148351520D01*
X22620209Y-22628909D02*
X22620160Y-22629398D01*
X48389047Y-176659047D02*
X48433837Y-176616403D01*
X22620000Y-144549877D02*
X22618479Y-144611825D01*
X36802350Y-133820016D02*
X36769264Y-133767767D01*
X50522236Y-172796154D02*
X50505741Y-172855757D01*
X20974242Y-190205741D02*
X20915519Y-190186342D01*
X50050579Y-145562039D02*
X50000016Y-145597649D01*
X50233596Y-176703837D02*
X50273990Y-176750666D01*
X48579983Y-64742350D02*
X48632232Y-64709264D01*
X22618479Y-37788174D02*
X22620000Y-37850122D01*
X48019718Y-106448424D02*
X48019623Y-106447942D01*
X22471218Y-176956041D02*
X22499023Y-177011281D01*
X49218174Y-89928479D02*
X49156498Y-89923929D01*
X48140976Y-93191281D02*
X48168781Y-93136041D01*
X48015216Y-78501685D02*
X48014795Y-78501432D01*
X49947767Y-61810735D02*
X49893958Y-61841218D01*
X20540666Y-148636009D02*
X20589420Y-148597960D01*
X34012236Y-188673845D02*
X34025786Y-188734186D01*
X21216498Y-20086070D02*
X21278174Y-20081520D01*
X37665120Y-162306359D02*
X37604186Y-162295786D01*
X20639983Y-64742350D02*
X20692232Y-64709264D01*
X20327960Y-117360579D02*
X20292350Y-117310016D01*
X48346403Y-37003837D02*
X48389047Y-36959047D01*
X49299877Y-148350000D02*
X49361825Y-148351520D01*
X21278174Y-20081520D02*
X21340122Y-20080000D01*
X48016018Y-22622250D02*
X48015624Y-22621957D01*
X21725757Y-145755741D02*
X21666154Y-145772236D01*
X33490016Y-187932350D02*
X33540579Y-187967960D01*
X50535786Y-21094186D02*
X50546359Y-21155120D01*
X48855519Y-89856342D02*
X48797820Y-89834085D01*
X48014795Y-103898567D02*
X48015216Y-103898314D01*
X20366009Y-37050666D02*
X20406403Y-37003837D01*
X34048479Y-189061825D02*
X34043929Y-189123501D01*
X22629888Y-134380136D02*
X22629398Y-134380160D01*
X50380735Y-148962232D02*
X50411218Y-149016041D01*
X34050000Y-21340122D02*
X34050000Y-21359877D01*
X22625204Y-134381432D02*
X22624783Y-134381685D01*
X49606154Y-36627763D02*
X49665757Y-36644258D01*
X33976342Y-161484480D02*
X33954085Y-161542179D01*
X48855519Y-117796342D02*
X48797820Y-117774085D01*
X20449047Y-92839047D02*
X20493837Y-92796403D01*
X48014362Y-48018798D02*
X48014795Y-48018567D01*
X48074258Y-172855757D02*
X48057763Y-172796154D01*
X21033845Y-92507763D02*
X21094186Y-92494213D01*
X48346403Y-61576162D02*
X48306009Y-61529333D01*
X48020000Y-48004413D02*
X48020000Y-37850122D01*
X36603640Y-77035120D02*
X36614213Y-76974186D01*
X22629398Y-162320160D02*
X22628909Y-162320209D01*
X37367820Y-50464085D02*
X37311281Y-50439023D01*
X33680952Y-76329047D02*
X33723596Y-76373837D01*
X49665757Y-190205741D02*
X49606154Y-190222236D01*
X33214480Y-190186342D02*
X33155757Y-190205741D01*
X22595786Y-121424186D02*
X22606359Y-121485120D01*
X50347649Y-176849983D02*
X50380735Y-176902232D01*
X37202232Y-159959264D02*
X37256041Y-159928781D01*
X48018798Y-75954362D02*
X48019008Y-75953918D01*
X48011090Y-22620209D02*
X48010601Y-22620160D01*
X20175914Y-61212179D02*
X20153657Y-61154480D01*
X48741281Y-36710976D02*
X48797820Y-36685914D01*
X50273990Y-61529333D02*
X50233596Y-61576162D01*
X48011575Y-159779718D02*
X48012057Y-159779623D01*
X21605813Y-120434213D02*
X21666154Y-120447763D01*
X20093640Y-37665120D02*
X20104213Y-37604186D01*
X34050000Y-105179877D02*
X34048479Y-105241825D01*
X34036359Y-21544879D02*
X34025786Y-21605813D01*
X36627763Y-189306154D02*
X36614213Y-189245813D01*
X36837960Y-77990579D02*
X36802350Y-77940016D01*
X33802039Y-48529420D02*
X33837649Y-48579983D01*
X48015624Y-48018042D02*
X48016018Y-48017749D01*
X21216498Y-120416070D02*
X21278174Y-120411520D01*
X36837960Y-48529420D02*
X36876009Y-48480666D01*
X48044213Y-60975813D02*
X48033640Y-60914879D01*
X49782179Y-173654085D02*
X49724480Y-173676342D01*
X48019503Y-159772533D02*
X48019623Y-159772057D01*
X48057763Y-177243845D02*
X48074258Y-177184242D01*
X22635586Y-162320000D02*
X22635340Y-162320003D01*
X48019503Y-106447466D02*
X48019361Y-106446997D01*
X22524085Y-145032179D02*
X22499023Y-145088718D01*
X50522236Y-149303845D02*
X50535786Y-149364186D01*
X33328718Y-162199023D02*
X33272179Y-162224085D01*
X50380735Y-121022232D02*
X50411218Y-121076041D01*
X48232350Y-65089983D02*
X48267960Y-65039420D01*
X22620160Y-22629398D02*
X22620136Y-22629888D01*
X37367820Y-76055914D02*
X37425519Y-76033657D01*
X21278174Y-145808479D02*
X21216498Y-145803929D01*
X21605813Y-34025786D02*
X21544879Y-34036359D01*
X33763990Y-22159333D02*
X33723596Y-22206162D01*
X33802039Y-50050579D02*
X33763990Y-50099333D01*
X32913501Y-134373929D02*
X32851825Y-134378479D01*
X48019361Y-134386997D02*
X48019196Y-134386534D01*
X49606154Y-148387763D02*
X49665757Y-148404258D01*
X50273990Y-148810666D02*
X50312039Y-148859420D01*
X22620160Y-75950601D02*
X22620209Y-75951090D01*
X22613929Y-121546498D02*
X22618479Y-121608174D01*
X48013002Y-131839361D02*
X48013465Y-131839196D01*
X22007767Y-36769264D02*
X22060016Y-36802350D01*
X50546359Y-32974879D02*
X50535786Y-33035813D01*
X22372039Y-117360579D02*
X22333990Y-117409333D01*
X50464085Y-61212179D02*
X50439023Y-61268718D01*
X50522236Y-93423845D02*
X50535786Y-93484186D01*
X48232350Y-148909983D02*
X48267960Y-148859420D01*
X48018314Y-162324783D02*
X48018042Y-162324375D01*
X36596070Y-160916498D02*
X36603640Y-160855120D01*
X20081520Y-65728174D02*
X20086070Y-65666498D01*
X22471218Y-145143958D02*
X22440735Y-145197767D01*
X33870735Y-20692232D02*
X33901218Y-20746041D01*
X22635340Y-48019996D02*
X22635586Y-48020000D01*
X49034186Y-89905786D02*
X48973845Y-89892236D01*
X49156498Y-36596070D02*
X49218174Y-36591520D01*
X48011575Y-75959718D02*
X48012057Y-75959623D01*
X21216498Y-145803929D02*
X21155120Y-145796359D01*
X49423501Y-64536070D02*
X49484879Y-64543640D01*
X33272179Y-131935914D02*
X33328718Y-131960976D01*
X22626997Y-162320638D02*
X22626534Y-162320803D01*
X33589333Y-78213990D02*
X33540579Y-78252039D01*
X48014795Y-75958567D02*
X48015216Y-75958314D01*
X50312039Y-145300579D02*
X50273990Y-145349333D01*
X48019718Y-103891575D02*
X48019790Y-103891090D01*
X48115914Y-37367820D02*
X48140976Y-37311281D01*
X49156498Y-34043929D02*
X49095120Y-34036359D01*
X48013465Y-131839196D02*
X48013918Y-131839008D01*
X50505741Y-172855757D02*
X50486342Y-172914480D01*
X33214480Y-131913657D02*
X33272179Y-131935914D01*
X37484242Y-103954258D02*
X37543845Y-103937763D01*
X36603640Y-189184879D02*
X36596070Y-189123501D01*
X36591520Y-160978174D02*
X36596070Y-160916498D01*
X22372039Y-145300579D02*
X22333990Y-145349333D01*
X36769264Y-77887767D02*
X36738781Y-77833958D01*
X22635586Y-131840000D02*
X32789877Y-131840000D01*
X48741281Y-120530976D02*
X48797820Y-120505914D01*
X36959047Y-22250952D02*
X36916403Y-22206162D01*
X33976342Y-21784480D02*
X33954085Y-21842179D01*
X22293596Y-117456162D02*
X22250952Y-117500952D01*
X50553929Y-172613501D02*
X50546359Y-172674879D01*
X22620000Y-116609877D02*
X22618479Y-116671825D01*
X22625637Y-50561201D02*
X22625204Y-50561432D01*
X49218174Y-34048479D02*
X49156498Y-34043929D01*
X20292350Y-33490016D02*
X20259264Y-33437767D01*
X49095120Y-145796359D02*
X49034186Y-145785786D01*
X33723596Y-188133837D02*
X33763990Y-188180666D01*
X33035813Y-22595786D02*
X32974879Y-22606359D01*
X20915519Y-117796342D02*
X20857820Y-117774085D01*
X20540666Y-117583990D02*
X20493837Y-117543596D01*
X22626081Y-103899008D02*
X22626534Y-103899196D01*
X15000496Y-15007466D02*
X15000376Y-15007942D01*
X21784480Y-176363657D02*
X21842179Y-176385914D01*
X20639983Y-120622350D02*
X20692232Y-120589264D01*
X55632057Y-15000376D02*
X55631575Y-15000281D01*
X48018314Y-75955216D02*
X48018567Y-75954795D01*
X48632232Y-173570735D02*
X48579983Y-173537649D01*
X50000016Y-176502350D02*
X50050579Y-176537960D01*
X21842179Y-117774085D02*
X21784480Y-117796342D01*
X21359877Y-61990000D02*
X21340122Y-61990000D01*
X55637749Y-15003981D02*
X55637438Y-15003602D01*
X49606154Y-176327763D02*
X49665757Y-176344258D01*
X48632232Y-36769264D02*
X48686041Y-36738781D01*
X50146162Y-61663596D02*
X50099333Y-61703990D01*
X50050579Y-190012039D02*
X50000016Y-190047649D01*
X37604186Y-134355786D02*
X37543845Y-134342236D01*
X36627763Y-133426154D02*
X36614213Y-133365813D01*
X33636162Y-132166403D02*
X33680952Y-132209047D01*
X37202232Y-187899264D02*
X37256041Y-187868781D01*
X49095120Y-148363640D02*
X49156498Y-148356070D01*
X22407649Y-117310016D02*
X22372039Y-117360579D01*
X36738781Y-105773958D02*
X36710976Y-105718718D01*
X22625204Y-159778567D02*
X22625637Y-159778798D01*
X22629398Y-131839839D02*
X22629888Y-131839863D01*
X20086070Y-88793501D02*
X20081520Y-88731825D01*
X20857820Y-176385914D02*
X20915519Y-176363657D01*
X20801281Y-61869023D02*
X20746041Y-61841218D01*
X55635216Y-195338314D02*
X55635624Y-195338042D01*
X20080000Y-149610122D02*
X20081520Y-149548174D01*
X20915519Y-120483657D02*
X20974242Y-120464258D01*
X37665120Y-20093640D02*
X37726498Y-20086070D01*
X49218174Y-145808479D02*
X49156498Y-145803929D01*
X34012236Y-133426154D02*
X33995741Y-133485757D01*
X49782179Y-145714085D02*
X49724480Y-145736342D01*
X20974242Y-120464258D02*
X21033845Y-120447763D01*
X22621685Y-103895216D02*
X22621957Y-103895624D01*
X48033640Y-149425120D02*
X48044213Y-149364186D01*
X22628909Y-131839790D02*
X22629398Y-131839839D01*
X32974879Y-162306359D02*
X32913501Y-162313929D01*
X33589333Y-20366009D02*
X33636162Y-20406403D01*
X33976342Y-20915519D02*
X33995741Y-20974242D01*
X48011575Y-22620281D02*
X48011090Y-22620209D01*
X48044213Y-93484186D02*
X48057763Y-93423845D01*
X48115914Y-177067820D02*
X48140976Y-177011281D01*
X33589333Y-162033990D02*
X33540579Y-162072039D01*
X37726498Y-78493929D02*
X37665120Y-78486359D01*
X22623602Y-159777438D02*
X22623981Y-159777749D01*
X20292350Y-173190016D02*
X20259264Y-173137767D01*
X32789877Y-159780000D02*
X32851825Y-159781520D01*
X50505741Y-33155757D02*
X50486342Y-33214480D01*
X22620000Y-187704413D02*
X22620003Y-187704659D01*
X22595786Y-60975813D02*
X22582236Y-61036154D01*
X33976342Y-132675519D02*
X33995741Y-132734242D01*
X50522236Y-116916154D02*
X50505741Y-116975757D01*
X48020000Y-78515586D02*
X48019996Y-78515340D01*
X22624375Y-75958042D02*
X22624783Y-75958314D01*
X37050666Y-134093990D02*
X37003837Y-134053596D01*
X48529420Y-176537960D02*
X48579983Y-176502350D01*
X22293596Y-176703837D02*
X22333990Y-176750666D01*
X32789877Y-50560000D02*
X22635586Y-50560000D01*
X48019503Y-78507466D02*
X48019361Y-78506997D01*
X22620638Y-106446997D02*
X22620496Y-106447466D01*
X48019196Y-187713465D02*
X48019361Y-187713002D01*
X15000136Y-195330111D02*
X15000136Y-195330111D01*
X50312039Y-148859420D02*
X50347649Y-148909983D01*
X49280122Y-173750000D02*
X49218174Y-173748479D01*
X48016761Y-106442891D02*
X48016397Y-106442561D01*
X50146162Y-36916403D02*
X50190952Y-36959047D01*
X21605813Y-117845786D02*
X21544879Y-117856359D01*
X20327960Y-120919420D02*
X20366009Y-120870666D01*
X37099420Y-187967960D02*
X37149983Y-187932350D01*
X37788174Y-190258479D02*
X37726498Y-190253929D01*
X48686041Y-117721218D02*
X48632232Y-117690735D01*
X48018567Y-75954795D02*
X48018798Y-75954362D01*
X22110579Y-117622039D02*
X22060016Y-117657649D01*
X50050579Y-89682039D02*
X50000016Y-89717649D01*
X20493837Y-117543596D02*
X20449047Y-117500952D01*
X36802350Y-104459983D02*
X36837960Y-104409420D01*
X33837649Y-188279983D02*
X33870735Y-188332232D01*
X49034186Y-173725786D02*
X48973845Y-173712236D01*
X50099333Y-20366009D02*
X50146162Y-20406403D01*
X34012236Y-132793845D02*
X34025786Y-132854186D01*
X20200976Y-117148718D02*
X20175914Y-117092179D01*
X20366009Y-173289333D02*
X20327960Y-173240579D01*
X22613929Y-60853501D02*
X22606359Y-60914879D01*
X50190952Y-120779047D02*
X50233596Y-120823837D01*
X49782179Y-117774085D02*
X49724480Y-117796342D01*
X33901218Y-133713958D02*
X33870735Y-133767767D01*
X36916403Y-22206162D02*
X36876009Y-22159333D01*
X48855519Y-120483657D02*
X48914242Y-120464258D01*
X36596070Y-21216498D02*
X36603640Y-21155120D01*
X22060016Y-117657649D02*
X22007767Y-117690735D01*
X22620209Y-134388909D02*
X22620160Y-134389398D01*
X48019623Y-50567942D02*
X48019503Y-50567466D01*
X20540666Y-173463990D02*
X20493837Y-173423596D01*
X37311281Y-20200976D02*
X37367820Y-20175914D01*
X36916403Y-188133837D02*
X36959047Y-188089047D01*
X32789877Y-103900000D02*
X32851825Y-103901520D01*
X37099420Y-106192039D02*
X37050666Y-106153990D01*
X48021520Y-177488174D02*
X48026070Y-177426498D01*
X36769264Y-133767767D02*
X36738781Y-133713958D01*
X22440735Y-65142232D02*
X22471218Y-65196041D01*
X20104213Y-121424186D02*
X20117763Y-121363845D01*
X36614213Y-104914186D02*
X36627763Y-104853845D01*
X22623981Y-134382250D02*
X22623602Y-134382561D01*
X22626081Y-22620991D02*
X22625637Y-22621201D01*
X50558479Y-177488174D02*
X50560000Y-177550122D01*
X20086070Y-93606498D02*
X20093640Y-93545120D01*
X21094186Y-176314213D02*
X21155120Y-176303640D01*
X50411218Y-89263958D02*
X50380735Y-89317767D01*
X20200976Y-149071281D02*
X20228781Y-149016041D01*
X22546342Y-177125519D02*
X22565741Y-177184242D01*
X20292350Y-145250016D02*
X20259264Y-145197767D01*
X48018567Y-48014795D02*
X48018798Y-48014362D01*
X33929023Y-188441281D02*
X33954085Y-188497820D01*
X33901218Y-189593958D02*
X33870735Y-189647767D01*
X48306009Y-145349333D02*
X48267960Y-145300579D01*
X22620803Y-103893465D02*
X22620991Y-103893918D01*
X22621957Y-131835624D02*
X22622250Y-131836018D01*
X49423501Y-173743929D02*
X49361825Y-173748479D01*
X22626997Y-187719361D02*
X22627466Y-187719503D01*
X49606154Y-64567763D02*
X49665757Y-64584258D01*
X37149983Y-104112350D02*
X37202232Y-104079264D01*
X22620209Y-48011090D02*
X22620281Y-48011575D01*
X20915519Y-176363657D02*
X20974242Y-176344258D01*
X20081520Y-189061825D02*
X20080000Y-188999877D01*
X32851825Y-134378479D02*
X32789877Y-134380000D01*
X48019863Y-103890111D02*
X48019996Y-103884659D01*
X36959047Y-134010952D02*
X36916403Y-133966162D01*
X48004413Y-78500000D02*
X37850122Y-78500000D01*
X33540579Y-76207960D02*
X33589333Y-76246009D01*
X48011575Y-48019718D02*
X48012057Y-48019623D01*
X50347649Y-33490016D02*
X50312039Y-33540579D01*
X33680952Y-132209047D02*
X33723596Y-132253837D01*
X20366009Y-61529333D02*
X20327960Y-61480579D01*
X48232350Y-93029983D02*
X48267960Y-92979420D01*
X48018798Y-103894362D02*
X48019008Y-103893918D01*
X49665757Y-117815741D02*
X49606154Y-117832236D01*
X22625204Y-22621432D02*
X22624783Y-22621685D01*
X49484879Y-120423640D02*
X49545813Y-120434213D01*
X49484879Y-89916359D02*
X49423501Y-89923929D01*
X36644258Y-160674242D02*
X36663657Y-160615519D01*
X33437767Y-162140735D02*
X33383958Y-162171218D01*
X48033640Y-65605120D02*
X48044213Y-65544186D01*
X15015340Y-15000003D02*
X15009888Y-15000136D01*
X37604186Y-22595786D02*
X37543845Y-22582236D01*
X50464085Y-65307820D02*
X50486342Y-65365519D01*
X32974879Y-48033640D02*
X33035813Y-48044213D01*
X22293596Y-148763837D02*
X22333990Y-148810666D01*
X50146162Y-89603596D02*
X50099333Y-89643990D01*
X22623981Y-159777749D02*
X22624375Y-159778042D01*
X50050579Y-148597960D02*
X50099333Y-148636009D01*
X22628909Y-48019790D02*
X22629398Y-48019839D01*
X34043929Y-49156498D02*
X34048479Y-49218174D01*
X33096154Y-106402236D02*
X33035813Y-106415786D01*
X15000991Y-15006081D02*
X15000803Y-15006534D01*
X49893958Y-61841218D02*
X49838718Y-61869023D01*
X20117763Y-37543845D02*
X20134258Y-37484242D01*
X33837649Y-48579983D02*
X33870735Y-48632232D01*
X34043929Y-188856498D02*
X34048479Y-188918174D01*
X48306009Y-37050666D02*
X48346403Y-37003837D01*
X48632232Y-61810735D02*
X48579983Y-61777649D01*
X37367820Y-48115914D02*
X37425519Y-48093657D01*
X20493837Y-176616403D02*
X20540666Y-176576009D01*
X37665120Y-159793640D02*
X37726498Y-159786070D01*
X48014362Y-159778798D02*
X48014795Y-159778567D01*
X36590000Y-188980122D02*
X36591520Y-188918174D01*
X49838718Y-89809023D02*
X49782179Y-89834085D01*
X48015624Y-187718042D02*
X48016018Y-187717749D01*
X49782179Y-33954085D02*
X49724480Y-33976342D01*
X22582236Y-121363845D02*
X22595786Y-121424186D01*
X20746041Y-61841218D02*
X20692232Y-61810735D01*
X22618479Y-88731825D02*
X22613929Y-88793501D01*
X48232350Y-173190016D02*
X48199264Y-173137767D01*
X48632232Y-117690735D02*
X48579983Y-117657649D01*
X37099420Y-50312039D02*
X37050666Y-50273990D01*
X15005637Y-195338798D02*
X15006081Y-195339008D01*
X33155757Y-187774258D02*
X33214480Y-187793657D01*
X20449047Y-20449047D02*
X20493837Y-20406403D01*
X50190952Y-36959047D02*
X50233596Y-37003837D01*
X21784480Y-120483657D02*
X21842179Y-120505914D01*
X21340122Y-145810000D02*
X21278174Y-145808479D01*
X48093657Y-121245519D02*
X48115914Y-121187820D01*
X48018567Y-22625204D02*
X48018314Y-22624783D01*
X49361825Y-36591520D02*
X49423501Y-36596070D01*
X37788174Y-103901520D02*
X37850122Y-103900000D01*
X22499023Y-117148718D02*
X22471218Y-117203958D01*
X33636162Y-22293596D02*
X33589333Y-22333990D01*
X50486342Y-121245519D02*
X50505741Y-121304242D01*
X15005204Y-15001432D02*
X15004783Y-15001685D01*
X49280122Y-176290000D02*
X49299877Y-176290000D01*
X48017749Y-106443981D02*
X48017438Y-106443602D01*
X22623238Y-103897108D02*
X22623602Y-103897438D01*
X50050579Y-36837960D02*
X50099333Y-36876009D01*
X36614213Y-77485813D02*
X36603640Y-77424879D01*
X48057763Y-172796154D02*
X48044213Y-172735813D01*
X36876009Y-160240666D02*
X36916403Y-160193837D01*
X50411218Y-173083958D02*
X50380735Y-173137767D01*
X36591520Y-161121825D02*
X36590000Y-161059877D01*
X48019196Y-159773465D02*
X48019361Y-159773002D01*
X22440735Y-93082232D02*
X22471218Y-93136041D01*
X33954085Y-132617820D02*
X33976342Y-132675519D01*
X33437767Y-134200735D02*
X33383958Y-134231218D01*
X33870735Y-22007767D02*
X33837649Y-22060016D01*
X20081520Y-32851825D02*
X20080000Y-32789877D01*
X22250952Y-33680952D02*
X22206162Y-33723596D01*
X22621685Y-134384783D02*
X22621432Y-134385204D01*
X22060016Y-148562350D02*
X22110579Y-148597960D01*
X48020000Y-60729877D02*
X48020000Y-50575586D01*
X36710976Y-133658718D02*
X36685914Y-133602179D01*
X20366009Y-176750666D02*
X20406403Y-176703837D01*
X48232350Y-120969983D02*
X48267960Y-120919420D01*
X48010111Y-48019863D02*
X48010111Y-48019863D01*
X36663657Y-189424480D02*
X36644258Y-189365757D01*
X22621432Y-103894795D02*
X22621685Y-103895216D01*
X22333990Y-64990666D02*
X22372039Y-65039420D01*
X48012533Y-50560496D02*
X48012057Y-50560376D01*
X48168781Y-176956041D02*
X48199264Y-176902232D01*
X36663657Y-104735519D02*
X36685914Y-104677820D01*
X33723596Y-76373837D02*
X33763990Y-76420666D01*
X36802350Y-189700016D02*
X36769264Y-189647767D01*
X22622891Y-134383238D02*
X22622561Y-134383602D01*
X49034186Y-92494213D02*
X49095120Y-92483640D01*
X36590000Y-21340122D02*
X36591520Y-21278174D01*
X50505741Y-65424242D02*
X50522236Y-65483845D01*
X20228781Y-65196041D02*
X20259264Y-65142232D01*
X22620281Y-187711575D02*
X22620376Y-187712057D01*
X48973845Y-36627763D02*
X49034186Y-36614213D01*
X22625204Y-106441432D02*
X22624783Y-106441685D01*
X22627466Y-187719503D02*
X22627942Y-187719623D01*
X33976342Y-105604480D02*
X33954085Y-105662179D01*
X22623981Y-106442250D02*
X22623602Y-106442561D01*
X48019790Y-131831090D02*
X48019839Y-131830601D01*
X21898718Y-33929023D02*
X21842179Y-33954085D01*
X20081520Y-88731825D02*
X20080000Y-88669877D01*
X48033640Y-93545120D02*
X48044213Y-93484186D01*
X22440735Y-89317767D02*
X22407649Y-89370016D01*
X49545813Y-190235786D02*
X49484879Y-190246359D01*
X22635586Y-50560000D02*
X22635340Y-50560003D01*
X20134258Y-89035757D02*
X20117763Y-88976154D01*
X48017749Y-131836018D02*
X48018042Y-131835624D01*
X48014362Y-22621201D02*
X48013918Y-22620991D01*
X48014362Y-103898798D02*
X48014795Y-103898567D01*
X48013918Y-22620991D02*
X48013465Y-22620803D01*
X21033845Y-34012236D02*
X20974242Y-33995741D01*
X49299877Y-20080000D02*
X49361825Y-20081520D01*
X33540579Y-78252039D02*
X33490016Y-78287649D01*
X22206162Y-92796403D02*
X22250952Y-92839047D01*
X48021520Y-121608174D02*
X48026070Y-121546498D01*
X50347649Y-93029983D02*
X50380735Y-93082232D01*
X48018798Y-162325637D02*
X48018567Y-162325204D01*
X49484879Y-36603640D02*
X49545813Y-36614213D01*
X37484242Y-106385741D02*
X37425519Y-106366342D01*
X22628424Y-48019718D02*
X22628909Y-48019790D01*
X22628424Y-131839718D02*
X22628909Y-131839790D01*
X48013465Y-75959196D02*
X48013918Y-75959008D01*
X21359877Y-173750000D02*
X21340122Y-173750000D01*
X48741281Y-33929023D02*
X48686041Y-33901218D01*
X33490016Y-132052350D02*
X33540579Y-132087960D01*
X36959047Y-20449047D02*
X37003837Y-20406403D01*
X22620803Y-162326534D02*
X22620638Y-162326997D01*
X21359877Y-92470000D02*
X21359877Y-92470000D01*
X22622250Y-162323981D02*
X22621957Y-162324375D01*
X15003602Y-195337438D02*
X15003981Y-195337749D01*
X20639983Y-33837649D02*
X20589420Y-33802039D01*
X20639983Y-36802350D02*
X20692232Y-36769264D01*
X49034186Y-145785786D02*
X48973845Y-145772236D01*
X48389047Y-173380952D02*
X48346403Y-173336162D01*
X22620136Y-159770111D02*
X22620160Y-159770601D01*
X22407649Y-89370016D02*
X22372039Y-89420579D01*
X49095120Y-34036359D02*
X49034186Y-34025786D01*
X22620160Y-106449398D02*
X22620136Y-106449888D01*
X33723596Y-78086162D02*
X33680952Y-78130952D01*
X22621957Y-50564375D02*
X22621685Y-50564783D01*
X37604186Y-187744213D02*
X37665120Y-187733640D01*
X33680952Y-78130952D02*
X33636162Y-78173596D01*
X48019623Y-78507942D02*
X48019503Y-78507466D01*
X33328718Y-50439023D02*
X33272179Y-50464085D01*
X48021520Y-37788174D02*
X48026070Y-37726498D01*
X55639718Y-195331575D02*
X55639790Y-195331090D01*
X33490016Y-20292350D02*
X33540579Y-20327960D01*
X50099333Y-89643990D02*
X50050579Y-89682039D01*
X33763990Y-189799333D02*
X33723596Y-189846162D01*
X50535786Y-116855813D02*
X50522236Y-116916154D01*
X49838718Y-120530976D02*
X49893958Y-120558781D01*
X20175914Y-145032179D02*
X20153657Y-144974480D01*
X37050666Y-104186009D02*
X37099420Y-104147960D01*
X37311281Y-190139023D02*
X37256041Y-190111218D01*
X36802350Y-160339983D02*
X36837960Y-160289420D01*
X37256041Y-187868781D02*
X37311281Y-187840976D01*
X55640000Y-195324413D02*
X55640000Y-15015586D01*
X48010111Y-103899863D02*
X48010111Y-103899863D01*
X22625637Y-131838798D02*
X22626081Y-131839008D01*
X50099333Y-92756009D02*
X50146162Y-92796403D01*
X48168781Y-173083958D02*
X48140976Y-173028718D01*
X20974242Y-173695741D02*
X20915519Y-173676342D01*
X48797820Y-148445914D02*
X48855519Y-148423657D01*
X48017108Y-162323238D02*
X48016761Y-162322891D01*
X48020000Y-131824413D02*
X48020000Y-121670122D01*
X50347649Y-145250016D02*
X50312039Y-145300579D01*
X48014362Y-75958798D02*
X48014795Y-75958567D01*
X20857820Y-148445914D02*
X20915519Y-148423657D01*
X20259264Y-117257767D02*
X20228781Y-117203958D01*
X22622891Y-106443238D02*
X22622561Y-106443602D01*
X22624375Y-22621957D02*
X22623981Y-22622250D01*
X48389047Y-145440952D02*
X48346403Y-145396162D01*
X37726498Y-190253929D02*
X37665120Y-190246359D01*
X36591520Y-133038174D02*
X36596070Y-132976498D01*
X22407649Y-93029983D02*
X22440735Y-93082232D01*
X50486342Y-144974480D02*
X50464085Y-145032179D01*
X48016018Y-50562250D02*
X48015624Y-50561957D01*
X22621685Y-78504783D02*
X22621432Y-78505204D01*
X50553929Y-177426498D02*
X50558479Y-177488174D01*
X20175914Y-117092179D02*
X20153657Y-117034480D01*
X48011090Y-48019790D02*
X48011575Y-48019718D01*
X50486342Y-189424480D02*
X50464085Y-189482179D01*
X22618479Y-93668174D02*
X22620000Y-93730122D01*
X49156498Y-117863929D02*
X49095120Y-117856359D01*
X22606359Y-65605120D02*
X22613929Y-65666498D01*
X20589420Y-61742039D02*
X20540666Y-61703990D01*
X48011090Y-187719790D02*
X48011575Y-187719718D01*
X50050579Y-20327960D02*
X50099333Y-20366009D01*
X21155120Y-34036359D02*
X21094186Y-34025786D01*
X48346403Y-89516162D02*
X48306009Y-89469333D01*
X48010601Y-106440160D02*
X48010111Y-106440136D01*
X49361825Y-61988479D02*
X49299877Y-61990000D01*
X22623238Y-187717108D02*
X22623602Y-187717438D01*
X22624783Y-162321685D02*
X22624375Y-162321957D01*
X49034186Y-176314213D02*
X49095120Y-176303640D01*
X48019996Y-48004659D02*
X48020000Y-48004413D01*
X22110579Y-33802039D02*
X22060016Y-33837649D01*
X55632533Y-195339503D02*
X55633002Y-195339361D01*
X48074258Y-121304242D02*
X48093657Y-121245519D01*
X22620638Y-48013002D02*
X22620803Y-48013465D01*
X36876009Y-50099333D02*
X36837960Y-50050579D01*
X22618479Y-149548174D02*
X22620000Y-149610122D01*
X22621685Y-22624783D02*
X22621432Y-22625204D01*
X21216498Y-117863929D02*
X21155120Y-117856359D01*
X22471218Y-173083958D02*
X22440735Y-173137767D01*
X22624783Y-103898314D02*
X22625204Y-103898567D01*
X48019996Y-103884659D02*
X48020000Y-103884413D01*
X48973845Y-89892236D02*
X48914242Y-89875741D01*
X48480666Y-92756009D02*
X48529420Y-92717960D01*
X48018314Y-134384783D02*
X48018042Y-134384375D01*
X22620991Y-162326081D02*
X22620803Y-162326534D01*
X22582236Y-93423845D02*
X22595786Y-93484186D01*
X33437767Y-78320735D02*
X33383958Y-78351218D01*
X22628909Y-106440209D02*
X22628424Y-106440281D01*
X37850122Y-134380000D02*
X37788174Y-134378479D01*
X48020000Y-22635586D02*
X48019996Y-22635340D01*
X48010111Y-187719863D02*
X48010601Y-187719839D01*
X50146162Y-145483596D02*
X50099333Y-145523990D01*
X48346403Y-176703837D02*
X48389047Y-176659047D01*
X48019008Y-50566081D02*
X48018798Y-50565637D01*
X50464085Y-93247820D02*
X50486342Y-93305519D01*
X37099420Y-162072039D02*
X37050666Y-162033990D01*
X22623981Y-78502250D02*
X22623602Y-78502561D01*
X49218174Y-117868479D02*
X49156498Y-117863929D01*
X20327960Y-173240579D02*
X20292350Y-173190016D01*
X48018042Y-103895624D02*
X48018314Y-103895216D01*
X37003837Y-22293596D02*
X36959047Y-22250952D01*
X22628424Y-187719718D02*
X22628909Y-187719790D01*
X48013465Y-103899196D02*
X48013918Y-103899008D01*
X22625637Y-106441201D02*
X22625204Y-106441432D01*
X22618479Y-32851825D02*
X22613929Y-32913501D01*
X48013002Y-103899361D02*
X48013465Y-103899196D01*
X48017108Y-187716761D02*
X48017438Y-187716397D01*
X37050666Y-132126009D02*
X37099420Y-132087960D01*
X48016397Y-48017438D02*
X48016761Y-48017108D01*
X22565741Y-121304242D02*
X22582236Y-121363845D01*
X20366009Y-145349333D02*
X20327960Y-145300579D01*
X48973845Y-173712236D02*
X48914242Y-173695741D01*
X48004659Y-134380003D02*
X48004413Y-134380000D01*
X48057763Y-149303845D02*
X48074258Y-149244242D01*
X20540666Y-64816009D02*
X20589420Y-64777960D01*
X48014795Y-162321432D02*
X48014362Y-162321201D01*
X50439023Y-189538718D02*
X50411218Y-189593958D01*
X55639008Y-15006081D02*
X55638798Y-15005637D01*
X20746041Y-36738781D02*
X20801281Y-36710976D01*
X21278174Y-89928479D02*
X21216498Y-89923929D01*
X37425519Y-76033657D02*
X37484242Y-76014258D01*
X20117763Y-65483845D02*
X20134258Y-65424242D01*
X36876009Y-188180666D02*
X36916403Y-188133837D01*
X21278174Y-92471520D02*
X21340122Y-92470000D01*
X15001957Y-195335624D02*
X15002250Y-195336018D01*
X22499023Y-65251281D02*
X22524085Y-65307820D01*
X21483501Y-145803929D02*
X21421825Y-145808479D01*
X20153657Y-144974480D02*
X20134258Y-144915757D01*
X15000638Y-15006997D02*
X15000496Y-15007466D01*
X20639983Y-61777649D02*
X20589420Y-61742039D01*
X22582236Y-33096154D02*
X22565741Y-33155757D01*
X22622561Y-75956397D02*
X22622891Y-75956761D01*
X33995741Y-21725757D02*
X33976342Y-21784480D01*
X33272179Y-76055914D02*
X33328718Y-76080976D01*
X48914242Y-33995741D02*
X48855519Y-33976342D01*
X20200976Y-20801281D02*
X20228781Y-20746041D01*
X22471218Y-93136041D02*
X22499023Y-93191281D01*
X36802350Y-188279983D02*
X36837960Y-188229420D01*
X20228781Y-173083958D02*
X20200976Y-173028718D01*
X48389047Y-33680952D02*
X48346403Y-33636162D01*
X34036359Y-189184879D02*
X34025786Y-189245813D01*
X37788174Y-78498479D02*
X37726498Y-78493929D01*
X48016761Y-159777108D02*
X48017108Y-159776761D01*
X22565741Y-33155757D02*
X22546342Y-33214480D01*
X33328718Y-78379023D02*
X33272179Y-78404085D01*
X48033640Y-121485120D02*
X48044213Y-121424186D01*
X20540666Y-20366009D02*
X20589420Y-20327960D01*
X36710976Y-189538718D02*
X36685914Y-189482179D01*
X48019503Y-162327466D02*
X48019361Y-162326997D01*
X20493837Y-20406403D02*
X20540666Y-20366009D01*
X22206162Y-33723596D02*
X22159333Y-33763990D01*
X22060016Y-145597649D02*
X22007767Y-145630735D01*
X37311281Y-159900976D02*
X37367820Y-159875914D01*
X22206162Y-148676403D02*
X22250952Y-148719047D01*
X20639983Y-190047649D02*
X20589420Y-190012039D01*
X48579983Y-148562350D02*
X48632232Y-148529264D01*
X22620991Y-159773918D02*
X22621201Y-159774362D01*
X22626081Y-159779008D02*
X22626534Y-159779196D01*
X33976342Y-49724480D02*
X33954085Y-49782179D01*
X21278174Y-120411520D02*
X21340122Y-120410000D01*
X48011090Y-131839790D02*
X48011575Y-131839718D01*
X50486342Y-20915519D02*
X50505741Y-20974242D01*
X15008909Y-195339790D02*
X15009398Y-195339839D01*
X50273990Y-145349333D02*
X50233596Y-145396162D01*
X48004413Y-162320000D02*
X37850122Y-162320000D01*
X22206162Y-61663596D02*
X22159333Y-61703990D01*
X22159333Y-64816009D02*
X22206162Y-64856403D01*
X22624375Y-131838042D02*
X22624783Y-131838314D01*
X22621201Y-131834362D02*
X22621432Y-131834795D01*
X37665120Y-187733640D02*
X37726498Y-187726070D01*
X36644258Y-77605757D02*
X36627763Y-77546154D01*
X50273990Y-189799333D02*
X50233596Y-189846162D01*
X20915519Y-92543657D02*
X20974242Y-92524258D01*
X48480666Y-117583990D02*
X48433837Y-117543596D01*
X36710976Y-104621281D02*
X36738781Y-104566041D01*
X48797820Y-173654085D02*
X48741281Y-173629023D01*
X20153657Y-117034480D02*
X20134258Y-116975757D01*
X36685914Y-104677820D02*
X36710976Y-104621281D01*
X33155757Y-48074258D02*
X33214480Y-48093657D01*
X22623602Y-162322561D02*
X22623238Y-162322891D01*
X36663657Y-49724480D02*
X36644258Y-49665757D01*
X48019996Y-22635340D02*
X48019863Y-22629888D01*
X15006081Y-195339008D02*
X15006534Y-195339196D01*
X22620000Y-32789877D02*
X22618479Y-32851825D01*
X36591520Y-49218174D02*
X36596070Y-49156498D01*
X50558479Y-93668174D02*
X50560000Y-93730122D01*
X48016397Y-159777438D02*
X48016761Y-159777108D01*
X33490016Y-190047649D02*
X33437767Y-190080735D01*
X22625204Y-131838567D02*
X22625637Y-131838798D01*
X48018314Y-131835216D02*
X48018567Y-131834795D01*
X33035813Y-190235786D02*
X32974879Y-190246359D01*
X33802039Y-133870579D02*
X33763990Y-133919333D01*
X48017108Y-78503238D02*
X48016761Y-78502891D01*
X33214480Y-48093657D02*
X33272179Y-48115914D01*
X49893958Y-120558781D02*
X49947767Y-120589264D01*
X20093640Y-177365120D02*
X20104213Y-177304186D01*
X20081520Y-60791825D02*
X20080000Y-60729877D01*
X37311281Y-104020976D02*
X37367820Y-103995914D01*
X50190952Y-176659047D02*
X50233596Y-176703837D01*
X33837649Y-161760016D02*
X33802039Y-161810579D01*
X48019863Y-162329888D02*
X48019839Y-162329398D01*
X37099420Y-78252039D02*
X37050666Y-78213990D01*
X22626081Y-50560991D02*
X22625637Y-50561201D01*
X48020000Y-144549877D02*
X48020000Y-134395586D01*
X21483501Y-64536070D02*
X21544879Y-64543640D01*
X22595786Y-65544186D02*
X22606359Y-65605120D01*
X48019196Y-75953465D02*
X48019361Y-75953002D01*
X32851825Y-103901520D02*
X32913501Y-103906070D01*
X50535786Y-149364186D02*
X50546359Y-149425120D01*
X37543845Y-187757763D02*
X37604186Y-187744213D01*
X36590000Y-161059877D02*
X36590000Y-161040122D01*
X22582236Y-177243845D02*
X22595786Y-177304186D01*
X34043929Y-77363501D02*
X34036359Y-77424879D01*
X33540579Y-48267960D02*
X33589333Y-48306009D01*
X33035813Y-75984213D02*
X33096154Y-75997763D01*
X48433837Y-145483596D02*
X48389047Y-145440952D01*
X37202232Y-104079264D02*
X37256041Y-104048781D01*
X49423501Y-120416070D02*
X49484879Y-120423640D01*
X20915519Y-36663657D02*
X20974242Y-36644258D01*
X37850122Y-75960000D02*
X48004413Y-75960000D01*
X55639623Y-195332057D02*
X55639718Y-195331575D01*
X21359877Y-34050000D02*
X21340122Y-34050000D01*
X48115914Y-89152179D02*
X48093657Y-89094480D01*
X22293596Y-33636162D02*
X22250952Y-33680952D01*
X22159333Y-145523990D02*
X22110579Y-145562039D01*
X48017108Y-134383238D02*
X48016761Y-134382891D01*
X48018042Y-78504375D02*
X48017749Y-78503981D01*
X32913501Y-190253929D02*
X32851825Y-190258479D01*
X21033845Y-173712236D02*
X20974242Y-173695741D01*
X50558479Y-149548174D02*
X50560000Y-149610122D01*
X48018042Y-50564375D02*
X48017749Y-50563981D01*
X34050000Y-77239877D02*
X34048479Y-77301825D01*
X48019839Y-187710601D02*
X48019863Y-187710111D01*
X50558479Y-37788174D02*
X50560000Y-37850122D01*
X48018314Y-48015216D02*
X48018567Y-48014795D01*
X55633918Y-15000991D02*
X55633465Y-15000803D01*
X22625637Y-159778798D02*
X22626081Y-159779008D01*
X21155120Y-64543640D02*
X21216498Y-64536070D01*
X48014362Y-187718798D02*
X48014795Y-187718567D01*
X37311281Y-131960976D02*
X37367820Y-131935914D01*
X21898718Y-92590976D02*
X21953958Y-92618781D01*
X33437767Y-50380735D02*
X33383958Y-50411218D01*
X33589333Y-134093990D02*
X33540579Y-134132039D01*
X22471218Y-117203958D02*
X22440735Y-117257767D01*
X20493837Y-120736403D02*
X20540666Y-120696009D01*
X49893958Y-36738781D02*
X49947767Y-36769264D01*
X20857820Y-33954085D02*
X20801281Y-33929023D01*
X50486342Y-149185519D02*
X50505741Y-149244242D01*
X15015586Y-195340000D02*
X55624413Y-195340000D01*
X21605813Y-176314213D02*
X21666154Y-176327763D01*
X37202232Y-76139264D02*
X37256041Y-76108781D01*
X22626997Y-159779361D02*
X22627466Y-159779503D01*
X20104213Y-33035813D02*
X20093640Y-32974879D01*
X33155757Y-134325741D02*
X33096154Y-134342236D01*
X48433837Y-33723596D02*
X48389047Y-33680952D01*
X33155757Y-162265741D02*
X33096154Y-162282236D01*
X21666154Y-89892236D02*
X21605813Y-89905786D01*
X32913501Y-106433929D02*
X32851825Y-106438479D01*
X22621432Y-131834795D02*
X22621685Y-131835216D01*
X48093657Y-37425519D02*
X48115914Y-37367820D01*
X20292350Y-93029983D02*
X20327960Y-92979420D01*
X22627942Y-75959623D02*
X22628424Y-75959718D01*
X55638314Y-15004783D02*
X55638042Y-15004375D01*
X22624783Y-48018314D02*
X22625204Y-48018567D01*
X37256041Y-134231218D02*
X37202232Y-134200735D01*
X21842179Y-120505914D02*
X21898718Y-120530976D01*
X20080000Y-177550122D02*
X20081520Y-177488174D01*
X22524085Y-172972179D02*
X22499023Y-173028718D01*
X33802039Y-132349420D02*
X33837649Y-132399983D01*
X34025786Y-21605813D02*
X34012236Y-21666154D01*
X36596070Y-161183501D02*
X36591520Y-161121825D01*
X22635340Y-75959996D02*
X22635586Y-75960000D01*
X20589420Y-89682039D02*
X20540666Y-89643990D01*
X33272179Y-103995914D02*
X33328718Y-104020976D01*
X37099420Y-76207960D02*
X37149983Y-76172350D01*
X48480666Y-36876009D02*
X48529420Y-36837960D01*
X33383958Y-162171218D02*
X33328718Y-162199023D01*
X22372039Y-33540579D02*
X22333990Y-33589333D01*
X20801281Y-120530976D02*
X20857820Y-120505914D01*
X48797820Y-64625914D02*
X48855519Y-64603657D01*
X48017438Y-75956397D02*
X48017749Y-75956018D01*
X22372039Y-148859420D02*
X22407649Y-148909983D01*
X21359877Y-176290000D02*
X21359877Y-176290000D01*
X32913501Y-131846070D02*
X32974879Y-131853640D01*
X37788174Y-134378479D02*
X37726498Y-134373929D01*
X36876009Y-132300666D02*
X36916403Y-132253837D01*
X50146162Y-33723596D02*
X50099333Y-33763990D01*
X50000016Y-20292350D02*
X50050579Y-20327960D01*
X20134258Y-116975757D02*
X20117763Y-116916154D01*
X50000016Y-33837649D02*
X49947767Y-33870735D01*
X20801281Y-145689023D02*
X20746041Y-145661218D01*
X50411218Y-93136041D02*
X50439023Y-93191281D01*
X48017749Y-134383981D02*
X48017438Y-134383602D01*
X33490016Y-76172350D02*
X33540579Y-76207960D01*
X37099420Y-104147960D02*
X37149983Y-104112350D01*
X22620136Y-48010111D02*
X22620136Y-48010111D01*
X33723596Y-160193837D02*
X33763990Y-160240666D01*
X50535786Y-37604186D02*
X50546359Y-37665120D01*
X20493837Y-33723596D02*
X20449047Y-33680952D01*
X22624375Y-50561957D02*
X22623981Y-50562250D01*
X21605813Y-89905786D02*
X21544879Y-89916359D01*
X37003837Y-20406403D02*
X37050666Y-20366009D01*
X49280122Y-145810000D02*
X49218174Y-145808479D01*
X22582236Y-88976154D02*
X22565741Y-89035757D01*
X33802039Y-188229420D02*
X33837649Y-188279983D01*
X36614213Y-133365813D02*
X36603640Y-133304879D01*
X50486342Y-89094480D02*
X50464085Y-89152179D01*
X20327960Y-176799420D02*
X20366009Y-176750666D01*
X48914242Y-61935741D02*
X48855519Y-61916342D01*
X48019196Y-103893465D02*
X48019361Y-103893002D01*
X15001432Y-15005204D02*
X15001201Y-15005637D01*
X22372039Y-176799420D02*
X22407649Y-176849983D01*
X36603640Y-21155120D02*
X36614213Y-21094186D01*
X48529420Y-64777960D02*
X48579983Y-64742350D01*
X20292350Y-120969983D02*
X20327960Y-120919420D01*
X49838718Y-36710976D02*
X49893958Y-36738781D01*
X50546359Y-144734879D02*
X50535786Y-144795813D01*
X37850122Y-103900000D02*
X48004413Y-103900000D01*
X48019008Y-187713918D02*
X48019196Y-187713465D01*
X21421825Y-61988479D02*
X21359877Y-61990000D01*
X50505741Y-189365757D02*
X50486342Y-189424480D01*
X55638567Y-15005204D02*
X55638314Y-15004783D01*
X36644258Y-48914242D02*
X36663657Y-48855519D01*
X22624783Y-50561685D02*
X22624375Y-50561957D01*
X20086070Y-189123501D02*
X20081520Y-189061825D01*
X22621201Y-187714362D02*
X22621432Y-187714795D01*
X33636162Y-78173596D02*
X33589333Y-78213990D01*
X22620638Y-50566997D02*
X22620496Y-50567466D01*
X50099333Y-61703990D02*
X50050579Y-61742039D01*
X21483501Y-120416070D02*
X21544879Y-120423640D01*
X21216498Y-92476070D02*
X21278174Y-92471520D01*
X48115914Y-65307820D02*
X48140976Y-65251281D01*
X37202232Y-132019264D02*
X37256041Y-131988781D01*
X21033845Y-148387763D02*
X21094186Y-148374213D01*
X50411218Y-117203958D02*
X50380735Y-117257767D01*
X50380735Y-89317767D02*
X50347649Y-89370016D01*
X33490016Y-159992350D02*
X33540579Y-160027960D01*
X22620991Y-75953918D02*
X22621201Y-75954362D01*
X21421825Y-36591520D02*
X21483501Y-36596070D01*
X48019623Y-159772057D02*
X48019718Y-159771575D01*
X49218174Y-36591520D02*
X49280122Y-36590000D01*
X22629888Y-187719863D02*
X22635340Y-187719996D01*
X21898718Y-36710976D02*
X21953958Y-36738781D01*
X48019623Y-131832057D02*
X48019718Y-131831575D01*
X21842179Y-173654085D02*
X21784480Y-173676342D01*
X50464085Y-117092179D02*
X50439023Y-117148718D01*
X20449047Y-148719047D02*
X20493837Y-148676403D01*
X36959047Y-76329047D02*
X37003837Y-76286403D01*
X33680952Y-50190952D02*
X33636162Y-50233596D01*
X22621685Y-131835216D02*
X22621957Y-131835624D01*
X34025786Y-132854186D02*
X34036359Y-132915120D01*
X37099420Y-22372039D02*
X37050666Y-22333990D01*
X48010111Y-162320136D02*
X48004659Y-162320003D01*
X22206162Y-117543596D02*
X22159333Y-117583990D01*
X49724480Y-120483657D02*
X49782179Y-120505914D01*
X22627942Y-159779623D02*
X22628424Y-159779718D01*
X22621685Y-159775216D02*
X22621957Y-159775624D01*
X49034186Y-64554213D02*
X49095120Y-64543640D01*
X32913501Y-22613929D02*
X32851825Y-22618479D01*
X48433837Y-120736403D02*
X48480666Y-120696009D01*
X50146162Y-173423596D02*
X50099333Y-173463990D01*
X48019790Y-187711090D02*
X48019839Y-187710601D01*
X33995741Y-189365757D02*
X33976342Y-189424480D01*
X33976342Y-189424480D02*
X33954085Y-189482179D01*
X37256041Y-20228781D02*
X37311281Y-20200976D01*
X36685914Y-49782179D02*
X36663657Y-49724480D01*
X36738781Y-188386041D02*
X36769264Y-188332232D01*
X33636162Y-160106403D02*
X33680952Y-160149047D01*
X49545813Y-173725786D02*
X49484879Y-173736359D01*
X48014362Y-106441201D02*
X48013918Y-106440991D01*
X36959047Y-104269047D02*
X37003837Y-104226403D01*
X48015216Y-48018314D02*
X48015624Y-48018042D01*
X55639361Y-195333002D02*
X55639503Y-195332533D01*
X50546359Y-172674879D02*
X50535786Y-172735813D01*
X55639196Y-15006534D02*
X55639008Y-15006081D01*
X48019996Y-106455340D02*
X48019863Y-106449888D01*
X48019790Y-134388909D02*
X48019718Y-134388424D01*
X49545813Y-120434213D02*
X49606154Y-120447763D01*
X20228781Y-20746041D02*
X20259264Y-20692232D01*
X22620209Y-50568909D02*
X22620160Y-50569398D01*
X36769264Y-160392232D02*
X36802350Y-160339983D01*
X22623238Y-131837108D02*
X22623602Y-131837438D01*
X20134258Y-189365757D02*
X20117763Y-189306154D01*
X50347649Y-20639983D02*
X50380735Y-20692232D01*
X36663657Y-48855519D02*
X36685914Y-48797820D01*
X49280122Y-92470000D02*
X49299877Y-92470000D01*
X22620638Y-131833002D02*
X22620803Y-131833465D01*
X49299877Y-120410000D02*
X49361825Y-120411520D01*
X22620803Y-106446534D02*
X22620638Y-106446997D01*
X48026070Y-32913501D02*
X48021520Y-32851825D01*
X50439023Y-117148718D02*
X50411218Y-117203958D01*
X37050666Y-50273990D02*
X37003837Y-50233596D01*
X48433837Y-92796403D02*
X48480666Y-92756009D01*
X15004783Y-195338314D02*
X15005204Y-195338567D01*
X32913501Y-20086070D02*
X32974879Y-20093640D01*
X48016397Y-75957438D02*
X48016761Y-75957108D01*
X49947767Y-148529264D02*
X50000016Y-148562350D01*
X22626997Y-78500638D02*
X22626534Y-78500803D01*
X36627763Y-188673845D02*
X36644258Y-188614242D01*
X48480666Y-148636009D02*
X48529420Y-148597960D01*
X37050666Y-106153990D02*
X37003837Y-106113596D01*
X37202232Y-22440735D02*
X37149983Y-22407649D01*
X48013465Y-106440803D02*
X48013002Y-106440638D01*
X15002561Y-195336397D02*
X15002891Y-195336761D01*
X48019996Y-50575340D02*
X48019863Y-50569888D01*
X36916403Y-78086162D02*
X36876009Y-78039333D01*
X48914242Y-117815741D02*
X48855519Y-117796342D01*
X48013002Y-134380638D02*
X48012533Y-134380496D01*
X22620209Y-159771090D02*
X22620281Y-159771575D01*
X50505741Y-144915757D02*
X50486342Y-144974480D01*
X22620000Y-162335586D02*
X22620000Y-172489877D01*
X37543845Y-75997763D02*
X37604186Y-75984213D01*
X20692232Y-173570735D02*
X20639983Y-173537649D01*
X22606359Y-88854879D02*
X22595786Y-88915813D01*
X22620638Y-103893002D02*
X22620803Y-103893465D01*
X36596070Y-105036498D02*
X36603640Y-104975120D01*
X37604186Y-162295786D02*
X37543845Y-162282236D01*
X37850122Y-159780000D02*
X48004413Y-159780000D01*
X48019008Y-22626081D02*
X48018798Y-22625637D01*
X48797820Y-145714085D02*
X48741281Y-145689023D01*
X48199264Y-148962232D02*
X48232350Y-148909983D01*
X33802039Y-104409420D02*
X33837649Y-104459983D01*
X22293596Y-64943837D02*
X22333990Y-64990666D01*
X37850122Y-106440000D02*
X37788174Y-106438479D01*
X33901218Y-104566041D02*
X33929023Y-104621281D01*
X48686041Y-33901218D02*
X48632232Y-33870735D01*
X48017749Y-162323981D02*
X48017438Y-162323602D01*
X50486342Y-65365519D02*
X50505741Y-65424242D01*
X33096154Y-78462236D02*
X33035813Y-78475786D01*
X55633918Y-195339008D02*
X55634362Y-195338798D01*
X21216498Y-89923929D02*
X21155120Y-89916359D01*
X20406403Y-189846162D02*
X20366009Y-189799333D01*
X20228781Y-89263958D02*
X20200976Y-89208718D01*
X22546342Y-144974480D02*
X22524085Y-145032179D01*
X48741281Y-64650976D02*
X48797820Y-64625914D01*
X20259264Y-148962232D02*
X20292350Y-148909983D01*
X48013002Y-48019361D02*
X48013465Y-48019196D01*
X22250952Y-36959047D02*
X22293596Y-37003837D01*
X48019863Y-131830111D02*
X48019996Y-131824659D01*
X20104213Y-65544186D02*
X20117763Y-65483845D01*
X48855519Y-145736342D02*
X48797820Y-145714085D01*
X22110579Y-92717960D02*
X22159333Y-92756009D01*
X48168781Y-117203958D02*
X48140976Y-117148718D01*
X22007767Y-148529264D02*
X22060016Y-148562350D01*
X48019863Y-187710111D02*
X48019996Y-187704659D01*
X34043929Y-21216498D02*
X34048479Y-21278174D01*
X21278174Y-36591520D02*
X21340122Y-36590000D01*
X48014795Y-131838567D02*
X48015216Y-131838314D01*
X50553929Y-21216498D02*
X50558479Y-21278174D01*
X48016761Y-103897108D02*
X48017108Y-103896761D01*
X20292350Y-117310016D02*
X20259264Y-117257767D01*
X22622891Y-78503238D02*
X22622561Y-78503602D01*
X15000000Y-195324413D02*
X15000003Y-195324659D01*
X50560000Y-172489877D02*
X50558479Y-172551825D01*
X22629888Y-75959863D02*
X22635340Y-75959996D01*
X49299877Y-145810000D02*
X49280122Y-145810000D01*
X55638798Y-15005637D02*
X55638567Y-15005204D01*
X48433837Y-61663596D02*
X48389047Y-61620952D01*
X22627942Y-106440376D02*
X22627466Y-106440496D01*
X22620281Y-50568424D02*
X22620209Y-50568909D01*
X20801281Y-89809023D02*
X20746041Y-89781218D01*
X33995741Y-76854242D02*
X34012236Y-76913845D01*
X50233596Y-120823837D02*
X50273990Y-120870666D01*
X20639983Y-92682350D02*
X20692232Y-92649264D01*
X15003602Y-15002561D02*
X15003238Y-15002891D01*
X36614213Y-132854186D02*
X36627763Y-132793845D01*
X15006534Y-195339196D02*
X15006997Y-195339361D01*
X22628424Y-103899718D02*
X22628909Y-103899790D01*
X48019361Y-50566997D02*
X48019196Y-50566534D01*
X22624783Y-78501685D02*
X22624375Y-78501957D01*
X22595786Y-144795813D02*
X22582236Y-144856154D01*
X20117763Y-33096154D02*
X20104213Y-33035813D01*
X50553929Y-60853501D02*
X50546359Y-60914879D01*
X48019839Y-22629398D02*
X48019790Y-22628909D01*
X21155120Y-92483640D02*
X21216498Y-92476070D01*
X22565741Y-65424242D02*
X22582236Y-65483845D01*
X15000376Y-195332057D02*
X15000496Y-195332533D01*
X49156498Y-89923929D02*
X49095120Y-89916359D01*
X33589333Y-76246009D02*
X33636162Y-76286403D01*
X20589420Y-120657960D02*
X20639983Y-120622350D01*
X15002891Y-15003238D02*
X15002561Y-15003602D01*
X50233596Y-89516162D02*
X50190952Y-89560952D01*
X20857820Y-89834085D02*
X20801281Y-89809023D01*
X22625204Y-103898567D02*
X22625637Y-103898798D01*
X22546342Y-172914480D02*
X22524085Y-172972179D01*
X48013002Y-75959361D02*
X48013465Y-75959196D01*
X32913501Y-75966070D02*
X32974879Y-75973640D01*
X48026070Y-60853501D02*
X48021520Y-60791825D01*
X49947767Y-33870735D02*
X49893958Y-33901218D01*
X22621957Y-22624375D02*
X22621685Y-22624783D01*
X48480666Y-145523990D02*
X48433837Y-145483596D01*
X33680952Y-189890952D02*
X33636162Y-189933596D01*
X36590000Y-49299877D02*
X36590000Y-49280122D01*
X49545813Y-117845786D02*
X49484879Y-117856359D01*
X34036359Y-105364879D02*
X34025786Y-105425813D01*
X55633002Y-195339361D02*
X55633465Y-195339196D01*
X49665757Y-33995741D02*
X49606154Y-34012236D01*
X21359877Y-64530000D02*
X21421825Y-64531520D01*
X20449047Y-33680952D02*
X20406403Y-33636162D01*
X49095120Y-176303640D02*
X49156498Y-176296070D01*
X37425519Y-106366342D02*
X37367820Y-106344085D01*
X55637108Y-15003238D02*
X55636761Y-15002891D01*
X20493837Y-64856403D02*
X20540666Y-64816009D01*
X49423501Y-148356070D02*
X49484879Y-148363640D01*
X22620638Y-187713002D02*
X22620803Y-187713465D01*
X22060016Y-92682350D02*
X22110579Y-92717960D01*
X22206162Y-89603596D02*
X22159333Y-89643990D01*
X20327960Y-189750579D02*
X20292350Y-189700016D01*
X20259264Y-93082232D02*
X20292350Y-93029983D01*
X36685914Y-188497820D02*
X36710976Y-188441281D01*
X55638567Y-195334795D02*
X55638798Y-195334362D01*
X48232350Y-89370016D02*
X48199264Y-89317767D01*
X20093640Y-121485120D02*
X20104213Y-121424186D01*
X21359877Y-120410000D02*
X21421825Y-120411520D01*
X32851825Y-106438479D02*
X32789877Y-106440000D01*
X36591520Y-21278174D02*
X36596070Y-21216498D01*
X49361825Y-173748479D02*
X49299877Y-173750000D01*
X48016397Y-106442561D02*
X48016018Y-106442250D01*
X50535786Y-121424186D02*
X50546359Y-121485120D01*
X33929023Y-49838718D02*
X33901218Y-49893958D01*
X22620638Y-162326997D02*
X22620496Y-162327466D01*
X48267960Y-148859420D02*
X48306009Y-148810666D01*
X48168781Y-149016041D02*
X48199264Y-148962232D01*
X22623981Y-162322250D02*
X22623602Y-162322561D01*
X20406403Y-145396162D02*
X20366009Y-145349333D01*
X22333990Y-148810666D02*
X22372039Y-148859420D01*
X21842179Y-36685914D02*
X21898718Y-36710976D01*
X36590000Y-105160122D02*
X36591520Y-105098174D01*
X48020000Y-50575586D02*
X48019996Y-50575340D01*
X37311281Y-162199023D02*
X37256041Y-162171218D01*
X50464085Y-172972179D02*
X50439023Y-173028718D01*
X22407649Y-148909983D02*
X22440735Y-148962232D01*
X50000016Y-173537649D02*
X49947767Y-173570735D01*
X50000016Y-64742350D02*
X50050579Y-64777960D01*
X33870735Y-49947767D02*
X33837649Y-50000016D01*
X49947767Y-36769264D02*
X50000016Y-36802350D01*
X36769264Y-189647767D02*
X36738781Y-189593958D01*
X48020000Y-149610122D02*
X48021520Y-149548174D01*
X48012533Y-187719503D02*
X48013002Y-187719361D01*
X48004413Y-159780000D02*
X48004659Y-159779996D01*
X33901218Y-161653958D02*
X33870735Y-161707767D01*
X48019196Y-162326534D02*
X48019008Y-162326081D01*
X15008909Y-15000209D02*
X15008424Y-15000281D01*
X22620003Y-159764659D02*
X22620136Y-159770111D01*
X22624375Y-187718042D02*
X22624783Y-187718314D01*
X48346403Y-33636162D02*
X48306009Y-33589333D01*
X22622250Y-131836018D02*
X22622561Y-131836397D01*
X36627763Y-104853845D02*
X36644258Y-104794242D01*
X21666154Y-36627763D02*
X21725757Y-36644258D01*
X49156498Y-173743929D02*
X49095120Y-173736359D01*
X20200976Y-189538718D02*
X20175914Y-189482179D01*
X37726498Y-131846070D02*
X37788174Y-131841520D01*
X48017749Y-75956018D02*
X48018042Y-75955624D01*
X20228781Y-33383958D02*
X20200976Y-33328718D01*
X50486342Y-37425519D02*
X50505741Y-37484242D01*
X48140976Y-177011281D02*
X48168781Y-176956041D01*
X50546359Y-65605120D02*
X50553929Y-65666498D01*
X33490016Y-78287649D02*
X33437767Y-78320735D01*
X22524085Y-61212179D02*
X22499023Y-61268718D01*
X22565741Y-172855757D02*
X22546342Y-172914480D01*
X48019718Y-187711575D02*
X48019790Y-187711090D01*
X36959047Y-132209047D02*
X37003837Y-132166403D01*
X32974879Y-50546359D02*
X32913501Y-50553929D01*
X33901218Y-160446041D02*
X33929023Y-160501281D01*
X48011575Y-106440281D02*
X48011090Y-106440209D01*
X37003837Y-48346403D02*
X37050666Y-48306009D01*
X20493837Y-89603596D02*
X20449047Y-89560952D01*
X21544879Y-36603640D02*
X21605813Y-36614213D01*
X48033640Y-37665120D02*
X48044213Y-37604186D01*
X33995741Y-161425757D02*
X33976342Y-161484480D01*
X21155120Y-173736359D02*
X21094186Y-173725786D01*
X37665120Y-48033640D02*
X37726498Y-48026070D01*
X48044213Y-144795813D02*
X48033640Y-144734879D01*
X36685914Y-76737820D02*
X36710976Y-76681281D01*
X36590000Y-77220122D02*
X36591520Y-77158174D01*
X48019361Y-159773002D02*
X48019503Y-159772533D01*
X50273990Y-120870666D02*
X50312039Y-120919420D01*
X22620160Y-50569398D02*
X22620136Y-50569888D01*
X22499023Y-37311281D02*
X22524085Y-37367820D01*
X20915519Y-61916342D02*
X20857820Y-61894085D01*
X50546359Y-177365120D02*
X50553929Y-177426498D01*
X50560000Y-149610122D02*
X50560000Y-172489877D01*
X36916403Y-104313837D02*
X36959047Y-104269047D01*
X48017749Y-78503981D02*
X48017438Y-78503602D01*
X49947767Y-120589264D02*
X50000016Y-120622350D01*
X48010111Y-103899863D02*
X48010601Y-103899839D01*
X48019839Y-48010601D02*
X48019863Y-48010111D01*
X21953958Y-145661218D02*
X21898718Y-145689023D01*
X22621201Y-159774362D02*
X22621432Y-159774795D01*
X36876009Y-189799333D02*
X36837960Y-189750579D01*
X34036359Y-21155120D02*
X34043929Y-21216498D01*
X48057763Y-116916154D02*
X48044213Y-116855813D01*
X50233596Y-148763837D02*
X50273990Y-148810666D01*
X21094186Y-64554213D02*
X21155120Y-64543640D01*
X21784480Y-148423657D02*
X21842179Y-148445914D01*
X22622250Y-50563981D02*
X22621957Y-50564375D01*
X48579983Y-92682350D02*
X48632232Y-92649264D01*
X50099333Y-189973990D02*
X50050579Y-190012039D01*
X33383958Y-76108781D02*
X33437767Y-76139264D01*
X37543845Y-159817763D02*
X37604186Y-159804213D01*
X49947767Y-20259264D02*
X50000016Y-20292350D01*
X21094186Y-92494213D02*
X21155120Y-92483640D01*
X49893958Y-173601218D02*
X49838718Y-173629023D01*
X22620496Y-187712533D02*
X22620638Y-187713002D01*
X20692232Y-89750735D02*
X20639983Y-89717649D01*
X36603640Y-104975120D02*
X36614213Y-104914186D01*
X20259264Y-173137767D02*
X20228781Y-173083958D01*
X21666154Y-176327763D02*
X21725757Y-176344258D01*
X48019623Y-103892057D02*
X48019718Y-103891575D01*
X48004413Y-75960000D02*
X48004659Y-75959996D01*
X37050666Y-189973990D02*
X37003837Y-189933596D01*
X49782179Y-92565914D02*
X49838718Y-92590976D01*
X50464085Y-177067820D02*
X50486342Y-177125519D01*
X22622891Y-75956761D02*
X22623238Y-75957108D01*
X33035813Y-131864213D02*
X33096154Y-131877763D01*
X36769264Y-20692232D02*
X36802350Y-20639983D01*
X50560000Y-60729877D02*
X50558479Y-60791825D01*
X22626997Y-75959361D02*
X22627466Y-75959503D01*
X33490016Y-22407649D02*
X33437767Y-22440735D01*
X20406403Y-37003837D02*
X20449047Y-36959047D01*
X49218174Y-120411520D02*
X49280122Y-120410000D01*
X48199264Y-145197767D02*
X48168781Y-145143958D01*
X22618479Y-121608174D02*
X22620000Y-121670122D01*
X36590000Y-133100122D02*
X36591520Y-133038174D01*
X50546359Y-116794879D02*
X50535786Y-116855813D01*
X36614213Y-188734186D02*
X36627763Y-188673845D01*
X21544879Y-176303640D02*
X21605813Y-176314213D01*
X36590000Y-161040122D02*
X36591520Y-160978174D01*
X21278174Y-190258479D02*
X21216498Y-190253929D01*
X50546359Y-93545120D02*
X50553929Y-93606498D01*
X36596070Y-49423501D02*
X36591520Y-49361825D01*
X49893958Y-176438781D02*
X49947767Y-176469264D01*
X20915519Y-190186342D02*
X20857820Y-190164085D01*
X49299877Y-117870000D02*
X49280122Y-117870000D01*
X22624783Y-75958314D02*
X22625204Y-75958567D01*
X48232350Y-117310016D02*
X48199264Y-117257767D01*
X33214480Y-20153657D02*
X33272179Y-20175914D01*
X15003981Y-195337749D02*
X15004375Y-195338042D01*
X48074258Y-116975757D02*
X48057763Y-116916154D01*
X20292350Y-176849983D02*
X20327960Y-176799420D01*
X22618479Y-172551825D02*
X22613929Y-172613501D01*
X22110579Y-36837960D02*
X22159333Y-36876009D01*
X37726498Y-134373929D02*
X37665120Y-134366359D01*
X50380735Y-189647767D02*
X50347649Y-189700016D01*
X21953958Y-148498781D02*
X22007767Y-148529264D01*
X48019008Y-106446081D02*
X48018798Y-106445637D01*
X48019361Y-22626997D02*
X48019196Y-22626534D01*
X22606359Y-121485120D02*
X22613929Y-121546498D01*
X34043929Y-133243501D02*
X34036359Y-133304879D01*
X55639008Y-195333918D02*
X55639196Y-195333465D01*
X22620000Y-172489877D02*
X22618479Y-172551825D01*
X48016761Y-75957108D02*
X48017108Y-75956761D01*
X22626534Y-162320803D02*
X22626081Y-162320991D01*
X22620136Y-162329888D02*
X22620003Y-162335340D01*
X15007466Y-195339503D02*
X15007942Y-195339623D01*
X48797820Y-92565914D02*
X48855519Y-92543657D01*
X48015216Y-162321685D02*
X48014795Y-162321432D01*
X49280122Y-89930000D02*
X49218174Y-89928479D01*
X22623602Y-103897438D02*
X22623981Y-103897749D01*
X48004659Y-22620003D02*
X48004413Y-22620000D01*
X33636162Y-106113596D02*
X33589333Y-106153990D01*
X20493837Y-148676403D02*
X20540666Y-148636009D01*
X20449047Y-89560952D02*
X20406403Y-89516162D01*
X50146162Y-64856403D02*
X50190952Y-64899047D01*
X20639983Y-145597649D02*
X20589420Y-145562039D01*
X22622561Y-106443602D02*
X22622250Y-106443981D01*
X48020000Y-32789877D02*
X48020000Y-22635586D01*
X50000016Y-145597649D02*
X49947767Y-145630735D01*
X33490016Y-134167649D02*
X33437767Y-134200735D01*
X22635586Y-75960000D02*
X32789877Y-75960000D01*
X33837649Y-50000016D02*
X33802039Y-50050579D01*
X22407649Y-120969983D02*
X22440735Y-121022232D01*
X20449047Y-189890952D02*
X20406403Y-189846162D01*
X33802039Y-160289420D02*
X33837649Y-160339983D01*
X22623602Y-78502561D02*
X22623238Y-78502891D01*
X48012533Y-162320496D02*
X48012057Y-162320376D01*
X48011090Y-159779790D02*
X48011575Y-159779718D01*
X48013465Y-162320803D02*
X48013002Y-162320638D01*
X15004783Y-15001685D02*
X15004375Y-15001957D01*
X49034186Y-117845786D02*
X48973845Y-117832236D01*
X48019718Y-22628424D02*
X48019623Y-22627942D01*
X36644258Y-189365757D02*
X36627763Y-189306154D01*
X48199264Y-173137767D02*
X48168781Y-173083958D01*
X36769264Y-161707767D02*
X36738781Y-161653958D01*
X48018042Y-106444375D02*
X48017749Y-106443981D01*
X48973845Y-148387763D02*
X49034186Y-148374213D01*
X22565741Y-61095757D02*
X22546342Y-61154480D01*
X22159333Y-117583990D02*
X22110579Y-117622039D01*
X22206162Y-120736403D02*
X22250952Y-120779047D01*
X20974242Y-36644258D02*
X21033845Y-36627763D01*
X55632057Y-195339623D02*
X55632533Y-195339503D01*
X20801281Y-190139023D02*
X20746041Y-190111218D01*
X22524085Y-65307820D02*
X22546342Y-65365519D01*
X33383958Y-159928781D02*
X33437767Y-159959264D01*
X36685914Y-48797820D02*
X36710976Y-48741281D01*
X15001432Y-195334795D02*
X15001685Y-195335216D01*
X33723596Y-20493837D02*
X33763990Y-20540666D01*
X20228781Y-117203958D02*
X20200976Y-117148718D01*
X21033845Y-117832236D02*
X20974242Y-117815741D01*
X22622891Y-159776761D02*
X22623238Y-159777108D01*
X33155757Y-159834258D02*
X33214480Y-159853657D01*
X36614213Y-21094186D02*
X36627763Y-21033845D01*
X22627466Y-162320496D02*
X22626997Y-162320638D01*
X20974242Y-176344258D02*
X21033845Y-176327763D01*
X48017438Y-103896397D02*
X48017749Y-103896018D01*
X22621957Y-48015624D02*
X22622250Y-48016018D01*
X36769264Y-132452232D02*
X36802350Y-132399983D01*
X36710976Y-160501281D02*
X36738781Y-160446041D01*
X49606154Y-89892236D02*
X49545813Y-89905786D01*
X48019361Y-131833002D02*
X48019503Y-131832533D01*
X20692232Y-145630735D02*
X20639983Y-145597649D01*
X22620803Y-75953465D02*
X22620991Y-75953918D01*
X20857820Y-120505914D02*
X20915519Y-120483657D01*
X33272179Y-187815914D02*
X33328718Y-187840976D01*
X49893958Y-145661218D02*
X49838718Y-145689023D01*
X22629398Y-75959839D02*
X22629888Y-75959863D01*
X48529420Y-36837960D02*
X48579983Y-36802350D01*
X34025786Y-189245813D02*
X34012236Y-189306154D01*
X20449047Y-61620952D02*
X20406403Y-61576162D01*
X22621957Y-162324375D02*
X22621685Y-162324783D01*
X21216498Y-64536070D02*
X21278174Y-64531520D01*
X33723596Y-189846162D02*
X33680952Y-189890952D01*
X32851825Y-50558479D02*
X32789877Y-50560000D01*
X20449047Y-64899047D02*
X20493837Y-64856403D01*
X36769264Y-105827767D02*
X36738781Y-105773958D01*
X20327960Y-20589420D02*
X20366009Y-20540666D01*
X15003238Y-195337108D02*
X15003602Y-195337438D01*
X36802350Y-161760016D02*
X36769264Y-161707767D01*
X36876009Y-78039333D02*
X36837960Y-77990579D01*
X48044213Y-65544186D02*
X48057763Y-65483845D01*
X37665120Y-106426359D02*
X37604186Y-106415786D01*
X48016761Y-131837108D02*
X48017108Y-131836761D01*
X33214480Y-50486342D02*
X33155757Y-50505741D01*
X55637438Y-195336397D02*
X55637749Y-195336018D01*
X48012533Y-106440496D02*
X48012057Y-106440376D01*
X48093657Y-149185519D02*
X48115914Y-149127820D01*
X34048479Y-133181825D02*
X34043929Y-133243501D01*
X20974242Y-64584258D02*
X21033845Y-64567763D01*
X48016761Y-22622891D02*
X48016397Y-22622561D01*
X48012057Y-75959623D02*
X48012533Y-75959503D01*
X22620136Y-134389888D02*
X22620003Y-134395340D01*
X22622250Y-103896018D02*
X22622561Y-103896397D01*
X37311281Y-48140976D02*
X37367820Y-48115914D01*
X48013918Y-134380991D02*
X48013465Y-134380803D01*
X21359877Y-92470000D02*
X21421825Y-92471520D01*
X48019008Y-131833918D02*
X48019196Y-131833465D01*
X55635216Y-15001685D02*
X55634795Y-15001432D01*
X36591520Y-188918174D02*
X36596070Y-188856498D01*
X33929023Y-161598718D02*
X33901218Y-161653958D01*
X50099333Y-145523990D02*
X50050579Y-145562039D01*
X22625204Y-48018567D02*
X22625637Y-48018798D01*
X22620136Y-78509888D02*
X22620003Y-78515340D01*
X22622250Y-48016018D02*
X22622561Y-48016397D01*
X33837649Y-77940016D02*
X33802039Y-77990579D01*
X50146162Y-176616403D02*
X50190952Y-176659047D01*
X20639983Y-89717649D02*
X20589420Y-89682039D01*
X50411218Y-20746041D02*
X50439023Y-20801281D01*
X36596070Y-105303501D02*
X36591520Y-105241825D01*
X22621957Y-106444375D02*
X22621685Y-106444783D01*
X36738781Y-20746041D02*
X36769264Y-20692232D01*
X22620136Y-22629888D02*
X22620003Y-22635340D01*
X48529420Y-61742039D02*
X48480666Y-61703990D01*
X37543845Y-190222236D02*
X37484242Y-190205741D01*
X37149983Y-20292350D02*
X37202232Y-20259264D01*
X33437767Y-22440735D02*
X33383958Y-22471218D01*
X20915519Y-20153657D02*
X20974242Y-20134258D01*
X33096154Y-159817763D02*
X33155757Y-159834258D01*
X55632533Y-15000496D02*
X55632057Y-15000376D01*
X22471218Y-121076041D02*
X22499023Y-121131281D01*
X20175914Y-93247820D02*
X20200976Y-93191281D01*
X55636397Y-15002561D02*
X55636018Y-15002250D01*
X49665757Y-173695741D02*
X49606154Y-173712236D01*
X21033845Y-64567763D02*
X21094186Y-64554213D01*
X48026070Y-88793501D02*
X48021520Y-88731825D01*
X48433837Y-89603596D02*
X48389047Y-89560952D01*
X22628909Y-134380209D02*
X22628424Y-134380281D01*
X48013002Y-22620638D02*
X48012533Y-22620496D01*
X37050666Y-20366009D02*
X37099420Y-20327960D01*
X22250952Y-64899047D02*
X22293596Y-64943837D01*
X50146162Y-120736403D02*
X50190952Y-120779047D01*
X33589333Y-48306009D02*
X33636162Y-48346403D01*
X36627763Y-105486154D02*
X36614213Y-105425813D01*
X50535786Y-93484186D02*
X50546359Y-93545120D01*
X20292350Y-61430016D02*
X20259264Y-61377767D01*
X48021520Y-149548174D02*
X48026070Y-149486498D01*
X20801281Y-20200976D02*
X20857820Y-20175914D01*
X21278174Y-64531520D02*
X21340122Y-64530000D01*
X22060016Y-120622350D02*
X22110579Y-120657960D01*
X37726498Y-50553929D02*
X37665120Y-50546359D01*
X22471218Y-33383958D02*
X22440735Y-33437767D01*
X50099333Y-176576009D02*
X50146162Y-176616403D01*
X20406403Y-61576162D02*
X20366009Y-61529333D01*
X36837960Y-160289420D02*
X36876009Y-160240666D01*
X33901218Y-48686041D02*
X33929023Y-48741281D01*
X20086070Y-65666498D02*
X20093640Y-65605120D01*
X34048479Y-160978174D02*
X34050000Y-161040122D01*
X21155120Y-176303640D02*
X21216498Y-176296070D01*
X48199264Y-89317767D02*
X48168781Y-89263958D01*
X20086070Y-144673501D02*
X20081520Y-144611825D01*
X49545813Y-34025786D02*
X49484879Y-34036359D01*
X22546342Y-65365519D02*
X22565741Y-65424242D01*
X37604186Y-159804213D02*
X37665120Y-159793640D01*
X22333990Y-173289333D02*
X22293596Y-173336162D01*
X22595786Y-149364186D02*
X22606359Y-149425120D01*
X48632232Y-148529264D02*
X48686041Y-148498781D01*
X55624413Y-195340000D02*
X55624659Y-195339996D01*
X22620000Y-60729877D02*
X22618479Y-60791825D01*
X34012236Y-21033845D02*
X34025786Y-21094186D01*
X55630111Y-195339863D02*
X55630601Y-195339839D01*
X48018314Y-50564783D02*
X48018042Y-50564375D01*
X33763990Y-50099333D02*
X33723596Y-50146162D01*
X21340122Y-190260000D02*
X21278174Y-190258479D01*
X22620496Y-106447466D02*
X22620376Y-106447942D01*
X48019863Y-106449888D02*
X48019839Y-106449398D01*
X22626081Y-75959008D02*
X22626534Y-75959196D01*
X49423501Y-36596070D02*
X49484879Y-36603640D01*
X49782179Y-61894085D02*
X49724480Y-61916342D01*
X21483501Y-92476070D02*
X21544879Y-92483640D01*
X55640000Y-15015586D02*
X55639996Y-15015340D01*
X22060016Y-61777649D02*
X22007767Y-61810735D01*
X49280122Y-117870000D02*
X49218174Y-117868479D01*
X48855519Y-64603657D02*
X48914242Y-64584258D01*
X48093657Y-93305519D02*
X48115914Y-93247820D01*
X34048479Y-21278174D02*
X34050000Y-21340122D01*
X50546359Y-60914879D02*
X50535786Y-60975813D01*
X20366009Y-89469333D02*
X20327960Y-89420579D01*
X36876009Y-105979333D02*
X36837960Y-105930579D01*
X48012057Y-106440376D02*
X48011575Y-106440281D01*
X50312039Y-173240579D02*
X50273990Y-173289333D01*
X22621957Y-75955624D02*
X22622250Y-75956018D01*
X50522236Y-144856154D02*
X50505741Y-144915757D01*
X48044213Y-116855813D02*
X48033640Y-116794879D01*
X48140976Y-173028718D02*
X48115914Y-172972179D01*
X49484879Y-34036359D02*
X49423501Y-34043929D01*
X22620376Y-162327942D02*
X22620281Y-162328424D01*
X22626997Y-22620638D02*
X22626534Y-22620803D01*
X48012057Y-159779623D02*
X48012533Y-159779503D01*
X20692232Y-33870735D02*
X20639983Y-33837649D01*
X20259264Y-61377767D02*
X20228781Y-61323958D01*
X20974242Y-92524258D02*
X21033845Y-92507763D01*
X22620991Y-22626081D02*
X22620803Y-22626534D01*
X15002891Y-195336761D02*
X15003238Y-195337108D01*
X37425519Y-159853657D02*
X37484242Y-159834258D01*
X22524085Y-37367820D02*
X22546342Y-37425519D01*
X22620003Y-78515340D02*
X22620000Y-78515586D01*
X48306009Y-33589333D02*
X48267960Y-33540579D01*
X22440735Y-121022232D02*
X22471218Y-121076041D01*
X36710976Y-105718718D02*
X36685914Y-105662179D01*
X22620803Y-187713465D02*
X22620991Y-187713918D01*
X22625204Y-162321432D02*
X22624783Y-162321685D01*
X36627763Y-21033845D02*
X36644258Y-20974242D01*
X15000136Y-195330111D02*
X15000160Y-195330601D01*
X33383958Y-187868781D02*
X33437767Y-187899264D01*
X50553929Y-32913501D02*
X50546359Y-32974879D01*
X37367820Y-22524085D02*
X37311281Y-22499023D01*
X22626534Y-103899196D02*
X22626997Y-103899361D01*
X55636018Y-195337749D02*
X55636397Y-195337438D01*
X22620991Y-48013918D02*
X22621201Y-48014362D01*
X20746041Y-190111218D02*
X20692232Y-190080735D01*
X22440735Y-145197767D02*
X22407649Y-145250016D01*
X20406403Y-176703837D02*
X20449047Y-176659047D01*
X15009398Y-15000160D02*
X15008909Y-15000209D01*
X48074258Y-149244242D02*
X48093657Y-149185519D01*
X21842179Y-89834085D02*
X21784480Y-89856342D01*
X48199264Y-121022232D02*
X48232350Y-120969983D01*
X33490016Y-50347649D02*
X33437767Y-50380735D01*
X34043929Y-132976498D02*
X34048479Y-133038174D01*
X15002250Y-15003981D02*
X15001957Y-15004375D01*
X37256041Y-22471218D02*
X37202232Y-22440735D01*
X33035813Y-159804213D02*
X33096154Y-159817763D01*
X20200976Y-145088718D02*
X20175914Y-145032179D01*
X20746041Y-89781218D02*
X20692232Y-89750735D01*
X48016397Y-103897438D02*
X48016761Y-103897108D01*
X22110579Y-176537960D02*
X22159333Y-176576009D01*
X22620000Y-103884413D02*
X22620003Y-103884659D01*
X48017749Y-48016018D02*
X48018042Y-48015624D01*
X37202232Y-106260735D02*
X37149983Y-106227649D01*
X22620376Y-187712057D02*
X22620496Y-187712533D01*
X21094186Y-148374213D02*
X21155120Y-148363640D01*
X22606359Y-37665120D02*
X22613929Y-37726498D01*
X48686041Y-173601218D02*
X48632232Y-173570735D01*
X22621685Y-162324783D02*
X22621432Y-162325204D01*
X49782179Y-89834085D02*
X49724480Y-89856342D01*
X49545813Y-176314213D02*
X49606154Y-176327763D01*
X50464085Y-149127820D02*
X50486342Y-149185519D01*
X36710976Y-188441281D02*
X36738781Y-188386041D01*
X20406403Y-148763837D02*
X20449047Y-148719047D01*
X22629398Y-134380160D02*
X22628909Y-134380209D01*
X22159333Y-92756009D02*
X22206162Y-92796403D01*
X36769264Y-76572232D02*
X36802350Y-76519983D01*
X33870735Y-160392232D02*
X33901218Y-160446041D01*
X22626534Y-159779196D02*
X22626997Y-159779361D01*
X22060016Y-89717649D02*
X22007767Y-89750735D01*
X48018567Y-78505204D02*
X48018314Y-78504783D01*
X22546342Y-61154480D02*
X22524085Y-61212179D01*
X34048479Y-105098174D02*
X34050000Y-105160122D01*
X22620209Y-131831090D02*
X22620281Y-131831575D01*
X20493837Y-173423596D02*
X20449047Y-173380952D01*
X22622561Y-187716397D02*
X22622891Y-187716761D01*
X37543845Y-103937763D02*
X37604186Y-103924213D01*
X20200976Y-61268718D02*
X20175914Y-61212179D01*
X33901218Y-77833958D02*
X33870735Y-77887767D01*
X20200976Y-177011281D02*
X20228781Y-176956041D01*
X48093657Y-65365519D02*
X48115914Y-65307820D01*
X48019361Y-162326997D02*
X48019196Y-162326534D01*
X20200976Y-121131281D02*
X20228781Y-121076041D01*
X36596070Y-77363501D02*
X36591520Y-77301825D01*
X48010601Y-131839839D02*
X48011090Y-131839790D01*
X22524085Y-117092179D02*
X22499023Y-117148718D01*
X34048479Y-49218174D02*
X34050000Y-49280122D01*
X20366009Y-120870666D02*
X20406403Y-120823837D01*
X32851825Y-75961520D02*
X32913501Y-75966070D01*
X50050579Y-64777960D02*
X50099333Y-64816009D01*
X22621685Y-50564783D02*
X22621432Y-50565204D01*
X37149983Y-132052350D02*
X37202232Y-132019264D01*
X37665120Y-103913640D02*
X37726498Y-103906070D01*
X49361825Y-145808479D02*
X49299877Y-145810000D01*
X48914242Y-173695741D02*
X48855519Y-173676342D01*
X22333990Y-92930666D02*
X22372039Y-92979420D01*
X22546342Y-121245519D02*
X22565741Y-121304242D01*
X48016018Y-78502250D02*
X48015624Y-78501957D01*
X48020000Y-65790122D02*
X48021520Y-65728174D01*
X20692232Y-117690735D02*
X20639983Y-117657649D01*
X49724480Y-92543657D02*
X49782179Y-92565914D01*
X50486342Y-172914480D02*
X50464085Y-172972179D01*
X33680952Y-160149047D02*
X33723596Y-160193837D01*
X22629888Y-50560136D02*
X22629398Y-50560160D01*
X49947767Y-145630735D02*
X49893958Y-145661218D01*
X48010601Y-78500160D02*
X48010111Y-78500136D01*
X48010601Y-75959839D02*
X48011090Y-75959790D01*
X33954085Y-20857820D02*
X33976342Y-20915519D01*
X49665757Y-89875741D02*
X49606154Y-89892236D01*
X22293596Y-145396162D02*
X22250952Y-145440952D01*
X22618479Y-116671825D02*
X22613929Y-116733501D01*
X48140976Y-149071281D02*
X48168781Y-149016041D01*
X33383958Y-78351218D02*
X33328718Y-78379023D01*
X48168781Y-61323958D02*
X48140976Y-61268718D01*
X33995741Y-49665757D02*
X33976342Y-49724480D01*
X49838718Y-148470976D02*
X49893958Y-148498781D01*
X48012057Y-48019623D02*
X48012533Y-48019503D01*
X21359877Y-148350000D02*
X21359877Y-148350000D01*
X33954085Y-133602179D02*
X33929023Y-133658718D01*
X37099420Y-20327960D02*
X37149983Y-20292350D01*
X34050000Y-133100122D02*
X34050000Y-133119877D01*
X48010111Y-159779863D02*
X48010111Y-159779863D01*
X22007767Y-120589264D02*
X22060016Y-120622350D01*
X20493837Y-145483596D02*
X20449047Y-145440952D01*
X48011575Y-134380281D02*
X48011090Y-134380209D01*
X48017438Y-78503602D02*
X48017108Y-78503238D01*
X48014362Y-131838798D02*
X48014795Y-131838567D01*
X33929023Y-132561281D02*
X33954085Y-132617820D01*
X22620160Y-78509398D02*
X22620136Y-78509888D01*
X49947767Y-117690735D02*
X49893958Y-117721218D01*
X48015624Y-50561957D02*
X48015216Y-50561685D01*
X37665120Y-50546359D02*
X37604186Y-50535786D01*
X48004659Y-103899996D02*
X48010111Y-103899863D01*
X22629398Y-48019839D02*
X22629888Y-48019863D01*
X22620136Y-103890111D02*
X22620160Y-103890601D01*
X48018798Y-187714362D02*
X48019008Y-187713918D01*
X50050579Y-61742039D02*
X50000016Y-61777649D01*
X48012533Y-131839503D02*
X48013002Y-131839361D01*
X34050000Y-161040122D02*
X34050000Y-161059877D01*
X48199264Y-176902232D02*
X48232350Y-176849983D01*
X21278174Y-176291520D02*
X21340122Y-176290000D01*
X22621201Y-50565637D02*
X22620991Y-50566081D01*
X48914242Y-92524258D02*
X48973845Y-92507763D01*
X20228781Y-176956041D02*
X20259264Y-176902232D01*
X48632232Y-64709264D02*
X48686041Y-64678781D01*
X36959047Y-161950952D02*
X36916403Y-161906162D01*
X22620638Y-159773002D02*
X22620803Y-159773465D01*
X33155757Y-106385741D02*
X33096154Y-106402236D01*
X20857820Y-117774085D02*
X20801281Y-117749023D01*
X20589420Y-64777960D02*
X20639983Y-64742350D01*
X22293596Y-37003837D02*
X22333990Y-37050666D01*
X22620638Y-78506997D02*
X22620496Y-78507466D01*
X20104213Y-177304186D02*
X20117763Y-177243845D01*
X32789877Y-78500000D02*
X22635586Y-78500000D01*
X20692232Y-148529264D02*
X20746041Y-148498781D01*
X22620000Y-177550122D02*
X22620000Y-187704413D01*
X21359877Y-89930000D02*
X21340122Y-89930000D01*
X48168781Y-37256041D02*
X48199264Y-37202232D01*
X48012057Y-50560376D02*
X48011575Y-50560281D01*
X48797820Y-33954085D02*
X48741281Y-33929023D01*
X21483501Y-34043929D02*
X21421825Y-34048479D01*
X48013918Y-48019008D02*
X48014362Y-48018798D01*
X22620160Y-159770601D02*
X22620209Y-159771090D01*
X33680952Y-48389047D02*
X33723596Y-48433837D01*
X48115914Y-61212179D02*
X48093657Y-61154480D01*
X48019996Y-162335340D02*
X48019863Y-162329888D01*
X21544879Y-173736359D02*
X21483501Y-173743929D01*
X33929023Y-21898718D02*
X33901218Y-21953958D01*
X22622891Y-131836761D02*
X22623238Y-131837108D01*
X55630601Y-15000160D02*
X55630111Y-15000136D01*
X48232350Y-145250016D02*
X48199264Y-145197767D01*
X50347649Y-148909983D02*
X50380735Y-148962232D01*
X20117763Y-144856154D02*
X20104213Y-144795813D01*
X20153657Y-172914480D02*
X20134258Y-172855757D01*
X22628424Y-75959718D02*
X22628909Y-75959790D01*
X48019361Y-78506997D02*
X48019196Y-78506534D01*
X20086070Y-121546498D02*
X20093640Y-121485120D01*
X48004413Y-103900000D02*
X48004659Y-103899996D01*
X49299877Y-92470000D02*
X49361825Y-92471520D01*
X33328718Y-159900976D02*
X33383958Y-159928781D01*
X33954085Y-21842179D02*
X33929023Y-21898718D01*
X48018042Y-187715624D02*
X48018314Y-187715216D01*
X20493837Y-92796403D02*
X20540666Y-92756009D01*
X48020000Y-93730122D02*
X48021520Y-93668174D01*
X20589420Y-148597960D02*
X20639983Y-148562350D01*
X48973845Y-34012236D02*
X48914242Y-33995741D01*
X37311281Y-134259023D02*
X37256041Y-134231218D01*
X20540666Y-89643990D02*
X20493837Y-89603596D01*
X32789877Y-190260000D02*
X21340122Y-190260000D01*
X15000136Y-15009888D02*
X15000003Y-15015340D01*
X33929023Y-76681281D02*
X33954085Y-76737820D01*
X50190952Y-148719047D02*
X50233596Y-148763837D01*
X21155120Y-36603640D02*
X21216498Y-36596070D01*
X20200976Y-37311281D02*
X20228781Y-37256041D01*
X48014362Y-162321201D02*
X48013918Y-162320991D01*
X32851825Y-48021520D02*
X32913501Y-48026070D01*
X22524085Y-33272179D02*
X22499023Y-33328718D01*
X22620003Y-134395340D02*
X22620000Y-134395586D01*
X48016018Y-103897749D02*
X48016397Y-103897438D01*
X37003837Y-78173596D02*
X36959047Y-78130952D01*
X33954085Y-104677820D02*
X33976342Y-104735519D01*
X33589333Y-189973990D02*
X33540579Y-190012039D01*
X22623602Y-106442561D02*
X22623238Y-106442891D01*
X37256041Y-76108781D02*
X37311281Y-76080976D01*
X33802039Y-76469420D02*
X33837649Y-76519983D01*
X22546342Y-149185519D02*
X22565741Y-149244242D01*
X48014795Y-134381432D02*
X48014362Y-134381201D01*
X48529420Y-92717960D02*
X48579983Y-92682350D01*
X20915519Y-148423657D02*
X20974242Y-148404258D01*
X48019718Y-48011575D02*
X48019790Y-48011090D01*
X22622561Y-131836397D02*
X22622891Y-131836761D01*
X50522236Y-65483845D02*
X50535786Y-65544186D01*
X48012533Y-22620496D02*
X48012057Y-22620376D01*
X22407649Y-145250016D02*
X22372039Y-145300579D01*
X37202232Y-162140735D02*
X37149983Y-162107649D01*
X33214480Y-106366342D02*
X33155757Y-106385741D01*
X22626997Y-131839361D02*
X22627466Y-131839503D01*
X22060016Y-64742350D02*
X22110579Y-64777960D01*
X48010601Y-159779839D02*
X48011090Y-159779790D01*
X49665757Y-64584258D02*
X49724480Y-64603657D01*
X36837960Y-22110579D02*
X36802350Y-22060016D01*
X33490016Y-106227649D02*
X33437767Y-106260735D01*
X20117763Y-21033845D02*
X20134258Y-20974242D01*
X20974242Y-61935741D02*
X20915519Y-61916342D01*
X48019839Y-159770601D02*
X48019863Y-159770111D01*
X21842179Y-61894085D02*
X21784480Y-61916342D01*
X50411218Y-121076041D02*
X50439023Y-121131281D01*
X22110579Y-148597960D02*
X22159333Y-148636009D01*
X49095120Y-117856359D02*
X49034186Y-117845786D01*
X37665120Y-190246359D02*
X37604186Y-190235786D01*
X22629398Y-78500160D02*
X22628909Y-78500209D01*
X48044213Y-37604186D02*
X48057763Y-37543845D01*
X50380735Y-37202232D02*
X50411218Y-37256041D01*
X37604186Y-131864213D02*
X37665120Y-131853640D01*
X37726498Y-75966070D02*
X37788174Y-75961520D01*
X50411218Y-176956041D02*
X50439023Y-177011281D01*
X48019718Y-131831575D02*
X48019790Y-131831090D01*
X22635586Y-78500000D02*
X22635340Y-78500003D01*
X22620991Y-78506081D02*
X22620803Y-78506534D01*
X22625637Y-48018798D02*
X22626081Y-48019008D01*
X22620496Y-134387466D02*
X22620376Y-134387942D01*
X22372039Y-89420579D02*
X22333990Y-89469333D01*
X32974879Y-159793640D02*
X33035813Y-159804213D01*
X20327960Y-92979420D02*
X20366009Y-92930666D01*
X48797820Y-120505914D02*
X48855519Y-120483657D01*
X20175914Y-33272179D02*
X20153657Y-33214480D01*
X48019503Y-22627466D02*
X48019361Y-22626997D01*
X22110579Y-173502039D02*
X22060016Y-173537649D01*
X33540579Y-190012039D02*
X33490016Y-190047649D01*
X21898718Y-173629023D02*
X21842179Y-173654085D01*
X48741281Y-145689023D02*
X48686041Y-145661218D01*
X36663657Y-77664480D02*
X36644258Y-77605757D01*
X33214480Y-187793657D02*
X33272179Y-187815914D01*
X37425519Y-78426342D02*
X37367820Y-78404085D01*
X22499023Y-61268718D02*
X22471218Y-61323958D01*
X34025786Y-133365813D02*
X34012236Y-133426154D01*
X48019623Y-106447942D02*
X48019503Y-106447466D01*
X55624659Y-15000003D02*
X55624413Y-15000000D01*
X36738781Y-76626041D02*
X36769264Y-76572232D01*
X48017438Y-134383602D02*
X48017108Y-134383238D01*
X33954085Y-160557820D02*
X33976342Y-160615519D01*
X48914242Y-89875741D02*
X48855519Y-89856342D01*
X50553929Y-37726498D02*
X50558479Y-37788174D01*
X55638042Y-15004375D02*
X55637749Y-15003981D01*
X21483501Y-176296070D02*
X21544879Y-176303640D01*
X22626534Y-187719196D02*
X22626997Y-187719361D01*
X33540579Y-162072039D02*
X33490016Y-162107649D01*
X22620003Y-22635340D02*
X22620000Y-22635586D01*
X33995741Y-48914242D02*
X34012236Y-48973845D01*
X48855519Y-36663657D02*
X48914242Y-36644258D01*
X50522236Y-61036154D02*
X50505741Y-61095757D01*
X49095120Y-92483640D02*
X49156498Y-92476070D01*
X48389047Y-89560952D02*
X48346403Y-89516162D01*
X22620638Y-22626997D02*
X22620496Y-22627466D01*
X48306009Y-176750666D02*
X48346403Y-176703837D01*
X36591520Y-21421825D02*
X36590000Y-21359877D01*
X37425519Y-103973657D02*
X37484242Y-103954258D01*
X15000376Y-15007942D02*
X15000281Y-15008424D01*
X33540579Y-50312039D02*
X33490016Y-50347649D01*
X22620281Y-159771575D02*
X22620376Y-159772057D01*
X33035813Y-50535786D02*
X32974879Y-50546359D01*
X50505741Y-149244242D02*
X50522236Y-149303845D01*
X20639983Y-173537649D02*
X20589420Y-173502039D01*
X55639863Y-195330111D02*
X55639996Y-195324659D01*
X48199264Y-93082232D02*
X48232350Y-93029983D01*
X50233596Y-173336162D02*
X50190952Y-173380952D01*
X33589333Y-160066009D02*
X33636162Y-160106403D01*
X48017749Y-159776018D02*
X48018042Y-159775624D01*
X48741281Y-176410976D02*
X48797820Y-176385914D01*
X33214480Y-134306342D02*
X33155757Y-134325741D01*
X49156498Y-64536070D02*
X49218174Y-64531520D01*
X37256041Y-106291218D02*
X37202232Y-106260735D01*
X21340122Y-173750000D02*
X21278174Y-173748479D01*
X50273990Y-117409333D02*
X50233596Y-117456162D01*
X15004375Y-195338042D02*
X15004783Y-195338314D01*
X22620376Y-159772057D02*
X22620496Y-159772533D01*
X48115914Y-145032179D02*
X48093657Y-144974480D01*
X20746041Y-176438781D02*
X20801281Y-176410976D01*
X48019790Y-50568909D02*
X48019718Y-50568424D01*
X34048479Y-77301825D02*
X34043929Y-77363501D01*
X22372039Y-173240579D02*
X22333990Y-173289333D01*
X15015586Y-15000000D02*
X15015340Y-15000003D01*
X20801281Y-33929023D02*
X20746041Y-33901218D01*
X48346403Y-64943837D02*
X48389047Y-64899047D01*
X48093657Y-172914480D02*
X48074258Y-172855757D01*
X48014795Y-48018567D02*
X48015216Y-48018314D01*
X22060016Y-176502350D02*
X22110579Y-176537960D01*
X20080000Y-93730122D02*
X20081520Y-93668174D01*
X50380735Y-117257767D02*
X50347649Y-117310016D01*
X48020000Y-106455586D02*
X48019996Y-106455340D01*
X32974879Y-134366359D02*
X32913501Y-134373929D01*
X21033845Y-145772236D02*
X20974242Y-145755741D01*
X49838718Y-176410976D02*
X49893958Y-176438781D01*
X48044213Y-33035813D02*
X48033640Y-32974879D01*
X20589420Y-33802039D02*
X20540666Y-33763990D01*
X50000016Y-61777649D02*
X49947767Y-61810735D01*
X49782179Y-64625914D02*
X49838718Y-64650976D01*
X22372039Y-120919420D02*
X22407649Y-120969983D01*
X48016397Y-50562561D02*
X48016018Y-50562250D01*
X33490016Y-48232350D02*
X33540579Y-48267960D01*
X55639196Y-195333465D02*
X55639361Y-195333002D01*
X50312039Y-20589420D02*
X50347649Y-20639983D01*
X20406403Y-20493837D02*
X20449047Y-20449047D01*
X22620281Y-22628424D02*
X22620209Y-22628909D01*
X50560000Y-32789877D02*
X50558479Y-32851825D01*
X34048479Y-77158174D02*
X34050000Y-77220122D01*
X22620496Y-159772533D02*
X22620638Y-159773002D01*
X20081520Y-172551825D02*
X20080000Y-172489877D01*
X36614213Y-21605813D02*
X36603640Y-21544879D01*
X20104213Y-93484186D02*
X20117763Y-93423845D01*
X22499023Y-149071281D02*
X22524085Y-149127820D01*
X48011575Y-78500281D02*
X48011090Y-78500209D01*
X37788174Y-162318479D02*
X37726498Y-162313929D01*
X22620160Y-48010601D02*
X22620209Y-48011090D01*
X49156498Y-120416070D02*
X49218174Y-120411520D01*
X49947767Y-92649264D02*
X50000016Y-92682350D01*
X33954085Y-76737820D02*
X33976342Y-76795519D01*
X22565741Y-37484242D02*
X22582236Y-37543845D01*
X22635340Y-159779996D02*
X22635586Y-159780000D01*
X48011090Y-134380209D02*
X48010601Y-134380160D01*
X49838718Y-61869023D02*
X49782179Y-61894085D01*
X33272179Y-48115914D02*
X33328718Y-48140976D01*
X49724480Y-173676342D02*
X49665757Y-173695741D01*
X48013465Y-78500803D02*
X48013002Y-78500638D01*
X22582236Y-37543845D02*
X22595786Y-37604186D01*
X37425519Y-50486342D02*
X37367820Y-50464085D01*
X48140976Y-121131281D02*
X48168781Y-121076041D01*
X37050666Y-48306009D02*
X37099420Y-48267960D01*
X34012236Y-48973845D02*
X34025786Y-49034186D01*
X37003837Y-50233596D02*
X36959047Y-50190952D01*
X48012533Y-48019503D02*
X48013002Y-48019361D01*
X48044213Y-121424186D02*
X48057763Y-121363845D01*
X50099333Y-120696009D02*
X50146162Y-120736403D01*
X33155757Y-22565741D02*
X33096154Y-22582236D01*
X33328718Y-104020976D02*
X33383958Y-104048781D01*
X22618479Y-60791825D02*
X22613929Y-60853501D01*
X22620000Y-131824413D02*
X22620003Y-131824659D01*
X36959047Y-106070952D02*
X36916403Y-106026162D01*
X22627942Y-131839623D02*
X22628424Y-131839718D01*
X22620000Y-149610122D02*
X22620000Y-159764413D01*
X34048479Y-161121825D02*
X34043929Y-161183501D01*
X33680952Y-161950952D02*
X33636162Y-161993596D01*
X33214480Y-76033657D02*
X33272179Y-76055914D01*
X50439023Y-177011281D02*
X50464085Y-177067820D01*
X49947767Y-173570735D02*
X49893958Y-173601218D01*
X36769264Y-104512232D02*
X36802350Y-104459983D01*
X22620638Y-75953002D02*
X22620803Y-75953465D01*
X32974879Y-103913640D02*
X33035813Y-103924213D01*
X48093657Y-61154480D02*
X48074258Y-61095757D01*
M02*
