M48
INCH,TZ
T1C0.0197
%
G90
G05
T1
X5906Y-8906
X5906Y-73906
X6239Y-8906
X6239Y-73906
X6572Y-8906
X6572Y-73906
X6906Y-8906
X6906Y-73906
X7239Y-8906
X7239Y-73906
X7572Y-8906
X7572Y-73906
X7906Y-8906
X7906Y-73906
X8906Y-5906
X8906Y-6239
X8906Y-6572
X8906Y-6906
X8906Y-7239
X8906Y-7572
X8906Y-7906
X8906Y-13406
X8906Y-13739
X8906Y-14072
X8906Y-14406
X8906Y-24406
X8906Y-24739
X8906Y-25072
X8906Y-25406
X8906Y-35406
X8906Y-35739
X8906Y-36072
X8906Y-36406
X8906Y-46406
X8906Y-46739
X8906Y-47072
X8906Y-47406
X8906Y-57406
X8906Y-57739
X8906Y-58072
X8906Y-58406
X8906Y-68406
X8906Y-68739
X8906Y-69072
X8906Y-69406
X8906Y-74906
X8906Y-75239
X8906Y-75572
X8906Y-75906
X8906Y-76239
X8906Y-76572
X8906Y-76906
X13406Y-8906
X13406Y-18906
X13406Y-19906
X13406Y-29906
X13406Y-30906
X13406Y-40906
X13406Y-41906
X13406Y-51906
X13406Y-52906
X13406Y-62906
X13406Y-63906
X13406Y-73906
X13739Y-8906
X13739Y-18906
X13739Y-19906
X13739Y-29906
X13739Y-30906
X13739Y-40906
X13739Y-41906
X13739Y-51906
X13739Y-52906
X13739Y-62906
X13739Y-63906
X13739Y-73906
X14072Y-8906
X14072Y-18906
X14072Y-19906
X14072Y-29906
X14072Y-30906
X14072Y-40906
X14072Y-41906
X14072Y-51906
X14072Y-52906
X14072Y-62906
X14072Y-63906
X14072Y-73906
X14406Y-8906
X14406Y-18906
X14406Y-19906
X14406Y-29906
X14406Y-30906
X14406Y-40906
X14406Y-41906
X14406Y-51906
X14406Y-52906
X14406Y-62906
X14406Y-63906
X14406Y-73906
X18906Y-5906
X18906Y-6239
X18906Y-6572
X18906Y-6906
X18906Y-7239
X18906Y-7572
X18906Y-7906
X18906Y-13406
X18906Y-13739
X18906Y-14072
X18906Y-14406
X18906Y-24406
X18906Y-24739
X18906Y-25072
X18906Y-25406
X18906Y-35406
X18906Y-35739
X18906Y-36072
X18906Y-36406
X18906Y-46406
X18906Y-46739
X18906Y-47072
X18906Y-47406
X18906Y-57406
X18906Y-57739
X18906Y-58072
X18906Y-58406
X18906Y-68406
X18906Y-68739
X18906Y-69072
X18906Y-69406
X18906Y-74906
X18906Y-75239
X18906Y-75572
X18906Y-75906
X18906Y-76239
X18906Y-76572
X18906Y-76906
X19906Y-8906
X19906Y-73906
X20239Y-8906
X20239Y-73906
X20572Y-8906
X20572Y-73906
X20906Y-8906
X20906Y-73906
X21239Y-8906
X21239Y-73906
X21572Y-8906
X21572Y-73906
X21906Y-8906
X21906Y-73906
T0
M30
