G04 #@! TF.GenerationSoftware,KiCad,Pcbnew,6.0.2+dfsg-1*
G04 #@! TF.CreationDate,2023-11-02T10:53:08-06:00*
G04 #@! TF.ProjectId,ckt-dingdong-flash-array,636b742d-6469-46e6-9764-6f6e672d666c,rev?*
G04 #@! TF.SameCoordinates,Original*
G04 #@! TF.FileFunction,Paste,Top*
G04 #@! TF.FilePolarity,Positive*
%FSLAX46Y46*%
G04 Gerber Fmt 4.6, Leading zero omitted, Abs format (unit mm)*
G04 Created by KiCad (PCBNEW 6.0.2+dfsg-1) date 2023-11-02 10:53:08*
%MOMM*%
%LPD*%
G01*
G04 APERTURE LIST*
%ADD10R,3.429000X1.193800*%
%ADD11R,3.454400X1.193800*%
%ADD12R,1.200000X0.900000*%
%ADD13R,0.550000X1.300000*%
G04 APERTURE END LIST*
G36*
G01*
X129229000Y-114435000D02*
X130179000Y-114435000D01*
G75*
G02*
X130429000Y-114685000I0J-250000D01*
G01*
X130429000Y-115185000D01*
G75*
G02*
X130179000Y-115435000I-250000J0D01*
G01*
X129229000Y-115435000D01*
G75*
G02*
X128979000Y-115185000I0J250000D01*
G01*
X128979000Y-114685000D01*
G75*
G02*
X129229000Y-114435000I250000J0D01*
G01*
G37*
G36*
G01*
X129229000Y-116335000D02*
X130179000Y-116335000D01*
G75*
G02*
X130429000Y-116585000I0J-250000D01*
G01*
X130429000Y-117085000D01*
G75*
G02*
X130179000Y-117335000I-250000J0D01*
G01*
X129229000Y-117335000D01*
G75*
G02*
X128979000Y-117085000I0J250000D01*
G01*
X128979000Y-116585000D01*
G75*
G02*
X129229000Y-116335000I250000J0D01*
G01*
G37*
G36*
G01*
X148909000Y-99433000D02*
X148909000Y-100333000D01*
G75*
G02*
X148659000Y-100583000I-250000J0D01*
G01*
X148134000Y-100583000D01*
G75*
G02*
X147884000Y-100333000I0J250000D01*
G01*
X147884000Y-99433000D01*
G75*
G02*
X148134000Y-99183000I250000J0D01*
G01*
X148659000Y-99183000D01*
G75*
G02*
X148909000Y-99433000I0J-250000D01*
G01*
G37*
G36*
G01*
X147084000Y-99433000D02*
X147084000Y-100333000D01*
G75*
G02*
X146834000Y-100583000I-250000J0D01*
G01*
X146309000Y-100583000D01*
G75*
G02*
X146059000Y-100333000I0J250000D01*
G01*
X146059000Y-99433000D01*
G75*
G02*
X146309000Y-99183000I250000J0D01*
G01*
X146834000Y-99183000D01*
G75*
G02*
X147084000Y-99433000I0J-250000D01*
G01*
G37*
G36*
G01*
X137037000Y-161531000D02*
X136087000Y-161531000D01*
G75*
G02*
X135837000Y-161281000I0J250000D01*
G01*
X135837000Y-160781000D01*
G75*
G02*
X136087000Y-160531000I250000J0D01*
G01*
X137037000Y-160531000D01*
G75*
G02*
X137287000Y-160781000I0J-250000D01*
G01*
X137287000Y-161281000D01*
G75*
G02*
X137037000Y-161531000I-250000J0D01*
G01*
G37*
G36*
G01*
X137037000Y-159631000D02*
X136087000Y-159631000D01*
G75*
G02*
X135837000Y-159381000I0J250000D01*
G01*
X135837000Y-158881000D01*
G75*
G02*
X136087000Y-158631000I250000J0D01*
G01*
X137037000Y-158631000D01*
G75*
G02*
X137287000Y-158881000I0J-250000D01*
G01*
X137287000Y-159381000D01*
G75*
G02*
X137037000Y-159631000I-250000J0D01*
G01*
G37*
D10*
X147572900Y-29906000D03*
D11*
X153732400Y-32446000D03*
D10*
X147572900Y-34986000D03*
G36*
G01*
X169542000Y-51092000D02*
X169542000Y-51392000D01*
G75*
G02*
X169392000Y-51542000I-150000J0D01*
G01*
X167642000Y-51542000D01*
G75*
G02*
X167492000Y-51392000I0J150000D01*
G01*
X167492000Y-51092000D01*
G75*
G02*
X167642000Y-50942000I150000J0D01*
G01*
X169392000Y-50942000D01*
G75*
G02*
X169542000Y-51092000I0J-150000D01*
G01*
G37*
G36*
G01*
X169542000Y-49822000D02*
X169542000Y-50122000D01*
G75*
G02*
X169392000Y-50272000I-150000J0D01*
G01*
X167642000Y-50272000D01*
G75*
G02*
X167492000Y-50122000I0J150000D01*
G01*
X167492000Y-49822000D01*
G75*
G02*
X167642000Y-49672000I150000J0D01*
G01*
X169392000Y-49672000D01*
G75*
G02*
X169542000Y-49822000I0J-150000D01*
G01*
G37*
G36*
G01*
X169542000Y-48552000D02*
X169542000Y-48852000D01*
G75*
G02*
X169392000Y-49002000I-150000J0D01*
G01*
X167642000Y-49002000D01*
G75*
G02*
X167492000Y-48852000I0J150000D01*
G01*
X167492000Y-48552000D01*
G75*
G02*
X167642000Y-48402000I150000J0D01*
G01*
X169392000Y-48402000D01*
G75*
G02*
X169542000Y-48552000I0J-150000D01*
G01*
G37*
G36*
G01*
X169542000Y-47282000D02*
X169542000Y-47582000D01*
G75*
G02*
X169392000Y-47732000I-150000J0D01*
G01*
X167642000Y-47732000D01*
G75*
G02*
X167492000Y-47582000I0J150000D01*
G01*
X167492000Y-47282000D01*
G75*
G02*
X167642000Y-47132000I150000J0D01*
G01*
X169392000Y-47132000D01*
G75*
G02*
X169542000Y-47282000I0J-150000D01*
G01*
G37*
G36*
G01*
X169542000Y-46012000D02*
X169542000Y-46312000D01*
G75*
G02*
X169392000Y-46462000I-150000J0D01*
G01*
X167642000Y-46462000D01*
G75*
G02*
X167492000Y-46312000I0J150000D01*
G01*
X167492000Y-46012000D01*
G75*
G02*
X167642000Y-45862000I150000J0D01*
G01*
X169392000Y-45862000D01*
G75*
G02*
X169542000Y-46012000I0J-150000D01*
G01*
G37*
G36*
G01*
X169542000Y-44742000D02*
X169542000Y-45042000D01*
G75*
G02*
X169392000Y-45192000I-150000J0D01*
G01*
X167642000Y-45192000D01*
G75*
G02*
X167492000Y-45042000I0J150000D01*
G01*
X167492000Y-44742000D01*
G75*
G02*
X167642000Y-44592000I150000J0D01*
G01*
X169392000Y-44592000D01*
G75*
G02*
X169542000Y-44742000I0J-150000D01*
G01*
G37*
G36*
G01*
X169542000Y-43472000D02*
X169542000Y-43772000D01*
G75*
G02*
X169392000Y-43922000I-150000J0D01*
G01*
X167642000Y-43922000D01*
G75*
G02*
X167492000Y-43772000I0J150000D01*
G01*
X167492000Y-43472000D01*
G75*
G02*
X167642000Y-43322000I150000J0D01*
G01*
X169392000Y-43322000D01*
G75*
G02*
X169542000Y-43472000I0J-150000D01*
G01*
G37*
G36*
G01*
X169542000Y-42202000D02*
X169542000Y-42502000D01*
G75*
G02*
X169392000Y-42652000I-150000J0D01*
G01*
X167642000Y-42652000D01*
G75*
G02*
X167492000Y-42502000I0J150000D01*
G01*
X167492000Y-42202000D01*
G75*
G02*
X167642000Y-42052000I150000J0D01*
G01*
X169392000Y-42052000D01*
G75*
G02*
X169542000Y-42202000I0J-150000D01*
G01*
G37*
G36*
G01*
X169542000Y-40932000D02*
X169542000Y-41232000D01*
G75*
G02*
X169392000Y-41382000I-150000J0D01*
G01*
X167642000Y-41382000D01*
G75*
G02*
X167492000Y-41232000I0J150000D01*
G01*
X167492000Y-40932000D01*
G75*
G02*
X167642000Y-40782000I150000J0D01*
G01*
X169392000Y-40782000D01*
G75*
G02*
X169542000Y-40932000I0J-150000D01*
G01*
G37*
G36*
G01*
X169542000Y-39662000D02*
X169542000Y-39962000D01*
G75*
G02*
X169392000Y-40112000I-150000J0D01*
G01*
X167642000Y-40112000D01*
G75*
G02*
X167492000Y-39962000I0J150000D01*
G01*
X167492000Y-39662000D01*
G75*
G02*
X167642000Y-39512000I150000J0D01*
G01*
X169392000Y-39512000D01*
G75*
G02*
X169542000Y-39662000I0J-150000D01*
G01*
G37*
G36*
G01*
X160242000Y-39662000D02*
X160242000Y-39962000D01*
G75*
G02*
X160092000Y-40112000I-150000J0D01*
G01*
X158342000Y-40112000D01*
G75*
G02*
X158192000Y-39962000I0J150000D01*
G01*
X158192000Y-39662000D01*
G75*
G02*
X158342000Y-39512000I150000J0D01*
G01*
X160092000Y-39512000D01*
G75*
G02*
X160242000Y-39662000I0J-150000D01*
G01*
G37*
G36*
G01*
X160242000Y-40932000D02*
X160242000Y-41232000D01*
G75*
G02*
X160092000Y-41382000I-150000J0D01*
G01*
X158342000Y-41382000D01*
G75*
G02*
X158192000Y-41232000I0J150000D01*
G01*
X158192000Y-40932000D01*
G75*
G02*
X158342000Y-40782000I150000J0D01*
G01*
X160092000Y-40782000D01*
G75*
G02*
X160242000Y-40932000I0J-150000D01*
G01*
G37*
G36*
G01*
X160242000Y-42202000D02*
X160242000Y-42502000D01*
G75*
G02*
X160092000Y-42652000I-150000J0D01*
G01*
X158342000Y-42652000D01*
G75*
G02*
X158192000Y-42502000I0J150000D01*
G01*
X158192000Y-42202000D01*
G75*
G02*
X158342000Y-42052000I150000J0D01*
G01*
X160092000Y-42052000D01*
G75*
G02*
X160242000Y-42202000I0J-150000D01*
G01*
G37*
G36*
G01*
X160242000Y-43472000D02*
X160242000Y-43772000D01*
G75*
G02*
X160092000Y-43922000I-150000J0D01*
G01*
X158342000Y-43922000D01*
G75*
G02*
X158192000Y-43772000I0J150000D01*
G01*
X158192000Y-43472000D01*
G75*
G02*
X158342000Y-43322000I150000J0D01*
G01*
X160092000Y-43322000D01*
G75*
G02*
X160242000Y-43472000I0J-150000D01*
G01*
G37*
G36*
G01*
X160242000Y-44742000D02*
X160242000Y-45042000D01*
G75*
G02*
X160092000Y-45192000I-150000J0D01*
G01*
X158342000Y-45192000D01*
G75*
G02*
X158192000Y-45042000I0J150000D01*
G01*
X158192000Y-44742000D01*
G75*
G02*
X158342000Y-44592000I150000J0D01*
G01*
X160092000Y-44592000D01*
G75*
G02*
X160242000Y-44742000I0J-150000D01*
G01*
G37*
G36*
G01*
X160242000Y-46012000D02*
X160242000Y-46312000D01*
G75*
G02*
X160092000Y-46462000I-150000J0D01*
G01*
X158342000Y-46462000D01*
G75*
G02*
X158192000Y-46312000I0J150000D01*
G01*
X158192000Y-46012000D01*
G75*
G02*
X158342000Y-45862000I150000J0D01*
G01*
X160092000Y-45862000D01*
G75*
G02*
X160242000Y-46012000I0J-150000D01*
G01*
G37*
G36*
G01*
X160242000Y-47282000D02*
X160242000Y-47582000D01*
G75*
G02*
X160092000Y-47732000I-150000J0D01*
G01*
X158342000Y-47732000D01*
G75*
G02*
X158192000Y-47582000I0J150000D01*
G01*
X158192000Y-47282000D01*
G75*
G02*
X158342000Y-47132000I150000J0D01*
G01*
X160092000Y-47132000D01*
G75*
G02*
X160242000Y-47282000I0J-150000D01*
G01*
G37*
G36*
G01*
X160242000Y-48552000D02*
X160242000Y-48852000D01*
G75*
G02*
X160092000Y-49002000I-150000J0D01*
G01*
X158342000Y-49002000D01*
G75*
G02*
X158192000Y-48852000I0J150000D01*
G01*
X158192000Y-48552000D01*
G75*
G02*
X158342000Y-48402000I150000J0D01*
G01*
X160092000Y-48402000D01*
G75*
G02*
X160242000Y-48552000I0J-150000D01*
G01*
G37*
G36*
G01*
X160242000Y-49822000D02*
X160242000Y-50122000D01*
G75*
G02*
X160092000Y-50272000I-150000J0D01*
G01*
X158342000Y-50272000D01*
G75*
G02*
X158192000Y-50122000I0J150000D01*
G01*
X158192000Y-49822000D01*
G75*
G02*
X158342000Y-49672000I150000J0D01*
G01*
X160092000Y-49672000D01*
G75*
G02*
X160242000Y-49822000I0J-150000D01*
G01*
G37*
G36*
G01*
X160242000Y-51092000D02*
X160242000Y-51392000D01*
G75*
G02*
X160092000Y-51542000I-150000J0D01*
G01*
X158342000Y-51542000D01*
G75*
G02*
X158192000Y-51392000I0J150000D01*
G01*
X158192000Y-51092000D01*
G75*
G02*
X158342000Y-50942000I150000J0D01*
G01*
X160092000Y-50942000D01*
G75*
G02*
X160242000Y-51092000I0J-150000D01*
G01*
G37*
G36*
G01*
X137037000Y-133591000D02*
X136087000Y-133591000D01*
G75*
G02*
X135837000Y-133341000I0J250000D01*
G01*
X135837000Y-132841000D01*
G75*
G02*
X136087000Y-132591000I250000J0D01*
G01*
X137037000Y-132591000D01*
G75*
G02*
X137287000Y-132841000I0J-250000D01*
G01*
X137287000Y-133341000D01*
G75*
G02*
X137037000Y-133591000I-250000J0D01*
G01*
G37*
G36*
G01*
X137037000Y-131691000D02*
X136087000Y-131691000D01*
G75*
G02*
X135837000Y-131441000I0J250000D01*
G01*
X135837000Y-130941000D01*
G75*
G02*
X136087000Y-130691000I250000J0D01*
G01*
X137037000Y-130691000D01*
G75*
G02*
X137287000Y-130941000I0J-250000D01*
G01*
X137287000Y-131441000D01*
G75*
G02*
X137037000Y-131691000I-250000J0D01*
G01*
G37*
G36*
G01*
X129524000Y-79149000D02*
X129524000Y-78199000D01*
G75*
G02*
X129774000Y-77949000I250000J0D01*
G01*
X130274000Y-77949000D01*
G75*
G02*
X130524000Y-78199000I0J-250000D01*
G01*
X130524000Y-79149000D01*
G75*
G02*
X130274000Y-79399000I-250000J0D01*
G01*
X129774000Y-79399000D01*
G75*
G02*
X129524000Y-79149000I0J250000D01*
G01*
G37*
G36*
G01*
X131424000Y-79149000D02*
X131424000Y-78199000D01*
G75*
G02*
X131674000Y-77949000I250000J0D01*
G01*
X132174000Y-77949000D01*
G75*
G02*
X132424000Y-78199000I0J-250000D01*
G01*
X132424000Y-79149000D01*
G75*
G02*
X132174000Y-79399000I-250000J0D01*
G01*
X131674000Y-79399000D01*
G75*
G02*
X131424000Y-79149000I0J250000D01*
G01*
G37*
G36*
G01*
X129229000Y-86495000D02*
X130179000Y-86495000D01*
G75*
G02*
X130429000Y-86745000I0J-250000D01*
G01*
X130429000Y-87245000D01*
G75*
G02*
X130179000Y-87495000I-250000J0D01*
G01*
X129229000Y-87495000D01*
G75*
G02*
X128979000Y-87245000I0J250000D01*
G01*
X128979000Y-86745000D01*
G75*
G02*
X129229000Y-86495000I250000J0D01*
G01*
G37*
G36*
G01*
X129229000Y-88395000D02*
X130179000Y-88395000D01*
G75*
G02*
X130429000Y-88645000I0J-250000D01*
G01*
X130429000Y-89145000D01*
G75*
G02*
X130179000Y-89395000I-250000J0D01*
G01*
X129229000Y-89395000D01*
G75*
G02*
X128979000Y-89145000I0J250000D01*
G01*
X128979000Y-88645000D01*
G75*
G02*
X129229000Y-88395000I250000J0D01*
G01*
G37*
D12*
X134276000Y-71053000D03*
X134276000Y-67753000D03*
X134276000Y-154873000D03*
X134276000Y-151573000D03*
G36*
G01*
X169542000Y-134912000D02*
X169542000Y-135212000D01*
G75*
G02*
X169392000Y-135362000I-150000J0D01*
G01*
X167642000Y-135362000D01*
G75*
G02*
X167492000Y-135212000I0J150000D01*
G01*
X167492000Y-134912000D01*
G75*
G02*
X167642000Y-134762000I150000J0D01*
G01*
X169392000Y-134762000D01*
G75*
G02*
X169542000Y-134912000I0J-150000D01*
G01*
G37*
G36*
G01*
X169542000Y-133642000D02*
X169542000Y-133942000D01*
G75*
G02*
X169392000Y-134092000I-150000J0D01*
G01*
X167642000Y-134092000D01*
G75*
G02*
X167492000Y-133942000I0J150000D01*
G01*
X167492000Y-133642000D01*
G75*
G02*
X167642000Y-133492000I150000J0D01*
G01*
X169392000Y-133492000D01*
G75*
G02*
X169542000Y-133642000I0J-150000D01*
G01*
G37*
G36*
G01*
X169542000Y-132372000D02*
X169542000Y-132672000D01*
G75*
G02*
X169392000Y-132822000I-150000J0D01*
G01*
X167642000Y-132822000D01*
G75*
G02*
X167492000Y-132672000I0J150000D01*
G01*
X167492000Y-132372000D01*
G75*
G02*
X167642000Y-132222000I150000J0D01*
G01*
X169392000Y-132222000D01*
G75*
G02*
X169542000Y-132372000I0J-150000D01*
G01*
G37*
G36*
G01*
X169542000Y-131102000D02*
X169542000Y-131402000D01*
G75*
G02*
X169392000Y-131552000I-150000J0D01*
G01*
X167642000Y-131552000D01*
G75*
G02*
X167492000Y-131402000I0J150000D01*
G01*
X167492000Y-131102000D01*
G75*
G02*
X167642000Y-130952000I150000J0D01*
G01*
X169392000Y-130952000D01*
G75*
G02*
X169542000Y-131102000I0J-150000D01*
G01*
G37*
G36*
G01*
X169542000Y-129832000D02*
X169542000Y-130132000D01*
G75*
G02*
X169392000Y-130282000I-150000J0D01*
G01*
X167642000Y-130282000D01*
G75*
G02*
X167492000Y-130132000I0J150000D01*
G01*
X167492000Y-129832000D01*
G75*
G02*
X167642000Y-129682000I150000J0D01*
G01*
X169392000Y-129682000D01*
G75*
G02*
X169542000Y-129832000I0J-150000D01*
G01*
G37*
G36*
G01*
X169542000Y-128562000D02*
X169542000Y-128862000D01*
G75*
G02*
X169392000Y-129012000I-150000J0D01*
G01*
X167642000Y-129012000D01*
G75*
G02*
X167492000Y-128862000I0J150000D01*
G01*
X167492000Y-128562000D01*
G75*
G02*
X167642000Y-128412000I150000J0D01*
G01*
X169392000Y-128412000D01*
G75*
G02*
X169542000Y-128562000I0J-150000D01*
G01*
G37*
G36*
G01*
X169542000Y-127292000D02*
X169542000Y-127592000D01*
G75*
G02*
X169392000Y-127742000I-150000J0D01*
G01*
X167642000Y-127742000D01*
G75*
G02*
X167492000Y-127592000I0J150000D01*
G01*
X167492000Y-127292000D01*
G75*
G02*
X167642000Y-127142000I150000J0D01*
G01*
X169392000Y-127142000D01*
G75*
G02*
X169542000Y-127292000I0J-150000D01*
G01*
G37*
G36*
G01*
X169542000Y-126022000D02*
X169542000Y-126322000D01*
G75*
G02*
X169392000Y-126472000I-150000J0D01*
G01*
X167642000Y-126472000D01*
G75*
G02*
X167492000Y-126322000I0J150000D01*
G01*
X167492000Y-126022000D01*
G75*
G02*
X167642000Y-125872000I150000J0D01*
G01*
X169392000Y-125872000D01*
G75*
G02*
X169542000Y-126022000I0J-150000D01*
G01*
G37*
G36*
G01*
X169542000Y-124752000D02*
X169542000Y-125052000D01*
G75*
G02*
X169392000Y-125202000I-150000J0D01*
G01*
X167642000Y-125202000D01*
G75*
G02*
X167492000Y-125052000I0J150000D01*
G01*
X167492000Y-124752000D01*
G75*
G02*
X167642000Y-124602000I150000J0D01*
G01*
X169392000Y-124602000D01*
G75*
G02*
X169542000Y-124752000I0J-150000D01*
G01*
G37*
G36*
G01*
X169542000Y-123482000D02*
X169542000Y-123782000D01*
G75*
G02*
X169392000Y-123932000I-150000J0D01*
G01*
X167642000Y-123932000D01*
G75*
G02*
X167492000Y-123782000I0J150000D01*
G01*
X167492000Y-123482000D01*
G75*
G02*
X167642000Y-123332000I150000J0D01*
G01*
X169392000Y-123332000D01*
G75*
G02*
X169542000Y-123482000I0J-150000D01*
G01*
G37*
G36*
G01*
X160242000Y-123482000D02*
X160242000Y-123782000D01*
G75*
G02*
X160092000Y-123932000I-150000J0D01*
G01*
X158342000Y-123932000D01*
G75*
G02*
X158192000Y-123782000I0J150000D01*
G01*
X158192000Y-123482000D01*
G75*
G02*
X158342000Y-123332000I150000J0D01*
G01*
X160092000Y-123332000D01*
G75*
G02*
X160242000Y-123482000I0J-150000D01*
G01*
G37*
G36*
G01*
X160242000Y-124752000D02*
X160242000Y-125052000D01*
G75*
G02*
X160092000Y-125202000I-150000J0D01*
G01*
X158342000Y-125202000D01*
G75*
G02*
X158192000Y-125052000I0J150000D01*
G01*
X158192000Y-124752000D01*
G75*
G02*
X158342000Y-124602000I150000J0D01*
G01*
X160092000Y-124602000D01*
G75*
G02*
X160242000Y-124752000I0J-150000D01*
G01*
G37*
G36*
G01*
X160242000Y-126022000D02*
X160242000Y-126322000D01*
G75*
G02*
X160092000Y-126472000I-150000J0D01*
G01*
X158342000Y-126472000D01*
G75*
G02*
X158192000Y-126322000I0J150000D01*
G01*
X158192000Y-126022000D01*
G75*
G02*
X158342000Y-125872000I150000J0D01*
G01*
X160092000Y-125872000D01*
G75*
G02*
X160242000Y-126022000I0J-150000D01*
G01*
G37*
G36*
G01*
X160242000Y-127292000D02*
X160242000Y-127592000D01*
G75*
G02*
X160092000Y-127742000I-150000J0D01*
G01*
X158342000Y-127742000D01*
G75*
G02*
X158192000Y-127592000I0J150000D01*
G01*
X158192000Y-127292000D01*
G75*
G02*
X158342000Y-127142000I150000J0D01*
G01*
X160092000Y-127142000D01*
G75*
G02*
X160242000Y-127292000I0J-150000D01*
G01*
G37*
G36*
G01*
X160242000Y-128562000D02*
X160242000Y-128862000D01*
G75*
G02*
X160092000Y-129012000I-150000J0D01*
G01*
X158342000Y-129012000D01*
G75*
G02*
X158192000Y-128862000I0J150000D01*
G01*
X158192000Y-128562000D01*
G75*
G02*
X158342000Y-128412000I150000J0D01*
G01*
X160092000Y-128412000D01*
G75*
G02*
X160242000Y-128562000I0J-150000D01*
G01*
G37*
G36*
G01*
X160242000Y-129832000D02*
X160242000Y-130132000D01*
G75*
G02*
X160092000Y-130282000I-150000J0D01*
G01*
X158342000Y-130282000D01*
G75*
G02*
X158192000Y-130132000I0J150000D01*
G01*
X158192000Y-129832000D01*
G75*
G02*
X158342000Y-129682000I150000J0D01*
G01*
X160092000Y-129682000D01*
G75*
G02*
X160242000Y-129832000I0J-150000D01*
G01*
G37*
G36*
G01*
X160242000Y-131102000D02*
X160242000Y-131402000D01*
G75*
G02*
X160092000Y-131552000I-150000J0D01*
G01*
X158342000Y-131552000D01*
G75*
G02*
X158192000Y-131402000I0J150000D01*
G01*
X158192000Y-131102000D01*
G75*
G02*
X158342000Y-130952000I150000J0D01*
G01*
X160092000Y-130952000D01*
G75*
G02*
X160242000Y-131102000I0J-150000D01*
G01*
G37*
G36*
G01*
X160242000Y-132372000D02*
X160242000Y-132672000D01*
G75*
G02*
X160092000Y-132822000I-150000J0D01*
G01*
X158342000Y-132822000D01*
G75*
G02*
X158192000Y-132672000I0J150000D01*
G01*
X158192000Y-132372000D01*
G75*
G02*
X158342000Y-132222000I150000J0D01*
G01*
X160092000Y-132222000D01*
G75*
G02*
X160242000Y-132372000I0J-150000D01*
G01*
G37*
G36*
G01*
X160242000Y-133642000D02*
X160242000Y-133942000D01*
G75*
G02*
X160092000Y-134092000I-150000J0D01*
G01*
X158342000Y-134092000D01*
G75*
G02*
X158192000Y-133942000I0J150000D01*
G01*
X158192000Y-133642000D01*
G75*
G02*
X158342000Y-133492000I150000J0D01*
G01*
X160092000Y-133492000D01*
G75*
G02*
X160242000Y-133642000I0J-150000D01*
G01*
G37*
G36*
G01*
X160242000Y-134912000D02*
X160242000Y-135212000D01*
G75*
G02*
X160092000Y-135362000I-150000J0D01*
G01*
X158342000Y-135362000D01*
G75*
G02*
X158192000Y-135212000I0J150000D01*
G01*
X158192000Y-134912000D01*
G75*
G02*
X158342000Y-134762000I150000J0D01*
G01*
X160092000Y-134762000D01*
G75*
G02*
X160242000Y-134912000I0J-150000D01*
G01*
G37*
G36*
G01*
X155203000Y-58550000D02*
X155203000Y-57650000D01*
G75*
G02*
X155453000Y-57400000I250000J0D01*
G01*
X155978000Y-57400000D01*
G75*
G02*
X156228000Y-57650000I0J-250000D01*
G01*
X156228000Y-58550000D01*
G75*
G02*
X155978000Y-58800000I-250000J0D01*
G01*
X155453000Y-58800000D01*
G75*
G02*
X155203000Y-58550000I0J250000D01*
G01*
G37*
G36*
G01*
X157028000Y-58550000D02*
X157028000Y-57650000D01*
G75*
G02*
X157278000Y-57400000I250000J0D01*
G01*
X157803000Y-57400000D01*
G75*
G02*
X158053000Y-57650000I0J-250000D01*
G01*
X158053000Y-58550000D01*
G75*
G02*
X157803000Y-58800000I-250000J0D01*
G01*
X157278000Y-58800000D01*
G75*
G02*
X157028000Y-58550000I0J250000D01*
G01*
G37*
X134276000Y-43113000D03*
X134276000Y-39813000D03*
G36*
G01*
X138779000Y-130716000D02*
X139679000Y-130716000D01*
G75*
G02*
X139929000Y-130966000I0J-250000D01*
G01*
X139929000Y-131491000D01*
G75*
G02*
X139679000Y-131741000I-250000J0D01*
G01*
X138779000Y-131741000D01*
G75*
G02*
X138529000Y-131491000I0J250000D01*
G01*
X138529000Y-130966000D01*
G75*
G02*
X138779000Y-130716000I250000J0D01*
G01*
G37*
G36*
G01*
X138779000Y-132541000D02*
X139679000Y-132541000D01*
G75*
G02*
X139929000Y-132791000I0J-250000D01*
G01*
X139929000Y-133316000D01*
G75*
G02*
X139679000Y-133566000I-250000J0D01*
G01*
X138779000Y-133566000D01*
G75*
G02*
X138529000Y-133316000I0J250000D01*
G01*
X138529000Y-132791000D01*
G75*
G02*
X138779000Y-132541000I250000J0D01*
G01*
G37*
G36*
G01*
X147275000Y-75141000D02*
X147275000Y-74841000D01*
G75*
G02*
X147425000Y-74691000I150000J0D01*
G01*
X148725000Y-74691000D01*
G75*
G02*
X148875000Y-74841000I0J-150000D01*
G01*
X148875000Y-75141000D01*
G75*
G02*
X148725000Y-75291000I-150000J0D01*
G01*
X147425000Y-75291000D01*
G75*
G02*
X147275000Y-75141000I0J150000D01*
G01*
G37*
G36*
G01*
X147275000Y-76411000D02*
X147275000Y-76111000D01*
G75*
G02*
X147425000Y-75961000I150000J0D01*
G01*
X148725000Y-75961000D01*
G75*
G02*
X148875000Y-76111000I0J-150000D01*
G01*
X148875000Y-76411000D01*
G75*
G02*
X148725000Y-76561000I-150000J0D01*
G01*
X147425000Y-76561000D01*
G75*
G02*
X147275000Y-76411000I0J150000D01*
G01*
G37*
G36*
G01*
X147275000Y-77681000D02*
X147275000Y-77381000D01*
G75*
G02*
X147425000Y-77231000I150000J0D01*
G01*
X148725000Y-77231000D01*
G75*
G02*
X148875000Y-77381000I0J-150000D01*
G01*
X148875000Y-77681000D01*
G75*
G02*
X148725000Y-77831000I-150000J0D01*
G01*
X147425000Y-77831000D01*
G75*
G02*
X147275000Y-77681000I0J150000D01*
G01*
G37*
G36*
G01*
X147275000Y-78951000D02*
X147275000Y-78651000D01*
G75*
G02*
X147425000Y-78501000I150000J0D01*
G01*
X148725000Y-78501000D01*
G75*
G02*
X148875000Y-78651000I0J-150000D01*
G01*
X148875000Y-78951000D01*
G75*
G02*
X148725000Y-79101000I-150000J0D01*
G01*
X147425000Y-79101000D01*
G75*
G02*
X147275000Y-78951000I0J150000D01*
G01*
G37*
G36*
G01*
X154475000Y-78951000D02*
X154475000Y-78651000D01*
G75*
G02*
X154625000Y-78501000I150000J0D01*
G01*
X155925000Y-78501000D01*
G75*
G02*
X156075000Y-78651000I0J-150000D01*
G01*
X156075000Y-78951000D01*
G75*
G02*
X155925000Y-79101000I-150000J0D01*
G01*
X154625000Y-79101000D01*
G75*
G02*
X154475000Y-78951000I0J150000D01*
G01*
G37*
G36*
G01*
X154475000Y-77681000D02*
X154475000Y-77381000D01*
G75*
G02*
X154625000Y-77231000I150000J0D01*
G01*
X155925000Y-77231000D01*
G75*
G02*
X156075000Y-77381000I0J-150000D01*
G01*
X156075000Y-77681000D01*
G75*
G02*
X155925000Y-77831000I-150000J0D01*
G01*
X154625000Y-77831000D01*
G75*
G02*
X154475000Y-77681000I0J150000D01*
G01*
G37*
G36*
G01*
X154475000Y-76411000D02*
X154475000Y-76111000D01*
G75*
G02*
X154625000Y-75961000I150000J0D01*
G01*
X155925000Y-75961000D01*
G75*
G02*
X156075000Y-76111000I0J-150000D01*
G01*
X156075000Y-76411000D01*
G75*
G02*
X155925000Y-76561000I-150000J0D01*
G01*
X154625000Y-76561000D01*
G75*
G02*
X154475000Y-76411000I0J150000D01*
G01*
G37*
G36*
G01*
X154475000Y-75141000D02*
X154475000Y-74841000D01*
G75*
G02*
X154625000Y-74691000I150000J0D01*
G01*
X155925000Y-74691000D01*
G75*
G02*
X156075000Y-74841000I0J-150000D01*
G01*
X156075000Y-75141000D01*
G75*
G02*
X155925000Y-75291000I-150000J0D01*
G01*
X154625000Y-75291000D01*
G75*
G02*
X154475000Y-75141000I0J150000D01*
G01*
G37*
G36*
G01*
X142335000Y-114861000D02*
X143235000Y-114861000D01*
G75*
G02*
X143485000Y-115111000I0J-250000D01*
G01*
X143485000Y-115636000D01*
G75*
G02*
X143235000Y-115886000I-250000J0D01*
G01*
X142335000Y-115886000D01*
G75*
G02*
X142085000Y-115636000I0J250000D01*
G01*
X142085000Y-115111000D01*
G75*
G02*
X142335000Y-114861000I250000J0D01*
G01*
G37*
G36*
G01*
X142335000Y-116686000D02*
X143235000Y-116686000D01*
G75*
G02*
X143485000Y-116936000I0J-250000D01*
G01*
X143485000Y-117461000D01*
G75*
G02*
X143235000Y-117711000I-250000J0D01*
G01*
X142335000Y-117711000D01*
G75*
G02*
X142085000Y-117461000I0J250000D01*
G01*
X142085000Y-116936000D01*
G75*
G02*
X142335000Y-116686000I250000J0D01*
G01*
G37*
G36*
G01*
X146567000Y-38992000D02*
X146567000Y-38092000D01*
G75*
G02*
X146817000Y-37842000I250000J0D01*
G01*
X147342000Y-37842000D01*
G75*
G02*
X147592000Y-38092000I0J-250000D01*
G01*
X147592000Y-38992000D01*
G75*
G02*
X147342000Y-39242000I-250000J0D01*
G01*
X146817000Y-39242000D01*
G75*
G02*
X146567000Y-38992000I0J250000D01*
G01*
G37*
G36*
G01*
X148392000Y-38992000D02*
X148392000Y-38092000D01*
G75*
G02*
X148642000Y-37842000I250000J0D01*
G01*
X149167000Y-37842000D01*
G75*
G02*
X149417000Y-38092000I0J-250000D01*
G01*
X149417000Y-38992000D01*
G75*
G02*
X149167000Y-39242000I-250000J0D01*
G01*
X148642000Y-39242000D01*
G75*
G02*
X148392000Y-38992000I0J250000D01*
G01*
G37*
G36*
G01*
X146567000Y-150752000D02*
X146567000Y-149852000D01*
G75*
G02*
X146817000Y-149602000I250000J0D01*
G01*
X147342000Y-149602000D01*
G75*
G02*
X147592000Y-149852000I0J-250000D01*
G01*
X147592000Y-150752000D01*
G75*
G02*
X147342000Y-151002000I-250000J0D01*
G01*
X146817000Y-151002000D01*
G75*
G02*
X146567000Y-150752000I0J250000D01*
G01*
G37*
G36*
G01*
X148392000Y-150752000D02*
X148392000Y-149852000D01*
G75*
G02*
X148642000Y-149602000I250000J0D01*
G01*
X149167000Y-149602000D01*
G75*
G02*
X149417000Y-149852000I0J-250000D01*
G01*
X149417000Y-150752000D01*
G75*
G02*
X149167000Y-151002000I-250000J0D01*
G01*
X148642000Y-151002000D01*
G75*
G02*
X148392000Y-150752000I0J250000D01*
G01*
G37*
D10*
X147572900Y-141666000D03*
D11*
X153732400Y-144206000D03*
D10*
X147572900Y-146746000D03*
G36*
G01*
X158078000Y-146017000D02*
X158078000Y-146967000D01*
G75*
G02*
X157828000Y-147217000I-250000J0D01*
G01*
X157328000Y-147217000D01*
G75*
G02*
X157078000Y-146967000I0J250000D01*
G01*
X157078000Y-146017000D01*
G75*
G02*
X157328000Y-145767000I250000J0D01*
G01*
X157828000Y-145767000D01*
G75*
G02*
X158078000Y-146017000I0J-250000D01*
G01*
G37*
G36*
G01*
X156178000Y-146017000D02*
X156178000Y-146967000D01*
G75*
G02*
X155928000Y-147217000I-250000J0D01*
G01*
X155428000Y-147217000D01*
G75*
G02*
X155178000Y-146967000I0J250000D01*
G01*
X155178000Y-146017000D01*
G75*
G02*
X155428000Y-145767000I250000J0D01*
G01*
X155928000Y-145767000D01*
G75*
G02*
X156178000Y-146017000I0J-250000D01*
G01*
G37*
G36*
G01*
X155203000Y-86490000D02*
X155203000Y-85590000D01*
G75*
G02*
X155453000Y-85340000I250000J0D01*
G01*
X155978000Y-85340000D01*
G75*
G02*
X156228000Y-85590000I0J-250000D01*
G01*
X156228000Y-86490000D01*
G75*
G02*
X155978000Y-86740000I-250000J0D01*
G01*
X155453000Y-86740000D01*
G75*
G02*
X155203000Y-86490000I0J250000D01*
G01*
G37*
G36*
G01*
X157028000Y-86490000D02*
X157028000Y-85590000D01*
G75*
G02*
X157278000Y-85340000I250000J0D01*
G01*
X157803000Y-85340000D01*
G75*
G02*
X158053000Y-85590000I0J-250000D01*
G01*
X158053000Y-86490000D01*
G75*
G02*
X157803000Y-86740000I-250000J0D01*
G01*
X157278000Y-86740000D01*
G75*
G02*
X157028000Y-86490000I0J250000D01*
G01*
G37*
G36*
G01*
X158078000Y-118077000D02*
X158078000Y-119027000D01*
G75*
G02*
X157828000Y-119277000I-250000J0D01*
G01*
X157328000Y-119277000D01*
G75*
G02*
X157078000Y-119027000I0J250000D01*
G01*
X157078000Y-118077000D01*
G75*
G02*
X157328000Y-117827000I250000J0D01*
G01*
X157828000Y-117827000D01*
G75*
G02*
X158078000Y-118077000I0J-250000D01*
G01*
G37*
G36*
G01*
X156178000Y-118077000D02*
X156178000Y-119027000D01*
G75*
G02*
X155928000Y-119277000I-250000J0D01*
G01*
X155428000Y-119277000D01*
G75*
G02*
X155178000Y-119027000I0J250000D01*
G01*
X155178000Y-118077000D01*
G75*
G02*
X155428000Y-117827000I250000J0D01*
G01*
X155928000Y-117827000D01*
G75*
G02*
X156178000Y-118077000I0J-250000D01*
G01*
G37*
G36*
G01*
X158078000Y-34257000D02*
X158078000Y-35207000D01*
G75*
G02*
X157828000Y-35457000I-250000J0D01*
G01*
X157328000Y-35457000D01*
G75*
G02*
X157078000Y-35207000I0J250000D01*
G01*
X157078000Y-34257000D01*
G75*
G02*
X157328000Y-34007000I250000J0D01*
G01*
X157828000Y-34007000D01*
G75*
G02*
X158078000Y-34257000I0J-250000D01*
G01*
G37*
G36*
G01*
X156178000Y-34257000D02*
X156178000Y-35207000D01*
G75*
G02*
X155928000Y-35457000I-250000J0D01*
G01*
X155428000Y-35457000D01*
G75*
G02*
X155178000Y-35207000I0J250000D01*
G01*
X155178000Y-34257000D01*
G75*
G02*
X155428000Y-34007000I250000J0D01*
G01*
X155928000Y-34007000D01*
G75*
G02*
X156178000Y-34257000I0J-250000D01*
G01*
G37*
G36*
G01*
X169542000Y-106972000D02*
X169542000Y-107272000D01*
G75*
G02*
X169392000Y-107422000I-150000J0D01*
G01*
X167642000Y-107422000D01*
G75*
G02*
X167492000Y-107272000I0J150000D01*
G01*
X167492000Y-106972000D01*
G75*
G02*
X167642000Y-106822000I150000J0D01*
G01*
X169392000Y-106822000D01*
G75*
G02*
X169542000Y-106972000I0J-150000D01*
G01*
G37*
G36*
G01*
X169542000Y-105702000D02*
X169542000Y-106002000D01*
G75*
G02*
X169392000Y-106152000I-150000J0D01*
G01*
X167642000Y-106152000D01*
G75*
G02*
X167492000Y-106002000I0J150000D01*
G01*
X167492000Y-105702000D01*
G75*
G02*
X167642000Y-105552000I150000J0D01*
G01*
X169392000Y-105552000D01*
G75*
G02*
X169542000Y-105702000I0J-150000D01*
G01*
G37*
G36*
G01*
X169542000Y-104432000D02*
X169542000Y-104732000D01*
G75*
G02*
X169392000Y-104882000I-150000J0D01*
G01*
X167642000Y-104882000D01*
G75*
G02*
X167492000Y-104732000I0J150000D01*
G01*
X167492000Y-104432000D01*
G75*
G02*
X167642000Y-104282000I150000J0D01*
G01*
X169392000Y-104282000D01*
G75*
G02*
X169542000Y-104432000I0J-150000D01*
G01*
G37*
G36*
G01*
X169542000Y-103162000D02*
X169542000Y-103462000D01*
G75*
G02*
X169392000Y-103612000I-150000J0D01*
G01*
X167642000Y-103612000D01*
G75*
G02*
X167492000Y-103462000I0J150000D01*
G01*
X167492000Y-103162000D01*
G75*
G02*
X167642000Y-103012000I150000J0D01*
G01*
X169392000Y-103012000D01*
G75*
G02*
X169542000Y-103162000I0J-150000D01*
G01*
G37*
G36*
G01*
X169542000Y-101892000D02*
X169542000Y-102192000D01*
G75*
G02*
X169392000Y-102342000I-150000J0D01*
G01*
X167642000Y-102342000D01*
G75*
G02*
X167492000Y-102192000I0J150000D01*
G01*
X167492000Y-101892000D01*
G75*
G02*
X167642000Y-101742000I150000J0D01*
G01*
X169392000Y-101742000D01*
G75*
G02*
X169542000Y-101892000I0J-150000D01*
G01*
G37*
G36*
G01*
X169542000Y-100622000D02*
X169542000Y-100922000D01*
G75*
G02*
X169392000Y-101072000I-150000J0D01*
G01*
X167642000Y-101072000D01*
G75*
G02*
X167492000Y-100922000I0J150000D01*
G01*
X167492000Y-100622000D01*
G75*
G02*
X167642000Y-100472000I150000J0D01*
G01*
X169392000Y-100472000D01*
G75*
G02*
X169542000Y-100622000I0J-150000D01*
G01*
G37*
G36*
G01*
X169542000Y-99352000D02*
X169542000Y-99652000D01*
G75*
G02*
X169392000Y-99802000I-150000J0D01*
G01*
X167642000Y-99802000D01*
G75*
G02*
X167492000Y-99652000I0J150000D01*
G01*
X167492000Y-99352000D01*
G75*
G02*
X167642000Y-99202000I150000J0D01*
G01*
X169392000Y-99202000D01*
G75*
G02*
X169542000Y-99352000I0J-150000D01*
G01*
G37*
G36*
G01*
X169542000Y-98082000D02*
X169542000Y-98382000D01*
G75*
G02*
X169392000Y-98532000I-150000J0D01*
G01*
X167642000Y-98532000D01*
G75*
G02*
X167492000Y-98382000I0J150000D01*
G01*
X167492000Y-98082000D01*
G75*
G02*
X167642000Y-97932000I150000J0D01*
G01*
X169392000Y-97932000D01*
G75*
G02*
X169542000Y-98082000I0J-150000D01*
G01*
G37*
G36*
G01*
X169542000Y-96812000D02*
X169542000Y-97112000D01*
G75*
G02*
X169392000Y-97262000I-150000J0D01*
G01*
X167642000Y-97262000D01*
G75*
G02*
X167492000Y-97112000I0J150000D01*
G01*
X167492000Y-96812000D01*
G75*
G02*
X167642000Y-96662000I150000J0D01*
G01*
X169392000Y-96662000D01*
G75*
G02*
X169542000Y-96812000I0J-150000D01*
G01*
G37*
G36*
G01*
X169542000Y-95542000D02*
X169542000Y-95842000D01*
G75*
G02*
X169392000Y-95992000I-150000J0D01*
G01*
X167642000Y-95992000D01*
G75*
G02*
X167492000Y-95842000I0J150000D01*
G01*
X167492000Y-95542000D01*
G75*
G02*
X167642000Y-95392000I150000J0D01*
G01*
X169392000Y-95392000D01*
G75*
G02*
X169542000Y-95542000I0J-150000D01*
G01*
G37*
G36*
G01*
X160242000Y-95542000D02*
X160242000Y-95842000D01*
G75*
G02*
X160092000Y-95992000I-150000J0D01*
G01*
X158342000Y-95992000D01*
G75*
G02*
X158192000Y-95842000I0J150000D01*
G01*
X158192000Y-95542000D01*
G75*
G02*
X158342000Y-95392000I150000J0D01*
G01*
X160092000Y-95392000D01*
G75*
G02*
X160242000Y-95542000I0J-150000D01*
G01*
G37*
G36*
G01*
X160242000Y-96812000D02*
X160242000Y-97112000D01*
G75*
G02*
X160092000Y-97262000I-150000J0D01*
G01*
X158342000Y-97262000D01*
G75*
G02*
X158192000Y-97112000I0J150000D01*
G01*
X158192000Y-96812000D01*
G75*
G02*
X158342000Y-96662000I150000J0D01*
G01*
X160092000Y-96662000D01*
G75*
G02*
X160242000Y-96812000I0J-150000D01*
G01*
G37*
G36*
G01*
X160242000Y-98082000D02*
X160242000Y-98382000D01*
G75*
G02*
X160092000Y-98532000I-150000J0D01*
G01*
X158342000Y-98532000D01*
G75*
G02*
X158192000Y-98382000I0J150000D01*
G01*
X158192000Y-98082000D01*
G75*
G02*
X158342000Y-97932000I150000J0D01*
G01*
X160092000Y-97932000D01*
G75*
G02*
X160242000Y-98082000I0J-150000D01*
G01*
G37*
G36*
G01*
X160242000Y-99352000D02*
X160242000Y-99652000D01*
G75*
G02*
X160092000Y-99802000I-150000J0D01*
G01*
X158342000Y-99802000D01*
G75*
G02*
X158192000Y-99652000I0J150000D01*
G01*
X158192000Y-99352000D01*
G75*
G02*
X158342000Y-99202000I150000J0D01*
G01*
X160092000Y-99202000D01*
G75*
G02*
X160242000Y-99352000I0J-150000D01*
G01*
G37*
G36*
G01*
X160242000Y-100622000D02*
X160242000Y-100922000D01*
G75*
G02*
X160092000Y-101072000I-150000J0D01*
G01*
X158342000Y-101072000D01*
G75*
G02*
X158192000Y-100922000I0J150000D01*
G01*
X158192000Y-100622000D01*
G75*
G02*
X158342000Y-100472000I150000J0D01*
G01*
X160092000Y-100472000D01*
G75*
G02*
X160242000Y-100622000I0J-150000D01*
G01*
G37*
G36*
G01*
X160242000Y-101892000D02*
X160242000Y-102192000D01*
G75*
G02*
X160092000Y-102342000I-150000J0D01*
G01*
X158342000Y-102342000D01*
G75*
G02*
X158192000Y-102192000I0J150000D01*
G01*
X158192000Y-101892000D01*
G75*
G02*
X158342000Y-101742000I150000J0D01*
G01*
X160092000Y-101742000D01*
G75*
G02*
X160242000Y-101892000I0J-150000D01*
G01*
G37*
G36*
G01*
X160242000Y-103162000D02*
X160242000Y-103462000D01*
G75*
G02*
X160092000Y-103612000I-150000J0D01*
G01*
X158342000Y-103612000D01*
G75*
G02*
X158192000Y-103462000I0J150000D01*
G01*
X158192000Y-103162000D01*
G75*
G02*
X158342000Y-103012000I150000J0D01*
G01*
X160092000Y-103012000D01*
G75*
G02*
X160242000Y-103162000I0J-150000D01*
G01*
G37*
G36*
G01*
X160242000Y-104432000D02*
X160242000Y-104732000D01*
G75*
G02*
X160092000Y-104882000I-150000J0D01*
G01*
X158342000Y-104882000D01*
G75*
G02*
X158192000Y-104732000I0J150000D01*
G01*
X158192000Y-104432000D01*
G75*
G02*
X158342000Y-104282000I150000J0D01*
G01*
X160092000Y-104282000D01*
G75*
G02*
X160242000Y-104432000I0J-150000D01*
G01*
G37*
G36*
G01*
X160242000Y-105702000D02*
X160242000Y-106002000D01*
G75*
G02*
X160092000Y-106152000I-150000J0D01*
G01*
X158342000Y-106152000D01*
G75*
G02*
X158192000Y-106002000I0J150000D01*
G01*
X158192000Y-105702000D01*
G75*
G02*
X158342000Y-105552000I150000J0D01*
G01*
X160092000Y-105552000D01*
G75*
G02*
X160242000Y-105702000I0J-150000D01*
G01*
G37*
G36*
G01*
X160242000Y-106972000D02*
X160242000Y-107272000D01*
G75*
G02*
X160092000Y-107422000I-150000J0D01*
G01*
X158342000Y-107422000D01*
G75*
G02*
X158192000Y-107272000I0J150000D01*
G01*
X158192000Y-106972000D01*
G75*
G02*
X158342000Y-106822000I150000J0D01*
G01*
X160092000Y-106822000D01*
G75*
G02*
X160242000Y-106972000I0J-150000D01*
G01*
G37*
G36*
G01*
X137037000Y-77711000D02*
X136087000Y-77711000D01*
G75*
G02*
X135837000Y-77461000I0J250000D01*
G01*
X135837000Y-76961000D01*
G75*
G02*
X136087000Y-76711000I250000J0D01*
G01*
X137037000Y-76711000D01*
G75*
G02*
X137287000Y-76961000I0J-250000D01*
G01*
X137287000Y-77461000D01*
G75*
G02*
X137037000Y-77711000I-250000J0D01*
G01*
G37*
G36*
G01*
X137037000Y-75811000D02*
X136087000Y-75811000D01*
G75*
G02*
X135837000Y-75561000I0J250000D01*
G01*
X135837000Y-75061000D01*
G75*
G02*
X136087000Y-74811000I250000J0D01*
G01*
X137037000Y-74811000D01*
G75*
G02*
X137287000Y-75061000I0J-250000D01*
G01*
X137287000Y-75561000D01*
G75*
G02*
X137037000Y-75811000I-250000J0D01*
G01*
G37*
G36*
G01*
X169542000Y-162852000D02*
X169542000Y-163152000D01*
G75*
G02*
X169392000Y-163302000I-150000J0D01*
G01*
X167642000Y-163302000D01*
G75*
G02*
X167492000Y-163152000I0J150000D01*
G01*
X167492000Y-162852000D01*
G75*
G02*
X167642000Y-162702000I150000J0D01*
G01*
X169392000Y-162702000D01*
G75*
G02*
X169542000Y-162852000I0J-150000D01*
G01*
G37*
G36*
G01*
X169542000Y-161582000D02*
X169542000Y-161882000D01*
G75*
G02*
X169392000Y-162032000I-150000J0D01*
G01*
X167642000Y-162032000D01*
G75*
G02*
X167492000Y-161882000I0J150000D01*
G01*
X167492000Y-161582000D01*
G75*
G02*
X167642000Y-161432000I150000J0D01*
G01*
X169392000Y-161432000D01*
G75*
G02*
X169542000Y-161582000I0J-150000D01*
G01*
G37*
G36*
G01*
X169542000Y-160312000D02*
X169542000Y-160612000D01*
G75*
G02*
X169392000Y-160762000I-150000J0D01*
G01*
X167642000Y-160762000D01*
G75*
G02*
X167492000Y-160612000I0J150000D01*
G01*
X167492000Y-160312000D01*
G75*
G02*
X167642000Y-160162000I150000J0D01*
G01*
X169392000Y-160162000D01*
G75*
G02*
X169542000Y-160312000I0J-150000D01*
G01*
G37*
G36*
G01*
X169542000Y-159042000D02*
X169542000Y-159342000D01*
G75*
G02*
X169392000Y-159492000I-150000J0D01*
G01*
X167642000Y-159492000D01*
G75*
G02*
X167492000Y-159342000I0J150000D01*
G01*
X167492000Y-159042000D01*
G75*
G02*
X167642000Y-158892000I150000J0D01*
G01*
X169392000Y-158892000D01*
G75*
G02*
X169542000Y-159042000I0J-150000D01*
G01*
G37*
G36*
G01*
X169542000Y-157772000D02*
X169542000Y-158072000D01*
G75*
G02*
X169392000Y-158222000I-150000J0D01*
G01*
X167642000Y-158222000D01*
G75*
G02*
X167492000Y-158072000I0J150000D01*
G01*
X167492000Y-157772000D01*
G75*
G02*
X167642000Y-157622000I150000J0D01*
G01*
X169392000Y-157622000D01*
G75*
G02*
X169542000Y-157772000I0J-150000D01*
G01*
G37*
G36*
G01*
X169542000Y-156502000D02*
X169542000Y-156802000D01*
G75*
G02*
X169392000Y-156952000I-150000J0D01*
G01*
X167642000Y-156952000D01*
G75*
G02*
X167492000Y-156802000I0J150000D01*
G01*
X167492000Y-156502000D01*
G75*
G02*
X167642000Y-156352000I150000J0D01*
G01*
X169392000Y-156352000D01*
G75*
G02*
X169542000Y-156502000I0J-150000D01*
G01*
G37*
G36*
G01*
X169542000Y-155232000D02*
X169542000Y-155532000D01*
G75*
G02*
X169392000Y-155682000I-150000J0D01*
G01*
X167642000Y-155682000D01*
G75*
G02*
X167492000Y-155532000I0J150000D01*
G01*
X167492000Y-155232000D01*
G75*
G02*
X167642000Y-155082000I150000J0D01*
G01*
X169392000Y-155082000D01*
G75*
G02*
X169542000Y-155232000I0J-150000D01*
G01*
G37*
G36*
G01*
X169542000Y-153962000D02*
X169542000Y-154262000D01*
G75*
G02*
X169392000Y-154412000I-150000J0D01*
G01*
X167642000Y-154412000D01*
G75*
G02*
X167492000Y-154262000I0J150000D01*
G01*
X167492000Y-153962000D01*
G75*
G02*
X167642000Y-153812000I150000J0D01*
G01*
X169392000Y-153812000D01*
G75*
G02*
X169542000Y-153962000I0J-150000D01*
G01*
G37*
G36*
G01*
X169542000Y-152692000D02*
X169542000Y-152992000D01*
G75*
G02*
X169392000Y-153142000I-150000J0D01*
G01*
X167642000Y-153142000D01*
G75*
G02*
X167492000Y-152992000I0J150000D01*
G01*
X167492000Y-152692000D01*
G75*
G02*
X167642000Y-152542000I150000J0D01*
G01*
X169392000Y-152542000D01*
G75*
G02*
X169542000Y-152692000I0J-150000D01*
G01*
G37*
G36*
G01*
X169542000Y-151422000D02*
X169542000Y-151722000D01*
G75*
G02*
X169392000Y-151872000I-150000J0D01*
G01*
X167642000Y-151872000D01*
G75*
G02*
X167492000Y-151722000I0J150000D01*
G01*
X167492000Y-151422000D01*
G75*
G02*
X167642000Y-151272000I150000J0D01*
G01*
X169392000Y-151272000D01*
G75*
G02*
X169542000Y-151422000I0J-150000D01*
G01*
G37*
G36*
G01*
X160242000Y-151422000D02*
X160242000Y-151722000D01*
G75*
G02*
X160092000Y-151872000I-150000J0D01*
G01*
X158342000Y-151872000D01*
G75*
G02*
X158192000Y-151722000I0J150000D01*
G01*
X158192000Y-151422000D01*
G75*
G02*
X158342000Y-151272000I150000J0D01*
G01*
X160092000Y-151272000D01*
G75*
G02*
X160242000Y-151422000I0J-150000D01*
G01*
G37*
G36*
G01*
X160242000Y-152692000D02*
X160242000Y-152992000D01*
G75*
G02*
X160092000Y-153142000I-150000J0D01*
G01*
X158342000Y-153142000D01*
G75*
G02*
X158192000Y-152992000I0J150000D01*
G01*
X158192000Y-152692000D01*
G75*
G02*
X158342000Y-152542000I150000J0D01*
G01*
X160092000Y-152542000D01*
G75*
G02*
X160242000Y-152692000I0J-150000D01*
G01*
G37*
G36*
G01*
X160242000Y-153962000D02*
X160242000Y-154262000D01*
G75*
G02*
X160092000Y-154412000I-150000J0D01*
G01*
X158342000Y-154412000D01*
G75*
G02*
X158192000Y-154262000I0J150000D01*
G01*
X158192000Y-153962000D01*
G75*
G02*
X158342000Y-153812000I150000J0D01*
G01*
X160092000Y-153812000D01*
G75*
G02*
X160242000Y-153962000I0J-150000D01*
G01*
G37*
G36*
G01*
X160242000Y-155232000D02*
X160242000Y-155532000D01*
G75*
G02*
X160092000Y-155682000I-150000J0D01*
G01*
X158342000Y-155682000D01*
G75*
G02*
X158192000Y-155532000I0J150000D01*
G01*
X158192000Y-155232000D01*
G75*
G02*
X158342000Y-155082000I150000J0D01*
G01*
X160092000Y-155082000D01*
G75*
G02*
X160242000Y-155232000I0J-150000D01*
G01*
G37*
G36*
G01*
X160242000Y-156502000D02*
X160242000Y-156802000D01*
G75*
G02*
X160092000Y-156952000I-150000J0D01*
G01*
X158342000Y-156952000D01*
G75*
G02*
X158192000Y-156802000I0J150000D01*
G01*
X158192000Y-156502000D01*
G75*
G02*
X158342000Y-156352000I150000J0D01*
G01*
X160092000Y-156352000D01*
G75*
G02*
X160242000Y-156502000I0J-150000D01*
G01*
G37*
G36*
G01*
X160242000Y-157772000D02*
X160242000Y-158072000D01*
G75*
G02*
X160092000Y-158222000I-150000J0D01*
G01*
X158342000Y-158222000D01*
G75*
G02*
X158192000Y-158072000I0J150000D01*
G01*
X158192000Y-157772000D01*
G75*
G02*
X158342000Y-157622000I150000J0D01*
G01*
X160092000Y-157622000D01*
G75*
G02*
X160242000Y-157772000I0J-150000D01*
G01*
G37*
G36*
G01*
X160242000Y-159042000D02*
X160242000Y-159342000D01*
G75*
G02*
X160092000Y-159492000I-150000J0D01*
G01*
X158342000Y-159492000D01*
G75*
G02*
X158192000Y-159342000I0J150000D01*
G01*
X158192000Y-159042000D01*
G75*
G02*
X158342000Y-158892000I150000J0D01*
G01*
X160092000Y-158892000D01*
G75*
G02*
X160242000Y-159042000I0J-150000D01*
G01*
G37*
G36*
G01*
X160242000Y-160312000D02*
X160242000Y-160612000D01*
G75*
G02*
X160092000Y-160762000I-150000J0D01*
G01*
X158342000Y-160762000D01*
G75*
G02*
X158192000Y-160612000I0J150000D01*
G01*
X158192000Y-160312000D01*
G75*
G02*
X158342000Y-160162000I150000J0D01*
G01*
X160092000Y-160162000D01*
G75*
G02*
X160242000Y-160312000I0J-150000D01*
G01*
G37*
G36*
G01*
X160242000Y-161582000D02*
X160242000Y-161882000D01*
G75*
G02*
X160092000Y-162032000I-150000J0D01*
G01*
X158342000Y-162032000D01*
G75*
G02*
X158192000Y-161882000I0J150000D01*
G01*
X158192000Y-161582000D01*
G75*
G02*
X158342000Y-161432000I150000J0D01*
G01*
X160092000Y-161432000D01*
G75*
G02*
X160242000Y-161582000I0J-150000D01*
G01*
G37*
G36*
G01*
X160242000Y-162852000D02*
X160242000Y-163152000D01*
G75*
G02*
X160092000Y-163302000I-150000J0D01*
G01*
X158342000Y-163302000D01*
G75*
G02*
X158192000Y-163152000I0J150000D01*
G01*
X158192000Y-162852000D01*
G75*
G02*
X158342000Y-162702000I150000J0D01*
G01*
X160092000Y-162702000D01*
G75*
G02*
X160242000Y-162852000I0J-150000D01*
G01*
G37*
G36*
G01*
X138779000Y-158656000D02*
X139679000Y-158656000D01*
G75*
G02*
X139929000Y-158906000I0J-250000D01*
G01*
X139929000Y-159431000D01*
G75*
G02*
X139679000Y-159681000I-250000J0D01*
G01*
X138779000Y-159681000D01*
G75*
G02*
X138529000Y-159431000I0J250000D01*
G01*
X138529000Y-158906000D01*
G75*
G02*
X138779000Y-158656000I250000J0D01*
G01*
G37*
G36*
G01*
X138779000Y-160481000D02*
X139679000Y-160481000D01*
G75*
G02*
X139929000Y-160731000I0J-250000D01*
G01*
X139929000Y-161256000D01*
G75*
G02*
X139679000Y-161506000I-250000J0D01*
G01*
X138779000Y-161506000D01*
G75*
G02*
X138529000Y-161256000I0J250000D01*
G01*
X138529000Y-160731000D01*
G75*
G02*
X138779000Y-160481000I250000J0D01*
G01*
G37*
G36*
G01*
X140287000Y-128463000D02*
X139187000Y-128463000D01*
G75*
G02*
X138937000Y-128213000I0J250000D01*
G01*
X138937000Y-125213000D01*
G75*
G02*
X139187000Y-124963000I250000J0D01*
G01*
X140287000Y-124963000D01*
G75*
G02*
X140537000Y-125213000I0J-250000D01*
G01*
X140537000Y-128213000D01*
G75*
G02*
X140287000Y-128463000I-250000J0D01*
G01*
G37*
G36*
G01*
X140287000Y-123063000D02*
X139187000Y-123063000D01*
G75*
G02*
X138937000Y-122813000I0J250000D01*
G01*
X138937000Y-119813000D01*
G75*
G02*
X139187000Y-119563000I250000J0D01*
G01*
X140287000Y-119563000D01*
G75*
G02*
X140537000Y-119813000I0J-250000D01*
G01*
X140537000Y-122813000D01*
G75*
G02*
X140287000Y-123063000I-250000J0D01*
G01*
G37*
G36*
G01*
X140287000Y-156403000D02*
X139187000Y-156403000D01*
G75*
G02*
X138937000Y-156153000I0J250000D01*
G01*
X138937000Y-153153000D01*
G75*
G02*
X139187000Y-152903000I250000J0D01*
G01*
X140287000Y-152903000D01*
G75*
G02*
X140537000Y-153153000I0J-250000D01*
G01*
X140537000Y-156153000D01*
G75*
G02*
X140287000Y-156403000I-250000J0D01*
G01*
G37*
G36*
G01*
X140287000Y-151003000D02*
X139187000Y-151003000D01*
G75*
G02*
X138937000Y-150753000I0J250000D01*
G01*
X138937000Y-147753000D01*
G75*
G02*
X139187000Y-147503000I250000J0D01*
G01*
X140287000Y-147503000D01*
G75*
G02*
X140537000Y-147753000I0J-250000D01*
G01*
X140537000Y-150753000D01*
G75*
G02*
X140287000Y-151003000I-250000J0D01*
G01*
G37*
G36*
G01*
X140287000Y-44643000D02*
X139187000Y-44643000D01*
G75*
G02*
X138937000Y-44393000I0J250000D01*
G01*
X138937000Y-41393000D01*
G75*
G02*
X139187000Y-41143000I250000J0D01*
G01*
X140287000Y-41143000D01*
G75*
G02*
X140537000Y-41393000I0J-250000D01*
G01*
X140537000Y-44393000D01*
G75*
G02*
X140287000Y-44643000I-250000J0D01*
G01*
G37*
G36*
G01*
X140287000Y-39243000D02*
X139187000Y-39243000D01*
G75*
G02*
X138937000Y-38993000I0J250000D01*
G01*
X138937000Y-35993000D01*
G75*
G02*
X139187000Y-35743000I250000J0D01*
G01*
X140287000Y-35743000D01*
G75*
G02*
X140537000Y-35993000I0J-250000D01*
G01*
X140537000Y-38993000D01*
G75*
G02*
X140287000Y-39243000I-250000J0D01*
G01*
G37*
D12*
X134276000Y-98993000D03*
X134276000Y-95693000D03*
G36*
G01*
X158078000Y-62197000D02*
X158078000Y-63147000D01*
G75*
G02*
X157828000Y-63397000I-250000J0D01*
G01*
X157328000Y-63397000D01*
G75*
G02*
X157078000Y-63147000I0J250000D01*
G01*
X157078000Y-62197000D01*
G75*
G02*
X157328000Y-61947000I250000J0D01*
G01*
X157828000Y-61947000D01*
G75*
G02*
X158078000Y-62197000I0J-250000D01*
G01*
G37*
G36*
G01*
X156178000Y-62197000D02*
X156178000Y-63147000D01*
G75*
G02*
X155928000Y-63397000I-250000J0D01*
G01*
X155428000Y-63397000D01*
G75*
G02*
X155178000Y-63147000I0J250000D01*
G01*
X155178000Y-62197000D01*
G75*
G02*
X155428000Y-61947000I250000J0D01*
G01*
X155928000Y-61947000D01*
G75*
G02*
X156178000Y-62197000I0J-250000D01*
G01*
G37*
G36*
G01*
X138779000Y-102776000D02*
X139679000Y-102776000D01*
G75*
G02*
X139929000Y-103026000I0J-250000D01*
G01*
X139929000Y-103551000D01*
G75*
G02*
X139679000Y-103801000I-250000J0D01*
G01*
X138779000Y-103801000D01*
G75*
G02*
X138529000Y-103551000I0J250000D01*
G01*
X138529000Y-103026000D01*
G75*
G02*
X138779000Y-102776000I250000J0D01*
G01*
G37*
G36*
G01*
X138779000Y-104601000D02*
X139679000Y-104601000D01*
G75*
G02*
X139929000Y-104851000I0J-250000D01*
G01*
X139929000Y-105376000D01*
G75*
G02*
X139679000Y-105626000I-250000J0D01*
G01*
X138779000Y-105626000D01*
G75*
G02*
X138529000Y-105376000I0J250000D01*
G01*
X138529000Y-104851000D01*
G75*
G02*
X138779000Y-104601000I250000J0D01*
G01*
G37*
D10*
X147572900Y-57846000D03*
D11*
X153732400Y-60386000D03*
D10*
X147572900Y-62926000D03*
G36*
G01*
X129229000Y-58555000D02*
X130179000Y-58555000D01*
G75*
G02*
X130429000Y-58805000I0J-250000D01*
G01*
X130429000Y-59305000D01*
G75*
G02*
X130179000Y-59555000I-250000J0D01*
G01*
X129229000Y-59555000D01*
G75*
G02*
X128979000Y-59305000I0J250000D01*
G01*
X128979000Y-58805000D01*
G75*
G02*
X129229000Y-58555000I250000J0D01*
G01*
G37*
G36*
G01*
X129229000Y-60455000D02*
X130179000Y-60455000D01*
G75*
G02*
X130429000Y-60705000I0J-250000D01*
G01*
X130429000Y-61205000D01*
G75*
G02*
X130179000Y-61455000I-250000J0D01*
G01*
X129229000Y-61455000D01*
G75*
G02*
X128979000Y-61205000I0J250000D01*
G01*
X128979000Y-60705000D01*
G75*
G02*
X129229000Y-60455000I250000J0D01*
G01*
G37*
G36*
G01*
X142335000Y-31041000D02*
X143235000Y-31041000D01*
G75*
G02*
X143485000Y-31291000I0J-250000D01*
G01*
X143485000Y-31816000D01*
G75*
G02*
X143235000Y-32066000I-250000J0D01*
G01*
X142335000Y-32066000D01*
G75*
G02*
X142085000Y-31816000I0J250000D01*
G01*
X142085000Y-31291000D01*
G75*
G02*
X142335000Y-31041000I250000J0D01*
G01*
G37*
G36*
G01*
X142335000Y-32866000D02*
X143235000Y-32866000D01*
G75*
G02*
X143485000Y-33116000I0J-250000D01*
G01*
X143485000Y-33641000D01*
G75*
G02*
X143235000Y-33891000I-250000J0D01*
G01*
X142335000Y-33891000D01*
G75*
G02*
X142085000Y-33641000I0J250000D01*
G01*
X142085000Y-33116000D01*
G75*
G02*
X142335000Y-32866000I250000J0D01*
G01*
G37*
G36*
G01*
X142335000Y-58981000D02*
X143235000Y-58981000D01*
G75*
G02*
X143485000Y-59231000I0J-250000D01*
G01*
X143485000Y-59756000D01*
G75*
G02*
X143235000Y-60006000I-250000J0D01*
G01*
X142335000Y-60006000D01*
G75*
G02*
X142085000Y-59756000I0J250000D01*
G01*
X142085000Y-59231000D01*
G75*
G02*
X142335000Y-58981000I250000J0D01*
G01*
G37*
G36*
G01*
X142335000Y-60806000D02*
X143235000Y-60806000D01*
G75*
G02*
X143485000Y-61056000I0J-250000D01*
G01*
X143485000Y-61581000D01*
G75*
G02*
X143235000Y-61831000I-250000J0D01*
G01*
X142335000Y-61831000D01*
G75*
G02*
X142085000Y-61581000I0J250000D01*
G01*
X142085000Y-61056000D01*
G75*
G02*
X142335000Y-60806000I250000J0D01*
G01*
G37*
G36*
G01*
X146567000Y-94872000D02*
X146567000Y-93972000D01*
G75*
G02*
X146817000Y-93722000I250000J0D01*
G01*
X147342000Y-93722000D01*
G75*
G02*
X147592000Y-93972000I0J-250000D01*
G01*
X147592000Y-94872000D01*
G75*
G02*
X147342000Y-95122000I-250000J0D01*
G01*
X146817000Y-95122000D01*
G75*
G02*
X146567000Y-94872000I0J250000D01*
G01*
G37*
G36*
G01*
X148392000Y-94872000D02*
X148392000Y-93972000D01*
G75*
G02*
X148642000Y-93722000I250000J0D01*
G01*
X149167000Y-93722000D01*
G75*
G02*
X149417000Y-93972000I0J-250000D01*
G01*
X149417000Y-94872000D01*
G75*
G02*
X149167000Y-95122000I-250000J0D01*
G01*
X148642000Y-95122000D01*
G75*
G02*
X148392000Y-94872000I0J250000D01*
G01*
G37*
G36*
G01*
X147275000Y-158961000D02*
X147275000Y-158661000D01*
G75*
G02*
X147425000Y-158511000I150000J0D01*
G01*
X148725000Y-158511000D01*
G75*
G02*
X148875000Y-158661000I0J-150000D01*
G01*
X148875000Y-158961000D01*
G75*
G02*
X148725000Y-159111000I-150000J0D01*
G01*
X147425000Y-159111000D01*
G75*
G02*
X147275000Y-158961000I0J150000D01*
G01*
G37*
G36*
G01*
X147275000Y-160231000D02*
X147275000Y-159931000D01*
G75*
G02*
X147425000Y-159781000I150000J0D01*
G01*
X148725000Y-159781000D01*
G75*
G02*
X148875000Y-159931000I0J-150000D01*
G01*
X148875000Y-160231000D01*
G75*
G02*
X148725000Y-160381000I-150000J0D01*
G01*
X147425000Y-160381000D01*
G75*
G02*
X147275000Y-160231000I0J150000D01*
G01*
G37*
G36*
G01*
X147275000Y-161501000D02*
X147275000Y-161201000D01*
G75*
G02*
X147425000Y-161051000I150000J0D01*
G01*
X148725000Y-161051000D01*
G75*
G02*
X148875000Y-161201000I0J-150000D01*
G01*
X148875000Y-161501000D01*
G75*
G02*
X148725000Y-161651000I-150000J0D01*
G01*
X147425000Y-161651000D01*
G75*
G02*
X147275000Y-161501000I0J150000D01*
G01*
G37*
G36*
G01*
X147275000Y-162771000D02*
X147275000Y-162471000D01*
G75*
G02*
X147425000Y-162321000I150000J0D01*
G01*
X148725000Y-162321000D01*
G75*
G02*
X148875000Y-162471000I0J-150000D01*
G01*
X148875000Y-162771000D01*
G75*
G02*
X148725000Y-162921000I-150000J0D01*
G01*
X147425000Y-162921000D01*
G75*
G02*
X147275000Y-162771000I0J150000D01*
G01*
G37*
G36*
G01*
X154475000Y-162771000D02*
X154475000Y-162471000D01*
G75*
G02*
X154625000Y-162321000I150000J0D01*
G01*
X155925000Y-162321000D01*
G75*
G02*
X156075000Y-162471000I0J-150000D01*
G01*
X156075000Y-162771000D01*
G75*
G02*
X155925000Y-162921000I-150000J0D01*
G01*
X154625000Y-162921000D01*
G75*
G02*
X154475000Y-162771000I0J150000D01*
G01*
G37*
G36*
G01*
X154475000Y-161501000D02*
X154475000Y-161201000D01*
G75*
G02*
X154625000Y-161051000I150000J0D01*
G01*
X155925000Y-161051000D01*
G75*
G02*
X156075000Y-161201000I0J-150000D01*
G01*
X156075000Y-161501000D01*
G75*
G02*
X155925000Y-161651000I-150000J0D01*
G01*
X154625000Y-161651000D01*
G75*
G02*
X154475000Y-161501000I0J150000D01*
G01*
G37*
G36*
G01*
X154475000Y-160231000D02*
X154475000Y-159931000D01*
G75*
G02*
X154625000Y-159781000I150000J0D01*
G01*
X155925000Y-159781000D01*
G75*
G02*
X156075000Y-159931000I0J-150000D01*
G01*
X156075000Y-160231000D01*
G75*
G02*
X155925000Y-160381000I-150000J0D01*
G01*
X154625000Y-160381000D01*
G75*
G02*
X154475000Y-160231000I0J150000D01*
G01*
G37*
G36*
G01*
X154475000Y-158961000D02*
X154475000Y-158661000D01*
G75*
G02*
X154625000Y-158511000I150000J0D01*
G01*
X155925000Y-158511000D01*
G75*
G02*
X156075000Y-158661000I0J-150000D01*
G01*
X156075000Y-158961000D01*
G75*
G02*
X155925000Y-159111000I-150000J0D01*
G01*
X154625000Y-159111000D01*
G75*
G02*
X154475000Y-158961000I0J150000D01*
G01*
G37*
G36*
G01*
X130571008Y-94400011D02*
X131821008Y-94400011D01*
G75*
G02*
X131971008Y-94550011I0J-150000D01*
G01*
X131971008Y-94850011D01*
G75*
G02*
X131821008Y-95000011I-150000J0D01*
G01*
X130571008Y-95000011D01*
G75*
G02*
X130421008Y-94850011I0J150000D01*
G01*
X130421008Y-94550011D01*
G75*
G02*
X130571008Y-94400011I150000J0D01*
G01*
G37*
G36*
G01*
X130571008Y-95400011D02*
X131821008Y-95400011D01*
G75*
G02*
X131971008Y-95550011I0J-150000D01*
G01*
X131971008Y-95850011D01*
G75*
G02*
X131821008Y-96000011I-150000J0D01*
G01*
X130571008Y-96000011D01*
G75*
G02*
X130421008Y-95850011I0J150000D01*
G01*
X130421008Y-95550011D01*
G75*
G02*
X130571008Y-95400011I150000J0D01*
G01*
G37*
G36*
G01*
X130571008Y-96400011D02*
X131821008Y-96400011D01*
G75*
G02*
X131971008Y-96550011I0J-150000D01*
G01*
X131971008Y-96850011D01*
G75*
G02*
X131821008Y-97000011I-150000J0D01*
G01*
X130571008Y-97000011D01*
G75*
G02*
X130421008Y-96850011I0J150000D01*
G01*
X130421008Y-96550011D01*
G75*
G02*
X130571008Y-96400011I150000J0D01*
G01*
G37*
G36*
G01*
X130571008Y-97400011D02*
X131821008Y-97400011D01*
G75*
G02*
X131971008Y-97550011I0J-150000D01*
G01*
X131971008Y-97850011D01*
G75*
G02*
X131821008Y-98000011I-150000J0D01*
G01*
X130571008Y-98000011D01*
G75*
G02*
X130421008Y-97850011I0J150000D01*
G01*
X130421008Y-97550011D01*
G75*
G02*
X130571008Y-97400011I150000J0D01*
G01*
G37*
G36*
G01*
X126671008Y-98400011D02*
X127971008Y-98400011D01*
G75*
G02*
X128221008Y-98650011I0J-250000D01*
G01*
X128221008Y-99350011D01*
G75*
G02*
X127971008Y-99600011I-250000J0D01*
G01*
X126671008Y-99600011D01*
G75*
G02*
X126421008Y-99350011I0J250000D01*
G01*
X126421008Y-98650011D01*
G75*
G02*
X126671008Y-98400011I250000J0D01*
G01*
G37*
G36*
G01*
X126671008Y-92800011D02*
X127971008Y-92800011D01*
G75*
G02*
X128221008Y-93050011I0J-250000D01*
G01*
X128221008Y-93750011D01*
G75*
G02*
X127971008Y-94000011I-250000J0D01*
G01*
X126671008Y-94000011D01*
G75*
G02*
X126421008Y-93750011I0J250000D01*
G01*
X126421008Y-93050011D01*
G75*
G02*
X126671008Y-92800011I250000J0D01*
G01*
G37*
D13*
X130236000Y-132394000D03*
G36*
X132661000Y-128444000D02*
G01*
X132661000Y-131044000D01*
X132136000Y-131569000D01*
X132136000Y-133044000D01*
X131336000Y-133044000D01*
X131336000Y-131569000D01*
X130811000Y-131044000D01*
X130811000Y-128444000D01*
X132661000Y-128444000D01*
G37*
X133236000Y-132394000D03*
G36*
G01*
X145165000Y-133591000D02*
X144215000Y-133591000D01*
G75*
G02*
X143965000Y-133341000I0J250000D01*
G01*
X143965000Y-132841000D01*
G75*
G02*
X144215000Y-132591000I250000J0D01*
G01*
X145165000Y-132591000D01*
G75*
G02*
X145415000Y-132841000I0J-250000D01*
G01*
X145415000Y-133341000D01*
G75*
G02*
X145165000Y-133591000I-250000J0D01*
G01*
G37*
G36*
G01*
X145165000Y-131691000D02*
X144215000Y-131691000D01*
G75*
G02*
X143965000Y-131441000I0J250000D01*
G01*
X143965000Y-130941000D01*
G75*
G02*
X144215000Y-130691000I250000J0D01*
G01*
X145165000Y-130691000D01*
G75*
G02*
X145415000Y-130941000I0J-250000D01*
G01*
X145415000Y-131441000D01*
G75*
G02*
X145165000Y-131691000I-250000J0D01*
G01*
G37*
G36*
G01*
X140287000Y-72583000D02*
X139187000Y-72583000D01*
G75*
G02*
X138937000Y-72333000I0J250000D01*
G01*
X138937000Y-69333000D01*
G75*
G02*
X139187000Y-69083000I250000J0D01*
G01*
X140287000Y-69083000D01*
G75*
G02*
X140537000Y-69333000I0J-250000D01*
G01*
X140537000Y-72333000D01*
G75*
G02*
X140287000Y-72583000I-250000J0D01*
G01*
G37*
G36*
G01*
X140287000Y-67183000D02*
X139187000Y-67183000D01*
G75*
G02*
X138937000Y-66933000I0J250000D01*
G01*
X138937000Y-63933000D01*
G75*
G02*
X139187000Y-63683000I250000J0D01*
G01*
X140287000Y-63683000D01*
G75*
G02*
X140537000Y-63933000I0J-250000D01*
G01*
X140537000Y-66933000D01*
G75*
G02*
X140287000Y-67183000I-250000J0D01*
G01*
G37*
G36*
G01*
X169542000Y-79032000D02*
X169542000Y-79332000D01*
G75*
G02*
X169392000Y-79482000I-150000J0D01*
G01*
X167642000Y-79482000D01*
G75*
G02*
X167492000Y-79332000I0J150000D01*
G01*
X167492000Y-79032000D01*
G75*
G02*
X167642000Y-78882000I150000J0D01*
G01*
X169392000Y-78882000D01*
G75*
G02*
X169542000Y-79032000I0J-150000D01*
G01*
G37*
G36*
G01*
X169542000Y-77762000D02*
X169542000Y-78062000D01*
G75*
G02*
X169392000Y-78212000I-150000J0D01*
G01*
X167642000Y-78212000D01*
G75*
G02*
X167492000Y-78062000I0J150000D01*
G01*
X167492000Y-77762000D01*
G75*
G02*
X167642000Y-77612000I150000J0D01*
G01*
X169392000Y-77612000D01*
G75*
G02*
X169542000Y-77762000I0J-150000D01*
G01*
G37*
G36*
G01*
X169542000Y-76492000D02*
X169542000Y-76792000D01*
G75*
G02*
X169392000Y-76942000I-150000J0D01*
G01*
X167642000Y-76942000D01*
G75*
G02*
X167492000Y-76792000I0J150000D01*
G01*
X167492000Y-76492000D01*
G75*
G02*
X167642000Y-76342000I150000J0D01*
G01*
X169392000Y-76342000D01*
G75*
G02*
X169542000Y-76492000I0J-150000D01*
G01*
G37*
G36*
G01*
X169542000Y-75222000D02*
X169542000Y-75522000D01*
G75*
G02*
X169392000Y-75672000I-150000J0D01*
G01*
X167642000Y-75672000D01*
G75*
G02*
X167492000Y-75522000I0J150000D01*
G01*
X167492000Y-75222000D01*
G75*
G02*
X167642000Y-75072000I150000J0D01*
G01*
X169392000Y-75072000D01*
G75*
G02*
X169542000Y-75222000I0J-150000D01*
G01*
G37*
G36*
G01*
X169542000Y-73952000D02*
X169542000Y-74252000D01*
G75*
G02*
X169392000Y-74402000I-150000J0D01*
G01*
X167642000Y-74402000D01*
G75*
G02*
X167492000Y-74252000I0J150000D01*
G01*
X167492000Y-73952000D01*
G75*
G02*
X167642000Y-73802000I150000J0D01*
G01*
X169392000Y-73802000D01*
G75*
G02*
X169542000Y-73952000I0J-150000D01*
G01*
G37*
G36*
G01*
X169542000Y-72682000D02*
X169542000Y-72982000D01*
G75*
G02*
X169392000Y-73132000I-150000J0D01*
G01*
X167642000Y-73132000D01*
G75*
G02*
X167492000Y-72982000I0J150000D01*
G01*
X167492000Y-72682000D01*
G75*
G02*
X167642000Y-72532000I150000J0D01*
G01*
X169392000Y-72532000D01*
G75*
G02*
X169542000Y-72682000I0J-150000D01*
G01*
G37*
G36*
G01*
X169542000Y-71412000D02*
X169542000Y-71712000D01*
G75*
G02*
X169392000Y-71862000I-150000J0D01*
G01*
X167642000Y-71862000D01*
G75*
G02*
X167492000Y-71712000I0J150000D01*
G01*
X167492000Y-71412000D01*
G75*
G02*
X167642000Y-71262000I150000J0D01*
G01*
X169392000Y-71262000D01*
G75*
G02*
X169542000Y-71412000I0J-150000D01*
G01*
G37*
G36*
G01*
X169542000Y-70142000D02*
X169542000Y-70442000D01*
G75*
G02*
X169392000Y-70592000I-150000J0D01*
G01*
X167642000Y-70592000D01*
G75*
G02*
X167492000Y-70442000I0J150000D01*
G01*
X167492000Y-70142000D01*
G75*
G02*
X167642000Y-69992000I150000J0D01*
G01*
X169392000Y-69992000D01*
G75*
G02*
X169542000Y-70142000I0J-150000D01*
G01*
G37*
G36*
G01*
X169542000Y-68872000D02*
X169542000Y-69172000D01*
G75*
G02*
X169392000Y-69322000I-150000J0D01*
G01*
X167642000Y-69322000D01*
G75*
G02*
X167492000Y-69172000I0J150000D01*
G01*
X167492000Y-68872000D01*
G75*
G02*
X167642000Y-68722000I150000J0D01*
G01*
X169392000Y-68722000D01*
G75*
G02*
X169542000Y-68872000I0J-150000D01*
G01*
G37*
G36*
G01*
X169542000Y-67602000D02*
X169542000Y-67902000D01*
G75*
G02*
X169392000Y-68052000I-150000J0D01*
G01*
X167642000Y-68052000D01*
G75*
G02*
X167492000Y-67902000I0J150000D01*
G01*
X167492000Y-67602000D01*
G75*
G02*
X167642000Y-67452000I150000J0D01*
G01*
X169392000Y-67452000D01*
G75*
G02*
X169542000Y-67602000I0J-150000D01*
G01*
G37*
G36*
G01*
X160242000Y-67602000D02*
X160242000Y-67902000D01*
G75*
G02*
X160092000Y-68052000I-150000J0D01*
G01*
X158342000Y-68052000D01*
G75*
G02*
X158192000Y-67902000I0J150000D01*
G01*
X158192000Y-67602000D01*
G75*
G02*
X158342000Y-67452000I150000J0D01*
G01*
X160092000Y-67452000D01*
G75*
G02*
X160242000Y-67602000I0J-150000D01*
G01*
G37*
G36*
G01*
X160242000Y-68872000D02*
X160242000Y-69172000D01*
G75*
G02*
X160092000Y-69322000I-150000J0D01*
G01*
X158342000Y-69322000D01*
G75*
G02*
X158192000Y-69172000I0J150000D01*
G01*
X158192000Y-68872000D01*
G75*
G02*
X158342000Y-68722000I150000J0D01*
G01*
X160092000Y-68722000D01*
G75*
G02*
X160242000Y-68872000I0J-150000D01*
G01*
G37*
G36*
G01*
X160242000Y-70142000D02*
X160242000Y-70442000D01*
G75*
G02*
X160092000Y-70592000I-150000J0D01*
G01*
X158342000Y-70592000D01*
G75*
G02*
X158192000Y-70442000I0J150000D01*
G01*
X158192000Y-70142000D01*
G75*
G02*
X158342000Y-69992000I150000J0D01*
G01*
X160092000Y-69992000D01*
G75*
G02*
X160242000Y-70142000I0J-150000D01*
G01*
G37*
G36*
G01*
X160242000Y-71412000D02*
X160242000Y-71712000D01*
G75*
G02*
X160092000Y-71862000I-150000J0D01*
G01*
X158342000Y-71862000D01*
G75*
G02*
X158192000Y-71712000I0J150000D01*
G01*
X158192000Y-71412000D01*
G75*
G02*
X158342000Y-71262000I150000J0D01*
G01*
X160092000Y-71262000D01*
G75*
G02*
X160242000Y-71412000I0J-150000D01*
G01*
G37*
G36*
G01*
X160242000Y-72682000D02*
X160242000Y-72982000D01*
G75*
G02*
X160092000Y-73132000I-150000J0D01*
G01*
X158342000Y-73132000D01*
G75*
G02*
X158192000Y-72982000I0J150000D01*
G01*
X158192000Y-72682000D01*
G75*
G02*
X158342000Y-72532000I150000J0D01*
G01*
X160092000Y-72532000D01*
G75*
G02*
X160242000Y-72682000I0J-150000D01*
G01*
G37*
G36*
G01*
X160242000Y-73952000D02*
X160242000Y-74252000D01*
G75*
G02*
X160092000Y-74402000I-150000J0D01*
G01*
X158342000Y-74402000D01*
G75*
G02*
X158192000Y-74252000I0J150000D01*
G01*
X158192000Y-73952000D01*
G75*
G02*
X158342000Y-73802000I150000J0D01*
G01*
X160092000Y-73802000D01*
G75*
G02*
X160242000Y-73952000I0J-150000D01*
G01*
G37*
G36*
G01*
X160242000Y-75222000D02*
X160242000Y-75522000D01*
G75*
G02*
X160092000Y-75672000I-150000J0D01*
G01*
X158342000Y-75672000D01*
G75*
G02*
X158192000Y-75522000I0J150000D01*
G01*
X158192000Y-75222000D01*
G75*
G02*
X158342000Y-75072000I150000J0D01*
G01*
X160092000Y-75072000D01*
G75*
G02*
X160242000Y-75222000I0J-150000D01*
G01*
G37*
G36*
G01*
X160242000Y-76492000D02*
X160242000Y-76792000D01*
G75*
G02*
X160092000Y-76942000I-150000J0D01*
G01*
X158342000Y-76942000D01*
G75*
G02*
X158192000Y-76792000I0J150000D01*
G01*
X158192000Y-76492000D01*
G75*
G02*
X158342000Y-76342000I150000J0D01*
G01*
X160092000Y-76342000D01*
G75*
G02*
X160242000Y-76492000I0J-150000D01*
G01*
G37*
G36*
G01*
X160242000Y-77762000D02*
X160242000Y-78062000D01*
G75*
G02*
X160092000Y-78212000I-150000J0D01*
G01*
X158342000Y-78212000D01*
G75*
G02*
X158192000Y-78062000I0J150000D01*
G01*
X158192000Y-77762000D01*
G75*
G02*
X158342000Y-77612000I150000J0D01*
G01*
X160092000Y-77612000D01*
G75*
G02*
X160242000Y-77762000I0J-150000D01*
G01*
G37*
G36*
G01*
X160242000Y-79032000D02*
X160242000Y-79332000D01*
G75*
G02*
X160092000Y-79482000I-150000J0D01*
G01*
X158342000Y-79482000D01*
G75*
G02*
X158192000Y-79332000I0J150000D01*
G01*
X158192000Y-79032000D01*
G75*
G02*
X158342000Y-78882000I150000J0D01*
G01*
X160092000Y-78882000D01*
G75*
G02*
X160242000Y-79032000I0J-150000D01*
G01*
G37*
G36*
G01*
X145165000Y-77711000D02*
X144215000Y-77711000D01*
G75*
G02*
X143965000Y-77461000I0J250000D01*
G01*
X143965000Y-76961000D01*
G75*
G02*
X144215000Y-76711000I250000J0D01*
G01*
X145165000Y-76711000D01*
G75*
G02*
X145415000Y-76961000I0J-250000D01*
G01*
X145415000Y-77461000D01*
G75*
G02*
X145165000Y-77711000I-250000J0D01*
G01*
G37*
G36*
G01*
X145165000Y-75811000D02*
X144215000Y-75811000D01*
G75*
G02*
X143965000Y-75561000I0J250000D01*
G01*
X143965000Y-75061000D01*
G75*
G02*
X144215000Y-74811000I250000J0D01*
G01*
X145165000Y-74811000D01*
G75*
G02*
X145415000Y-75061000I0J-250000D01*
G01*
X145415000Y-75561000D01*
G75*
G02*
X145165000Y-75811000I-250000J0D01*
G01*
G37*
G36*
G01*
X147275000Y-47201000D02*
X147275000Y-46901000D01*
G75*
G02*
X147425000Y-46751000I150000J0D01*
G01*
X148725000Y-46751000D01*
G75*
G02*
X148875000Y-46901000I0J-150000D01*
G01*
X148875000Y-47201000D01*
G75*
G02*
X148725000Y-47351000I-150000J0D01*
G01*
X147425000Y-47351000D01*
G75*
G02*
X147275000Y-47201000I0J150000D01*
G01*
G37*
G36*
G01*
X147275000Y-48471000D02*
X147275000Y-48171000D01*
G75*
G02*
X147425000Y-48021000I150000J0D01*
G01*
X148725000Y-48021000D01*
G75*
G02*
X148875000Y-48171000I0J-150000D01*
G01*
X148875000Y-48471000D01*
G75*
G02*
X148725000Y-48621000I-150000J0D01*
G01*
X147425000Y-48621000D01*
G75*
G02*
X147275000Y-48471000I0J150000D01*
G01*
G37*
G36*
G01*
X147275000Y-49741000D02*
X147275000Y-49441000D01*
G75*
G02*
X147425000Y-49291000I150000J0D01*
G01*
X148725000Y-49291000D01*
G75*
G02*
X148875000Y-49441000I0J-150000D01*
G01*
X148875000Y-49741000D01*
G75*
G02*
X148725000Y-49891000I-150000J0D01*
G01*
X147425000Y-49891000D01*
G75*
G02*
X147275000Y-49741000I0J150000D01*
G01*
G37*
G36*
G01*
X147275000Y-51011000D02*
X147275000Y-50711000D01*
G75*
G02*
X147425000Y-50561000I150000J0D01*
G01*
X148725000Y-50561000D01*
G75*
G02*
X148875000Y-50711000I0J-150000D01*
G01*
X148875000Y-51011000D01*
G75*
G02*
X148725000Y-51161000I-150000J0D01*
G01*
X147425000Y-51161000D01*
G75*
G02*
X147275000Y-51011000I0J150000D01*
G01*
G37*
G36*
G01*
X154475000Y-51011000D02*
X154475000Y-50711000D01*
G75*
G02*
X154625000Y-50561000I150000J0D01*
G01*
X155925000Y-50561000D01*
G75*
G02*
X156075000Y-50711000I0J-150000D01*
G01*
X156075000Y-51011000D01*
G75*
G02*
X155925000Y-51161000I-150000J0D01*
G01*
X154625000Y-51161000D01*
G75*
G02*
X154475000Y-51011000I0J150000D01*
G01*
G37*
G36*
G01*
X154475000Y-49741000D02*
X154475000Y-49441000D01*
G75*
G02*
X154625000Y-49291000I150000J0D01*
G01*
X155925000Y-49291000D01*
G75*
G02*
X156075000Y-49441000I0J-150000D01*
G01*
X156075000Y-49741000D01*
G75*
G02*
X155925000Y-49891000I-150000J0D01*
G01*
X154625000Y-49891000D01*
G75*
G02*
X154475000Y-49741000I0J150000D01*
G01*
G37*
G36*
G01*
X154475000Y-48471000D02*
X154475000Y-48171000D01*
G75*
G02*
X154625000Y-48021000I150000J0D01*
G01*
X155925000Y-48021000D01*
G75*
G02*
X156075000Y-48171000I0J-150000D01*
G01*
X156075000Y-48471000D01*
G75*
G02*
X155925000Y-48621000I-150000J0D01*
G01*
X154625000Y-48621000D01*
G75*
G02*
X154475000Y-48471000I0J150000D01*
G01*
G37*
G36*
G01*
X154475000Y-47201000D02*
X154475000Y-46901000D01*
G75*
G02*
X154625000Y-46751000I150000J0D01*
G01*
X155925000Y-46751000D01*
G75*
G02*
X156075000Y-46901000I0J-150000D01*
G01*
X156075000Y-47201000D01*
G75*
G02*
X155925000Y-47351000I-150000J0D01*
G01*
X154625000Y-47351000D01*
G75*
G02*
X154475000Y-47201000I0J150000D01*
G01*
G37*
G36*
G01*
X130571000Y-38520000D02*
X131821000Y-38520000D01*
G75*
G02*
X131971000Y-38670000I0J-150000D01*
G01*
X131971000Y-38970000D01*
G75*
G02*
X131821000Y-39120000I-150000J0D01*
G01*
X130571000Y-39120000D01*
G75*
G02*
X130421000Y-38970000I0J150000D01*
G01*
X130421000Y-38670000D01*
G75*
G02*
X130571000Y-38520000I150000J0D01*
G01*
G37*
G36*
G01*
X130571000Y-39520000D02*
X131821000Y-39520000D01*
G75*
G02*
X131971000Y-39670000I0J-150000D01*
G01*
X131971000Y-39970000D01*
G75*
G02*
X131821000Y-40120000I-150000J0D01*
G01*
X130571000Y-40120000D01*
G75*
G02*
X130421000Y-39970000I0J150000D01*
G01*
X130421000Y-39670000D01*
G75*
G02*
X130571000Y-39520000I150000J0D01*
G01*
G37*
G36*
G01*
X130571000Y-40520000D02*
X131821000Y-40520000D01*
G75*
G02*
X131971000Y-40670000I0J-150000D01*
G01*
X131971000Y-40970000D01*
G75*
G02*
X131821000Y-41120000I-150000J0D01*
G01*
X130571000Y-41120000D01*
G75*
G02*
X130421000Y-40970000I0J150000D01*
G01*
X130421000Y-40670000D01*
G75*
G02*
X130571000Y-40520000I150000J0D01*
G01*
G37*
G36*
G01*
X130571000Y-41520000D02*
X131821000Y-41520000D01*
G75*
G02*
X131971000Y-41670000I0J-150000D01*
G01*
X131971000Y-41970000D01*
G75*
G02*
X131821000Y-42120000I-150000J0D01*
G01*
X130571000Y-42120000D01*
G75*
G02*
X130421000Y-41970000I0J150000D01*
G01*
X130421000Y-41670000D01*
G75*
G02*
X130571000Y-41520000I150000J0D01*
G01*
G37*
G36*
G01*
X126671000Y-36920000D02*
X127971000Y-36920000D01*
G75*
G02*
X128221000Y-37170000I0J-250000D01*
G01*
X128221000Y-37870000D01*
G75*
G02*
X127971000Y-38120000I-250000J0D01*
G01*
X126671000Y-38120000D01*
G75*
G02*
X126421000Y-37870000I0J250000D01*
G01*
X126421000Y-37170000D01*
G75*
G02*
X126671000Y-36920000I250000J0D01*
G01*
G37*
G36*
G01*
X126671000Y-42520000D02*
X127971000Y-42520000D01*
G75*
G02*
X128221000Y-42770000I0J-250000D01*
G01*
X128221000Y-43470000D01*
G75*
G02*
X127971000Y-43720000I-250000J0D01*
G01*
X126671000Y-43720000D01*
G75*
G02*
X126421000Y-43470000I0J250000D01*
G01*
X126421000Y-42770000D01*
G75*
G02*
X126671000Y-42520000I250000J0D01*
G01*
G37*
G36*
G01*
X129229000Y-30615000D02*
X130179000Y-30615000D01*
G75*
G02*
X130429000Y-30865000I0J-250000D01*
G01*
X130429000Y-31365000D01*
G75*
G02*
X130179000Y-31615000I-250000J0D01*
G01*
X129229000Y-31615000D01*
G75*
G02*
X128979000Y-31365000I0J250000D01*
G01*
X128979000Y-30865000D01*
G75*
G02*
X129229000Y-30615000I250000J0D01*
G01*
G37*
G36*
G01*
X129229000Y-32515000D02*
X130179000Y-32515000D01*
G75*
G02*
X130429000Y-32765000I0J-250000D01*
G01*
X130429000Y-33265000D01*
G75*
G02*
X130179000Y-33515000I-250000J0D01*
G01*
X129229000Y-33515000D01*
G75*
G02*
X128979000Y-33265000I0J250000D01*
G01*
X128979000Y-32765000D01*
G75*
G02*
X129229000Y-32515000I250000J0D01*
G01*
G37*
G36*
G01*
X148909000Y-43553000D02*
X148909000Y-44453000D01*
G75*
G02*
X148659000Y-44703000I-250000J0D01*
G01*
X148134000Y-44703000D01*
G75*
G02*
X147884000Y-44453000I0J250000D01*
G01*
X147884000Y-43553000D01*
G75*
G02*
X148134000Y-43303000I250000J0D01*
G01*
X148659000Y-43303000D01*
G75*
G02*
X148909000Y-43553000I0J-250000D01*
G01*
G37*
G36*
G01*
X147084000Y-43553000D02*
X147084000Y-44453000D01*
G75*
G02*
X146834000Y-44703000I-250000J0D01*
G01*
X146309000Y-44703000D01*
G75*
G02*
X146059000Y-44453000I0J250000D01*
G01*
X146059000Y-43553000D01*
G75*
G02*
X146309000Y-43303000I250000J0D01*
G01*
X146834000Y-43303000D01*
G75*
G02*
X147084000Y-43553000I0J-250000D01*
G01*
G37*
G36*
G01*
X148909000Y-127373000D02*
X148909000Y-128273000D01*
G75*
G02*
X148659000Y-128523000I-250000J0D01*
G01*
X148134000Y-128523000D01*
G75*
G02*
X147884000Y-128273000I0J250000D01*
G01*
X147884000Y-127373000D01*
G75*
G02*
X148134000Y-127123000I250000J0D01*
G01*
X148659000Y-127123000D01*
G75*
G02*
X148909000Y-127373000I0J-250000D01*
G01*
G37*
G36*
G01*
X147084000Y-127373000D02*
X147084000Y-128273000D01*
G75*
G02*
X146834000Y-128523000I-250000J0D01*
G01*
X146309000Y-128523000D01*
G75*
G02*
X146059000Y-128273000I0J250000D01*
G01*
X146059000Y-127373000D01*
G75*
G02*
X146309000Y-127123000I250000J0D01*
G01*
X146834000Y-127123000D01*
G75*
G02*
X147084000Y-127373000I0J-250000D01*
G01*
G37*
G36*
G01*
X138779000Y-74836000D02*
X139679000Y-74836000D01*
G75*
G02*
X139929000Y-75086000I0J-250000D01*
G01*
X139929000Y-75611000D01*
G75*
G02*
X139679000Y-75861000I-250000J0D01*
G01*
X138779000Y-75861000D01*
G75*
G02*
X138529000Y-75611000I0J250000D01*
G01*
X138529000Y-75086000D01*
G75*
G02*
X138779000Y-74836000I250000J0D01*
G01*
G37*
G36*
G01*
X138779000Y-76661000D02*
X139679000Y-76661000D01*
G75*
G02*
X139929000Y-76911000I0J-250000D01*
G01*
X139929000Y-77436000D01*
G75*
G02*
X139679000Y-77686000I-250000J0D01*
G01*
X138779000Y-77686000D01*
G75*
G02*
X138529000Y-77436000I0J250000D01*
G01*
X138529000Y-76911000D01*
G75*
G02*
X138779000Y-76661000I250000J0D01*
G01*
G37*
X130236000Y-76514000D03*
G36*
X132661000Y-72564000D02*
G01*
X132661000Y-75164000D01*
X132136000Y-75689000D01*
X132136000Y-77164000D01*
X131336000Y-77164000D01*
X131336000Y-75689000D01*
X130811000Y-75164000D01*
X130811000Y-72564000D01*
X132661000Y-72564000D01*
G37*
X133236000Y-76514000D03*
G36*
G01*
X139516000Y-142756000D02*
X140466000Y-142756000D01*
G75*
G02*
X140716000Y-143006000I0J-250000D01*
G01*
X140716000Y-143506000D01*
G75*
G02*
X140466000Y-143756000I-250000J0D01*
G01*
X139516000Y-143756000D01*
G75*
G02*
X139266000Y-143506000I0J250000D01*
G01*
X139266000Y-143006000D01*
G75*
G02*
X139516000Y-142756000I250000J0D01*
G01*
G37*
G36*
G01*
X139516000Y-144656000D02*
X140466000Y-144656000D01*
G75*
G02*
X140716000Y-144906000I0J-250000D01*
G01*
X140716000Y-145406000D01*
G75*
G02*
X140466000Y-145656000I-250000J0D01*
G01*
X139516000Y-145656000D01*
G75*
G02*
X139266000Y-145406000I0J250000D01*
G01*
X139266000Y-144906000D01*
G75*
G02*
X139516000Y-144656000I250000J0D01*
G01*
G37*
G36*
G01*
X137672000Y-61856000D02*
X136722000Y-61856000D01*
G75*
G02*
X136472000Y-61606000I0J250000D01*
G01*
X136472000Y-61106000D01*
G75*
G02*
X136722000Y-60856000I250000J0D01*
G01*
X137672000Y-60856000D01*
G75*
G02*
X137922000Y-61106000I0J-250000D01*
G01*
X137922000Y-61606000D01*
G75*
G02*
X137672000Y-61856000I-250000J0D01*
G01*
G37*
G36*
G01*
X137672000Y-59956000D02*
X136722000Y-59956000D01*
G75*
G02*
X136472000Y-59706000I0J250000D01*
G01*
X136472000Y-59206000D01*
G75*
G02*
X136722000Y-58956000I250000J0D01*
G01*
X137672000Y-58956000D01*
G75*
G02*
X137922000Y-59206000I0J-250000D01*
G01*
X137922000Y-59706000D01*
G75*
G02*
X137672000Y-59956000I-250000J0D01*
G01*
G37*
D12*
X134276000Y-126933000D03*
X134276000Y-123633000D03*
G36*
G01*
X155203000Y-30610000D02*
X155203000Y-29710000D01*
G75*
G02*
X155453000Y-29460000I250000J0D01*
G01*
X155978000Y-29460000D01*
G75*
G02*
X156228000Y-29710000I0J-250000D01*
G01*
X156228000Y-30610000D01*
G75*
G02*
X155978000Y-30860000I-250000J0D01*
G01*
X155453000Y-30860000D01*
G75*
G02*
X155203000Y-30610000I0J250000D01*
G01*
G37*
G36*
G01*
X157028000Y-30610000D02*
X157028000Y-29710000D01*
G75*
G02*
X157278000Y-29460000I250000J0D01*
G01*
X157803000Y-29460000D01*
G75*
G02*
X158053000Y-29710000I0J-250000D01*
G01*
X158053000Y-30610000D01*
G75*
G02*
X157803000Y-30860000I-250000J0D01*
G01*
X157278000Y-30860000D01*
G75*
G02*
X157028000Y-30610000I0J250000D01*
G01*
G37*
G36*
G01*
X147275000Y-131021000D02*
X147275000Y-130721000D01*
G75*
G02*
X147425000Y-130571000I150000J0D01*
G01*
X148725000Y-130571000D01*
G75*
G02*
X148875000Y-130721000I0J-150000D01*
G01*
X148875000Y-131021000D01*
G75*
G02*
X148725000Y-131171000I-150000J0D01*
G01*
X147425000Y-131171000D01*
G75*
G02*
X147275000Y-131021000I0J150000D01*
G01*
G37*
G36*
G01*
X147275000Y-132291000D02*
X147275000Y-131991000D01*
G75*
G02*
X147425000Y-131841000I150000J0D01*
G01*
X148725000Y-131841000D01*
G75*
G02*
X148875000Y-131991000I0J-150000D01*
G01*
X148875000Y-132291000D01*
G75*
G02*
X148725000Y-132441000I-150000J0D01*
G01*
X147425000Y-132441000D01*
G75*
G02*
X147275000Y-132291000I0J150000D01*
G01*
G37*
G36*
G01*
X147275000Y-133561000D02*
X147275000Y-133261000D01*
G75*
G02*
X147425000Y-133111000I150000J0D01*
G01*
X148725000Y-133111000D01*
G75*
G02*
X148875000Y-133261000I0J-150000D01*
G01*
X148875000Y-133561000D01*
G75*
G02*
X148725000Y-133711000I-150000J0D01*
G01*
X147425000Y-133711000D01*
G75*
G02*
X147275000Y-133561000I0J150000D01*
G01*
G37*
G36*
G01*
X147275000Y-134831000D02*
X147275000Y-134531000D01*
G75*
G02*
X147425000Y-134381000I150000J0D01*
G01*
X148725000Y-134381000D01*
G75*
G02*
X148875000Y-134531000I0J-150000D01*
G01*
X148875000Y-134831000D01*
G75*
G02*
X148725000Y-134981000I-150000J0D01*
G01*
X147425000Y-134981000D01*
G75*
G02*
X147275000Y-134831000I0J150000D01*
G01*
G37*
G36*
G01*
X154475000Y-134831000D02*
X154475000Y-134531000D01*
G75*
G02*
X154625000Y-134381000I150000J0D01*
G01*
X155925000Y-134381000D01*
G75*
G02*
X156075000Y-134531000I0J-150000D01*
G01*
X156075000Y-134831000D01*
G75*
G02*
X155925000Y-134981000I-150000J0D01*
G01*
X154625000Y-134981000D01*
G75*
G02*
X154475000Y-134831000I0J150000D01*
G01*
G37*
G36*
G01*
X154475000Y-133561000D02*
X154475000Y-133261000D01*
G75*
G02*
X154625000Y-133111000I150000J0D01*
G01*
X155925000Y-133111000D01*
G75*
G02*
X156075000Y-133261000I0J-150000D01*
G01*
X156075000Y-133561000D01*
G75*
G02*
X155925000Y-133711000I-150000J0D01*
G01*
X154625000Y-133711000D01*
G75*
G02*
X154475000Y-133561000I0J150000D01*
G01*
G37*
G36*
G01*
X154475000Y-132291000D02*
X154475000Y-131991000D01*
G75*
G02*
X154625000Y-131841000I150000J0D01*
G01*
X155925000Y-131841000D01*
G75*
G02*
X156075000Y-131991000I0J-150000D01*
G01*
X156075000Y-132291000D01*
G75*
G02*
X155925000Y-132441000I-150000J0D01*
G01*
X154625000Y-132441000D01*
G75*
G02*
X154475000Y-132291000I0J150000D01*
G01*
G37*
G36*
G01*
X154475000Y-131021000D02*
X154475000Y-130721000D01*
G75*
G02*
X154625000Y-130571000I150000J0D01*
G01*
X155925000Y-130571000D01*
G75*
G02*
X156075000Y-130721000I0J-150000D01*
G01*
X156075000Y-131021000D01*
G75*
G02*
X155925000Y-131171000I-150000J0D01*
G01*
X154625000Y-131171000D01*
G75*
G02*
X154475000Y-131021000I0J150000D01*
G01*
G37*
G36*
G01*
X130571008Y-66460011D02*
X131821008Y-66460011D01*
G75*
G02*
X131971008Y-66610011I0J-150000D01*
G01*
X131971008Y-66910011D01*
G75*
G02*
X131821008Y-67060011I-150000J0D01*
G01*
X130571008Y-67060011D01*
G75*
G02*
X130421008Y-66910011I0J150000D01*
G01*
X130421008Y-66610011D01*
G75*
G02*
X130571008Y-66460011I150000J0D01*
G01*
G37*
G36*
G01*
X130571008Y-67460011D02*
X131821008Y-67460011D01*
G75*
G02*
X131971008Y-67610011I0J-150000D01*
G01*
X131971008Y-67910011D01*
G75*
G02*
X131821008Y-68060011I-150000J0D01*
G01*
X130571008Y-68060011D01*
G75*
G02*
X130421008Y-67910011I0J150000D01*
G01*
X130421008Y-67610011D01*
G75*
G02*
X130571008Y-67460011I150000J0D01*
G01*
G37*
G36*
G01*
X130571008Y-68460011D02*
X131821008Y-68460011D01*
G75*
G02*
X131971008Y-68610011I0J-150000D01*
G01*
X131971008Y-68910011D01*
G75*
G02*
X131821008Y-69060011I-150000J0D01*
G01*
X130571008Y-69060011D01*
G75*
G02*
X130421008Y-68910011I0J150000D01*
G01*
X130421008Y-68610011D01*
G75*
G02*
X130571008Y-68460011I150000J0D01*
G01*
G37*
G36*
G01*
X130571008Y-69460011D02*
X131821008Y-69460011D01*
G75*
G02*
X131971008Y-69610011I0J-150000D01*
G01*
X131971008Y-69910011D01*
G75*
G02*
X131821008Y-70060011I-150000J0D01*
G01*
X130571008Y-70060011D01*
G75*
G02*
X130421008Y-69910011I0J150000D01*
G01*
X130421008Y-69610011D01*
G75*
G02*
X130571008Y-69460011I150000J0D01*
G01*
G37*
G36*
G01*
X126671008Y-70460011D02*
X127971008Y-70460011D01*
G75*
G02*
X128221008Y-70710011I0J-250000D01*
G01*
X128221008Y-71410011D01*
G75*
G02*
X127971008Y-71660011I-250000J0D01*
G01*
X126671008Y-71660011D01*
G75*
G02*
X126421008Y-71410011I0J250000D01*
G01*
X126421008Y-70710011D01*
G75*
G02*
X126671008Y-70460011I250000J0D01*
G01*
G37*
G36*
G01*
X126671008Y-64860011D02*
X127971008Y-64860011D01*
G75*
G02*
X128221008Y-65110011I0J-250000D01*
G01*
X128221008Y-65810011D01*
G75*
G02*
X127971008Y-66060011I-250000J0D01*
G01*
X126671008Y-66060011D01*
G75*
G02*
X126421008Y-65810011I0J250000D01*
G01*
X126421008Y-65110011D01*
G75*
G02*
X126671008Y-64860011I250000J0D01*
G01*
G37*
G36*
G01*
X142335000Y-142801000D02*
X143235000Y-142801000D01*
G75*
G02*
X143485000Y-143051000I0J-250000D01*
G01*
X143485000Y-143576000D01*
G75*
G02*
X143235000Y-143826000I-250000J0D01*
G01*
X142335000Y-143826000D01*
G75*
G02*
X142085000Y-143576000I0J250000D01*
G01*
X142085000Y-143051000D01*
G75*
G02*
X142335000Y-142801000I250000J0D01*
G01*
G37*
G36*
G01*
X142335000Y-144626000D02*
X143235000Y-144626000D01*
G75*
G02*
X143485000Y-144876000I0J-250000D01*
G01*
X143485000Y-145401000D01*
G75*
G02*
X143235000Y-145651000I-250000J0D01*
G01*
X142335000Y-145651000D01*
G75*
G02*
X142085000Y-145401000I0J250000D01*
G01*
X142085000Y-144876000D01*
G75*
G02*
X142335000Y-144626000I250000J0D01*
G01*
G37*
G36*
G01*
X141573000Y-46896000D02*
X142473000Y-46896000D01*
G75*
G02*
X142723000Y-47146000I0J-250000D01*
G01*
X142723000Y-47671000D01*
G75*
G02*
X142473000Y-47921000I-250000J0D01*
G01*
X141573000Y-47921000D01*
G75*
G02*
X141323000Y-47671000I0J250000D01*
G01*
X141323000Y-47146000D01*
G75*
G02*
X141573000Y-46896000I250000J0D01*
G01*
G37*
G36*
G01*
X141573000Y-48721000D02*
X142473000Y-48721000D01*
G75*
G02*
X142723000Y-48971000I0J-250000D01*
G01*
X142723000Y-49496000D01*
G75*
G02*
X142473000Y-49746000I-250000J0D01*
G01*
X141573000Y-49746000D01*
G75*
G02*
X141323000Y-49496000I0J250000D01*
G01*
X141323000Y-48971000D01*
G75*
G02*
X141573000Y-48721000I250000J0D01*
G01*
G37*
D10*
X147572900Y-113726000D03*
D11*
X153732400Y-116266000D03*
D10*
X147572900Y-118806000D03*
G36*
G01*
X137672000Y-33916000D02*
X136722000Y-33916000D01*
G75*
G02*
X136472000Y-33666000I0J250000D01*
G01*
X136472000Y-33166000D01*
G75*
G02*
X136722000Y-32916000I250000J0D01*
G01*
X137672000Y-32916000D01*
G75*
G02*
X137922000Y-33166000I0J-250000D01*
G01*
X137922000Y-33666000D01*
G75*
G02*
X137672000Y-33916000I-250000J0D01*
G01*
G37*
G36*
G01*
X137672000Y-32016000D02*
X136722000Y-32016000D01*
G75*
G02*
X136472000Y-31766000I0J250000D01*
G01*
X136472000Y-31266000D01*
G75*
G02*
X136722000Y-31016000I250000J0D01*
G01*
X137672000Y-31016000D01*
G75*
G02*
X137922000Y-31266000I0J-250000D01*
G01*
X137922000Y-31766000D01*
G75*
G02*
X137672000Y-32016000I-250000J0D01*
G01*
G37*
G36*
G01*
X158078000Y-90137000D02*
X158078000Y-91087000D01*
G75*
G02*
X157828000Y-91337000I-250000J0D01*
G01*
X157328000Y-91337000D01*
G75*
G02*
X157078000Y-91087000I0J250000D01*
G01*
X157078000Y-90137000D01*
G75*
G02*
X157328000Y-89887000I250000J0D01*
G01*
X157828000Y-89887000D01*
G75*
G02*
X158078000Y-90137000I0J-250000D01*
G01*
G37*
G36*
G01*
X156178000Y-90137000D02*
X156178000Y-91087000D01*
G75*
G02*
X155928000Y-91337000I-250000J0D01*
G01*
X155428000Y-91337000D01*
G75*
G02*
X155178000Y-91087000I0J250000D01*
G01*
X155178000Y-90137000D01*
G75*
G02*
X155428000Y-89887000I250000J0D01*
G01*
X155928000Y-89887000D01*
G75*
G02*
X156178000Y-90137000I0J-250000D01*
G01*
G37*
G36*
G01*
X138779000Y-46896000D02*
X139679000Y-46896000D01*
G75*
G02*
X139929000Y-47146000I0J-250000D01*
G01*
X139929000Y-47671000D01*
G75*
G02*
X139679000Y-47921000I-250000J0D01*
G01*
X138779000Y-47921000D01*
G75*
G02*
X138529000Y-47671000I0J250000D01*
G01*
X138529000Y-47146000D01*
G75*
G02*
X138779000Y-46896000I250000J0D01*
G01*
G37*
G36*
G01*
X138779000Y-48721000D02*
X139679000Y-48721000D01*
G75*
G02*
X139929000Y-48971000I0J-250000D01*
G01*
X139929000Y-49496000D01*
G75*
G02*
X139679000Y-49746000I-250000J0D01*
G01*
X138779000Y-49746000D01*
G75*
G02*
X138529000Y-49496000I0J250000D01*
G01*
X138529000Y-48971000D01*
G75*
G02*
X138779000Y-48721000I250000J0D01*
G01*
G37*
G36*
G01*
X137037000Y-49771000D02*
X136087000Y-49771000D01*
G75*
G02*
X135837000Y-49521000I0J250000D01*
G01*
X135837000Y-49021000D01*
G75*
G02*
X136087000Y-48771000I250000J0D01*
G01*
X137037000Y-48771000D01*
G75*
G02*
X137287000Y-49021000I0J-250000D01*
G01*
X137287000Y-49521000D01*
G75*
G02*
X137037000Y-49771000I-250000J0D01*
G01*
G37*
G36*
G01*
X137037000Y-47871000D02*
X136087000Y-47871000D01*
G75*
G02*
X135837000Y-47621000I0J250000D01*
G01*
X135837000Y-47121000D01*
G75*
G02*
X136087000Y-46871000I250000J0D01*
G01*
X137037000Y-46871000D01*
G75*
G02*
X137287000Y-47121000I0J-250000D01*
G01*
X137287000Y-47621000D01*
G75*
G02*
X137037000Y-47871000I-250000J0D01*
G01*
G37*
G36*
G01*
X141573000Y-158656000D02*
X142473000Y-158656000D01*
G75*
G02*
X142723000Y-158906000I0J-250000D01*
G01*
X142723000Y-159431000D01*
G75*
G02*
X142473000Y-159681000I-250000J0D01*
G01*
X141573000Y-159681000D01*
G75*
G02*
X141323000Y-159431000I0J250000D01*
G01*
X141323000Y-158906000D01*
G75*
G02*
X141573000Y-158656000I250000J0D01*
G01*
G37*
G36*
G01*
X141573000Y-160481000D02*
X142473000Y-160481000D01*
G75*
G02*
X142723000Y-160731000I0J-250000D01*
G01*
X142723000Y-161256000D01*
G75*
G02*
X142473000Y-161506000I-250000J0D01*
G01*
X141573000Y-161506000D01*
G75*
G02*
X141323000Y-161256000I0J250000D01*
G01*
X141323000Y-160731000D01*
G75*
G02*
X141573000Y-160481000I250000J0D01*
G01*
G37*
G36*
G01*
X137037000Y-105651000D02*
X136087000Y-105651000D01*
G75*
G02*
X135837000Y-105401000I0J250000D01*
G01*
X135837000Y-104901000D01*
G75*
G02*
X136087000Y-104651000I250000J0D01*
G01*
X137037000Y-104651000D01*
G75*
G02*
X137287000Y-104901000I0J-250000D01*
G01*
X137287000Y-105401000D01*
G75*
G02*
X137037000Y-105651000I-250000J0D01*
G01*
G37*
G36*
G01*
X137037000Y-103751000D02*
X136087000Y-103751000D01*
G75*
G02*
X135837000Y-103501000I0J250000D01*
G01*
X135837000Y-103001000D01*
G75*
G02*
X136087000Y-102751000I250000J0D01*
G01*
X137037000Y-102751000D01*
G75*
G02*
X137287000Y-103001000I0J-250000D01*
G01*
X137287000Y-103501000D01*
G75*
G02*
X137037000Y-103751000I-250000J0D01*
G01*
G37*
D13*
X130236000Y-160334000D03*
G36*
X132661000Y-156384000D02*
G01*
X132661000Y-158984000D01*
X132136000Y-159509000D01*
X132136000Y-160984000D01*
X131336000Y-160984000D01*
X131336000Y-159509000D01*
X130811000Y-158984000D01*
X130811000Y-156384000D01*
X132661000Y-156384000D01*
G37*
X133236000Y-160334000D03*
G36*
G01*
X145165000Y-49771000D02*
X144215000Y-49771000D01*
G75*
G02*
X143965000Y-49521000I0J250000D01*
G01*
X143965000Y-49021000D01*
G75*
G02*
X144215000Y-48771000I250000J0D01*
G01*
X145165000Y-48771000D01*
G75*
G02*
X145415000Y-49021000I0J-250000D01*
G01*
X145415000Y-49521000D01*
G75*
G02*
X145165000Y-49771000I-250000J0D01*
G01*
G37*
G36*
G01*
X145165000Y-47871000D02*
X144215000Y-47871000D01*
G75*
G02*
X143965000Y-47621000I0J250000D01*
G01*
X143965000Y-47121000D01*
G75*
G02*
X144215000Y-46871000I250000J0D01*
G01*
X145165000Y-46871000D01*
G75*
G02*
X145415000Y-47121000I0J-250000D01*
G01*
X145415000Y-47621000D01*
G75*
G02*
X145165000Y-47871000I-250000J0D01*
G01*
G37*
G36*
G01*
X137672000Y-117736000D02*
X136722000Y-117736000D01*
G75*
G02*
X136472000Y-117486000I0J250000D01*
G01*
X136472000Y-116986000D01*
G75*
G02*
X136722000Y-116736000I250000J0D01*
G01*
X137672000Y-116736000D01*
G75*
G02*
X137922000Y-116986000I0J-250000D01*
G01*
X137922000Y-117486000D01*
G75*
G02*
X137672000Y-117736000I-250000J0D01*
G01*
G37*
G36*
G01*
X137672000Y-115836000D02*
X136722000Y-115836000D01*
G75*
G02*
X136472000Y-115586000I0J250000D01*
G01*
X136472000Y-115086000D01*
G75*
G02*
X136722000Y-114836000I250000J0D01*
G01*
X137672000Y-114836000D01*
G75*
G02*
X137922000Y-115086000I0J-250000D01*
G01*
X137922000Y-115586000D01*
G75*
G02*
X137672000Y-115836000I-250000J0D01*
G01*
G37*
G36*
G01*
X141573000Y-130716000D02*
X142473000Y-130716000D01*
G75*
G02*
X142723000Y-130966000I0J-250000D01*
G01*
X142723000Y-131491000D01*
G75*
G02*
X142473000Y-131741000I-250000J0D01*
G01*
X141573000Y-131741000D01*
G75*
G02*
X141323000Y-131491000I0J250000D01*
G01*
X141323000Y-130966000D01*
G75*
G02*
X141573000Y-130716000I250000J0D01*
G01*
G37*
G36*
G01*
X141573000Y-132541000D02*
X142473000Y-132541000D01*
G75*
G02*
X142723000Y-132791000I0J-250000D01*
G01*
X142723000Y-133316000D01*
G75*
G02*
X142473000Y-133566000I-250000J0D01*
G01*
X141573000Y-133566000D01*
G75*
G02*
X141323000Y-133316000I0J250000D01*
G01*
X141323000Y-132791000D01*
G75*
G02*
X141573000Y-132541000I250000J0D01*
G01*
G37*
G36*
G01*
X132587000Y-89745000D02*
X132287000Y-89745000D01*
G75*
G02*
X132137000Y-89595000I0J150000D01*
G01*
X132137000Y-88570000D01*
G75*
G02*
X132287000Y-88420000I150000J0D01*
G01*
X132587000Y-88420000D01*
G75*
G02*
X132737000Y-88570000I0J-150000D01*
G01*
X132737000Y-89595000D01*
G75*
G02*
X132587000Y-89745000I-150000J0D01*
G01*
G37*
G36*
G01*
X133537000Y-89745000D02*
X133237000Y-89745000D01*
G75*
G02*
X133087000Y-89595000I0J150000D01*
G01*
X133087000Y-88570000D01*
G75*
G02*
X133237000Y-88420000I150000J0D01*
G01*
X133537000Y-88420000D01*
G75*
G02*
X133687000Y-88570000I0J-150000D01*
G01*
X133687000Y-89595000D01*
G75*
G02*
X133537000Y-89745000I-150000J0D01*
G01*
G37*
G36*
G01*
X134487000Y-89745000D02*
X134187000Y-89745000D01*
G75*
G02*
X134037000Y-89595000I0J150000D01*
G01*
X134037000Y-88570000D01*
G75*
G02*
X134187000Y-88420000I150000J0D01*
G01*
X134487000Y-88420000D01*
G75*
G02*
X134637000Y-88570000I0J-150000D01*
G01*
X134637000Y-89595000D01*
G75*
G02*
X134487000Y-89745000I-150000J0D01*
G01*
G37*
G36*
G01*
X134487000Y-87470000D02*
X134187000Y-87470000D01*
G75*
G02*
X134037000Y-87320000I0J150000D01*
G01*
X134037000Y-86295000D01*
G75*
G02*
X134187000Y-86145000I150000J0D01*
G01*
X134487000Y-86145000D01*
G75*
G02*
X134637000Y-86295000I0J-150000D01*
G01*
X134637000Y-87320000D01*
G75*
G02*
X134487000Y-87470000I-150000J0D01*
G01*
G37*
G36*
G01*
X133537000Y-87470000D02*
X133237000Y-87470000D01*
G75*
G02*
X133087000Y-87320000I0J150000D01*
G01*
X133087000Y-86295000D01*
G75*
G02*
X133237000Y-86145000I150000J0D01*
G01*
X133537000Y-86145000D01*
G75*
G02*
X133687000Y-86295000I0J-150000D01*
G01*
X133687000Y-87320000D01*
G75*
G02*
X133537000Y-87470000I-150000J0D01*
G01*
G37*
G36*
G01*
X132587000Y-87470000D02*
X132287000Y-87470000D01*
G75*
G02*
X132137000Y-87320000I0J150000D01*
G01*
X132137000Y-86295000D01*
G75*
G02*
X132287000Y-86145000I150000J0D01*
G01*
X132587000Y-86145000D01*
G75*
G02*
X132737000Y-86295000I0J-150000D01*
G01*
X132737000Y-87320000D01*
G75*
G02*
X132587000Y-87470000I-150000J0D01*
G01*
G37*
G36*
G01*
X141573000Y-102776000D02*
X142473000Y-102776000D01*
G75*
G02*
X142723000Y-103026000I0J-250000D01*
G01*
X142723000Y-103551000D01*
G75*
G02*
X142473000Y-103801000I-250000J0D01*
G01*
X141573000Y-103801000D01*
G75*
G02*
X141323000Y-103551000I0J250000D01*
G01*
X141323000Y-103026000D01*
G75*
G02*
X141573000Y-102776000I250000J0D01*
G01*
G37*
G36*
G01*
X141573000Y-104601000D02*
X142473000Y-104601000D01*
G75*
G02*
X142723000Y-104851000I0J-250000D01*
G01*
X142723000Y-105376000D01*
G75*
G02*
X142473000Y-105626000I-250000J0D01*
G01*
X141573000Y-105626000D01*
G75*
G02*
X141323000Y-105376000I0J250000D01*
G01*
X141323000Y-104851000D01*
G75*
G02*
X141573000Y-104601000I250000J0D01*
G01*
G37*
G36*
G01*
X130571008Y-150280011D02*
X131821008Y-150280011D01*
G75*
G02*
X131971008Y-150430011I0J-150000D01*
G01*
X131971008Y-150730011D01*
G75*
G02*
X131821008Y-150880011I-150000J0D01*
G01*
X130571008Y-150880011D01*
G75*
G02*
X130421008Y-150730011I0J150000D01*
G01*
X130421008Y-150430011D01*
G75*
G02*
X130571008Y-150280011I150000J0D01*
G01*
G37*
G36*
G01*
X130571008Y-151280011D02*
X131821008Y-151280011D01*
G75*
G02*
X131971008Y-151430011I0J-150000D01*
G01*
X131971008Y-151730011D01*
G75*
G02*
X131821008Y-151880011I-150000J0D01*
G01*
X130571008Y-151880011D01*
G75*
G02*
X130421008Y-151730011I0J150000D01*
G01*
X130421008Y-151430011D01*
G75*
G02*
X130571008Y-151280011I150000J0D01*
G01*
G37*
G36*
G01*
X130571008Y-152280011D02*
X131821008Y-152280011D01*
G75*
G02*
X131971008Y-152430011I0J-150000D01*
G01*
X131971008Y-152730011D01*
G75*
G02*
X131821008Y-152880011I-150000J0D01*
G01*
X130571008Y-152880011D01*
G75*
G02*
X130421008Y-152730011I0J150000D01*
G01*
X130421008Y-152430011D01*
G75*
G02*
X130571008Y-152280011I150000J0D01*
G01*
G37*
G36*
G01*
X130571008Y-153280011D02*
X131821008Y-153280011D01*
G75*
G02*
X131971008Y-153430011I0J-150000D01*
G01*
X131971008Y-153730011D01*
G75*
G02*
X131821008Y-153880011I-150000J0D01*
G01*
X130571008Y-153880011D01*
G75*
G02*
X130421008Y-153730011I0J150000D01*
G01*
X130421008Y-153430011D01*
G75*
G02*
X130571008Y-153280011I150000J0D01*
G01*
G37*
G36*
G01*
X126671008Y-148680011D02*
X127971008Y-148680011D01*
G75*
G02*
X128221008Y-148930011I0J-250000D01*
G01*
X128221008Y-149630011D01*
G75*
G02*
X127971008Y-149880011I-250000J0D01*
G01*
X126671008Y-149880011D01*
G75*
G02*
X126421008Y-149630011I0J250000D01*
G01*
X126421008Y-148930011D01*
G75*
G02*
X126671008Y-148680011I250000J0D01*
G01*
G37*
G36*
G01*
X126671008Y-154280011D02*
X127971008Y-154280011D01*
G75*
G02*
X128221008Y-154530011I0J-250000D01*
G01*
X128221008Y-155230011D01*
G75*
G02*
X127971008Y-155480011I-250000J0D01*
G01*
X126671008Y-155480011D01*
G75*
G02*
X126421008Y-155230011I0J250000D01*
G01*
X126421008Y-154530011D01*
G75*
G02*
X126671008Y-154280011I250000J0D01*
G01*
G37*
G36*
G01*
X129524000Y-162969000D02*
X129524000Y-162019000D01*
G75*
G02*
X129774000Y-161769000I250000J0D01*
G01*
X130274000Y-161769000D01*
G75*
G02*
X130524000Y-162019000I0J-250000D01*
G01*
X130524000Y-162969000D01*
G75*
G02*
X130274000Y-163219000I-250000J0D01*
G01*
X129774000Y-163219000D01*
G75*
G02*
X129524000Y-162969000I0J250000D01*
G01*
G37*
G36*
G01*
X131424000Y-162969000D02*
X131424000Y-162019000D01*
G75*
G02*
X131674000Y-161769000I250000J0D01*
G01*
X132174000Y-161769000D01*
G75*
G02*
X132424000Y-162019000I0J-250000D01*
G01*
X132424000Y-162969000D01*
G75*
G02*
X132174000Y-163219000I-250000J0D01*
G01*
X131674000Y-163219000D01*
G75*
G02*
X131424000Y-162969000I0J250000D01*
G01*
G37*
G36*
G01*
X141573000Y-74836000D02*
X142473000Y-74836000D01*
G75*
G02*
X142723000Y-75086000I0J-250000D01*
G01*
X142723000Y-75611000D01*
G75*
G02*
X142473000Y-75861000I-250000J0D01*
G01*
X141573000Y-75861000D01*
G75*
G02*
X141323000Y-75611000I0J250000D01*
G01*
X141323000Y-75086000D01*
G75*
G02*
X141573000Y-74836000I250000J0D01*
G01*
G37*
G36*
G01*
X141573000Y-76661000D02*
X142473000Y-76661000D01*
G75*
G02*
X142723000Y-76911000I0J-250000D01*
G01*
X142723000Y-77436000D01*
G75*
G02*
X142473000Y-77686000I-250000J0D01*
G01*
X141573000Y-77686000D01*
G75*
G02*
X141323000Y-77436000I0J250000D01*
G01*
X141323000Y-76911000D01*
G75*
G02*
X141573000Y-76661000I250000J0D01*
G01*
G37*
G36*
G01*
X139516000Y-86876000D02*
X140466000Y-86876000D01*
G75*
G02*
X140716000Y-87126000I0J-250000D01*
G01*
X140716000Y-87626000D01*
G75*
G02*
X140466000Y-87876000I-250000J0D01*
G01*
X139516000Y-87876000D01*
G75*
G02*
X139266000Y-87626000I0J250000D01*
G01*
X139266000Y-87126000D01*
G75*
G02*
X139516000Y-86876000I250000J0D01*
G01*
G37*
G36*
G01*
X139516000Y-88776000D02*
X140466000Y-88776000D01*
G75*
G02*
X140716000Y-89026000I0J-250000D01*
G01*
X140716000Y-89526000D01*
G75*
G02*
X140466000Y-89776000I-250000J0D01*
G01*
X139516000Y-89776000D01*
G75*
G02*
X139266000Y-89526000I0J250000D01*
G01*
X139266000Y-89026000D01*
G75*
G02*
X139516000Y-88776000I250000J0D01*
G01*
G37*
G36*
G01*
X139516000Y-58936000D02*
X140466000Y-58936000D01*
G75*
G02*
X140716000Y-59186000I0J-250000D01*
G01*
X140716000Y-59686000D01*
G75*
G02*
X140466000Y-59936000I-250000J0D01*
G01*
X139516000Y-59936000D01*
G75*
G02*
X139266000Y-59686000I0J250000D01*
G01*
X139266000Y-59186000D01*
G75*
G02*
X139516000Y-58936000I250000J0D01*
G01*
G37*
G36*
G01*
X139516000Y-60836000D02*
X140466000Y-60836000D01*
G75*
G02*
X140716000Y-61086000I0J-250000D01*
G01*
X140716000Y-61586000D01*
G75*
G02*
X140466000Y-61836000I-250000J0D01*
G01*
X139516000Y-61836000D01*
G75*
G02*
X139266000Y-61586000I0J250000D01*
G01*
X139266000Y-61086000D01*
G75*
G02*
X139516000Y-60836000I250000J0D01*
G01*
G37*
G36*
G01*
X132587000Y-117685000D02*
X132287000Y-117685000D01*
G75*
G02*
X132137000Y-117535000I0J150000D01*
G01*
X132137000Y-116510000D01*
G75*
G02*
X132287000Y-116360000I150000J0D01*
G01*
X132587000Y-116360000D01*
G75*
G02*
X132737000Y-116510000I0J-150000D01*
G01*
X132737000Y-117535000D01*
G75*
G02*
X132587000Y-117685000I-150000J0D01*
G01*
G37*
G36*
G01*
X133537000Y-117685000D02*
X133237000Y-117685000D01*
G75*
G02*
X133087000Y-117535000I0J150000D01*
G01*
X133087000Y-116510000D01*
G75*
G02*
X133237000Y-116360000I150000J0D01*
G01*
X133537000Y-116360000D01*
G75*
G02*
X133687000Y-116510000I0J-150000D01*
G01*
X133687000Y-117535000D01*
G75*
G02*
X133537000Y-117685000I-150000J0D01*
G01*
G37*
G36*
G01*
X134487000Y-117685000D02*
X134187000Y-117685000D01*
G75*
G02*
X134037000Y-117535000I0J150000D01*
G01*
X134037000Y-116510000D01*
G75*
G02*
X134187000Y-116360000I150000J0D01*
G01*
X134487000Y-116360000D01*
G75*
G02*
X134637000Y-116510000I0J-150000D01*
G01*
X134637000Y-117535000D01*
G75*
G02*
X134487000Y-117685000I-150000J0D01*
G01*
G37*
G36*
G01*
X134487000Y-115410000D02*
X134187000Y-115410000D01*
G75*
G02*
X134037000Y-115260000I0J150000D01*
G01*
X134037000Y-114235000D01*
G75*
G02*
X134187000Y-114085000I150000J0D01*
G01*
X134487000Y-114085000D01*
G75*
G02*
X134637000Y-114235000I0J-150000D01*
G01*
X134637000Y-115260000D01*
G75*
G02*
X134487000Y-115410000I-150000J0D01*
G01*
G37*
G36*
G01*
X133537000Y-115410000D02*
X133237000Y-115410000D01*
G75*
G02*
X133087000Y-115260000I0J150000D01*
G01*
X133087000Y-114235000D01*
G75*
G02*
X133237000Y-114085000I150000J0D01*
G01*
X133537000Y-114085000D01*
G75*
G02*
X133687000Y-114235000I0J-150000D01*
G01*
X133687000Y-115260000D01*
G75*
G02*
X133537000Y-115410000I-150000J0D01*
G01*
G37*
G36*
G01*
X132587000Y-115410000D02*
X132287000Y-115410000D01*
G75*
G02*
X132137000Y-115260000I0J150000D01*
G01*
X132137000Y-114235000D01*
G75*
G02*
X132287000Y-114085000I150000J0D01*
G01*
X132587000Y-114085000D01*
G75*
G02*
X132737000Y-114235000I0J-150000D01*
G01*
X132737000Y-115260000D01*
G75*
G02*
X132587000Y-115410000I-150000J0D01*
G01*
G37*
G36*
G01*
X142335000Y-86921000D02*
X143235000Y-86921000D01*
G75*
G02*
X143485000Y-87171000I0J-250000D01*
G01*
X143485000Y-87696000D01*
G75*
G02*
X143235000Y-87946000I-250000J0D01*
G01*
X142335000Y-87946000D01*
G75*
G02*
X142085000Y-87696000I0J250000D01*
G01*
X142085000Y-87171000D01*
G75*
G02*
X142335000Y-86921000I250000J0D01*
G01*
G37*
G36*
G01*
X142335000Y-88746000D02*
X143235000Y-88746000D01*
G75*
G02*
X143485000Y-88996000I0J-250000D01*
G01*
X143485000Y-89521000D01*
G75*
G02*
X143235000Y-89771000I-250000J0D01*
G01*
X142335000Y-89771000D01*
G75*
G02*
X142085000Y-89521000I0J250000D01*
G01*
X142085000Y-88996000D01*
G75*
G02*
X142335000Y-88746000I250000J0D01*
G01*
G37*
X130236000Y-104454000D03*
G36*
X132661000Y-100504000D02*
G01*
X132661000Y-103104000D01*
X132136000Y-103629000D01*
X132136000Y-105104000D01*
X131336000Y-105104000D01*
X131336000Y-103629000D01*
X130811000Y-103104000D01*
X130811000Y-100504000D01*
X132661000Y-100504000D01*
G37*
X133236000Y-104454000D03*
G36*
G01*
X145165000Y-105651000D02*
X144215000Y-105651000D01*
G75*
G02*
X143965000Y-105401000I0J250000D01*
G01*
X143965000Y-104901000D01*
G75*
G02*
X144215000Y-104651000I250000J0D01*
G01*
X145165000Y-104651000D01*
G75*
G02*
X145415000Y-104901000I0J-250000D01*
G01*
X145415000Y-105401000D01*
G75*
G02*
X145165000Y-105651000I-250000J0D01*
G01*
G37*
G36*
G01*
X145165000Y-103751000D02*
X144215000Y-103751000D01*
G75*
G02*
X143965000Y-103501000I0J250000D01*
G01*
X143965000Y-103001000D01*
G75*
G02*
X144215000Y-102751000I250000J0D01*
G01*
X145165000Y-102751000D01*
G75*
G02*
X145415000Y-103001000I0J-250000D01*
G01*
X145415000Y-103501000D01*
G75*
G02*
X145165000Y-103751000I-250000J0D01*
G01*
G37*
G36*
G01*
X155203000Y-142370000D02*
X155203000Y-141470000D01*
G75*
G02*
X155453000Y-141220000I250000J0D01*
G01*
X155978000Y-141220000D01*
G75*
G02*
X156228000Y-141470000I0J-250000D01*
G01*
X156228000Y-142370000D01*
G75*
G02*
X155978000Y-142620000I-250000J0D01*
G01*
X155453000Y-142620000D01*
G75*
G02*
X155203000Y-142370000I0J250000D01*
G01*
G37*
G36*
G01*
X157028000Y-142370000D02*
X157028000Y-141470000D01*
G75*
G02*
X157278000Y-141220000I250000J0D01*
G01*
X157803000Y-141220000D01*
G75*
G02*
X158053000Y-141470000I0J-250000D01*
G01*
X158053000Y-142370000D01*
G75*
G02*
X157803000Y-142620000I-250000J0D01*
G01*
X157278000Y-142620000D01*
G75*
G02*
X157028000Y-142370000I0J250000D01*
G01*
G37*
G36*
G01*
X129524000Y-107089000D02*
X129524000Y-106139000D01*
G75*
G02*
X129774000Y-105889000I250000J0D01*
G01*
X130274000Y-105889000D01*
G75*
G02*
X130524000Y-106139000I0J-250000D01*
G01*
X130524000Y-107089000D01*
G75*
G02*
X130274000Y-107339000I-250000J0D01*
G01*
X129774000Y-107339000D01*
G75*
G02*
X129524000Y-107089000I0J250000D01*
G01*
G37*
G36*
G01*
X131424000Y-107089000D02*
X131424000Y-106139000D01*
G75*
G02*
X131674000Y-105889000I250000J0D01*
G01*
X132174000Y-105889000D01*
G75*
G02*
X132424000Y-106139000I0J-250000D01*
G01*
X132424000Y-107089000D01*
G75*
G02*
X132174000Y-107339000I-250000J0D01*
G01*
X131674000Y-107339000D01*
G75*
G02*
X131424000Y-107089000I0J250000D01*
G01*
G37*
X130236000Y-48574000D03*
G36*
X132661000Y-44624000D02*
G01*
X132661000Y-47224000D01*
X132136000Y-47749000D01*
X132136000Y-49224000D01*
X131336000Y-49224000D01*
X131336000Y-47749000D01*
X130811000Y-47224000D01*
X130811000Y-44624000D01*
X132661000Y-44624000D01*
G37*
X133236000Y-48574000D03*
G36*
G01*
X129524000Y-51209000D02*
X129524000Y-50259000D01*
G75*
G02*
X129774000Y-50009000I250000J0D01*
G01*
X130274000Y-50009000D01*
G75*
G02*
X130524000Y-50259000I0J-250000D01*
G01*
X130524000Y-51209000D01*
G75*
G02*
X130274000Y-51459000I-250000J0D01*
G01*
X129774000Y-51459000D01*
G75*
G02*
X129524000Y-51209000I0J250000D01*
G01*
G37*
G36*
G01*
X131424000Y-51209000D02*
X131424000Y-50259000D01*
G75*
G02*
X131674000Y-50009000I250000J0D01*
G01*
X132174000Y-50009000D01*
G75*
G02*
X132424000Y-50259000I0J-250000D01*
G01*
X132424000Y-51209000D01*
G75*
G02*
X132174000Y-51459000I-250000J0D01*
G01*
X131674000Y-51459000D01*
G75*
G02*
X131424000Y-51209000I0J250000D01*
G01*
G37*
G36*
G01*
X146567000Y-66932000D02*
X146567000Y-66032000D01*
G75*
G02*
X146817000Y-65782000I250000J0D01*
G01*
X147342000Y-65782000D01*
G75*
G02*
X147592000Y-66032000I0J-250000D01*
G01*
X147592000Y-66932000D01*
G75*
G02*
X147342000Y-67182000I-250000J0D01*
G01*
X146817000Y-67182000D01*
G75*
G02*
X146567000Y-66932000I0J250000D01*
G01*
G37*
G36*
G01*
X148392000Y-66932000D02*
X148392000Y-66032000D01*
G75*
G02*
X148642000Y-65782000I250000J0D01*
G01*
X149167000Y-65782000D01*
G75*
G02*
X149417000Y-66032000I0J-250000D01*
G01*
X149417000Y-66932000D01*
G75*
G02*
X149167000Y-67182000I-250000J0D01*
G01*
X148642000Y-67182000D01*
G75*
G02*
X148392000Y-66932000I0J250000D01*
G01*
G37*
G36*
G01*
X139516000Y-30996000D02*
X140466000Y-30996000D01*
G75*
G02*
X140716000Y-31246000I0J-250000D01*
G01*
X140716000Y-31746000D01*
G75*
G02*
X140466000Y-31996000I-250000J0D01*
G01*
X139516000Y-31996000D01*
G75*
G02*
X139266000Y-31746000I0J250000D01*
G01*
X139266000Y-31246000D01*
G75*
G02*
X139516000Y-30996000I250000J0D01*
G01*
G37*
G36*
G01*
X139516000Y-32896000D02*
X140466000Y-32896000D01*
G75*
G02*
X140716000Y-33146000I0J-250000D01*
G01*
X140716000Y-33646000D01*
G75*
G02*
X140466000Y-33896000I-250000J0D01*
G01*
X139516000Y-33896000D01*
G75*
G02*
X139266000Y-33646000I0J250000D01*
G01*
X139266000Y-33146000D01*
G75*
G02*
X139516000Y-32896000I250000J0D01*
G01*
G37*
G36*
G01*
X147275000Y-103081000D02*
X147275000Y-102781000D01*
G75*
G02*
X147425000Y-102631000I150000J0D01*
G01*
X148725000Y-102631000D01*
G75*
G02*
X148875000Y-102781000I0J-150000D01*
G01*
X148875000Y-103081000D01*
G75*
G02*
X148725000Y-103231000I-150000J0D01*
G01*
X147425000Y-103231000D01*
G75*
G02*
X147275000Y-103081000I0J150000D01*
G01*
G37*
G36*
G01*
X147275000Y-104351000D02*
X147275000Y-104051000D01*
G75*
G02*
X147425000Y-103901000I150000J0D01*
G01*
X148725000Y-103901000D01*
G75*
G02*
X148875000Y-104051000I0J-150000D01*
G01*
X148875000Y-104351000D01*
G75*
G02*
X148725000Y-104501000I-150000J0D01*
G01*
X147425000Y-104501000D01*
G75*
G02*
X147275000Y-104351000I0J150000D01*
G01*
G37*
G36*
G01*
X147275000Y-105621000D02*
X147275000Y-105321000D01*
G75*
G02*
X147425000Y-105171000I150000J0D01*
G01*
X148725000Y-105171000D01*
G75*
G02*
X148875000Y-105321000I0J-150000D01*
G01*
X148875000Y-105621000D01*
G75*
G02*
X148725000Y-105771000I-150000J0D01*
G01*
X147425000Y-105771000D01*
G75*
G02*
X147275000Y-105621000I0J150000D01*
G01*
G37*
G36*
G01*
X147275000Y-106891000D02*
X147275000Y-106591000D01*
G75*
G02*
X147425000Y-106441000I150000J0D01*
G01*
X148725000Y-106441000D01*
G75*
G02*
X148875000Y-106591000I0J-150000D01*
G01*
X148875000Y-106891000D01*
G75*
G02*
X148725000Y-107041000I-150000J0D01*
G01*
X147425000Y-107041000D01*
G75*
G02*
X147275000Y-106891000I0J150000D01*
G01*
G37*
G36*
G01*
X154475000Y-106891000D02*
X154475000Y-106591000D01*
G75*
G02*
X154625000Y-106441000I150000J0D01*
G01*
X155925000Y-106441000D01*
G75*
G02*
X156075000Y-106591000I0J-150000D01*
G01*
X156075000Y-106891000D01*
G75*
G02*
X155925000Y-107041000I-150000J0D01*
G01*
X154625000Y-107041000D01*
G75*
G02*
X154475000Y-106891000I0J150000D01*
G01*
G37*
G36*
G01*
X154475000Y-105621000D02*
X154475000Y-105321000D01*
G75*
G02*
X154625000Y-105171000I150000J0D01*
G01*
X155925000Y-105171000D01*
G75*
G02*
X156075000Y-105321000I0J-150000D01*
G01*
X156075000Y-105621000D01*
G75*
G02*
X155925000Y-105771000I-150000J0D01*
G01*
X154625000Y-105771000D01*
G75*
G02*
X154475000Y-105621000I0J150000D01*
G01*
G37*
G36*
G01*
X154475000Y-104351000D02*
X154475000Y-104051000D01*
G75*
G02*
X154625000Y-103901000I150000J0D01*
G01*
X155925000Y-103901000D01*
G75*
G02*
X156075000Y-104051000I0J-150000D01*
G01*
X156075000Y-104351000D01*
G75*
G02*
X155925000Y-104501000I-150000J0D01*
G01*
X154625000Y-104501000D01*
G75*
G02*
X154475000Y-104351000I0J150000D01*
G01*
G37*
G36*
G01*
X154475000Y-103081000D02*
X154475000Y-102781000D01*
G75*
G02*
X154625000Y-102631000I150000J0D01*
G01*
X155925000Y-102631000D01*
G75*
G02*
X156075000Y-102781000I0J-150000D01*
G01*
X156075000Y-103081000D01*
G75*
G02*
X155925000Y-103231000I-150000J0D01*
G01*
X154625000Y-103231000D01*
G75*
G02*
X154475000Y-103081000I0J150000D01*
G01*
G37*
G36*
G01*
X140287000Y-100523000D02*
X139187000Y-100523000D01*
G75*
G02*
X138937000Y-100273000I0J250000D01*
G01*
X138937000Y-97273000D01*
G75*
G02*
X139187000Y-97023000I250000J0D01*
G01*
X140287000Y-97023000D01*
G75*
G02*
X140537000Y-97273000I0J-250000D01*
G01*
X140537000Y-100273000D01*
G75*
G02*
X140287000Y-100523000I-250000J0D01*
G01*
G37*
G36*
G01*
X140287000Y-95123000D02*
X139187000Y-95123000D01*
G75*
G02*
X138937000Y-94873000I0J250000D01*
G01*
X138937000Y-91873000D01*
G75*
G02*
X139187000Y-91623000I250000J0D01*
G01*
X140287000Y-91623000D01*
G75*
G02*
X140537000Y-91873000I0J-250000D01*
G01*
X140537000Y-94873000D01*
G75*
G02*
X140287000Y-95123000I-250000J0D01*
G01*
G37*
D10*
X147572900Y-85786000D03*
D11*
X153732400Y-88326000D03*
D10*
X147572900Y-90866000D03*
G36*
G01*
X132587000Y-145625000D02*
X132287000Y-145625000D01*
G75*
G02*
X132137000Y-145475000I0J150000D01*
G01*
X132137000Y-144450000D01*
G75*
G02*
X132287000Y-144300000I150000J0D01*
G01*
X132587000Y-144300000D01*
G75*
G02*
X132737000Y-144450000I0J-150000D01*
G01*
X132737000Y-145475000D01*
G75*
G02*
X132587000Y-145625000I-150000J0D01*
G01*
G37*
G36*
G01*
X133537000Y-145625000D02*
X133237000Y-145625000D01*
G75*
G02*
X133087000Y-145475000I0J150000D01*
G01*
X133087000Y-144450000D01*
G75*
G02*
X133237000Y-144300000I150000J0D01*
G01*
X133537000Y-144300000D01*
G75*
G02*
X133687000Y-144450000I0J-150000D01*
G01*
X133687000Y-145475000D01*
G75*
G02*
X133537000Y-145625000I-150000J0D01*
G01*
G37*
G36*
G01*
X134487000Y-145625000D02*
X134187000Y-145625000D01*
G75*
G02*
X134037000Y-145475000I0J150000D01*
G01*
X134037000Y-144450000D01*
G75*
G02*
X134187000Y-144300000I150000J0D01*
G01*
X134487000Y-144300000D01*
G75*
G02*
X134637000Y-144450000I0J-150000D01*
G01*
X134637000Y-145475000D01*
G75*
G02*
X134487000Y-145625000I-150000J0D01*
G01*
G37*
G36*
G01*
X134487000Y-143350000D02*
X134187000Y-143350000D01*
G75*
G02*
X134037000Y-143200000I0J150000D01*
G01*
X134037000Y-142175000D01*
G75*
G02*
X134187000Y-142025000I150000J0D01*
G01*
X134487000Y-142025000D01*
G75*
G02*
X134637000Y-142175000I0J-150000D01*
G01*
X134637000Y-143200000D01*
G75*
G02*
X134487000Y-143350000I-150000J0D01*
G01*
G37*
G36*
G01*
X133537000Y-143350000D02*
X133237000Y-143350000D01*
G75*
G02*
X133087000Y-143200000I0J150000D01*
G01*
X133087000Y-142175000D01*
G75*
G02*
X133237000Y-142025000I150000J0D01*
G01*
X133537000Y-142025000D01*
G75*
G02*
X133687000Y-142175000I0J-150000D01*
G01*
X133687000Y-143200000D01*
G75*
G02*
X133537000Y-143350000I-150000J0D01*
G01*
G37*
G36*
G01*
X132587000Y-143350000D02*
X132287000Y-143350000D01*
G75*
G02*
X132137000Y-143200000I0J150000D01*
G01*
X132137000Y-142175000D01*
G75*
G02*
X132287000Y-142025000I150000J0D01*
G01*
X132587000Y-142025000D01*
G75*
G02*
X132737000Y-142175000I0J-150000D01*
G01*
X132737000Y-143200000D01*
G75*
G02*
X132587000Y-143350000I-150000J0D01*
G01*
G37*
G36*
G01*
X155203000Y-114430000D02*
X155203000Y-113530000D01*
G75*
G02*
X155453000Y-113280000I250000J0D01*
G01*
X155978000Y-113280000D01*
G75*
G02*
X156228000Y-113530000I0J-250000D01*
G01*
X156228000Y-114430000D01*
G75*
G02*
X155978000Y-114680000I-250000J0D01*
G01*
X155453000Y-114680000D01*
G75*
G02*
X155203000Y-114430000I0J250000D01*
G01*
G37*
G36*
G01*
X157028000Y-114430000D02*
X157028000Y-113530000D01*
G75*
G02*
X157278000Y-113280000I250000J0D01*
G01*
X157803000Y-113280000D01*
G75*
G02*
X158053000Y-113530000I0J-250000D01*
G01*
X158053000Y-114430000D01*
G75*
G02*
X157803000Y-114680000I-250000J0D01*
G01*
X157278000Y-114680000D01*
G75*
G02*
X157028000Y-114430000I0J250000D01*
G01*
G37*
G36*
G01*
X148909000Y-155313000D02*
X148909000Y-156213000D01*
G75*
G02*
X148659000Y-156463000I-250000J0D01*
G01*
X148134000Y-156463000D01*
G75*
G02*
X147884000Y-156213000I0J250000D01*
G01*
X147884000Y-155313000D01*
G75*
G02*
X148134000Y-155063000I250000J0D01*
G01*
X148659000Y-155063000D01*
G75*
G02*
X148909000Y-155313000I0J-250000D01*
G01*
G37*
G36*
G01*
X147084000Y-155313000D02*
X147084000Y-156213000D01*
G75*
G02*
X146834000Y-156463000I-250000J0D01*
G01*
X146309000Y-156463000D01*
G75*
G02*
X146059000Y-156213000I0J250000D01*
G01*
X146059000Y-155313000D01*
G75*
G02*
X146309000Y-155063000I250000J0D01*
G01*
X146834000Y-155063000D01*
G75*
G02*
X147084000Y-155313000I0J-250000D01*
G01*
G37*
G36*
G01*
X148909000Y-71493000D02*
X148909000Y-72393000D01*
G75*
G02*
X148659000Y-72643000I-250000J0D01*
G01*
X148134000Y-72643000D01*
G75*
G02*
X147884000Y-72393000I0J250000D01*
G01*
X147884000Y-71493000D01*
G75*
G02*
X148134000Y-71243000I250000J0D01*
G01*
X148659000Y-71243000D01*
G75*
G02*
X148909000Y-71493000I0J-250000D01*
G01*
G37*
G36*
G01*
X147084000Y-71493000D02*
X147084000Y-72393000D01*
G75*
G02*
X146834000Y-72643000I-250000J0D01*
G01*
X146309000Y-72643000D01*
G75*
G02*
X146059000Y-72393000I0J250000D01*
G01*
X146059000Y-71493000D01*
G75*
G02*
X146309000Y-71243000I250000J0D01*
G01*
X146834000Y-71243000D01*
G75*
G02*
X147084000Y-71493000I0J-250000D01*
G01*
G37*
G36*
G01*
X130571008Y-122340011D02*
X131821008Y-122340011D01*
G75*
G02*
X131971008Y-122490011I0J-150000D01*
G01*
X131971008Y-122790011D01*
G75*
G02*
X131821008Y-122940011I-150000J0D01*
G01*
X130571008Y-122940011D01*
G75*
G02*
X130421008Y-122790011I0J150000D01*
G01*
X130421008Y-122490011D01*
G75*
G02*
X130571008Y-122340011I150000J0D01*
G01*
G37*
G36*
G01*
X130571008Y-123340011D02*
X131821008Y-123340011D01*
G75*
G02*
X131971008Y-123490011I0J-150000D01*
G01*
X131971008Y-123790011D01*
G75*
G02*
X131821008Y-123940011I-150000J0D01*
G01*
X130571008Y-123940011D01*
G75*
G02*
X130421008Y-123790011I0J150000D01*
G01*
X130421008Y-123490011D01*
G75*
G02*
X130571008Y-123340011I150000J0D01*
G01*
G37*
G36*
G01*
X130571008Y-124340011D02*
X131821008Y-124340011D01*
G75*
G02*
X131971008Y-124490011I0J-150000D01*
G01*
X131971008Y-124790011D01*
G75*
G02*
X131821008Y-124940011I-150000J0D01*
G01*
X130571008Y-124940011D01*
G75*
G02*
X130421008Y-124790011I0J150000D01*
G01*
X130421008Y-124490011D01*
G75*
G02*
X130571008Y-124340011I150000J0D01*
G01*
G37*
G36*
G01*
X130571008Y-125340011D02*
X131821008Y-125340011D01*
G75*
G02*
X131971008Y-125490011I0J-150000D01*
G01*
X131971008Y-125790011D01*
G75*
G02*
X131821008Y-125940011I-150000J0D01*
G01*
X130571008Y-125940011D01*
G75*
G02*
X130421008Y-125790011I0J150000D01*
G01*
X130421008Y-125490011D01*
G75*
G02*
X130571008Y-125340011I150000J0D01*
G01*
G37*
G36*
G01*
X126671008Y-126340011D02*
X127971008Y-126340011D01*
G75*
G02*
X128221008Y-126590011I0J-250000D01*
G01*
X128221008Y-127290011D01*
G75*
G02*
X127971008Y-127540011I-250000J0D01*
G01*
X126671008Y-127540011D01*
G75*
G02*
X126421008Y-127290011I0J250000D01*
G01*
X126421008Y-126590011D01*
G75*
G02*
X126671008Y-126340011I250000J0D01*
G01*
G37*
G36*
G01*
X126671008Y-120740011D02*
X127971008Y-120740011D01*
G75*
G02*
X128221008Y-120990011I0J-250000D01*
G01*
X128221008Y-121690011D01*
G75*
G02*
X127971008Y-121940011I-250000J0D01*
G01*
X126671008Y-121940011D01*
G75*
G02*
X126421008Y-121690011I0J250000D01*
G01*
X126421008Y-120990011D01*
G75*
G02*
X126671008Y-120740011I250000J0D01*
G01*
G37*
G36*
G01*
X145165000Y-161531000D02*
X144215000Y-161531000D01*
G75*
G02*
X143965000Y-161281000I0J250000D01*
G01*
X143965000Y-160781000D01*
G75*
G02*
X144215000Y-160531000I250000J0D01*
G01*
X145165000Y-160531000D01*
G75*
G02*
X145415000Y-160781000I0J-250000D01*
G01*
X145415000Y-161281000D01*
G75*
G02*
X145165000Y-161531000I-250000J0D01*
G01*
G37*
G36*
G01*
X145165000Y-159631000D02*
X144215000Y-159631000D01*
G75*
G02*
X143965000Y-159381000I0J250000D01*
G01*
X143965000Y-158881000D01*
G75*
G02*
X144215000Y-158631000I250000J0D01*
G01*
X145165000Y-158631000D01*
G75*
G02*
X145415000Y-158881000I0J-250000D01*
G01*
X145415000Y-159381000D01*
G75*
G02*
X145165000Y-159631000I-250000J0D01*
G01*
G37*
G36*
G01*
X129524000Y-135029000D02*
X129524000Y-134079000D01*
G75*
G02*
X129774000Y-133829000I250000J0D01*
G01*
X130274000Y-133829000D01*
G75*
G02*
X130524000Y-134079000I0J-250000D01*
G01*
X130524000Y-135029000D01*
G75*
G02*
X130274000Y-135279000I-250000J0D01*
G01*
X129774000Y-135279000D01*
G75*
G02*
X129524000Y-135029000I0J250000D01*
G01*
G37*
G36*
G01*
X131424000Y-135029000D02*
X131424000Y-134079000D01*
G75*
G02*
X131674000Y-133829000I250000J0D01*
G01*
X132174000Y-133829000D01*
G75*
G02*
X132424000Y-134079000I0J-250000D01*
G01*
X132424000Y-135029000D01*
G75*
G02*
X132174000Y-135279000I-250000J0D01*
G01*
X131674000Y-135279000D01*
G75*
G02*
X131424000Y-135029000I0J250000D01*
G01*
G37*
G36*
G01*
X137672000Y-145676000D02*
X136722000Y-145676000D01*
G75*
G02*
X136472000Y-145426000I0J250000D01*
G01*
X136472000Y-144926000D01*
G75*
G02*
X136722000Y-144676000I250000J0D01*
G01*
X137672000Y-144676000D01*
G75*
G02*
X137922000Y-144926000I0J-250000D01*
G01*
X137922000Y-145426000D01*
G75*
G02*
X137672000Y-145676000I-250000J0D01*
G01*
G37*
G36*
G01*
X137672000Y-143776000D02*
X136722000Y-143776000D01*
G75*
G02*
X136472000Y-143526000I0J250000D01*
G01*
X136472000Y-143026000D01*
G75*
G02*
X136722000Y-142776000I250000J0D01*
G01*
X137672000Y-142776000D01*
G75*
G02*
X137922000Y-143026000I0J-250000D01*
G01*
X137922000Y-143526000D01*
G75*
G02*
X137672000Y-143776000I-250000J0D01*
G01*
G37*
G36*
G01*
X146567000Y-122812000D02*
X146567000Y-121912000D01*
G75*
G02*
X146817000Y-121662000I250000J0D01*
G01*
X147342000Y-121662000D01*
G75*
G02*
X147592000Y-121912000I0J-250000D01*
G01*
X147592000Y-122812000D01*
G75*
G02*
X147342000Y-123062000I-250000J0D01*
G01*
X146817000Y-123062000D01*
G75*
G02*
X146567000Y-122812000I0J250000D01*
G01*
G37*
G36*
G01*
X148392000Y-122812000D02*
X148392000Y-121912000D01*
G75*
G02*
X148642000Y-121662000I250000J0D01*
G01*
X149167000Y-121662000D01*
G75*
G02*
X149417000Y-121912000I0J-250000D01*
G01*
X149417000Y-122812000D01*
G75*
G02*
X149167000Y-123062000I-250000J0D01*
G01*
X148642000Y-123062000D01*
G75*
G02*
X148392000Y-122812000I0J250000D01*
G01*
G37*
G36*
G01*
X129229000Y-142375000D02*
X130179000Y-142375000D01*
G75*
G02*
X130429000Y-142625000I0J-250000D01*
G01*
X130429000Y-143125000D01*
G75*
G02*
X130179000Y-143375000I-250000J0D01*
G01*
X129229000Y-143375000D01*
G75*
G02*
X128979000Y-143125000I0J250000D01*
G01*
X128979000Y-142625000D01*
G75*
G02*
X129229000Y-142375000I250000J0D01*
G01*
G37*
G36*
G01*
X129229000Y-144275000D02*
X130179000Y-144275000D01*
G75*
G02*
X130429000Y-144525000I0J-250000D01*
G01*
X130429000Y-145025000D01*
G75*
G02*
X130179000Y-145275000I-250000J0D01*
G01*
X129229000Y-145275000D01*
G75*
G02*
X128979000Y-145025000I0J250000D01*
G01*
X128979000Y-144525000D01*
G75*
G02*
X129229000Y-144275000I250000J0D01*
G01*
G37*
G36*
G01*
X137672000Y-89796000D02*
X136722000Y-89796000D01*
G75*
G02*
X136472000Y-89546000I0J250000D01*
G01*
X136472000Y-89046000D01*
G75*
G02*
X136722000Y-88796000I250000J0D01*
G01*
X137672000Y-88796000D01*
G75*
G02*
X137922000Y-89046000I0J-250000D01*
G01*
X137922000Y-89546000D01*
G75*
G02*
X137672000Y-89796000I-250000J0D01*
G01*
G37*
G36*
G01*
X137672000Y-87896000D02*
X136722000Y-87896000D01*
G75*
G02*
X136472000Y-87646000I0J250000D01*
G01*
X136472000Y-87146000D01*
G75*
G02*
X136722000Y-86896000I250000J0D01*
G01*
X137672000Y-86896000D01*
G75*
G02*
X137922000Y-87146000I0J-250000D01*
G01*
X137922000Y-87646000D01*
G75*
G02*
X137672000Y-87896000I-250000J0D01*
G01*
G37*
G36*
G01*
X132587000Y-61805000D02*
X132287000Y-61805000D01*
G75*
G02*
X132137000Y-61655000I0J150000D01*
G01*
X132137000Y-60630000D01*
G75*
G02*
X132287000Y-60480000I150000J0D01*
G01*
X132587000Y-60480000D01*
G75*
G02*
X132737000Y-60630000I0J-150000D01*
G01*
X132737000Y-61655000D01*
G75*
G02*
X132587000Y-61805000I-150000J0D01*
G01*
G37*
G36*
G01*
X133537000Y-61805000D02*
X133237000Y-61805000D01*
G75*
G02*
X133087000Y-61655000I0J150000D01*
G01*
X133087000Y-60630000D01*
G75*
G02*
X133237000Y-60480000I150000J0D01*
G01*
X133537000Y-60480000D01*
G75*
G02*
X133687000Y-60630000I0J-150000D01*
G01*
X133687000Y-61655000D01*
G75*
G02*
X133537000Y-61805000I-150000J0D01*
G01*
G37*
G36*
G01*
X134487000Y-61805000D02*
X134187000Y-61805000D01*
G75*
G02*
X134037000Y-61655000I0J150000D01*
G01*
X134037000Y-60630000D01*
G75*
G02*
X134187000Y-60480000I150000J0D01*
G01*
X134487000Y-60480000D01*
G75*
G02*
X134637000Y-60630000I0J-150000D01*
G01*
X134637000Y-61655000D01*
G75*
G02*
X134487000Y-61805000I-150000J0D01*
G01*
G37*
G36*
G01*
X134487000Y-59530000D02*
X134187000Y-59530000D01*
G75*
G02*
X134037000Y-59380000I0J150000D01*
G01*
X134037000Y-58355000D01*
G75*
G02*
X134187000Y-58205000I150000J0D01*
G01*
X134487000Y-58205000D01*
G75*
G02*
X134637000Y-58355000I0J-150000D01*
G01*
X134637000Y-59380000D01*
G75*
G02*
X134487000Y-59530000I-150000J0D01*
G01*
G37*
G36*
G01*
X133537000Y-59530000D02*
X133237000Y-59530000D01*
G75*
G02*
X133087000Y-59380000I0J150000D01*
G01*
X133087000Y-58355000D01*
G75*
G02*
X133237000Y-58205000I150000J0D01*
G01*
X133537000Y-58205000D01*
G75*
G02*
X133687000Y-58355000I0J-150000D01*
G01*
X133687000Y-59380000D01*
G75*
G02*
X133537000Y-59530000I-150000J0D01*
G01*
G37*
G36*
G01*
X132587000Y-59530000D02*
X132287000Y-59530000D01*
G75*
G02*
X132137000Y-59380000I0J150000D01*
G01*
X132137000Y-58355000D01*
G75*
G02*
X132287000Y-58205000I150000J0D01*
G01*
X132587000Y-58205000D01*
G75*
G02*
X132737000Y-58355000I0J-150000D01*
G01*
X132737000Y-59380000D01*
G75*
G02*
X132587000Y-59530000I-150000J0D01*
G01*
G37*
G36*
G01*
X139516000Y-114816000D02*
X140466000Y-114816000D01*
G75*
G02*
X140716000Y-115066000I0J-250000D01*
G01*
X140716000Y-115566000D01*
G75*
G02*
X140466000Y-115816000I-250000J0D01*
G01*
X139516000Y-115816000D01*
G75*
G02*
X139266000Y-115566000I0J250000D01*
G01*
X139266000Y-115066000D01*
G75*
G02*
X139516000Y-114816000I250000J0D01*
G01*
G37*
G36*
G01*
X139516000Y-116716000D02*
X140466000Y-116716000D01*
G75*
G02*
X140716000Y-116966000I0J-250000D01*
G01*
X140716000Y-117466000D01*
G75*
G02*
X140466000Y-117716000I-250000J0D01*
G01*
X139516000Y-117716000D01*
G75*
G02*
X139266000Y-117466000I0J250000D01*
G01*
X139266000Y-116966000D01*
G75*
G02*
X139516000Y-116716000I250000J0D01*
G01*
G37*
G36*
G01*
X132587000Y-33865000D02*
X132287000Y-33865000D01*
G75*
G02*
X132137000Y-33715000I0J150000D01*
G01*
X132137000Y-32690000D01*
G75*
G02*
X132287000Y-32540000I150000J0D01*
G01*
X132587000Y-32540000D01*
G75*
G02*
X132737000Y-32690000I0J-150000D01*
G01*
X132737000Y-33715000D01*
G75*
G02*
X132587000Y-33865000I-150000J0D01*
G01*
G37*
G36*
G01*
X133537000Y-33865000D02*
X133237000Y-33865000D01*
G75*
G02*
X133087000Y-33715000I0J150000D01*
G01*
X133087000Y-32690000D01*
G75*
G02*
X133237000Y-32540000I150000J0D01*
G01*
X133537000Y-32540000D01*
G75*
G02*
X133687000Y-32690000I0J-150000D01*
G01*
X133687000Y-33715000D01*
G75*
G02*
X133537000Y-33865000I-150000J0D01*
G01*
G37*
G36*
G01*
X134487000Y-33865000D02*
X134187000Y-33865000D01*
G75*
G02*
X134037000Y-33715000I0J150000D01*
G01*
X134037000Y-32690000D01*
G75*
G02*
X134187000Y-32540000I150000J0D01*
G01*
X134487000Y-32540000D01*
G75*
G02*
X134637000Y-32690000I0J-150000D01*
G01*
X134637000Y-33715000D01*
G75*
G02*
X134487000Y-33865000I-150000J0D01*
G01*
G37*
G36*
G01*
X134487000Y-31590000D02*
X134187000Y-31590000D01*
G75*
G02*
X134037000Y-31440000I0J150000D01*
G01*
X134037000Y-30415000D01*
G75*
G02*
X134187000Y-30265000I150000J0D01*
G01*
X134487000Y-30265000D01*
G75*
G02*
X134637000Y-30415000I0J-150000D01*
G01*
X134637000Y-31440000D01*
G75*
G02*
X134487000Y-31590000I-150000J0D01*
G01*
G37*
G36*
G01*
X133537000Y-31590000D02*
X133237000Y-31590000D01*
G75*
G02*
X133087000Y-31440000I0J150000D01*
G01*
X133087000Y-30415000D01*
G75*
G02*
X133237000Y-30265000I150000J0D01*
G01*
X133537000Y-30265000D01*
G75*
G02*
X133687000Y-30415000I0J-150000D01*
G01*
X133687000Y-31440000D01*
G75*
G02*
X133537000Y-31590000I-150000J0D01*
G01*
G37*
G36*
G01*
X132587000Y-31590000D02*
X132287000Y-31590000D01*
G75*
G02*
X132137000Y-31440000I0J150000D01*
G01*
X132137000Y-30415000D01*
G75*
G02*
X132287000Y-30265000I150000J0D01*
G01*
X132587000Y-30265000D01*
G75*
G02*
X132737000Y-30415000I0J-150000D01*
G01*
X132737000Y-31440000D01*
G75*
G02*
X132587000Y-31590000I-150000J0D01*
G01*
G37*
M02*
