M48
INCH,TZ
T1C0.0197
T2C0.0390
T3C0.0935
%
G90
G05
T1
X46715Y-10874
X46715Y-64874
X47048Y-10874
X47048Y-64874
X47381Y-10874
X47381Y-64874
X47715Y-10874
X47715Y-64874
X48048Y-10874
X48048Y-64874
X48381Y-10874
X48381Y-64874
X48715Y-10874
X48715Y-64874
X49715Y-7874
X49715Y-8207
X49715Y-8541
X49715Y-8874
X49715Y-9207
X49715Y-9541
X49715Y-9874
X49715Y-15374
X49715Y-15707
X49715Y-16041
X49715Y-16374
X49715Y-26374
X49715Y-26707
X49715Y-27041
X49715Y-27374
X49715Y-37374
X49715Y-37707
X49715Y-38041
X49715Y-38374
X49715Y-48374
X49715Y-48707
X49715Y-49041
X49715Y-49374
X49715Y-59374
X49715Y-59707
X49715Y-60041
X49715Y-60374
X49715Y-65874
X49715Y-66207
X49715Y-66541
X49715Y-66874
X49715Y-67207
X49715Y-67541
X49715Y-67874
X67215Y-15374
X67215Y-15707
X67215Y-16041
X67215Y-16374
X67215Y-26374
X67215Y-26707
X67215Y-27041
X67215Y-27374
X67215Y-37374
X67215Y-37707
X67215Y-38041
X67215Y-38374
X67215Y-48374
X67215Y-48707
X67215Y-49041
X67215Y-49374
X67215Y-59374
X67215Y-59707
X67215Y-60041
X67215Y-60374
X67215Y-7874
X67215Y-8207
X67215Y-8541
X67215Y-8874
X67215Y-9207
X67215Y-9541
X67215Y-9874
X67215Y-65874
X67215Y-66207
X67215Y-66541
X67215Y-66874
X67215Y-67207
X67215Y-67541
X67215Y-67874
X68215Y-10874
X68215Y-64874
X68548Y-10874
X68548Y-64874
X68881Y-10874
X68881Y-64874
X69215Y-10874
X69215Y-64874
X69548Y-10874
X69548Y-64874
X69881Y-10874
X69881Y-64874
X70215Y-10874
X70215Y-64874
T2
X63115Y-12924
X63115Y-23924
X63115Y-34924
X63115Y-45924
X63115Y-56924
X66115Y-12524
X66115Y-13324
X66115Y-23524
X66115Y-24324
X66115Y-34524
X66115Y-35324
X66115Y-45524
X66115Y-46324
X66115Y-56524
X66115Y-57324
T3
X63115Y-11924
X63115Y-13924
X63115Y-22924
X63115Y-24924
X63115Y-33924
X63115Y-35924
X63115Y-44924
X63115Y-46924
X63115Y-55924
X63115Y-57924
X65365Y-11924
X65365Y-13924
X65365Y-22924
X65365Y-24924
X65365Y-33924
X65365Y-35924
X65365Y-44924
X65365Y-46924
X65365Y-55924
X65365Y-57924
T0
M30
