G04 #@! TF.GenerationSoftware,KiCad,Pcbnew,6.0.2+dfsg-1*
G04 #@! TF.CreationDate,2023-11-02T10:53:08-06:00*
G04 #@! TF.ProjectId,ckt-dingdong-flash-array,636b742d-6469-46e6-9764-6f6e672d666c,rev?*
G04 #@! TF.SameCoordinates,Original*
G04 #@! TF.FileFunction,Legend,Top*
G04 #@! TF.FilePolarity,Positive*
%FSLAX46Y46*%
G04 Gerber Fmt 4.6, Leading zero omitted, Abs format (unit mm)*
G04 Created by KiCad (PCBNEW 6.0.2+dfsg-1) date 2023-11-02 10:53:08*
%MOMM*%
%LPD*%
G01*
G04 APERTURE LIST*
%ADD10C,0.150000*%
%ADD11C,0.120000*%
%ADD12C,0.152400*%
G04 APERTURE END LIST*
D10*
X169963000Y-134260380D02*
X169963000Y-134498476D01*
X169724904Y-134403238D02*
X169963000Y-134498476D01*
X170201095Y-134403238D01*
X169820142Y-134688952D02*
X169963000Y-134498476D01*
X170105857Y-134688952D01*
X132371000Y-146198380D02*
X132371000Y-146436476D01*
X132132904Y-146341238D02*
X132371000Y-146436476D01*
X132609095Y-146341238D01*
X132228142Y-146626952D02*
X132371000Y-146436476D01*
X132513857Y-146626952D01*
X132371000Y-90318380D02*
X132371000Y-90556476D01*
X132132904Y-90461238D02*
X132371000Y-90556476D01*
X132609095Y-90461238D01*
X132228142Y-90746952D02*
X132371000Y-90556476D01*
X132513857Y-90746952D01*
X169963000Y-50440380D02*
X169963000Y-50678476D01*
X169724904Y-50583238D02*
X169963000Y-50678476D01*
X170201095Y-50583238D01*
X169820142Y-50868952D02*
X169963000Y-50678476D01*
X170105857Y-50868952D01*
X132371000Y-34438380D02*
X132371000Y-34676476D01*
X132132904Y-34581238D02*
X132371000Y-34676476D01*
X132609095Y-34581238D01*
X132228142Y-34866952D02*
X132371000Y-34676476D01*
X132513857Y-34866952D01*
X169963000Y-78380380D02*
X169963000Y-78618476D01*
X169724904Y-78523238D02*
X169963000Y-78618476D01*
X170201095Y-78523238D01*
X169820142Y-78808952D02*
X169963000Y-78618476D01*
X170105857Y-78808952D01*
X147992000Y-73554380D02*
X147992000Y-73792476D01*
X147753904Y-73697238D02*
X147992000Y-73792476D01*
X148230095Y-73697238D01*
X147849142Y-73982952D02*
X147992000Y-73792476D01*
X148134857Y-73982952D01*
X147992000Y-157374380D02*
X147992000Y-157612476D01*
X147753904Y-157517238D02*
X147992000Y-157612476D01*
X148230095Y-157517238D01*
X147849142Y-157802952D02*
X147992000Y-157612476D01*
X148134857Y-157802952D01*
X147992000Y-129434380D02*
X147992000Y-129672476D01*
X147753904Y-129577238D02*
X147992000Y-129672476D01*
X148230095Y-129577238D01*
X147849142Y-129862952D02*
X147992000Y-129672476D01*
X148134857Y-129862952D01*
X132371000Y-62378380D02*
X132371000Y-62616476D01*
X132132904Y-62521238D02*
X132371000Y-62616476D01*
X132609095Y-62521238D01*
X132228142Y-62806952D02*
X132371000Y-62616476D01*
X132513857Y-62806952D01*
X169963000Y-162200380D02*
X169963000Y-162438476D01*
X169724904Y-162343238D02*
X169963000Y-162438476D01*
X170201095Y-162343238D01*
X169820142Y-162628952D02*
X169963000Y-162438476D01*
X170105857Y-162628952D01*
X169963000Y-106320380D02*
X169963000Y-106558476D01*
X169724904Y-106463238D02*
X169963000Y-106558476D01*
X170201095Y-106463238D01*
X169820142Y-106748952D02*
X169963000Y-106558476D01*
X170105857Y-106748952D01*
X147992000Y-101494380D02*
X147992000Y-101732476D01*
X147753904Y-101637238D02*
X147992000Y-101732476D01*
X148230095Y-101637238D01*
X147849142Y-101922952D02*
X147992000Y-101732476D01*
X148134857Y-101922952D01*
X132371000Y-118258380D02*
X132371000Y-118496476D01*
X132132904Y-118401238D02*
X132371000Y-118496476D01*
X132609095Y-118401238D01*
X132228142Y-118686952D02*
X132371000Y-118496476D01*
X132513857Y-118686952D01*
X147992000Y-45614380D02*
X147992000Y-45852476D01*
X147753904Y-45757238D02*
X147992000Y-45852476D01*
X148230095Y-45757238D01*
X147849142Y-46042952D02*
X147992000Y-45852476D01*
X148134857Y-46042952D01*
X129537333Y-118782142D02*
X129489714Y-118829761D01*
X129346857Y-118877380D01*
X129251619Y-118877380D01*
X129108761Y-118829761D01*
X129013523Y-118734523D01*
X128965904Y-118639285D01*
X128918285Y-118448809D01*
X128918285Y-118305952D01*
X128965904Y-118115476D01*
X129013523Y-118020238D01*
X129108761Y-117925000D01*
X129251619Y-117877380D01*
X129346857Y-117877380D01*
X129489714Y-117925000D01*
X129537333Y-117972619D01*
X130394476Y-118210714D02*
X130394476Y-118877380D01*
X130156380Y-117829761D02*
X129918285Y-118544047D01*
X130537333Y-118544047D01*
X147317333Y-98684380D02*
X146984000Y-98208190D01*
X146745904Y-98684380D02*
X146745904Y-97684380D01*
X147126857Y-97684380D01*
X147222095Y-97732000D01*
X147269714Y-97779619D01*
X147317333Y-97874857D01*
X147317333Y-98017714D01*
X147269714Y-98112952D01*
X147222095Y-98160571D01*
X147126857Y-98208190D01*
X146745904Y-98208190D01*
X147650666Y-97684380D02*
X148317333Y-97684380D01*
X147888761Y-98684380D01*
X136268333Y-162978142D02*
X136220714Y-163025761D01*
X136077857Y-163073380D01*
X135982619Y-163073380D01*
X135839761Y-163025761D01*
X135744523Y-162930523D01*
X135696904Y-162835285D01*
X135649285Y-162644809D01*
X135649285Y-162501952D01*
X135696904Y-162311476D01*
X135744523Y-162216238D01*
X135839761Y-162121000D01*
X135982619Y-162073380D01*
X136077857Y-162073380D01*
X136220714Y-162121000D01*
X136268333Y-162168619D01*
X136601666Y-162073380D02*
X137268333Y-162073380D01*
X136839761Y-163073380D01*
X145412333Y-32898380D02*
X145079000Y-32422190D01*
X144840904Y-32898380D02*
X144840904Y-31898380D01*
X145221857Y-31898380D01*
X145317095Y-31946000D01*
X145364714Y-31993619D01*
X145412333Y-32088857D01*
X145412333Y-32231714D01*
X145364714Y-32326952D01*
X145317095Y-32374571D01*
X145221857Y-32422190D01*
X144840904Y-32422190D01*
X145745666Y-31898380D02*
X146364714Y-31898380D01*
X146031380Y-32279333D01*
X146174238Y-32279333D01*
X146269476Y-32326952D01*
X146317095Y-32374571D01*
X146364714Y-32469809D01*
X146364714Y-32707904D01*
X146317095Y-32803142D01*
X146269476Y-32850761D01*
X146174238Y-32898380D01*
X145888523Y-32898380D01*
X145793285Y-32850761D01*
X145745666Y-32803142D01*
X163105095Y-37613380D02*
X163105095Y-38422904D01*
X163152714Y-38518142D01*
X163200333Y-38565761D01*
X163295571Y-38613380D01*
X163486047Y-38613380D01*
X163581285Y-38565761D01*
X163628904Y-38518142D01*
X163676523Y-38422904D01*
X163676523Y-37613380D01*
X164105095Y-37708619D02*
X164152714Y-37661000D01*
X164247952Y-37613380D01*
X164486047Y-37613380D01*
X164581285Y-37661000D01*
X164628904Y-37708619D01*
X164676523Y-37803857D01*
X164676523Y-37899095D01*
X164628904Y-38041952D01*
X164057476Y-38613380D01*
X164676523Y-38613380D01*
X136268333Y-135038142D02*
X136220714Y-135085761D01*
X136077857Y-135133380D01*
X135982619Y-135133380D01*
X135839761Y-135085761D01*
X135744523Y-134990523D01*
X135696904Y-134895285D01*
X135649285Y-134704809D01*
X135649285Y-134561952D01*
X135696904Y-134371476D01*
X135744523Y-134276238D01*
X135839761Y-134181000D01*
X135982619Y-134133380D01*
X136077857Y-134133380D01*
X136220714Y-134181000D01*
X136268333Y-134228619D01*
X136601666Y-134133380D02*
X137268333Y-134133380D01*
X136839761Y-135133380D01*
X133474333Y-79158142D02*
X133426714Y-79205761D01*
X133283857Y-79253380D01*
X133188619Y-79253380D01*
X133045761Y-79205761D01*
X132950523Y-79110523D01*
X132902904Y-79015285D01*
X132855285Y-78824809D01*
X132855285Y-78681952D01*
X132902904Y-78491476D01*
X132950523Y-78396238D01*
X133045761Y-78301000D01*
X133188619Y-78253380D01*
X133283857Y-78253380D01*
X133426714Y-78301000D01*
X133474333Y-78348619D01*
X133855285Y-78348619D02*
X133902904Y-78301000D01*
X133998142Y-78253380D01*
X134236238Y-78253380D01*
X134331476Y-78301000D01*
X134379095Y-78348619D01*
X134426714Y-78443857D01*
X134426714Y-78539095D01*
X134379095Y-78681952D01*
X133807666Y-79253380D01*
X134426714Y-79253380D01*
X129537333Y-90842142D02*
X129489714Y-90889761D01*
X129346857Y-90937380D01*
X129251619Y-90937380D01*
X129108761Y-90889761D01*
X129013523Y-90794523D01*
X128965904Y-90699285D01*
X128918285Y-90508809D01*
X128918285Y-90365952D01*
X128965904Y-90175476D01*
X129013523Y-90080238D01*
X129108761Y-89985000D01*
X129251619Y-89937380D01*
X129346857Y-89937380D01*
X129489714Y-89985000D01*
X129537333Y-90032619D01*
X130394476Y-90270714D02*
X130394476Y-90937380D01*
X130156380Y-89889761D02*
X129918285Y-90604047D01*
X130537333Y-90604047D01*
X133791904Y-66680380D02*
X133791904Y-65680380D01*
X134030000Y-65680380D01*
X134172857Y-65728000D01*
X134268095Y-65823238D01*
X134315714Y-65918476D01*
X134363333Y-66108952D01*
X134363333Y-66251809D01*
X134315714Y-66442285D01*
X134268095Y-66537523D01*
X134172857Y-66632761D01*
X134030000Y-66680380D01*
X133791904Y-66680380D01*
X135315714Y-66680380D02*
X134744285Y-66680380D01*
X135030000Y-66680380D02*
X135030000Y-65680380D01*
X134934761Y-65823238D01*
X134839523Y-65918476D01*
X134744285Y-65966095D01*
X133791904Y-150500380D02*
X133791904Y-149500380D01*
X134030000Y-149500380D01*
X134172857Y-149548000D01*
X134268095Y-149643238D01*
X134315714Y-149738476D01*
X134363333Y-149928952D01*
X134363333Y-150071809D01*
X134315714Y-150262285D01*
X134268095Y-150357523D01*
X134172857Y-150452761D01*
X134030000Y-150500380D01*
X133791904Y-150500380D01*
X135315714Y-150500380D02*
X134744285Y-150500380D01*
X135030000Y-150500380D02*
X135030000Y-149500380D01*
X134934761Y-149643238D01*
X134839523Y-149738476D01*
X134744285Y-149786095D01*
X162898666Y-58060380D02*
X162898666Y-58774666D01*
X162851047Y-58917523D01*
X162755809Y-59012761D01*
X162612952Y-59060380D01*
X162517714Y-59060380D01*
X163327238Y-58155619D02*
X163374857Y-58108000D01*
X163470095Y-58060380D01*
X163708190Y-58060380D01*
X163803428Y-58108000D01*
X163851047Y-58155619D01*
X163898666Y-58250857D01*
X163898666Y-58346095D01*
X163851047Y-58488952D01*
X163279619Y-59060380D01*
X163898666Y-59060380D01*
X163105095Y-121433380D02*
X163105095Y-122242904D01*
X163152714Y-122338142D01*
X163200333Y-122385761D01*
X163295571Y-122433380D01*
X163486047Y-122433380D01*
X163581285Y-122385761D01*
X163628904Y-122338142D01*
X163676523Y-122242904D01*
X163676523Y-121433380D01*
X164105095Y-121528619D02*
X164152714Y-121481000D01*
X164247952Y-121433380D01*
X164486047Y-121433380D01*
X164581285Y-121481000D01*
X164628904Y-121528619D01*
X164676523Y-121623857D01*
X164676523Y-121719095D01*
X164628904Y-121861952D01*
X164057476Y-122433380D01*
X164676523Y-122433380D01*
X156969333Y-60330380D02*
X156636000Y-59854190D01*
X156397904Y-60330380D02*
X156397904Y-59330380D01*
X156778857Y-59330380D01*
X156874095Y-59378000D01*
X156921714Y-59425619D01*
X156969333Y-59520857D01*
X156969333Y-59663714D01*
X156921714Y-59758952D01*
X156874095Y-59806571D01*
X156778857Y-59854190D01*
X156397904Y-59854190D01*
X157826476Y-59330380D02*
X157636000Y-59330380D01*
X157540761Y-59378000D01*
X157493142Y-59425619D01*
X157397904Y-59568476D01*
X157350285Y-59758952D01*
X157350285Y-60139904D01*
X157397904Y-60235142D01*
X157445523Y-60282761D01*
X157540761Y-60330380D01*
X157731238Y-60330380D01*
X157826476Y-60282761D01*
X157874095Y-60235142D01*
X157921714Y-60139904D01*
X157921714Y-59901809D01*
X157874095Y-59806571D01*
X157826476Y-59758952D01*
X157731238Y-59711333D01*
X157540761Y-59711333D01*
X157445523Y-59758952D01*
X157397904Y-59806571D01*
X157350285Y-59901809D01*
X133791904Y-38740380D02*
X133791904Y-37740380D01*
X134030000Y-37740380D01*
X134172857Y-37788000D01*
X134268095Y-37883238D01*
X134315714Y-37978476D01*
X134363333Y-38168952D01*
X134363333Y-38311809D01*
X134315714Y-38502285D01*
X134268095Y-38597523D01*
X134172857Y-38692761D01*
X134030000Y-38740380D01*
X133791904Y-38740380D01*
X135315714Y-38740380D02*
X134744285Y-38740380D01*
X135030000Y-38740380D02*
X135030000Y-37740380D01*
X134934761Y-37883238D01*
X134839523Y-37978476D01*
X134744285Y-38026095D01*
X139062333Y-135133380D02*
X138729000Y-134657190D01*
X138490904Y-135133380D02*
X138490904Y-134133380D01*
X138871857Y-134133380D01*
X138967095Y-134181000D01*
X139014714Y-134228619D01*
X139062333Y-134323857D01*
X139062333Y-134466714D01*
X139014714Y-134561952D01*
X138967095Y-134609571D01*
X138871857Y-134657190D01*
X138490904Y-134657190D01*
X139967095Y-134133380D02*
X139490904Y-134133380D01*
X139443285Y-134609571D01*
X139490904Y-134561952D01*
X139586142Y-134514333D01*
X139824238Y-134514333D01*
X139919476Y-134561952D01*
X139967095Y-134609571D01*
X140014714Y-134704809D01*
X140014714Y-134942904D01*
X139967095Y-135038142D01*
X139919476Y-135085761D01*
X139824238Y-135133380D01*
X139586142Y-135133380D01*
X139490904Y-135085761D01*
X139443285Y-135038142D01*
X150913095Y-72788380D02*
X150913095Y-73597904D01*
X150960714Y-73693142D01*
X151008333Y-73740761D01*
X151103571Y-73788380D01*
X151294047Y-73788380D01*
X151389285Y-73740761D01*
X151436904Y-73693142D01*
X151484523Y-73597904D01*
X151484523Y-72788380D01*
X152389285Y-73121714D02*
X152389285Y-73788380D01*
X152151190Y-72740761D02*
X151913095Y-73455047D01*
X152532142Y-73455047D01*
X142618333Y-114325380D02*
X142285000Y-113849190D01*
X142046904Y-114325380D02*
X142046904Y-113325380D01*
X142427857Y-113325380D01*
X142523095Y-113373000D01*
X142570714Y-113420619D01*
X142618333Y-113515857D01*
X142618333Y-113658714D01*
X142570714Y-113753952D01*
X142523095Y-113801571D01*
X142427857Y-113849190D01*
X142046904Y-113849190D01*
X143475476Y-113658714D02*
X143475476Y-114325380D01*
X143237380Y-113277761D02*
X142999285Y-113992047D01*
X143618333Y-113992047D01*
X145031333Y-38994380D02*
X144698000Y-38518190D01*
X144459904Y-38994380D02*
X144459904Y-37994380D01*
X144840857Y-37994380D01*
X144936095Y-38042000D01*
X144983714Y-38089619D01*
X145031333Y-38184857D01*
X145031333Y-38327714D01*
X144983714Y-38422952D01*
X144936095Y-38470571D01*
X144840857Y-38518190D01*
X144459904Y-38518190D01*
X145412285Y-38089619D02*
X145459904Y-38042000D01*
X145555142Y-37994380D01*
X145793238Y-37994380D01*
X145888476Y-38042000D01*
X145936095Y-38089619D01*
X145983714Y-38184857D01*
X145983714Y-38280095D01*
X145936095Y-38422952D01*
X145364666Y-38994380D01*
X145983714Y-38994380D01*
X145031333Y-150754380D02*
X144698000Y-150278190D01*
X144459904Y-150754380D02*
X144459904Y-149754380D01*
X144840857Y-149754380D01*
X144936095Y-149802000D01*
X144983714Y-149849619D01*
X145031333Y-149944857D01*
X145031333Y-150087714D01*
X144983714Y-150182952D01*
X144936095Y-150230571D01*
X144840857Y-150278190D01*
X144459904Y-150278190D01*
X145412285Y-149849619D02*
X145459904Y-149802000D01*
X145555142Y-149754380D01*
X145793238Y-149754380D01*
X145888476Y-149802000D01*
X145936095Y-149849619D01*
X145983714Y-149944857D01*
X145983714Y-150040095D01*
X145936095Y-150182952D01*
X145364666Y-150754380D01*
X145983714Y-150754380D01*
X145412333Y-144658380D02*
X145079000Y-144182190D01*
X144840904Y-144658380D02*
X144840904Y-143658380D01*
X145221857Y-143658380D01*
X145317095Y-143706000D01*
X145364714Y-143753619D01*
X145412333Y-143848857D01*
X145412333Y-143991714D01*
X145364714Y-144086952D01*
X145317095Y-144134571D01*
X145221857Y-144182190D01*
X144840904Y-144182190D01*
X145745666Y-143658380D02*
X146364714Y-143658380D01*
X146031380Y-144039333D01*
X146174238Y-144039333D01*
X146269476Y-144086952D01*
X146317095Y-144134571D01*
X146364714Y-144229809D01*
X146364714Y-144467904D01*
X146317095Y-144563142D01*
X146269476Y-144610761D01*
X146174238Y-144658380D01*
X145888523Y-144658380D01*
X145793285Y-144610761D01*
X145745666Y-144563142D01*
X157858333Y-148754142D02*
X157810714Y-148801761D01*
X157667857Y-148849380D01*
X157572619Y-148849380D01*
X157429761Y-148801761D01*
X157334523Y-148706523D01*
X157286904Y-148611285D01*
X157239285Y-148420809D01*
X157239285Y-148277952D01*
X157286904Y-148087476D01*
X157334523Y-147992238D01*
X157429761Y-147897000D01*
X157572619Y-147849380D01*
X157667857Y-147849380D01*
X157810714Y-147897000D01*
X157858333Y-147944619D01*
X158429761Y-148277952D02*
X158334523Y-148230333D01*
X158286904Y-148182714D01*
X158239285Y-148087476D01*
X158239285Y-148039857D01*
X158286904Y-147944619D01*
X158334523Y-147897000D01*
X158429761Y-147849380D01*
X158620238Y-147849380D01*
X158715476Y-147897000D01*
X158763095Y-147944619D01*
X158810714Y-148039857D01*
X158810714Y-148087476D01*
X158763095Y-148182714D01*
X158715476Y-148230333D01*
X158620238Y-148277952D01*
X158429761Y-148277952D01*
X158334523Y-148325571D01*
X158286904Y-148373190D01*
X158239285Y-148468428D01*
X158239285Y-148658904D01*
X158286904Y-148754142D01*
X158334523Y-148801761D01*
X158429761Y-148849380D01*
X158620238Y-148849380D01*
X158715476Y-148801761D01*
X158763095Y-148754142D01*
X158810714Y-148658904D01*
X158810714Y-148468428D01*
X158763095Y-148373190D01*
X158715476Y-148325571D01*
X158620238Y-148277952D01*
X156969333Y-88270380D02*
X156636000Y-87794190D01*
X156397904Y-88270380D02*
X156397904Y-87270380D01*
X156778857Y-87270380D01*
X156874095Y-87318000D01*
X156921714Y-87365619D01*
X156969333Y-87460857D01*
X156969333Y-87603714D01*
X156921714Y-87698952D01*
X156874095Y-87746571D01*
X156778857Y-87794190D01*
X156397904Y-87794190D01*
X157826476Y-87270380D02*
X157636000Y-87270380D01*
X157540761Y-87318000D01*
X157493142Y-87365619D01*
X157397904Y-87508476D01*
X157350285Y-87698952D01*
X157350285Y-88079904D01*
X157397904Y-88175142D01*
X157445523Y-88222761D01*
X157540761Y-88270380D01*
X157731238Y-88270380D01*
X157826476Y-88222761D01*
X157874095Y-88175142D01*
X157921714Y-88079904D01*
X157921714Y-87841809D01*
X157874095Y-87746571D01*
X157826476Y-87698952D01*
X157731238Y-87651333D01*
X157540761Y-87651333D01*
X157445523Y-87698952D01*
X157397904Y-87746571D01*
X157350285Y-87841809D01*
X157858333Y-120814142D02*
X157810714Y-120861761D01*
X157667857Y-120909380D01*
X157572619Y-120909380D01*
X157429761Y-120861761D01*
X157334523Y-120766523D01*
X157286904Y-120671285D01*
X157239285Y-120480809D01*
X157239285Y-120337952D01*
X157286904Y-120147476D01*
X157334523Y-120052238D01*
X157429761Y-119957000D01*
X157572619Y-119909380D01*
X157667857Y-119909380D01*
X157810714Y-119957000D01*
X157858333Y-120004619D01*
X158429761Y-120337952D02*
X158334523Y-120290333D01*
X158286904Y-120242714D01*
X158239285Y-120147476D01*
X158239285Y-120099857D01*
X158286904Y-120004619D01*
X158334523Y-119957000D01*
X158429761Y-119909380D01*
X158620238Y-119909380D01*
X158715476Y-119957000D01*
X158763095Y-120004619D01*
X158810714Y-120099857D01*
X158810714Y-120147476D01*
X158763095Y-120242714D01*
X158715476Y-120290333D01*
X158620238Y-120337952D01*
X158429761Y-120337952D01*
X158334523Y-120385571D01*
X158286904Y-120433190D01*
X158239285Y-120528428D01*
X158239285Y-120718904D01*
X158286904Y-120814142D01*
X158334523Y-120861761D01*
X158429761Y-120909380D01*
X158620238Y-120909380D01*
X158715476Y-120861761D01*
X158763095Y-120814142D01*
X158810714Y-120718904D01*
X158810714Y-120528428D01*
X158763095Y-120433190D01*
X158715476Y-120385571D01*
X158620238Y-120337952D01*
X157858333Y-36994142D02*
X157810714Y-37041761D01*
X157667857Y-37089380D01*
X157572619Y-37089380D01*
X157429761Y-37041761D01*
X157334523Y-36946523D01*
X157286904Y-36851285D01*
X157239285Y-36660809D01*
X157239285Y-36517952D01*
X157286904Y-36327476D01*
X157334523Y-36232238D01*
X157429761Y-36137000D01*
X157572619Y-36089380D01*
X157667857Y-36089380D01*
X157810714Y-36137000D01*
X157858333Y-36184619D01*
X158429761Y-36517952D02*
X158334523Y-36470333D01*
X158286904Y-36422714D01*
X158239285Y-36327476D01*
X158239285Y-36279857D01*
X158286904Y-36184619D01*
X158334523Y-36137000D01*
X158429761Y-36089380D01*
X158620238Y-36089380D01*
X158715476Y-36137000D01*
X158763095Y-36184619D01*
X158810714Y-36279857D01*
X158810714Y-36327476D01*
X158763095Y-36422714D01*
X158715476Y-36470333D01*
X158620238Y-36517952D01*
X158429761Y-36517952D01*
X158334523Y-36565571D01*
X158286904Y-36613190D01*
X158239285Y-36708428D01*
X158239285Y-36898904D01*
X158286904Y-36994142D01*
X158334523Y-37041761D01*
X158429761Y-37089380D01*
X158620238Y-37089380D01*
X158715476Y-37041761D01*
X158763095Y-36994142D01*
X158810714Y-36898904D01*
X158810714Y-36708428D01*
X158763095Y-36613190D01*
X158715476Y-36565571D01*
X158620238Y-36517952D01*
X163105095Y-93493380D02*
X163105095Y-94302904D01*
X163152714Y-94398142D01*
X163200333Y-94445761D01*
X163295571Y-94493380D01*
X163486047Y-94493380D01*
X163581285Y-94445761D01*
X163628904Y-94398142D01*
X163676523Y-94302904D01*
X163676523Y-93493380D01*
X164105095Y-93588619D02*
X164152714Y-93541000D01*
X164247952Y-93493380D01*
X164486047Y-93493380D01*
X164581285Y-93541000D01*
X164628904Y-93588619D01*
X164676523Y-93683857D01*
X164676523Y-93779095D01*
X164628904Y-93921952D01*
X164057476Y-94493380D01*
X164676523Y-94493380D01*
X136268333Y-79158142D02*
X136220714Y-79205761D01*
X136077857Y-79253380D01*
X135982619Y-79253380D01*
X135839761Y-79205761D01*
X135744523Y-79110523D01*
X135696904Y-79015285D01*
X135649285Y-78824809D01*
X135649285Y-78681952D01*
X135696904Y-78491476D01*
X135744523Y-78396238D01*
X135839761Y-78301000D01*
X135982619Y-78253380D01*
X136077857Y-78253380D01*
X136220714Y-78301000D01*
X136268333Y-78348619D01*
X136601666Y-78253380D02*
X137268333Y-78253380D01*
X136839761Y-79253380D01*
X163105095Y-149373380D02*
X163105095Y-150182904D01*
X163152714Y-150278142D01*
X163200333Y-150325761D01*
X163295571Y-150373380D01*
X163486047Y-150373380D01*
X163581285Y-150325761D01*
X163628904Y-150278142D01*
X163676523Y-150182904D01*
X163676523Y-149373380D01*
X164105095Y-149468619D02*
X164152714Y-149421000D01*
X164247952Y-149373380D01*
X164486047Y-149373380D01*
X164581285Y-149421000D01*
X164628904Y-149468619D01*
X164676523Y-149563857D01*
X164676523Y-149659095D01*
X164628904Y-149801952D01*
X164057476Y-150373380D01*
X164676523Y-150373380D01*
X162898666Y-141880380D02*
X162898666Y-142594666D01*
X162851047Y-142737523D01*
X162755809Y-142832761D01*
X162612952Y-142880380D01*
X162517714Y-142880380D01*
X163327238Y-141975619D02*
X163374857Y-141928000D01*
X163470095Y-141880380D01*
X163708190Y-141880380D01*
X163803428Y-141928000D01*
X163851047Y-141975619D01*
X163898666Y-142070857D01*
X163898666Y-142166095D01*
X163851047Y-142308952D01*
X163279619Y-142880380D01*
X163898666Y-142880380D01*
X139062333Y-163073380D02*
X138729000Y-162597190D01*
X138490904Y-163073380D02*
X138490904Y-162073380D01*
X138871857Y-162073380D01*
X138967095Y-162121000D01*
X139014714Y-162168619D01*
X139062333Y-162263857D01*
X139062333Y-162406714D01*
X139014714Y-162501952D01*
X138967095Y-162549571D01*
X138871857Y-162597190D01*
X138490904Y-162597190D01*
X139967095Y-162073380D02*
X139490904Y-162073380D01*
X139443285Y-162549571D01*
X139490904Y-162501952D01*
X139586142Y-162454333D01*
X139824238Y-162454333D01*
X139919476Y-162501952D01*
X139967095Y-162549571D01*
X140014714Y-162644809D01*
X140014714Y-162882904D01*
X139967095Y-162978142D01*
X139919476Y-163025761D01*
X139824238Y-163073380D01*
X139586142Y-163073380D01*
X139490904Y-163025761D01*
X139443285Y-162978142D01*
X141983333Y-120052142D02*
X141935714Y-120099761D01*
X141792857Y-120147380D01*
X141697619Y-120147380D01*
X141554761Y-120099761D01*
X141459523Y-120004523D01*
X141411904Y-119909285D01*
X141364285Y-119718809D01*
X141364285Y-119575952D01*
X141411904Y-119385476D01*
X141459523Y-119290238D01*
X141554761Y-119195000D01*
X141697619Y-119147380D01*
X141792857Y-119147380D01*
X141935714Y-119195000D01*
X141983333Y-119242619D01*
X142935714Y-120147380D02*
X142364285Y-120147380D01*
X142650000Y-120147380D02*
X142650000Y-119147380D01*
X142554761Y-119290238D01*
X142459523Y-119385476D01*
X142364285Y-119433095D01*
X141983333Y-147992142D02*
X141935714Y-148039761D01*
X141792857Y-148087380D01*
X141697619Y-148087380D01*
X141554761Y-148039761D01*
X141459523Y-147944523D01*
X141411904Y-147849285D01*
X141364285Y-147658809D01*
X141364285Y-147515952D01*
X141411904Y-147325476D01*
X141459523Y-147230238D01*
X141554761Y-147135000D01*
X141697619Y-147087380D01*
X141792857Y-147087380D01*
X141935714Y-147135000D01*
X141983333Y-147182619D01*
X142935714Y-148087380D02*
X142364285Y-148087380D01*
X142650000Y-148087380D02*
X142650000Y-147087380D01*
X142554761Y-147230238D01*
X142459523Y-147325476D01*
X142364285Y-147373095D01*
X141983333Y-36232142D02*
X141935714Y-36279761D01*
X141792857Y-36327380D01*
X141697619Y-36327380D01*
X141554761Y-36279761D01*
X141459523Y-36184523D01*
X141411904Y-36089285D01*
X141364285Y-35898809D01*
X141364285Y-35755952D01*
X141411904Y-35565476D01*
X141459523Y-35470238D01*
X141554761Y-35375000D01*
X141697619Y-35327380D01*
X141792857Y-35327380D01*
X141935714Y-35375000D01*
X141983333Y-35422619D01*
X142935714Y-36327380D02*
X142364285Y-36327380D01*
X142650000Y-36327380D02*
X142650000Y-35327380D01*
X142554761Y-35470238D01*
X142459523Y-35565476D01*
X142364285Y-35613095D01*
X133791904Y-94620380D02*
X133791904Y-93620380D01*
X134030000Y-93620380D01*
X134172857Y-93668000D01*
X134268095Y-93763238D01*
X134315714Y-93858476D01*
X134363333Y-94048952D01*
X134363333Y-94191809D01*
X134315714Y-94382285D01*
X134268095Y-94477523D01*
X134172857Y-94572761D01*
X134030000Y-94620380D01*
X133791904Y-94620380D01*
X135315714Y-94620380D02*
X134744285Y-94620380D01*
X135030000Y-94620380D02*
X135030000Y-93620380D01*
X134934761Y-93763238D01*
X134839523Y-93858476D01*
X134744285Y-93906095D01*
X157858333Y-64934142D02*
X157810714Y-64981761D01*
X157667857Y-65029380D01*
X157572619Y-65029380D01*
X157429761Y-64981761D01*
X157334523Y-64886523D01*
X157286904Y-64791285D01*
X157239285Y-64600809D01*
X157239285Y-64457952D01*
X157286904Y-64267476D01*
X157334523Y-64172238D01*
X157429761Y-64077000D01*
X157572619Y-64029380D01*
X157667857Y-64029380D01*
X157810714Y-64077000D01*
X157858333Y-64124619D01*
X158429761Y-64457952D02*
X158334523Y-64410333D01*
X158286904Y-64362714D01*
X158239285Y-64267476D01*
X158239285Y-64219857D01*
X158286904Y-64124619D01*
X158334523Y-64077000D01*
X158429761Y-64029380D01*
X158620238Y-64029380D01*
X158715476Y-64077000D01*
X158763095Y-64124619D01*
X158810714Y-64219857D01*
X158810714Y-64267476D01*
X158763095Y-64362714D01*
X158715476Y-64410333D01*
X158620238Y-64457952D01*
X158429761Y-64457952D01*
X158334523Y-64505571D01*
X158286904Y-64553190D01*
X158239285Y-64648428D01*
X158239285Y-64838904D01*
X158286904Y-64934142D01*
X158334523Y-64981761D01*
X158429761Y-65029380D01*
X158620238Y-65029380D01*
X158715476Y-64981761D01*
X158763095Y-64934142D01*
X158810714Y-64838904D01*
X158810714Y-64648428D01*
X158763095Y-64553190D01*
X158715476Y-64505571D01*
X158620238Y-64457952D01*
X139062333Y-107193380D02*
X138729000Y-106717190D01*
X138490904Y-107193380D02*
X138490904Y-106193380D01*
X138871857Y-106193380D01*
X138967095Y-106241000D01*
X139014714Y-106288619D01*
X139062333Y-106383857D01*
X139062333Y-106526714D01*
X139014714Y-106621952D01*
X138967095Y-106669571D01*
X138871857Y-106717190D01*
X138490904Y-106717190D01*
X139967095Y-106193380D02*
X139490904Y-106193380D01*
X139443285Y-106669571D01*
X139490904Y-106621952D01*
X139586142Y-106574333D01*
X139824238Y-106574333D01*
X139919476Y-106621952D01*
X139967095Y-106669571D01*
X140014714Y-106764809D01*
X140014714Y-107002904D01*
X139967095Y-107098142D01*
X139919476Y-107145761D01*
X139824238Y-107193380D01*
X139586142Y-107193380D01*
X139490904Y-107145761D01*
X139443285Y-107098142D01*
X145412333Y-60838380D02*
X145079000Y-60362190D01*
X144840904Y-60838380D02*
X144840904Y-59838380D01*
X145221857Y-59838380D01*
X145317095Y-59886000D01*
X145364714Y-59933619D01*
X145412333Y-60028857D01*
X145412333Y-60171714D01*
X145364714Y-60266952D01*
X145317095Y-60314571D01*
X145221857Y-60362190D01*
X144840904Y-60362190D01*
X145745666Y-59838380D02*
X146364714Y-59838380D01*
X146031380Y-60219333D01*
X146174238Y-60219333D01*
X146269476Y-60266952D01*
X146317095Y-60314571D01*
X146364714Y-60409809D01*
X146364714Y-60647904D01*
X146317095Y-60743142D01*
X146269476Y-60790761D01*
X146174238Y-60838380D01*
X145888523Y-60838380D01*
X145793285Y-60790761D01*
X145745666Y-60743142D01*
X129537333Y-62902142D02*
X129489714Y-62949761D01*
X129346857Y-62997380D01*
X129251619Y-62997380D01*
X129108761Y-62949761D01*
X129013523Y-62854523D01*
X128965904Y-62759285D01*
X128918285Y-62568809D01*
X128918285Y-62425952D01*
X128965904Y-62235476D01*
X129013523Y-62140238D01*
X129108761Y-62045000D01*
X129251619Y-61997380D01*
X129346857Y-61997380D01*
X129489714Y-62045000D01*
X129537333Y-62092619D01*
X130394476Y-62330714D02*
X130394476Y-62997380D01*
X130156380Y-61949761D02*
X129918285Y-62664047D01*
X130537333Y-62664047D01*
X142618333Y-30505380D02*
X142285000Y-30029190D01*
X142046904Y-30505380D02*
X142046904Y-29505380D01*
X142427857Y-29505380D01*
X142523095Y-29553000D01*
X142570714Y-29600619D01*
X142618333Y-29695857D01*
X142618333Y-29838714D01*
X142570714Y-29933952D01*
X142523095Y-29981571D01*
X142427857Y-30029190D01*
X142046904Y-30029190D01*
X143475476Y-29838714D02*
X143475476Y-30505380D01*
X143237380Y-29457761D02*
X142999285Y-30172047D01*
X143618333Y-30172047D01*
X142618333Y-58445380D02*
X142285000Y-57969190D01*
X142046904Y-58445380D02*
X142046904Y-57445380D01*
X142427857Y-57445380D01*
X142523095Y-57493000D01*
X142570714Y-57540619D01*
X142618333Y-57635857D01*
X142618333Y-57778714D01*
X142570714Y-57873952D01*
X142523095Y-57921571D01*
X142427857Y-57969190D01*
X142046904Y-57969190D01*
X143475476Y-57778714D02*
X143475476Y-58445380D01*
X143237380Y-57397761D02*
X142999285Y-58112047D01*
X143618333Y-58112047D01*
X145031333Y-94874380D02*
X144698000Y-94398190D01*
X144459904Y-94874380D02*
X144459904Y-93874380D01*
X144840857Y-93874380D01*
X144936095Y-93922000D01*
X144983714Y-93969619D01*
X145031333Y-94064857D01*
X145031333Y-94207714D01*
X144983714Y-94302952D01*
X144936095Y-94350571D01*
X144840857Y-94398190D01*
X144459904Y-94398190D01*
X145412285Y-93969619D02*
X145459904Y-93922000D01*
X145555142Y-93874380D01*
X145793238Y-93874380D01*
X145888476Y-93922000D01*
X145936095Y-93969619D01*
X145983714Y-94064857D01*
X145983714Y-94160095D01*
X145936095Y-94302952D01*
X145364666Y-94874380D01*
X145983714Y-94874380D01*
X150913095Y-156608380D02*
X150913095Y-157417904D01*
X150960714Y-157513142D01*
X151008333Y-157560761D01*
X151103571Y-157608380D01*
X151294047Y-157608380D01*
X151389285Y-157560761D01*
X151436904Y-157513142D01*
X151484523Y-157417904D01*
X151484523Y-156608380D01*
X152389285Y-156941714D02*
X152389285Y-157608380D01*
X152151190Y-156560761D02*
X151913095Y-157275047D01*
X152532142Y-157275047D01*
X129878674Y-91588391D02*
X129878674Y-92302677D01*
X129831055Y-92445534D01*
X129735817Y-92540772D01*
X129592960Y-92588391D01*
X129497722Y-92588391D01*
X130878674Y-92588391D02*
X130307246Y-92588391D01*
X130592960Y-92588391D02*
X130592960Y-91588391D01*
X130497722Y-91731249D01*
X130402484Y-91826487D01*
X130307246Y-91874106D01*
X134530095Y-128926380D02*
X134530095Y-129735904D01*
X134577714Y-129831142D01*
X134625333Y-129878761D01*
X134720571Y-129926380D01*
X134911047Y-129926380D01*
X135006285Y-129878761D01*
X135053904Y-129831142D01*
X135101523Y-129735904D01*
X135101523Y-128926380D01*
X136101523Y-129926380D02*
X135530095Y-129926380D01*
X135815809Y-129926380D02*
X135815809Y-128926380D01*
X135720571Y-129069238D01*
X135625333Y-129164476D01*
X135530095Y-129212095D01*
X162898666Y-30120380D02*
X162898666Y-30834666D01*
X162851047Y-30977523D01*
X162755809Y-31072761D01*
X162612952Y-31120380D01*
X162517714Y-31120380D01*
X163327238Y-30215619D02*
X163374857Y-30168000D01*
X163470095Y-30120380D01*
X163708190Y-30120380D01*
X163803428Y-30168000D01*
X163851047Y-30215619D01*
X163898666Y-30310857D01*
X163898666Y-30406095D01*
X163851047Y-30548952D01*
X163279619Y-31120380D01*
X163898666Y-31120380D01*
X144650333Y-135038142D02*
X144602714Y-135085761D01*
X144459857Y-135133380D01*
X144364619Y-135133380D01*
X144221761Y-135085761D01*
X144126523Y-134990523D01*
X144078904Y-134895285D01*
X144031285Y-134704809D01*
X144031285Y-134561952D01*
X144078904Y-134371476D01*
X144126523Y-134276238D01*
X144221761Y-134181000D01*
X144364619Y-134133380D01*
X144459857Y-134133380D01*
X144602714Y-134181000D01*
X144650333Y-134228619D01*
X144983666Y-134133380D02*
X145602714Y-134133380D01*
X145269380Y-134514333D01*
X145412238Y-134514333D01*
X145507476Y-134561952D01*
X145555095Y-134609571D01*
X145602714Y-134704809D01*
X145602714Y-134942904D01*
X145555095Y-135038142D01*
X145507476Y-135085761D01*
X145412238Y-135133380D01*
X145126523Y-135133380D01*
X145031285Y-135085761D01*
X144983666Y-135038142D01*
X141983333Y-64172142D02*
X141935714Y-64219761D01*
X141792857Y-64267380D01*
X141697619Y-64267380D01*
X141554761Y-64219761D01*
X141459523Y-64124523D01*
X141411904Y-64029285D01*
X141364285Y-63838809D01*
X141364285Y-63695952D01*
X141411904Y-63505476D01*
X141459523Y-63410238D01*
X141554761Y-63315000D01*
X141697619Y-63267380D01*
X141792857Y-63267380D01*
X141935714Y-63315000D01*
X141983333Y-63362619D01*
X142935714Y-64267380D02*
X142364285Y-64267380D01*
X142650000Y-64267380D02*
X142650000Y-63267380D01*
X142554761Y-63410238D01*
X142459523Y-63505476D01*
X142364285Y-63553095D01*
X163105095Y-65553380D02*
X163105095Y-66362904D01*
X163152714Y-66458142D01*
X163200333Y-66505761D01*
X163295571Y-66553380D01*
X163486047Y-66553380D01*
X163581285Y-66505761D01*
X163628904Y-66458142D01*
X163676523Y-66362904D01*
X163676523Y-65553380D01*
X164105095Y-65648619D02*
X164152714Y-65601000D01*
X164247952Y-65553380D01*
X164486047Y-65553380D01*
X164581285Y-65601000D01*
X164628904Y-65648619D01*
X164676523Y-65743857D01*
X164676523Y-65839095D01*
X164628904Y-65981952D01*
X164057476Y-66553380D01*
X164676523Y-66553380D01*
X144650333Y-79158142D02*
X144602714Y-79205761D01*
X144459857Y-79253380D01*
X144364619Y-79253380D01*
X144221761Y-79205761D01*
X144126523Y-79110523D01*
X144078904Y-79015285D01*
X144031285Y-78824809D01*
X144031285Y-78681952D01*
X144078904Y-78491476D01*
X144126523Y-78396238D01*
X144221761Y-78301000D01*
X144364619Y-78253380D01*
X144459857Y-78253380D01*
X144602714Y-78301000D01*
X144650333Y-78348619D01*
X144983666Y-78253380D02*
X145602714Y-78253380D01*
X145269380Y-78634333D01*
X145412238Y-78634333D01*
X145507476Y-78681952D01*
X145555095Y-78729571D01*
X145602714Y-78824809D01*
X145602714Y-79062904D01*
X145555095Y-79158142D01*
X145507476Y-79205761D01*
X145412238Y-79253380D01*
X145126523Y-79253380D01*
X145031285Y-79205761D01*
X144983666Y-79158142D01*
X150913095Y-44848380D02*
X150913095Y-45657904D01*
X150960714Y-45753142D01*
X151008333Y-45800761D01*
X151103571Y-45848380D01*
X151294047Y-45848380D01*
X151389285Y-45800761D01*
X151436904Y-45753142D01*
X151484523Y-45657904D01*
X151484523Y-44848380D01*
X152389285Y-45181714D02*
X152389285Y-45848380D01*
X152151190Y-44800761D02*
X151913095Y-45515047D01*
X152532142Y-45515047D01*
X129878666Y-35708380D02*
X129878666Y-36422666D01*
X129831047Y-36565523D01*
X129735809Y-36660761D01*
X129592952Y-36708380D01*
X129497714Y-36708380D01*
X130878666Y-36708380D02*
X130307238Y-36708380D01*
X130592952Y-36708380D02*
X130592952Y-35708380D01*
X130497714Y-35851238D01*
X130402476Y-35946476D01*
X130307238Y-35994095D01*
X129537333Y-34962142D02*
X129489714Y-35009761D01*
X129346857Y-35057380D01*
X129251619Y-35057380D01*
X129108761Y-35009761D01*
X129013523Y-34914523D01*
X128965904Y-34819285D01*
X128918285Y-34628809D01*
X128918285Y-34485952D01*
X128965904Y-34295476D01*
X129013523Y-34200238D01*
X129108761Y-34105000D01*
X129251619Y-34057380D01*
X129346857Y-34057380D01*
X129489714Y-34105000D01*
X129537333Y-34152619D01*
X130394476Y-34390714D02*
X130394476Y-35057380D01*
X130156380Y-34009761D02*
X129918285Y-34724047D01*
X130537333Y-34724047D01*
X147317333Y-42804380D02*
X146984000Y-42328190D01*
X146745904Y-42804380D02*
X146745904Y-41804380D01*
X147126857Y-41804380D01*
X147222095Y-41852000D01*
X147269714Y-41899619D01*
X147317333Y-41994857D01*
X147317333Y-42137714D01*
X147269714Y-42232952D01*
X147222095Y-42280571D01*
X147126857Y-42328190D01*
X146745904Y-42328190D01*
X147650666Y-41804380D02*
X148317333Y-41804380D01*
X147888761Y-42804380D01*
X147317333Y-126624380D02*
X146984000Y-126148190D01*
X146745904Y-126624380D02*
X146745904Y-125624380D01*
X147126857Y-125624380D01*
X147222095Y-125672000D01*
X147269714Y-125719619D01*
X147317333Y-125814857D01*
X147317333Y-125957714D01*
X147269714Y-126052952D01*
X147222095Y-126100571D01*
X147126857Y-126148190D01*
X146745904Y-126148190D01*
X147650666Y-125624380D02*
X148317333Y-125624380D01*
X147888761Y-126624380D01*
X139062333Y-79253380D02*
X138729000Y-78777190D01*
X138490904Y-79253380D02*
X138490904Y-78253380D01*
X138871857Y-78253380D01*
X138967095Y-78301000D01*
X139014714Y-78348619D01*
X139062333Y-78443857D01*
X139062333Y-78586714D01*
X139014714Y-78681952D01*
X138967095Y-78729571D01*
X138871857Y-78777190D01*
X138490904Y-78777190D01*
X139967095Y-78253380D02*
X139490904Y-78253380D01*
X139443285Y-78729571D01*
X139490904Y-78681952D01*
X139586142Y-78634333D01*
X139824238Y-78634333D01*
X139919476Y-78681952D01*
X139967095Y-78729571D01*
X140014714Y-78824809D01*
X140014714Y-79062904D01*
X139967095Y-79158142D01*
X139919476Y-79205761D01*
X139824238Y-79253380D01*
X139586142Y-79253380D01*
X139490904Y-79205761D01*
X139443285Y-79158142D01*
X134530095Y-73046380D02*
X134530095Y-73855904D01*
X134577714Y-73951142D01*
X134625333Y-73998761D01*
X134720571Y-74046380D01*
X134911047Y-74046380D01*
X135006285Y-73998761D01*
X135053904Y-73951142D01*
X135101523Y-73855904D01*
X135101523Y-73046380D01*
X136101523Y-74046380D02*
X135530095Y-74046380D01*
X135815809Y-74046380D02*
X135815809Y-73046380D01*
X135720571Y-73189238D01*
X135625333Y-73284476D01*
X135530095Y-73332095D01*
X139853333Y-142170142D02*
X139805714Y-142217761D01*
X139662857Y-142265380D01*
X139567619Y-142265380D01*
X139424761Y-142217761D01*
X139329523Y-142122523D01*
X139281904Y-142027285D01*
X139234285Y-141836809D01*
X139234285Y-141693952D01*
X139281904Y-141503476D01*
X139329523Y-141408238D01*
X139424761Y-141313000D01*
X139567619Y-141265380D01*
X139662857Y-141265380D01*
X139805714Y-141313000D01*
X139853333Y-141360619D01*
X140758095Y-141265380D02*
X140281904Y-141265380D01*
X140234285Y-141741571D01*
X140281904Y-141693952D01*
X140377142Y-141646333D01*
X140615238Y-141646333D01*
X140710476Y-141693952D01*
X140758095Y-141741571D01*
X140805714Y-141836809D01*
X140805714Y-142074904D01*
X140758095Y-142170142D01*
X140710476Y-142217761D01*
X140615238Y-142265380D01*
X140377142Y-142265380D01*
X140281904Y-142217761D01*
X140234285Y-142170142D01*
X137030333Y-58350142D02*
X136982714Y-58397761D01*
X136839857Y-58445380D01*
X136744619Y-58445380D01*
X136601761Y-58397761D01*
X136506523Y-58302523D01*
X136458904Y-58207285D01*
X136411285Y-58016809D01*
X136411285Y-57873952D01*
X136458904Y-57683476D01*
X136506523Y-57588238D01*
X136601761Y-57493000D01*
X136744619Y-57445380D01*
X136839857Y-57445380D01*
X136982714Y-57493000D01*
X137030333Y-57540619D01*
X137887476Y-57445380D02*
X137697000Y-57445380D01*
X137601761Y-57493000D01*
X137554142Y-57540619D01*
X137458904Y-57683476D01*
X137411285Y-57873952D01*
X137411285Y-58254904D01*
X137458904Y-58350142D01*
X137506523Y-58397761D01*
X137601761Y-58445380D01*
X137792238Y-58445380D01*
X137887476Y-58397761D01*
X137935095Y-58350142D01*
X137982714Y-58254904D01*
X137982714Y-58016809D01*
X137935095Y-57921571D01*
X137887476Y-57873952D01*
X137792238Y-57826333D01*
X137601761Y-57826333D01*
X137506523Y-57873952D01*
X137458904Y-57921571D01*
X137411285Y-58016809D01*
X133791904Y-122560380D02*
X133791904Y-121560380D01*
X134030000Y-121560380D01*
X134172857Y-121608000D01*
X134268095Y-121703238D01*
X134315714Y-121798476D01*
X134363333Y-121988952D01*
X134363333Y-122131809D01*
X134315714Y-122322285D01*
X134268095Y-122417523D01*
X134172857Y-122512761D01*
X134030000Y-122560380D01*
X133791904Y-122560380D01*
X135315714Y-122560380D02*
X134744285Y-122560380D01*
X135030000Y-122560380D02*
X135030000Y-121560380D01*
X134934761Y-121703238D01*
X134839523Y-121798476D01*
X134744285Y-121846095D01*
X156969333Y-32390380D02*
X156636000Y-31914190D01*
X156397904Y-32390380D02*
X156397904Y-31390380D01*
X156778857Y-31390380D01*
X156874095Y-31438000D01*
X156921714Y-31485619D01*
X156969333Y-31580857D01*
X156969333Y-31723714D01*
X156921714Y-31818952D01*
X156874095Y-31866571D01*
X156778857Y-31914190D01*
X156397904Y-31914190D01*
X157826476Y-31390380D02*
X157636000Y-31390380D01*
X157540761Y-31438000D01*
X157493142Y-31485619D01*
X157397904Y-31628476D01*
X157350285Y-31818952D01*
X157350285Y-32199904D01*
X157397904Y-32295142D01*
X157445523Y-32342761D01*
X157540761Y-32390380D01*
X157731238Y-32390380D01*
X157826476Y-32342761D01*
X157874095Y-32295142D01*
X157921714Y-32199904D01*
X157921714Y-31961809D01*
X157874095Y-31866571D01*
X157826476Y-31818952D01*
X157731238Y-31771333D01*
X157540761Y-31771333D01*
X157445523Y-31818952D01*
X157397904Y-31866571D01*
X157350285Y-31961809D01*
X150913095Y-128668380D02*
X150913095Y-129477904D01*
X150960714Y-129573142D01*
X151008333Y-129620761D01*
X151103571Y-129668380D01*
X151294047Y-129668380D01*
X151389285Y-129620761D01*
X151436904Y-129573142D01*
X151484523Y-129477904D01*
X151484523Y-128668380D01*
X152389285Y-129001714D02*
X152389285Y-129668380D01*
X152151190Y-128620761D02*
X151913095Y-129335047D01*
X152532142Y-129335047D01*
X129878674Y-63648391D02*
X129878674Y-64362677D01*
X129831055Y-64505534D01*
X129735817Y-64600772D01*
X129592960Y-64648391D01*
X129497722Y-64648391D01*
X130878674Y-64648391D02*
X130307246Y-64648391D01*
X130592960Y-64648391D02*
X130592960Y-63648391D01*
X130497722Y-63791249D01*
X130402484Y-63886487D01*
X130307246Y-63934106D01*
X142618333Y-142265380D02*
X142285000Y-141789190D01*
X142046904Y-142265380D02*
X142046904Y-141265380D01*
X142427857Y-141265380D01*
X142523095Y-141313000D01*
X142570714Y-141360619D01*
X142618333Y-141455857D01*
X142618333Y-141598714D01*
X142570714Y-141693952D01*
X142523095Y-141741571D01*
X142427857Y-141789190D01*
X142046904Y-141789190D01*
X143475476Y-141598714D02*
X143475476Y-142265380D01*
X143237380Y-141217761D02*
X142999285Y-141932047D01*
X143618333Y-141932047D01*
X141983333Y-51313380D02*
X141650000Y-50837190D01*
X141411904Y-51313380D02*
X141411904Y-50313380D01*
X141792857Y-50313380D01*
X141888095Y-50361000D01*
X141935714Y-50408619D01*
X141983333Y-50503857D01*
X141983333Y-50646714D01*
X141935714Y-50741952D01*
X141888095Y-50789571D01*
X141792857Y-50837190D01*
X141411904Y-50837190D01*
X142935714Y-51313380D02*
X142364285Y-51313380D01*
X142650000Y-51313380D02*
X142650000Y-50313380D01*
X142554761Y-50456238D01*
X142459523Y-50551476D01*
X142364285Y-50599095D01*
X145412333Y-116718380D02*
X145079000Y-116242190D01*
X144840904Y-116718380D02*
X144840904Y-115718380D01*
X145221857Y-115718380D01*
X145317095Y-115766000D01*
X145364714Y-115813619D01*
X145412333Y-115908857D01*
X145412333Y-116051714D01*
X145364714Y-116146952D01*
X145317095Y-116194571D01*
X145221857Y-116242190D01*
X144840904Y-116242190D01*
X145745666Y-115718380D02*
X146364714Y-115718380D01*
X146031380Y-116099333D01*
X146174238Y-116099333D01*
X146269476Y-116146952D01*
X146317095Y-116194571D01*
X146364714Y-116289809D01*
X146364714Y-116527904D01*
X146317095Y-116623142D01*
X146269476Y-116670761D01*
X146174238Y-116718380D01*
X145888523Y-116718380D01*
X145793285Y-116670761D01*
X145745666Y-116623142D01*
X137030333Y-30410142D02*
X136982714Y-30457761D01*
X136839857Y-30505380D01*
X136744619Y-30505380D01*
X136601761Y-30457761D01*
X136506523Y-30362523D01*
X136458904Y-30267285D01*
X136411285Y-30076809D01*
X136411285Y-29933952D01*
X136458904Y-29743476D01*
X136506523Y-29648238D01*
X136601761Y-29553000D01*
X136744619Y-29505380D01*
X136839857Y-29505380D01*
X136982714Y-29553000D01*
X137030333Y-29600619D01*
X137887476Y-29505380D02*
X137697000Y-29505380D01*
X137601761Y-29553000D01*
X137554142Y-29600619D01*
X137458904Y-29743476D01*
X137411285Y-29933952D01*
X137411285Y-30314904D01*
X137458904Y-30410142D01*
X137506523Y-30457761D01*
X137601761Y-30505380D01*
X137792238Y-30505380D01*
X137887476Y-30457761D01*
X137935095Y-30410142D01*
X137982714Y-30314904D01*
X137982714Y-30076809D01*
X137935095Y-29981571D01*
X137887476Y-29933952D01*
X137792238Y-29886333D01*
X137601761Y-29886333D01*
X137506523Y-29933952D01*
X137458904Y-29981571D01*
X137411285Y-30076809D01*
X157858333Y-92874142D02*
X157810714Y-92921761D01*
X157667857Y-92969380D01*
X157572619Y-92969380D01*
X157429761Y-92921761D01*
X157334523Y-92826523D01*
X157286904Y-92731285D01*
X157239285Y-92540809D01*
X157239285Y-92397952D01*
X157286904Y-92207476D01*
X157334523Y-92112238D01*
X157429761Y-92017000D01*
X157572619Y-91969380D01*
X157667857Y-91969380D01*
X157810714Y-92017000D01*
X157858333Y-92064619D01*
X158429761Y-92397952D02*
X158334523Y-92350333D01*
X158286904Y-92302714D01*
X158239285Y-92207476D01*
X158239285Y-92159857D01*
X158286904Y-92064619D01*
X158334523Y-92017000D01*
X158429761Y-91969380D01*
X158620238Y-91969380D01*
X158715476Y-92017000D01*
X158763095Y-92064619D01*
X158810714Y-92159857D01*
X158810714Y-92207476D01*
X158763095Y-92302714D01*
X158715476Y-92350333D01*
X158620238Y-92397952D01*
X158429761Y-92397952D01*
X158334523Y-92445571D01*
X158286904Y-92493190D01*
X158239285Y-92588428D01*
X158239285Y-92778904D01*
X158286904Y-92874142D01*
X158334523Y-92921761D01*
X158429761Y-92969380D01*
X158620238Y-92969380D01*
X158715476Y-92921761D01*
X158763095Y-92874142D01*
X158810714Y-92778904D01*
X158810714Y-92588428D01*
X158763095Y-92493190D01*
X158715476Y-92445571D01*
X158620238Y-92397952D01*
X139062333Y-51313380D02*
X138729000Y-50837190D01*
X138490904Y-51313380D02*
X138490904Y-50313380D01*
X138871857Y-50313380D01*
X138967095Y-50361000D01*
X139014714Y-50408619D01*
X139062333Y-50503857D01*
X139062333Y-50646714D01*
X139014714Y-50741952D01*
X138967095Y-50789571D01*
X138871857Y-50837190D01*
X138490904Y-50837190D01*
X139967095Y-50313380D02*
X139490904Y-50313380D01*
X139443285Y-50789571D01*
X139490904Y-50741952D01*
X139586142Y-50694333D01*
X139824238Y-50694333D01*
X139919476Y-50741952D01*
X139967095Y-50789571D01*
X140014714Y-50884809D01*
X140014714Y-51122904D01*
X139967095Y-51218142D01*
X139919476Y-51265761D01*
X139824238Y-51313380D01*
X139586142Y-51313380D01*
X139490904Y-51265761D01*
X139443285Y-51218142D01*
X136268333Y-51218142D02*
X136220714Y-51265761D01*
X136077857Y-51313380D01*
X135982619Y-51313380D01*
X135839761Y-51265761D01*
X135744523Y-51170523D01*
X135696904Y-51075285D01*
X135649285Y-50884809D01*
X135649285Y-50741952D01*
X135696904Y-50551476D01*
X135744523Y-50456238D01*
X135839761Y-50361000D01*
X135982619Y-50313380D01*
X136077857Y-50313380D01*
X136220714Y-50361000D01*
X136268333Y-50408619D01*
X136601666Y-50313380D02*
X137268333Y-50313380D01*
X136839761Y-51313380D01*
X141983333Y-163073380D02*
X141650000Y-162597190D01*
X141411904Y-163073380D02*
X141411904Y-162073380D01*
X141792857Y-162073380D01*
X141888095Y-162121000D01*
X141935714Y-162168619D01*
X141983333Y-162263857D01*
X141983333Y-162406714D01*
X141935714Y-162501952D01*
X141888095Y-162549571D01*
X141792857Y-162597190D01*
X141411904Y-162597190D01*
X142935714Y-163073380D02*
X142364285Y-163073380D01*
X142650000Y-163073380D02*
X142650000Y-162073380D01*
X142554761Y-162216238D01*
X142459523Y-162311476D01*
X142364285Y-162359095D01*
X136268333Y-107098142D02*
X136220714Y-107145761D01*
X136077857Y-107193380D01*
X135982619Y-107193380D01*
X135839761Y-107145761D01*
X135744523Y-107050523D01*
X135696904Y-106955285D01*
X135649285Y-106764809D01*
X135649285Y-106621952D01*
X135696904Y-106431476D01*
X135744523Y-106336238D01*
X135839761Y-106241000D01*
X135982619Y-106193380D01*
X136077857Y-106193380D01*
X136220714Y-106241000D01*
X136268333Y-106288619D01*
X136601666Y-106193380D02*
X137268333Y-106193380D01*
X136839761Y-107193380D01*
X134530095Y-156866380D02*
X134530095Y-157675904D01*
X134577714Y-157771142D01*
X134625333Y-157818761D01*
X134720571Y-157866380D01*
X134911047Y-157866380D01*
X135006285Y-157818761D01*
X135053904Y-157771142D01*
X135101523Y-157675904D01*
X135101523Y-156866380D01*
X136101523Y-157866380D02*
X135530095Y-157866380D01*
X135815809Y-157866380D02*
X135815809Y-156866380D01*
X135720571Y-157009238D01*
X135625333Y-157104476D01*
X135530095Y-157152095D01*
X144650333Y-51218142D02*
X144602714Y-51265761D01*
X144459857Y-51313380D01*
X144364619Y-51313380D01*
X144221761Y-51265761D01*
X144126523Y-51170523D01*
X144078904Y-51075285D01*
X144031285Y-50884809D01*
X144031285Y-50741952D01*
X144078904Y-50551476D01*
X144126523Y-50456238D01*
X144221761Y-50361000D01*
X144364619Y-50313380D01*
X144459857Y-50313380D01*
X144602714Y-50361000D01*
X144650333Y-50408619D01*
X144983666Y-50313380D02*
X145602714Y-50313380D01*
X145269380Y-50694333D01*
X145412238Y-50694333D01*
X145507476Y-50741952D01*
X145555095Y-50789571D01*
X145602714Y-50884809D01*
X145602714Y-51122904D01*
X145555095Y-51218142D01*
X145507476Y-51265761D01*
X145412238Y-51313380D01*
X145126523Y-51313380D01*
X145031285Y-51265761D01*
X144983666Y-51218142D01*
X137030333Y-114230142D02*
X136982714Y-114277761D01*
X136839857Y-114325380D01*
X136744619Y-114325380D01*
X136601761Y-114277761D01*
X136506523Y-114182523D01*
X136458904Y-114087285D01*
X136411285Y-113896809D01*
X136411285Y-113753952D01*
X136458904Y-113563476D01*
X136506523Y-113468238D01*
X136601761Y-113373000D01*
X136744619Y-113325380D01*
X136839857Y-113325380D01*
X136982714Y-113373000D01*
X137030333Y-113420619D01*
X137887476Y-113325380D02*
X137697000Y-113325380D01*
X137601761Y-113373000D01*
X137554142Y-113420619D01*
X137458904Y-113563476D01*
X137411285Y-113753952D01*
X137411285Y-114134904D01*
X137458904Y-114230142D01*
X137506523Y-114277761D01*
X137601761Y-114325380D01*
X137792238Y-114325380D01*
X137887476Y-114277761D01*
X137935095Y-114230142D01*
X137982714Y-114134904D01*
X137982714Y-113896809D01*
X137935095Y-113801571D01*
X137887476Y-113753952D01*
X137792238Y-113706333D01*
X137601761Y-113706333D01*
X137506523Y-113753952D01*
X137458904Y-113801571D01*
X137411285Y-113896809D01*
X141983333Y-135133380D02*
X141650000Y-134657190D01*
X141411904Y-135133380D02*
X141411904Y-134133380D01*
X141792857Y-134133380D01*
X141888095Y-134181000D01*
X141935714Y-134228619D01*
X141983333Y-134323857D01*
X141983333Y-134466714D01*
X141935714Y-134561952D01*
X141888095Y-134609571D01*
X141792857Y-134657190D01*
X141411904Y-134657190D01*
X142935714Y-135133380D02*
X142364285Y-135133380D01*
X142650000Y-135133380D02*
X142650000Y-134133380D01*
X142554761Y-134276238D01*
X142459523Y-134371476D01*
X142364285Y-134419095D01*
X132498095Y-84603380D02*
X132498095Y-85412904D01*
X132545714Y-85508142D01*
X132593333Y-85555761D01*
X132688571Y-85603380D01*
X132879047Y-85603380D01*
X132974285Y-85555761D01*
X133021904Y-85508142D01*
X133069523Y-85412904D01*
X133069523Y-84603380D01*
X133450476Y-84603380D02*
X134069523Y-84603380D01*
X133736190Y-84984333D01*
X133879047Y-84984333D01*
X133974285Y-85031952D01*
X134021904Y-85079571D01*
X134069523Y-85174809D01*
X134069523Y-85412904D01*
X134021904Y-85508142D01*
X133974285Y-85555761D01*
X133879047Y-85603380D01*
X133593333Y-85603380D01*
X133498095Y-85555761D01*
X133450476Y-85508142D01*
X141983333Y-107193380D02*
X141650000Y-106717190D01*
X141411904Y-107193380D02*
X141411904Y-106193380D01*
X141792857Y-106193380D01*
X141888095Y-106241000D01*
X141935714Y-106288619D01*
X141983333Y-106383857D01*
X141983333Y-106526714D01*
X141935714Y-106621952D01*
X141888095Y-106669571D01*
X141792857Y-106717190D01*
X141411904Y-106717190D01*
X142935714Y-107193380D02*
X142364285Y-107193380D01*
X142650000Y-107193380D02*
X142650000Y-106193380D01*
X142554761Y-106336238D01*
X142459523Y-106431476D01*
X142364285Y-106479095D01*
X129878674Y-147468391D02*
X129878674Y-148182677D01*
X129831055Y-148325534D01*
X129735817Y-148420772D01*
X129592960Y-148468391D01*
X129497722Y-148468391D01*
X130878674Y-148468391D02*
X130307246Y-148468391D01*
X130592960Y-148468391D02*
X130592960Y-147468391D01*
X130497722Y-147611249D01*
X130402484Y-147706487D01*
X130307246Y-147754106D01*
X133474333Y-162978142D02*
X133426714Y-163025761D01*
X133283857Y-163073380D01*
X133188619Y-163073380D01*
X133045761Y-163025761D01*
X132950523Y-162930523D01*
X132902904Y-162835285D01*
X132855285Y-162644809D01*
X132855285Y-162501952D01*
X132902904Y-162311476D01*
X132950523Y-162216238D01*
X133045761Y-162121000D01*
X133188619Y-162073380D01*
X133283857Y-162073380D01*
X133426714Y-162121000D01*
X133474333Y-162168619D01*
X133855285Y-162168619D02*
X133902904Y-162121000D01*
X133998142Y-162073380D01*
X134236238Y-162073380D01*
X134331476Y-162121000D01*
X134379095Y-162168619D01*
X134426714Y-162263857D01*
X134426714Y-162359095D01*
X134379095Y-162501952D01*
X133807666Y-163073380D01*
X134426714Y-163073380D01*
X141983333Y-79253380D02*
X141650000Y-78777190D01*
X141411904Y-79253380D02*
X141411904Y-78253380D01*
X141792857Y-78253380D01*
X141888095Y-78301000D01*
X141935714Y-78348619D01*
X141983333Y-78443857D01*
X141983333Y-78586714D01*
X141935714Y-78681952D01*
X141888095Y-78729571D01*
X141792857Y-78777190D01*
X141411904Y-78777190D01*
X142935714Y-79253380D02*
X142364285Y-79253380D01*
X142650000Y-79253380D02*
X142650000Y-78253380D01*
X142554761Y-78396238D01*
X142459523Y-78491476D01*
X142364285Y-78539095D01*
X139853333Y-86290142D02*
X139805714Y-86337761D01*
X139662857Y-86385380D01*
X139567619Y-86385380D01*
X139424761Y-86337761D01*
X139329523Y-86242523D01*
X139281904Y-86147285D01*
X139234285Y-85956809D01*
X139234285Y-85813952D01*
X139281904Y-85623476D01*
X139329523Y-85528238D01*
X139424761Y-85433000D01*
X139567619Y-85385380D01*
X139662857Y-85385380D01*
X139805714Y-85433000D01*
X139853333Y-85480619D01*
X140758095Y-85385380D02*
X140281904Y-85385380D01*
X140234285Y-85861571D01*
X140281904Y-85813952D01*
X140377142Y-85766333D01*
X140615238Y-85766333D01*
X140710476Y-85813952D01*
X140758095Y-85861571D01*
X140805714Y-85956809D01*
X140805714Y-86194904D01*
X140758095Y-86290142D01*
X140710476Y-86337761D01*
X140615238Y-86385380D01*
X140377142Y-86385380D01*
X140281904Y-86337761D01*
X140234285Y-86290142D01*
X139853333Y-58350142D02*
X139805714Y-58397761D01*
X139662857Y-58445380D01*
X139567619Y-58445380D01*
X139424761Y-58397761D01*
X139329523Y-58302523D01*
X139281904Y-58207285D01*
X139234285Y-58016809D01*
X139234285Y-57873952D01*
X139281904Y-57683476D01*
X139329523Y-57588238D01*
X139424761Y-57493000D01*
X139567619Y-57445380D01*
X139662857Y-57445380D01*
X139805714Y-57493000D01*
X139853333Y-57540619D01*
X140758095Y-57445380D02*
X140281904Y-57445380D01*
X140234285Y-57921571D01*
X140281904Y-57873952D01*
X140377142Y-57826333D01*
X140615238Y-57826333D01*
X140710476Y-57873952D01*
X140758095Y-57921571D01*
X140805714Y-58016809D01*
X140805714Y-58254904D01*
X140758095Y-58350142D01*
X140710476Y-58397761D01*
X140615238Y-58445380D01*
X140377142Y-58445380D01*
X140281904Y-58397761D01*
X140234285Y-58350142D01*
X132498095Y-112543380D02*
X132498095Y-113352904D01*
X132545714Y-113448142D01*
X132593333Y-113495761D01*
X132688571Y-113543380D01*
X132879047Y-113543380D01*
X132974285Y-113495761D01*
X133021904Y-113448142D01*
X133069523Y-113352904D01*
X133069523Y-112543380D01*
X133450476Y-112543380D02*
X134069523Y-112543380D01*
X133736190Y-112924333D01*
X133879047Y-112924333D01*
X133974285Y-112971952D01*
X134021904Y-113019571D01*
X134069523Y-113114809D01*
X134069523Y-113352904D01*
X134021904Y-113448142D01*
X133974285Y-113495761D01*
X133879047Y-113543380D01*
X133593333Y-113543380D01*
X133498095Y-113495761D01*
X133450476Y-113448142D01*
X142618333Y-86385380D02*
X142285000Y-85909190D01*
X142046904Y-86385380D02*
X142046904Y-85385380D01*
X142427857Y-85385380D01*
X142523095Y-85433000D01*
X142570714Y-85480619D01*
X142618333Y-85575857D01*
X142618333Y-85718714D01*
X142570714Y-85813952D01*
X142523095Y-85861571D01*
X142427857Y-85909190D01*
X142046904Y-85909190D01*
X143475476Y-85718714D02*
X143475476Y-86385380D01*
X143237380Y-85337761D02*
X142999285Y-86052047D01*
X143618333Y-86052047D01*
X134530095Y-100986380D02*
X134530095Y-101795904D01*
X134577714Y-101891142D01*
X134625333Y-101938761D01*
X134720571Y-101986380D01*
X134911047Y-101986380D01*
X135006285Y-101938761D01*
X135053904Y-101891142D01*
X135101523Y-101795904D01*
X135101523Y-100986380D01*
X136101523Y-101986380D02*
X135530095Y-101986380D01*
X135815809Y-101986380D02*
X135815809Y-100986380D01*
X135720571Y-101129238D01*
X135625333Y-101224476D01*
X135530095Y-101272095D01*
X144650333Y-107098142D02*
X144602714Y-107145761D01*
X144459857Y-107193380D01*
X144364619Y-107193380D01*
X144221761Y-107145761D01*
X144126523Y-107050523D01*
X144078904Y-106955285D01*
X144031285Y-106764809D01*
X144031285Y-106621952D01*
X144078904Y-106431476D01*
X144126523Y-106336238D01*
X144221761Y-106241000D01*
X144364619Y-106193380D01*
X144459857Y-106193380D01*
X144602714Y-106241000D01*
X144650333Y-106288619D01*
X144983666Y-106193380D02*
X145602714Y-106193380D01*
X145269380Y-106574333D01*
X145412238Y-106574333D01*
X145507476Y-106621952D01*
X145555095Y-106669571D01*
X145602714Y-106764809D01*
X145602714Y-107002904D01*
X145555095Y-107098142D01*
X145507476Y-107145761D01*
X145412238Y-107193380D01*
X145126523Y-107193380D01*
X145031285Y-107145761D01*
X144983666Y-107098142D01*
X156969333Y-144150380D02*
X156636000Y-143674190D01*
X156397904Y-144150380D02*
X156397904Y-143150380D01*
X156778857Y-143150380D01*
X156874095Y-143198000D01*
X156921714Y-143245619D01*
X156969333Y-143340857D01*
X156969333Y-143483714D01*
X156921714Y-143578952D01*
X156874095Y-143626571D01*
X156778857Y-143674190D01*
X156397904Y-143674190D01*
X157826476Y-143150380D02*
X157636000Y-143150380D01*
X157540761Y-143198000D01*
X157493142Y-143245619D01*
X157397904Y-143388476D01*
X157350285Y-143578952D01*
X157350285Y-143959904D01*
X157397904Y-144055142D01*
X157445523Y-144102761D01*
X157540761Y-144150380D01*
X157731238Y-144150380D01*
X157826476Y-144102761D01*
X157874095Y-144055142D01*
X157921714Y-143959904D01*
X157921714Y-143721809D01*
X157874095Y-143626571D01*
X157826476Y-143578952D01*
X157731238Y-143531333D01*
X157540761Y-143531333D01*
X157445523Y-143578952D01*
X157397904Y-143626571D01*
X157350285Y-143721809D01*
X133474333Y-107098142D02*
X133426714Y-107145761D01*
X133283857Y-107193380D01*
X133188619Y-107193380D01*
X133045761Y-107145761D01*
X132950523Y-107050523D01*
X132902904Y-106955285D01*
X132855285Y-106764809D01*
X132855285Y-106621952D01*
X132902904Y-106431476D01*
X132950523Y-106336238D01*
X133045761Y-106241000D01*
X133188619Y-106193380D01*
X133283857Y-106193380D01*
X133426714Y-106241000D01*
X133474333Y-106288619D01*
X133855285Y-106288619D02*
X133902904Y-106241000D01*
X133998142Y-106193380D01*
X134236238Y-106193380D01*
X134331476Y-106241000D01*
X134379095Y-106288619D01*
X134426714Y-106383857D01*
X134426714Y-106479095D01*
X134379095Y-106621952D01*
X133807666Y-107193380D01*
X134426714Y-107193380D01*
X134530095Y-45106380D02*
X134530095Y-45915904D01*
X134577714Y-46011142D01*
X134625333Y-46058761D01*
X134720571Y-46106380D01*
X134911047Y-46106380D01*
X135006285Y-46058761D01*
X135053904Y-46011142D01*
X135101523Y-45915904D01*
X135101523Y-45106380D01*
X136101523Y-46106380D02*
X135530095Y-46106380D01*
X135815809Y-46106380D02*
X135815809Y-45106380D01*
X135720571Y-45249238D01*
X135625333Y-45344476D01*
X135530095Y-45392095D01*
X133474333Y-51218142D02*
X133426714Y-51265761D01*
X133283857Y-51313380D01*
X133188619Y-51313380D01*
X133045761Y-51265761D01*
X132950523Y-51170523D01*
X132902904Y-51075285D01*
X132855285Y-50884809D01*
X132855285Y-50741952D01*
X132902904Y-50551476D01*
X132950523Y-50456238D01*
X133045761Y-50361000D01*
X133188619Y-50313380D01*
X133283857Y-50313380D01*
X133426714Y-50361000D01*
X133474333Y-50408619D01*
X133855285Y-50408619D02*
X133902904Y-50361000D01*
X133998142Y-50313380D01*
X134236238Y-50313380D01*
X134331476Y-50361000D01*
X134379095Y-50408619D01*
X134426714Y-50503857D01*
X134426714Y-50599095D01*
X134379095Y-50741952D01*
X133807666Y-51313380D01*
X134426714Y-51313380D01*
X145031333Y-66934380D02*
X144698000Y-66458190D01*
X144459904Y-66934380D02*
X144459904Y-65934380D01*
X144840857Y-65934380D01*
X144936095Y-65982000D01*
X144983714Y-66029619D01*
X145031333Y-66124857D01*
X145031333Y-66267714D01*
X144983714Y-66362952D01*
X144936095Y-66410571D01*
X144840857Y-66458190D01*
X144459904Y-66458190D01*
X145412285Y-66029619D02*
X145459904Y-65982000D01*
X145555142Y-65934380D01*
X145793238Y-65934380D01*
X145888476Y-65982000D01*
X145936095Y-66029619D01*
X145983714Y-66124857D01*
X145983714Y-66220095D01*
X145936095Y-66362952D01*
X145364666Y-66934380D01*
X145983714Y-66934380D01*
X139853333Y-30410142D02*
X139805714Y-30457761D01*
X139662857Y-30505380D01*
X139567619Y-30505380D01*
X139424761Y-30457761D01*
X139329523Y-30362523D01*
X139281904Y-30267285D01*
X139234285Y-30076809D01*
X139234285Y-29933952D01*
X139281904Y-29743476D01*
X139329523Y-29648238D01*
X139424761Y-29553000D01*
X139567619Y-29505380D01*
X139662857Y-29505380D01*
X139805714Y-29553000D01*
X139853333Y-29600619D01*
X140758095Y-29505380D02*
X140281904Y-29505380D01*
X140234285Y-29981571D01*
X140281904Y-29933952D01*
X140377142Y-29886333D01*
X140615238Y-29886333D01*
X140710476Y-29933952D01*
X140758095Y-29981571D01*
X140805714Y-30076809D01*
X140805714Y-30314904D01*
X140758095Y-30410142D01*
X140710476Y-30457761D01*
X140615238Y-30505380D01*
X140377142Y-30505380D01*
X140281904Y-30457761D01*
X140234285Y-30410142D01*
X150913095Y-100728380D02*
X150913095Y-101537904D01*
X150960714Y-101633142D01*
X151008333Y-101680761D01*
X151103571Y-101728380D01*
X151294047Y-101728380D01*
X151389285Y-101680761D01*
X151436904Y-101633142D01*
X151484523Y-101537904D01*
X151484523Y-100728380D01*
X152389285Y-101061714D02*
X152389285Y-101728380D01*
X152151190Y-100680761D02*
X151913095Y-101395047D01*
X152532142Y-101395047D01*
X141983333Y-92112142D02*
X141935714Y-92159761D01*
X141792857Y-92207380D01*
X141697619Y-92207380D01*
X141554761Y-92159761D01*
X141459523Y-92064523D01*
X141411904Y-91969285D01*
X141364285Y-91778809D01*
X141364285Y-91635952D01*
X141411904Y-91445476D01*
X141459523Y-91350238D01*
X141554761Y-91255000D01*
X141697619Y-91207380D01*
X141792857Y-91207380D01*
X141935714Y-91255000D01*
X141983333Y-91302619D01*
X142935714Y-92207380D02*
X142364285Y-92207380D01*
X142650000Y-92207380D02*
X142650000Y-91207380D01*
X142554761Y-91350238D01*
X142459523Y-91445476D01*
X142364285Y-91493095D01*
X145412333Y-88778380D02*
X145079000Y-88302190D01*
X144840904Y-88778380D02*
X144840904Y-87778380D01*
X145221857Y-87778380D01*
X145317095Y-87826000D01*
X145364714Y-87873619D01*
X145412333Y-87968857D01*
X145412333Y-88111714D01*
X145364714Y-88206952D01*
X145317095Y-88254571D01*
X145221857Y-88302190D01*
X144840904Y-88302190D01*
X145745666Y-87778380D02*
X146364714Y-87778380D01*
X146031380Y-88159333D01*
X146174238Y-88159333D01*
X146269476Y-88206952D01*
X146317095Y-88254571D01*
X146364714Y-88349809D01*
X146364714Y-88587904D01*
X146317095Y-88683142D01*
X146269476Y-88730761D01*
X146174238Y-88778380D01*
X145888523Y-88778380D01*
X145793285Y-88730761D01*
X145745666Y-88683142D01*
X162898666Y-86000380D02*
X162898666Y-86714666D01*
X162851047Y-86857523D01*
X162755809Y-86952761D01*
X162612952Y-87000380D01*
X162517714Y-87000380D01*
X163327238Y-86095619D02*
X163374857Y-86048000D01*
X163470095Y-86000380D01*
X163708190Y-86000380D01*
X163803428Y-86048000D01*
X163851047Y-86095619D01*
X163898666Y-86190857D01*
X163898666Y-86286095D01*
X163851047Y-86428952D01*
X163279619Y-87000380D01*
X163898666Y-87000380D01*
X132498095Y-140483380D02*
X132498095Y-141292904D01*
X132545714Y-141388142D01*
X132593333Y-141435761D01*
X132688571Y-141483380D01*
X132879047Y-141483380D01*
X132974285Y-141435761D01*
X133021904Y-141388142D01*
X133069523Y-141292904D01*
X133069523Y-140483380D01*
X133450476Y-140483380D02*
X134069523Y-140483380D01*
X133736190Y-140864333D01*
X133879047Y-140864333D01*
X133974285Y-140911952D01*
X134021904Y-140959571D01*
X134069523Y-141054809D01*
X134069523Y-141292904D01*
X134021904Y-141388142D01*
X133974285Y-141435761D01*
X133879047Y-141483380D01*
X133593333Y-141483380D01*
X133498095Y-141435761D01*
X133450476Y-141388142D01*
X156969333Y-116210380D02*
X156636000Y-115734190D01*
X156397904Y-116210380D02*
X156397904Y-115210380D01*
X156778857Y-115210380D01*
X156874095Y-115258000D01*
X156921714Y-115305619D01*
X156969333Y-115400857D01*
X156969333Y-115543714D01*
X156921714Y-115638952D01*
X156874095Y-115686571D01*
X156778857Y-115734190D01*
X156397904Y-115734190D01*
X157826476Y-115210380D02*
X157636000Y-115210380D01*
X157540761Y-115258000D01*
X157493142Y-115305619D01*
X157397904Y-115448476D01*
X157350285Y-115638952D01*
X157350285Y-116019904D01*
X157397904Y-116115142D01*
X157445523Y-116162761D01*
X157540761Y-116210380D01*
X157731238Y-116210380D01*
X157826476Y-116162761D01*
X157874095Y-116115142D01*
X157921714Y-116019904D01*
X157921714Y-115781809D01*
X157874095Y-115686571D01*
X157826476Y-115638952D01*
X157731238Y-115591333D01*
X157540761Y-115591333D01*
X157445523Y-115638952D01*
X157397904Y-115686571D01*
X157350285Y-115781809D01*
X162898666Y-113940380D02*
X162898666Y-114654666D01*
X162851047Y-114797523D01*
X162755809Y-114892761D01*
X162612952Y-114940380D01*
X162517714Y-114940380D01*
X163327238Y-114035619D02*
X163374857Y-113988000D01*
X163470095Y-113940380D01*
X163708190Y-113940380D01*
X163803428Y-113988000D01*
X163851047Y-114035619D01*
X163898666Y-114130857D01*
X163898666Y-114226095D01*
X163851047Y-114368952D01*
X163279619Y-114940380D01*
X163898666Y-114940380D01*
X147317333Y-154564380D02*
X146984000Y-154088190D01*
X146745904Y-154564380D02*
X146745904Y-153564380D01*
X147126857Y-153564380D01*
X147222095Y-153612000D01*
X147269714Y-153659619D01*
X147317333Y-153754857D01*
X147317333Y-153897714D01*
X147269714Y-153992952D01*
X147222095Y-154040571D01*
X147126857Y-154088190D01*
X146745904Y-154088190D01*
X147650666Y-153564380D02*
X148317333Y-153564380D01*
X147888761Y-154564380D01*
X147317333Y-70744380D02*
X146984000Y-70268190D01*
X146745904Y-70744380D02*
X146745904Y-69744380D01*
X147126857Y-69744380D01*
X147222095Y-69792000D01*
X147269714Y-69839619D01*
X147317333Y-69934857D01*
X147317333Y-70077714D01*
X147269714Y-70172952D01*
X147222095Y-70220571D01*
X147126857Y-70268190D01*
X146745904Y-70268190D01*
X147650666Y-69744380D02*
X148317333Y-69744380D01*
X147888761Y-70744380D01*
X129878674Y-119528391D02*
X129878674Y-120242677D01*
X129831055Y-120385534D01*
X129735817Y-120480772D01*
X129592960Y-120528391D01*
X129497722Y-120528391D01*
X130878674Y-120528391D02*
X130307246Y-120528391D01*
X130592960Y-120528391D02*
X130592960Y-119528391D01*
X130497722Y-119671249D01*
X130402484Y-119766487D01*
X130307246Y-119814106D01*
X144650333Y-162978142D02*
X144602714Y-163025761D01*
X144459857Y-163073380D01*
X144364619Y-163073380D01*
X144221761Y-163025761D01*
X144126523Y-162930523D01*
X144078904Y-162835285D01*
X144031285Y-162644809D01*
X144031285Y-162501952D01*
X144078904Y-162311476D01*
X144126523Y-162216238D01*
X144221761Y-162121000D01*
X144364619Y-162073380D01*
X144459857Y-162073380D01*
X144602714Y-162121000D01*
X144650333Y-162168619D01*
X144983666Y-162073380D02*
X145602714Y-162073380D01*
X145269380Y-162454333D01*
X145412238Y-162454333D01*
X145507476Y-162501952D01*
X145555095Y-162549571D01*
X145602714Y-162644809D01*
X145602714Y-162882904D01*
X145555095Y-162978142D01*
X145507476Y-163025761D01*
X145412238Y-163073380D01*
X145126523Y-163073380D01*
X145031285Y-163025761D01*
X144983666Y-162978142D01*
X133474333Y-135038142D02*
X133426714Y-135085761D01*
X133283857Y-135133380D01*
X133188619Y-135133380D01*
X133045761Y-135085761D01*
X132950523Y-134990523D01*
X132902904Y-134895285D01*
X132855285Y-134704809D01*
X132855285Y-134561952D01*
X132902904Y-134371476D01*
X132950523Y-134276238D01*
X133045761Y-134181000D01*
X133188619Y-134133380D01*
X133283857Y-134133380D01*
X133426714Y-134181000D01*
X133474333Y-134228619D01*
X133855285Y-134228619D02*
X133902904Y-134181000D01*
X133998142Y-134133380D01*
X134236238Y-134133380D01*
X134331476Y-134181000D01*
X134379095Y-134228619D01*
X134426714Y-134323857D01*
X134426714Y-134419095D01*
X134379095Y-134561952D01*
X133807666Y-135133380D01*
X134426714Y-135133380D01*
X137030333Y-142170142D02*
X136982714Y-142217761D01*
X136839857Y-142265380D01*
X136744619Y-142265380D01*
X136601761Y-142217761D01*
X136506523Y-142122523D01*
X136458904Y-142027285D01*
X136411285Y-141836809D01*
X136411285Y-141693952D01*
X136458904Y-141503476D01*
X136506523Y-141408238D01*
X136601761Y-141313000D01*
X136744619Y-141265380D01*
X136839857Y-141265380D01*
X136982714Y-141313000D01*
X137030333Y-141360619D01*
X137887476Y-141265380D02*
X137697000Y-141265380D01*
X137601761Y-141313000D01*
X137554142Y-141360619D01*
X137458904Y-141503476D01*
X137411285Y-141693952D01*
X137411285Y-142074904D01*
X137458904Y-142170142D01*
X137506523Y-142217761D01*
X137601761Y-142265380D01*
X137792238Y-142265380D01*
X137887476Y-142217761D01*
X137935095Y-142170142D01*
X137982714Y-142074904D01*
X137982714Y-141836809D01*
X137935095Y-141741571D01*
X137887476Y-141693952D01*
X137792238Y-141646333D01*
X137601761Y-141646333D01*
X137506523Y-141693952D01*
X137458904Y-141741571D01*
X137411285Y-141836809D01*
X145031333Y-122814380D02*
X144698000Y-122338190D01*
X144459904Y-122814380D02*
X144459904Y-121814380D01*
X144840857Y-121814380D01*
X144936095Y-121862000D01*
X144983714Y-121909619D01*
X145031333Y-122004857D01*
X145031333Y-122147714D01*
X144983714Y-122242952D01*
X144936095Y-122290571D01*
X144840857Y-122338190D01*
X144459904Y-122338190D01*
X145412285Y-121909619D02*
X145459904Y-121862000D01*
X145555142Y-121814380D01*
X145793238Y-121814380D01*
X145888476Y-121862000D01*
X145936095Y-121909619D01*
X145983714Y-122004857D01*
X145983714Y-122100095D01*
X145936095Y-122242952D01*
X145364666Y-122814380D01*
X145983714Y-122814380D01*
X129537333Y-146722142D02*
X129489714Y-146769761D01*
X129346857Y-146817380D01*
X129251619Y-146817380D01*
X129108761Y-146769761D01*
X129013523Y-146674523D01*
X128965904Y-146579285D01*
X128918285Y-146388809D01*
X128918285Y-146245952D01*
X128965904Y-146055476D01*
X129013523Y-145960238D01*
X129108761Y-145865000D01*
X129251619Y-145817380D01*
X129346857Y-145817380D01*
X129489714Y-145865000D01*
X129537333Y-145912619D01*
X130394476Y-146150714D02*
X130394476Y-146817380D01*
X130156380Y-145769761D02*
X129918285Y-146484047D01*
X130537333Y-146484047D01*
X137030333Y-86290142D02*
X136982714Y-86337761D01*
X136839857Y-86385380D01*
X136744619Y-86385380D01*
X136601761Y-86337761D01*
X136506523Y-86242523D01*
X136458904Y-86147285D01*
X136411285Y-85956809D01*
X136411285Y-85813952D01*
X136458904Y-85623476D01*
X136506523Y-85528238D01*
X136601761Y-85433000D01*
X136744619Y-85385380D01*
X136839857Y-85385380D01*
X136982714Y-85433000D01*
X137030333Y-85480619D01*
X137887476Y-85385380D02*
X137697000Y-85385380D01*
X137601761Y-85433000D01*
X137554142Y-85480619D01*
X137458904Y-85623476D01*
X137411285Y-85813952D01*
X137411285Y-86194904D01*
X137458904Y-86290142D01*
X137506523Y-86337761D01*
X137601761Y-86385380D01*
X137792238Y-86385380D01*
X137887476Y-86337761D01*
X137935095Y-86290142D01*
X137982714Y-86194904D01*
X137982714Y-85956809D01*
X137935095Y-85861571D01*
X137887476Y-85813952D01*
X137792238Y-85766333D01*
X137601761Y-85766333D01*
X137506523Y-85813952D01*
X137458904Y-85861571D01*
X137411285Y-85956809D01*
X132498095Y-56663380D02*
X132498095Y-57472904D01*
X132545714Y-57568142D01*
X132593333Y-57615761D01*
X132688571Y-57663380D01*
X132879047Y-57663380D01*
X132974285Y-57615761D01*
X133021904Y-57568142D01*
X133069523Y-57472904D01*
X133069523Y-56663380D01*
X133450476Y-56663380D02*
X134069523Y-56663380D01*
X133736190Y-57044333D01*
X133879047Y-57044333D01*
X133974285Y-57091952D01*
X134021904Y-57139571D01*
X134069523Y-57234809D01*
X134069523Y-57472904D01*
X134021904Y-57568142D01*
X133974285Y-57615761D01*
X133879047Y-57663380D01*
X133593333Y-57663380D01*
X133498095Y-57615761D01*
X133450476Y-57568142D01*
X139853333Y-114230142D02*
X139805714Y-114277761D01*
X139662857Y-114325380D01*
X139567619Y-114325380D01*
X139424761Y-114277761D01*
X139329523Y-114182523D01*
X139281904Y-114087285D01*
X139234285Y-113896809D01*
X139234285Y-113753952D01*
X139281904Y-113563476D01*
X139329523Y-113468238D01*
X139424761Y-113373000D01*
X139567619Y-113325380D01*
X139662857Y-113325380D01*
X139805714Y-113373000D01*
X139853333Y-113420619D01*
X140758095Y-113325380D02*
X140281904Y-113325380D01*
X140234285Y-113801571D01*
X140281904Y-113753952D01*
X140377142Y-113706333D01*
X140615238Y-113706333D01*
X140710476Y-113753952D01*
X140758095Y-113801571D01*
X140805714Y-113896809D01*
X140805714Y-114134904D01*
X140758095Y-114230142D01*
X140710476Y-114277761D01*
X140615238Y-114325380D01*
X140377142Y-114325380D01*
X140281904Y-114277761D01*
X140234285Y-114230142D01*
X132498095Y-28723380D02*
X132498095Y-29532904D01*
X132545714Y-29628142D01*
X132593333Y-29675761D01*
X132688571Y-29723380D01*
X132879047Y-29723380D01*
X132974285Y-29675761D01*
X133021904Y-29628142D01*
X133069523Y-29532904D01*
X133069523Y-28723380D01*
X133450476Y-28723380D02*
X134069523Y-28723380D01*
X133736190Y-29104333D01*
X133879047Y-29104333D01*
X133974285Y-29151952D01*
X134021904Y-29199571D01*
X134069523Y-29294809D01*
X134069523Y-29532904D01*
X134021904Y-29628142D01*
X133974285Y-29675761D01*
X133879047Y-29723380D01*
X133593333Y-29723380D01*
X133498095Y-29675761D01*
X133450476Y-29628142D01*
D11*
X128969000Y-115623748D02*
X128969000Y-116146252D01*
X130439000Y-115623748D02*
X130439000Y-116146252D01*
X147711064Y-99148000D02*
X147256936Y-99148000D01*
X147711064Y-100618000D02*
X147256936Y-100618000D01*
X137297000Y-160342252D02*
X137297000Y-159819748D01*
X135827000Y-160342252D02*
X135827000Y-159819748D01*
D12*
X146887100Y-30835640D02*
X146887100Y-34056360D01*
X154430900Y-36052800D02*
X154430900Y-33375640D01*
X154430900Y-36052800D02*
X146887100Y-36052800D01*
X154430900Y-28839200D02*
X146887100Y-28839200D01*
X154430900Y-31516360D02*
X154430900Y-28839200D01*
D11*
X167727000Y-51802000D02*
X169542000Y-51802000D01*
X160007000Y-39017000D02*
X160007000Y-39252000D01*
X163867000Y-39017000D02*
X160007000Y-39017000D01*
X163867000Y-52037000D02*
X167727000Y-52037000D01*
X163867000Y-52037000D02*
X160007000Y-52037000D01*
X163867000Y-39017000D02*
X167727000Y-39017000D01*
X167727000Y-52037000D02*
X167727000Y-51802000D01*
X167727000Y-39017000D02*
X167727000Y-39252000D01*
X160007000Y-52037000D02*
X160007000Y-51802000D01*
X135827000Y-132402252D02*
X135827000Y-131879748D01*
X137297000Y-132402252D02*
X137297000Y-131879748D01*
X130712748Y-79409000D02*
X131235252Y-79409000D01*
X130712748Y-77939000D02*
X131235252Y-77939000D01*
X128969000Y-87683748D02*
X128969000Y-88206252D01*
X130439000Y-87683748D02*
X130439000Y-88206252D01*
X133276000Y-71653000D02*
X133276000Y-67753000D01*
X133276000Y-71653000D02*
X135276000Y-71653000D01*
X135276000Y-71653000D02*
X135276000Y-67753000D01*
X133276000Y-155473000D02*
X135276000Y-155473000D01*
X135276000Y-155473000D02*
X135276000Y-151573000D01*
X133276000Y-155473000D02*
X133276000Y-151573000D01*
X161581000Y-62037000D02*
X160946000Y-62037000D01*
X160946000Y-62037000D02*
X160946000Y-61402000D01*
X163867000Y-122837000D02*
X167727000Y-122837000D01*
X160007000Y-122837000D02*
X160007000Y-123072000D01*
X160007000Y-135857000D02*
X160007000Y-135622000D01*
X167727000Y-135622000D02*
X169542000Y-135622000D01*
X163867000Y-122837000D02*
X160007000Y-122837000D01*
X163867000Y-135857000D02*
X167727000Y-135857000D01*
X163867000Y-135857000D02*
X160007000Y-135857000D01*
X167727000Y-135857000D02*
X167727000Y-135622000D01*
X167727000Y-122837000D02*
X167727000Y-123072000D01*
X156400936Y-58835000D02*
X156855064Y-58835000D01*
X156400936Y-57365000D02*
X156855064Y-57365000D01*
X133276000Y-43713000D02*
X135276000Y-43713000D01*
X133276000Y-43713000D02*
X133276000Y-39813000D01*
X135276000Y-43713000D02*
X135276000Y-39813000D01*
X139964000Y-131913936D02*
X139964000Y-132368064D01*
X138494000Y-131913936D02*
X138494000Y-132368064D01*
X148950000Y-79621000D02*
X148950000Y-79361000D01*
X154400000Y-79621000D02*
X154400000Y-79361000D01*
X148950000Y-74431000D02*
X147275000Y-74431000D01*
X151675000Y-79621000D02*
X148950000Y-79621000D01*
X151675000Y-74171000D02*
X154400000Y-74171000D01*
X151675000Y-74171000D02*
X148950000Y-74171000D01*
X154400000Y-74171000D02*
X154400000Y-74431000D01*
X151675000Y-79621000D02*
X154400000Y-79621000D01*
X148950000Y-74171000D02*
X148950000Y-74431000D01*
X143520000Y-116058936D02*
X143520000Y-116513064D01*
X142050000Y-116058936D02*
X142050000Y-116513064D01*
X147764936Y-37807000D02*
X148219064Y-37807000D01*
X147764936Y-39277000D02*
X148219064Y-39277000D01*
X147764936Y-149567000D02*
X148219064Y-149567000D01*
X147764936Y-151037000D02*
X148219064Y-151037000D01*
D12*
X154430900Y-143276360D02*
X154430900Y-140599200D01*
X146887100Y-142595640D02*
X146887100Y-145816360D01*
X154430900Y-147812800D02*
X154430900Y-145135640D01*
X154430900Y-140599200D02*
X146887100Y-140599200D01*
X154430900Y-147812800D02*
X146887100Y-147812800D01*
D11*
X156889252Y-145757000D02*
X156366748Y-145757000D01*
X156889252Y-147227000D02*
X156366748Y-147227000D01*
X156400936Y-86775000D02*
X156855064Y-86775000D01*
X156400936Y-85305000D02*
X156855064Y-85305000D01*
X156889252Y-117817000D02*
X156366748Y-117817000D01*
X156889252Y-119287000D02*
X156366748Y-119287000D01*
X156889252Y-35467000D02*
X156366748Y-35467000D01*
X156889252Y-33997000D02*
X156366748Y-33997000D01*
X163867000Y-94897000D02*
X167727000Y-94897000D01*
X163867000Y-107917000D02*
X167727000Y-107917000D01*
X160007000Y-107917000D02*
X160007000Y-107682000D01*
X163867000Y-107917000D02*
X160007000Y-107917000D01*
X163867000Y-94897000D02*
X160007000Y-94897000D01*
X167727000Y-107682000D02*
X169542000Y-107682000D01*
X160007000Y-94897000D02*
X160007000Y-95132000D01*
X167727000Y-94897000D02*
X167727000Y-95132000D01*
X167727000Y-107917000D02*
X167727000Y-107682000D01*
X137297000Y-76522252D02*
X137297000Y-75999748D01*
X135827000Y-76522252D02*
X135827000Y-75999748D01*
X160007000Y-150777000D02*
X160007000Y-151012000D01*
X163867000Y-150777000D02*
X167727000Y-150777000D01*
X160007000Y-163797000D02*
X160007000Y-163562000D01*
X167727000Y-163797000D02*
X167727000Y-163562000D01*
X163867000Y-163797000D02*
X167727000Y-163797000D01*
X163867000Y-150777000D02*
X160007000Y-150777000D01*
X163867000Y-163797000D02*
X160007000Y-163797000D01*
X167727000Y-150777000D02*
X167727000Y-151012000D01*
X167727000Y-163562000D02*
X169542000Y-163562000D01*
X160946000Y-145857000D02*
X160946000Y-145222000D01*
X161581000Y-145857000D02*
X160946000Y-145857000D01*
X139964000Y-159853936D02*
X139964000Y-160308064D01*
X138494000Y-159853936D02*
X138494000Y-160308064D01*
X137391437Y-127423000D02*
X138677000Y-127423000D01*
X143147000Y-126358563D02*
X143147000Y-120603000D01*
X137495750Y-128056750D02*
X138283250Y-128056750D01*
X137889500Y-128450500D02*
X137889500Y-127663000D01*
X142082563Y-127423000D02*
X143147000Y-126358563D01*
X142082563Y-127423000D02*
X140797000Y-127423000D01*
X137391437Y-127423000D02*
X136327000Y-126358563D01*
X136327000Y-126358563D02*
X136327000Y-120603000D01*
X136327000Y-120603000D02*
X138677000Y-120603000D01*
X143147000Y-120603000D02*
X140797000Y-120603000D01*
X136327000Y-154298563D02*
X136327000Y-148543000D01*
X143147000Y-148543000D02*
X140797000Y-148543000D01*
X142082563Y-155363000D02*
X143147000Y-154298563D01*
X137391437Y-155363000D02*
X138677000Y-155363000D01*
X142082563Y-155363000D02*
X140797000Y-155363000D01*
X136327000Y-148543000D02*
X138677000Y-148543000D01*
X143147000Y-154298563D02*
X143147000Y-148543000D01*
X137495750Y-155996750D02*
X138283250Y-155996750D01*
X137391437Y-155363000D02*
X136327000Y-154298563D01*
X137889500Y-156390500D02*
X137889500Y-155603000D01*
X137391437Y-43603000D02*
X136327000Y-42538563D01*
X137495750Y-44236750D02*
X138283250Y-44236750D01*
X137391437Y-43603000D02*
X138677000Y-43603000D01*
X142082563Y-43603000D02*
X140797000Y-43603000D01*
X137889500Y-44630500D02*
X137889500Y-43843000D01*
X143147000Y-42538563D02*
X143147000Y-36783000D01*
X136327000Y-42538563D02*
X136327000Y-36783000D01*
X142082563Y-43603000D02*
X143147000Y-42538563D01*
X143147000Y-36783000D02*
X140797000Y-36783000D01*
X136327000Y-36783000D02*
X138677000Y-36783000D01*
X133276000Y-99593000D02*
X133276000Y-95693000D01*
X135276000Y-99593000D02*
X135276000Y-95693000D01*
X133276000Y-99593000D02*
X135276000Y-99593000D01*
X156889252Y-61937000D02*
X156366748Y-61937000D01*
X156889252Y-63407000D02*
X156366748Y-63407000D01*
X138494000Y-103973936D02*
X138494000Y-104428064D01*
X139964000Y-103973936D02*
X139964000Y-104428064D01*
D12*
X154430900Y-63992800D02*
X146887100Y-63992800D01*
X146887100Y-58775640D02*
X146887100Y-61996360D01*
X154430900Y-59456360D02*
X154430900Y-56779200D01*
X154430900Y-56779200D02*
X146887100Y-56779200D01*
X154430900Y-63992800D02*
X154430900Y-61315640D01*
D11*
X128969000Y-59743748D02*
X128969000Y-60266252D01*
X130439000Y-59743748D02*
X130439000Y-60266252D01*
X142050000Y-32238936D02*
X142050000Y-32693064D01*
X143520000Y-32238936D02*
X143520000Y-32693064D01*
X143520000Y-60178936D02*
X143520000Y-60633064D01*
X142050000Y-60178936D02*
X142050000Y-60633064D01*
X147764936Y-95157000D02*
X148219064Y-95157000D01*
X147764936Y-93687000D02*
X148219064Y-93687000D01*
X154400000Y-157991000D02*
X154400000Y-158251000D01*
X151675000Y-157991000D02*
X148950000Y-157991000D01*
X148950000Y-157991000D02*
X148950000Y-158251000D01*
X151675000Y-157991000D02*
X154400000Y-157991000D01*
X148950000Y-163441000D02*
X148950000Y-163181000D01*
X148950000Y-158251000D02*
X147275000Y-158251000D01*
X151675000Y-163441000D02*
X154400000Y-163441000D01*
X154400000Y-163441000D02*
X154400000Y-163181000D01*
X151675000Y-163441000D02*
X148950000Y-163441000D01*
X130981008Y-99310011D02*
X130981008Y-98260011D01*
X130981008Y-94140011D02*
X131971008Y-94140011D01*
X128481008Y-93090011D02*
X130981008Y-93090011D01*
X128481008Y-99310011D02*
X130981008Y-99310011D01*
X130981008Y-93090011D02*
X130981008Y-94140011D01*
X132786000Y-129084000D02*
X134096000Y-129084000D01*
X129376000Y-131804000D02*
X129376000Y-129084000D01*
X129606000Y-132944000D02*
X129606000Y-131804000D01*
X129376000Y-129084000D02*
X130686000Y-129084000D01*
X134096000Y-131804000D02*
X133866000Y-131804000D01*
X134096000Y-129084000D02*
X134096000Y-131804000D01*
X129376000Y-131804000D02*
X129606000Y-131804000D01*
X160946000Y-34097000D02*
X160946000Y-33462000D01*
X161581000Y-34097000D02*
X160946000Y-34097000D01*
X145425000Y-132402252D02*
X145425000Y-131879748D01*
X143955000Y-132402252D02*
X143955000Y-131879748D01*
X137889500Y-72570500D02*
X137889500Y-71783000D01*
X136327000Y-70478563D02*
X136327000Y-64723000D01*
X143147000Y-64723000D02*
X140797000Y-64723000D01*
X137495750Y-72176750D02*
X138283250Y-72176750D01*
X137391437Y-71543000D02*
X138677000Y-71543000D01*
X136327000Y-64723000D02*
X138677000Y-64723000D01*
X142082563Y-71543000D02*
X143147000Y-70478563D01*
X143147000Y-70478563D02*
X143147000Y-64723000D01*
X137391437Y-71543000D02*
X136327000Y-70478563D01*
X142082563Y-71543000D02*
X140797000Y-71543000D01*
X160007000Y-79977000D02*
X160007000Y-79742000D01*
X163867000Y-66957000D02*
X167727000Y-66957000D01*
X163867000Y-66957000D02*
X160007000Y-66957000D01*
X163867000Y-79977000D02*
X160007000Y-79977000D01*
X160007000Y-66957000D02*
X160007000Y-67192000D01*
X167727000Y-79742000D02*
X169542000Y-79742000D01*
X163867000Y-79977000D02*
X167727000Y-79977000D01*
X167727000Y-66957000D02*
X167727000Y-67192000D01*
X167727000Y-79977000D02*
X167727000Y-79742000D01*
X145425000Y-76522252D02*
X145425000Y-75999748D01*
X143955000Y-76522252D02*
X143955000Y-75999748D01*
X148950000Y-46491000D02*
X147275000Y-46491000D01*
X148950000Y-46231000D02*
X148950000Y-46491000D01*
X151675000Y-51681000D02*
X154400000Y-51681000D01*
X154400000Y-46231000D02*
X154400000Y-46491000D01*
X151675000Y-51681000D02*
X148950000Y-51681000D01*
X151675000Y-46231000D02*
X154400000Y-46231000D01*
X148950000Y-51681000D02*
X148950000Y-51421000D01*
X154400000Y-51681000D02*
X154400000Y-51421000D01*
X151675000Y-46231000D02*
X148950000Y-46231000D01*
X130981000Y-37210000D02*
X130981000Y-38260000D01*
X130981000Y-38260000D02*
X131971000Y-38260000D01*
X128481000Y-37210000D02*
X130981000Y-37210000D01*
X128481000Y-43430000D02*
X130981000Y-43430000D01*
X130981000Y-43430000D02*
X130981000Y-42380000D01*
X130439000Y-31803748D02*
X130439000Y-32326252D01*
X128969000Y-31803748D02*
X128969000Y-32326252D01*
X147711064Y-44738000D02*
X147256936Y-44738000D01*
X147711064Y-43268000D02*
X147256936Y-43268000D01*
X147711064Y-127088000D02*
X147256936Y-127088000D01*
X147711064Y-128558000D02*
X147256936Y-128558000D01*
X138494000Y-76033936D02*
X138494000Y-76488064D01*
X139964000Y-76033936D02*
X139964000Y-76488064D01*
X134096000Y-73204000D02*
X134096000Y-75924000D01*
X134096000Y-75924000D02*
X133866000Y-75924000D01*
X129376000Y-73204000D02*
X130686000Y-73204000D01*
X129376000Y-75924000D02*
X129606000Y-75924000D01*
X129376000Y-75924000D02*
X129376000Y-73204000D01*
X132786000Y-73204000D02*
X134096000Y-73204000D01*
X129606000Y-77064000D02*
X129606000Y-75924000D01*
X139256000Y-143944748D02*
X139256000Y-144467252D01*
X140726000Y-143944748D02*
X140726000Y-144467252D01*
X136462000Y-60667252D02*
X136462000Y-60144748D01*
X137932000Y-60667252D02*
X137932000Y-60144748D01*
X135276000Y-127533000D02*
X135276000Y-123633000D01*
X133276000Y-127533000D02*
X135276000Y-127533000D01*
X133276000Y-127533000D02*
X133276000Y-123633000D01*
X156400936Y-29425000D02*
X156855064Y-29425000D01*
X156400936Y-30895000D02*
X156855064Y-30895000D01*
X154400000Y-135501000D02*
X154400000Y-135241000D01*
X154400000Y-130051000D02*
X154400000Y-130311000D01*
X151675000Y-135501000D02*
X154400000Y-135501000D01*
X148950000Y-130311000D02*
X147275000Y-130311000D01*
X151675000Y-135501000D02*
X148950000Y-135501000D01*
X151675000Y-130051000D02*
X154400000Y-130051000D01*
X151675000Y-130051000D02*
X148950000Y-130051000D01*
X148950000Y-130051000D02*
X148950000Y-130311000D01*
X148950000Y-135501000D02*
X148950000Y-135241000D01*
X130981008Y-71370011D02*
X130981008Y-70320011D01*
X128481008Y-65150011D02*
X130981008Y-65150011D01*
X130981008Y-66200011D02*
X131971008Y-66200011D01*
X130981008Y-65150011D02*
X130981008Y-66200011D01*
X128481008Y-71370011D02*
X130981008Y-71370011D01*
X142050000Y-143998936D02*
X142050000Y-144453064D01*
X143520000Y-143998936D02*
X143520000Y-144453064D01*
X142758000Y-48093936D02*
X142758000Y-48548064D01*
X141288000Y-48093936D02*
X141288000Y-48548064D01*
D12*
X154430900Y-115336360D02*
X154430900Y-112659200D01*
X146887100Y-114655640D02*
X146887100Y-117876360D01*
X154430900Y-119872800D02*
X154430900Y-117195640D01*
X154430900Y-119872800D02*
X146887100Y-119872800D01*
X154430900Y-112659200D02*
X146887100Y-112659200D01*
D11*
X136462000Y-32727252D02*
X136462000Y-32204748D01*
X137932000Y-32727252D02*
X137932000Y-32204748D01*
X156889252Y-89877000D02*
X156366748Y-89877000D01*
X156889252Y-91347000D02*
X156366748Y-91347000D01*
X139964000Y-48093936D02*
X139964000Y-48548064D01*
X138494000Y-48093936D02*
X138494000Y-48548064D01*
X135827000Y-48582252D02*
X135827000Y-48059748D01*
X137297000Y-48582252D02*
X137297000Y-48059748D01*
X142758000Y-159853936D02*
X142758000Y-160308064D01*
X141288000Y-159853936D02*
X141288000Y-160308064D01*
X137297000Y-104462252D02*
X137297000Y-103939748D01*
X135827000Y-104462252D02*
X135827000Y-103939748D01*
X129376000Y-157024000D02*
X130686000Y-157024000D01*
X134096000Y-159744000D02*
X133866000Y-159744000D01*
X129606000Y-160884000D02*
X129606000Y-159744000D01*
X134096000Y-157024000D02*
X134096000Y-159744000D01*
X129376000Y-159744000D02*
X129376000Y-157024000D01*
X129376000Y-159744000D02*
X129606000Y-159744000D01*
X132786000Y-157024000D02*
X134096000Y-157024000D01*
X145425000Y-48582252D02*
X145425000Y-48059748D01*
X143955000Y-48582252D02*
X143955000Y-48059748D01*
X137932000Y-116547252D02*
X137932000Y-116024748D01*
X136462000Y-116547252D02*
X136462000Y-116024748D01*
X142758000Y-131913936D02*
X142758000Y-132368064D01*
X141288000Y-131913936D02*
X141288000Y-132368064D01*
X131827000Y-87945000D02*
X131827000Y-89745000D01*
X134947000Y-87945000D02*
X134947000Y-88745000D01*
X134947000Y-87945000D02*
X134947000Y-87145000D01*
X131827000Y-87945000D02*
X131827000Y-87145000D01*
X142758000Y-103973936D02*
X142758000Y-104428064D01*
X141288000Y-103973936D02*
X141288000Y-104428064D01*
X130981008Y-155190011D02*
X130981008Y-154140011D01*
X128481008Y-148970011D02*
X130981008Y-148970011D01*
X130981008Y-148970011D02*
X130981008Y-150020011D01*
X130981008Y-150020011D02*
X131971008Y-150020011D01*
X128481008Y-155190011D02*
X130981008Y-155190011D01*
X130712748Y-163229000D02*
X131235252Y-163229000D01*
X130712748Y-161759000D02*
X131235252Y-161759000D01*
X142758000Y-76033936D02*
X142758000Y-76488064D01*
X141288000Y-76033936D02*
X141288000Y-76488064D01*
X140726000Y-88064748D02*
X140726000Y-88587252D01*
X139256000Y-88064748D02*
X139256000Y-88587252D01*
X139256000Y-60124748D02*
X139256000Y-60647252D01*
X140726000Y-60124748D02*
X140726000Y-60647252D01*
X131827000Y-115885000D02*
X131827000Y-115085000D01*
X131827000Y-115885000D02*
X131827000Y-117685000D01*
X134947000Y-115885000D02*
X134947000Y-116685000D01*
X134947000Y-115885000D02*
X134947000Y-115085000D01*
X143520000Y-88118936D02*
X143520000Y-88573064D01*
X142050000Y-88118936D02*
X142050000Y-88573064D01*
X132786000Y-101144000D02*
X134096000Y-101144000D01*
X134096000Y-101144000D02*
X134096000Y-103864000D01*
X129376000Y-101144000D02*
X130686000Y-101144000D01*
X129376000Y-103864000D02*
X129376000Y-101144000D01*
X129606000Y-105004000D02*
X129606000Y-103864000D01*
X134096000Y-103864000D02*
X133866000Y-103864000D01*
X129376000Y-103864000D02*
X129606000Y-103864000D01*
X145425000Y-104462252D02*
X145425000Y-103939748D01*
X143955000Y-104462252D02*
X143955000Y-103939748D01*
X156400936Y-142655000D02*
X156855064Y-142655000D01*
X156400936Y-141185000D02*
X156855064Y-141185000D01*
X130712748Y-107349000D02*
X131235252Y-107349000D01*
X130712748Y-105879000D02*
X131235252Y-105879000D01*
X129606000Y-49124000D02*
X129606000Y-47984000D01*
X129376000Y-45264000D02*
X130686000Y-45264000D01*
X129376000Y-47984000D02*
X129376000Y-45264000D01*
X129376000Y-47984000D02*
X129606000Y-47984000D01*
X134096000Y-47984000D02*
X133866000Y-47984000D01*
X132786000Y-45264000D02*
X134096000Y-45264000D01*
X134096000Y-45264000D02*
X134096000Y-47984000D01*
X130712748Y-49999000D02*
X131235252Y-49999000D01*
X130712748Y-51469000D02*
X131235252Y-51469000D01*
X147764936Y-67217000D02*
X148219064Y-67217000D01*
X147764936Y-65747000D02*
X148219064Y-65747000D01*
X140726000Y-32184748D02*
X140726000Y-32707252D01*
X139256000Y-32184748D02*
X139256000Y-32707252D01*
X151675000Y-107561000D02*
X154400000Y-107561000D01*
X148950000Y-102371000D02*
X147275000Y-102371000D01*
X151675000Y-102111000D02*
X148950000Y-102111000D01*
X154400000Y-107561000D02*
X154400000Y-107301000D01*
X154400000Y-102111000D02*
X154400000Y-102371000D01*
X151675000Y-107561000D02*
X148950000Y-107561000D01*
X148950000Y-102111000D02*
X148950000Y-102371000D01*
X148950000Y-107561000D02*
X148950000Y-107301000D01*
X151675000Y-102111000D02*
X154400000Y-102111000D01*
X137391437Y-99483000D02*
X138677000Y-99483000D01*
X143147000Y-98418563D02*
X143147000Y-92663000D01*
X136327000Y-98418563D02*
X136327000Y-92663000D01*
X136327000Y-92663000D02*
X138677000Y-92663000D01*
X142082563Y-99483000D02*
X143147000Y-98418563D01*
X137889500Y-100510500D02*
X137889500Y-99723000D01*
X142082563Y-99483000D02*
X140797000Y-99483000D01*
X143147000Y-92663000D02*
X140797000Y-92663000D01*
X137495750Y-100116750D02*
X138283250Y-100116750D01*
X137391437Y-99483000D02*
X136327000Y-98418563D01*
D12*
X154430900Y-84719200D02*
X146887100Y-84719200D01*
X154430900Y-91932800D02*
X154430900Y-89255640D01*
X154430900Y-91932800D02*
X146887100Y-91932800D01*
X146887100Y-86715640D02*
X146887100Y-89936360D01*
X154430900Y-87396360D02*
X154430900Y-84719200D01*
D11*
X160946000Y-89977000D02*
X160946000Y-89342000D01*
X161581000Y-89977000D02*
X160946000Y-89977000D01*
X134947000Y-143825000D02*
X134947000Y-144625000D01*
X131827000Y-143825000D02*
X131827000Y-143025000D01*
X131827000Y-143825000D02*
X131827000Y-145625000D01*
X134947000Y-143825000D02*
X134947000Y-143025000D01*
X156400936Y-114715000D02*
X156855064Y-114715000D01*
X156400936Y-113245000D02*
X156855064Y-113245000D01*
X161581000Y-117917000D02*
X160946000Y-117917000D01*
X160946000Y-117917000D02*
X160946000Y-117282000D01*
X147711064Y-156498000D02*
X147256936Y-156498000D01*
X147711064Y-155028000D02*
X147256936Y-155028000D01*
X147711064Y-72678000D02*
X147256936Y-72678000D01*
X147711064Y-71208000D02*
X147256936Y-71208000D01*
X130981008Y-122080011D02*
X131971008Y-122080011D01*
X130981008Y-127250011D02*
X130981008Y-126200011D01*
X130981008Y-121030011D02*
X130981008Y-122080011D01*
X128481008Y-121030011D02*
X130981008Y-121030011D01*
X128481008Y-127250011D02*
X130981008Y-127250011D01*
X145425000Y-160342252D02*
X145425000Y-159819748D01*
X143955000Y-160342252D02*
X143955000Y-159819748D01*
X130712748Y-135289000D02*
X131235252Y-135289000D01*
X130712748Y-133819000D02*
X131235252Y-133819000D01*
X136462000Y-144487252D02*
X136462000Y-143964748D01*
X137932000Y-144487252D02*
X137932000Y-143964748D01*
X147764936Y-123097000D02*
X148219064Y-123097000D01*
X147764936Y-121627000D02*
X148219064Y-121627000D01*
X128969000Y-143563748D02*
X128969000Y-144086252D01*
X130439000Y-143563748D02*
X130439000Y-144086252D01*
X136462000Y-88607252D02*
X136462000Y-88084748D01*
X137932000Y-88607252D02*
X137932000Y-88084748D01*
X134947000Y-60005000D02*
X134947000Y-59205000D01*
X131827000Y-60005000D02*
X131827000Y-59205000D01*
X134947000Y-60005000D02*
X134947000Y-60805000D01*
X131827000Y-60005000D02*
X131827000Y-61805000D01*
X140726000Y-116004748D02*
X140726000Y-116527252D01*
X139256000Y-116004748D02*
X139256000Y-116527252D01*
X134947000Y-32065000D02*
X134947000Y-32865000D01*
X134947000Y-32065000D02*
X134947000Y-31265000D01*
X131827000Y-32065000D02*
X131827000Y-31265000D01*
X131827000Y-32065000D02*
X131827000Y-33865000D01*
M02*
