G04 #@! TF.GenerationSoftware,KiCad,Pcbnew,6.0.2+dfsg-1*
G04 #@! TF.CreationDate,2023-11-02T10:53:08-06:00*
G04 #@! TF.ProjectId,ckt-dingdong-flash-array,636b742d-6469-46e6-9764-6f6e672d666c,rev?*
G04 #@! TF.SameCoordinates,Original*
G04 #@! TF.FileFunction,Paste,Bot*
G04 #@! TF.FilePolarity,Positive*
%FSLAX46Y46*%
G04 Gerber Fmt 4.6, Leading zero omitted, Abs format (unit mm)*
G04 Created by KiCad (PCBNEW 6.0.2+dfsg-1) date 2023-11-02 10:53:08*
%MOMM*%
%LPD*%
G01*
G04 APERTURE LIST*
G04 APERTURE END LIST*
G36*
G01*
X147975000Y-59845000D02*
X147975000Y-61095000D01*
G75*
G02*
X147350000Y-61720000I-625000J0D01*
G01*
X146100000Y-61720000D01*
G75*
G02*
X145475000Y-61095000I0J625000D01*
G01*
X145475000Y-59845000D01*
G75*
G02*
X146100000Y-59220000I625000J0D01*
G01*
X147350000Y-59220000D01*
G75*
G02*
X147975000Y-59845000I0J-625000D01*
G01*
G37*
G36*
G01*
X132475000Y-59845000D02*
X132475000Y-61095000D01*
G75*
G02*
X131850000Y-61720000I-625000J0D01*
G01*
X130600000Y-61720000D01*
G75*
G02*
X129975000Y-61095000I0J625000D01*
G01*
X129975000Y-59845000D01*
G75*
G02*
X130600000Y-59220000I625000J0D01*
G01*
X131850000Y-59220000D01*
G75*
G02*
X132475000Y-59845000I0J-625000D01*
G01*
G37*
G36*
G01*
X147975000Y-143665000D02*
X147975000Y-144915000D01*
G75*
G02*
X147350000Y-145540000I-625000J0D01*
G01*
X146100000Y-145540000D01*
G75*
G02*
X145475000Y-144915000I0J625000D01*
G01*
X145475000Y-143665000D01*
G75*
G02*
X146100000Y-143040000I625000J0D01*
G01*
X147350000Y-143040000D01*
G75*
G02*
X147975000Y-143665000I0J-625000D01*
G01*
G37*
G36*
G01*
X132475000Y-143665000D02*
X132475000Y-144915000D01*
G75*
G02*
X131850000Y-145540000I-625000J0D01*
G01*
X130600000Y-145540000D01*
G75*
G02*
X129975000Y-144915000I0J625000D01*
G01*
X129975000Y-143665000D01*
G75*
G02*
X130600000Y-143040000I625000J0D01*
G01*
X131850000Y-143040000D01*
G75*
G02*
X132475000Y-143665000I0J-625000D01*
G01*
G37*
G36*
G01*
X147975000Y-31905000D02*
X147975000Y-33155000D01*
G75*
G02*
X147350000Y-33780000I-625000J0D01*
G01*
X146100000Y-33780000D01*
G75*
G02*
X145475000Y-33155000I0J625000D01*
G01*
X145475000Y-31905000D01*
G75*
G02*
X146100000Y-31280000I625000J0D01*
G01*
X147350000Y-31280000D01*
G75*
G02*
X147975000Y-31905000I0J-625000D01*
G01*
G37*
G36*
G01*
X132475000Y-31905000D02*
X132475000Y-33155000D01*
G75*
G02*
X131850000Y-33780000I-625000J0D01*
G01*
X130600000Y-33780000D01*
G75*
G02*
X129975000Y-33155000I0J625000D01*
G01*
X129975000Y-31905000D01*
G75*
G02*
X130600000Y-31280000I625000J0D01*
G01*
X131850000Y-31280000D01*
G75*
G02*
X132475000Y-31905000I0J-625000D01*
G01*
G37*
G36*
G01*
X147975000Y-87785000D02*
X147975000Y-89035000D01*
G75*
G02*
X147350000Y-89660000I-625000J0D01*
G01*
X146100000Y-89660000D01*
G75*
G02*
X145475000Y-89035000I0J625000D01*
G01*
X145475000Y-87785000D01*
G75*
G02*
X146100000Y-87160000I625000J0D01*
G01*
X147350000Y-87160000D01*
G75*
G02*
X147975000Y-87785000I0J-625000D01*
G01*
G37*
G36*
G01*
X132475000Y-87785000D02*
X132475000Y-89035000D01*
G75*
G02*
X131850000Y-89660000I-625000J0D01*
G01*
X130600000Y-89660000D01*
G75*
G02*
X129975000Y-89035000I0J625000D01*
G01*
X129975000Y-87785000D01*
G75*
G02*
X130600000Y-87160000I625000J0D01*
G01*
X131850000Y-87160000D01*
G75*
G02*
X132475000Y-87785000I0J-625000D01*
G01*
G37*
G36*
G01*
X147975000Y-115725000D02*
X147975000Y-116975000D01*
G75*
G02*
X147350000Y-117600000I-625000J0D01*
G01*
X146100000Y-117600000D01*
G75*
G02*
X145475000Y-116975000I0J625000D01*
G01*
X145475000Y-115725000D01*
G75*
G02*
X146100000Y-115100000I625000J0D01*
G01*
X147350000Y-115100000D01*
G75*
G02*
X147975000Y-115725000I0J-625000D01*
G01*
G37*
G36*
G01*
X132475000Y-115725000D02*
X132475000Y-116975000D01*
G75*
G02*
X131850000Y-117600000I-625000J0D01*
G01*
X130600000Y-117600000D01*
G75*
G02*
X129975000Y-116975000I0J625000D01*
G01*
X129975000Y-115725000D01*
G75*
G02*
X130600000Y-115100000I625000J0D01*
G01*
X131850000Y-115100000D01*
G75*
G02*
X132475000Y-115725000I0J-625000D01*
G01*
G37*
M02*
