M48
INCH,TZ
T1C0.0157
%
G90
G05
T1
X50015Y-11174
X50015Y-11574
X50015Y-11974
X50015Y-12374
X50015Y-22174
X50015Y-22574
X50015Y-22974
X50015Y-23374
X50015Y-33174
X50015Y-33574
X50015Y-33974
X50015Y-34374
X50015Y-44174
X50015Y-44574
X50015Y-44974
X50015Y-45374
X50015Y-55174
X50015Y-55574
X50015Y-55974
X50015Y-56374
X50465Y-11174
X50465Y-11574
X50465Y-11974
X50465Y-12374
X50465Y-22174
X50465Y-22574
X50465Y-22974
X50465Y-23374
X50465Y-33174
X50465Y-33574
X50465Y-33974
X50465Y-34374
X50465Y-44174
X50465Y-44574
X50465Y-44974
X50465Y-45374
X50465Y-55174
X50465Y-55574
X50465Y-55974
X50465Y-56374
X50615Y-18424
X50615Y-18824
X50615Y-19224
X50615Y-19624
X50615Y-20024
X50615Y-29424
X50615Y-29824
X50615Y-30224
X50615Y-30624
X50615Y-31024
X50615Y-40424
X50615Y-40824
X50615Y-41224
X50615Y-41624
X50615Y-42024
X50615Y-51424
X50615Y-51824
X50615Y-52224
X50615Y-52624
X50615Y-53024
X50615Y-62424
X50615Y-62824
X50615Y-63224
X50615Y-63624
X50615Y-64024
X50815Y-11374
X50815Y-22374
X50815Y-33374
X50815Y-44374
X50815Y-55374
X51165Y-11174
X51165Y-11574
X51165Y-22174
X51165Y-22574
X51165Y-33174
X51165Y-33574
X51165Y-44174
X51165Y-44574
X51165Y-55174
X51165Y-55574
X51215Y-17774
X51215Y-18174
X51215Y-18574
X51215Y-28774
X51215Y-29174
X51215Y-29574
X51215Y-39774
X51215Y-40174
X51215Y-40574
X51215Y-50774
X51215Y-51174
X51215Y-51574
X51215Y-61774
X51215Y-62174
X51215Y-62574
X51665Y-13524
X51665Y-24524
X51665Y-35524
X51665Y-46524
X51665Y-57524
X52415Y-14224
X52415Y-14624
X52415Y-15024
X52415Y-25224
X52415Y-25624
X52415Y-26024
X52415Y-36224
X52415Y-36624
X52415Y-37024
X52415Y-47224
X52415Y-47624
X52415Y-48024
X52415Y-58224
X52415Y-58624
X52415Y-59024
X52915Y-14224
X52915Y-14624
X52915Y-25224
X52915Y-25624
X52915Y-36224
X52915Y-36624
X52915Y-47224
X52915Y-47624
X52915Y-58224
X52915Y-58624
X53415Y-14224
X53415Y-14624
X53415Y-15024
X53415Y-25224
X53415Y-25624
X53415Y-26024
X53415Y-36224
X53415Y-36624
X53415Y-37024
X53415Y-47224
X53415Y-47624
X53415Y-48024
X53415Y-58224
X53415Y-58624
X53415Y-59024
X54265Y-18374
X54265Y-29374
X54265Y-40374
X54265Y-51374
X54265Y-62374
X56465Y-18374
X56465Y-29374
X56465Y-40374
X56465Y-51374
X56465Y-62374
X56965Y-12074
X56965Y-23074
X56965Y-34074
X56965Y-45074
X56965Y-56074
X57615Y-20324
X57615Y-31324
X57615Y-42324
X57615Y-53324
X57615Y-64324
X58615Y-12274
X58615Y-23274
X58615Y-34274
X58615Y-45274
X58615Y-56274
X59015Y-12274
X59015Y-19524
X59015Y-23274
X59015Y-30524
X59015Y-34274
X59015Y-41524
X59015Y-45274
X59015Y-52524
X59015Y-56274
X59015Y-63524
X59415Y-19524
X59415Y-30524
X59415Y-41524
X59415Y-52524
X59415Y-63524
X60765Y-11224
X60765Y-13674
X60765Y-22224
X60765Y-24674
X60765Y-33224
X60765Y-35674
X60765Y-44224
X60765Y-46674
X60765Y-55224
X60765Y-57674
X61165Y-11224
X61165Y-22224
X61165Y-33224
X61165Y-44224
X61165Y-55224
X61565Y-11224
X61565Y-22224
X61565Y-33224
X61565Y-44224
X61565Y-55224
X61965Y-11224
X61965Y-22224
X61965Y-33224
X61965Y-44224
X61965Y-55224
X62365Y-11224
X62365Y-22224
X62365Y-33224
X62365Y-44224
X62365Y-55224
X63365Y-18174
X63365Y-29174
X63365Y-40174
X63365Y-51174
X63365Y-62174
X63765Y-18174
X63765Y-29174
X63765Y-40174
X63765Y-51174
X63765Y-62174
X63815Y-20474
X63815Y-31474
X63815Y-42474
X63815Y-53474
X63815Y-64474
X63965Y-11574
X63965Y-22574
X63965Y-33574
X63965Y-44574
X63965Y-55574
X64065Y-20124
X64065Y-31124
X64065Y-42124
X64065Y-53124
X64065Y-64124
X64315Y-15774
X64315Y-20474
X64315Y-26774
X64315Y-31474
X64315Y-37774
X64315Y-42474
X64315Y-48774
X64315Y-53474
X64315Y-59774
X64315Y-64474
X64415Y-11574
X64415Y-22574
X64415Y-33574
X64415Y-44574
X64415Y-55574
X64465Y-18374
X64465Y-18774
X64465Y-19174
X64465Y-19574
X64465Y-29374
X64465Y-29774
X64465Y-30174
X64465Y-30574
X64465Y-40374
X64465Y-40774
X64465Y-41174
X64465Y-41574
X64465Y-51374
X64465Y-51774
X64465Y-52174
X64465Y-52574
X64465Y-62374
X64465Y-62774
X64465Y-63174
X64465Y-63574
X64565Y-20124
X64565Y-31124
X64565Y-42124
X64565Y-53124
X64565Y-64124
X64736Y-15753
X64736Y-26753
X64736Y-37753
X64736Y-48753
X64736Y-59753
X64865Y-20474
X64865Y-31474
X64865Y-42474
X64865Y-53474
X64865Y-64474
X65065Y-20124
X65065Y-31124
X65065Y-42124
X65065Y-53124
X65065Y-64124
X65090Y-17399
X65090Y-28399
X65090Y-39399
X65090Y-50399
X65090Y-61399
X65265Y-15574
X65265Y-26574
X65265Y-37574
X65265Y-48574
X65265Y-59574
X65365Y-17674
X65365Y-28674
X65365Y-39674
X65365Y-50674
X65365Y-61674
X65565Y-20524
X65565Y-31524
X65565Y-42524
X65565Y-53524
X65565Y-64524
X65693Y-15274
X65693Y-26274
X65693Y-37274
X65693Y-48274
X65693Y-59274
X66165Y-20574
X66165Y-31574
X66165Y-42574
X66165Y-53574
X66165Y-64574
X66265Y-11624
X66265Y-12024
X66265Y-22624
X66265Y-23024
X66265Y-33624
X66265Y-34024
X66265Y-44624
X66265Y-45024
X66265Y-55624
X66265Y-56024
X66465Y-15274
X66465Y-26274
X66465Y-37274
X66465Y-48274
X66465Y-59274
X66615Y-20524
X66615Y-31524
X66615Y-42524
X66615Y-53524
X66615Y-64524
T0
M30
