G04 #@! TF.GenerationSoftware,KiCad,Pcbnew,6.0.2+dfsg-1*
G04 #@! TF.CreationDate,2023-11-02T10:53:08-06:00*
G04 #@! TF.ProjectId,ckt-dingdong-flash-array,636b742d-6469-46e6-9764-6f6e672d666c,rev?*
G04 #@! TF.SameCoordinates,Original*
G04 #@! TF.FileFunction,Profile,NP*
%FSLAX46Y46*%
G04 Gerber Fmt 4.6, Leading zero omitted, Abs format (unit mm)*
G04 Created by KiCad (PCBNEW 6.0.2+dfsg-1) date 2023-11-02 10:53:08*
%MOMM*%
%LPD*%
G01*
G04 APERTURE LIST*
G04 #@! TA.AperFunction,Profile*
%ADD10C,0.100000*%
G04 #@! TD*
G04 APERTURE END LIST*
D10*
X173052649Y-94370016D02*
X173017039Y-94420579D01*
X170146120Y-52691132D02*
X170146318Y-52690975D01*
X170561805Y-84338578D02*
X170540953Y-84298660D01*
X170724999Y-85031917D02*
X170724798Y-85016085D01*
X156195016Y-71222649D02*
X156142767Y-71255735D01*
X169816386Y-139510122D02*
X169787291Y-139497636D01*
X178344196Y-20006534D02*
X178344008Y-20006081D01*
X169641761Y-164714534D02*
X169642004Y-164714461D01*
X170723441Y-135377358D02*
X170723451Y-135377105D01*
X152811498Y-148911070D02*
X152873174Y-148906520D01*
X170442468Y-28260625D02*
X170442321Y-28260418D01*
X125076825Y-153351520D02*
X125138501Y-153356070D01*
X169926562Y-55744166D02*
X169926339Y-55744046D01*
X170525342Y-164009465D02*
X170525468Y-164009245D01*
X170239233Y-28028801D02*
X170239047Y-28028629D01*
X156088958Y-65233781D02*
X156142767Y-65264264D01*
X125014877Y-125410000D02*
X125076825Y-125411520D01*
X173265000Y-98730122D02*
X173265000Y-121609877D01*
X125199879Y-150796359D02*
X125138501Y-150803929D01*
X171923174Y-94928479D02*
X171861498Y-94923929D01*
X123947350Y-66430016D02*
X123914264Y-66377767D01*
X126095735Y-150197767D02*
X126062649Y-150250016D01*
X169744997Y-111540742D02*
X169715307Y-111529746D01*
X151712763Y-42541154D02*
X151699213Y-42480813D01*
X126281081Y-80959008D02*
X126281534Y-80959196D01*
X169993493Y-108677364D02*
X170020361Y-108660617D01*
X152341041Y-155106218D02*
X152287232Y-155075735D01*
X172938596Y-97883837D02*
X172978990Y-97930666D01*
X124061403Y-97883837D02*
X124104047Y-97839047D01*
X152088837Y-149231403D02*
X152135666Y-149191009D01*
X126279375Y-27621957D02*
X126278981Y-27622250D01*
X169816618Y-136709774D02*
X169857541Y-136690971D01*
X123947350Y-122310016D02*
X123914264Y-122257767D01*
X170845976Y-154071281D02*
X170873781Y-154016041D01*
X173052649Y-98029983D02*
X173085735Y-98082232D01*
X156753479Y-126116825D02*
X156748929Y-126178501D01*
X152628845Y-127277236D02*
X152569242Y-127260741D01*
X170058389Y-139644444D02*
X170058179Y-139644302D01*
X126261359Y-93854879D02*
X126250786Y-93915813D01*
X126095735Y-98082232D02*
X126126218Y-98136041D01*
X156659085Y-121742820D02*
X156681342Y-121800519D01*
X172066825Y-69531520D02*
X172128501Y-69536070D01*
X171502820Y-97565914D02*
X171560519Y-97543657D01*
X172311154Y-69567763D02*
X172370757Y-69584258D01*
X170181222Y-111797485D02*
X170146318Y-111769024D01*
X172004877Y-122870000D02*
X171985122Y-122870000D01*
X126277561Y-108896397D02*
X126277891Y-108896761D01*
X170594774Y-135931618D02*
X170594877Y-135931386D01*
X170084581Y-108617321D02*
X170120881Y-108590665D01*
X170715177Y-112794111D02*
X170715148Y-112793859D01*
X126275160Y-111449398D02*
X126275136Y-111449888D01*
X169787057Y-55677539D02*
X169745234Y-55660833D01*
X170726520Y-98668174D02*
X170731070Y-98606498D01*
X126201342Y-122034480D02*
X126179085Y-122092179D01*
X126275496Y-83507466D02*
X126275376Y-83507942D01*
X126273479Y-42788174D02*
X126275000Y-42850122D01*
X156717236Y-149858845D02*
X156730786Y-149919186D01*
X125861162Y-122543596D02*
X125814333Y-122583990D01*
X169672212Y-111515016D02*
X169642004Y-111505538D01*
X170540833Y-84298437D02*
X170525468Y-84270754D01*
X156755000Y-66345122D02*
X156755000Y-70174877D01*
X152234983Y-99162649D02*
X152184420Y-99127039D01*
X151729258Y-98480757D02*
X151712763Y-98421154D01*
X126201342Y-42425519D02*
X126220741Y-42484242D01*
X170723441Y-112902641D02*
X170721838Y-112871021D01*
X172755579Y-122622039D02*
X172705016Y-122657649D01*
X152689186Y-71410786D02*
X152628845Y-71397236D01*
X170798657Y-122034480D02*
X170779258Y-121975757D01*
X172652767Y-97649264D02*
X172705016Y-97682350D01*
X125765579Y-69777960D02*
X125814333Y-69816009D01*
X170239233Y-52611198D02*
X170262181Y-52589384D01*
X173191342Y-149974480D02*
X173169085Y-150032179D01*
X170205439Y-108521729D02*
X170205630Y-108521561D01*
X170690166Y-84701548D02*
X170679986Y-84657677D01*
X125439480Y-153423657D02*
X125497179Y-153445914D01*
X124148837Y-97796403D02*
X124195666Y-97756009D01*
X152452820Y-127219085D02*
X152396281Y-127194023D01*
X126275000Y-55575586D02*
X126275000Y-65729877D01*
X170721838Y-79528978D02*
X170723441Y-79497358D01*
X156700741Y-65979242D02*
X156717236Y-66038845D01*
X169787291Y-27737636D02*
X169787057Y-27737539D01*
X169209041Y-83500203D02*
X169208914Y-83500201D01*
X173265000Y-126670122D02*
X173265000Y-149549877D01*
X126275003Y-27635340D02*
X126275000Y-27635586D01*
X169567322Y-52974986D02*
X169567568Y-52974926D01*
X171138837Y-122543596D02*
X171094047Y-122500952D01*
X171739186Y-122845786D02*
X171678845Y-122832236D01*
X173258929Y-26216498D02*
X173263479Y-26278174D01*
X172543718Y-97590976D02*
X172598958Y-97618781D01*
X155679879Y-127301359D02*
X155618501Y-127308929D01*
X126275638Y-111446997D02*
X126275496Y-111447466D01*
X169816386Y-83630122D02*
X169787291Y-83617636D01*
X170649983Y-135787212D02*
X170659461Y-135757004D01*
X124021009Y-66529333D02*
X123982960Y-66480579D01*
X170904264Y-126022232D02*
X170937350Y-125969983D01*
X170704629Y-135562362D02*
X170709423Y-135531066D01*
X123883781Y-122203958D02*
X123855976Y-122148718D01*
X126282466Y-111440496D02*
X126281997Y-111440638D01*
X169209041Y-53019796D02*
X169262105Y-53018451D01*
X171391041Y-97618781D02*
X171446281Y-97590976D01*
X170704587Y-140657387D02*
X170696642Y-140613057D01*
X123741070Y-149673501D02*
X123736520Y-149611825D01*
X156741359Y-70359879D02*
X156730786Y-70420813D01*
X126275281Y-83508424D02*
X126275209Y-83508909D01*
X126275003Y-139395340D02*
X126275000Y-139395586D01*
X170084374Y-136557468D02*
X170084581Y-136557321D01*
X170649904Y-135787453D02*
X170649983Y-135787212D01*
X172598958Y-125558781D02*
X172652767Y-125589264D01*
X125439480Y-150736342D02*
X125380757Y-150755741D01*
X170460697Y-136173179D02*
X170485480Y-136135575D01*
X171051403Y-122456162D02*
X171011009Y-122409333D01*
X124401041Y-125558781D02*
X124456281Y-125530976D01*
X126275000Y-83515586D02*
X126275000Y-93669877D01*
X126279375Y-136838042D02*
X126279783Y-136838314D01*
X156142767Y-127135735D02*
X156088958Y-127166218D01*
X171861498Y-39043929D02*
X171800120Y-39036359D01*
X124810120Y-125423640D02*
X124871498Y-125416070D01*
X151922960Y-65594420D02*
X151961009Y-65545666D01*
X170659534Y-163696761D02*
X170671923Y-163653462D01*
X169371140Y-83509851D02*
X169370888Y-83509822D01*
X169672453Y-139455095D02*
X169672212Y-139455016D01*
X118656957Y-20004375D02*
X118656685Y-20004783D01*
X156468990Y-98914333D02*
X156428596Y-98961162D01*
X173251359Y-149734879D02*
X173240786Y-149795813D01*
X170607363Y-135902291D02*
X170607460Y-135902057D01*
X124195666Y-38763990D02*
X124148837Y-38723596D01*
X172487179Y-66894085D02*
X172429480Y-66916342D01*
X156748929Y-42358501D02*
X156741359Y-42419879D01*
X125439480Y-94856342D02*
X125380757Y-94875741D01*
X170696594Y-84732808D02*
X170690221Y-84701796D01*
X124294983Y-25292350D02*
X124347232Y-25259264D01*
X124104047Y-150440952D02*
X124061403Y-150396162D01*
X170671990Y-107773218D02*
X170679926Y-107742568D01*
X170415665Y-52415881D02*
X170442321Y-52379581D01*
X123914264Y-153962232D02*
X123947350Y-153909983D01*
X170294384Y-111902818D02*
X170294207Y-111902637D01*
X170525342Y-28390534D02*
X170502495Y-28351723D01*
X123748640Y-166244879D02*
X123741070Y-166183501D01*
X170972960Y-125919420D02*
X171011009Y-125870666D01*
X152044047Y-126945952D02*
X152001403Y-126901162D01*
X156507039Y-42985579D02*
X156468990Y-43034333D01*
X125662767Y-122690735D02*
X125608958Y-122721218D01*
X172004877Y-150810000D02*
X171985122Y-150810000D01*
X170671923Y-56686537D02*
X170659534Y-56643238D01*
X170690166Y-79758451D02*
X170690221Y-79758203D01*
X170659461Y-28702995D02*
X170649983Y-28672787D01*
X170635253Y-84509692D02*
X170624257Y-84480002D01*
X126280637Y-53018798D02*
X126281081Y-53019008D01*
X123741070Y-98606498D02*
X123748640Y-98545120D01*
X151676520Y-126116825D02*
X151675000Y-126054877D01*
X156717236Y-38098845D02*
X156730786Y-38159186D01*
X126281534Y-27620803D02*
X126281081Y-27620991D01*
X156753479Y-94223174D02*
X156755000Y-94285122D01*
X124995122Y-125410000D02*
X125014877Y-125410000D01*
X126276432Y-164774795D02*
X126276685Y-164775216D01*
X170779258Y-121975757D02*
X170762763Y-121916154D01*
X156741359Y-94100120D02*
X156748929Y-94161498D01*
X124512820Y-41685914D02*
X124570519Y-41663657D01*
X170205439Y-83878270D02*
X170181417Y-83857647D01*
X171391041Y-69678781D02*
X171446281Y-69650976D01*
X170020575Y-139619519D02*
X170020361Y-139619382D01*
X125608958Y-125558781D02*
X125662767Y-125589264D01*
X126275000Y-98730122D02*
X126275000Y-108884413D01*
X126275000Y-136824413D02*
X126275003Y-136824659D01*
X126276432Y-139385204D02*
X126276201Y-139385637D01*
X123736520Y-166121825D02*
X123735000Y-166059877D01*
X152510519Y-121038657D02*
X152569242Y-121019258D01*
X178337057Y-172399623D02*
X178337533Y-172399503D01*
X169857541Y-108750971D02*
X169857770Y-108750862D01*
X126280637Y-80958798D02*
X126281081Y-80959008D01*
X169642004Y-139445538D02*
X169641761Y-139445465D01*
X126275136Y-108890111D02*
X126275136Y-108890111D01*
X169886195Y-80796919D02*
X169886421Y-80796805D01*
X125439480Y-41663657D02*
X125497179Y-41685914D01*
X170635253Y-107890307D02*
X170635338Y-107890069D01*
X124688845Y-41627763D02*
X124749186Y-41614213D01*
X169857770Y-80810862D02*
X169886195Y-80796919D01*
X126237236Y-149856154D02*
X126220741Y-149915757D01*
X170649983Y-140432787D02*
X170649904Y-140432546D01*
X124810120Y-94916359D02*
X124749186Y-94905786D01*
X169993276Y-111662504D02*
X169954465Y-111639657D01*
X152569242Y-121019258D02*
X152628845Y-121002763D01*
X124195666Y-125696009D02*
X124244420Y-125657960D01*
X125380757Y-94875741D02*
X125321154Y-94892236D01*
X126275376Y-111447942D02*
X126275281Y-111448424D01*
X151795976Y-65806281D02*
X151823781Y-65751041D01*
X156717236Y-66038845D02*
X156730786Y-66099186D01*
X124021009Y-150349333D02*
X123982960Y-150300579D01*
X126275376Y-139387942D02*
X126275281Y-139388424D01*
X156245579Y-93272960D02*
X156294333Y-93311009D01*
X170715148Y-28973859D02*
X170709458Y-28929183D01*
X123759213Y-26094186D02*
X123772763Y-26033845D01*
X173210741Y-166425757D02*
X173191342Y-166484480D01*
X123748640Y-70605120D02*
X123759213Y-70544186D01*
X169672212Y-136764983D02*
X169672453Y-136764904D01*
X169816618Y-111570225D02*
X169816386Y-111570122D01*
X172895952Y-125779047D02*
X172938596Y-125823837D01*
X126281534Y-111440803D02*
X126281081Y-111440991D01*
X124401041Y-97618781D02*
X124456281Y-97590976D01*
X169993493Y-164557364D02*
X170020361Y-164540617D01*
X151675000Y-150165122D02*
X151676520Y-150103174D01*
X152935122Y-148905000D02*
X155494877Y-148905000D01*
X170704587Y-84777387D02*
X170696642Y-84733057D01*
X152873174Y-43493479D02*
X152811498Y-43488929D01*
X126276432Y-111445204D02*
X126276201Y-111445637D01*
X151729258Y-38039242D02*
X151748657Y-37980519D01*
X126275281Y-55568424D02*
X126275209Y-55568909D01*
X170594877Y-80051386D02*
X170607363Y-80022291D01*
X126276685Y-139384783D02*
X126276432Y-139385204D01*
X126220741Y-42484242D02*
X126237236Y-42543845D01*
X170442468Y-136199374D02*
X170460555Y-136173389D01*
X170485480Y-136135575D02*
X170485617Y-136135361D01*
X169886421Y-108736805D02*
X169926339Y-108715953D01*
X170873781Y-154016041D02*
X170904264Y-153962232D01*
X169715069Y-83589661D02*
X169672453Y-83575095D01*
X152510519Y-37218657D02*
X152569242Y-37199258D01*
X152287232Y-127135735D02*
X152234983Y-127102649D01*
X170723451Y-112902894D02*
X170723441Y-112902641D01*
X170624166Y-28599765D02*
X170607460Y-28557942D01*
X170442468Y-112080625D02*
X170442321Y-112080418D01*
X170316370Y-56045952D02*
X170316198Y-56045766D01*
X169262358Y-111441558D02*
X169262105Y-111441548D01*
X126275003Y-80944659D02*
X126275136Y-80950111D01*
X170749213Y-93915813D02*
X170738640Y-93854879D01*
X170724796Y-107384041D02*
X170724798Y-107383914D01*
X151676520Y-66283174D02*
X151681070Y-66221498D01*
X170294207Y-111902637D02*
X170262362Y-111870792D01*
X172189879Y-150796359D02*
X172128501Y-150803929D01*
X170084581Y-139662678D02*
X170084374Y-139662531D01*
X156142767Y-155075735D02*
X156088958Y-155106218D01*
X124061403Y-69943837D02*
X124104047Y-69899047D01*
X123735000Y-42850122D02*
X123736520Y-42788174D01*
X172978990Y-153810666D02*
X173017039Y-153859420D01*
X171560519Y-150736342D02*
X171502820Y-150714085D01*
X126281534Y-108899196D02*
X126281997Y-108899361D01*
X169744997Y-108799257D02*
X169745234Y-108799166D01*
X155618501Y-43488929D02*
X155556825Y-43493479D01*
X126095735Y-70142232D02*
X126126218Y-70196041D01*
X156142767Y-37324264D02*
X156195016Y-37357350D01*
X169192956Y-111440000D02*
X126290586Y-111440000D01*
X151795976Y-70713718D02*
X151770914Y-70657179D01*
X126250786Y-154364186D02*
X126261359Y-154425120D01*
X126277891Y-80956761D02*
X126278238Y-80957108D01*
X151675000Y-98114877D02*
X151675000Y-94285122D01*
X126277250Y-108896018D02*
X126277561Y-108896397D01*
X170367514Y-111983777D02*
X170367352Y-111983582D01*
X170485480Y-112144424D02*
X170460697Y-112106820D01*
X169993276Y-83722504D02*
X169954465Y-83699657D01*
X170442321Y-80319581D02*
X170442468Y-80319374D01*
X152750120Y-99361359D02*
X152689186Y-99350786D01*
X173017039Y-25589420D02*
X173052649Y-25639983D01*
X126126218Y-98136041D02*
X126154023Y-98191281D01*
X172189879Y-122856359D02*
X172128501Y-122863929D01*
X170937350Y-66430016D02*
X170904264Y-66377767D01*
X170205439Y-111818270D02*
X170181417Y-111797647D01*
X170679986Y-107742322D02*
X170690166Y-107698451D01*
X126275136Y-111449888D02*
X126275003Y-111455340D01*
X126277561Y-53016397D02*
X126277891Y-53016761D01*
X123982960Y-150300579D02*
X123947350Y-150250016D01*
X124104047Y-41959047D02*
X124148837Y-41916403D01*
X169926562Y-136655833D02*
X169954245Y-136640468D01*
X124061403Y-150396162D02*
X124021009Y-150349333D01*
X171739186Y-69554213D02*
X171800120Y-69543640D01*
X123741070Y-42726498D02*
X123748640Y-42665120D01*
X126275376Y-136832057D02*
X126275496Y-136832533D01*
X172938596Y-122456162D02*
X172895952Y-122500952D01*
X169567322Y-55605013D02*
X169523451Y-55594833D01*
X155801154Y-155217236D02*
X155740813Y-155230786D01*
X125948596Y-125823837D02*
X125988990Y-125870666D01*
X173210741Y-38155757D02*
X173191342Y-38214480D01*
X172250813Y-97494213D02*
X172311154Y-97507763D01*
X169715069Y-139469661D02*
X169672453Y-139455095D01*
X170709423Y-135531066D02*
X170709458Y-135530816D01*
X170575971Y-140247458D02*
X170575862Y-140247229D01*
X169371140Y-55569851D02*
X169370888Y-55569822D01*
X170724798Y-112956085D02*
X170724796Y-112955958D01*
X126280204Y-83501432D02*
X126279783Y-83501685D01*
X170724999Y-37789877D02*
X170725000Y-29152043D01*
X170239047Y-111848629D02*
X170205630Y-111818438D01*
X125814333Y-97756009D02*
X125861162Y-97796403D01*
X125321154Y-94892236D02*
X125260813Y-94905786D01*
X170442468Y-164139374D02*
X170460555Y-164113389D01*
X156195016Y-65297350D02*
X156245579Y-65332960D01*
X151676520Y-154056825D02*
X151675000Y-153994877D01*
X173251359Y-154425120D02*
X173258929Y-154486498D01*
X125715016Y-97682350D02*
X125765579Y-97717960D01*
X172895952Y-97839047D02*
X172938596Y-97883837D01*
X156659085Y-126537179D02*
X156634023Y-126593718D01*
X169523203Y-55594778D02*
X169492191Y-55588405D01*
X156730786Y-121979186D02*
X156741359Y-122040120D01*
X126284888Y-80959863D02*
X126290340Y-80959996D01*
X152689186Y-43470786D02*
X152628845Y-43457236D01*
X170181417Y-80602352D02*
X170205439Y-80581729D01*
X126280204Y-139381432D02*
X126279783Y-139381685D01*
X123855976Y-94208718D02*
X123830914Y-94152179D01*
X172066825Y-122868479D02*
X172004877Y-122870000D01*
X126277561Y-80956397D02*
X126277891Y-80956761D01*
X170715177Y-135485888D02*
X170718380Y-135454390D01*
X171011009Y-66529333D02*
X170972960Y-66480579D01*
X169926339Y-52835953D02*
X169926562Y-52835833D01*
X178344863Y-172390111D02*
X178344996Y-172384659D01*
X125321154Y-122832236D02*
X125260813Y-122845786D01*
X172128501Y-122863929D02*
X172066825Y-122868479D01*
X170120881Y-136530665D02*
X170121083Y-136530512D01*
X152001403Y-126901162D02*
X151961009Y-126854333D01*
X169787291Y-139497636D02*
X169787057Y-139497539D01*
X170485617Y-112144638D02*
X170485480Y-112144424D01*
X170460697Y-84166820D02*
X170460555Y-84166610D01*
X170738640Y-121794879D02*
X170731070Y-121733501D01*
X178344839Y-172390601D02*
X178344863Y-172390111D01*
X126154023Y-98191281D02*
X126179085Y-98247820D01*
X170718380Y-107514390D02*
X170718402Y-107514138D01*
X171051403Y-153763837D02*
X171094047Y-153719047D01*
X126290586Y-164780000D02*
X169192956Y-164780000D01*
X169642004Y-111505538D02*
X169641761Y-111505465D01*
X151770914Y-126537179D02*
X151748657Y-126479480D01*
X169715069Y-136750338D02*
X169715307Y-136750253D01*
X156748929Y-38281498D02*
X156753479Y-38343174D01*
X170749213Y-121855813D02*
X170738640Y-121794879D01*
X123830914Y-42367820D02*
X123855976Y-42311281D01*
X123759213Y-93915813D02*
X123748640Y-93854879D01*
X173251359Y-126485120D02*
X173258929Y-126546498D01*
X125553718Y-38929023D02*
X125497179Y-38954085D01*
X170704629Y-28897637D02*
X170704587Y-28897387D01*
X156634023Y-154533718D02*
X156606218Y-154588958D01*
X124195666Y-97756009D02*
X124244420Y-97717960D01*
X169954465Y-80760342D02*
X169993276Y-80737495D01*
X171923174Y-97471520D02*
X171985122Y-97470000D01*
X170575971Y-163912541D02*
X170594774Y-163871618D01*
X170205630Y-55938438D02*
X170205439Y-55938270D01*
X124810120Y-41603640D02*
X124871498Y-41596070D01*
X170972960Y-70039420D02*
X171011009Y-69990666D01*
X169192956Y-136840000D02*
X169193082Y-136839999D01*
X152873174Y-93026520D02*
X152935122Y-93025000D01*
X170696642Y-112673057D02*
X170696594Y-112672808D01*
X170058179Y-139644302D02*
X170020575Y-139619519D01*
X151681070Y-154118501D02*
X151676520Y-154056825D01*
X125662767Y-97649264D02*
X125715016Y-97682350D01*
X169816618Y-52889774D02*
X169857541Y-52870971D01*
X126290586Y-53020000D02*
X169192956Y-53020000D01*
X169672212Y-139455016D02*
X169642004Y-139445538D01*
X173116218Y-98136041D02*
X173144023Y-98191281D01*
X173210741Y-154244242D02*
X173227236Y-154303845D01*
X169598218Y-139433009D02*
X169567568Y-139425073D01*
X172370757Y-125464258D02*
X172429480Y-125483657D01*
X155494877Y-155255000D02*
X152935122Y-155255000D01*
X125076825Y-41591520D02*
X125138501Y-41596070D01*
X173210741Y-126304242D02*
X173227236Y-126363845D01*
X124512820Y-97565914D02*
X124570519Y-97543657D01*
X123830914Y-25857820D02*
X123855976Y-25801281D01*
X169447362Y-164759629D02*
X169447612Y-164759587D01*
X124294983Y-122657649D02*
X124244420Y-122622039D01*
X170316198Y-139865766D02*
X170294384Y-139842818D01*
X156428596Y-43081162D02*
X156385952Y-43125952D01*
X172311154Y-122832236D02*
X172250813Y-122845786D01*
X170294384Y-80497181D02*
X170316198Y-80474233D01*
X156755000Y-126054877D02*
X156753479Y-126116825D01*
X126278238Y-136837108D02*
X126278602Y-136837438D01*
X124456281Y-41710976D02*
X124512820Y-41685914D01*
X169339138Y-111446597D02*
X169294231Y-111443177D01*
X169672212Y-27695016D02*
X169642004Y-27685538D01*
X170575862Y-108032770D02*
X170575971Y-108032541D01*
X170779258Y-42484242D02*
X170798657Y-42425519D01*
X170696594Y-135607191D02*
X170696642Y-135606942D01*
X123947350Y-38490016D02*
X123914264Y-38437767D01*
X170146120Y-80631132D02*
X170146318Y-80630975D01*
X170525342Y-136069465D02*
X170525468Y-136069245D01*
X156748929Y-70298501D02*
X156741359Y-70359879D01*
X126283424Y-108899718D02*
X126283909Y-108899790D01*
X172652767Y-167140735D02*
X172598958Y-167171218D01*
X123982960Y-122360579D02*
X123947350Y-122310016D01*
X169415816Y-139395541D02*
X169371140Y-139389851D01*
X170659534Y-140463238D02*
X170659461Y-140462995D01*
X123855976Y-122148718D02*
X123830914Y-122092179D01*
X151688640Y-42419879D02*
X151681070Y-42358501D01*
X172938596Y-166906162D02*
X172895952Y-166950952D01*
X126250786Y-121855813D02*
X126237236Y-121916154D01*
X170723441Y-57022641D02*
X170721838Y-56991021D01*
X126276201Y-55565637D02*
X126275991Y-55566081D01*
X156385952Y-71065952D02*
X156341162Y-71108596D01*
X172598958Y-38901218D02*
X172543718Y-38929023D01*
X172652767Y-150630735D02*
X172598958Y-150661218D01*
X170502364Y-84231506D02*
X170485617Y-84204638D01*
X170020575Y-83739519D02*
X170020361Y-83739382D01*
X125948596Y-69943837D02*
X125988990Y-69990666D01*
X124871498Y-97476070D02*
X124933174Y-97471520D01*
X170715148Y-79606140D02*
X170715177Y-79605888D01*
X152044047Y-99005952D02*
X152001403Y-98961162D01*
X125662767Y-41769264D02*
X125715016Y-41802350D01*
X170502364Y-140111506D02*
X170485617Y-140084638D01*
X155977179Y-37240914D02*
X156033718Y-37265976D01*
X155977179Y-99279085D02*
X155919480Y-99301342D01*
X172978990Y-122409333D02*
X172938596Y-122456162D01*
X126275209Y-108891090D02*
X126275281Y-108891575D01*
X171560519Y-69603657D02*
X171619242Y-69584258D01*
X124871498Y-39043929D02*
X124810120Y-39036359D01*
X124688845Y-125447763D02*
X124749186Y-125434213D01*
X172004877Y-97470000D02*
X172066825Y-97471520D01*
X169787057Y-80842460D02*
X169787291Y-80842363D01*
X125948596Y-150396162D02*
X125905952Y-150440952D01*
X126268929Y-149673501D02*
X126261359Y-149734879D01*
X170649904Y-112492546D02*
X170635338Y-112449930D01*
X156634023Y-93746281D02*
X156659085Y-93802820D01*
X170690221Y-84701796D02*
X170690166Y-84701548D01*
X173240786Y-121855813D02*
X173227236Y-121916154D01*
X156741359Y-126239879D02*
X156730786Y-126300813D01*
X126062649Y-98029983D02*
X126095735Y-98082232D01*
X172311154Y-125447763D02*
X172370757Y-125464258D01*
X155801154Y-93062763D02*
X155860757Y-93079258D01*
X170726520Y-37851825D02*
X170724999Y-37789877D01*
X152750120Y-65098640D02*
X152811498Y-65091070D01*
X169954465Y-111639657D02*
X169954245Y-111639531D01*
X169447612Y-164759587D02*
X169491942Y-164751642D01*
X170690221Y-107698203D02*
X170696594Y-107667191D01*
X169370888Y-53010177D02*
X169371140Y-53010148D01*
X170367514Y-136296222D02*
X170395975Y-136261318D01*
X170146318Y-80630975D02*
X170181222Y-80602514D01*
X171560519Y-66916342D02*
X171502820Y-66894085D01*
X170845976Y-122148718D02*
X170820914Y-122092179D01*
X169339390Y-27626619D02*
X169339138Y-27626597D01*
X124021009Y-122409333D02*
X123982960Y-122360579D01*
X123759213Y-65975813D02*
X123748640Y-65914879D01*
X156088958Y-43346218D02*
X156033718Y-43374023D01*
X126275000Y-65729877D02*
X126273479Y-65791825D01*
X169993493Y-136617364D02*
X170020361Y-136600617D01*
X170709423Y-140688933D02*
X170704629Y-140657637D01*
X126268929Y-121733501D02*
X126261359Y-121794879D01*
X171800120Y-66976359D02*
X171739186Y-66965786D01*
X171800120Y-97483640D02*
X171861498Y-97476070D01*
X125765579Y-38802039D02*
X125715016Y-38837649D01*
X169447612Y-136819587D02*
X169491942Y-136811642D01*
X172311154Y-150772236D02*
X172250813Y-150785786D01*
X125260813Y-41614213D02*
X125321154Y-41627763D01*
X123808657Y-38214480D02*
X123789258Y-38155757D01*
X126281997Y-111440638D02*
X126281534Y-111440803D01*
X169491942Y-164751642D02*
X169492191Y-164751594D01*
X126275000Y-42850122D02*
X126275000Y-53004413D01*
X169787291Y-136722363D02*
X169816386Y-136709877D01*
X170020361Y-136600617D02*
X170020575Y-136600480D01*
X171800120Y-150796359D02*
X171739186Y-150785786D01*
X152234983Y-43282649D02*
X152184420Y-43247039D01*
X126282466Y-139380496D02*
X126281997Y-139380638D01*
X170205630Y-83878438D02*
X170205439Y-83878270D01*
X155919480Y-127241342D02*
X155860757Y-127260741D01*
X171923174Y-122868479D02*
X171861498Y-122863929D01*
X170594877Y-135931386D02*
X170607363Y-135902291D01*
X170704629Y-84777637D02*
X170704587Y-84777387D01*
X124749186Y-150785786D02*
X124688845Y-150772236D01*
X126283909Y-27620209D02*
X126283424Y-27620281D01*
X170575862Y-56427229D02*
X170561919Y-56398804D01*
X169642004Y-80894461D02*
X169672212Y-80884983D01*
X169293978Y-108896838D02*
X169294231Y-108896822D01*
X169523451Y-52985166D02*
X169567322Y-52974986D01*
X124688845Y-122832236D02*
X124629242Y-122815741D01*
X170442468Y-84140625D02*
X170442321Y-84140418D01*
X156753479Y-42296825D02*
X156748929Y-42358501D01*
X170873781Y-66323958D02*
X170845976Y-66268718D01*
X155494877Y-93025000D02*
X155556825Y-93026520D01*
X171739186Y-97494213D02*
X171800120Y-97483640D01*
X125497179Y-66894085D02*
X125439480Y-66916342D01*
X170561919Y-28458804D02*
X170561805Y-28458578D01*
X170575971Y-135972541D02*
X170594774Y-135931618D01*
X173052649Y-38490016D02*
X173017039Y-38540579D01*
X170058389Y-111704444D02*
X170058179Y-111704302D01*
X170415665Y-80355881D02*
X170442321Y-80319581D01*
X173227236Y-126363845D02*
X173240786Y-126424186D01*
X125138501Y-97476070D02*
X125199879Y-97483640D01*
X170798657Y-70365519D02*
X170820914Y-70307820D01*
X170724798Y-51503914D02*
X170724999Y-51488082D01*
X123947350Y-98029983D02*
X123982960Y-97979420D01*
X172804333Y-25366009D02*
X172851162Y-25406403D01*
X169193082Y-111440000D02*
X169192956Y-111440000D01*
X172370757Y-94875741D02*
X172311154Y-94892236D01*
X126275000Y-53004413D02*
X126275003Y-53004659D01*
X169370888Y-164770177D02*
X169371140Y-164770148D01*
X155801154Y-121002763D02*
X155860757Y-121019258D01*
X126281081Y-55560991D02*
X126280637Y-55561201D01*
X173210741Y-98364242D02*
X173227236Y-98423845D01*
X172543718Y-122749023D02*
X172487179Y-122774085D01*
X125497179Y-69625914D02*
X125553718Y-69650976D01*
X126278602Y-108897438D02*
X126278981Y-108897749D01*
X156700741Y-42600757D02*
X156681342Y-42659480D01*
X151854264Y-93637232D02*
X151887350Y-93584983D01*
X170502364Y-112171506D02*
X170485617Y-112144638D01*
X123789258Y-121975757D02*
X123772763Y-121916154D01*
X169926562Y-80775833D02*
X169954245Y-80760468D01*
X171560519Y-94856342D02*
X171502820Y-94834085D01*
X172705016Y-122657649D02*
X172652767Y-122690735D01*
X118661997Y-172399361D02*
X118662466Y-172399503D01*
X173240786Y-26094186D02*
X173251359Y-26155120D01*
X170696642Y-28853057D02*
X170696594Y-28852808D01*
X170415512Y-84103916D02*
X170396132Y-84078879D01*
X170239047Y-80551370D02*
X170239233Y-80551198D01*
X169492191Y-108871594D02*
X169523203Y-108865221D01*
X169816386Y-108769877D02*
X169816618Y-108769774D01*
X126281081Y-136839008D02*
X126281534Y-136839196D01*
X126179085Y-38272179D02*
X126154023Y-38328718D01*
X125948596Y-122456162D02*
X125905952Y-122500952D01*
X173240786Y-38035813D02*
X173227236Y-38096154D01*
X156753479Y-66283174D02*
X156755000Y-66345122D01*
X170262181Y-55990615D02*
X170239233Y-55968801D01*
X172851162Y-25406403D02*
X172895952Y-25449047D01*
X152873174Y-71433479D02*
X152811498Y-71428929D01*
X118656957Y-172395624D02*
X118657250Y-172396018D01*
X126275000Y-139395586D02*
X126275000Y-149549877D01*
X170723441Y-163317358D02*
X170723451Y-163317105D01*
X171861498Y-97476070D02*
X171923174Y-97471520D01*
X170460697Y-112106820D02*
X170460555Y-112106610D01*
X155919480Y-93098657D02*
X155977179Y-93120914D01*
X123914264Y-94317767D02*
X123883781Y-94263958D01*
X170485617Y-108195361D02*
X170502364Y-108168493D01*
X169715307Y-164690253D02*
X169744997Y-164679257D01*
X156753479Y-70236825D02*
X156748929Y-70298501D01*
X170690166Y-28821548D02*
X170679986Y-28777677D01*
X155679879Y-120978640D02*
X155740813Y-120989213D01*
X151961009Y-70974333D02*
X151922960Y-70925579D01*
X152135666Y-127028990D02*
X152088837Y-126988596D01*
X125439480Y-122796342D02*
X125380757Y-122815741D01*
X155860757Y-71380741D02*
X155801154Y-71397236D01*
X170525342Y-52249465D02*
X170525468Y-52249245D01*
X172066825Y-41591520D02*
X172128501Y-41596070D01*
X126278602Y-27622561D02*
X126278238Y-27622891D01*
X170561919Y-112278804D02*
X170561805Y-112278578D01*
X170696642Y-107666942D02*
X170704587Y-107622612D01*
X170704629Y-79682362D02*
X170709423Y-79651066D01*
X169447362Y-80939629D02*
X169447612Y-80939587D01*
X156755000Y-42234877D02*
X156755000Y-42234877D01*
X126275496Y-55567466D02*
X126275376Y-55567942D01*
X170442321Y-52379581D02*
X170442468Y-52379374D01*
X172652767Y-25259264D02*
X172705016Y-25292350D01*
X173169085Y-126187820D02*
X173191342Y-126245519D01*
X125321154Y-125447763D02*
X125380757Y-125464258D01*
X126275991Y-83506081D02*
X126275803Y-83506534D01*
X152750120Y-148918640D02*
X152811498Y-148911070D01*
X169857770Y-83649137D02*
X169857541Y-83649028D01*
X152873174Y-155253479D02*
X152811498Y-155248929D01*
X178338918Y-172399008D02*
X178339362Y-172398798D01*
X125199879Y-69543640D02*
X125260813Y-69554213D01*
X126179085Y-154127820D02*
X126201342Y-154185519D01*
X126220741Y-66095757D02*
X126201342Y-66154480D01*
X170723451Y-79497105D02*
X170724796Y-79444041D01*
X151712763Y-149858845D02*
X151729258Y-149799242D01*
X170696594Y-140612808D02*
X170690221Y-140581796D01*
X173191342Y-94094480D02*
X173169085Y-94152179D01*
X126027039Y-122360579D02*
X125988990Y-122409333D01*
X123736520Y-42788174D02*
X123741070Y-42726498D01*
X169209041Y-108899796D02*
X169262105Y-108898451D01*
X170561919Y-108061195D02*
X170575862Y-108032770D01*
X124244420Y-38802039D02*
X124195666Y-38763990D01*
X170262181Y-139810615D02*
X170239233Y-139788801D01*
X156700741Y-149799242D02*
X156717236Y-149858845D01*
X169209041Y-164779796D02*
X169262105Y-164778451D01*
X169523451Y-27654833D02*
X169523203Y-27654778D01*
X126279783Y-80958314D02*
X126280204Y-80958567D01*
X171861498Y-94923929D02*
X171800120Y-94916359D01*
X126275209Y-136831090D02*
X126275281Y-136831575D01*
X126278981Y-55562250D02*
X126278602Y-55562561D01*
X151676520Y-122163174D02*
X151681070Y-122101498D01*
X170690221Y-112641796D02*
X170690166Y-112641548D01*
X169672453Y-108824904D02*
X169715069Y-108810338D01*
X124195666Y-153636009D02*
X124244420Y-153597960D01*
X169523203Y-83534778D02*
X169492191Y-83528405D01*
X126237236Y-126363845D02*
X126250786Y-126424186D01*
X155740813Y-99350786D02*
X155679879Y-99361359D01*
X170525342Y-80189465D02*
X170525468Y-80189245D01*
X126277250Y-139383981D02*
X126276957Y-139384375D01*
X169293978Y-164776838D02*
X169294231Y-164776822D01*
X170395975Y-84078681D02*
X170367514Y-84043777D01*
X125553718Y-66869023D02*
X125497179Y-66894085D01*
X170525468Y-28390754D02*
X170525342Y-28390534D01*
X156428596Y-98961162D02*
X156385952Y-99005952D01*
X123741070Y-70666498D02*
X123748640Y-70605120D01*
X156088958Y-121113781D02*
X156142767Y-121144264D01*
X170820914Y-150032179D02*
X170798657Y-149974480D01*
X126279783Y-53018314D02*
X126280204Y-53018567D01*
X156741359Y-122040120D02*
X156748929Y-122101498D01*
X118664888Y-172399863D02*
X118670340Y-172399996D01*
X126277250Y-53016018D02*
X126277561Y-53016397D01*
X156634023Y-149626281D02*
X156659085Y-149682820D01*
X156659085Y-149682820D02*
X156681342Y-149740519D01*
X123772763Y-166366154D02*
X123759213Y-166305813D01*
X170845976Y-98191281D02*
X170873781Y-98136041D01*
X125715016Y-122657649D02*
X125662767Y-122690735D01*
X156741359Y-149980120D02*
X156748929Y-150041498D01*
X178344863Y-20009888D02*
X178344839Y-20009398D01*
X170367352Y-136296417D02*
X170367514Y-136296222D01*
X170561805Y-80121421D02*
X170561919Y-80121195D01*
X156341162Y-65411403D02*
X156385952Y-65454047D01*
X156730786Y-42480813D02*
X156717236Y-42541154D01*
X125608958Y-38901218D02*
X125553718Y-38929023D01*
X172004877Y-39050000D02*
X171985122Y-39050000D01*
X126283424Y-53019718D02*
X126283909Y-53019790D01*
X170575862Y-28487229D02*
X170561919Y-28458804D01*
X170181417Y-111797647D02*
X170181222Y-111797485D01*
X126126218Y-150143958D02*
X126095735Y-150197767D01*
X123735000Y-70790122D02*
X123736520Y-70728174D01*
X172311154Y-94892236D02*
X172250813Y-94905786D01*
X170607460Y-84437942D02*
X170607363Y-84437708D01*
X172189879Y-167306359D02*
X172128501Y-167313929D01*
X170181417Y-83857647D02*
X170181222Y-83857485D01*
X170679986Y-135682322D02*
X170690166Y-135638451D01*
X126275000Y-37789877D02*
X126273479Y-37851825D01*
X151854264Y-98762767D02*
X151823781Y-98708958D01*
X151729258Y-149799242D02*
X151748657Y-149740519D01*
X173258929Y-149673501D02*
X173251359Y-149734879D01*
X170704587Y-107622612D02*
X170704629Y-107622362D01*
X169262105Y-27621548D02*
X169209041Y-27620203D01*
X178341397Y-172397438D02*
X178341761Y-172397108D01*
X170671923Y-135713462D02*
X170671990Y-135713218D01*
X171185666Y-66703990D02*
X171138837Y-66663596D01*
X170442468Y-140020625D02*
X170442321Y-140020418D01*
X126027039Y-42099420D02*
X126062649Y-42149983D01*
X156142767Y-93204264D02*
X156195016Y-93237350D01*
X171051403Y-69943837D02*
X171094047Y-69899047D01*
X169262105Y-55561548D02*
X169209041Y-55560203D01*
X152135666Y-43208990D02*
X152088837Y-43168596D01*
X156033718Y-43374023D02*
X155977179Y-43399085D01*
X126279375Y-108898042D02*
X126279783Y-108898314D01*
X169416066Y-108884423D02*
X169447362Y-108879629D01*
X171985122Y-150810000D02*
X171923174Y-150808479D01*
X124871498Y-69536070D02*
X124933174Y-69531520D01*
X151748657Y-121800519D02*
X151770914Y-121742820D01*
X155556825Y-71433479D02*
X155494877Y-71435000D01*
X173144023Y-25801281D02*
X173169085Y-25857820D01*
X170820914Y-98247820D02*
X170845976Y-98191281D01*
X170724999Y-79428082D02*
X170724999Y-79427956D01*
X125380757Y-69584258D02*
X125439480Y-69603657D01*
X123789258Y-25974242D02*
X123808657Y-25915519D01*
X151675000Y-66345122D02*
X151676520Y-66283174D01*
X170485480Y-108195575D02*
X170485617Y-108195361D01*
X169598462Y-52966923D02*
X169641761Y-52954534D01*
X124749186Y-94905786D02*
X124688845Y-94892236D01*
X170485617Y-28324638D02*
X170485480Y-28324424D01*
X118655991Y-20006081D02*
X118655803Y-20006534D01*
X170561805Y-28458578D02*
X170540953Y-28418660D01*
X151675000Y-94285122D02*
X151676520Y-94223174D01*
X124933174Y-39048479D02*
X124871498Y-39043929D01*
X169816386Y-52889877D02*
X169816618Y-52889774D01*
X124629242Y-69584258D02*
X124688845Y-69567763D01*
X126275803Y-164773465D02*
X126275991Y-164773918D01*
X125948596Y-38636162D02*
X125905952Y-38680952D01*
X170715177Y-28974111D02*
X170715148Y-28973859D01*
X124933174Y-97471520D02*
X124995122Y-97470000D01*
X123808657Y-42425519D02*
X123830914Y-42367820D01*
X126281997Y-108899361D02*
X126282466Y-108899503D01*
X170690166Y-163578451D02*
X170690221Y-163578203D01*
X172804333Y-125696009D02*
X172851162Y-125736403D01*
X170594877Y-84408613D02*
X170594774Y-84408381D01*
X126275991Y-164773918D02*
X126276201Y-164774362D01*
X152628845Y-65122763D02*
X152689186Y-65109213D01*
X178338465Y-172399196D02*
X178338918Y-172399008D01*
X178344623Y-172392057D02*
X178344718Y-172391575D01*
X126277891Y-83503238D02*
X126277561Y-83503602D01*
X170607363Y-107962291D02*
X170607460Y-107962057D01*
X173085735Y-42202232D02*
X173116218Y-42256041D01*
X126290340Y-83500003D02*
X126284888Y-83500136D01*
X170635253Y-135830307D02*
X170635338Y-135830069D01*
X169491942Y-139408357D02*
X169447612Y-139400412D01*
X126276432Y-83505204D02*
X126276201Y-83505637D01*
X170721822Y-29050768D02*
X170718402Y-29005861D01*
X126201342Y-126245519D02*
X126220741Y-126304242D01*
X125662767Y-69709264D02*
X125715016Y-69742350D01*
X151688640Y-126239879D02*
X151681070Y-126178501D01*
X170715177Y-163425888D02*
X170718380Y-163394390D01*
X123735000Y-93669877D02*
X123735000Y-70790122D01*
X170723441Y-29082641D02*
X170721838Y-29051021D01*
X169339390Y-83506619D02*
X169339138Y-83506597D01*
X173265000Y-121609877D02*
X173263479Y-121671825D01*
X170316370Y-80474047D02*
X170346561Y-80440630D01*
X172938596Y-150396162D02*
X172895952Y-150440952D01*
X172250813Y-150785786D02*
X172189879Y-150796359D01*
X151770914Y-42717179D02*
X151748657Y-42659480D01*
X152935122Y-37145000D02*
X155494877Y-37145000D01*
X124195666Y-94643990D02*
X124148837Y-94603596D01*
X172938596Y-125823837D02*
X172978990Y-125870666D01*
X125988990Y-69990666D02*
X126027039Y-70039420D01*
X170540953Y-112238660D02*
X170540833Y-112238437D01*
X169715307Y-136750253D02*
X169744997Y-136739257D01*
X126237236Y-38096154D02*
X126220741Y-38155757D01*
X172978990Y-150349333D02*
X172938596Y-150396162D01*
X170594774Y-56468381D02*
X170575971Y-56427458D01*
X152452820Y-99279085D02*
X152396281Y-99254023D01*
X170084374Y-111722531D02*
X170058389Y-111704444D01*
X170316198Y-111925766D02*
X170294384Y-111902818D01*
X170715148Y-107546140D02*
X170715177Y-107545888D01*
X151823781Y-93691041D02*
X151854264Y-93637232D01*
X173240786Y-126424186D02*
X173251359Y-126485120D01*
X123772763Y-121916154D02*
X123759213Y-121855813D01*
X124104047Y-94560952D02*
X124061403Y-94516162D01*
X173144023Y-122148718D02*
X173116218Y-122203958D01*
X118655160Y-172390601D02*
X118655209Y-172391090D01*
X126275803Y-27626534D02*
X126275638Y-27626997D01*
X170709423Y-56868933D02*
X170704629Y-56837637D01*
X178344996Y-20015340D02*
X178344863Y-20009888D01*
X170540953Y-136041339D02*
X170561805Y-136001421D01*
X170696642Y-163546942D02*
X170704587Y-163502612D01*
X152044047Y-121334047D02*
X152088837Y-121291403D01*
X169641761Y-111505465D02*
X169598462Y-111493076D01*
X126275281Y-27628424D02*
X126275209Y-27628909D01*
X170607363Y-80022291D02*
X170607460Y-80022057D01*
X124456281Y-97590976D02*
X124512820Y-97565914D01*
X169745234Y-108799166D02*
X169787057Y-108782460D01*
X126276201Y-80954362D02*
X126276432Y-80954795D01*
X126277891Y-108896761D02*
X126278238Y-108897108D01*
X156033718Y-149025976D02*
X156088958Y-149053781D01*
X170972960Y-150300579D02*
X170937350Y-150250016D01*
X171739186Y-66965786D02*
X171678845Y-66952236D01*
X170239047Y-139788629D02*
X170205630Y-139758438D01*
X126095735Y-38437767D02*
X126062649Y-38490016D01*
X170146318Y-83829024D02*
X170146120Y-83828867D01*
X156575735Y-149517232D02*
X156606218Y-149571041D01*
X126268929Y-154486498D02*
X126273479Y-154548174D01*
X152510519Y-148978657D02*
X152569242Y-148959258D01*
X170718402Y-135454138D02*
X170721822Y-135409231D01*
X172755579Y-97717960D02*
X172804333Y-97756009D01*
X170262362Y-80529207D02*
X170294207Y-80497362D01*
X151675000Y-66345122D02*
X151675000Y-66345122D01*
X170294384Y-108437181D02*
X170316198Y-108414233D01*
X156730786Y-98360813D02*
X156717236Y-98421154D01*
X123947350Y-125969983D02*
X123982960Y-125919420D01*
X171185666Y-69816009D02*
X171234420Y-69777960D01*
X170181222Y-164422514D02*
X170181417Y-164422352D01*
X151681070Y-70298501D02*
X151676520Y-70236825D01*
X169293978Y-139383161D02*
X169262358Y-139381558D01*
X171678845Y-66952236D02*
X171619242Y-66935741D01*
X169926562Y-139564166D02*
X169926339Y-139564046D01*
X156730786Y-38159186D02*
X156741359Y-38220120D01*
X155618501Y-120971070D02*
X155679879Y-120978640D01*
X170181417Y-27977647D02*
X170181222Y-27977485D01*
X155919480Y-43421342D02*
X155860757Y-43440741D01*
X172487179Y-25175914D02*
X172543718Y-25200976D01*
X126275000Y-149549877D02*
X126273479Y-149611825D01*
X170561919Y-56398804D02*
X170561805Y-56398578D01*
X170635338Y-52010069D02*
X170649904Y-51967453D01*
X171446281Y-122749023D02*
X171391041Y-122721218D01*
X170725000Y-112972043D02*
X170724999Y-112971917D01*
X169816386Y-111570122D02*
X169787291Y-111557636D01*
X156730786Y-70420813D02*
X156717236Y-70481154D01*
X169715307Y-80870253D02*
X169744997Y-80859257D01*
X170181222Y-108542514D02*
X170181417Y-108542352D01*
X172429480Y-66916342D02*
X172370757Y-66935741D01*
X169641761Y-55625465D02*
X169598462Y-55613076D01*
X125260813Y-122845786D02*
X125199879Y-122856359D01*
X123759213Y-38035813D02*
X123748640Y-37974879D01*
X156468990Y-93485666D02*
X156507039Y-93534420D01*
X169672453Y-27695095D02*
X169672212Y-27695016D01*
X126276432Y-27625204D02*
X126276201Y-27625637D01*
X126284398Y-111440160D02*
X126283909Y-111440209D01*
X118655803Y-20006534D02*
X118655638Y-20006997D01*
X170442468Y-108259374D02*
X170460555Y-108233389D01*
X169262105Y-111441548D02*
X169209041Y-111440203D01*
X156681342Y-154419480D02*
X156659085Y-154477179D01*
X170460697Y-52353179D02*
X170485480Y-52315575D01*
X156142767Y-149084264D02*
X156195016Y-149117350D01*
X125260813Y-97494213D02*
X125321154Y-97507763D01*
X170671990Y-79833218D02*
X170679926Y-79802568D01*
X118655496Y-20007466D02*
X118655376Y-20007942D01*
X125439480Y-97543657D02*
X125497179Y-97565914D01*
X170659461Y-51937004D02*
X170659534Y-51936761D01*
X125988990Y-150349333D02*
X125948596Y-150396162D01*
X123914264Y-166707767D02*
X123883781Y-166653958D01*
X156542649Y-37704983D02*
X156575735Y-37757232D01*
X172851162Y-153676403D02*
X172895952Y-153719047D01*
X170460555Y-108233389D02*
X170460697Y-108233179D01*
X125662767Y-125589264D02*
X125715016Y-125622350D01*
X169567568Y-164734926D02*
X169598218Y-164726990D01*
X151712763Y-98421154D02*
X151699213Y-98360813D01*
X125905952Y-94560952D02*
X125861162Y-94603596D01*
X126268929Y-37913501D02*
X126261359Y-37974879D01*
X173258929Y-121733501D02*
X173251359Y-121794879D01*
X173144023Y-150088718D02*
X173116218Y-150143958D01*
X156575735Y-70822767D02*
X156542649Y-70875016D01*
X169857541Y-139529028D02*
X169816618Y-139510225D01*
X125199879Y-122856359D02*
X125138501Y-122863929D01*
X156088958Y-155106218D02*
X156033718Y-155134023D01*
X126261359Y-149734879D02*
X126250786Y-149795813D01*
X172851162Y-122543596D02*
X172804333Y-122583990D01*
X170659461Y-84582995D02*
X170649983Y-84552787D01*
X170738640Y-149734879D02*
X170731070Y-149673501D01*
X171011009Y-97930666D02*
X171051403Y-97883837D01*
X169954465Y-83699657D02*
X169954245Y-83699531D01*
X170718402Y-107514138D02*
X170721822Y-107469231D01*
X156385952Y-37514047D02*
X156428596Y-37558837D01*
X170704587Y-28897387D02*
X170696642Y-28853057D01*
X171185666Y-97756009D02*
X171234420Y-97717960D01*
X169672453Y-164704904D02*
X169715069Y-164690338D01*
X156659085Y-65862820D02*
X156681342Y-65920519D01*
X170671923Y-107773462D02*
X170671990Y-107773218D01*
X152287232Y-65264264D02*
X152341041Y-65233781D01*
X170721838Y-107468978D02*
X170723441Y-107437358D01*
X126281081Y-139380991D02*
X126280637Y-139381201D01*
X126275803Y-139386534D02*
X126275638Y-139386997D01*
X170798657Y-38214480D02*
X170779258Y-38155757D01*
X151770914Y-70657179D02*
X151748657Y-70599480D01*
X172978990Y-69990666D02*
X173017039Y-70039420D01*
X118662942Y-20000376D02*
X118662466Y-20000496D01*
X170709423Y-107591066D02*
X170709458Y-107590816D01*
X125260813Y-150785786D02*
X125199879Y-150796359D01*
X173144023Y-38328718D02*
X173116218Y-38383958D01*
X170316370Y-28105952D02*
X170316198Y-28105766D01*
X169492191Y-136811594D02*
X169523203Y-136805221D01*
X125497179Y-41685914D02*
X125553718Y-41710976D01*
X126283909Y-53019790D02*
X126284398Y-53019839D01*
X169715307Y-108810253D02*
X169744997Y-108799257D01*
X172128501Y-125416070D02*
X172189879Y-125423640D01*
X170873781Y-70196041D02*
X170904264Y-70142232D01*
X155679879Y-65098640D02*
X155740813Y-65109213D01*
X124347232Y-167140735D02*
X124294983Y-167107649D01*
X124195666Y-66703990D02*
X124148837Y-66663596D01*
X152287232Y-37324264D02*
X152341041Y-37293781D01*
X169715069Y-111529661D02*
X169672453Y-111515095D01*
X126282942Y-80959623D02*
X126283424Y-80959718D01*
X170084374Y-52737468D02*
X170084581Y-52737321D01*
X170294207Y-28082637D02*
X170262362Y-28050792D01*
X123748640Y-149734879D02*
X123741070Y-149673501D01*
X170525468Y-80189245D02*
X170540833Y-80161562D01*
X126277891Y-139383238D02*
X126277561Y-139383602D01*
X125905952Y-97839047D02*
X125948596Y-97883837D01*
X125905952Y-125779047D02*
X125948596Y-125823837D01*
X173251359Y-26155120D02*
X173258929Y-26216498D01*
X126280637Y-55561201D02*
X126280204Y-55561432D01*
X170575862Y-140247229D02*
X170561919Y-140218804D01*
X152184420Y-71187039D02*
X152135666Y-71148990D01*
X126290586Y-80960000D02*
X169192956Y-80960000D01*
X170690166Y-51818451D02*
X170690221Y-51818203D01*
X123982960Y-166810579D02*
X123947350Y-166760016D01*
X151854264Y-154642767D02*
X151823781Y-154588958D01*
X171337232Y-66810735D02*
X171284983Y-66777649D01*
X169209041Y-111440203D02*
X169208914Y-111440201D01*
X126261359Y-65914879D02*
X126250786Y-65975813D01*
X155556825Y-43493479D02*
X155494877Y-43495000D01*
X171800120Y-94916359D02*
X171739186Y-94905786D01*
X171923174Y-150808479D02*
X171861498Y-150803929D01*
X125321154Y-97507763D02*
X125380757Y-97524258D01*
X172128501Y-94923929D02*
X172066825Y-94928479D01*
X156575735Y-98762767D02*
X156542649Y-98815016D01*
X118655160Y-20009398D02*
X118655136Y-20009888D01*
X126027039Y-97979420D02*
X126062649Y-98029983D01*
X123808657Y-94094480D02*
X123789258Y-94035757D01*
X151823781Y-154588958D02*
X151795976Y-154533718D01*
X170726520Y-70728174D02*
X170731070Y-70666498D01*
X124148837Y-41916403D02*
X124195666Y-41876009D01*
X169857770Y-111589137D02*
X169857541Y-111589028D01*
X169371140Y-27629851D02*
X169370888Y-27629822D01*
X126278602Y-111442561D02*
X126278238Y-111442891D01*
X170972960Y-42099420D02*
X171011009Y-42050666D01*
X172066825Y-125411520D02*
X172128501Y-125416070D01*
X155494877Y-127315000D02*
X152935122Y-127315000D01*
X126273479Y-93731825D02*
X126268929Y-93793501D01*
X172311154Y-25117763D02*
X172370757Y-25134258D01*
X173191342Y-98305519D02*
X173210741Y-98364242D01*
X173169085Y-94152179D02*
X173144023Y-94208718D01*
X170679926Y-112597431D02*
X170671990Y-112566781D01*
X170460555Y-112106610D02*
X170442468Y-112080625D01*
X171985122Y-39050000D02*
X171923174Y-39048479D01*
X170659534Y-79876761D02*
X170671923Y-79833462D01*
X171985122Y-69530000D02*
X172004877Y-69530000D01*
X156575735Y-65697232D02*
X156606218Y-65751041D01*
X123741070Y-121733501D02*
X123736520Y-121671825D01*
X126290586Y-136840000D02*
X169192956Y-136840000D01*
X171337232Y-69709264D02*
X171391041Y-69678781D01*
X126027039Y-70039420D02*
X126062649Y-70089983D01*
X172851162Y-166993596D02*
X172804333Y-167033990D01*
X170690166Y-140581548D02*
X170679986Y-140537677D01*
X172543718Y-38929023D02*
X172487179Y-38954085D01*
X170502495Y-140111723D02*
X170502364Y-140111506D01*
X170396132Y-84078879D02*
X170395975Y-84078681D01*
X152184420Y-99127039D02*
X152135666Y-99088990D01*
X170937350Y-122310016D02*
X170904264Y-122257767D01*
X170485617Y-136135361D02*
X170502364Y-136108493D01*
X126284888Y-27620136D02*
X126284398Y-27620160D01*
X126154023Y-122148718D02*
X126126218Y-122203958D01*
X156142767Y-43315735D02*
X156088958Y-43346218D01*
X170624166Y-84479765D02*
X170607460Y-84437942D01*
X126179085Y-126187820D02*
X126201342Y-126245519D01*
X170525342Y-56330534D02*
X170502495Y-56291723D01*
X170649904Y-140432546D02*
X170635338Y-140389930D01*
X170262181Y-108469384D02*
X170262362Y-108469207D01*
X170181222Y-27977485D02*
X170146318Y-27949024D01*
X170316370Y-111925952D02*
X170316198Y-111925766D01*
X126275496Y-53012533D02*
X126275638Y-53013002D01*
X170624257Y-84480002D02*
X170624166Y-84479765D01*
X172189879Y-153363640D02*
X172250813Y-153374213D01*
X170346729Y-28139560D02*
X170346561Y-28139369D01*
X126276957Y-139384375D02*
X126276685Y-139384783D01*
X126281534Y-83500803D02*
X126281081Y-83500991D01*
X171800120Y-39036359D02*
X171739186Y-39025786D01*
X126277561Y-136836397D02*
X126277891Y-136836761D01*
X126275136Y-136830111D02*
X126275160Y-136830601D01*
X170721822Y-140810768D02*
X170718402Y-140765861D01*
X151688640Y-122040120D02*
X151699213Y-121979186D01*
X126277250Y-83503981D02*
X126276957Y-83504375D01*
X170346729Y-164260439D02*
X170367352Y-164236417D01*
X124570519Y-97543657D02*
X124629242Y-97524258D01*
X123808657Y-154185519D02*
X123830914Y-154127820D01*
X126275803Y-108893465D02*
X126275991Y-108893918D01*
X123808657Y-149974480D02*
X123789258Y-149915757D01*
X170762763Y-42543845D02*
X170779258Y-42484242D01*
X126250786Y-93915813D02*
X126237236Y-93976154D01*
X155740813Y-155230786D02*
X155679879Y-155241359D01*
X178344503Y-172392533D02*
X178344623Y-172392057D01*
X170724999Y-57091917D02*
X170724798Y-57076085D01*
X169492191Y-80931594D02*
X169523203Y-80925221D01*
X172066825Y-66988479D02*
X172004877Y-66990000D01*
X172066825Y-150808479D02*
X172004877Y-150810000D01*
X126154023Y-38328718D02*
X126126218Y-38383958D01*
X124401041Y-122721218D02*
X124347232Y-122690735D01*
X170346729Y-108380439D02*
X170367352Y-108356417D01*
X169492191Y-111468405D02*
X169491942Y-111468357D01*
X123914264Y-126022232D02*
X123947350Y-125969983D01*
X118656432Y-20005204D02*
X118656201Y-20005637D01*
X169954245Y-111639531D02*
X169926562Y-111624166D01*
X156681342Y-126479480D02*
X156659085Y-126537179D01*
X169492191Y-27648405D02*
X169491942Y-27648357D01*
X169339138Y-55566597D02*
X169294231Y-55563177D01*
X156700741Y-126420757D02*
X156681342Y-126479480D01*
X171800120Y-122856359D02*
X171739186Y-122845786D01*
X123855976Y-166598718D02*
X123830914Y-166542179D01*
X172429480Y-97543657D02*
X172487179Y-97565914D01*
X172250813Y-153374213D02*
X172311154Y-153387763D01*
X156195016Y-99162649D02*
X156142767Y-99195735D01*
X170607460Y-28557942D02*
X170607363Y-28557708D01*
X169371140Y-139389851D02*
X169370888Y-139389822D01*
X170671923Y-84626537D02*
X170659534Y-84583238D01*
X152001403Y-154841162D02*
X151961009Y-154794333D01*
X126250786Y-126424186D02*
X126261359Y-126485120D01*
X170724796Y-112955958D02*
X170723451Y-112902894D01*
X126095735Y-126022232D02*
X126126218Y-126076041D01*
X152750120Y-93038640D02*
X152811498Y-93031070D01*
X172938596Y-25493837D02*
X172978990Y-25540666D01*
X124148837Y-150483596D02*
X124104047Y-150440952D01*
X156088958Y-93173781D02*
X156142767Y-93204264D01*
X151795976Y-121686281D02*
X151823781Y-121631041D01*
X171739186Y-150785786D02*
X171678845Y-150772236D01*
X125814333Y-122583990D02*
X125765579Y-122622039D01*
X178339795Y-172398567D02*
X178340216Y-172398314D01*
X156033718Y-71314023D02*
X155977179Y-71339085D01*
X173017039Y-97979420D02*
X173052649Y-98029983D01*
X170262181Y-164349384D02*
X170262362Y-164349207D01*
X170718402Y-29005861D02*
X170718380Y-29005609D01*
X126282466Y-80959503D02*
X126282942Y-80959623D01*
X170146120Y-139708867D02*
X170121083Y-139689487D01*
X170726520Y-121671825D02*
X170724999Y-121609877D01*
X151699213Y-38159186D02*
X151712763Y-38098845D01*
X170635338Y-107890069D02*
X170649904Y-107847453D01*
X170679926Y-28777431D02*
X170671990Y-28746781D01*
X152628845Y-37182763D02*
X152689186Y-37169213D01*
X125497179Y-150714085D02*
X125439480Y-150736342D01*
X156542649Y-70875016D02*
X156507039Y-70925579D01*
X169339138Y-80953402D02*
X169339390Y-80953380D01*
X125380757Y-41644258D02*
X125439480Y-41663657D01*
X172755579Y-125657960D02*
X172804333Y-125696009D01*
X152510519Y-93098657D02*
X152569242Y-93079258D01*
X169993276Y-139602504D02*
X169954465Y-139579657D01*
X170762763Y-93976154D02*
X170749213Y-93915813D01*
X169886421Y-111603194D02*
X169886195Y-111603080D01*
X170525342Y-112210534D02*
X170502495Y-112171723D01*
X169567568Y-27665073D02*
X169567322Y-27665013D01*
X126095735Y-94317767D02*
X126062649Y-94370016D01*
X151922960Y-98865579D02*
X151887350Y-98815016D01*
X170120881Y-139689334D02*
X170084581Y-139662678D01*
X126276957Y-136835624D02*
X126277250Y-136836018D01*
X169857541Y-136690971D02*
X169857770Y-136690862D01*
X169523451Y-139414833D02*
X169523203Y-139414778D01*
X170721838Y-112871021D02*
X170721822Y-112870768D01*
X169745234Y-136739166D02*
X169787057Y-136722460D01*
X172598958Y-153498781D02*
X172652767Y-153529264D01*
X171234420Y-97717960D02*
X171284983Y-97682350D01*
X125905952Y-122500952D02*
X125861162Y-122543596D01*
X173191342Y-38214480D02*
X173169085Y-38272179D01*
X170460697Y-108233179D02*
X170485480Y-108195575D01*
X123947350Y-94370016D02*
X123914264Y-94317767D01*
X169954245Y-52820468D02*
X169954465Y-52820342D01*
X170715177Y-79605888D02*
X170718380Y-79574390D01*
X171619242Y-125464258D02*
X171678845Y-125447763D01*
X126220741Y-126304242D02*
X126237236Y-126363845D01*
X124995122Y-94930000D02*
X124933174Y-94928479D01*
X123808657Y-66154480D02*
X123789258Y-66095757D01*
X125138501Y-69536070D02*
X125199879Y-69543640D01*
X126283424Y-55560281D02*
X126282942Y-55560376D01*
X173052649Y-153909983D02*
X173085735Y-153962232D01*
X173210741Y-25974242D02*
X173227236Y-26033845D01*
X156294333Y-71148990D02*
X156245579Y-71187039D01*
X126126218Y-66323958D02*
X126095735Y-66377767D01*
X172804333Y-97756009D02*
X172851162Y-97796403D01*
X151712763Y-93978845D02*
X151729258Y-93919242D01*
X126290340Y-139380003D02*
X126284888Y-139380136D01*
X155740813Y-148929213D02*
X155801154Y-148942763D01*
X125765579Y-150562039D02*
X125715016Y-150597649D01*
X170442321Y-84140418D02*
X170415665Y-84104118D01*
X124244420Y-122622039D02*
X124195666Y-122583990D01*
X170367514Y-108356222D02*
X170395975Y-108321318D01*
X124995122Y-39050000D02*
X124933174Y-39048479D01*
X172250813Y-94905786D02*
X172189879Y-94916359D01*
X156681342Y-42659480D02*
X156659085Y-42717179D01*
X170442468Y-80319374D02*
X170460555Y-80293389D01*
X126281997Y-139380638D02*
X126281534Y-139380803D01*
X171011009Y-150349333D02*
X170972960Y-150300579D01*
X126154023Y-126131281D02*
X126179085Y-126187820D01*
X170415512Y-80356083D02*
X170415665Y-80355881D01*
X170724798Y-107383914D02*
X170724999Y-107368082D01*
X124021009Y-125870666D02*
X124061403Y-125823837D01*
X156195016Y-155042649D02*
X156142767Y-155075735D01*
X173265000Y-42850122D02*
X173265000Y-65729877D01*
X126281997Y-83500638D02*
X126281534Y-83500803D01*
X169523451Y-83534833D02*
X169523203Y-83534778D01*
X171337232Y-38870735D02*
X171284983Y-38837649D01*
X125814333Y-69816009D02*
X125861162Y-69856403D01*
X126126218Y-122203958D02*
X126095735Y-122257767D01*
X170690221Y-28821796D02*
X170690166Y-28821548D01*
X170205630Y-80581561D02*
X170239047Y-80551370D01*
X170020575Y-164540480D02*
X170058179Y-164515697D01*
X124871498Y-122863929D02*
X124810120Y-122856359D01*
X126275638Y-136833002D02*
X126275803Y-136833465D01*
X123883781Y-38383958D02*
X123855976Y-38328718D01*
X172895952Y-150440952D02*
X172851162Y-150483596D01*
X170594774Y-107991618D02*
X170594877Y-107991386D01*
X172543718Y-125530976D02*
X172598958Y-125558781D01*
X169523203Y-27654778D02*
X169492191Y-27648405D01*
X171446281Y-38929023D02*
X171391041Y-38901218D01*
X170679926Y-51862568D02*
X170679986Y-51862322D01*
X169523451Y-111474833D02*
X169523203Y-111474778D01*
X170715177Y-56914111D02*
X170715148Y-56913859D01*
X151729258Y-126420757D02*
X151712763Y-126361154D01*
X170704629Y-56837637D02*
X170704587Y-56837387D01*
X151823781Y-126648958D02*
X151795976Y-126593718D01*
X123883781Y-98136041D02*
X123914264Y-98082232D01*
X170624257Y-56540002D02*
X170624166Y-56539765D01*
X170904264Y-98082232D02*
X170937350Y-98029983D01*
X170316198Y-136354233D02*
X170316370Y-136354047D01*
X126095735Y-42202232D02*
X126126218Y-42256041D01*
X123982960Y-70039420D02*
X124021009Y-69990666D01*
X126282942Y-136839623D02*
X126283424Y-136839718D01*
X170415665Y-112044118D02*
X170415512Y-112043916D01*
X124570519Y-69603657D02*
X124629242Y-69584258D01*
X125608958Y-97618781D02*
X125662767Y-97649264D01*
X170058179Y-164515697D02*
X170058389Y-164515555D01*
X170262362Y-28050792D02*
X170262181Y-28050615D01*
X172598958Y-122721218D02*
X172543718Y-122749023D01*
X169447362Y-136819629D02*
X169447612Y-136819587D01*
X170525468Y-52249245D02*
X170540833Y-52221562D01*
X126095735Y-122257767D02*
X126062649Y-122310016D01*
X124347232Y-69709264D02*
X124401041Y-69678781D01*
X170540953Y-52221339D02*
X170561805Y-52181421D01*
X169816618Y-55690225D02*
X169816386Y-55690122D01*
X170762763Y-126363845D02*
X170779258Y-126304242D01*
X126275160Y-139389398D02*
X126275136Y-139389888D01*
X172128501Y-153356070D02*
X172189879Y-153363640D01*
X170575971Y-112307458D02*
X170575862Y-112307229D01*
X169816386Y-136709877D02*
X169816618Y-136709774D01*
X124061403Y-125823837D02*
X124104047Y-125779047D01*
X170709458Y-107590816D02*
X170715148Y-107546140D01*
X169787057Y-136722460D02*
X169787291Y-136722363D01*
X124195666Y-167033990D02*
X124148837Y-166993596D01*
X126275000Y-121609877D02*
X126273479Y-121671825D01*
X171284983Y-69742350D02*
X171337232Y-69709264D01*
X124629242Y-38995741D02*
X124570519Y-38976342D01*
X125814333Y-94643990D02*
X125765579Y-94682039D01*
X170724796Y-140895958D02*
X170723451Y-140842894D01*
X155556825Y-37146520D02*
X155618501Y-37151070D01*
X169886195Y-27783080D02*
X169857770Y-27769137D01*
X156681342Y-149740519D02*
X156700741Y-149799242D01*
X123735000Y-121609877D02*
X123735000Y-98730122D01*
X178344996Y-172384659D02*
X178345000Y-172384413D01*
X169447612Y-27640412D02*
X169447362Y-27640370D01*
X125497179Y-125505914D02*
X125553718Y-125530976D01*
X173085735Y-122257767D02*
X173052649Y-122310016D01*
X170294384Y-28082818D02*
X170294207Y-28082637D01*
X118657561Y-172396397D02*
X118657891Y-172396761D01*
X125905952Y-150440952D02*
X125861162Y-150483596D01*
X169954245Y-164580468D02*
X169954465Y-164580342D01*
X171861498Y-125416070D02*
X171923174Y-125411520D01*
X125662767Y-38870735D02*
X125608958Y-38901218D01*
X152341041Y-127166218D02*
X152287232Y-127135735D01*
X155494877Y-65085000D02*
X155556825Y-65086520D01*
X125861162Y-69856403D02*
X125905952Y-69899047D01*
X152088837Y-65411403D02*
X152135666Y-65371009D01*
X123736520Y-121671825D02*
X123735000Y-121609877D01*
X152689186Y-127290786D02*
X152628845Y-127277236D01*
X124570519Y-167246342D02*
X124512820Y-167224085D01*
X173227236Y-121916154D02*
X173210741Y-121975757D01*
X170502495Y-80228276D02*
X170525342Y-80189465D01*
X151688640Y-154179879D02*
X151681070Y-154118501D01*
X173085735Y-126022232D02*
X173116218Y-126076041D01*
X126027039Y-38540579D02*
X125988990Y-38589333D01*
X169262358Y-136838441D02*
X169293978Y-136836838D01*
X125497179Y-38954085D02*
X125439480Y-38976342D01*
X156245579Y-43247039D02*
X156195016Y-43282649D01*
X170762763Y-121916154D02*
X170749213Y-121855813D01*
X170525342Y-140150534D02*
X170502495Y-140111723D01*
X170731070Y-98606498D02*
X170738640Y-98545120D01*
X170239233Y-111848801D02*
X170239047Y-111848629D01*
X169294231Y-80956822D02*
X169339138Y-80953402D01*
X170679926Y-107742568D02*
X170679986Y-107742322D01*
X123982960Y-97979420D02*
X124021009Y-97930666D01*
X170679926Y-56717431D02*
X170671990Y-56686781D01*
X170798657Y-66154480D02*
X170779258Y-66095757D01*
X170779258Y-66095757D02*
X170762763Y-66036154D01*
X118659783Y-172398314D02*
X118660204Y-172398567D01*
X126027039Y-153859420D02*
X126062649Y-153909983D01*
X170709423Y-28928933D02*
X170704629Y-28897637D01*
X126220741Y-98364242D02*
X126237236Y-98423845D01*
X170020361Y-139619382D02*
X169993493Y-139602635D01*
X173191342Y-25915519D02*
X173210741Y-25974242D01*
X125715016Y-125622350D02*
X125765579Y-125657960D01*
X151712763Y-66038845D02*
X151729258Y-65979242D01*
X170845976Y-66268718D02*
X170820914Y-66212179D01*
X170120881Y-27929334D02*
X170084581Y-27902678D01*
X156341162Y-99048596D02*
X156294333Y-99088990D01*
X125076825Y-150808479D02*
X125014877Y-150810000D01*
X171502820Y-122774085D02*
X171446281Y-122749023D01*
X171619242Y-122815741D02*
X171560519Y-122796342D01*
X169208914Y-80959798D02*
X169209041Y-80959796D01*
X173144023Y-70251281D02*
X173169085Y-70307820D01*
X152287232Y-149084264D02*
X152341041Y-149053781D01*
X172311154Y-167282236D02*
X172250813Y-167295786D01*
X126275160Y-80950601D02*
X126275209Y-80951090D01*
X156341162Y-43168596D02*
X156294333Y-43208990D01*
X152001403Y-121378837D02*
X152044047Y-121334047D01*
X170779258Y-94035757D02*
X170762763Y-93976154D01*
X172066825Y-153351520D02*
X172128501Y-153356070D01*
X155740813Y-43470786D02*
X155679879Y-43481359D01*
X156088958Y-149053781D02*
X156142767Y-149084264D01*
X170972960Y-122360579D02*
X170937350Y-122310016D01*
X171337232Y-150630735D02*
X171284983Y-150597649D01*
X124871498Y-41596070D02*
X124933174Y-41591520D01*
X151699213Y-94039186D02*
X151712763Y-93978845D01*
X170121083Y-108590512D02*
X170146120Y-108571132D01*
X123748640Y-154425120D02*
X123759213Y-154364186D01*
X126275281Y-80951575D02*
X126275376Y-80952057D01*
X170709423Y-112748933D02*
X170704629Y-112717637D01*
X173210741Y-149915757D02*
X173191342Y-149974480D01*
X170239047Y-55968629D02*
X170205630Y-55938438D01*
X125948596Y-42003837D02*
X125988990Y-42050666D01*
X123736520Y-126608174D02*
X123741070Y-126546498D01*
X170690221Y-140581796D02*
X170690166Y-140581548D01*
X172652767Y-94750735D02*
X172598958Y-94781218D01*
X169415816Y-83515541D02*
X169371140Y-83509851D01*
X170058179Y-136575697D02*
X170058389Y-136575555D01*
X124401041Y-38901218D02*
X124347232Y-38870735D01*
X169993276Y-52797495D02*
X169993493Y-52797364D01*
X170624257Y-28600002D02*
X170624166Y-28599765D01*
X170502364Y-80228493D02*
X170502495Y-80228276D01*
X126250786Y-149795813D02*
X126237236Y-149856154D01*
X170346561Y-139899369D02*
X170316370Y-139865952D01*
X169642004Y-52954461D02*
X169672212Y-52944983D01*
X170715177Y-51665888D02*
X170718380Y-51634390D01*
X171800120Y-153363640D02*
X171861498Y-153356070D01*
X125321154Y-66952236D02*
X125260813Y-66965786D01*
X170704587Y-79682612D02*
X170704629Y-79682362D01*
X126290586Y-83500000D02*
X126290340Y-83500003D01*
X151676520Y-98176825D02*
X151675000Y-98114877D01*
X156717236Y-70481154D02*
X156700741Y-70540757D01*
X123808657Y-25915519D02*
X123830914Y-25857820D01*
X170709458Y-140689183D02*
X170709423Y-140688933D01*
X124195666Y-150523990D02*
X124148837Y-150483596D01*
X126179085Y-66212179D02*
X126154023Y-66268718D01*
X124871498Y-153356070D02*
X124933174Y-153351520D01*
X156606218Y-126648958D02*
X156575735Y-126702767D01*
X118655003Y-20015340D02*
X118655000Y-20015586D01*
X170181417Y-52662352D02*
X170205439Y-52641729D01*
X156700741Y-38039242D02*
X156717236Y-38098845D01*
X124061403Y-94516162D02*
X124021009Y-94469333D01*
X155860757Y-93079258D02*
X155919480Y-93098657D01*
X126220741Y-94035757D02*
X126201342Y-94094480D01*
X169642004Y-27685538D02*
X169641761Y-27685465D01*
X118655638Y-172393002D02*
X118655803Y-172393465D01*
X170937350Y-70089983D02*
X170972960Y-70039420D01*
X171985122Y-125410000D02*
X172004877Y-125410000D01*
X169567568Y-52974926D02*
X169598218Y-52966990D01*
X152452820Y-149000914D02*
X152510519Y-148978657D01*
X152569242Y-71380741D02*
X152510519Y-71361342D01*
X124244420Y-94682039D02*
X124195666Y-94643990D01*
X170020575Y-108660480D02*
X170058179Y-108635697D01*
X156507039Y-149414420D02*
X156542649Y-149464983D01*
X171861498Y-66983929D02*
X171800120Y-66976359D01*
X170540833Y-112238437D02*
X170525468Y-112210754D01*
X125715016Y-153562350D02*
X125765579Y-153597960D01*
X156606218Y-65751041D02*
X156634023Y-65806281D01*
X169208914Y-136839798D02*
X169209041Y-136839796D01*
X170485480Y-164075575D02*
X170485617Y-164075361D01*
X170120881Y-108590665D02*
X170121083Y-108590512D01*
X126154023Y-70251281D02*
X126179085Y-70307820D01*
X170084374Y-164497468D02*
X170084581Y-164497321D01*
X169954465Y-136640342D02*
X169993276Y-136617495D01*
X155860757Y-65139258D02*
X155919480Y-65158657D01*
X123830914Y-126187820D02*
X123855976Y-126131281D01*
X124512820Y-150714085D02*
X124456281Y-150689023D01*
X124570519Y-25153657D02*
X124629242Y-25134258D01*
X170540833Y-80161562D02*
X170540953Y-80161339D01*
X152452820Y-121060914D02*
X152510519Y-121038657D01*
X173251359Y-93854879D02*
X173240786Y-93915813D01*
X125439480Y-69603657D02*
X125497179Y-69625914D01*
X169294231Y-136836822D02*
X169339138Y-136833402D01*
X170084581Y-111722678D02*
X170084374Y-111722531D01*
X125553718Y-69650976D02*
X125608958Y-69678781D01*
X169262358Y-55561558D02*
X169262105Y-55561548D01*
X125948596Y-153763837D02*
X125988990Y-153810666D01*
X169208914Y-55560201D02*
X169193082Y-55560000D01*
X170709458Y-28929183D02*
X170709423Y-28928933D01*
X170715148Y-135486140D02*
X170715177Y-135485888D01*
X171234420Y-150562039D02*
X171185666Y-150523990D01*
X171094047Y-150440952D02*
X171051403Y-150396162D01*
X170346561Y-111959369D02*
X170316370Y-111925952D01*
X170718380Y-135454390D02*
X170718402Y-135454138D01*
X151675000Y-42234877D02*
X151675000Y-38405122D01*
X169787291Y-80842363D02*
X169816386Y-80829877D01*
X125260813Y-125434213D02*
X125321154Y-125447763D01*
X170058179Y-80695697D02*
X170058389Y-80695555D01*
X152287232Y-71255735D02*
X152234983Y-71222649D01*
X126276432Y-80954795D02*
X126276685Y-80955216D01*
X152750120Y-155241359D02*
X152689186Y-155230786D01*
X155740813Y-93049213D02*
X155801154Y-93062763D01*
X152628845Y-71397236D02*
X152569242Y-71380741D01*
X170696594Y-51787191D02*
X170696642Y-51786942D01*
X156681342Y-65920519D02*
X156700741Y-65979242D01*
X156542649Y-149464983D02*
X156575735Y-149517232D01*
X170540833Y-28418437D02*
X170525468Y-28390754D01*
X170396132Y-136261120D02*
X170415512Y-136236083D01*
X151699213Y-42480813D02*
X151688640Y-42419879D01*
X173263479Y-149611825D02*
X173258929Y-149673501D01*
X173144023Y-98191281D02*
X173169085Y-98247820D01*
X170346561Y-80440630D02*
X170346729Y-80440439D01*
X172755579Y-25327960D02*
X172804333Y-25366009D01*
X170731070Y-93793501D02*
X170726520Y-93731825D01*
X171138837Y-153676403D02*
X171185666Y-153636009D01*
X123736520Y-70728174D02*
X123741070Y-70666498D01*
X126201342Y-98305519D02*
X126220741Y-98364242D01*
X169339390Y-136833380D02*
X169370888Y-136830177D01*
X124871498Y-125416070D02*
X124933174Y-125411520D01*
X170561805Y-136001421D02*
X170561919Y-136001195D01*
X173263479Y-65791825D02*
X173258929Y-65853501D01*
X172895952Y-25449047D02*
X172938596Y-25493837D01*
X126154023Y-94208718D02*
X126126218Y-94263958D01*
X171560519Y-153423657D02*
X171619242Y-153404258D01*
X171094047Y-122500952D02*
X171051403Y-122456162D01*
X125014877Y-122870000D02*
X124995122Y-122870000D01*
X126275136Y-164770111D02*
X126275160Y-164770601D01*
X124688845Y-94892236D02*
X124629242Y-94875741D01*
X169567568Y-136794926D02*
X169598218Y-136786990D01*
X126277250Y-27623981D02*
X126276957Y-27624375D01*
X125076825Y-94928479D02*
X125014877Y-94930000D01*
X172543718Y-69650976D02*
X172598958Y-69678781D01*
X169339138Y-139386597D02*
X169294231Y-139383177D01*
X123883781Y-154016041D02*
X123914264Y-153962232D01*
X170873781Y-42256041D02*
X170904264Y-42202232D01*
X171234420Y-122622039D02*
X171185666Y-122583990D01*
X170367352Y-139923582D02*
X170346729Y-139899560D01*
X170649904Y-56612546D02*
X170635338Y-56569930D01*
X170723451Y-140842894D02*
X170723441Y-140842641D01*
X126062649Y-122310016D02*
X126027039Y-122360579D01*
X125814333Y-41876009D02*
X125861162Y-41916403D01*
X170346729Y-52500439D02*
X170367352Y-52476417D01*
X152287232Y-155075735D02*
X152234983Y-155042649D01*
X156341162Y-149231403D02*
X156385952Y-149274047D01*
X118657250Y-20003981D02*
X118656957Y-20004375D01*
X155618501Y-71428929D02*
X155556825Y-71433479D01*
X171861498Y-69536070D02*
X171923174Y-69531520D01*
X124148837Y-166993596D02*
X124104047Y-166950952D01*
X123736520Y-149611825D02*
X123735000Y-149549877D01*
X156748929Y-66221498D02*
X156753479Y-66283174D01*
X178343314Y-20004783D02*
X178343042Y-20004375D01*
X170346729Y-111959560D02*
X170346561Y-111959369D01*
X118655638Y-20006997D02*
X118655496Y-20007466D01*
X170690166Y-112641548D02*
X170679986Y-112597677D01*
X151922960Y-42985579D02*
X151887350Y-42935016D01*
X172598958Y-94781218D02*
X172543718Y-94809023D01*
X124688845Y-39012236D02*
X124629242Y-38995741D01*
X170084374Y-139662531D02*
X170058389Y-139644444D01*
X170205439Y-55938270D02*
X170181417Y-55917647D01*
X126278238Y-27622891D02*
X126277891Y-27623238D01*
X173169085Y-154127820D02*
X173191342Y-154185519D01*
X169926339Y-139564046D02*
X169886421Y-139543194D01*
X124456281Y-69650976D02*
X124512820Y-69625914D01*
X170731070Y-126546498D02*
X170738640Y-126485120D01*
X170724999Y-112971917D02*
X170724798Y-112956085D01*
X170649983Y-107847212D02*
X170659461Y-107817004D01*
X126277891Y-55563238D02*
X126277561Y-55563602D01*
X170146318Y-111769024D02*
X170146120Y-111768867D01*
X124347232Y-25259264D02*
X124401041Y-25228781D01*
X125553718Y-97590976D02*
X125608958Y-97618781D01*
X173263479Y-121671825D02*
X173258929Y-121733501D01*
X170845976Y-42311281D02*
X170873781Y-42256041D01*
X169339390Y-80953380D02*
X169370888Y-80950177D01*
X170820914Y-66212179D02*
X170798657Y-66154480D01*
X126277891Y-136836761D02*
X126278238Y-136837108D01*
X156634023Y-126593718D02*
X156606218Y-126648958D01*
X152001403Y-98961162D02*
X151961009Y-98914333D01*
X170690221Y-79758203D02*
X170696594Y-79727191D01*
X156088958Y-37293781D02*
X156142767Y-37324264D01*
X152873174Y-37146520D02*
X152935122Y-37145000D01*
X178344839Y-20009398D02*
X178344790Y-20008909D01*
X173251359Y-98545120D02*
X173258929Y-98606498D01*
X156385952Y-65454047D02*
X156428596Y-65498837D01*
X172189879Y-125423640D02*
X172250813Y-125434213D01*
X172250813Y-25104213D02*
X172311154Y-25117763D01*
X169857541Y-80810971D02*
X169857770Y-80810862D01*
X170485617Y-84204638D02*
X170485480Y-84204424D01*
X170485617Y-56264638D02*
X170485480Y-56264424D01*
X169926562Y-164595833D02*
X169954245Y-164580468D01*
X170395975Y-108321318D02*
X170396132Y-108321120D01*
X170525342Y-108129465D02*
X170525468Y-108129245D01*
X126275136Y-80950111D02*
X126275160Y-80950601D01*
X156634023Y-98653718D02*
X156606218Y-98708958D01*
X171094047Y-38680952D02*
X171051403Y-38636162D01*
X126275000Y-108884413D02*
X126275003Y-108884659D01*
X151961009Y-65545666D02*
X152001403Y-65498837D01*
X170120881Y-164470665D02*
X170121083Y-164470512D01*
X126279375Y-80958042D02*
X126279783Y-80958314D01*
X170635338Y-163770069D02*
X170649904Y-163727453D01*
X124995122Y-69530000D02*
X125014877Y-69530000D01*
X126277561Y-27623602D02*
X126277250Y-27623981D01*
X169567568Y-111485073D02*
X169567322Y-111485013D01*
X125014877Y-153350000D02*
X125076825Y-153351520D01*
X171446281Y-69650976D02*
X171502820Y-69625914D01*
X170262362Y-136409207D02*
X170294207Y-136377362D01*
X173052649Y-25639983D02*
X173085735Y-25692232D01*
X169787057Y-111557539D02*
X169745234Y-111540833D01*
X169744997Y-52919257D02*
X169745234Y-52919166D01*
X126062649Y-38490016D02*
X126027039Y-38540579D01*
X152750120Y-43481359D02*
X152689186Y-43470786D01*
X170205630Y-136461561D02*
X170239047Y-136431370D01*
X170415512Y-136236083D02*
X170415665Y-136235881D01*
X151748657Y-154419480D02*
X151729258Y-154360757D01*
X124995122Y-66990000D02*
X124933174Y-66988479D01*
X151823781Y-42828958D02*
X151795976Y-42773718D01*
X170820914Y-38272179D02*
X170798657Y-38214480D01*
X170820914Y-70307820D02*
X170845976Y-70251281D01*
X126277250Y-164776018D02*
X126277561Y-164776397D01*
X170724999Y-121609877D02*
X170725000Y-112972043D01*
X171284983Y-66777649D02*
X171234420Y-66742039D01*
X172895952Y-66620952D02*
X172851162Y-66663596D01*
X170294384Y-139842818D02*
X170294207Y-139842637D01*
X171185666Y-94643990D02*
X171138837Y-94603596D01*
X126275803Y-83506534D02*
X126275638Y-83506997D01*
X169598218Y-83553009D02*
X169567568Y-83545073D01*
X172128501Y-167313929D02*
X172066825Y-167318479D01*
X173116218Y-150143958D02*
X173085735Y-150197767D01*
X151748657Y-42659480D02*
X151729258Y-42600757D01*
X170696642Y-135606942D02*
X170704587Y-135562612D01*
X124195666Y-122583990D02*
X124148837Y-122543596D01*
X170316198Y-80474233D02*
X170316370Y-80474047D01*
X124347232Y-125589264D02*
X124401041Y-125558781D01*
X126261359Y-154425120D02*
X126268929Y-154486498D01*
X123772763Y-98423845D02*
X123789258Y-98364242D01*
X170635253Y-28629692D02*
X170624257Y-28600002D01*
X170607363Y-112377708D02*
X170594877Y-112348613D01*
X126275496Y-27627466D02*
X126275376Y-27627942D01*
X170690221Y-163578203D02*
X170696594Y-163547191D01*
X172705016Y-125622350D02*
X172755579Y-125657960D01*
X123830914Y-70307820D02*
X123855976Y-70251281D01*
X151699213Y-149919186D02*
X151712763Y-149858845D01*
X169192956Y-139380000D02*
X126290586Y-139380000D01*
X170904264Y-38437767D02*
X170873781Y-38383958D01*
X169642004Y-108834461D02*
X169672212Y-108824983D01*
X156507039Y-154745579D02*
X156468990Y-154794333D01*
X172895952Y-94560952D02*
X172851162Y-94603596D01*
X169787057Y-52902460D02*
X169787291Y-52902363D01*
X126277250Y-55563981D02*
X126276957Y-55564375D01*
X170415665Y-28224118D02*
X170415512Y-28223916D01*
X173263479Y-26278174D02*
X173265000Y-26340122D01*
X125014877Y-150810000D02*
X124995122Y-150810000D01*
X170723451Y-135377105D02*
X170724796Y-135324041D01*
X173210741Y-94035757D02*
X173191342Y-94094480D01*
X169857541Y-83649028D02*
X169816618Y-83630225D01*
X170575971Y-108032541D02*
X170594774Y-107991618D01*
X125553718Y-153470976D02*
X125608958Y-153498781D01*
X126278602Y-164777438D02*
X126278981Y-164777749D01*
X126276957Y-111444375D02*
X126276685Y-111444783D01*
X123855976Y-126131281D02*
X123883781Y-126076041D01*
X170679986Y-140537677D02*
X170679926Y-140537431D01*
X173116218Y-38383958D02*
X173085735Y-38437767D01*
X156748929Y-154118501D02*
X156741359Y-154179879D01*
X126220741Y-38155757D02*
X126201342Y-38214480D01*
X173169085Y-42367820D02*
X173191342Y-42425519D01*
X126275991Y-139386081D02*
X126275803Y-139386534D01*
X124688845Y-69567763D02*
X124749186Y-69554213D01*
X170709458Y-112749183D02*
X170709423Y-112748933D01*
X170316370Y-136354047D02*
X170346561Y-136320630D01*
X169598218Y-80906990D02*
X169598462Y-80906923D01*
X156659085Y-154477179D02*
X156634023Y-154533718D01*
X170704587Y-112717387D02*
X170696642Y-112673057D01*
X170724999Y-79427956D02*
X170724999Y-70790122D01*
X170709423Y-163471066D02*
X170709458Y-163470816D01*
X169294231Y-139383177D02*
X169293978Y-139383161D01*
X169370888Y-55569822D02*
X169339390Y-55566619D01*
X169208914Y-139380201D02*
X169193082Y-139380000D01*
X169744997Y-139480742D02*
X169715307Y-139469746D01*
X170715148Y-56913859D02*
X170709458Y-56869183D01*
X170346561Y-108380630D02*
X170346729Y-108380439D01*
X156507039Y-126805579D02*
X156468990Y-126854333D01*
X171391041Y-122721218D02*
X171337232Y-122690735D01*
X151675000Y-38405122D02*
X151676520Y-38343174D01*
X126282466Y-108899503D02*
X126282942Y-108899623D01*
X173251359Y-65914879D02*
X173240786Y-65975813D01*
X123736520Y-98668174D02*
X123741070Y-98606498D01*
X169993493Y-27842635D02*
X169993276Y-27842504D01*
X124749186Y-122845786D02*
X124688845Y-122832236D01*
X169567322Y-108854986D02*
X169567568Y-108854926D01*
X151712763Y-121918845D02*
X151729258Y-121859242D01*
X169567322Y-83545013D02*
X169523451Y-83534833D01*
X170724798Y-29136085D02*
X170724796Y-29135958D01*
X126273479Y-98668174D02*
X126275000Y-98730122D01*
X172755579Y-38802039D02*
X172705016Y-38837649D01*
X169857541Y-55709028D02*
X169816618Y-55690225D01*
X156575735Y-126702767D02*
X156542649Y-126755016D01*
X126281997Y-80959361D02*
X126282466Y-80959503D01*
X169745234Y-55660833D02*
X169744997Y-55660742D01*
X170575971Y-28487458D02*
X170575862Y-28487229D01*
X170316370Y-164294047D02*
X170346561Y-164260630D01*
X125662767Y-150630735D02*
X125608958Y-150661218D01*
X151887350Y-154695016D02*
X151854264Y-154642767D01*
X173116218Y-42256041D02*
X173144023Y-42311281D01*
X126284398Y-136839839D02*
X126284888Y-136839863D01*
X170724798Y-135323914D02*
X170724999Y-135308082D01*
X173265000Y-37789877D02*
X173263479Y-37851825D01*
X126280204Y-111441432D02*
X126279783Y-111441685D01*
X170715148Y-51666140D02*
X170715177Y-51665888D01*
X126220741Y-121975757D02*
X126201342Y-122034480D01*
X123736520Y-26278174D02*
X123741070Y-26216498D01*
X156730786Y-149919186D02*
X156741359Y-149980120D01*
X170396132Y-80381120D02*
X170415512Y-80356083D01*
X173052649Y-166760016D02*
X173017039Y-166810579D01*
X170873781Y-122203958D02*
X170845976Y-122148718D01*
X124749186Y-97494213D02*
X124810120Y-97483640D01*
X169672453Y-136764904D02*
X169715069Y-136750338D01*
X170721822Y-56990768D02*
X170718402Y-56945861D01*
X169523451Y-136805166D02*
X169567322Y-136794986D01*
X151729258Y-121859242D02*
X151748657Y-121800519D01*
X125380757Y-125464258D02*
X125439480Y-125483657D01*
X169787057Y-83617539D02*
X169745234Y-83600833D01*
X124871498Y-25086070D02*
X124933174Y-25081520D01*
X169447612Y-139400412D02*
X169447362Y-139400370D01*
X169598462Y-27673076D02*
X169598218Y-27673009D01*
X125138501Y-41596070D02*
X125199879Y-41603640D01*
X170635338Y-135830069D02*
X170649904Y-135787453D01*
X151688640Y-98299879D02*
X151681070Y-98238501D01*
X169193082Y-83500000D02*
X169192956Y-83500000D01*
X169886421Y-139543194D02*
X169886195Y-139543080D01*
X151887350Y-93584983D02*
X151922960Y-93534420D01*
X171051403Y-94516162D02*
X171011009Y-94469333D01*
X170121083Y-139689487D02*
X170120881Y-139689334D01*
X126281081Y-108899008D02*
X126281534Y-108899196D01*
X171094047Y-125779047D02*
X171138837Y-125736403D01*
X172004877Y-125410000D02*
X172066825Y-125411520D01*
X172978990Y-125870666D02*
X173017039Y-125919420D01*
X125662767Y-153529264D02*
X125715016Y-153562350D01*
X152341041Y-121113781D02*
X152396281Y-121085976D01*
X124195666Y-25366009D02*
X124244420Y-25327960D01*
X126062649Y-70089983D02*
X126095735Y-70142232D01*
X170937350Y-150250016D02*
X170904264Y-150197767D01*
X169886421Y-136676805D02*
X169926339Y-136655953D01*
X118664398Y-20000160D02*
X118663909Y-20000209D01*
X173210741Y-66095757D02*
X173191342Y-66154480D01*
X126284888Y-55560136D02*
X126284398Y-55560160D01*
X125321154Y-41627763D02*
X125380757Y-41644258D01*
X171185666Y-153636009D02*
X171234420Y-153597960D01*
X126276201Y-111445637D02*
X126275991Y-111446081D01*
X126275281Y-111448424D02*
X126275209Y-111448909D01*
X170718380Y-112825609D02*
X170715177Y-112794111D01*
X118661534Y-172399196D02*
X118661997Y-172399361D01*
X172804333Y-167033990D02*
X172755579Y-167072039D01*
X170396132Y-164201120D02*
X170415512Y-164176083D01*
X124401041Y-69678781D02*
X124456281Y-69650976D01*
X172429480Y-153423657D02*
X172487179Y-153445914D01*
X156575735Y-37757232D02*
X156606218Y-37811041D01*
X169447612Y-52999587D02*
X169491942Y-52991642D01*
X170659461Y-135757004D02*
X170659534Y-135756761D01*
X152184420Y-65332960D02*
X152234983Y-65297350D01*
X126275136Y-136830111D02*
X126275136Y-136830111D01*
X170635338Y-28629930D02*
X170635253Y-28629692D01*
X126275496Y-139387466D02*
X126275376Y-139387942D01*
X156294333Y-121251009D02*
X156341162Y-121291403D01*
X169415816Y-111455541D02*
X169371140Y-111449851D01*
X124061403Y-38636162D02*
X124021009Y-38589333D01*
X170624166Y-135860234D02*
X170624257Y-135859997D01*
X156634023Y-65806281D02*
X156659085Y-65862820D01*
X125814333Y-125696009D02*
X125861162Y-125736403D01*
X169491942Y-108871642D02*
X169492191Y-108871594D01*
X170659534Y-107816761D02*
X170671923Y-107773462D01*
X170395975Y-164201318D02*
X170396132Y-164201120D01*
X172487179Y-125505914D02*
X172543718Y-125530976D01*
X126279783Y-27621685D02*
X126279375Y-27621957D01*
X170624257Y-140360002D02*
X170624166Y-140359765D01*
X124629242Y-153404258D02*
X124688845Y-153387763D01*
X172938596Y-69943837D02*
X172978990Y-69990666D01*
X152569242Y-37199258D02*
X152628845Y-37182763D01*
X172705016Y-153562350D02*
X172755579Y-153597960D01*
X126290340Y-55560003D02*
X126284888Y-55560136D01*
X170020575Y-136600480D02*
X170058179Y-136575697D01*
X169492191Y-55588405D02*
X169491942Y-55588357D01*
X126284398Y-80959839D02*
X126284888Y-80959863D01*
X118657891Y-172396761D02*
X118658238Y-172397108D01*
X126290586Y-111440000D02*
X126290340Y-111440003D01*
X173258929Y-42726498D02*
X173263479Y-42788174D01*
X169816618Y-139510225D02*
X169816386Y-139510122D01*
X170671990Y-84626781D02*
X170671923Y-84626537D01*
X126290340Y-136839996D02*
X126290586Y-136840000D01*
X126279375Y-164778042D02*
X126279783Y-164778314D01*
X151688640Y-66160120D02*
X151699213Y-66099186D01*
X173017039Y-153859420D02*
X173052649Y-153909983D01*
X170262181Y-136409384D02*
X170262362Y-136409207D01*
X123748640Y-98545120D02*
X123759213Y-98484186D01*
X170205439Y-80581729D02*
X170205630Y-80581561D01*
X126276201Y-83505637D02*
X126275991Y-83506081D01*
X173017039Y-94420579D02*
X172978990Y-94469333D01*
X151961009Y-121425666D02*
X152001403Y-121378837D01*
X156507039Y-70925579D02*
X156468990Y-70974333D01*
X169523203Y-164745221D02*
X169523451Y-164745166D01*
X169523203Y-111474778D02*
X169492191Y-111468405D01*
X169371140Y-111449851D02*
X169370888Y-111449822D01*
X126275003Y-111455340D02*
X126275000Y-111455586D01*
X156606218Y-149571041D02*
X156634023Y-149626281D01*
X156428596Y-126901162D02*
X156385952Y-126945952D01*
X170704587Y-135562612D02*
X170704629Y-135562362D01*
X172705016Y-41802350D02*
X172755579Y-41837960D01*
X170415512Y-139983916D02*
X170396132Y-139958879D01*
X170120881Y-52710665D02*
X170121083Y-52710512D01*
X170058179Y-83764302D02*
X170020575Y-83739519D01*
X125765579Y-122622039D02*
X125715016Y-122657649D01*
X126261359Y-121794879D02*
X126250786Y-121855813D01*
X170367352Y-84043582D02*
X170346729Y-84019560D01*
X170316370Y-83985952D02*
X170316198Y-83985766D01*
X170181417Y-164422352D02*
X170205439Y-164401729D01*
X170146318Y-164450975D02*
X170181222Y-164422514D01*
X173144023Y-126131281D02*
X173169085Y-126187820D01*
X172370757Y-150755741D02*
X172311154Y-150772236D01*
X156700741Y-154360757D02*
X156681342Y-154419480D01*
X156755000Y-38405122D02*
X156755000Y-42234877D01*
X170649904Y-84552546D02*
X170635338Y-84509930D01*
X123759213Y-121855813D02*
X123748640Y-121794879D01*
X124749186Y-125434213D02*
X124810120Y-125423640D01*
X156681342Y-37980519D02*
X156700741Y-38039242D01*
X170718380Y-51634390D02*
X170718402Y-51634138D01*
X124401041Y-150661218D02*
X124347232Y-150630735D01*
X171678845Y-69567763D02*
X171739186Y-69554213D01*
X169262105Y-139381548D02*
X169209041Y-139380203D01*
X152569242Y-148959258D02*
X152628845Y-148942763D01*
X170415512Y-112043916D02*
X170396132Y-112018879D01*
X170820914Y-94152179D02*
X170798657Y-94094480D01*
X170561805Y-112278578D02*
X170540953Y-112238660D01*
X170415665Y-136235881D02*
X170442321Y-136199581D01*
X170239233Y-83908801D02*
X170239047Y-83908629D01*
X126154023Y-42311281D02*
X126179085Y-42367820D01*
X125014877Y-39050000D02*
X124995122Y-39050000D01*
X170525468Y-136069245D02*
X170540833Y-136041562D01*
X170721838Y-140811021D02*
X170721822Y-140810768D01*
X126276201Y-136834362D02*
X126276432Y-136834795D01*
X173263479Y-70728174D02*
X173265000Y-70790122D01*
X173017039Y-42099420D02*
X173052649Y-42149983D01*
X169447362Y-27640370D02*
X169416066Y-27635576D01*
X124244420Y-150562039D02*
X124195666Y-150523990D01*
X173227236Y-70483845D02*
X173240786Y-70544186D01*
X169370888Y-136830177D02*
X169371140Y-136830148D01*
X125014877Y-97470000D02*
X125076825Y-97471520D01*
X151887350Y-65644983D02*
X151922960Y-65594420D01*
X173085735Y-98082232D02*
X173116218Y-98136041D01*
X118658238Y-172397108D02*
X118658602Y-172397438D01*
X126275209Y-111448909D02*
X126275160Y-111449398D01*
X156507039Y-98865579D02*
X156468990Y-98914333D01*
X125608958Y-94781218D02*
X125553718Y-94809023D01*
X152750120Y-127301359D02*
X152689186Y-127290786D01*
X126279375Y-53018042D02*
X126279783Y-53018314D01*
X124810120Y-97483640D02*
X124871498Y-97476070D01*
X171861498Y-150803929D02*
X171800120Y-150796359D01*
X170262362Y-164349207D02*
X170294207Y-164317362D01*
X173017039Y-166810579D02*
X172978990Y-166859333D01*
X125321154Y-39012236D02*
X125260813Y-39025786D01*
X170724999Y-135308082D02*
X170724999Y-135307956D01*
X124871498Y-167313929D02*
X124810120Y-167306359D01*
X124061403Y-166906162D02*
X124021009Y-166859333D01*
X152750120Y-120978640D02*
X152811498Y-120971070D01*
X126281534Y-55560803D02*
X126281081Y-55560991D01*
X151681070Y-126178501D02*
X151676520Y-126116825D01*
X124347232Y-150630735D02*
X124294983Y-150597649D01*
X170415512Y-52416083D02*
X170415665Y-52415881D01*
X156033718Y-37265976D02*
X156088958Y-37293781D01*
X172250813Y-167295786D02*
X172189879Y-167306359D01*
X170020361Y-27859382D02*
X169993493Y-27842635D01*
X124995122Y-25080000D02*
X172004877Y-25080000D01*
X125905952Y-38680952D02*
X125861162Y-38723596D01*
X170485617Y-52315361D02*
X170502364Y-52288493D01*
X156606218Y-121631041D02*
X156634023Y-121686281D01*
X126275991Y-111446081D02*
X126275803Y-111446534D01*
X156730786Y-66099186D02*
X156741359Y-66160120D01*
X152628845Y-93062763D02*
X152689186Y-93049213D01*
X152234983Y-93237350D02*
X152287232Y-93204264D01*
X151676520Y-38343174D02*
X151681070Y-38281498D01*
X126279783Y-164778314D02*
X126280204Y-164778567D01*
X126275496Y-111447466D02*
X126275376Y-111447942D01*
X178341397Y-20002561D02*
X178341018Y-20002250D01*
X169954245Y-27819531D02*
X169926562Y-27804166D01*
X151795976Y-154533718D02*
X151770914Y-154477179D01*
X156088958Y-71286218D02*
X156033718Y-71314023D01*
X170396132Y-52441120D02*
X170415512Y-52416083D01*
X123741070Y-126546498D02*
X123748640Y-126485120D01*
X170058179Y-111704302D02*
X170020575Y-111679519D01*
X126281997Y-136839361D02*
X126282466Y-136839503D01*
X170460697Y-28286820D02*
X170460555Y-28286610D01*
X170738640Y-154425120D02*
X170749213Y-154364186D01*
X118664888Y-20000136D02*
X118664888Y-20000136D01*
X170575862Y-112307229D02*
X170561919Y-112278804D01*
X178336090Y-172399790D02*
X178336575Y-172399718D01*
X169293978Y-53016838D02*
X169294231Y-53016822D01*
X170873781Y-98136041D02*
X170904264Y-98082232D01*
X169339138Y-27626597D02*
X169294231Y-27623177D01*
X124749186Y-41614213D02*
X124810120Y-41603640D01*
X124244420Y-167072039D02*
X124195666Y-167033990D01*
X152341041Y-65233781D02*
X152396281Y-65205976D01*
X126201342Y-70365519D02*
X126220741Y-70424242D01*
X170316370Y-52534047D02*
X170346561Y-52500630D01*
X156634023Y-70713718D02*
X156606218Y-70768958D01*
X170709458Y-56869183D02*
X170709423Y-56868933D01*
X124512820Y-25175914D02*
X124570519Y-25153657D01*
X173258929Y-166183501D02*
X173251359Y-166244879D01*
X156245579Y-37392960D02*
X156294333Y-37431009D01*
X126275376Y-80952057D02*
X126275496Y-80952533D01*
X170460555Y-84166610D02*
X170442468Y-84140625D01*
X170146318Y-52690975D02*
X170181222Y-52662514D01*
X118670340Y-172399996D02*
X118670586Y-172400000D01*
X126278238Y-111442891D02*
X126277891Y-111443238D01*
X152396281Y-99254023D02*
X152341041Y-99226218D01*
X170146120Y-164451132D02*
X170146318Y-164450975D01*
X124244420Y-69777960D02*
X124294983Y-69742350D01*
X151854264Y-65697232D02*
X151887350Y-65644983D01*
X155556825Y-155253479D02*
X155494877Y-155255000D01*
X170904264Y-150197767D02*
X170873781Y-150143958D01*
X123914264Y-25692232D02*
X123947350Y-25639983D01*
X151922960Y-121474420D02*
X151961009Y-121425666D01*
X126275209Y-164771090D02*
X126275281Y-164771575D01*
X171234420Y-38802039D02*
X171185666Y-38763990D01*
X151681070Y-122101498D02*
X151688640Y-122040120D01*
X170798657Y-149974480D02*
X170779258Y-149915757D01*
X125497179Y-122774085D02*
X125439480Y-122796342D01*
X126278602Y-139382561D02*
X126278238Y-139382891D01*
X151681070Y-150041498D02*
X151688640Y-149980120D01*
X126290586Y-108900000D02*
X169192956Y-108900000D01*
X170058389Y-136575555D02*
X170084374Y-136557468D01*
X126282942Y-108899623D02*
X126283424Y-108899718D01*
X170020361Y-111679382D02*
X169993493Y-111662635D01*
X171051403Y-125823837D02*
X171094047Y-125779047D01*
X152811498Y-127308929D02*
X152750120Y-127301359D01*
X152935122Y-71435000D02*
X152873174Y-71433479D01*
X126095735Y-66377767D02*
X126062649Y-66430016D01*
X124512820Y-153445914D02*
X124570519Y-153423657D01*
X169492191Y-52991594D02*
X169523203Y-52985221D01*
X126277891Y-111443238D02*
X126277561Y-111443602D01*
X178344008Y-20006081D02*
X178343798Y-20005637D01*
X170724796Y-29135958D02*
X170723451Y-29082894D01*
X170084581Y-52737321D02*
X170120881Y-52710665D01*
X170721838Y-29051021D02*
X170721822Y-29050768D01*
X170058389Y-80695555D02*
X170084374Y-80677468D01*
X170659534Y-84583238D02*
X170659461Y-84582995D01*
X123883781Y-25746041D02*
X123914264Y-25692232D01*
X124148837Y-125736403D02*
X124195666Y-125696009D01*
X170679926Y-135682568D02*
X170679986Y-135682322D01*
X170635253Y-56569692D02*
X170624257Y-56540002D01*
X126290340Y-108899996D02*
X126290586Y-108900000D01*
X169370888Y-83509822D02*
X169339390Y-83506619D01*
X170294384Y-56022818D02*
X170294207Y-56022637D01*
X169816618Y-83630225D02*
X169816386Y-83630122D01*
X156606218Y-37811041D02*
X156634023Y-37866281D01*
X170460555Y-136173389D02*
X170460697Y-136173179D01*
X126275000Y-154610122D02*
X126275000Y-164764413D01*
X126282466Y-27620496D02*
X126281997Y-27620638D01*
X118663909Y-172399790D02*
X118664398Y-172399839D01*
X151795976Y-42773718D02*
X151770914Y-42717179D01*
X155801154Y-71397236D02*
X155740813Y-71410786D01*
X169886421Y-83663194D02*
X169886195Y-83663080D01*
X170316198Y-56045766D02*
X170294384Y-56022818D01*
X170723451Y-51557105D02*
X170724796Y-51504041D01*
X126275003Y-53004659D02*
X126275136Y-53010111D01*
X170731070Y-65853501D02*
X170726520Y-65791825D01*
X126275000Y-93669877D02*
X126273479Y-93731825D01*
X156245579Y-127067039D02*
X156195016Y-127102649D01*
X170738640Y-70605120D02*
X170749213Y-70544186D01*
X125076825Y-122868479D02*
X125014877Y-122870000D01*
X123982960Y-25589420D02*
X124021009Y-25540666D01*
X151712763Y-70481154D02*
X151699213Y-70420813D01*
X171678845Y-125447763D02*
X171739186Y-125434213D01*
X152396281Y-65205976D02*
X152452820Y-65180914D01*
X152452820Y-71339085D02*
X152396281Y-71314023D01*
X155618501Y-99368929D02*
X155556825Y-99373479D01*
X126283424Y-83500281D02*
X126282942Y-83500376D01*
X151748657Y-98539480D02*
X151729258Y-98480757D01*
X170294384Y-136377181D02*
X170316198Y-136354233D01*
X124512820Y-38954085D02*
X124456281Y-38929023D01*
X171011009Y-42050666D02*
X171051403Y-42003837D01*
X170367352Y-111983582D02*
X170346729Y-111959560D01*
X152510519Y-99301342D02*
X152452820Y-99279085D01*
X169787291Y-108782363D02*
X169816386Y-108769877D01*
X171800120Y-69543640D02*
X171861498Y-69536070D01*
X170624166Y-140359765D02*
X170607460Y-140317942D01*
X125861162Y-41916403D02*
X125905952Y-41959047D01*
X173169085Y-25857820D02*
X173191342Y-25915519D01*
X170679986Y-163622322D02*
X170690166Y-163578451D01*
X169926339Y-27804046D02*
X169886421Y-27783194D01*
X178344361Y-172393002D02*
X178344503Y-172392533D01*
X170316370Y-139865952D02*
X170316198Y-139865766D01*
X170540953Y-140178660D02*
X170540833Y-140178437D01*
X151748657Y-93860519D02*
X151770914Y-93802820D01*
X170294207Y-136377362D02*
X170294384Y-136377181D01*
X125861162Y-66663596D02*
X125814333Y-66703990D01*
X170262181Y-111870615D02*
X170239233Y-111848801D01*
X170937350Y-125969983D02*
X170972960Y-125919420D01*
X123855976Y-150088718D02*
X123830914Y-150032179D01*
X169886195Y-111603080D02*
X169857770Y-111589137D01*
X170820914Y-126187820D02*
X170845976Y-126131281D01*
X124570519Y-122796342D02*
X124512820Y-122774085D01*
X123759213Y-126424186D02*
X123772763Y-126363845D01*
X124347232Y-94750735D02*
X124294983Y-94717649D01*
X169857770Y-139529137D02*
X169857541Y-139529028D01*
X170724999Y-70790122D02*
X170726520Y-70728174D01*
X118661997Y-20000638D02*
X118661534Y-20000803D01*
X151823781Y-65751041D02*
X151854264Y-65697232D01*
X151854264Y-149517232D02*
X151887350Y-149464983D01*
X178329413Y-20000000D02*
X118670586Y-20000000D01*
X124688845Y-153387763D02*
X124749186Y-153374213D01*
X125380757Y-66935741D02*
X125321154Y-66952236D01*
X172004877Y-25080000D02*
X172066825Y-25081520D01*
X170205630Y-27998438D02*
X170205439Y-27998270D01*
X126261359Y-42665120D02*
X126268929Y-42726498D01*
X152234983Y-121177350D02*
X152287232Y-121144264D01*
X171985122Y-122870000D02*
X171923174Y-122868479D01*
X170316370Y-108414047D02*
X170346561Y-108380630D01*
X126278981Y-27622250D02*
X126278602Y-27622561D01*
X124688845Y-66952236D02*
X124629242Y-66935741D01*
X126275638Y-80953002D02*
X126275803Y-80953465D01*
X126275991Y-53013918D02*
X126276201Y-53014362D01*
X125199879Y-97483640D02*
X125260813Y-97494213D01*
X126283909Y-136839790D02*
X126284398Y-136839839D01*
X126027039Y-125919420D02*
X126062649Y-125969983D01*
X125138501Y-153356070D02*
X125199879Y-153363640D01*
X169672453Y-111515095D02*
X169672212Y-111515016D01*
X151699213Y-126300813D02*
X151688640Y-126239879D01*
X124570519Y-153423657D02*
X124629242Y-153404258D01*
X125861162Y-125736403D02*
X125905952Y-125779047D01*
X124749186Y-153374213D02*
X124810120Y-153363640D01*
X172598958Y-66841218D02*
X172543718Y-66869023D01*
X126275136Y-27629888D02*
X126275003Y-27635340D01*
X155618501Y-155248929D02*
X155556825Y-155253479D01*
X126275000Y-111455586D02*
X126275000Y-121609877D01*
X172705016Y-25292350D02*
X172755579Y-25327960D01*
X170845976Y-150088718D02*
X170820914Y-150032179D01*
X124294983Y-38837649D02*
X124244420Y-38802039D01*
X169672212Y-83575016D02*
X169642004Y-83565538D01*
X169926339Y-136655953D02*
X169926562Y-136655833D01*
X126277561Y-139383602D02*
X126277250Y-139383981D01*
X156195016Y-93237350D02*
X156245579Y-93272960D01*
X170146318Y-108570975D02*
X170181222Y-108542514D01*
X126275991Y-27626081D02*
X126275803Y-27626534D01*
X125814333Y-38763990D02*
X125765579Y-38802039D01*
X169208914Y-27620201D02*
X169193082Y-27620000D01*
X170395975Y-52441318D02*
X170396132Y-52441120D01*
X170937350Y-42149983D02*
X170972960Y-42099420D01*
X171138837Y-38723596D02*
X171094047Y-38680952D01*
X126278238Y-139382891D02*
X126277891Y-139383238D01*
X170726520Y-42788174D02*
X170731070Y-42726498D01*
X170084374Y-108617468D02*
X170084581Y-108617321D01*
X170607363Y-163842291D02*
X170607460Y-163842057D01*
X170442321Y-56200418D02*
X170415665Y-56164118D01*
X126279375Y-55561957D02*
X126278981Y-55562250D01*
X156245579Y-149152960D02*
X156294333Y-149191009D01*
X172487179Y-153445914D02*
X172543718Y-153470976D01*
X173258929Y-126546498D02*
X173263479Y-126608174D01*
X169192956Y-27620000D02*
X126290586Y-27620000D01*
X171185666Y-38763990D02*
X171138837Y-38723596D01*
X123855976Y-38328718D02*
X123830914Y-38272179D01*
X126179085Y-98247820D02*
X126201342Y-98305519D01*
X173227236Y-93976154D02*
X173210741Y-94035757D01*
X156245579Y-155007039D02*
X156195016Y-155042649D01*
X170262362Y-52589207D02*
X170294207Y-52557362D01*
X169715307Y-111529746D02*
X169715069Y-111529661D01*
X171502820Y-41685914D02*
X171560519Y-41663657D01*
X169339390Y-139386619D02*
X169339138Y-139386597D01*
X124401041Y-25228781D02*
X124456281Y-25200976D01*
X124629242Y-122815741D02*
X124570519Y-122796342D01*
X151681070Y-98238501D02*
X151676520Y-98176825D01*
X126275281Y-108891575D02*
X126275376Y-108892057D01*
X152001403Y-43081162D02*
X151961009Y-43034333D01*
X170181417Y-136482352D02*
X170205439Y-136461729D01*
X156700741Y-121859242D02*
X156717236Y-121918845D01*
X152184420Y-127067039D02*
X152135666Y-127028990D01*
X169567568Y-55605073D02*
X169567322Y-55605013D01*
X170624257Y-52039997D02*
X170635253Y-52010307D01*
X126283909Y-55560209D02*
X126283424Y-55560281D01*
X152569242Y-155200741D02*
X152510519Y-155181342D01*
X124688845Y-167282236D02*
X124629242Y-167265741D01*
X124061403Y-42003837D02*
X124104047Y-41959047D01*
X171985122Y-97470000D02*
X172004877Y-97470000D01*
X169370888Y-27629822D02*
X169339390Y-27626619D01*
X124810120Y-69543640D02*
X124871498Y-69536070D01*
X125321154Y-69567763D02*
X125380757Y-69584258D01*
X155494877Y-120965000D02*
X155556825Y-120966520D01*
X170367352Y-56103582D02*
X170346729Y-56079560D01*
X124294983Y-150597649D02*
X124244420Y-150562039D01*
X152044047Y-154885952D02*
X152001403Y-154841162D01*
X123789258Y-94035757D02*
X123772763Y-93976154D01*
X126279375Y-111441957D02*
X126278981Y-111442250D01*
X171502820Y-38954085D02*
X171446281Y-38929023D01*
X171678845Y-150772236D02*
X171619242Y-150755741D01*
X126268929Y-42726498D02*
X126273479Y-42788174D01*
X152135666Y-93311009D02*
X152184420Y-93272960D01*
X170724999Y-51488082D02*
X170724999Y-51487956D01*
X171094047Y-66620952D02*
X171051403Y-66576162D01*
X151887350Y-121524983D02*
X151922960Y-121474420D01*
X170181417Y-139737647D02*
X170181222Y-139737485D01*
X170594774Y-80051618D02*
X170594877Y-80051386D01*
X169744997Y-80859257D02*
X169745234Y-80859166D01*
X124148837Y-153676403D02*
X124195666Y-153636009D01*
X169262105Y-164778451D02*
X169262358Y-164778441D01*
X171011009Y-94469333D02*
X170972960Y-94420579D01*
X156428596Y-65498837D02*
X156468990Y-65545666D01*
X173017039Y-150300579D02*
X172978990Y-150349333D01*
X170696642Y-140613057D02*
X170696594Y-140612808D01*
X118656685Y-20004783D02*
X118656432Y-20005204D01*
X152396281Y-37265976D02*
X152452820Y-37240914D01*
X151887350Y-126755016D02*
X151854264Y-126702767D01*
X124456281Y-150689023D02*
X124401041Y-150661218D01*
X172804333Y-66703990D02*
X172755579Y-66742039D01*
X125765579Y-66742039D02*
X125715016Y-66777649D01*
X169715069Y-52930338D02*
X169715307Y-52930253D01*
X124512820Y-69625914D02*
X124570519Y-69603657D01*
X178340216Y-172398314D02*
X178340624Y-172398042D01*
X170540953Y-108101339D02*
X170561805Y-108061421D01*
X124933174Y-167318479D02*
X124871498Y-167313929D01*
X169262105Y-80958451D02*
X169262358Y-80958441D01*
X170396132Y-28198879D02*
X170395975Y-28198681D01*
X169598218Y-108846990D02*
X169598462Y-108846923D01*
X126275281Y-164771575D02*
X126275376Y-164772057D01*
X170395975Y-136261318D02*
X170396132Y-136261120D01*
X152873174Y-65086520D02*
X152935122Y-65085000D01*
X123735000Y-154610122D02*
X123736520Y-154548174D01*
X152135666Y-37431009D02*
X152184420Y-37392960D01*
X173169085Y-150032179D02*
X173144023Y-150088718D01*
X170820914Y-154127820D02*
X170845976Y-154071281D01*
X172429480Y-94856342D02*
X172370757Y-94875741D01*
X125321154Y-150772236D02*
X125260813Y-150785786D01*
X169208914Y-111440201D02*
X169193082Y-111440000D01*
X156730786Y-126300813D02*
X156717236Y-126361154D01*
X170704629Y-163502362D02*
X170709423Y-163471066D01*
X172487179Y-38954085D02*
X172429480Y-38976342D01*
X169598218Y-136786990D02*
X169598462Y-136786923D01*
X123947350Y-25639983D02*
X123982960Y-25589420D01*
X171337232Y-153529264D02*
X171391041Y-153498781D01*
X156681342Y-98539480D02*
X156659085Y-98597179D01*
X171284983Y-38837649D02*
X171234420Y-38802039D01*
X169598462Y-83553076D02*
X169598218Y-83553009D01*
X170659534Y-51936761D02*
X170671923Y-51893462D01*
X152628845Y-99337236D02*
X152569242Y-99320741D01*
X170726520Y-93731825D02*
X170724999Y-93669877D01*
X126275160Y-136830601D02*
X126275209Y-136831090D01*
X170540953Y-163981339D02*
X170561805Y-163941421D01*
X123830914Y-38272179D02*
X123808657Y-38214480D01*
X170346561Y-136320630D02*
X170346729Y-136320439D01*
X118661534Y-20000803D02*
X118661081Y-20000991D01*
X169339390Y-164773380D02*
X169370888Y-164770177D01*
X126275000Y-164764413D02*
X126275003Y-164764659D01*
X171138837Y-150483596D02*
X171094047Y-150440952D01*
X170635338Y-140389930D02*
X170635253Y-140389692D01*
X152234983Y-37357350D02*
X152287232Y-37324264D01*
X170181222Y-52662514D02*
X170181417Y-52662352D01*
X171678845Y-39012236D02*
X171619242Y-38995741D01*
X170659461Y-140462995D02*
X170649983Y-140432787D01*
X178335601Y-172399839D02*
X178336090Y-172399790D01*
X124871498Y-94923929D02*
X124810120Y-94916359D01*
X124021009Y-42050666D02*
X124061403Y-42003837D01*
X170724798Y-140896085D02*
X170724796Y-140895958D01*
X170540953Y-56358660D02*
X170540833Y-56358437D01*
X170724999Y-149549877D02*
X170725000Y-140912043D01*
X126278981Y-83502250D02*
X126278602Y-83502561D01*
X124933174Y-25081520D02*
X124995122Y-25080000D01*
X170649904Y-28672546D02*
X170635338Y-28629930D01*
X126277561Y-164776397D02*
X126277891Y-164776761D01*
X170904264Y-42202232D02*
X170937350Y-42149983D01*
X170749213Y-38035813D02*
X170738640Y-37974879D01*
X173265000Y-93669877D02*
X173263479Y-93731825D01*
X169523203Y-136805221D02*
X169523451Y-136805166D01*
X123735000Y-126670122D02*
X123736520Y-126608174D01*
X124995122Y-122870000D02*
X124933174Y-122868479D01*
X172978990Y-38589333D02*
X172938596Y-38636162D01*
X124810120Y-150796359D02*
X124749186Y-150785786D01*
X123883781Y-70196041D02*
X123914264Y-70142232D01*
X156294333Y-127028990D02*
X156245579Y-127067039D01*
X155801154Y-99337236D02*
X155740813Y-99350786D01*
X170779258Y-126304242D02*
X170798657Y-126245519D01*
X125497179Y-94834085D02*
X125439480Y-94856342D01*
X126062649Y-153909983D02*
X126095735Y-153962232D01*
X126282466Y-136839503D02*
X126282942Y-136839623D01*
X171011009Y-125870666D02*
X171051403Y-125823837D01*
X155977179Y-93120914D02*
X156033718Y-93145976D01*
X118662466Y-172399503D02*
X118662942Y-172399623D01*
X152811498Y-120971070D02*
X152873174Y-120966520D01*
X170346561Y-164260630D02*
X170346729Y-164260439D01*
X125988990Y-97930666D02*
X126027039Y-97979420D01*
X169816618Y-80829774D02*
X169857541Y-80810971D01*
X151676520Y-42296825D02*
X151675000Y-42234877D01*
X172128501Y-150803929D02*
X172066825Y-150808479D01*
X155618501Y-127308929D02*
X155556825Y-127313479D01*
X169886195Y-164616919D02*
X169886421Y-164616805D01*
X169370888Y-139389822D02*
X169339390Y-139386619D01*
X169641761Y-83565465D02*
X169598462Y-83553076D01*
X170485617Y-164075361D02*
X170502364Y-164048493D01*
X125765579Y-97717960D02*
X125814333Y-97756009D01*
X169293978Y-27623161D02*
X169262358Y-27621558D01*
X151675000Y-126054877D02*
X151675000Y-122225122D01*
X124688845Y-97507763D02*
X124749186Y-97494213D01*
X126278238Y-53017108D02*
X126278602Y-53017438D01*
X151748657Y-149740519D02*
X151770914Y-149682820D01*
X170726520Y-126608174D02*
X170731070Y-126546498D01*
X171502820Y-150714085D02*
X171446281Y-150689023D01*
X125199879Y-125423640D02*
X125260813Y-125434213D01*
X170316198Y-28105766D02*
X170294384Y-28082818D01*
X152088837Y-93351403D02*
X152135666Y-93311009D01*
X169954465Y-139579657D02*
X169954245Y-139579531D01*
X170709423Y-79651066D02*
X170709458Y-79650816D01*
X171051403Y-97883837D02*
X171094047Y-97839047D01*
X172429480Y-150736342D02*
X172370757Y-150755741D01*
X170084581Y-80677321D02*
X170120881Y-80650665D01*
X169598218Y-164726990D02*
X169598462Y-164726923D01*
X125380757Y-150755741D02*
X125321154Y-150772236D01*
X170460697Y-56226820D02*
X170460555Y-56226610D01*
X169672212Y-55635016D02*
X169642004Y-55625538D01*
X125439480Y-125483657D02*
X125497179Y-125505914D01*
X151675000Y-153994877D02*
X151675000Y-150165122D01*
X169416066Y-27635576D02*
X169415816Y-27635541D01*
X126268929Y-93793501D02*
X126261359Y-93854879D01*
X172652767Y-122690735D02*
X172598958Y-122721218D01*
X125138501Y-122863929D02*
X125076825Y-122868479D01*
X125260813Y-39025786D02*
X125199879Y-39036359D01*
X171739186Y-94905786D02*
X171678845Y-94892236D01*
X170084374Y-55842531D02*
X170058389Y-55824444D01*
X124061403Y-153763837D02*
X124104047Y-153719047D01*
X170624166Y-52040234D02*
X170624257Y-52039997D01*
X170798657Y-42425519D02*
X170820914Y-42367820D01*
X123808657Y-70365519D02*
X123830914Y-70307820D01*
X169598462Y-136786923D02*
X169641761Y-136774534D01*
X173169085Y-166542179D02*
X173144023Y-166598718D01*
X152396281Y-43374023D02*
X152341041Y-43346218D01*
X170294384Y-83962818D02*
X170294207Y-83962637D01*
X123808657Y-98305519D02*
X123830914Y-98247820D01*
X172895952Y-122500952D02*
X172851162Y-122543596D01*
X118658981Y-172397749D02*
X118659375Y-172398042D01*
X156294333Y-37431009D02*
X156341162Y-37471403D01*
X118664888Y-20000136D02*
X118664398Y-20000160D01*
X170696594Y-112672808D02*
X170690221Y-112641796D01*
X170502364Y-28351506D02*
X170485617Y-28324638D01*
X170239047Y-164371370D02*
X170239233Y-164371198D01*
X155860757Y-37199258D02*
X155919480Y-37218657D01*
X171138837Y-97796403D02*
X171185666Y-97756009D01*
X152811498Y-65091070D02*
X152873174Y-65086520D01*
X169262105Y-136838451D02*
X169262358Y-136838441D01*
X156507039Y-37654420D02*
X156542649Y-37704983D01*
X151922960Y-149414420D02*
X151961009Y-149365666D01*
X172066825Y-97471520D02*
X172128501Y-97476070D01*
X169491942Y-83528357D02*
X169447612Y-83520412D01*
X170762763Y-154303845D02*
X170779258Y-154244242D01*
X125553718Y-122749023D02*
X125497179Y-122774085D01*
X170346729Y-84019560D02*
X170346561Y-84019369D01*
X170624257Y-163799997D02*
X170635253Y-163770307D01*
X124456281Y-25200976D02*
X124512820Y-25175914D01*
X156755000Y-150165122D02*
X156755000Y-153994877D01*
X152935122Y-65085000D02*
X155494877Y-65085000D01*
X156741359Y-66160120D02*
X156748929Y-66221498D01*
X126275209Y-139388909D02*
X126275160Y-139389398D01*
X169447612Y-55580412D02*
X169447362Y-55580370D01*
X171094047Y-69899047D02*
X171138837Y-69856403D01*
X170415665Y-108295881D02*
X170442321Y-108259581D01*
X170779258Y-149915757D02*
X170762763Y-149856154D01*
X171284983Y-125622350D02*
X171337232Y-125589264D01*
X173169085Y-122092179D02*
X173144023Y-122148718D01*
X169744997Y-136739257D02*
X169745234Y-136739166D01*
X118664398Y-172399839D02*
X118664888Y-172399863D01*
X170696594Y-107667191D02*
X170696642Y-107666942D01*
X170679926Y-79802568D02*
X170679986Y-79802322D01*
X123789258Y-98364242D02*
X123808657Y-98305519D01*
X156195016Y-149117350D02*
X156245579Y-149152960D01*
X178344623Y-20007942D02*
X178344503Y-20007466D01*
X156659085Y-70657179D02*
X156634023Y-70713718D01*
X124512820Y-122774085D02*
X124456281Y-122749023D01*
X156033718Y-155134023D02*
X155977179Y-155159085D01*
X126027039Y-150300579D02*
X125988990Y-150349333D01*
X173240786Y-149795813D02*
X173227236Y-149856154D01*
X170367514Y-84043777D02*
X170367352Y-84043582D01*
X169293978Y-80956838D02*
X169294231Y-80956822D01*
X169715307Y-139469746D02*
X169715069Y-139469661D01*
X156195016Y-43282649D02*
X156142767Y-43315735D01*
X172598958Y-167171218D02*
X172543718Y-167199023D01*
X169787291Y-55677636D02*
X169787057Y-55677539D01*
X169193082Y-80959999D02*
X169208914Y-80959798D01*
X126281081Y-83500991D02*
X126280637Y-83501201D01*
X126284888Y-139380136D02*
X126284398Y-139380160D01*
X126275991Y-136833918D02*
X126276201Y-136834362D01*
X170575971Y-52152541D02*
X170594774Y-52111618D01*
X170671990Y-28746781D02*
X170671923Y-28746537D01*
X156341162Y-121291403D02*
X156385952Y-121334047D01*
X170485480Y-52315575D02*
X170485617Y-52315361D01*
X156245579Y-71187039D02*
X156195016Y-71222649D01*
X125608958Y-41738781D02*
X125662767Y-41769264D01*
X152935122Y-120965000D02*
X155494877Y-120965000D01*
X178344196Y-172393465D02*
X178344361Y-172393002D01*
X126237236Y-98423845D02*
X126250786Y-98484186D01*
X172250813Y-41614213D02*
X172311154Y-41627763D01*
X178345000Y-20015586D02*
X178344996Y-20015340D01*
X118659375Y-20001957D02*
X118658981Y-20002250D01*
X151961009Y-149365666D02*
X152001403Y-149318837D01*
X123830914Y-122092179D02*
X123808657Y-122034480D01*
X172487179Y-94834085D02*
X172429480Y-94856342D01*
X170972960Y-97979420D02*
X171011009Y-97930666D01*
X170721838Y-51588978D02*
X170723441Y-51557358D01*
X170367352Y-164236417D02*
X170367514Y-164236222D01*
X171051403Y-42003837D02*
X171094047Y-41959047D01*
X173191342Y-154185519D02*
X173210741Y-154244242D01*
X170724798Y-57076085D02*
X170724796Y-57075958D01*
X151770914Y-98597179D02*
X151748657Y-98539480D01*
X170749213Y-98484186D02*
X170762763Y-98423845D01*
X126278981Y-53017749D02*
X126279375Y-53018042D01*
X173240786Y-166305813D02*
X173227236Y-166366154D01*
X169492191Y-164751594D02*
X169523203Y-164745221D01*
X126273479Y-154548174D02*
X126275000Y-154610122D01*
X126275638Y-55566997D02*
X126275496Y-55567466D01*
X124570519Y-41663657D02*
X124629242Y-41644258D01*
X172311154Y-97507763D02*
X172370757Y-97524258D01*
X170262362Y-139810792D02*
X170262181Y-139810615D01*
X126278981Y-139382250D02*
X126278602Y-139382561D01*
X126276957Y-164775624D02*
X126277250Y-164776018D01*
X125199879Y-39036359D02*
X125138501Y-39043929D01*
X170146120Y-83828867D02*
X170121083Y-83809487D01*
X169339138Y-164773402D02*
X169339390Y-164773380D01*
X152341041Y-71286218D02*
X152287232Y-71255735D01*
X169598218Y-55613009D02*
X169567568Y-55605073D01*
X170649983Y-79907212D02*
X170659461Y-79877004D01*
X170084581Y-164497321D02*
X170120881Y-164470665D01*
X170460697Y-140046820D02*
X170460555Y-140046610D01*
X169787057Y-139497539D02*
X169745234Y-139480833D01*
X172487179Y-41685914D02*
X172543718Y-41710976D01*
X170671990Y-163653218D02*
X170679926Y-163622568D01*
X151748657Y-126479480D02*
X151729258Y-126420757D01*
X123735000Y-65729877D02*
X123735000Y-42850122D01*
X178329659Y-20000003D02*
X178329413Y-20000000D01*
X173210741Y-70424242D02*
X173227236Y-70483845D01*
X123883781Y-126076041D02*
X123914264Y-126022232D01*
X126275991Y-55566081D02*
X126275803Y-55566534D01*
X126279783Y-136838314D02*
X126280204Y-136838567D01*
X126275281Y-139388424D02*
X126275209Y-139388909D01*
X169567322Y-27665013D02*
X169523451Y-27654833D01*
X170316198Y-164294233D02*
X170316370Y-164294047D01*
X125861162Y-97796403D02*
X125905952Y-97839047D01*
X170146120Y-108571132D02*
X170146318Y-108570975D01*
X152287232Y-43315735D02*
X152234983Y-43282649D01*
X155679879Y-43481359D02*
X155618501Y-43488929D01*
X126281997Y-55560638D02*
X126281534Y-55560803D01*
X155618501Y-93031070D02*
X155679879Y-93038640D01*
X172804333Y-153636009D02*
X172851162Y-153676403D01*
X170721822Y-84930768D02*
X170718402Y-84885861D01*
X126276957Y-55564375D02*
X126276685Y-55564783D01*
X156428596Y-71021162D02*
X156385952Y-71065952D01*
X170845976Y-70251281D02*
X170873781Y-70196041D01*
X170485480Y-140084424D02*
X170460697Y-140046820D01*
X123748640Y-121794879D02*
X123741070Y-121733501D01*
X126273479Y-65791825D02*
X126268929Y-65853501D01*
X125014877Y-66990000D02*
X124995122Y-66990000D01*
X171011009Y-38589333D02*
X170972960Y-38540579D01*
X155860757Y-43440741D02*
X155801154Y-43457236D01*
X169491942Y-27648357D02*
X169447612Y-27640412D01*
X170181222Y-136482514D02*
X170181417Y-136482352D01*
X170972960Y-38540579D02*
X170937350Y-38490016D01*
X170659461Y-112522995D02*
X170649983Y-112492787D01*
X124688845Y-25117763D02*
X124749186Y-25104213D01*
X152234983Y-149117350D02*
X152287232Y-149084264D01*
X169886195Y-139543080D02*
X169857770Y-139529137D01*
X169715307Y-83589746D02*
X169715069Y-83589661D01*
X169523451Y-80925166D02*
X169567322Y-80914986D01*
X123759213Y-98484186D02*
X123772763Y-98423845D01*
X124148837Y-122543596D02*
X124104047Y-122500952D01*
X172652767Y-41769264D02*
X172705016Y-41802350D01*
X170415512Y-28223916D02*
X170396132Y-28198879D01*
X152935122Y-43495000D02*
X152873174Y-43493479D01*
X172429480Y-41663657D02*
X172487179Y-41685914D01*
X152873174Y-120966520D02*
X152935122Y-120965000D01*
X126220741Y-154244242D02*
X126237236Y-154303845D01*
X152044047Y-93394047D02*
X152088837Y-93351403D01*
X123735000Y-149549877D02*
X123735000Y-126670122D01*
X170239047Y-136431370D02*
X170239233Y-136431198D01*
X172128501Y-69536070D02*
X172189879Y-69543640D01*
X172370757Y-38995741D02*
X172311154Y-39012236D01*
X171284983Y-41802350D02*
X171337232Y-41769264D01*
X123789258Y-149915757D02*
X123772763Y-149856154D01*
X124629242Y-94875741D02*
X124570519Y-94856342D01*
X156468990Y-121425666D02*
X156507039Y-121474420D01*
X170502495Y-112171723D02*
X170502364Y-112171506D01*
X170346561Y-28139369D02*
X170316370Y-28105952D01*
X155919480Y-121038657D02*
X155977179Y-121060914D01*
X156606218Y-93691041D02*
X156634023Y-93746281D01*
X170624257Y-79979997D02*
X170635253Y-79950307D01*
X170649904Y-79907453D02*
X170649983Y-79907212D01*
X151922960Y-126805579D02*
X151887350Y-126755016D01*
X169886195Y-136676919D02*
X169886421Y-136676805D01*
X169339138Y-108893402D02*
X169339390Y-108893380D01*
X156142767Y-121144264D02*
X156195016Y-121177350D01*
X170723451Y-84962894D02*
X170723441Y-84962641D01*
X152287232Y-121144264D02*
X152341041Y-121113781D01*
X170659534Y-135756761D02*
X170671923Y-135713462D01*
X126280637Y-83501201D02*
X126280204Y-83501432D01*
X126126218Y-70196041D02*
X126154023Y-70251281D01*
X169447612Y-111460412D02*
X169447362Y-111460370D01*
X155740813Y-120989213D02*
X155801154Y-121002763D01*
X126279783Y-139381685D02*
X126279375Y-139381957D01*
X126284888Y-53019863D02*
X126290340Y-53019996D01*
X152001403Y-93438837D02*
X152044047Y-93394047D01*
X170671923Y-140506537D02*
X170659534Y-140463238D01*
X169816618Y-164649774D02*
X169857541Y-164630971D01*
X152873174Y-127313479D02*
X152811498Y-127308929D01*
X170724798Y-163263914D02*
X170724999Y-163248082D01*
X178339795Y-20001432D02*
X178339362Y-20001201D01*
X170525468Y-56330754D02*
X170525342Y-56330534D01*
X125715016Y-150597649D02*
X125662767Y-150630735D01*
X171446281Y-94809023D02*
X171391041Y-94781218D01*
X170724796Y-57075958D02*
X170723451Y-57022894D01*
X170262181Y-80529384D02*
X170262362Y-80529207D01*
X126275803Y-53013465D02*
X126275991Y-53013918D01*
X171234420Y-41837960D02*
X171284983Y-41802350D01*
X169293978Y-136836838D02*
X169294231Y-136836822D01*
X171619242Y-41644258D02*
X171678845Y-41627763D01*
X169415816Y-55575541D02*
X169371140Y-55569851D01*
X126277891Y-164776761D02*
X126278238Y-164777108D01*
X126283909Y-83500209D02*
X126283424Y-83500281D01*
X170294207Y-108437362D02*
X170294384Y-108437181D01*
X170346729Y-136320439D02*
X170367352Y-136296417D01*
X125765579Y-94682039D02*
X125715016Y-94717649D01*
X170415665Y-84104118D02*
X170415512Y-84103916D01*
X170718402Y-79574138D02*
X170721822Y-79529231D01*
X124933174Y-69531520D02*
X124995122Y-69530000D01*
X156681342Y-70599480D02*
X156659085Y-70657179D01*
X124810120Y-153363640D02*
X124871498Y-153356070D01*
X151688640Y-149980120D02*
X151699213Y-149919186D01*
X172370757Y-153404258D02*
X172429480Y-153423657D01*
X170659461Y-107817004D02*
X170659534Y-107816761D01*
X170120881Y-55869334D02*
X170084581Y-55842678D01*
X170262362Y-111870792D02*
X170262181Y-111870615D01*
X173265000Y-154610122D02*
X173265000Y-166059877D01*
X170649983Y-163727212D02*
X170659461Y-163697004D01*
X123830914Y-150032179D02*
X123808657Y-149974480D01*
X170738640Y-65914879D02*
X170731070Y-65853501D01*
X170659534Y-112523238D02*
X170659461Y-112522995D01*
X170058389Y-164515555D02*
X170084374Y-164497468D01*
X170367514Y-80416222D02*
X170395975Y-80381318D01*
X170525342Y-84270534D02*
X170502495Y-84231723D01*
X156606218Y-98708958D02*
X156575735Y-98762767D01*
X170442321Y-136199581D02*
X170442468Y-136199374D01*
X170262362Y-83930792D02*
X170262181Y-83930615D01*
X152234983Y-155042649D02*
X152184420Y-155007039D01*
X178336575Y-20000281D02*
X178336090Y-20000209D01*
X155977179Y-43399085D02*
X155919480Y-43421342D01*
X169954245Y-139579531D02*
X169926562Y-139564166D01*
X171094047Y-94560952D02*
X171051403Y-94516162D01*
X171619242Y-38995741D02*
X171560519Y-38976342D01*
X173265000Y-149549877D02*
X173263479Y-149611825D01*
X171923174Y-66988479D02*
X171861498Y-66983929D01*
X126284398Y-108899839D02*
X126284888Y-108899863D01*
X170798657Y-154185519D02*
X170820914Y-154127820D01*
X124512820Y-94834085D02*
X124456281Y-94809023D01*
X125497179Y-153445914D02*
X125553718Y-153470976D01*
X169262358Y-164778441D02*
X169293978Y-164776838D01*
X156033718Y-99254023D02*
X155977179Y-99279085D01*
X126277250Y-80956018D02*
X126277561Y-80956397D01*
X169744997Y-164679257D02*
X169745234Y-164679166D01*
X178341761Y-172397108D02*
X178342108Y-172396761D01*
X125905952Y-69899047D02*
X125948596Y-69943837D01*
X155494877Y-43495000D02*
X152935122Y-43495000D01*
X126277891Y-27623238D02*
X126277561Y-27623602D01*
X170058179Y-27884302D02*
X170020575Y-27859519D01*
X152341041Y-149053781D02*
X152396281Y-149025976D01*
X126277250Y-136836018D02*
X126277561Y-136836397D01*
X169491942Y-136811642D02*
X169492191Y-136811594D01*
X155860757Y-99320741D02*
X155801154Y-99337236D01*
X125321154Y-153387763D02*
X125380757Y-153404258D01*
X151688640Y-38220120D02*
X151699213Y-38159186D01*
X151712763Y-126361154D02*
X151699213Y-126300813D01*
X125905952Y-66620952D02*
X125861162Y-66663596D01*
X170607363Y-140317708D02*
X170594877Y-140288613D01*
X125814333Y-66703990D02*
X125765579Y-66742039D01*
X169641761Y-80894534D02*
X169642004Y-80894461D01*
X125861162Y-150483596D02*
X125814333Y-150523990D01*
X126281534Y-136839196D02*
X126281997Y-136839361D01*
X170294207Y-83962637D02*
X170262362Y-83930792D01*
X170121083Y-52710512D02*
X170146120Y-52691132D01*
X123982960Y-125919420D02*
X124021009Y-125870666D01*
X171923174Y-69531520D02*
X171985122Y-69530000D01*
X126062649Y-125969983D02*
X126095735Y-126022232D01*
X124810120Y-167306359D02*
X124749186Y-167295786D01*
X126154023Y-154071281D02*
X126179085Y-154127820D01*
X155618501Y-37151070D02*
X155679879Y-37158640D01*
X123914264Y-66377767D02*
X123883781Y-66323958D01*
X151699213Y-121979186D02*
X151712763Y-121918845D01*
X172004877Y-69530000D02*
X172066825Y-69531520D01*
X170779258Y-154244242D02*
X170798657Y-154185519D01*
X172851162Y-38723596D02*
X172804333Y-38763990D01*
X172543718Y-94809023D02*
X172487179Y-94834085D01*
X170540833Y-140178437D02*
X170525468Y-140150754D01*
X123883781Y-150143958D02*
X123855976Y-150088718D01*
X170020575Y-111679519D02*
X170020361Y-111679382D01*
X169816386Y-164649877D02*
X169816618Y-164649774D01*
X169744997Y-27720742D02*
X169715307Y-27709746D01*
X126275209Y-53011090D02*
X126275281Y-53011575D01*
X152341041Y-93173781D02*
X152396281Y-93145976D01*
X156730786Y-94039186D02*
X156741359Y-94100120D01*
X126279375Y-139381957D02*
X126278981Y-139382250D01*
X173265000Y-26340122D02*
X173265000Y-37789877D01*
X169447612Y-83520412D02*
X169447362Y-83520370D01*
X125497179Y-97565914D02*
X125553718Y-97590976D01*
X170704629Y-140657637D02*
X170704587Y-140657387D01*
X170724798Y-79443914D02*
X170724999Y-79428082D01*
X126283424Y-164779718D02*
X126283909Y-164779790D01*
X172311154Y-41627763D02*
X172370757Y-41644258D01*
X155919480Y-71361342D02*
X155860757Y-71380741D01*
X151854264Y-42882767D02*
X151823781Y-42828958D01*
X170525468Y-140150754D02*
X170525342Y-140150534D01*
X123855976Y-70251281D02*
X123883781Y-70196041D01*
X170020361Y-52780617D02*
X170020575Y-52780480D01*
X172851162Y-125736403D02*
X172895952Y-125779047D01*
X173263479Y-166121825D02*
X173258929Y-166183501D01*
X172066825Y-39048479D02*
X172004877Y-39050000D01*
X156659085Y-42717179D02*
X156634023Y-42773718D01*
X170709458Y-163470816D02*
X170715148Y-163426140D01*
X170709423Y-51711066D02*
X170709458Y-51710816D01*
X170460555Y-56226610D02*
X170442468Y-56200625D01*
X170575862Y-52152770D02*
X170575971Y-52152541D01*
X169926562Y-111624166D02*
X169926339Y-111624046D01*
X125988990Y-94469333D02*
X125948596Y-94516162D01*
X178340624Y-172398042D02*
X178341018Y-172397749D01*
X126277561Y-83503602D02*
X126277250Y-83503981D01*
X126276201Y-53014362D02*
X126276432Y-53014795D01*
X124933174Y-125411520D02*
X124995122Y-125410000D01*
X169208914Y-83500201D02*
X169193082Y-83500000D01*
X125948596Y-97883837D02*
X125988990Y-97930666D01*
X151770914Y-65862820D02*
X151795976Y-65806281D01*
X169339390Y-111446619D02*
X169339138Y-111446597D01*
X123947350Y-166760016D02*
X123914264Y-166707767D01*
X170239047Y-108491370D02*
X170239233Y-108491198D01*
X169642004Y-55625538D02*
X169641761Y-55625465D01*
X126126218Y-38383958D02*
X126095735Y-38437767D01*
X152569242Y-99320741D02*
X152510519Y-99301342D01*
X170696642Y-84733057D02*
X170696594Y-84732808D01*
X172978990Y-42050666D02*
X173017039Y-42099420D01*
X169816618Y-27750225D02*
X169816386Y-27750122D01*
X152088837Y-71108596D02*
X152044047Y-71065952D01*
X178342749Y-172396018D02*
X178343042Y-172395624D01*
X169672453Y-83575095D02*
X169672212Y-83575016D01*
X126284888Y-83500136D02*
X126284398Y-83500160D01*
X124021009Y-38589333D02*
X123982960Y-38540579D01*
X126290586Y-27620000D02*
X126290340Y-27620003D01*
X172429480Y-122796342D02*
X172370757Y-122815741D01*
X118658602Y-172397438D02*
X118658981Y-172397749D01*
X151854264Y-37757232D02*
X151887350Y-37704983D01*
X124021009Y-153810666D02*
X124061403Y-153763837D01*
X123748640Y-93854879D02*
X123741070Y-93793501D01*
X170575862Y-135972770D02*
X170575971Y-135972541D01*
X126284398Y-27620160D02*
X126283909Y-27620209D01*
X172250813Y-39025786D02*
X172189879Y-39036359D01*
X170594774Y-28528381D02*
X170575971Y-28487458D01*
X172370757Y-69584258D02*
X172429480Y-69603657D01*
X169523203Y-139414778D02*
X169492191Y-139408405D01*
X124456281Y-38929023D02*
X124401041Y-38901218D01*
X156341162Y-93351403D02*
X156385952Y-93394047D01*
X171619242Y-66935741D02*
X171560519Y-66916342D01*
X126282942Y-83500376D02*
X126282466Y-83500496D01*
X170679986Y-28777677D02*
X170679926Y-28777431D01*
X173017039Y-125919420D02*
X173052649Y-125969983D01*
X170460555Y-140046610D02*
X170442468Y-140020625D01*
X126201342Y-154185519D02*
X126220741Y-154244242D01*
X170726520Y-65791825D02*
X170724999Y-65729877D01*
X152628845Y-148942763D02*
X152689186Y-148929213D01*
X170738640Y-126485120D02*
X170749213Y-126424186D01*
X171185666Y-41876009D02*
X171234420Y-41837960D01*
X170121083Y-136530512D02*
X170146120Y-136511132D01*
X169598218Y-111493009D02*
X169567568Y-111485073D01*
X123947350Y-150250016D02*
X123914264Y-150197767D01*
X156634023Y-42773718D02*
X156606218Y-42828958D01*
X123772763Y-126363845D02*
X123789258Y-126304242D01*
X125076825Y-125411520D02*
X125138501Y-125416070D01*
X173052649Y-125969983D02*
X173085735Y-126022232D01*
X178344718Y-20008424D02*
X178344623Y-20007942D01*
X170485480Y-56264424D02*
X170460697Y-56226820D01*
X126276957Y-83504375D02*
X126276685Y-83504783D01*
X169745234Y-80859166D02*
X169787057Y-80842460D01*
X169193082Y-27620000D02*
X169192956Y-27620000D01*
X124104047Y-166950952D02*
X124061403Y-166906162D01*
X124871498Y-66983929D02*
X124810120Y-66976359D01*
X169567568Y-139425073D02*
X169567322Y-139425013D01*
X170485480Y-80255575D02*
X170485617Y-80255361D01*
X171051403Y-150396162D02*
X171011009Y-150349333D01*
X170460555Y-28286610D02*
X170442468Y-28260625D01*
X118655496Y-172392533D02*
X118655638Y-172393002D01*
X126276685Y-111444783D02*
X126276432Y-111445204D01*
X126280637Y-164778798D02*
X126281081Y-164779008D01*
X155740813Y-37169213D02*
X155801154Y-37182763D01*
X173251359Y-121794879D02*
X173240786Y-121855813D01*
X169926339Y-55744046D02*
X169886421Y-55723194D01*
X152001403Y-37558837D02*
X152044047Y-37514047D01*
X171284983Y-153562350D02*
X171337232Y-153529264D01*
X169598462Y-139433076D02*
X169598218Y-139433009D01*
X151887350Y-149464983D02*
X151922960Y-149414420D01*
X152689186Y-155230786D02*
X152628845Y-155217236D01*
X170561919Y-52181195D02*
X170575862Y-52152770D01*
X126281534Y-80959196D02*
X126281997Y-80959361D01*
X151887350Y-37704983D02*
X151922960Y-37654420D01*
X126284888Y-111440136D02*
X126284398Y-111440160D01*
X152341041Y-43346218D02*
X152287232Y-43315735D01*
X170696594Y-28852808D02*
X170690221Y-28821796D01*
X124749186Y-167295786D02*
X124688845Y-167282236D01*
X151729258Y-65979242D02*
X151748657Y-65920519D01*
X151699213Y-154240813D02*
X151688640Y-154179879D01*
X172938596Y-38636162D02*
X172895952Y-38680952D01*
X171391041Y-125558781D02*
X171446281Y-125530976D01*
X118660204Y-172398567D02*
X118660637Y-172398798D01*
X125439480Y-38976342D02*
X125380757Y-38995741D01*
X170723451Y-57022894D02*
X170723441Y-57022641D01*
X126275991Y-108893918D02*
X126276201Y-108894362D01*
X170205439Y-27998270D02*
X170181417Y-27977647D01*
X170146120Y-111768867D02*
X170121083Y-111749487D01*
X169447362Y-108879629D02*
X169447612Y-108879587D01*
X169567568Y-83545073D02*
X169567322Y-83545013D01*
X170575971Y-84367458D02*
X170575862Y-84367229D01*
X126283424Y-136839718D02*
X126283909Y-136839790D01*
X169193082Y-139380000D02*
X169192956Y-139380000D01*
X126275136Y-53010111D02*
X126275160Y-53010601D01*
X169491942Y-80931642D02*
X169492191Y-80931594D01*
X125662767Y-94750735D02*
X125608958Y-94781218D01*
X170820914Y-122092179D02*
X170798657Y-122034480D01*
X170120881Y-80650665D02*
X170121083Y-80650512D01*
X125260813Y-153374213D02*
X125321154Y-153387763D01*
X151854264Y-126702767D02*
X151823781Y-126648958D01*
X169993276Y-136617495D02*
X169993493Y-136617364D01*
X151676520Y-70236825D02*
X151675000Y-70174877D01*
X126282942Y-111440376D02*
X126282466Y-111440496D01*
X173263479Y-126608174D02*
X173265000Y-126670122D01*
X126281534Y-164779196D02*
X126281997Y-164779361D01*
X126283424Y-111440281D02*
X126282942Y-111440376D01*
X126278981Y-80957749D02*
X126279375Y-80958042D01*
X123736520Y-93731825D02*
X123735000Y-93669877D01*
X170442321Y-164139581D02*
X170442468Y-164139374D01*
X169567568Y-80914926D02*
X169598218Y-80906990D01*
X169857541Y-27769028D02*
X169816618Y-27750225D01*
X126275000Y-70790122D02*
X126275000Y-80944413D01*
X172851162Y-69856403D02*
X172895952Y-69899047D01*
X172804333Y-150523990D02*
X172755579Y-150562039D01*
X171138837Y-41916403D02*
X171185666Y-41876009D01*
X170146120Y-136511132D02*
X170146318Y-136510975D01*
X169294231Y-27623177D02*
X169293978Y-27623161D01*
X172004877Y-41590000D02*
X172066825Y-41591520D01*
X172895952Y-38680952D02*
X172851162Y-38723596D01*
X126250786Y-38035813D02*
X126237236Y-38096154D01*
X152569242Y-65139258D02*
X152628845Y-65122763D01*
X170937350Y-98029983D02*
X170972960Y-97979420D01*
X173052649Y-70089983D02*
X173085735Y-70142232D01*
X152396281Y-149025976D02*
X152452820Y-149000914D01*
X170762763Y-98423845D02*
X170779258Y-98364242D01*
X155494877Y-148905000D02*
X155494877Y-148905000D01*
X178343314Y-172395216D02*
X178343567Y-172394795D01*
X169598218Y-27673009D02*
X169567568Y-27665073D01*
X124244420Y-125657960D02*
X124294983Y-125622350D01*
X126275376Y-83507942D02*
X126275281Y-83508424D01*
X125199879Y-153363640D02*
X125260813Y-153374213D01*
X155556825Y-127313479D02*
X155494877Y-127315000D01*
X124933174Y-150808479D02*
X124871498Y-150803929D01*
X170696594Y-79727191D02*
X170696642Y-79726942D01*
X152396281Y-93145976D02*
X152452820Y-93120914D01*
X170738640Y-37974879D02*
X170731070Y-37913501D01*
X171985122Y-153350000D02*
X172004877Y-153350000D01*
X125715016Y-69742350D02*
X125765579Y-69777960D01*
X123982960Y-153859420D02*
X124021009Y-153810666D01*
X155679879Y-99361359D02*
X155618501Y-99368929D01*
X172370757Y-122815741D02*
X172311154Y-122832236D01*
X169415816Y-136824458D02*
X169416066Y-136824423D01*
X118658238Y-20002891D02*
X118657891Y-20003238D01*
X124570519Y-150736342D02*
X124512820Y-150714085D01*
X124570519Y-125483657D02*
X124629242Y-125464258D01*
X126201342Y-149974480D02*
X126179085Y-150032179D01*
X170367352Y-28163582D02*
X170346729Y-28139560D01*
X178335111Y-20000136D02*
X178329659Y-20000003D01*
X126280637Y-27621201D02*
X126280204Y-27621432D01*
X178340216Y-20001685D02*
X178339795Y-20001432D01*
X152510519Y-43421342D02*
X152452820Y-43399085D01*
X169816386Y-80829877D02*
X169816618Y-80829774D01*
X170718402Y-163394138D02*
X170721822Y-163349231D01*
X155679879Y-71421359D02*
X155618501Y-71428929D01*
X156700741Y-93919242D02*
X156717236Y-93978845D01*
X170294207Y-139842637D02*
X170262362Y-139810792D01*
X169262358Y-80958441D02*
X169293978Y-80956838D01*
X169567322Y-136794986D02*
X169567568Y-136794926D01*
X170725000Y-140912043D02*
X170724999Y-140911917D01*
X170798657Y-126245519D02*
X170820914Y-126187820D01*
X152689186Y-99350786D02*
X152628845Y-99337236D01*
X123735000Y-37789877D02*
X123735000Y-26340122D01*
X170121083Y-55869487D02*
X170120881Y-55869334D01*
X169209041Y-136839796D02*
X169262105Y-136838451D01*
X126126218Y-94263958D02*
X126095735Y-94317767D01*
X152811498Y-37151070D02*
X152873174Y-37146520D01*
X156385952Y-93394047D02*
X156428596Y-93438837D01*
X156294333Y-99088990D02*
X156245579Y-99127039D01*
X171560519Y-41663657D02*
X171619242Y-41644258D01*
X156385952Y-43125952D02*
X156341162Y-43168596D01*
X151688640Y-70359879D02*
X151681070Y-70298501D01*
X124871498Y-150803929D02*
X124810120Y-150796359D01*
X155618501Y-65091070D02*
X155679879Y-65098640D01*
X124995122Y-97470000D02*
X125014877Y-97470000D01*
X152452820Y-37240914D02*
X152510519Y-37218657D01*
X172004877Y-66990000D02*
X171985122Y-66990000D01*
X170873781Y-94263958D02*
X170845976Y-94208718D01*
X170540833Y-52221562D02*
X170540953Y-52221339D01*
X169209041Y-55560203D02*
X169208914Y-55560201D01*
X156468990Y-126854333D02*
X156428596Y-126901162D01*
X173116218Y-66323958D02*
X173085735Y-66377767D01*
X170624166Y-79980234D02*
X170624257Y-79979997D01*
X126275803Y-80953465D02*
X126275991Y-80953918D01*
X172250813Y-125434213D02*
X172311154Y-125447763D01*
X170607460Y-52082057D02*
X170624166Y-52040234D01*
X126275136Y-83509888D02*
X126275003Y-83515340D01*
X172487179Y-150714085D02*
X172429480Y-150736342D01*
X156575735Y-121577232D02*
X156606218Y-121631041D01*
X152689186Y-120989213D02*
X152750120Y-120978640D01*
X171094047Y-97839047D02*
X171138837Y-97796403D01*
X170205439Y-164401729D02*
X170205630Y-164401561D01*
X172311154Y-39012236D02*
X172250813Y-39025786D01*
X123759213Y-70544186D02*
X123772763Y-70483845D01*
X151699213Y-98360813D02*
X151688640Y-98299879D01*
X156606218Y-70768958D02*
X156575735Y-70822767D01*
X151770914Y-93802820D02*
X151795976Y-93746281D01*
X152628845Y-155217236D02*
X152569242Y-155200741D01*
X172755579Y-41837960D02*
X172804333Y-41876009D01*
X172755579Y-167072039D02*
X172705016Y-167107649D01*
X171502820Y-125505914D02*
X171560519Y-125483657D01*
X155919480Y-155181342D02*
X155860757Y-155200741D01*
X171619242Y-97524258D02*
X171678845Y-97507763D01*
X155556825Y-93026520D02*
X155618501Y-93031070D01*
X126276201Y-139385637D02*
X126275991Y-139386081D01*
X169447362Y-55580370D02*
X169416066Y-55575576D01*
X172652767Y-125589264D02*
X172705016Y-125622350D01*
X169993493Y-139602635D02*
X169993276Y-139602504D01*
X171861498Y-153356070D02*
X171923174Y-153351520D01*
X169857770Y-136690862D02*
X169886195Y-136676919D01*
X170715177Y-107545888D02*
X170718380Y-107514390D01*
X126237236Y-42543845D02*
X126250786Y-42604186D01*
X156717236Y-42541154D02*
X156700741Y-42600757D01*
X156681342Y-121800519D02*
X156700741Y-121859242D01*
X170607460Y-135902057D02*
X170624166Y-135860234D01*
X118660637Y-20001201D02*
X118660204Y-20001432D01*
X170715148Y-140733859D02*
X170709458Y-140689183D01*
X124244420Y-25327960D02*
X124294983Y-25292350D01*
X170346729Y-80440439D02*
X170367352Y-80416417D01*
X173144023Y-94208718D02*
X173116218Y-94263958D01*
X152135666Y-121251009D02*
X152184420Y-121212960D01*
X170594877Y-52111386D02*
X170607363Y-52082291D01*
X173116218Y-126076041D02*
X173144023Y-126131281D01*
X169339390Y-108893380D02*
X169370888Y-108890177D01*
X123914264Y-42202232D02*
X123947350Y-42149983D01*
X169787291Y-52902363D02*
X169816386Y-52889877D01*
X172429480Y-167246342D02*
X172370757Y-167265741D01*
X124021009Y-25540666D02*
X124061403Y-25493837D01*
X126290340Y-164779996D02*
X126290586Y-164780000D01*
X125014877Y-41590000D02*
X125076825Y-41591520D01*
X126278981Y-108897749D02*
X126279375Y-108898042D01*
X126062649Y-94370016D02*
X126027039Y-94420579D01*
X170239047Y-83908629D02*
X170205630Y-83878438D01*
X170779258Y-70424242D02*
X170798657Y-70365519D01*
X170723441Y-107437358D02*
X170723451Y-107437105D01*
X123772763Y-149856154D02*
X123759213Y-149795813D01*
X123855976Y-25801281D02*
X123883781Y-25746041D01*
X169954245Y-83699531D02*
X169926562Y-83684166D01*
X126237236Y-70483845D02*
X126250786Y-70544186D01*
X126290340Y-111440003D02*
X126284888Y-111440136D01*
X125988990Y-153810666D02*
X126027039Y-153859420D01*
X169993493Y-52797364D02*
X170020361Y-52780617D01*
X155618501Y-148911070D02*
X155679879Y-148918640D01*
X171051403Y-66576162D02*
X171011009Y-66529333D01*
X126179085Y-150032179D02*
X126154023Y-150088718D01*
X151748657Y-65920519D02*
X151770914Y-65862820D01*
X126290340Y-80959996D02*
X126290586Y-80960000D01*
X170415665Y-56164118D02*
X170415512Y-56163916D01*
X123789258Y-154244242D02*
X123808657Y-154185519D01*
X169993276Y-27842504D02*
X169954465Y-27819657D01*
X156245579Y-121212960D02*
X156294333Y-121251009D01*
X152044047Y-37514047D02*
X152088837Y-37471403D01*
X169641761Y-136774534D02*
X169642004Y-136774461D01*
X155860757Y-148959258D02*
X155919480Y-148978657D01*
X170718402Y-140765861D02*
X170718380Y-140765609D01*
X178342438Y-172396397D02*
X178342749Y-172396018D01*
X156033718Y-65205976D02*
X156088958Y-65233781D01*
X124401041Y-94781218D02*
X124347232Y-94750735D01*
X170607460Y-56497942D02*
X170607363Y-56497708D01*
X173191342Y-70365519D02*
X173210741Y-70424242D01*
X152569242Y-93079258D02*
X152628845Y-93062763D01*
X126275136Y-53010111D02*
X126275136Y-53010111D01*
X156385952Y-121334047D02*
X156428596Y-121378837D01*
X173085735Y-153962232D02*
X173116218Y-154016041D01*
X125199879Y-66976359D02*
X125138501Y-66983929D01*
X173227236Y-26033845D02*
X173240786Y-26094186D01*
X170635253Y-79950307D02*
X170635338Y-79950069D01*
X156755000Y-98114877D02*
X156753479Y-98176825D01*
X156341162Y-154928596D02*
X156294333Y-154968990D01*
X172004877Y-153350000D02*
X172066825Y-153351520D01*
X170671990Y-140506781D02*
X170671923Y-140506537D01*
X123772763Y-38096154D02*
X123759213Y-38035813D01*
X170594877Y-107991386D02*
X170607363Y-107962291D01*
X118656201Y-20005637D02*
X118655991Y-20006081D01*
X171923174Y-125411520D02*
X171985122Y-125410000D01*
X124456281Y-167199023D02*
X124401041Y-167171218D01*
X155679879Y-37158640D02*
X155740813Y-37169213D01*
X170561805Y-163941421D02*
X170561919Y-163941195D01*
X125138501Y-150803929D02*
X125076825Y-150808479D01*
X126278602Y-55562561D02*
X126278238Y-55562891D01*
X151887350Y-42935016D02*
X151854264Y-42882767D01*
X171234420Y-125657960D02*
X171284983Y-125622350D01*
X126275160Y-27629398D02*
X126275136Y-27629888D01*
X125076825Y-39048479D02*
X125014877Y-39050000D01*
X125988990Y-38589333D02*
X125948596Y-38636162D01*
X152135666Y-65371009D02*
X152184420Y-65332960D01*
X172189879Y-94916359D02*
X172128501Y-94923929D01*
X125553718Y-150689023D02*
X125497179Y-150714085D01*
X170502495Y-52288276D02*
X170525342Y-52249465D01*
X124244420Y-97717960D02*
X124294983Y-97682350D01*
X126283909Y-164779790D02*
X126284398Y-164779839D01*
X126275638Y-53013002D02*
X126275803Y-53013465D01*
X170724999Y-135307956D02*
X170724999Y-126670122D01*
X170084581Y-83782678D02*
X170084374Y-83782531D01*
X172804333Y-69816009D02*
X172851162Y-69856403D01*
X156088958Y-127166218D02*
X156033718Y-127194023D01*
X173017039Y-70039420D02*
X173052649Y-70089983D01*
X118655991Y-172393918D02*
X118656201Y-172394362D01*
X124294983Y-94717649D02*
X124244420Y-94682039D01*
X151854264Y-70822767D02*
X151823781Y-70768958D01*
X170715148Y-112793859D02*
X170709458Y-112749183D01*
X170721822Y-79529231D02*
X170721838Y-79528978D01*
X170084581Y-136557321D02*
X170120881Y-136530665D01*
X169787291Y-83617636D02*
X169787057Y-83617539D01*
X172804333Y-122583990D02*
X172755579Y-122622039D01*
X170607363Y-56497708D02*
X170594877Y-56468613D01*
X170146318Y-55889024D02*
X170146120Y-55888867D01*
X169745234Y-27720833D02*
X169744997Y-27720742D01*
X156634023Y-37866281D02*
X156659085Y-37922820D01*
X126276957Y-80955624D02*
X126277250Y-80956018D01*
X124195666Y-69816009D02*
X124244420Y-69777960D01*
X156507039Y-93534420D02*
X156542649Y-93584983D01*
X156753479Y-150103174D02*
X156755000Y-150165122D01*
X126276201Y-27625637D02*
X126275991Y-27626081D01*
X123883781Y-94263958D02*
X123855976Y-94208718D01*
X171185666Y-125696009D02*
X171234420Y-125657960D01*
X170671990Y-135713218D02*
X170679926Y-135682568D01*
X126278602Y-53017438D02*
X126278981Y-53017749D01*
X151699213Y-70420813D02*
X151688640Y-70359879D01*
X171234420Y-94682039D02*
X171185666Y-94643990D01*
X170540833Y-136041562D02*
X170540953Y-136041339D01*
X126062649Y-42149983D02*
X126095735Y-42202232D01*
X170205439Y-139758270D02*
X170181417Y-139737647D01*
X170316198Y-83985766D02*
X170294384Y-83962818D01*
X172652767Y-66810735D02*
X172598958Y-66841218D01*
X169598462Y-80906923D02*
X169641761Y-80894534D01*
X151823781Y-37811041D02*
X151854264Y-37757232D01*
X170607460Y-163842057D02*
X170624166Y-163800234D01*
X151770914Y-37922820D02*
X151795976Y-37866281D01*
X169816386Y-27750122D02*
X169787291Y-27737636D01*
X170724796Y-79444041D02*
X170724798Y-79443914D01*
X170460697Y-164113179D02*
X170485480Y-164075575D01*
X170525468Y-112210754D02*
X170525342Y-112210534D01*
X170146318Y-139709024D02*
X170146120Y-139708867D01*
X170415512Y-56163916D02*
X170396132Y-56138879D01*
X156507039Y-65594420D02*
X156542649Y-65644983D01*
X170724999Y-140911917D02*
X170724798Y-140896085D01*
X173116218Y-122203958D02*
X173085735Y-122257767D01*
X178344790Y-20008909D02*
X178344718Y-20008424D01*
X118655209Y-172391090D02*
X118655281Y-172391575D01*
X171739186Y-125434213D02*
X171800120Y-125423640D01*
X155801154Y-37182763D02*
X155860757Y-37199258D01*
X171446281Y-97590976D02*
X171502820Y-97565914D01*
X170594877Y-28528613D02*
X170594774Y-28528381D01*
X170316198Y-52534233D02*
X170316370Y-52534047D01*
X169209041Y-139380203D02*
X169208914Y-139380201D01*
X126027039Y-66480579D02*
X125988990Y-66529333D01*
X170396132Y-139958879D02*
X170395975Y-139958681D01*
X125715016Y-38837649D02*
X125662767Y-38870735D01*
X172189879Y-41603640D02*
X172250813Y-41614213D01*
X169926339Y-83684046D02*
X169886421Y-83663194D01*
X170205630Y-164401561D02*
X170239047Y-164371370D01*
X178342108Y-20003238D02*
X178341761Y-20002891D01*
X173265000Y-65729877D02*
X173263479Y-65791825D01*
X126275803Y-111446534D02*
X126275638Y-111446997D01*
X170738640Y-93854879D02*
X170731070Y-93793501D01*
X123772763Y-93976154D02*
X123759213Y-93915813D01*
X169993493Y-80737364D02*
X170020361Y-80720617D01*
X152452820Y-65180914D02*
X152510519Y-65158657D01*
X170205630Y-52641561D02*
X170239047Y-52611370D01*
X126276685Y-53015216D02*
X126276957Y-53015624D01*
X126284398Y-164779839D02*
X126284888Y-164779863D01*
X170485617Y-80255361D02*
X170502364Y-80228493D01*
X124933174Y-41591520D02*
X124995122Y-41590000D01*
X169262105Y-83501548D02*
X169209041Y-83500203D01*
X172543718Y-150689023D02*
X172487179Y-150714085D01*
X170346729Y-139899560D02*
X170346561Y-139899369D01*
X156428596Y-37558837D02*
X156468990Y-37605666D01*
X173240786Y-93915813D02*
X173227236Y-93976154D01*
X126280204Y-80958567D02*
X126280637Y-80958798D01*
X126280637Y-139381201D02*
X126280204Y-139381432D01*
X126284888Y-136839863D02*
X126290340Y-136839996D01*
X169192956Y-164780000D02*
X169193082Y-164779999D01*
X178341761Y-20002891D02*
X178341397Y-20002561D01*
X118655281Y-172391575D02*
X118655376Y-172392057D01*
X156245579Y-65332960D02*
X156294333Y-65371009D01*
X172598958Y-41738781D02*
X172652767Y-41769264D01*
X169642004Y-83565538D02*
X169641761Y-83565465D01*
X156755000Y-42234877D02*
X156753479Y-42296825D01*
X170749213Y-65975813D02*
X170738640Y-65914879D01*
X156542649Y-65644983D02*
X156575735Y-65697232D01*
X123741070Y-37913501D02*
X123736520Y-37851825D01*
X169447362Y-139400370D02*
X169416066Y-139395576D01*
X124104047Y-122500952D02*
X124061403Y-122456162D01*
X151961009Y-126854333D02*
X151922960Y-126805579D01*
X170561805Y-140218578D02*
X170540953Y-140178660D01*
X126220741Y-70424242D02*
X126237236Y-70483845D01*
X171284983Y-94717649D02*
X171234420Y-94682039D01*
X169193082Y-136839999D02*
X169208914Y-136839798D01*
X126280204Y-164778567D02*
X126280637Y-164778798D01*
X170845976Y-126131281D02*
X170873781Y-126076041D01*
X126275003Y-55575340D02*
X126275000Y-55575586D01*
X151961009Y-93485666D02*
X152001403Y-93438837D01*
X170671990Y-112566781D02*
X170671923Y-112566537D01*
X124933174Y-94928479D02*
X124871498Y-94923929D01*
X125199879Y-94916359D02*
X125138501Y-94923929D01*
X170181417Y-55917647D02*
X170181222Y-55917485D01*
X170561919Y-140218804D02*
X170561805Y-140218578D01*
X172370757Y-66935741D02*
X172311154Y-66952236D01*
X151729258Y-70540757D02*
X151712763Y-70481154D01*
X156542649Y-126755016D02*
X156507039Y-126805579D01*
X152044047Y-149274047D02*
X152088837Y-149231403D01*
X170649983Y-28672787D02*
X170649904Y-28672546D01*
X169745234Y-139480833D02*
X169744997Y-139480742D01*
X170058389Y-108635555D02*
X170084374Y-108617468D01*
X173191342Y-42425519D02*
X173210741Y-42484242D01*
X126275376Y-27627942D02*
X126275281Y-27628424D01*
X169954245Y-80760468D02*
X169954465Y-80760342D01*
X152396281Y-155134023D02*
X152341041Y-155106218D01*
X124244420Y-66742039D02*
X124195666Y-66703990D01*
X170367514Y-164236222D02*
X170395975Y-164201318D01*
X170367514Y-28163777D02*
X170367352Y-28163582D01*
X126261359Y-37974879D02*
X126250786Y-38035813D01*
X126275638Y-83506997D02*
X126275496Y-83507466D01*
X170696642Y-56793057D02*
X170696594Y-56792808D01*
X152184420Y-121212960D02*
X152234983Y-121177350D01*
X171094047Y-41959047D02*
X171138837Y-41916403D01*
X124061403Y-25493837D02*
X124104047Y-25449047D01*
X173263479Y-93731825D02*
X173258929Y-93793501D01*
X170904264Y-66377767D02*
X170873781Y-66323958D01*
X124148837Y-25406403D02*
X124195666Y-25366009D01*
X169208914Y-53019798D02*
X169209041Y-53019796D01*
X170724999Y-163247956D02*
X170724999Y-154610122D01*
X126275991Y-80953918D02*
X126276201Y-80954362D01*
X170181417Y-108542352D02*
X170205439Y-108521729D01*
X170058179Y-108635697D02*
X170058389Y-108635555D01*
X124347232Y-38870735D02*
X124294983Y-38837649D01*
X169262105Y-53018451D02*
X169262358Y-53018441D01*
X152452820Y-93120914D02*
X152510519Y-93098657D01*
X178343042Y-20004375D02*
X178342749Y-20003981D01*
X169926562Y-83684166D02*
X169926339Y-83684046D01*
X125765579Y-153597960D02*
X125814333Y-153636009D01*
X124570519Y-66916342D02*
X124512820Y-66894085D01*
X171337232Y-125589264D02*
X171391041Y-125558781D01*
X156748929Y-126178501D02*
X156741359Y-126239879D01*
X152750120Y-71421359D02*
X152689186Y-71410786D01*
X152935122Y-99375000D02*
X152935122Y-99375000D01*
X170262362Y-108469207D02*
X170294207Y-108437362D01*
X169993493Y-83722635D02*
X169993276Y-83722504D01*
X170671990Y-51893218D02*
X170679926Y-51862568D01*
X124104047Y-38680952D02*
X124061403Y-38636162D01*
X170262181Y-28050615D02*
X170239233Y-28028801D01*
X152135666Y-99088990D02*
X152088837Y-99048596D01*
X118656685Y-172395216D02*
X118656957Y-172395624D01*
X178344361Y-20006997D02*
X178344196Y-20006534D01*
X170607363Y-84437708D02*
X170594877Y-84408613D01*
X125765579Y-41837960D02*
X125814333Y-41876009D01*
X170594774Y-112348381D02*
X170575971Y-112307458D01*
X170607460Y-112377942D02*
X170607363Y-112377708D01*
X151922960Y-70925579D02*
X151887350Y-70875016D01*
X169857770Y-55709137D02*
X169857541Y-55709028D01*
X118656432Y-172394795D02*
X118656685Y-172395216D01*
X169339138Y-53013402D02*
X169339390Y-53013380D01*
X124749186Y-39025786D02*
X124688845Y-39012236D01*
X126273479Y-70728174D02*
X126275000Y-70790122D01*
X170594877Y-140288613D02*
X170594774Y-140288381D01*
X170715177Y-140734111D02*
X170715148Y-140733859D01*
X124629242Y-25134258D02*
X124688845Y-25117763D01*
X123789258Y-166425757D02*
X123772763Y-166366154D01*
X170561805Y-52181421D02*
X170561919Y-52181195D01*
X170649983Y-112492787D02*
X170649904Y-112492546D01*
X124148837Y-38723596D02*
X124104047Y-38680952D01*
X152184420Y-43247039D02*
X152135666Y-43208990D01*
X126275000Y-126670122D02*
X126275000Y-136824413D01*
X124456281Y-125530976D02*
X124512820Y-125505914D01*
X125138501Y-66983929D02*
X125076825Y-66988479D01*
X152287232Y-99195735D02*
X152234983Y-99162649D01*
X172311154Y-153387763D02*
X172370757Y-153404258D01*
X169954465Y-27819657D02*
X169954245Y-27819531D01*
X126268929Y-70666498D02*
X126273479Y-70728174D01*
X126220741Y-149915757D02*
X126201342Y-149974480D01*
X178339362Y-172398798D02*
X178339795Y-172398567D01*
X170294384Y-52557181D02*
X170316198Y-52534233D01*
X170723441Y-84962641D02*
X170721838Y-84931021D01*
X156033718Y-93145976D02*
X156088958Y-93173781D01*
X170502495Y-108168276D02*
X170525342Y-108129465D01*
X126275160Y-55569398D02*
X126275136Y-55569888D01*
X170738640Y-98545120D02*
X170749213Y-98484186D01*
X125814333Y-150523990D02*
X125765579Y-150562039D01*
X169744997Y-83600742D02*
X169715307Y-83589746D01*
X123789258Y-126304242D02*
X123808657Y-126245519D01*
X172895952Y-153719047D02*
X172938596Y-153763837D01*
X125553718Y-41710976D02*
X125608958Y-41738781D01*
X171185666Y-150523990D02*
X171138837Y-150483596D01*
X170415512Y-164176083D02*
X170415665Y-164175881D01*
X124456281Y-122749023D02*
X124401041Y-122721218D01*
X124104047Y-69899047D02*
X124148837Y-69856403D01*
X151823781Y-149571041D02*
X151854264Y-149517232D01*
X126282466Y-164779503D02*
X126282942Y-164779623D01*
X151675000Y-70174877D02*
X151675000Y-66345122D01*
X126276201Y-164774362D02*
X126276432Y-164774795D01*
X123736520Y-65791825D02*
X123735000Y-65729877D01*
X126278238Y-164777108D02*
X126278602Y-164777438D01*
X170972960Y-94420579D02*
X170937350Y-94370016D01*
X169672453Y-55635095D02*
X169672212Y-55635016D01*
X126284888Y-27620136D02*
X126284888Y-27620136D01*
X171138837Y-125736403D02*
X171185666Y-125696009D01*
X170679986Y-51862322D02*
X170690166Y-51818451D01*
X169993276Y-80737495D02*
X169993493Y-80737364D01*
X118663424Y-172399718D02*
X118663909Y-172399790D01*
X169293978Y-111443161D02*
X169262358Y-111441558D01*
X172804333Y-94643990D02*
X172755579Y-94682039D01*
X170121083Y-27929487D02*
X170120881Y-27929334D01*
X152628845Y-43457236D02*
X152569242Y-43440741D01*
X126283909Y-80959790D02*
X126284398Y-80959839D01*
X126276432Y-108894795D02*
X126276685Y-108895216D01*
X152396281Y-121085976D02*
X152452820Y-121060914D01*
X125948596Y-94516162D02*
X125905952Y-94560952D01*
X169857770Y-164630862D02*
X169886195Y-164616919D01*
X170762763Y-38096154D02*
X170749213Y-38035813D01*
X173258929Y-37913501D02*
X173251359Y-37974879D01*
X170367352Y-108356417D02*
X170367514Y-108356222D01*
X170718402Y-51634138D02*
X170721822Y-51589231D01*
X171502820Y-94834085D02*
X171446281Y-94809023D01*
X170845976Y-38328718D02*
X170820914Y-38272179D01*
X152811498Y-155248929D02*
X152750120Y-155241359D01*
X170460555Y-80293389D02*
X170460697Y-80293179D01*
X155801154Y-65122763D02*
X155860757Y-65139258D01*
X170442321Y-108259581D02*
X170442468Y-108259374D01*
X172978990Y-66529333D02*
X172938596Y-66576162D01*
X170779258Y-38155757D02*
X170762763Y-38096154D01*
X170205630Y-139758438D02*
X170205439Y-139758270D01*
X124749186Y-66965786D02*
X124688845Y-66952236D01*
X172705016Y-150597649D02*
X172652767Y-150630735D01*
X170121083Y-83809487D02*
X170120881Y-83809334D01*
X170721822Y-135409231D02*
X170721838Y-135408978D01*
X178336090Y-20000209D02*
X178335601Y-20000160D01*
X126179085Y-122092179D02*
X126154023Y-122148718D01*
X171739186Y-153374213D02*
X171800120Y-153363640D01*
X123808657Y-166484480D02*
X123789258Y-166425757D01*
X123748640Y-65914879D02*
X123741070Y-65853501D01*
X123741070Y-166183501D02*
X123736520Y-166121825D01*
X170121083Y-80650512D02*
X170146120Y-80631132D01*
X126275209Y-55568909D02*
X126275160Y-55569398D01*
X155740813Y-65109213D02*
X155801154Y-65122763D01*
X170724796Y-163264041D02*
X170724798Y-163263914D01*
X126275496Y-164772533D02*
X126275638Y-164773002D01*
X123759213Y-149795813D02*
X123748640Y-149734879D01*
X170721838Y-56991021D02*
X170721822Y-56990768D01*
X125861162Y-94603596D02*
X125814333Y-94643990D01*
X170690166Y-107698451D02*
X170690221Y-107698203D01*
X169567322Y-139425013D02*
X169523451Y-139414833D01*
X171739186Y-41614213D02*
X171800120Y-41603640D01*
X172652767Y-38870735D02*
X172598958Y-38901218D01*
X118659375Y-172398042D02*
X118659783Y-172398314D01*
X156245579Y-99127039D02*
X156195016Y-99162649D01*
X124104047Y-125779047D02*
X124148837Y-125736403D01*
X170396132Y-108321120D02*
X170415512Y-108296083D01*
X171011009Y-69990666D02*
X171051403Y-69943837D01*
X126027039Y-94420579D02*
X125988990Y-94469333D01*
X170679926Y-140537431D02*
X170671990Y-140506781D01*
X152510519Y-65158657D02*
X152569242Y-65139258D01*
X170367514Y-139923777D02*
X170367352Y-139923582D01*
X152569242Y-127260741D02*
X152510519Y-127241342D01*
X156142767Y-99195735D02*
X156088958Y-99226218D01*
X173227236Y-42543845D02*
X173240786Y-42604186D01*
X170738640Y-42665120D02*
X170749213Y-42604186D01*
X169641761Y-139445465D02*
X169598462Y-139433076D01*
X169416066Y-53004423D02*
X169447362Y-52999629D01*
X171446281Y-150689023D02*
X171391041Y-150661218D01*
X169598462Y-164726923D02*
X169641761Y-164714534D01*
X169715307Y-55649746D02*
X169715069Y-55649661D01*
X171560519Y-122796342D02*
X171502820Y-122774085D01*
X169208914Y-108899798D02*
X169209041Y-108899796D01*
X172066825Y-94928479D02*
X172004877Y-94930000D01*
X170731070Y-149673501D02*
X170726520Y-149611825D01*
X169491942Y-52991642D02*
X169492191Y-52991594D01*
X169715307Y-52930253D02*
X169744997Y-52919257D01*
X171284983Y-150597649D02*
X171234420Y-150562039D01*
X170502495Y-56291723D02*
X170502364Y-56291506D01*
X172189879Y-66976359D02*
X172128501Y-66983929D01*
X126284888Y-108899863D02*
X126290340Y-108899996D01*
X171391041Y-150661218D02*
X171337232Y-150630735D01*
X170726520Y-149611825D02*
X170724999Y-149549877D01*
X173240786Y-65975813D02*
X173227236Y-66036154D01*
X124629242Y-150755741D02*
X124570519Y-150736342D01*
X178338918Y-20000991D02*
X178338465Y-20000803D01*
X170415665Y-164175881D02*
X170442321Y-164139581D01*
X118655209Y-20008909D02*
X118655160Y-20009398D01*
X171861498Y-41596070D02*
X171923174Y-41591520D01*
X169447362Y-52999629D02*
X169447612Y-52999587D01*
X155919480Y-65158657D02*
X155977179Y-65180914D01*
X172755579Y-69777960D02*
X172804333Y-69816009D01*
X118655136Y-172390111D02*
X118655160Y-172390601D01*
X124810120Y-25093640D02*
X124871498Y-25086070D01*
X170575862Y-163912770D02*
X170575971Y-163912541D01*
X156748929Y-94161498D02*
X156753479Y-94223174D01*
X172755579Y-153597960D02*
X172804333Y-153636009D01*
X170540833Y-56358437D02*
X170525468Y-56330754D01*
X155977179Y-65180914D02*
X156033718Y-65205976D01*
X118655376Y-172392057D02*
X118655496Y-172392533D01*
X170540953Y-84298660D02*
X170540833Y-84298437D01*
X172851162Y-97796403D02*
X172895952Y-97839047D01*
X118660204Y-20001432D02*
X118659783Y-20001685D01*
X172895952Y-41959047D02*
X172938596Y-42003837D01*
X155801154Y-43457236D02*
X155740813Y-43470786D01*
X178342438Y-20003602D02*
X178342108Y-20003238D01*
X170346561Y-52500630D02*
X170346729Y-52500439D01*
X152510519Y-155181342D02*
X152452820Y-155159085D01*
X126250786Y-42604186D02*
X126261359Y-42665120D01*
X171560519Y-38976342D02*
X171502820Y-38954085D01*
X170723451Y-29082894D02*
X170723441Y-29082641D01*
X170395975Y-80381318D02*
X170396132Y-80381120D01*
X125076825Y-66988479D02*
X125014877Y-66990000D01*
X126282942Y-164779623D02*
X126283424Y-164779718D01*
X152341041Y-37293781D02*
X152396281Y-37265976D01*
X125608958Y-150661218D02*
X125553718Y-150689023D01*
X152184420Y-37392960D02*
X152234983Y-37357350D01*
X126282942Y-55560376D02*
X126282466Y-55560496D01*
X170635338Y-56569930D02*
X170635253Y-56569692D01*
X155740813Y-71410786D02*
X155679879Y-71421359D01*
X152811498Y-43488929D02*
X152750120Y-43481359D01*
X170723441Y-51557358D02*
X170723451Y-51557105D01*
X170442321Y-112080418D02*
X170415665Y-112044118D01*
X170502364Y-164048493D02*
X170502495Y-164048276D01*
X126276432Y-53014795D02*
X126276685Y-53015216D01*
X170762763Y-149856154D02*
X170749213Y-149795813D01*
X173227236Y-66036154D02*
X173210741Y-66095757D01*
X123748640Y-126485120D02*
X123759213Y-126424186D01*
X126283909Y-139380209D02*
X126283424Y-139380281D01*
X156468990Y-43034333D02*
X156428596Y-43081162D01*
X172978990Y-25540666D02*
X173017039Y-25589420D01*
X152452820Y-43399085D02*
X152396281Y-43374023D01*
X169192956Y-80960000D02*
X169193082Y-80959999D01*
X170904264Y-153962232D02*
X170937350Y-153909983D01*
X156341162Y-126988596D02*
X156294333Y-127028990D01*
X126095735Y-153962232D02*
X126126218Y-154016041D01*
X124104047Y-25449047D02*
X124148837Y-25406403D01*
X173017039Y-66480579D02*
X172978990Y-66529333D01*
X126275160Y-83509398D02*
X126275136Y-83509888D01*
X118658602Y-20002561D02*
X118658238Y-20002891D01*
X123982960Y-66480579D02*
X123947350Y-66430016D01*
X124294983Y-125622350D02*
X124347232Y-125589264D01*
X126283909Y-111440209D02*
X126283424Y-111440281D01*
X124629242Y-125464258D02*
X124688845Y-125447763D01*
X126201342Y-94094480D02*
X126179085Y-94152179D01*
X124512820Y-125505914D02*
X124570519Y-125483657D01*
X118662942Y-172399623D02*
X118663424Y-172399718D01*
X172598958Y-25228781D02*
X172652767Y-25259264D01*
X169371140Y-53010148D02*
X169415816Y-53004458D01*
X170460697Y-80293179D02*
X170485480Y-80255575D01*
X126275638Y-27626997D02*
X126275496Y-27627466D01*
X124294983Y-41802350D02*
X124347232Y-41769264D01*
X155977179Y-127219085D02*
X155919480Y-127241342D01*
X170659461Y-163697004D02*
X170659534Y-163696761D01*
X123741070Y-93793501D02*
X123736520Y-93731825D01*
X169262358Y-53018441D02*
X169293978Y-53016838D01*
X152234983Y-127102649D02*
X152184420Y-127067039D01*
X171284983Y-97682350D02*
X171337232Y-97649264D01*
X155860757Y-121019258D02*
X155919480Y-121038657D01*
X178337533Y-20000496D02*
X178337057Y-20000376D01*
X169745234Y-111540833D02*
X169744997Y-111540742D01*
X172705016Y-94717649D02*
X172652767Y-94750735D01*
X170058179Y-55824302D02*
X170020575Y-55799519D01*
X170262181Y-52589384D02*
X170262362Y-52589207D01*
X170679986Y-56717677D02*
X170679926Y-56717431D01*
X125988990Y-66529333D02*
X125948596Y-66576162D01*
X170709423Y-84808933D02*
X170704629Y-84777637D01*
X170084581Y-55842678D02*
X170084374Y-55842531D01*
X170731070Y-42726498D02*
X170738640Y-42665120D01*
X152088837Y-43168596D02*
X152044047Y-43125952D01*
X125260813Y-69554213D02*
X125321154Y-69567763D01*
X169715069Y-55649661D02*
X169672453Y-55635095D01*
X169523203Y-108865221D02*
X169523451Y-108865166D01*
X123830914Y-154127820D02*
X123855976Y-154071281D01*
X170460555Y-164113389D02*
X170460697Y-164113179D01*
X126281534Y-139380803D02*
X126281081Y-139380991D01*
X169416066Y-139395576D02*
X169415816Y-139395541D01*
X170679986Y-84657677D02*
X170679926Y-84657431D01*
X170058179Y-52755697D02*
X170058389Y-52755555D01*
X170718402Y-56945861D02*
X170718380Y-56945609D01*
X152088837Y-121291403D02*
X152135666Y-121251009D01*
X170873781Y-150143958D02*
X170845976Y-150088718D01*
X172705016Y-66777649D02*
X172652767Y-66810735D01*
X156142767Y-65264264D02*
X156195016Y-65297350D01*
X169641761Y-108834534D02*
X169642004Y-108834461D01*
X152088837Y-126988596D02*
X152044047Y-126945952D01*
X151795976Y-93746281D02*
X151823781Y-93691041D01*
X170262181Y-83930615D02*
X170239233Y-83908801D01*
X169370888Y-80950177D02*
X169371140Y-80950148D01*
X118663909Y-20000209D02*
X118663424Y-20000281D01*
X170146120Y-27948867D02*
X170121083Y-27929487D01*
X171502820Y-66894085D02*
X171446281Y-66869023D01*
X125380757Y-38995741D02*
X125321154Y-39012236D01*
X170724999Y-107367956D02*
X170724999Y-98730122D01*
X126282942Y-139380376D02*
X126282466Y-139380496D01*
X178342108Y-172396761D02*
X178342438Y-172396397D01*
X170873781Y-126076041D02*
X170904264Y-126022232D01*
X118655000Y-172384413D02*
X118655003Y-172384659D01*
X170937350Y-38490016D02*
X170904264Y-38437767D01*
X169886421Y-27783194D02*
X169886195Y-27783080D01*
X170607363Y-28557708D02*
X170594877Y-28528613D01*
X170594877Y-56468613D02*
X170594774Y-56468381D01*
X152811498Y-99368929D02*
X152750120Y-99361359D01*
X169672212Y-108824983D02*
X169672453Y-108824904D01*
X156659085Y-37922820D02*
X156681342Y-37980519D01*
X169993493Y-55782635D02*
X169993276Y-55782504D01*
X170709458Y-135530816D02*
X170715148Y-135486140D01*
X169370888Y-111449822D02*
X169339390Y-111446619D01*
X170239233Y-136431198D02*
X170262181Y-136409384D01*
X124629242Y-66935741D02*
X124570519Y-66916342D01*
X123855976Y-154071281D02*
X123883781Y-154016041D01*
X170724796Y-85015958D02*
X170723451Y-84962894D01*
X169954465Y-108700342D02*
X169993276Y-108677495D01*
X123914264Y-150197767D02*
X123883781Y-150143958D01*
X151676520Y-94223174D02*
X151681070Y-94161498D01*
X170020575Y-80720480D02*
X170058179Y-80695697D01*
X170704587Y-51742612D02*
X170704629Y-51742362D01*
X170724999Y-107368082D02*
X170724999Y-107367956D01*
X156294333Y-154968990D02*
X156245579Y-155007039D01*
X156717236Y-154301154D02*
X156700741Y-154360757D01*
X155919480Y-99301342D02*
X155860757Y-99320741D01*
X170671923Y-163653462D02*
X170671990Y-163653218D01*
X155860757Y-127260741D02*
X155801154Y-127277236D01*
X173263479Y-42788174D02*
X173265000Y-42850122D01*
X156428596Y-93438837D02*
X156468990Y-93485666D01*
X151681070Y-42358501D02*
X151676520Y-42296825D01*
X156542649Y-93584983D02*
X156575735Y-93637232D01*
X126281997Y-27620638D02*
X126281534Y-27620803D01*
X171619242Y-69584258D02*
X171678845Y-69567763D01*
X126276201Y-108894362D02*
X126276432Y-108894795D01*
X123855976Y-66268718D02*
X123830914Y-66212179D01*
X170181222Y-139737485D02*
X170146318Y-139709024D01*
X123947350Y-70089983D02*
X123982960Y-70039420D01*
X156755000Y-122225122D02*
X156755000Y-126054877D01*
X169447612Y-80939587D02*
X169491942Y-80931642D01*
X169415816Y-108884458D02*
X169416066Y-108884423D01*
X151748657Y-70599480D02*
X151729258Y-70540757D01*
X126280204Y-55561432D02*
X126279783Y-55561685D01*
X170671923Y-112566537D02*
X170659534Y-112523238D01*
X156741359Y-38220120D02*
X156748929Y-38281498D01*
X173085735Y-94317767D02*
X173052649Y-94370016D01*
X124021009Y-69990666D02*
X124061403Y-69943837D01*
X170649904Y-163727453D02*
X170649983Y-163727212D01*
X126179085Y-70307820D02*
X126201342Y-70365519D01*
X126283909Y-108899790D02*
X126284398Y-108899839D01*
X170561805Y-56398578D02*
X170540953Y-56358660D01*
X173258929Y-65853501D02*
X173251359Y-65914879D01*
X169523203Y-80925221D02*
X169523451Y-80925166D01*
X156753479Y-154056825D02*
X156748929Y-154118501D01*
X171051403Y-38636162D02*
X171011009Y-38589333D01*
X170718402Y-112825861D02*
X170718380Y-112825609D01*
X170146318Y-27949024D02*
X170146120Y-27948867D01*
X151770914Y-121742820D02*
X151795976Y-121686281D01*
X171560519Y-125483657D02*
X171619242Y-125464258D01*
X170718380Y-84885609D02*
X170715177Y-84854111D01*
X170704587Y-163502612D02*
X170704629Y-163502362D01*
X125988990Y-125870666D02*
X126027039Y-125919420D01*
X126275209Y-83508909D02*
X126275160Y-83509398D01*
X124629242Y-167265741D02*
X124570519Y-167246342D01*
X170718380Y-29005609D02*
X170715177Y-28974111D01*
X151712763Y-154301154D02*
X151699213Y-154240813D01*
X172851162Y-150483596D02*
X172804333Y-150523990D01*
X170485480Y-28324424D02*
X170460697Y-28286820D01*
X125138501Y-125416070D02*
X125199879Y-125423640D01*
X125861162Y-38723596D02*
X125814333Y-38763990D01*
X172705016Y-167107649D02*
X172652767Y-167140735D01*
X125608958Y-153498781D02*
X125662767Y-153529264D01*
X156195016Y-127102649D02*
X156142767Y-127135735D01*
X170084374Y-27902531D02*
X170058389Y-27884444D01*
X170635338Y-84509930D02*
X170635253Y-84509692D01*
X171446281Y-125530976D02*
X171502820Y-125505914D01*
X171560519Y-97543657D02*
X171619242Y-97524258D01*
X152452820Y-155159085D02*
X152396281Y-155134023D01*
X156717236Y-121918845D02*
X156730786Y-121979186D01*
X126284398Y-139380160D02*
X126283909Y-139380209D01*
X170120881Y-111749334D02*
X170084581Y-111722678D01*
X170239233Y-139788801D02*
X170239047Y-139788629D01*
X171678845Y-153387763D02*
X171739186Y-153374213D01*
X170845976Y-94208718D02*
X170820914Y-94152179D01*
X151699213Y-66099186D02*
X151712763Y-66038845D01*
X170724999Y-51487956D02*
X170724999Y-42850122D01*
X125608958Y-66841218D02*
X125553718Y-66869023D01*
X170525468Y-108129245D02*
X170540833Y-108101562D01*
X170540833Y-108101562D02*
X170540953Y-108101339D01*
X151922960Y-154745579D02*
X151887350Y-154695016D01*
X126279375Y-83501957D02*
X126278981Y-83502250D01*
X170690221Y-51818203D02*
X170696594Y-51787191D01*
X170262362Y-55990792D02*
X170262181Y-55990615D01*
X126276957Y-27624375D02*
X126276685Y-27624783D01*
X126275803Y-136833465D02*
X126275991Y-136833918D01*
X169672453Y-52944904D02*
X169715069Y-52930338D01*
X118670340Y-20000003D02*
X118664888Y-20000136D01*
X170762763Y-70483845D02*
X170779258Y-70424242D01*
X156741359Y-154179879D02*
X156730786Y-154240813D01*
X173169085Y-38272179D02*
X173144023Y-38328718D01*
X172487179Y-167224085D02*
X172429480Y-167246342D01*
X152135666Y-154968990D02*
X152088837Y-154928596D01*
X172250813Y-66965786D02*
X172189879Y-66976359D01*
X118659783Y-20001685D02*
X118659375Y-20001957D01*
X178335601Y-20000160D02*
X178335111Y-20000136D01*
X169492191Y-139408405D02*
X169491942Y-139408357D01*
X152689186Y-65109213D02*
X152750120Y-65098640D01*
X169787291Y-164662363D02*
X169816386Y-164649877D01*
X170020575Y-27859519D02*
X170020361Y-27859382D01*
X172705016Y-69742350D02*
X172755579Y-69777960D01*
X170671923Y-28746537D02*
X170659534Y-28703238D01*
X173169085Y-98247820D02*
X173191342Y-98305519D01*
X169262358Y-139381558D02*
X169262105Y-139381548D01*
X118655003Y-172384659D02*
X118655136Y-172390111D01*
X169567322Y-164734986D02*
X169567568Y-164734926D01*
X171800120Y-125423640D02*
X171861498Y-125416070D01*
X172429480Y-38976342D02*
X172370757Y-38995741D01*
X169262358Y-83501558D02*
X169262105Y-83501548D01*
X170659461Y-79877004D02*
X170659534Y-79876761D01*
X169416066Y-164764423D02*
X169447362Y-164759629D01*
X170724999Y-163248082D02*
X170724999Y-163247956D01*
X170561919Y-84338804D02*
X170561805Y-84338578D01*
X156755000Y-70174877D02*
X156753479Y-70236825D01*
X170679926Y-84657431D02*
X170671990Y-84626781D01*
X172004877Y-167320000D02*
X124995122Y-167320000D01*
X171923174Y-41591520D02*
X171985122Y-41590000D01*
X169642004Y-164714461D02*
X169672212Y-164704983D01*
X125138501Y-94923929D02*
X125076825Y-94928479D01*
X170635338Y-112449930D02*
X170635253Y-112449692D01*
X169857541Y-111589028D02*
X169816618Y-111570225D01*
X123830914Y-94152179D02*
X123808657Y-94094480D01*
X118657891Y-20003238D02*
X118657561Y-20003602D01*
X169857770Y-108750862D02*
X169886195Y-108736919D01*
X170561919Y-163941195D02*
X170575862Y-163912770D01*
X173227236Y-154303845D02*
X173240786Y-154364186D01*
X169416066Y-83515576D02*
X169415816Y-83515541D01*
X171985122Y-94930000D02*
X171923174Y-94928479D01*
X156385952Y-149274047D02*
X156428596Y-149318837D01*
X126275376Y-164772057D02*
X126275496Y-164772533D01*
X172543718Y-153470976D02*
X172598958Y-153498781D01*
X169641761Y-52954534D02*
X169642004Y-52954461D01*
X173052649Y-122310016D02*
X173017039Y-122360579D01*
X124688845Y-150772236D02*
X124629242Y-150755741D01*
X170704629Y-51742362D02*
X170709423Y-51711066D01*
X169370888Y-108890177D02*
X169371140Y-108890148D01*
X156634023Y-121686281D02*
X156659085Y-121742820D01*
X126282942Y-53019623D02*
X126283424Y-53019718D01*
X118663424Y-20000281D02*
X118662942Y-20000376D01*
X172429480Y-25153657D02*
X172487179Y-25175914D01*
X173017039Y-122360579D02*
X172978990Y-122409333D01*
X156033718Y-127194023D02*
X155977179Y-127219085D01*
X151795976Y-149626281D02*
X151823781Y-149571041D01*
X152750120Y-37158640D02*
X152811498Y-37151070D01*
X169886195Y-55723080D02*
X169857770Y-55709137D01*
X126275003Y-136824659D02*
X126275136Y-136830111D01*
X169193082Y-53019999D02*
X169208914Y-53019798D01*
X169926339Y-111624046D02*
X169886421Y-111603194D01*
X169672212Y-52944983D02*
X169672453Y-52944904D01*
X126278981Y-111442250D02*
X126278602Y-111442561D01*
X169745234Y-164679166D02*
X169787057Y-164662460D01*
X170704629Y-112717637D02*
X170704587Y-112717387D01*
X152935122Y-93025000D02*
X155494877Y-93025000D01*
X170937350Y-153909983D02*
X170972960Y-153859420D01*
X173240786Y-98484186D02*
X173251359Y-98545120D01*
X125988990Y-42050666D02*
X126027039Y-42099420D01*
X126275638Y-139386997D02*
X126275496Y-139387466D01*
X118660637Y-172398798D02*
X118661081Y-172399008D01*
X126284888Y-164779863D02*
X126290340Y-164779996D01*
X170904264Y-70142232D02*
X170937350Y-70089983D01*
X169857770Y-52870862D02*
X169886195Y-52856919D01*
X123759213Y-42604186D02*
X123772763Y-42543845D01*
X126275638Y-108893002D02*
X126275803Y-108893465D01*
X169209041Y-80959796D02*
X169262105Y-80958451D01*
X169886195Y-108736919D02*
X169886421Y-108736805D01*
X156542649Y-154695016D02*
X156507039Y-154745579D01*
X172128501Y-39043929D02*
X172066825Y-39048479D01*
X170723451Y-107437105D02*
X170724796Y-107384041D01*
X156753479Y-38343174D02*
X156755000Y-38405122D01*
X152811498Y-93031070D02*
X152873174Y-93026520D01*
X152001403Y-71021162D02*
X151961009Y-70974333D01*
X170502364Y-56291506D02*
X170485617Y-56264638D01*
X126275000Y-80944413D02*
X126275003Y-80944659D01*
X118655136Y-20009888D02*
X118655003Y-20015340D01*
X126062649Y-150250016D02*
X126027039Y-150300579D01*
X170731070Y-70666498D02*
X170738640Y-70605120D01*
X169193082Y-164779999D02*
X169208914Y-164779798D01*
X156507039Y-121474420D02*
X156542649Y-121524983D01*
X152689186Y-93049213D02*
X152750120Y-93038640D01*
X126290340Y-27620003D02*
X126284888Y-27620136D01*
X169415816Y-27635541D02*
X169371140Y-27629851D01*
X170671923Y-79833462D02*
X170671990Y-79833218D01*
X124195666Y-41876009D02*
X124244420Y-41837960D01*
X170709458Y-84809183D02*
X170709423Y-84808933D01*
X170502495Y-84231723D02*
X170502364Y-84231506D01*
X124749186Y-69554213D02*
X124810120Y-69543640D01*
X169416066Y-80944423D02*
X169447362Y-80939629D01*
X123735000Y-166059877D02*
X123735000Y-154610122D01*
X151729258Y-154360757D02*
X151712763Y-154301154D01*
X124570519Y-94856342D02*
X124512820Y-94834085D01*
X171923174Y-39048479D02*
X171861498Y-39043929D01*
X170671923Y-51893462D02*
X170671990Y-51893218D01*
X170709458Y-51710816D02*
X170715148Y-51666140D01*
X171138837Y-69856403D02*
X171185666Y-69816009D01*
X152044047Y-71065952D02*
X152001403Y-71021162D01*
X169857541Y-52870971D02*
X169857770Y-52870862D01*
X126280204Y-27621432D02*
X126279783Y-27621685D01*
X155679879Y-93038640D02*
X155740813Y-93049213D01*
X126281081Y-27620991D02*
X126280637Y-27621201D01*
X171011009Y-153810666D02*
X171051403Y-153763837D01*
X173169085Y-70307820D02*
X173191342Y-70365519D01*
X178338465Y-20000803D02*
X178338002Y-20000638D01*
X126275209Y-27628909D02*
X126275160Y-27629398D01*
X155860757Y-155200741D02*
X155801154Y-155217236D01*
X126281997Y-53019361D02*
X126282466Y-53019503D01*
X173251359Y-70605120D02*
X173258929Y-70666498D01*
X170020575Y-52780480D02*
X170058179Y-52755697D01*
X152628845Y-121002763D02*
X152689186Y-120989213D01*
X171391041Y-94781218D02*
X171337232Y-94750735D01*
X170239047Y-28028629D02*
X170205630Y-27998438D01*
X170731070Y-121733501D02*
X170726520Y-121671825D01*
X152001403Y-65498837D02*
X152044047Y-65454047D01*
X172598958Y-97618781D02*
X172652767Y-97649264D01*
X118657250Y-172396018D02*
X118657561Y-172396397D01*
X170502364Y-136108493D02*
X170502495Y-136108276D01*
X152088837Y-37471403D02*
X152135666Y-37431009D01*
X170725000Y-29152043D02*
X170724999Y-29151917D01*
X169857541Y-164630971D02*
X169857770Y-164630862D01*
X118656201Y-172394362D02*
X118656432Y-172394795D01*
X170749213Y-126424186D02*
X170762763Y-126363845D01*
X126062649Y-66430016D02*
X126027039Y-66480579D01*
X126283424Y-139380281D02*
X126282942Y-139380376D01*
X126280204Y-136838567D02*
X126280637Y-136838798D01*
X172938596Y-66576162D02*
X172895952Y-66620952D01*
X173052649Y-42149983D02*
X173085735Y-42202232D01*
X169293978Y-83503161D02*
X169262358Y-83501558D01*
X126284888Y-83500136D02*
X126284888Y-83500136D01*
X169993276Y-108677495D02*
X169993493Y-108677364D01*
X126283424Y-27620281D02*
X126282942Y-27620376D01*
X178343567Y-172394795D02*
X178343798Y-172394362D01*
X169886421Y-164616805D02*
X169926339Y-164595953D01*
X126126218Y-42256041D02*
X126154023Y-42311281D01*
X173258929Y-154486498D02*
X173263479Y-154548174D01*
X173210741Y-42484242D02*
X173227236Y-42543845D01*
X125138501Y-39043929D02*
X125076825Y-39048479D01*
X169715069Y-80870338D02*
X169715307Y-80870253D01*
X126275003Y-164764659D02*
X126275136Y-164770111D01*
X156294333Y-149191009D02*
X156341162Y-149231403D01*
X126281081Y-164779008D02*
X126281534Y-164779196D01*
X152510519Y-71361342D02*
X152452820Y-71339085D01*
X170084374Y-83782531D02*
X170058389Y-83764444D01*
X169926339Y-108715953D02*
X169926562Y-108715833D01*
X173116218Y-70196041D02*
X173144023Y-70251281D01*
X178343042Y-172395624D02*
X178343314Y-172395216D01*
X170731070Y-37913501D02*
X170726520Y-37851825D01*
X123748640Y-42665120D02*
X123759213Y-42604186D01*
X170442321Y-28260418D02*
X170415665Y-28224118D01*
X173265000Y-70790122D02*
X173265000Y-93669877D01*
X169745234Y-83600833D02*
X169744997Y-83600742D01*
X126154023Y-150088718D02*
X126126218Y-150143958D01*
X169886421Y-80796805D02*
X169926339Y-80775953D01*
X170561919Y-136001195D02*
X170575862Y-135972770D01*
X170239233Y-108491198D02*
X170262181Y-108469384D01*
X170239047Y-52611370D02*
X170239233Y-52611198D01*
X125553718Y-125530976D02*
X125608958Y-125558781D01*
X169415816Y-53004458D02*
X169416066Y-53004423D01*
X173085735Y-38437767D02*
X173052649Y-38490016D01*
X125553718Y-94809023D02*
X125497179Y-94834085D01*
X172938596Y-153763837D02*
X172978990Y-153810666D01*
X170396132Y-112018879D02*
X170395975Y-112018681D01*
X172128501Y-25086070D02*
X172189879Y-25093640D01*
X125014877Y-69530000D02*
X125076825Y-69531520D01*
X123883781Y-166653958D02*
X123855976Y-166598718D01*
X126275136Y-139389888D02*
X126275003Y-139395340D01*
X170020361Y-83739382D02*
X169993493Y-83722635D01*
X169993493Y-111662635D02*
X169993276Y-111662504D01*
X123772763Y-26033845D02*
X123789258Y-25974242D01*
X170937350Y-94370016D02*
X170904264Y-94317767D01*
X126276957Y-53015624D02*
X126277250Y-53016018D01*
X156468990Y-37605666D02*
X156507039Y-37654420D01*
X123883781Y-66323958D02*
X123855976Y-66268718D01*
X169715069Y-164690338D02*
X169715307Y-164690253D01*
X126276685Y-108895216D02*
X126276957Y-108895624D01*
X126279783Y-83501685D02*
X126279375Y-83501957D01*
X169491942Y-111468357D02*
X169447612Y-111460412D01*
X170346561Y-84019369D02*
X170316370Y-83985952D01*
X169192956Y-53020000D02*
X169193082Y-53019999D01*
X156542649Y-121524983D02*
X156575735Y-121577232D01*
X126290340Y-53019996D02*
X126290586Y-53020000D01*
X126275376Y-108892057D02*
X126275496Y-108892533D01*
X170649904Y-51967453D02*
X170649983Y-51967212D01*
X169447362Y-111460370D02*
X169416066Y-111455576D01*
X170020361Y-80720617D02*
X170020575Y-80720480D01*
X170690221Y-56761796D02*
X170690166Y-56761548D01*
X170749213Y-42604186D02*
X170762763Y-42543845D01*
X156606218Y-42828958D02*
X156575735Y-42882767D01*
X124294983Y-69742350D02*
X124347232Y-69709264D01*
X173240786Y-154364186D02*
X173251359Y-154425120D01*
X171234420Y-153597960D02*
X171284983Y-153562350D01*
X126275003Y-108884659D02*
X126275136Y-108890111D01*
X126275803Y-55566534D02*
X126275638Y-55566997D01*
X126277250Y-111443981D02*
X126276957Y-111444375D01*
X171619242Y-94875741D02*
X171560519Y-94856342D01*
X156681342Y-93860519D02*
X156700741Y-93919242D01*
X171502820Y-69625914D02*
X171560519Y-69603657D01*
X178345000Y-172384413D02*
X178345000Y-20015586D01*
X152341041Y-99226218D02*
X152287232Y-99195735D01*
X171678845Y-94892236D02*
X171619242Y-94875741D01*
X170084581Y-27902678D02*
X170084374Y-27902531D01*
X178340624Y-20001957D02*
X178340216Y-20001685D01*
X170904264Y-94317767D02*
X170873781Y-94263958D01*
X171923174Y-153351520D02*
X171985122Y-153350000D01*
X152088837Y-154928596D02*
X152044047Y-154885952D01*
X156294333Y-65371009D02*
X156341162Y-65411403D01*
X124629242Y-97524258D02*
X124688845Y-97507763D01*
X169523451Y-108865166D02*
X169567322Y-108854986D01*
X156468990Y-149365666D02*
X156507039Y-149414420D01*
X169598462Y-111493076D02*
X169598218Y-111493009D01*
X126273479Y-149611825D02*
X126268929Y-149673501D01*
X124749186Y-25104213D02*
X124810120Y-25093640D01*
X126275000Y-27635586D02*
X126275000Y-37789877D01*
X178337057Y-20000376D02*
X178336575Y-20000281D01*
X170396132Y-56138879D02*
X170395975Y-56138681D01*
X126250786Y-65975813D02*
X126237236Y-66036154D01*
X155919480Y-37218657D02*
X155977179Y-37240914D01*
X170367352Y-52476417D02*
X170367514Y-52476222D01*
X123759213Y-166305813D02*
X123748640Y-166244879D01*
X169371140Y-80950148D02*
X169415816Y-80944458D01*
X118655281Y-20008424D02*
X118655209Y-20008909D01*
X123748640Y-26155120D02*
X123759213Y-26094186D01*
X169598218Y-52966990D02*
X169598462Y-52966923D01*
X156575735Y-93637232D02*
X156606218Y-93691041D01*
X126276685Y-80955216D02*
X126276957Y-80955624D01*
X124810120Y-39036359D02*
X124749186Y-39025786D01*
X156575735Y-154642767D02*
X156542649Y-154695016D01*
X169954245Y-108700468D02*
X169954465Y-108700342D01*
X170690221Y-135638203D02*
X170696594Y-135607191D01*
X156700741Y-98480757D02*
X156681342Y-98539480D01*
X125439480Y-66916342D02*
X125380757Y-66935741D01*
X172128501Y-97476070D02*
X172189879Y-97483640D01*
X152935122Y-99375000D02*
X152873174Y-99373479D01*
X178344503Y-20007466D02*
X178344361Y-20006997D01*
X170058389Y-27884444D02*
X170058179Y-27884302D01*
X171234420Y-69777960D02*
X171284983Y-69742350D01*
X123883781Y-42256041D02*
X123914264Y-42202232D01*
X173227236Y-98423845D02*
X173240786Y-98484186D01*
X170205439Y-52641729D02*
X170205630Y-52641561D01*
X172370757Y-41644258D02*
X172429480Y-41663657D01*
X156088958Y-99226218D02*
X156033718Y-99254023D01*
X126280204Y-108898567D02*
X126280637Y-108898798D01*
X125260813Y-66965786D02*
X125199879Y-66976359D01*
X126275160Y-108890601D02*
X126275209Y-108891090D01*
X124148837Y-94603596D02*
X124104047Y-94560952D01*
X171234420Y-66742039D02*
X171185666Y-66703990D01*
X178337533Y-172399503D02*
X178338002Y-172399361D01*
X170594774Y-140288381D02*
X170575971Y-140247458D01*
X152184420Y-93272960D02*
X152234983Y-93237350D01*
X125765579Y-125657960D02*
X125814333Y-125696009D01*
X126290586Y-55560000D02*
X126290340Y-55560003D01*
X151676520Y-150103174D02*
X151681070Y-150041498D01*
X170624166Y-112419765D02*
X170607460Y-112377942D01*
X170649983Y-84552787D02*
X170649904Y-84552546D01*
X170721838Y-135408978D02*
X170723441Y-135377358D01*
X172598958Y-150661218D02*
X172543718Y-150689023D01*
X178336575Y-172399718D02*
X178337057Y-172399623D01*
X126282942Y-27620376D02*
X126282466Y-27620496D01*
X125715016Y-66777649D02*
X125662767Y-66810735D01*
X123982960Y-94420579D02*
X123947350Y-94370016D01*
X170239233Y-55968801D02*
X170239047Y-55968629D01*
X126276685Y-27624783D02*
X126276432Y-27625204D01*
X170731070Y-154486498D02*
X170738640Y-154425120D01*
X173251359Y-42665120D02*
X173258929Y-42726498D01*
X171739186Y-39025786D02*
X171678845Y-39012236D01*
X125861162Y-153676403D02*
X125905952Y-153719047D01*
X156385952Y-154885952D02*
X156341162Y-154928596D01*
X170718380Y-56945609D02*
X170715177Y-56914111D01*
X169371140Y-136830148D02*
X169415816Y-136824458D01*
X169744997Y-55660742D02*
X169715307Y-55649746D01*
X170723441Y-79497358D02*
X170723451Y-79497105D01*
X172978990Y-97930666D02*
X173017039Y-97979420D01*
X126280204Y-53018567D02*
X126280637Y-53018798D01*
X155556825Y-120966520D02*
X155618501Y-120971070D01*
X123741070Y-65853501D02*
X123736520Y-65791825D01*
X123736520Y-37851825D02*
X123735000Y-37789877D01*
X126261359Y-126485120D02*
X126268929Y-126546498D01*
X172705016Y-38837649D02*
X172652767Y-38870735D01*
X125715016Y-94717649D02*
X125662767Y-94750735D01*
X125014877Y-94930000D02*
X124995122Y-94930000D01*
X171284983Y-122657649D02*
X171234420Y-122622039D01*
X170715177Y-84854111D02*
X170715148Y-84853859D01*
X170058389Y-83764444D02*
X170058179Y-83764302D01*
X126279783Y-55561685D02*
X126279375Y-55561957D01*
X173144023Y-42311281D02*
X173169085Y-42367820D01*
X126275209Y-80951090D02*
X126275281Y-80951575D01*
X155919480Y-148978657D02*
X155977179Y-149000914D01*
X156730786Y-154240813D02*
X156717236Y-154301154D01*
X151961009Y-43034333D02*
X151922960Y-42985579D01*
X170294384Y-164317181D02*
X170316198Y-164294233D01*
X172804333Y-41876009D02*
X172851162Y-41916403D01*
X155740813Y-127290786D02*
X155679879Y-127301359D01*
X124933174Y-153351520D02*
X124995122Y-153350000D01*
X170367352Y-80416417D02*
X170367514Y-80416222D01*
X169339390Y-53013380D02*
X169370888Y-53010177D01*
X173169085Y-66212179D02*
X173144023Y-66268718D01*
X126237236Y-154303845D02*
X126250786Y-154364186D01*
X172755579Y-66742039D02*
X172705016Y-66777649D01*
X170502495Y-164048276D02*
X170525342Y-164009465D01*
X171985122Y-66990000D02*
X171923174Y-66988479D01*
X171619242Y-153404258D02*
X171678845Y-153387763D01*
X169262105Y-108898451D02*
X169262358Y-108898441D01*
X170873781Y-38383958D02*
X170845976Y-38328718D01*
X170725000Y-85032043D02*
X170724999Y-85031917D01*
X170725000Y-57092043D02*
X170724999Y-57091917D01*
X170721822Y-107469231D02*
X170721838Y-107468978D01*
X118655000Y-20015586D02*
X118655000Y-172384413D01*
X126281997Y-164779361D02*
X126282466Y-164779503D01*
X173240786Y-42604186D02*
X173251359Y-42665120D01*
X171094047Y-153719047D02*
X171138837Y-153676403D01*
X156341162Y-71108596D02*
X156294333Y-71148990D01*
X123808657Y-126245519D02*
X123830914Y-126187820D01*
X170594774Y-163871618D02*
X170594877Y-163871386D01*
X123741070Y-26216498D02*
X123748640Y-26155120D01*
X170715148Y-84853859D02*
X170709458Y-84809183D01*
X126261359Y-98545120D02*
X126268929Y-98606498D01*
X152184420Y-149152960D02*
X152234983Y-149117350D01*
X170649983Y-56612787D02*
X170649904Y-56612546D01*
X170690166Y-56761548D02*
X170679986Y-56717677D01*
X151887350Y-98815016D02*
X151854264Y-98762767D01*
X172066825Y-25081520D02*
X172128501Y-25086070D01*
X126276685Y-83504783D02*
X126276432Y-83505204D01*
X170659534Y-28703238D02*
X170659461Y-28702995D01*
X173085735Y-150197767D02*
X173052649Y-150250016D01*
X170575971Y-80092541D02*
X170594774Y-80051618D01*
X172429480Y-125483657D02*
X172487179Y-125505914D01*
X125905952Y-153719047D02*
X125948596Y-153763837D01*
X152234983Y-65297350D02*
X152287232Y-65264264D01*
X169954245Y-55759531D02*
X169926562Y-55744166D01*
X170395975Y-56138681D02*
X170367514Y-56103777D01*
X156753479Y-122163174D02*
X156755000Y-122225122D01*
X156542649Y-42935016D02*
X156507039Y-42985579D01*
X170239233Y-80551198D02*
X170262181Y-80529384D01*
X173116218Y-166653958D02*
X173085735Y-166707767D01*
X151770914Y-149682820D02*
X151795976Y-149626281D01*
X156659085Y-93802820D02*
X156681342Y-93860519D01*
X169294231Y-83503177D02*
X169293978Y-83503161D01*
X155556825Y-148906520D02*
X155618501Y-148911070D01*
X156195016Y-37357350D02*
X156245579Y-37392960D01*
X178344790Y-172391090D02*
X178344839Y-172390601D01*
X173263479Y-98668174D02*
X173265000Y-98730122D01*
X169294231Y-108896822D02*
X169339138Y-108893402D01*
X173116218Y-154016041D02*
X173144023Y-154071281D01*
X173144023Y-66268718D02*
X173116218Y-66323958D01*
X170442468Y-56200625D02*
X170442321Y-56200418D01*
X171138837Y-66663596D02*
X171094047Y-66620952D01*
X170485617Y-140084638D02*
X170485480Y-140084424D01*
X170696642Y-51786942D02*
X170704587Y-51742612D01*
X170181222Y-80602514D02*
X170181417Y-80602352D01*
X156294333Y-43208990D02*
X156245579Y-43247039D01*
X151748657Y-37980519D02*
X151770914Y-37922820D01*
X124148837Y-69856403D02*
X124195666Y-69816009D01*
X172543718Y-41710976D02*
X172598958Y-41738781D01*
X170205439Y-136461729D02*
X170205630Y-136461561D01*
X170779258Y-98364242D02*
X170798657Y-98305519D01*
X171678845Y-122832236D02*
X171619242Y-122815741D01*
X124294983Y-167107649D02*
X124244420Y-167072039D01*
X126261359Y-70605120D02*
X126268929Y-70666498D01*
X155494877Y-71435000D02*
X152935122Y-71435000D01*
X170594774Y-52111618D02*
X170594877Y-52111386D01*
X171391041Y-38901218D02*
X171337232Y-38870735D01*
X173017039Y-38540579D02*
X172978990Y-38589333D01*
X170659534Y-56643238D02*
X170659461Y-56642995D01*
X173144023Y-154071281D02*
X173169085Y-154127820D01*
X178343798Y-20005637D02*
X178343567Y-20005204D01*
X123736520Y-154548174D02*
X123741070Y-154486498D01*
X126126218Y-126076041D02*
X126154023Y-126131281D01*
X126277561Y-111443602D02*
X126277250Y-111443981D01*
X124401041Y-41738781D02*
X124456281Y-41710976D01*
X170696642Y-79726942D02*
X170704587Y-79682612D01*
X126284398Y-53019839D02*
X126284888Y-53019863D01*
X124244420Y-41837960D02*
X124294983Y-41802350D01*
X172895952Y-166950952D02*
X172851162Y-166993596D01*
X169598462Y-108846923D02*
X169641761Y-108834534D01*
X155494877Y-37145000D02*
X155556825Y-37146520D01*
X169886195Y-83663080D02*
X169857770Y-83649137D01*
X170724999Y-98730122D02*
X170726520Y-98668174D01*
X170460555Y-52353389D02*
X170460697Y-52353179D01*
X124933174Y-66988479D02*
X124871498Y-66983929D01*
X170367514Y-52476222D02*
X170395975Y-52441318D01*
X125199879Y-41603640D02*
X125260813Y-41614213D01*
X170205630Y-111818438D02*
X170205439Y-111818270D01*
X170020361Y-108660617D02*
X170020575Y-108660480D01*
X151823781Y-121631041D02*
X151854264Y-121577232D01*
X152873174Y-99373479D02*
X152811498Y-99368929D01*
X126278238Y-83502891D02*
X126277891Y-83503238D01*
X126275003Y-83515340D02*
X126275000Y-83515586D01*
X169447362Y-83520370D02*
X169416066Y-83515576D01*
X169715307Y-27709746D02*
X169715069Y-27709661D01*
X152689186Y-148929213D02*
X152750120Y-148918640D01*
X170726520Y-154548174D02*
X170731070Y-154486498D01*
X124104047Y-66620952D02*
X124061403Y-66576162D01*
X178344718Y-172391575D02*
X178344790Y-172391090D01*
X170395975Y-139958681D02*
X170367514Y-139923777D01*
X171446281Y-41710976D02*
X171502820Y-41685914D01*
X172851162Y-94603596D02*
X172804333Y-94643990D01*
X151675000Y-122225122D02*
X151676520Y-122163174D01*
X170502495Y-136108276D02*
X170525342Y-136069465D01*
X156428596Y-149318837D02*
X156468990Y-149365666D01*
X170649904Y-107847453D02*
X170649983Y-107847212D01*
X169193082Y-108899999D02*
X169208914Y-108899798D01*
X124021009Y-94469333D02*
X123982960Y-94420579D01*
X126280637Y-136838798D02*
X126281081Y-136839008D01*
X151823781Y-70768958D02*
X151795976Y-70713718D01*
X171391041Y-153498781D02*
X171446281Y-153470976D01*
X126279783Y-111441685D02*
X126279375Y-111441957D01*
X170084374Y-80677468D02*
X170084581Y-80677321D01*
X170635253Y-52010307D02*
X170635338Y-52010069D01*
X126201342Y-66154480D02*
X126179085Y-66212179D01*
X170121083Y-164470512D02*
X170146120Y-164451132D01*
X124401041Y-153498781D02*
X124456281Y-153470976D01*
X170594877Y-163871386D02*
X170607363Y-163842291D01*
X173258929Y-98606498D02*
X173263479Y-98668174D01*
X126280637Y-108898798D02*
X126281081Y-108899008D01*
X151922960Y-93534420D02*
X151961009Y-93485666D01*
X123741070Y-154486498D02*
X123748640Y-154425120D01*
X125076825Y-69531520D02*
X125138501Y-69536070D01*
X126276432Y-55565204D02*
X126276201Y-55565637D01*
X170671990Y-56686781D02*
X170671923Y-56686537D01*
X152287232Y-93204264D02*
X152341041Y-93173781D01*
X170607460Y-140317942D02*
X170607363Y-140317708D01*
X151681070Y-66221498D02*
X151688640Y-66160120D01*
X151681070Y-94161498D02*
X151688640Y-94100120D01*
X170624257Y-135859997D02*
X170635253Y-135830307D01*
X173227236Y-149856154D02*
X173210741Y-149915757D01*
X169886421Y-55723194D02*
X169886195Y-55723080D01*
X151729258Y-42600757D02*
X151712763Y-42541154D01*
X124995122Y-153350000D02*
X125014877Y-153350000D01*
X123789258Y-42484242D02*
X123808657Y-42425519D01*
X170294207Y-164317362D02*
X170294384Y-164317181D01*
X169293978Y-55563161D02*
X169262358Y-55561558D01*
X156385952Y-126945952D02*
X156341162Y-126988596D01*
X173265000Y-166059877D02*
X173263479Y-166121825D01*
X170798657Y-98305519D02*
X170820914Y-98247820D01*
X170718380Y-79574390D02*
X170718402Y-79574138D01*
X151770914Y-154477179D02*
X151748657Y-154419480D01*
X125260813Y-94905786D02*
X125199879Y-94916359D01*
X124995122Y-150810000D02*
X124933174Y-150808479D01*
X124512820Y-167224085D02*
X124456281Y-167199023D01*
X151688640Y-94100120D02*
X151699213Y-94039186D01*
X126273479Y-126608174D02*
X126275000Y-126670122D01*
X151854264Y-121577232D02*
X151887350Y-121524983D01*
X169787057Y-164662460D02*
X169787291Y-164662363D01*
X170502364Y-52288493D02*
X170502495Y-52288276D01*
X172311154Y-66952236D02*
X172250813Y-66965786D01*
X124347232Y-97649264D02*
X124401041Y-97618781D01*
X126282466Y-53019503D02*
X126282942Y-53019623D01*
X172370757Y-25134258D02*
X172429480Y-25153657D01*
X169192956Y-108900000D02*
X169193082Y-108899999D01*
X171502820Y-153445914D02*
X171560519Y-153423657D01*
X169208914Y-164779798D02*
X169209041Y-164779796D01*
X172487179Y-122774085D02*
X172429480Y-122796342D01*
X126284398Y-83500160D02*
X126283909Y-83500209D01*
X156717236Y-98421154D02*
X156700741Y-98480757D01*
X123947350Y-153909983D02*
X123982960Y-153859420D01*
X124347232Y-66810735D02*
X124294983Y-66777649D01*
X126250786Y-98484186D02*
X126261359Y-98545120D01*
X170749213Y-70544186D02*
X170762763Y-70483845D01*
X156717236Y-126361154D02*
X156700741Y-126420757D01*
X169672212Y-80884983D02*
X169672453Y-80884904D01*
X169416066Y-55575576D02*
X169415816Y-55575541D01*
X124810120Y-66976359D02*
X124749186Y-66965786D01*
X170146120Y-55888867D02*
X170121083Y-55869487D01*
X169787291Y-111557636D02*
X169787057Y-111557539D01*
X126154023Y-66268718D02*
X126126218Y-66323958D01*
X173227236Y-38096154D02*
X173210741Y-38155757D01*
X173052649Y-66430016D02*
X173017039Y-66480579D01*
X126275376Y-55567942D02*
X126275281Y-55568424D01*
X156755000Y-153994877D02*
X156753479Y-154056825D01*
X126280637Y-111441201D02*
X126280204Y-111441432D01*
X126283424Y-80959718D02*
X126283909Y-80959790D01*
X173251359Y-37974879D02*
X173240786Y-38035813D01*
X155494877Y-99375000D02*
X152935122Y-99375000D01*
X172652767Y-69709264D02*
X172705016Y-69742350D01*
X178335111Y-172399863D02*
X178335601Y-172399839D01*
X126276432Y-136834795D02*
X126276685Y-136835216D01*
X170502495Y-28351723D02*
X170502364Y-28351506D01*
X125608958Y-122721218D02*
X125553718Y-122749023D01*
X169523451Y-55594833D02*
X169523203Y-55594778D01*
X151922960Y-37654420D02*
X151961009Y-37605666D01*
X152935122Y-127315000D02*
X152873174Y-127313479D01*
X123982960Y-42099420D02*
X124021009Y-42050666D01*
X170721822Y-112870768D02*
X170718402Y-112825861D01*
X152689186Y-37169213D02*
X152750120Y-37158640D01*
X172429480Y-69603657D02*
X172487179Y-69625914D01*
X125662767Y-66810735D02*
X125608958Y-66841218D01*
X170294207Y-56022637D02*
X170262362Y-55990792D01*
X124294983Y-66777649D02*
X124244420Y-66742039D01*
X170525468Y-164009245D02*
X170540833Y-163981562D01*
X172543718Y-66869023D02*
X172487179Y-66894085D01*
X169523451Y-164745166D02*
X169567322Y-164734986D01*
X151712763Y-38098845D02*
X151729258Y-38039242D01*
X169262358Y-27621558D02*
X169262105Y-27621548D01*
X178342749Y-20003981D02*
X178342438Y-20003602D01*
X126179085Y-94152179D02*
X126154023Y-94208718D01*
X169641761Y-27685465D02*
X169598462Y-27673076D01*
X170635253Y-163770307D02*
X170635338Y-163770069D01*
X169192956Y-55560000D02*
X126290586Y-55560000D01*
X126281534Y-53019196D02*
X126281997Y-53019361D01*
X170058389Y-52755555D02*
X170084374Y-52737468D01*
X156542649Y-98815016D02*
X156507039Y-98865579D01*
X171337232Y-41769264D02*
X171391041Y-41738781D01*
X124244420Y-153597960D02*
X124294983Y-153562350D01*
X172705016Y-97682350D02*
X172755579Y-97717960D01*
X169415816Y-164764458D02*
X169416066Y-164764423D01*
X171619242Y-150755741D02*
X171560519Y-150736342D01*
X171391041Y-66841218D02*
X171337232Y-66810735D01*
X169294231Y-164776822D02*
X169339138Y-164773402D01*
X126279783Y-108898314D02*
X126280204Y-108898567D01*
X169415816Y-80944458D02*
X169416066Y-80944423D01*
X173240786Y-70544186D02*
X173251359Y-70605120D01*
X173191342Y-126245519D02*
X173210741Y-126304242D01*
X125380757Y-122815741D02*
X125321154Y-122832236D01*
X172128501Y-41596070D02*
X172189879Y-41603640D01*
X169715069Y-108810338D02*
X169715307Y-108810253D01*
X171678845Y-97507763D02*
X171739186Y-97494213D01*
X155556825Y-99373479D02*
X155494877Y-99375000D01*
X155679879Y-155241359D02*
X155618501Y-155248929D01*
X169642004Y-136774461D02*
X169672212Y-136764983D01*
X173116218Y-25746041D02*
X173144023Y-25801281D01*
X152396281Y-127194023D02*
X152341041Y-127166218D01*
X173263479Y-154548174D02*
X173265000Y-154610122D01*
X126273479Y-37851825D02*
X126268929Y-37913501D01*
X123748640Y-37974879D02*
X123741070Y-37913501D01*
X169926562Y-108715833D02*
X169954245Y-108700468D01*
X124401041Y-66841218D02*
X124347232Y-66810735D01*
X169416066Y-111455576D02*
X169415816Y-111455541D01*
X156428596Y-121378837D02*
X156468990Y-121425666D01*
X169294231Y-111443177D02*
X169293978Y-111443161D01*
X124294983Y-153562350D02*
X124347232Y-153529264D01*
X156341162Y-37471403D02*
X156385952Y-37514047D01*
X124570519Y-38976342D02*
X124512820Y-38954085D01*
X123830914Y-98247820D02*
X123855976Y-98191281D01*
X169193082Y-55560000D02*
X169192956Y-55560000D01*
X126278981Y-164777749D02*
X126279375Y-164778042D01*
X124995122Y-167320000D02*
X124995122Y-167320000D01*
X123789258Y-66095757D02*
X123772763Y-66036154D01*
X170724999Y-29151917D02*
X170724798Y-29136085D01*
X170205630Y-108521561D02*
X170239047Y-108491370D01*
X169371140Y-108890148D02*
X169415816Y-108884458D01*
X170798657Y-94094480D02*
X170779258Y-94035757D01*
X178338002Y-172399361D02*
X178338465Y-172399196D01*
X124294983Y-97682350D02*
X124347232Y-97649264D01*
X172978990Y-94469333D02*
X172938596Y-94516162D01*
X151795976Y-126593718D02*
X151770914Y-126537179D01*
X172851162Y-66663596D02*
X172804333Y-66703990D01*
X170485480Y-84204424D02*
X170460697Y-84166820D01*
X152811498Y-71428929D02*
X152750120Y-71421359D01*
X170709458Y-79650816D02*
X170715148Y-79606140D01*
X124104047Y-153719047D02*
X124148837Y-153676403D01*
X170820914Y-42367820D02*
X170845976Y-42311281D01*
X169294231Y-55563177D02*
X169293978Y-55563161D01*
X155977179Y-121060914D02*
X156033718Y-121085976D01*
X171985122Y-41590000D02*
X172004877Y-41590000D01*
X173085735Y-70142232D02*
X173116218Y-70196041D01*
X118658981Y-20002250D02*
X118658602Y-20002561D01*
X170972960Y-66480579D02*
X170937350Y-66430016D01*
X123914264Y-38437767D02*
X123883781Y-38383958D01*
X126276685Y-55564783D02*
X126276432Y-55565204D01*
X152935122Y-127315000D02*
X152935122Y-127315000D01*
X156748929Y-122101498D02*
X156753479Y-122163174D01*
X169993276Y-164557495D02*
X169993493Y-164557364D01*
X170442468Y-52379374D02*
X170460555Y-52353389D01*
X171861498Y-122863929D02*
X171800120Y-122856359D01*
X171678845Y-41627763D02*
X171739186Y-41614213D01*
X172004877Y-94930000D02*
X171985122Y-94930000D01*
X170294207Y-80497362D02*
X170294384Y-80497181D01*
X169954245Y-136640468D02*
X169954465Y-136640342D01*
X178329413Y-172400000D02*
X178329659Y-172399996D01*
X170624257Y-107919997D02*
X170635253Y-107890307D01*
X169262358Y-108898441D02*
X169293978Y-108896838D01*
X126275160Y-53010601D02*
X126275209Y-53011090D01*
X126282466Y-83500496D02*
X126281997Y-83500638D01*
X173116218Y-94263958D02*
X173085735Y-94317767D01*
X170561919Y-80121195D02*
X170575862Y-80092770D01*
X169954465Y-52820342D02*
X169993276Y-52797495D01*
X170575862Y-84367229D02*
X170561919Y-84338804D01*
X155494877Y-148905000D02*
X155556825Y-148906520D01*
X156741359Y-98299879D02*
X156730786Y-98360813D01*
X170724999Y-65729877D02*
X170725000Y-57092043D01*
X170316198Y-108414233D02*
X170316370Y-108414047D01*
X178341018Y-20002250D02*
X178340624Y-20001957D01*
X126278981Y-136837749D02*
X126279375Y-136838042D01*
X173227236Y-166366154D02*
X173210741Y-166425757D01*
X124401041Y-167171218D02*
X124347232Y-167140735D01*
X170607363Y-52082291D02*
X170607460Y-52082057D01*
X126275281Y-136831575D02*
X126275376Y-136832057D01*
X126281081Y-53019008D02*
X126281534Y-53019196D01*
X170121083Y-111749487D02*
X170120881Y-111749334D01*
X173085735Y-166707767D02*
X173052649Y-166760016D01*
X170635253Y-140389692D02*
X170624257Y-140360002D01*
X171800120Y-41603640D02*
X171861498Y-41596070D01*
X126277891Y-53016761D02*
X126278238Y-53017108D01*
X126282466Y-55560496D02*
X126281997Y-55560638D01*
X155679879Y-148918640D02*
X155740813Y-148929213D01*
X169523203Y-52985221D02*
X169523451Y-52985166D01*
X156575735Y-42882767D02*
X156542649Y-42935016D01*
X118661081Y-20000991D02*
X118660637Y-20001201D01*
X170724798Y-85016085D02*
X170724796Y-85015958D01*
X171185666Y-122583990D02*
X171138837Y-122543596D01*
X126275281Y-53011575D02*
X126275376Y-53012057D01*
X172189879Y-25093640D02*
X172250813Y-25104213D01*
X170346729Y-56079560D02*
X170346561Y-56079369D01*
X123789258Y-38155757D02*
X123772763Y-38096154D01*
X124061403Y-66576162D02*
X124021009Y-66529333D01*
X169715069Y-27709661D02*
X169672453Y-27695095D01*
X170020361Y-55799382D02*
X169993493Y-55782635D01*
X172487179Y-97565914D02*
X172543718Y-97590976D01*
X171337232Y-97649264D02*
X171391041Y-97618781D01*
X126278238Y-108897108D02*
X126278602Y-108897438D01*
X126237236Y-93976154D02*
X126220741Y-94035757D01*
X178341018Y-172397749D02*
X178341397Y-172397438D01*
X172543718Y-25200976D02*
X172598958Y-25228781D01*
X173052649Y-150250016D02*
X173017039Y-150300579D01*
X123982960Y-38540579D02*
X123947350Y-38490016D01*
X151961009Y-37605666D02*
X152001403Y-37558837D01*
X170724999Y-126670122D02*
X170726520Y-126608174D01*
X171337232Y-122690735D02*
X171284983Y-122657649D01*
X124021009Y-97930666D02*
X124061403Y-97883837D01*
X123772763Y-70483845D02*
X123789258Y-70424242D01*
X169567322Y-80914986D02*
X169567568Y-80914926D01*
X126275136Y-55569888D02*
X126275003Y-55575340D01*
X170724796Y-135324041D02*
X170724798Y-135323914D01*
X170723451Y-163317105D02*
X170724796Y-163264041D01*
X126278602Y-80957438D02*
X126278981Y-80957749D01*
X126275638Y-164773002D02*
X126275803Y-164773465D01*
X169491942Y-55588357D02*
X169447612Y-55580412D01*
X126268929Y-98606498D02*
X126273479Y-98668174D01*
X155801154Y-127277236D02*
X155740813Y-127290786D01*
X155977179Y-155159085D02*
X155919480Y-155181342D01*
X118655803Y-172393465D02*
X118655991Y-172393918D01*
X123735000Y-26340122D02*
X123736520Y-26278174D01*
X172804333Y-38763990D02*
X172755579Y-38802039D01*
X172755579Y-150562039D02*
X172705016Y-150597649D01*
X126250786Y-70544186D02*
X126261359Y-70605120D01*
X169993276Y-55782504D02*
X169954465Y-55759657D01*
X170904264Y-122257767D02*
X170873781Y-122203958D01*
X125380757Y-153404258D02*
X125439480Y-153423657D01*
X152569242Y-43440741D02*
X152510519Y-43421342D01*
X156385952Y-99005952D02*
X156341162Y-99048596D01*
X172755579Y-94682039D02*
X172705016Y-94717649D01*
X124810120Y-122856359D02*
X124749186Y-122845786D01*
X170635338Y-79950069D02*
X170649904Y-79907453D01*
X170395975Y-112018681D02*
X170367514Y-111983777D01*
X156659085Y-98597179D02*
X156634023Y-98653718D01*
X170721822Y-163349231D02*
X170721838Y-163348978D01*
X126278238Y-55562891D02*
X126277891Y-55563238D01*
X169192956Y-83500000D02*
X126290586Y-83500000D01*
X170715148Y-163426140D02*
X170715177Y-163425888D01*
X170624257Y-112420002D02*
X170624166Y-112419765D01*
X170749213Y-149795813D02*
X170738640Y-149734879D01*
X173263479Y-37851825D02*
X173258929Y-37913501D01*
X170020575Y-55799519D02*
X170020361Y-55799382D01*
X156428596Y-154841162D02*
X156385952Y-154885952D01*
X170020361Y-164540617D02*
X170020575Y-164540480D01*
X152088837Y-99048596D02*
X152044047Y-99005952D01*
X172598958Y-69678781D02*
X172652767Y-69709264D01*
X173085735Y-66377767D02*
X173052649Y-66430016D01*
X170690166Y-135638451D02*
X170690221Y-135638203D01*
X170679926Y-163622568D02*
X170679986Y-163622322D01*
X151795976Y-98653718D02*
X151770914Y-98597179D01*
X169672212Y-164704983D02*
X169672453Y-164704904D01*
X152135666Y-71148990D02*
X152088837Y-71108596D01*
X124061403Y-122456162D02*
X124021009Y-122409333D01*
X155801154Y-148942763D02*
X155860757Y-148959258D01*
X169567568Y-108854926D02*
X169598218Y-108846990D01*
X169339138Y-136833402D02*
X169339390Y-136833380D01*
X169416066Y-136824423D02*
X169447362Y-136819629D01*
X123808657Y-122034480D02*
X123789258Y-121975757D01*
X156294333Y-93311009D02*
X156341162Y-93351403D01*
X170415665Y-139984118D02*
X170415512Y-139983916D01*
X124629242Y-41644258D02*
X124688845Y-41627763D01*
X156748929Y-150041498D02*
X156753479Y-150103174D01*
X152396281Y-71314023D02*
X152341041Y-71286218D01*
X172250813Y-122845786D02*
X172189879Y-122856359D01*
X118661081Y-172399008D02*
X118661534Y-172399196D01*
X123772763Y-154303845D02*
X123789258Y-154244242D01*
X170762763Y-66036154D02*
X170749213Y-65975813D01*
X178329659Y-172399996D02*
X178335111Y-172399863D01*
X152935122Y-155255000D02*
X152873174Y-155253479D01*
X178338002Y-20000638D02*
X178337533Y-20000496D01*
X123830914Y-66212179D02*
X123808657Y-66154480D01*
X169787057Y-108782460D02*
X169787291Y-108782363D01*
X170659461Y-56642995D02*
X170649983Y-56612787D01*
X156700741Y-70540757D02*
X156681342Y-70599480D01*
X170696594Y-163547191D02*
X170696642Y-163546942D01*
X170721822Y-51589231D02*
X170721838Y-51588978D01*
X152044047Y-43125952D02*
X152001403Y-43081162D01*
X156741359Y-42419879D02*
X156730786Y-42480813D01*
X126273479Y-121671825D02*
X126268929Y-121733501D01*
X170624166Y-56539765D02*
X170607460Y-56497942D01*
X170575862Y-80092770D02*
X170575971Y-80092541D01*
X123789258Y-70424242D02*
X123808657Y-70365519D01*
X125905952Y-41959047D02*
X125948596Y-42003837D01*
X170696594Y-56792808D02*
X170690221Y-56761796D01*
X126276685Y-136835216D02*
X126276957Y-136835624D01*
X124347232Y-153529264D02*
X124401041Y-153498781D01*
X169926339Y-80775953D02*
X169926562Y-80775833D01*
X170724999Y-42850122D02*
X170726520Y-42788174D01*
X170724796Y-51504041D02*
X170724798Y-51503914D01*
X125715016Y-41802350D02*
X125765579Y-41837960D01*
X171138837Y-94603596D02*
X171094047Y-94560952D01*
X178339362Y-20001201D02*
X178338918Y-20000991D01*
X126278602Y-83502561D02*
X126278238Y-83502891D01*
X169926562Y-52835833D02*
X169954245Y-52820468D01*
X151961009Y-98914333D02*
X151922960Y-98865579D01*
X170649983Y-51967212D02*
X170659461Y-51937004D01*
X172370757Y-167265741D02*
X172311154Y-167282236D01*
X173191342Y-122034480D02*
X173169085Y-122092179D01*
X152044047Y-65454047D02*
X152088837Y-65411403D01*
X170718380Y-163394390D02*
X170718402Y-163394138D01*
X126275160Y-164770601D02*
X126275209Y-164771090D01*
X169371140Y-164770148D02*
X169415816Y-164764458D01*
X170607460Y-80022057D02*
X170624166Y-79980234D01*
X170181222Y-83857485D02*
X170146318Y-83829024D01*
X178344008Y-172393918D02*
X178344196Y-172393465D01*
X126284398Y-55560160D02*
X126283909Y-55560209D01*
X173191342Y-166484480D02*
X173169085Y-166542179D01*
X170181222Y-55917485D02*
X170146318Y-55889024D01*
X172938596Y-94516162D02*
X172895952Y-94560952D01*
X156033718Y-121085976D02*
X156088958Y-121113781D01*
X172066825Y-167318479D02*
X172004877Y-167320000D01*
X169567322Y-111485013D02*
X169523451Y-111474833D01*
X126237236Y-121916154D02*
X126220741Y-121975757D01*
X124021009Y-166859333D02*
X123982960Y-166810579D01*
X169787057Y-27737539D02*
X169745234Y-27720833D01*
X126278602Y-136837438D02*
X126278981Y-136837749D01*
X173085735Y-25692232D02*
X173116218Y-25746041D01*
X170346561Y-56079369D02*
X170316370Y-56045952D01*
X123855976Y-98191281D02*
X123883781Y-98136041D01*
X173258929Y-93793501D02*
X173251359Y-93854879D01*
X125380757Y-97524258D02*
X125439480Y-97543657D01*
X151729258Y-93919242D02*
X151748657Y-93860519D01*
X152234983Y-71222649D02*
X152184420Y-71187039D01*
X170724999Y-93669877D02*
X170725000Y-85032043D01*
X151887350Y-70875016D02*
X151854264Y-70822767D01*
X169598462Y-55613076D02*
X169598218Y-55613009D01*
X172543718Y-167199023D02*
X172487179Y-167224085D01*
X170594774Y-84408381D02*
X170575971Y-84367458D01*
X170415512Y-108296083D02*
X170415665Y-108295881D01*
X126268929Y-126546498D02*
X126273479Y-126608174D01*
X170704629Y-107622362D02*
X170709423Y-107591066D01*
X170540953Y-80161339D02*
X170561805Y-80121421D01*
X170120881Y-83809334D02*
X170084581Y-83782678D01*
X170442321Y-140020418D02*
X170415665Y-139984118D01*
X178343798Y-172394362D02*
X178344008Y-172393918D01*
X126277561Y-55563602D02*
X126277250Y-55563981D01*
X123772763Y-42543845D02*
X123789258Y-42484242D01*
X172189879Y-39036359D02*
X172128501Y-39043929D01*
X124995122Y-41590000D02*
X125014877Y-41590000D01*
X124148837Y-66663596D02*
X124104047Y-66620952D01*
X172487179Y-69625914D02*
X172543718Y-69650976D01*
X170540953Y-28418660D02*
X170540833Y-28418437D01*
X171337232Y-94750735D02*
X171284983Y-94717649D01*
X170607460Y-107962057D02*
X170624166Y-107920234D01*
X156468990Y-154794333D02*
X156428596Y-154841162D01*
X170561805Y-108061421D02*
X170561919Y-108061195D01*
X172370757Y-97524258D02*
X172429480Y-97543657D01*
X125988990Y-122409333D02*
X125948596Y-122456162D01*
X152184420Y-155007039D02*
X152135666Y-154968990D01*
X169745234Y-52919166D02*
X169787057Y-52902460D01*
X169447612Y-108879587D02*
X169491942Y-108871642D01*
X123914264Y-70142232D02*
X123947350Y-70089983D01*
X123735000Y-98730122D02*
X123736520Y-98668174D01*
X170239233Y-164371198D02*
X170262181Y-164349384D01*
X171446281Y-66869023D02*
X171391041Y-66841218D01*
X118657561Y-20003602D02*
X118657250Y-20003981D01*
X169954465Y-55759657D02*
X169954245Y-55759531D01*
X172189879Y-97483640D02*
X172250813Y-97494213D01*
X124456281Y-153470976D02*
X124512820Y-153445914D01*
X118670586Y-20000000D02*
X118670340Y-20000003D01*
X126276685Y-164775216D02*
X126276957Y-164775624D01*
X152001403Y-149318837D02*
X152044047Y-149274047D01*
X170749213Y-154364186D02*
X170762763Y-154303845D01*
X172895952Y-69899047D02*
X172938596Y-69943837D01*
X125608958Y-69678781D02*
X125662767Y-69709264D01*
X126275496Y-108892533D02*
X126275638Y-108893002D01*
X123914264Y-98082232D02*
X123947350Y-98029983D01*
X173258929Y-70666498D02*
X173263479Y-70728174D01*
X126179085Y-42367820D02*
X126201342Y-42425519D01*
X124995122Y-167320000D02*
X124933174Y-167318479D01*
X124104047Y-97839047D02*
X124148837Y-97796403D01*
X170395975Y-28198681D02*
X170367514Y-28163777D01*
X156468990Y-65545666D02*
X156507039Y-65594420D01*
X123914264Y-122257767D02*
X123883781Y-122203958D01*
X151961009Y-154794333D02*
X151922960Y-154745579D01*
X169816386Y-55690122D02*
X169787291Y-55677636D01*
X151795976Y-37866281D02*
X151823781Y-37811041D01*
X169886421Y-52856805D02*
X169926339Y-52835953D01*
X124347232Y-122690735D02*
X124294983Y-122657649D01*
X170367514Y-56103777D02*
X170367352Y-56103582D01*
X172128501Y-66983929D02*
X172066825Y-66988479D01*
X172250813Y-69554213D02*
X172311154Y-69567763D01*
X155556825Y-65086520D02*
X155618501Y-65091070D01*
X169339390Y-55566619D02*
X169339138Y-55566597D01*
X170294207Y-52557362D02*
X170294384Y-52557181D01*
X152135666Y-149191009D02*
X152184420Y-149152960D01*
X169209041Y-27620203D02*
X169208914Y-27620201D01*
X170679986Y-112597677D02*
X170679926Y-112597431D01*
X178343567Y-20005204D02*
X178343314Y-20004783D01*
X126201342Y-38214480D02*
X126179085Y-38272179D01*
X124347232Y-41769264D02*
X124401041Y-41738781D01*
X126275496Y-136832533D02*
X126275638Y-136833002D01*
X170525468Y-84270754D02*
X170525342Y-84270534D01*
X173251359Y-166244879D02*
X173240786Y-166305813D01*
X172189879Y-69543640D02*
X172250813Y-69554213D01*
X126275376Y-53012057D02*
X126275496Y-53012533D01*
X173144023Y-166598718D02*
X173116218Y-166653958D01*
X171391041Y-41738781D02*
X171446281Y-41710976D01*
X170723441Y-140842641D02*
X170721838Y-140811021D01*
X126281081Y-111440991D02*
X126280637Y-111441201D01*
X170575971Y-56427458D02*
X170575862Y-56427229D01*
X123947350Y-42149983D02*
X123982960Y-42099420D01*
X170704587Y-56837387D02*
X170696642Y-56793057D01*
X169857770Y-27769137D02*
X169857541Y-27769028D01*
X126278238Y-80957108D02*
X126278602Y-80957438D01*
X156142767Y-71255735D02*
X156088958Y-71286218D01*
X169816618Y-108769774D02*
X169857541Y-108750971D01*
X152510519Y-127241342D02*
X152452820Y-127219085D01*
X170146318Y-136510975D02*
X170181222Y-136482514D01*
X124933174Y-122868479D02*
X124871498Y-122863929D01*
X124456281Y-66869023D02*
X124401041Y-66841218D01*
X172978990Y-166859333D02*
X172938596Y-166906162D01*
X123772763Y-66036154D02*
X123759213Y-65975813D01*
X126237236Y-66036154D02*
X126220741Y-66095757D01*
X156717236Y-93978845D02*
X156730786Y-94039186D01*
X123759213Y-154364186D02*
X123772763Y-154303845D01*
X156468990Y-70974333D02*
X156428596Y-71021162D01*
X172652767Y-153529264D02*
X172705016Y-153562350D01*
X170502364Y-108168493D02*
X170502495Y-108168276D01*
X126275496Y-80952533D02*
X126275638Y-80953002D01*
X126268929Y-65853501D02*
X126261359Y-65914879D01*
X151823781Y-98708958D02*
X151795976Y-98653718D01*
X170721838Y-84931021D02*
X170721822Y-84930768D01*
X172938596Y-42003837D02*
X172978990Y-42050666D01*
X171446281Y-153470976D02*
X171502820Y-153445914D01*
X126276957Y-108895624D02*
X126277250Y-108896018D01*
X170624166Y-107920234D02*
X170624257Y-107919997D01*
X170058389Y-55824444D02*
X170058179Y-55824302D01*
X171011009Y-122409333D02*
X170972960Y-122360579D01*
X169672453Y-80884904D02*
X169715069Y-80870338D01*
X173210741Y-121975757D02*
X173191342Y-122034480D01*
X123830914Y-166542179D02*
X123808657Y-166484480D01*
X126275136Y-108890111D02*
X126275160Y-108890601D01*
X170679986Y-79802322D02*
X170690166Y-79758451D01*
X152873174Y-148906520D02*
X152935122Y-148905000D01*
X118655376Y-20007942D02*
X118655281Y-20008424D01*
X126126218Y-154016041D02*
X126154023Y-154071281D01*
X155977179Y-149000914D02*
X156033718Y-149025976D01*
X170635253Y-112449692D02*
X170624257Y-112420002D01*
X170594877Y-112348613D02*
X170594774Y-112348381D01*
X125948596Y-66576162D02*
X125905952Y-66620952D01*
X169339138Y-83506597D02*
X169294231Y-83503177D01*
X124512820Y-66894085D02*
X124456281Y-66869023D01*
X173191342Y-66154480D02*
X173169085Y-66212179D01*
X170972960Y-153859420D02*
X171011009Y-153810666D01*
X169492191Y-83528405D02*
X169491942Y-83528357D01*
X156753479Y-98176825D02*
X156748929Y-98238501D01*
X169954465Y-164580342D02*
X169993276Y-164557495D01*
X169294231Y-53016822D02*
X169339138Y-53013402D01*
X170718402Y-84885861D02*
X170718380Y-84885609D01*
X156748929Y-98238501D02*
X156741359Y-98299879D01*
X125076825Y-97471520D02*
X125138501Y-97476070D01*
X125814333Y-153636009D02*
X125861162Y-153676403D01*
X123855976Y-42311281D02*
X123883781Y-42256041D01*
X118662466Y-20000496D02*
X118661997Y-20000638D01*
X170624166Y-163800234D02*
X170624257Y-163799997D01*
X156606218Y-154588958D02*
X156575735Y-154642767D01*
X151681070Y-38281498D02*
X151688640Y-38220120D01*
X126290586Y-139380000D02*
X126290340Y-139380003D01*
X169886195Y-52856919D02*
X169886421Y-52856805D01*
X155977179Y-71339085D02*
X155919480Y-71361342D01*
X169926339Y-164595953D02*
X169926562Y-164595833D01*
X170718380Y-140765609D02*
X170715177Y-140734111D01*
X170724999Y-154610122D02*
X170726520Y-154548174D01*
X156755000Y-94285122D02*
X156755000Y-98114877D01*
X118670586Y-172400000D02*
X178329413Y-172400000D01*
X156195016Y-121177350D02*
X156245579Y-121212960D01*
X124456281Y-94809023D02*
X124401041Y-94781218D01*
X170540833Y-163981562D02*
X170540953Y-163981339D01*
X172851162Y-41916403D02*
X172895952Y-41959047D01*
X169926562Y-27804166D02*
X169926339Y-27804046D01*
X170721838Y-163348978D02*
X170723441Y-163317358D01*
M02*
