G04 #@! TF.GenerationSoftware,KiCad,Pcbnew,6.0.2+dfsg-1*
G04 #@! TF.CreationDate,2023-12-10T15:56:56-07:00*
G04 #@! TF.ProjectId,ckt-dingdong-prog,636b742d-6469-46e6-9764-6f6e672d7072,rev?*
G04 #@! TF.SameCoordinates,Original*
G04 #@! TF.FileFunction,Legend,Top*
G04 #@! TF.FilePolarity,Positive*
%FSLAX46Y46*%
G04 Gerber Fmt 4.6, Leading zero omitted, Abs format (unit mm)*
G04 Created by KiCad (PCBNEW 6.0.2+dfsg-1) date 2023-12-10 15:56:56*
%MOMM*%
%LPD*%
G01*
G04 APERTURE LIST*
%ADD10C,0.150000*%
%ADD11C,0.300000*%
%ADD12C,0.304800*%
%ADD13C,0.120000*%
%ADD14C,0.100000*%
G04 APERTURE END LIST*
D10*
X50800000Y-68199000D02*
X76200000Y-68199000D01*
X76200000Y-68199000D02*
X76200000Y-118999000D01*
X76200000Y-118999000D02*
X50800000Y-118999000D01*
X50800000Y-118999000D02*
X50800000Y-68199000D01*
D11*
X111379000Y-88459571D02*
X111379000Y-88816714D01*
X111021857Y-88673857D02*
X111379000Y-88816714D01*
X111736142Y-88673857D01*
X111164714Y-89102428D02*
X111379000Y-88816714D01*
X111593285Y-89102428D01*
D12*
X100981691Y-90541928D02*
X100346691Y-90541928D01*
X100346691Y-91539785D02*
X100346691Y-89634785D01*
X101253834Y-89634785D01*
X102886691Y-91539785D02*
X101979548Y-91539785D01*
X101979548Y-89634785D01*
X103430977Y-90995500D02*
X104338120Y-90995500D01*
X103249548Y-91539785D02*
X103884548Y-89634785D01*
X104519548Y-91539785D01*
X105063834Y-91449071D02*
X105335977Y-91539785D01*
X105789548Y-91539785D01*
X105970977Y-91449071D01*
X106061691Y-91358357D01*
X106152405Y-91176928D01*
X106152405Y-90995500D01*
X106061691Y-90814071D01*
X105970977Y-90723357D01*
X105789548Y-90632642D01*
X105426691Y-90541928D01*
X105245262Y-90451214D01*
X105154548Y-90360500D01*
X105063834Y-90179071D01*
X105063834Y-89997642D01*
X105154548Y-89816214D01*
X105245262Y-89725500D01*
X105426691Y-89634785D01*
X105880262Y-89634785D01*
X106152405Y-89725500D01*
X106968834Y-91539785D02*
X106968834Y-89634785D01*
X106968834Y-90541928D02*
X108057405Y-90541928D01*
X108057405Y-91539785D02*
X108057405Y-89634785D01*
D11*
X85979000Y-115256571D02*
X85979000Y-115613714D01*
X85621857Y-115470857D02*
X85979000Y-115613714D01*
X86336142Y-115470857D01*
X85764714Y-115899428D02*
X85979000Y-115613714D01*
X86193285Y-115899428D01*
D10*
X85440380Y-76566380D02*
X85440380Y-75566380D01*
X86059428Y-76566380D02*
X85964190Y-76518761D01*
X85916571Y-76471142D01*
X85868952Y-76375904D01*
X85868952Y-76090190D01*
X85916571Y-75994952D01*
X85964190Y-75947333D01*
X86059428Y-75899714D01*
X86202285Y-75899714D01*
X86297523Y-75947333D01*
X86345142Y-75994952D01*
X86392761Y-76090190D01*
X86392761Y-76375904D01*
X86345142Y-76471142D01*
X86297523Y-76518761D01*
X86202285Y-76566380D01*
X86059428Y-76566380D01*
X86726095Y-75899714D02*
X86916571Y-76566380D01*
X87107047Y-76090190D01*
X87297523Y-76566380D01*
X87488000Y-75899714D01*
X88297523Y-76566380D02*
X88297523Y-76042571D01*
X88249904Y-75947333D01*
X88154666Y-75899714D01*
X87964190Y-75899714D01*
X87868952Y-75947333D01*
X88297523Y-76518761D02*
X88202285Y-76566380D01*
X87964190Y-76566380D01*
X87868952Y-76518761D01*
X87821333Y-76423523D01*
X87821333Y-76328285D01*
X87868952Y-76233047D01*
X87964190Y-76185428D01*
X88202285Y-76185428D01*
X88297523Y-76137809D01*
X89488000Y-76518761D02*
X89630857Y-76566380D01*
X89868952Y-76566380D01*
X89964190Y-76518761D01*
X90011809Y-76471142D01*
X90059428Y-76375904D01*
X90059428Y-76280666D01*
X90011809Y-76185428D01*
X89964190Y-76137809D01*
X89868952Y-76090190D01*
X89678476Y-76042571D01*
X89583238Y-75994952D01*
X89535619Y-75947333D01*
X89488000Y-75852095D01*
X89488000Y-75756857D01*
X89535619Y-75661619D01*
X89583238Y-75614000D01*
X89678476Y-75566380D01*
X89916571Y-75566380D01*
X90059428Y-75614000D01*
X90916571Y-76518761D02*
X90821333Y-76566380D01*
X90630857Y-76566380D01*
X90535619Y-76518761D01*
X90488000Y-76471142D01*
X90440380Y-76375904D01*
X90440380Y-76090190D01*
X90488000Y-75994952D01*
X90535619Y-75947333D01*
X90630857Y-75899714D01*
X90821333Y-75899714D01*
X90916571Y-75947333D01*
X91773714Y-76566380D02*
X91773714Y-76042571D01*
X91726095Y-75947333D01*
X91630857Y-75899714D01*
X91440380Y-75899714D01*
X91345142Y-75947333D01*
X91773714Y-76518761D02*
X91678476Y-76566380D01*
X91440380Y-76566380D01*
X91345142Y-76518761D01*
X91297523Y-76423523D01*
X91297523Y-76328285D01*
X91345142Y-76233047D01*
X91440380Y-76185428D01*
X91678476Y-76185428D01*
X91773714Y-76137809D01*
X92392761Y-76566380D02*
X92297523Y-76518761D01*
X92249904Y-76423523D01*
X92249904Y-75566380D01*
X93154666Y-76518761D02*
X93059428Y-76566380D01*
X92868952Y-76566380D01*
X92773714Y-76518761D01*
X92726095Y-76423523D01*
X92726095Y-76042571D01*
X92773714Y-75947333D01*
X92868952Y-75899714D01*
X93059428Y-75899714D01*
X93154666Y-75947333D01*
X93202285Y-76042571D01*
X93202285Y-76137809D01*
X92726095Y-76233047D01*
X94059428Y-76566380D02*
X94059428Y-75566380D01*
X94059428Y-76518761D02*
X93964190Y-76566380D01*
X93773714Y-76566380D01*
X93678476Y-76518761D01*
X93630857Y-76471142D01*
X93583238Y-76375904D01*
X93583238Y-76090190D01*
X93630857Y-75994952D01*
X93678476Y-75947333D01*
X93773714Y-75899714D01*
X93964190Y-75899714D01*
X94059428Y-75947333D01*
X95297523Y-76042571D02*
X95630857Y-76042571D01*
X95773714Y-76566380D02*
X95297523Y-76566380D01*
X95297523Y-75566380D01*
X95773714Y-75566380D01*
X96202285Y-75899714D02*
X96202285Y-76566380D01*
X96202285Y-75994952D02*
X96249904Y-75947333D01*
X96345142Y-75899714D01*
X96488000Y-75899714D01*
X96583238Y-75947333D01*
X96630857Y-76042571D01*
X96630857Y-76566380D01*
X97535619Y-75899714D02*
X97535619Y-76709238D01*
X97488000Y-76804476D01*
X97440380Y-76852095D01*
X97345142Y-76899714D01*
X97202285Y-76899714D01*
X97107047Y-76852095D01*
X97535619Y-76518761D02*
X97440380Y-76566380D01*
X97249904Y-76566380D01*
X97154666Y-76518761D01*
X97107047Y-76471142D01*
X97059428Y-76375904D01*
X97059428Y-76090190D01*
X97107047Y-75994952D01*
X97154666Y-75947333D01*
X97249904Y-75899714D01*
X97440380Y-75899714D01*
X97535619Y-75947333D01*
X98011809Y-76566380D02*
X98011809Y-75899714D01*
X98011809Y-75566380D02*
X97964190Y-75614000D01*
X98011809Y-75661619D01*
X98059428Y-75614000D01*
X98011809Y-75566380D01*
X98011809Y-75661619D01*
X98488000Y-75899714D02*
X98488000Y-76566380D01*
X98488000Y-75994952D02*
X98535619Y-75947333D01*
X98630857Y-75899714D01*
X98773714Y-75899714D01*
X98868952Y-75947333D01*
X98916571Y-76042571D01*
X98916571Y-76566380D01*
X99773714Y-76518761D02*
X99678476Y-76566380D01*
X99488000Y-76566380D01*
X99392761Y-76518761D01*
X99345142Y-76423523D01*
X99345142Y-76042571D01*
X99392761Y-75947333D01*
X99488000Y-75899714D01*
X99678476Y-75899714D01*
X99773714Y-75947333D01*
X99821333Y-76042571D01*
X99821333Y-76137809D01*
X99345142Y-76233047D01*
X100630857Y-76518761D02*
X100535619Y-76566380D01*
X100345142Y-76566380D01*
X100249904Y-76518761D01*
X100202285Y-76423523D01*
X100202285Y-76042571D01*
X100249904Y-75947333D01*
X100345142Y-75899714D01*
X100535619Y-75899714D01*
X100630857Y-75947333D01*
X100678476Y-76042571D01*
X100678476Y-76137809D01*
X100202285Y-76233047D01*
X101107047Y-76566380D02*
X101107047Y-75899714D01*
X101107047Y-76090190D02*
X101154666Y-75994952D01*
X101202285Y-75947333D01*
X101297523Y-75899714D01*
X101392761Y-75899714D01*
X101726095Y-76566380D02*
X101726095Y-75899714D01*
X101726095Y-75566380D02*
X101678476Y-75614000D01*
X101726095Y-75661619D01*
X101773714Y-75614000D01*
X101726095Y-75566380D01*
X101726095Y-75661619D01*
X102202285Y-75899714D02*
X102202285Y-76566380D01*
X102202285Y-75994952D02*
X102249904Y-75947333D01*
X102345142Y-75899714D01*
X102488000Y-75899714D01*
X102583238Y-75947333D01*
X102630857Y-76042571D01*
X102630857Y-76566380D01*
X103535619Y-75899714D02*
X103535619Y-76709238D01*
X103488000Y-76804476D01*
X103440380Y-76852095D01*
X103345142Y-76899714D01*
X103202285Y-76899714D01*
X103107047Y-76852095D01*
X103535619Y-76518761D02*
X103440380Y-76566380D01*
X103249904Y-76566380D01*
X103154666Y-76518761D01*
X103107047Y-76471142D01*
X103059428Y-76375904D01*
X103059428Y-76090190D01*
X103107047Y-75994952D01*
X103154666Y-75947333D01*
X103249904Y-75899714D01*
X103440380Y-75899714D01*
X103535619Y-75947333D01*
X84892761Y-78081142D02*
X84845142Y-78128761D01*
X84702285Y-78176380D01*
X84607047Y-78176380D01*
X84464190Y-78128761D01*
X84368952Y-78033523D01*
X84321333Y-77938285D01*
X84273714Y-77747809D01*
X84273714Y-77604952D01*
X84321333Y-77414476D01*
X84368952Y-77319238D01*
X84464190Y-77224000D01*
X84607047Y-77176380D01*
X84702285Y-77176380D01*
X84845142Y-77224000D01*
X84892761Y-77271619D01*
X85321333Y-78176380D02*
X85321333Y-77176380D01*
X85892761Y-78176380D02*
X85464190Y-77604952D01*
X85892761Y-77176380D02*
X85321333Y-77747809D01*
X86178476Y-77176380D02*
X86749904Y-77176380D01*
X86464190Y-78176380D02*
X86464190Y-77176380D01*
X87083238Y-77795428D02*
X87845142Y-77795428D01*
X88321333Y-78176380D02*
X88321333Y-77176380D01*
X88559428Y-77176380D01*
X88702285Y-77224000D01*
X88797523Y-77319238D01*
X88845142Y-77414476D01*
X88892761Y-77604952D01*
X88892761Y-77747809D01*
X88845142Y-77938285D01*
X88797523Y-78033523D01*
X88702285Y-78128761D01*
X88559428Y-78176380D01*
X88321333Y-78176380D01*
X89321333Y-78176380D02*
X89321333Y-77176380D01*
X89797523Y-78176380D02*
X89797523Y-77176380D01*
X90368952Y-78176380D01*
X90368952Y-77176380D01*
X91368952Y-77224000D02*
X91273714Y-77176380D01*
X91130857Y-77176380D01*
X90988000Y-77224000D01*
X90892761Y-77319238D01*
X90845142Y-77414476D01*
X90797523Y-77604952D01*
X90797523Y-77747809D01*
X90845142Y-77938285D01*
X90892761Y-78033523D01*
X90988000Y-78128761D01*
X91130857Y-78176380D01*
X91226095Y-78176380D01*
X91368952Y-78128761D01*
X91416571Y-78081142D01*
X91416571Y-77747809D01*
X91226095Y-77747809D01*
X91845142Y-78176380D02*
X91845142Y-77176380D01*
X92083238Y-77176380D01*
X92226095Y-77224000D01*
X92321333Y-77319238D01*
X92368952Y-77414476D01*
X92416571Y-77604952D01*
X92416571Y-77747809D01*
X92368952Y-77938285D01*
X92321333Y-78033523D01*
X92226095Y-78128761D01*
X92083238Y-78176380D01*
X91845142Y-78176380D01*
X93035619Y-77176380D02*
X93226095Y-77176380D01*
X93321333Y-77224000D01*
X93416571Y-77319238D01*
X93464190Y-77509714D01*
X93464190Y-77843047D01*
X93416571Y-78033523D01*
X93321333Y-78128761D01*
X93226095Y-78176380D01*
X93035619Y-78176380D01*
X92940380Y-78128761D01*
X92845142Y-78033523D01*
X92797523Y-77843047D01*
X92797523Y-77509714D01*
X92845142Y-77319238D01*
X92940380Y-77224000D01*
X93035619Y-77176380D01*
X93892761Y-78176380D02*
X93892761Y-77176380D01*
X94464190Y-78176380D01*
X94464190Y-77176380D01*
X95464190Y-77224000D02*
X95368952Y-77176380D01*
X95226095Y-77176380D01*
X95083238Y-77224000D01*
X94987999Y-77319238D01*
X94940380Y-77414476D01*
X94892761Y-77604952D01*
X94892761Y-77747809D01*
X94940380Y-77938285D01*
X94987999Y-78033523D01*
X95083238Y-78128761D01*
X95226095Y-78176380D01*
X95321333Y-78176380D01*
X95464190Y-78128761D01*
X95511809Y-78081142D01*
X95511809Y-77747809D01*
X95321333Y-77747809D01*
X95940380Y-77795428D02*
X96702285Y-77795428D01*
X97178476Y-78176380D02*
X97178476Y-77176380D01*
X97559428Y-77176380D01*
X97654666Y-77224000D01*
X97702285Y-77271619D01*
X97749904Y-77366857D01*
X97749904Y-77509714D01*
X97702285Y-77604952D01*
X97654666Y-77652571D01*
X97559428Y-77700190D01*
X97178476Y-77700190D01*
X98749904Y-78176380D02*
X98416571Y-77700190D01*
X98178476Y-78176380D02*
X98178476Y-77176380D01*
X98559428Y-77176380D01*
X98654666Y-77224000D01*
X98702285Y-77271619D01*
X98749904Y-77366857D01*
X98749904Y-77509714D01*
X98702285Y-77604952D01*
X98654666Y-77652571D01*
X98559428Y-77700190D01*
X98178476Y-77700190D01*
X99368952Y-77176380D02*
X99559428Y-77176380D01*
X99654666Y-77224000D01*
X99749904Y-77319238D01*
X99797523Y-77509714D01*
X99797523Y-77843047D01*
X99749904Y-78033523D01*
X99654666Y-78128761D01*
X99559428Y-78176380D01*
X99368952Y-78176380D01*
X99273714Y-78128761D01*
X99178476Y-78033523D01*
X99130857Y-77843047D01*
X99130857Y-77509714D01*
X99178476Y-77319238D01*
X99273714Y-77224000D01*
X99368952Y-77176380D01*
X100749904Y-77224000D02*
X100654666Y-77176380D01*
X100511809Y-77176380D01*
X100368952Y-77224000D01*
X100273714Y-77319238D01*
X100226095Y-77414476D01*
X100178476Y-77604952D01*
X100178476Y-77747809D01*
X100226095Y-77938285D01*
X100273714Y-78033523D01*
X100368952Y-78128761D01*
X100511809Y-78176380D01*
X100607047Y-78176380D01*
X100749904Y-78128761D01*
X100797523Y-78081142D01*
X100797523Y-77747809D01*
X100607047Y-77747809D01*
X101892761Y-77509714D02*
X102130857Y-78176380D01*
X102368952Y-77509714D01*
X103273714Y-78176380D02*
X102702285Y-78176380D01*
X102988000Y-78176380D02*
X102988000Y-77176380D01*
X102892761Y-77319238D01*
X102797523Y-77414476D01*
X102702285Y-77462095D01*
X103702285Y-78081142D02*
X103749904Y-78128761D01*
X103702285Y-78176380D01*
X103654666Y-78128761D01*
X103702285Y-78081142D01*
X103702285Y-78176380D01*
X104130857Y-77271619D02*
X104178476Y-77224000D01*
X104273714Y-77176380D01*
X104511809Y-77176380D01*
X104607047Y-77224000D01*
X104654666Y-77271619D01*
X104702285Y-77366857D01*
X104702285Y-77462095D01*
X104654666Y-77604952D01*
X104083238Y-78176380D01*
X104702285Y-78176380D01*
X87797523Y-79024476D02*
X87702285Y-78976857D01*
X87511809Y-78976857D01*
X87416571Y-79024476D01*
X87321333Y-79119714D01*
X87273714Y-79214952D01*
X87273714Y-79405428D01*
X87321333Y-79500666D01*
X87416571Y-79595904D01*
X87511809Y-79643523D01*
X87702285Y-79643523D01*
X87797523Y-79595904D01*
X87607047Y-78643523D02*
X87368952Y-78691142D01*
X87130857Y-78834000D01*
X86988000Y-79072095D01*
X86940380Y-79310190D01*
X86988000Y-79548285D01*
X87130857Y-79786380D01*
X87368952Y-79929238D01*
X87607047Y-79976857D01*
X87845142Y-79929238D01*
X88083238Y-79786380D01*
X88226095Y-79548285D01*
X88273714Y-79310190D01*
X88226095Y-79072095D01*
X88083238Y-78834000D01*
X87845142Y-78691142D01*
X87607047Y-78643523D01*
X88654666Y-78881619D02*
X88702285Y-78834000D01*
X88797523Y-78786380D01*
X89035619Y-78786380D01*
X89130857Y-78834000D01*
X89178476Y-78881619D01*
X89226095Y-78976857D01*
X89226095Y-79072095D01*
X89178476Y-79214952D01*
X88607047Y-79786380D01*
X89226095Y-79786380D01*
X89845142Y-78786380D02*
X89940380Y-78786380D01*
X90035619Y-78834000D01*
X90083238Y-78881619D01*
X90130857Y-78976857D01*
X90178476Y-79167333D01*
X90178476Y-79405428D01*
X90130857Y-79595904D01*
X90083238Y-79691142D01*
X90035619Y-79738761D01*
X89940380Y-79786380D01*
X89845142Y-79786380D01*
X89749904Y-79738761D01*
X89702285Y-79691142D01*
X89654666Y-79595904D01*
X89607047Y-79405428D01*
X89607047Y-79167333D01*
X89654666Y-78976857D01*
X89702285Y-78881619D01*
X89749904Y-78834000D01*
X89845142Y-78786380D01*
X90559428Y-78881619D02*
X90607047Y-78834000D01*
X90702285Y-78786380D01*
X90940380Y-78786380D01*
X91035619Y-78834000D01*
X91083238Y-78881619D01*
X91130857Y-78976857D01*
X91130857Y-79072095D01*
X91083238Y-79214952D01*
X90511809Y-79786380D01*
X91130857Y-79786380D01*
X91464190Y-78786380D02*
X92083238Y-78786380D01*
X91749904Y-79167333D01*
X91892761Y-79167333D01*
X91988000Y-79214952D01*
X92035619Y-79262571D01*
X92083238Y-79357809D01*
X92083238Y-79595904D01*
X92035619Y-79691142D01*
X91988000Y-79738761D01*
X91892761Y-79786380D01*
X91607047Y-79786380D01*
X91511809Y-79738761D01*
X91464190Y-79691142D01*
X95368952Y-79691142D02*
X95321333Y-79738761D01*
X95178476Y-79786380D01*
X95083238Y-79786380D01*
X94940380Y-79738761D01*
X94845142Y-79643523D01*
X94797523Y-79548285D01*
X94749904Y-79357809D01*
X94749904Y-79214952D01*
X94797523Y-79024476D01*
X94845142Y-78929238D01*
X94940380Y-78834000D01*
X95083238Y-78786380D01*
X95178476Y-78786380D01*
X95321333Y-78834000D01*
X95368952Y-78881619D01*
X96368952Y-79691142D02*
X96321333Y-79738761D01*
X96178476Y-79786380D01*
X96083238Y-79786380D01*
X95940380Y-79738761D01*
X95845142Y-79643523D01*
X95797523Y-79548285D01*
X95749904Y-79357809D01*
X95749904Y-79214952D01*
X95797523Y-79024476D01*
X95845142Y-78929238D01*
X95940380Y-78834000D01*
X96083238Y-78786380D01*
X96178476Y-78786380D01*
X96321333Y-78834000D01*
X96368952Y-78881619D01*
X97892761Y-79262571D02*
X98035619Y-79310190D01*
X98083238Y-79357809D01*
X98130857Y-79453047D01*
X98130857Y-79595904D01*
X98083238Y-79691142D01*
X98035619Y-79738761D01*
X97940380Y-79786380D01*
X97559428Y-79786380D01*
X97559428Y-78786380D01*
X97892761Y-78786380D01*
X97988000Y-78834000D01*
X98035619Y-78881619D01*
X98083238Y-78976857D01*
X98083238Y-79072095D01*
X98035619Y-79167333D01*
X97988000Y-79214952D01*
X97892761Y-79262571D01*
X97559428Y-79262571D01*
X98749904Y-79310190D02*
X98749904Y-79786380D01*
X98416571Y-78786380D02*
X98749904Y-79310190D01*
X99083238Y-78786380D01*
X99416571Y-79405428D02*
X100178476Y-79405428D01*
X100607047Y-79738761D02*
X100749904Y-79786380D01*
X100988000Y-79786380D01*
X101083238Y-79738761D01*
X101130857Y-79691142D01*
X101178476Y-79595904D01*
X101178476Y-79500666D01*
X101130857Y-79405428D01*
X101083238Y-79357809D01*
X100988000Y-79310190D01*
X100797523Y-79262571D01*
X100702285Y-79214952D01*
X100654666Y-79167333D01*
X100607047Y-79072095D01*
X100607047Y-78976857D01*
X100654666Y-78881619D01*
X100702285Y-78834000D01*
X100797523Y-78786380D01*
X101035619Y-78786380D01*
X101178476Y-78834000D01*
X101559428Y-79500666D02*
X102035619Y-79500666D01*
X101464190Y-79786380D02*
X101797523Y-78786380D01*
X102130857Y-79786380D01*
D11*
X68580000Y-115256571D02*
X68580000Y-115613714D01*
X68222857Y-115470857D02*
X68580000Y-115613714D01*
X68937142Y-115470857D01*
X68365714Y-115899428D02*
X68580000Y-115613714D01*
X68794285Y-115899428D01*
D12*
X84021022Y-90995500D02*
X84928165Y-90995500D01*
X83839594Y-91539785D02*
X84474594Y-89634785D01*
X85109594Y-91539785D01*
X85472451Y-89634785D02*
X86107451Y-91539785D01*
X86742451Y-89634785D01*
X88466022Y-91539785D02*
X87831022Y-90632642D01*
X87377451Y-91539785D02*
X87377451Y-89634785D01*
X88103165Y-89634785D01*
X88284594Y-89725500D01*
X88375308Y-89816214D01*
X88466022Y-89997642D01*
X88466022Y-90269785D01*
X88375308Y-90451214D01*
X88284594Y-90541928D01*
X88103165Y-90632642D01*
X87377451Y-90632642D01*
D10*
X86027380Y-114638333D02*
X86741666Y-114638333D01*
X86884523Y-114685952D01*
X86979761Y-114781190D01*
X87027380Y-114924047D01*
X87027380Y-115019285D01*
X87027380Y-113638333D02*
X87027380Y-114209761D01*
X87027380Y-113924047D02*
X86027380Y-113924047D01*
X86170238Y-114019285D01*
X86265476Y-114114523D01*
X86313095Y-114209761D01*
X134286666Y-86022380D02*
X134286666Y-86736666D01*
X134239047Y-86879523D01*
X134143809Y-86974761D01*
X134000952Y-87022380D01*
X133905714Y-87022380D01*
X135191428Y-86355714D02*
X135191428Y-87022380D01*
X134953333Y-85974761D02*
X134715238Y-86689047D01*
X135334285Y-86689047D01*
X113966666Y-86022380D02*
X113966666Y-86736666D01*
X113919047Y-86879523D01*
X113823809Y-86974761D01*
X113680952Y-87022380D01*
X113585714Y-87022380D01*
X114347619Y-86022380D02*
X114966666Y-86022380D01*
X114633333Y-86403333D01*
X114776190Y-86403333D01*
X114871428Y-86450952D01*
X114919047Y-86498571D01*
X114966666Y-86593809D01*
X114966666Y-86831904D01*
X114919047Y-86927142D01*
X114871428Y-86974761D01*
X114776190Y-87022380D01*
X114490476Y-87022380D01*
X114395238Y-86974761D01*
X114347619Y-86927142D01*
X93154666Y-85755761D02*
X93297523Y-85803380D01*
X93535619Y-85803380D01*
X93630857Y-85755761D01*
X93678476Y-85708142D01*
X93726095Y-85612904D01*
X93726095Y-85517666D01*
X93678476Y-85422428D01*
X93630857Y-85374809D01*
X93535619Y-85327190D01*
X93345142Y-85279571D01*
X93249904Y-85231952D01*
X93202285Y-85184333D01*
X93154666Y-85089095D01*
X93154666Y-84993857D01*
X93202285Y-84898619D01*
X93249904Y-84851000D01*
X93345142Y-84803380D01*
X93583238Y-84803380D01*
X93726095Y-84851000D01*
X94059428Y-84803380D02*
X94297523Y-85803380D01*
X94488000Y-85089095D01*
X94678476Y-85803380D01*
X94916571Y-84803380D01*
X95821333Y-85803380D02*
X95249904Y-85803380D01*
X95535619Y-85803380D02*
X95535619Y-84803380D01*
X95440380Y-84946238D01*
X95345142Y-85041476D01*
X95249904Y-85089095D01*
D13*
X87575000Y-114305000D02*
X87575000Y-111705000D01*
X90175000Y-116905000D02*
X100395000Y-116905000D01*
X90175000Y-114305000D02*
X87575000Y-114305000D01*
X87575000Y-116905000D02*
X87575000Y-115575000D01*
X90175000Y-116905000D02*
X90175000Y-114305000D01*
X88905000Y-116905000D02*
X87575000Y-116905000D01*
X100395000Y-116905000D02*
X100395000Y-111705000D01*
X87575000Y-111705000D02*
X100395000Y-111705000D01*
X135950000Y-90170000D02*
X135950000Y-115630000D01*
X133290000Y-115630000D02*
X135950000Y-115630000D01*
X133290000Y-88900000D02*
X133290000Y-87570000D01*
X133290000Y-90170000D02*
X133290000Y-115630000D01*
X133290000Y-87570000D02*
X134620000Y-87570000D01*
X133290000Y-90170000D02*
X135950000Y-90170000D01*
X112970000Y-88900000D02*
X112970000Y-87570000D01*
X112970000Y-90170000D02*
X112970000Y-115630000D01*
X112970000Y-115630000D02*
X115630000Y-115630000D01*
X112970000Y-87570000D02*
X114300000Y-87570000D01*
X115630000Y-90170000D02*
X115630000Y-115630000D01*
X112970000Y-90170000D02*
X115630000Y-90170000D01*
D14*
X89863000Y-92101000D02*
X90213000Y-92476000D01*
X99113000Y-92101000D02*
X99113000Y-92476000D01*
X89863000Y-88626000D02*
X89863000Y-89026000D01*
X98713000Y-88626000D02*
X99113000Y-88626000D01*
X91313000Y-92476000D02*
X91313000Y-93526000D01*
X90338000Y-88626000D02*
X89863000Y-88626000D01*
X99113000Y-88626000D02*
X99113000Y-89001000D01*
X90213000Y-92476000D02*
X91313000Y-92476000D01*
X99113000Y-92476000D02*
X98763000Y-92476000D01*
M02*
