G04 start of page 7 for group -4063 idx -4063 *
G04 Title: (unknown), componentmask *
G04 Creator: pcb 20140316 *
G04 CreationDate: Thu 20 Aug 2020 03:04:10 AM GMT UTC *
G04 For: railfan *
G04 Format: Gerber/RS-274X *
G04 PCB-Dimensions (mil): 5600.00 1200.00 *
G04 PCB-Coordinate-Origin: lower left *
%MOIN*%
%FSLAX25Y25*%
%LNTOPMASK*%
%ADD51R,0.0304X0.0304*%
%ADD50C,0.0370*%
%ADD49R,0.0529X0.0529*%
%ADD48R,0.0300X0.0300*%
%ADD47R,0.0572X0.0572*%
%ADD46C,0.0001*%
%ADD45R,0.1005X0.1005*%
%ADD44R,0.0438X0.0438*%
%ADD43R,0.0690X0.0690*%
%ADD42R,0.0532X0.0532*%
%ADD41R,0.0296X0.0296*%
%ADD40C,0.0490*%
G54D40*X211000Y34500D03*
X215000Y14500D03*
X207000D03*
X321000Y34500D03*
X317000Y14500D03*
X101000Y34500D03*
X105000Y14500D03*
X97000D03*
X325000D03*
X431000Y34500D03*
X541000D03*
X435000Y14500D03*
X545000D03*
X537000D03*
X427000D03*
G54D41*X137630Y65874D02*X141370D01*
X137630Y61937D02*X141370D01*
X137630Y58000D02*X141370D01*
X137630Y54063D02*X141370D01*
G54D42*X123063Y70992D02*X125425D01*
X123063Y48945D02*X125425D01*
G54D43*X159500Y53307D02*Y47008D01*
G54D44*X136594Y31110D02*Y27016D01*
X142500Y38826D02*Y27016D01*
G54D45*Y42450D02*Y40560D01*
G54D46*G36*
X139195Y37679D02*X142459Y34415D01*
X140615Y32571D01*
X137351Y35835D01*
X139195Y37679D01*
G37*
G36*
X142541Y34415D02*X145805Y37679D01*
X147649Y35835D01*
X144385Y32571D01*
X142541Y34415D01*
G37*
G54D44*X148406Y31110D02*Y27016D01*
G54D47*X135957Y17893D02*Y17107D01*
X143043Y17893D02*Y17107D01*
X157107Y24043D02*X157893D01*
X157107Y16957D02*X157893D01*
X170457Y39893D02*Y39107D01*
G54D48*X166000Y31000D02*X172500D01*
X166000Y26000D02*X172500D01*
X166000Y21000D02*X172500D01*
X166000Y16000D02*X172500D01*
G54D47*X177543Y39893D02*Y39107D01*
G54D49*X181748Y53500D02*X190055D01*
G54D47*X187957Y39893D02*Y39107D01*
X195043Y39893D02*Y39107D01*
G54D48*X192500Y16000D02*X199000D01*
X192500Y21000D02*X199000D01*
X192500Y26000D02*X199000D01*
X192500Y31000D02*X199000D01*
G54D50*X208500Y29500D03*
G54D49*X206945Y63500D02*X215252D01*
G54D50*X213500Y29500D03*
Y24500D03*
Y19500D03*
X208500Y24500D03*
Y19500D03*
G54D47*X177107Y92543D02*X177893D01*
X186107D02*X186893D01*
X177107Y85457D02*X177893D01*
X168107D02*X168893D01*
X168107Y92543D02*X168893D01*
X186107Y85457D02*X186893D01*
G54D49*X181748Y73500D02*X190055D01*
G54D43*X159500Y72992D02*Y66693D01*
G54D51*X150520Y83827D02*Y81465D01*
X154260Y83827D02*Y81465D01*
X158000Y83827D02*Y81465D01*
Y94181D02*Y91819D01*
X154260Y94181D02*Y91819D01*
X150520Y94181D02*Y91819D01*
G54D47*X132107Y89043D02*X132893D01*
X132107Y81957D02*X132893D01*
X60457Y39893D02*Y39107D01*
G54D48*X56000Y31000D02*X62500D01*
X56000Y26000D02*X62500D01*
X56000Y21000D02*X62500D01*
X56000Y16000D02*X62500D01*
G54D47*X67543Y39893D02*Y39107D01*
G54D49*X71748Y53500D02*X80055D01*
G54D47*X77957Y39893D02*Y39107D01*
X85043Y39893D02*Y39107D01*
G54D48*X82500Y16000D02*X89000D01*
X82500Y21000D02*X89000D01*
X82500Y26000D02*X89000D01*
X82500Y31000D02*X89000D01*
G54D50*X98500Y29500D03*
G54D49*X96945Y63500D02*X105252D01*
G54D50*X103500Y29500D03*
Y24500D03*
Y19500D03*
X98500Y24500D03*
Y19500D03*
G54D41*X27630Y65874D02*X31370D01*
X27630Y61937D02*X31370D01*
X27630Y58000D02*X31370D01*
X27630Y54063D02*X31370D01*
G54D42*X13063Y70992D02*X15425D01*
X13063Y48945D02*X15425D01*
G54D43*X49500Y53307D02*Y47008D01*
G54D44*X26594Y31110D02*Y27016D01*
X32500Y38826D02*Y27016D01*
G54D45*Y42450D02*Y40560D01*
G54D46*G36*
X29195Y37679D02*X32459Y34415D01*
X30615Y32571D01*
X27351Y35835D01*
X29195Y37679D01*
G37*
G36*
X32541Y34415D02*X35805Y37679D01*
X37649Y35835D01*
X34385Y32571D01*
X32541Y34415D01*
G37*
G54D44*X38406Y31110D02*Y27016D01*
G54D47*X25957Y17893D02*Y17107D01*
X33043Y17893D02*Y17107D01*
X47107Y24043D02*X47893D01*
X47107Y16957D02*X47893D01*
X67107Y92543D02*X67893D01*
X76107D02*X76893D01*
X67107Y85457D02*X67893D01*
X58107D02*X58893D01*
X58107Y92543D02*X58893D01*
X76107Y85457D02*X76893D01*
G54D49*X71748Y73500D02*X80055D01*
G54D43*X49500Y72992D02*Y66693D01*
G54D51*X40520Y83827D02*Y81465D01*
X44260Y83827D02*Y81465D01*
X48000Y83827D02*Y81465D01*
Y94181D02*Y91819D01*
X44260Y94181D02*Y91819D01*
X40520Y94181D02*Y91819D01*
G54D47*X22107Y89043D02*X22893D01*
X22107Y81957D02*X22893D01*
G54D41*X247630Y65874D02*X251370D01*
X247630Y61937D02*X251370D01*
X247630Y58000D02*X251370D01*
X247630Y54063D02*X251370D01*
G54D42*X233063Y70992D02*X235425D01*
X233063Y48945D02*X235425D01*
G54D43*X269500Y53307D02*Y47008D01*
G54D44*X246594Y31110D02*Y27016D01*
X252500Y38826D02*Y27016D01*
G54D45*Y42450D02*Y40560D01*
G54D46*G36*
X249195Y37679D02*X252459Y34415D01*
X250615Y32571D01*
X247351Y35835D01*
X249195Y37679D01*
G37*
G36*
X252541Y34415D02*X255805Y37679D01*
X257649Y35835D01*
X254385Y32571D01*
X252541Y34415D01*
G37*
G54D44*X258406Y31110D02*Y27016D01*
G54D47*X245957Y17893D02*Y17107D01*
X253043Y17893D02*Y17107D01*
X267107Y24043D02*X267893D01*
X267107Y16957D02*X267893D01*
X280457Y39893D02*Y39107D01*
G54D48*X276000Y31000D02*X282500D01*
X276000Y26000D02*X282500D01*
X276000Y21000D02*X282500D01*
X276000Y16000D02*X282500D01*
G54D47*X287543Y39893D02*Y39107D01*
G54D49*X291748Y53500D02*X300055D01*
G54D47*X297957Y39893D02*Y39107D01*
X305043Y39893D02*Y39107D01*
G54D48*X302500Y16000D02*X309000D01*
X302500Y21000D02*X309000D01*
X302500Y26000D02*X309000D01*
X302500Y31000D02*X309000D01*
G54D50*X318500Y29500D03*
G54D49*X316945Y63500D02*X325252D01*
G54D50*X323500Y29500D03*
Y24500D03*
Y19500D03*
X318500Y24500D03*
Y19500D03*
G54D47*X287107Y92543D02*X287893D01*
X296107D02*X296893D01*
X287107Y85457D02*X287893D01*
X278107D02*X278893D01*
X278107Y92543D02*X278893D01*
X296107Y85457D02*X296893D01*
G54D49*X291748Y73500D02*X300055D01*
G54D43*X269500Y72992D02*Y66693D01*
G54D51*X260520Y83827D02*Y81465D01*
X264260Y83827D02*Y81465D01*
X268000Y83827D02*Y81465D01*
Y94181D02*Y91819D01*
X264260Y94181D02*Y91819D01*
X260520Y94181D02*Y91819D01*
G54D47*X242107Y89043D02*X242893D01*
X242107Y81957D02*X242893D01*
G54D41*X357630Y65874D02*X361370D01*
X357630Y61937D02*X361370D01*
X357630Y58000D02*X361370D01*
X357630Y54063D02*X361370D01*
G54D42*X343063Y70992D02*X345425D01*
X343063Y48945D02*X345425D01*
G54D43*X379500Y53307D02*Y47008D01*
G54D44*X356594Y31110D02*Y27016D01*
X362500Y38826D02*Y27016D01*
G54D45*Y42450D02*Y40560D01*
G54D46*G36*
X359195Y37679D02*X362459Y34415D01*
X360615Y32571D01*
X357351Y35835D01*
X359195Y37679D01*
G37*
G36*
X362541Y34415D02*X365805Y37679D01*
X367649Y35835D01*
X364385Y32571D01*
X362541Y34415D01*
G37*
G54D44*X368406Y31110D02*Y27016D01*
G54D47*X355957Y17893D02*Y17107D01*
X363043Y17893D02*Y17107D01*
X377107Y24043D02*X377893D01*
X377107Y16957D02*X377893D01*
X390457Y39893D02*Y39107D01*
G54D48*X386000Y31000D02*X392500D01*
X386000Y26000D02*X392500D01*
X386000Y21000D02*X392500D01*
X386000Y16000D02*X392500D01*
G54D47*X397543Y39893D02*Y39107D01*
G54D49*X401748Y53500D02*X410055D01*
G54D47*X407957Y39893D02*Y39107D01*
X415043Y39893D02*Y39107D01*
G54D48*X412500Y16000D02*X419000D01*
X412500Y21000D02*X419000D01*
X412500Y26000D02*X419000D01*
X412500Y31000D02*X419000D01*
G54D50*X428500Y29500D03*
G54D49*X426945Y63500D02*X435252D01*
G54D50*X433500Y29500D03*
Y24500D03*
Y19500D03*
X428500Y24500D03*
Y19500D03*
G54D47*X397107Y92543D02*X397893D01*
X406107D02*X406893D01*
X397107Y85457D02*X397893D01*
X388107D02*X388893D01*
X388107Y92543D02*X388893D01*
X406107Y85457D02*X406893D01*
G54D49*X401748Y73500D02*X410055D01*
G54D43*X379500Y72992D02*Y66693D01*
G54D51*X370520Y83827D02*Y81465D01*
X374260Y83827D02*Y81465D01*
X378000Y83827D02*Y81465D01*
Y94181D02*Y91819D01*
X374260Y94181D02*Y91819D01*
X370520Y94181D02*Y91819D01*
G54D47*X352107Y89043D02*X352893D01*
X352107Y81957D02*X352893D01*
G54D41*X467630Y65874D02*X471370D01*
X467630Y61937D02*X471370D01*
X467630Y58000D02*X471370D01*
X467630Y54063D02*X471370D01*
G54D42*X453063Y70992D02*X455425D01*
X453063Y48945D02*X455425D01*
G54D43*X489500Y53307D02*Y47008D01*
G54D44*X466594Y31110D02*Y27016D01*
X472500Y38826D02*Y27016D01*
G54D45*Y42450D02*Y40560D01*
G54D46*G36*
X469195Y37679D02*X472459Y34415D01*
X470615Y32571D01*
X467351Y35835D01*
X469195Y37679D01*
G37*
G36*
X472541Y34415D02*X475805Y37679D01*
X477649Y35835D01*
X474385Y32571D01*
X472541Y34415D01*
G37*
G54D44*X478406Y31110D02*Y27016D01*
G54D47*X465957Y17893D02*Y17107D01*
X473043Y17893D02*Y17107D01*
X487107Y24043D02*X487893D01*
X487107Y16957D02*X487893D01*
X500457Y39893D02*Y39107D01*
G54D48*X496000Y31000D02*X502500D01*
X496000Y26000D02*X502500D01*
X496000Y21000D02*X502500D01*
X496000Y16000D02*X502500D01*
G54D47*X507543Y39893D02*Y39107D01*
G54D49*X511748Y53500D02*X520055D01*
G54D47*X517957Y39893D02*Y39107D01*
X525043Y39893D02*Y39107D01*
G54D48*X522500Y16000D02*X529000D01*
X522500Y21000D02*X529000D01*
X522500Y26000D02*X529000D01*
X522500Y31000D02*X529000D01*
G54D50*X538500Y29500D03*
G54D49*X536945Y63500D02*X545252D01*
G54D50*X543500Y29500D03*
Y24500D03*
Y19500D03*
X538500Y24500D03*
Y19500D03*
G54D47*X507107Y92543D02*X507893D01*
X516107D02*X516893D01*
X507107Y85457D02*X507893D01*
X498107D02*X498893D01*
X498107Y92543D02*X498893D01*
X516107Y85457D02*X516893D01*
G54D49*X511748Y73500D02*X520055D01*
G54D43*X489500Y72992D02*Y66693D01*
G54D51*X480520Y83827D02*Y81465D01*
X484260Y83827D02*Y81465D01*
X488000Y83827D02*Y81465D01*
Y94181D02*Y91819D01*
X484260Y94181D02*Y91819D01*
X480520Y94181D02*Y91819D01*
G54D47*X462107Y89043D02*X462893D01*
X462107Y81957D02*X462893D01*
M02*
