G04 start of page 8 for group -4062 idx -4062 *
G04 Title: (unknown), soldermask *
G04 Creator: pcb 20140316 *
G04 CreationDate: Thu 20 Aug 2020 03:04:10 AM GMT UTC *
G04 For: railfan *
G04 Format: Gerber/RS-274X *
G04 PCB-Dimensions (mil): 5600.00 1200.00 *
G04 PCB-Coordinate-Origin: lower left *
%MOIN*%
%FSLAX25Y25*%
%LNBOTTOMMASK*%
%ADD53C,0.0001*%
%ADD52C,0.0490*%
G54D52*X211000Y34500D03*
X215000Y14500D03*
X207000D03*
X321000Y34500D03*
X317000Y14500D03*
X101000Y34500D03*
X105000Y14500D03*
X97000D03*
X325000D03*
X431000Y34500D03*
X541000D03*
X435000Y14500D03*
X545000D03*
X537000D03*
X427000D03*
G54D53*G36*
X195290Y95891D02*Y85448D01*
X205733D01*
Y95891D01*
X195290D01*
G37*
G36*
X134267D02*Y85448D01*
X144710D01*
Y95891D01*
X134267D01*
G37*
G36*
X85290D02*Y85448D01*
X95733D01*
Y95891D01*
X85290D01*
G37*
G36*
X24267D02*Y85448D01*
X34710D01*
Y95891D01*
X24267D01*
G37*
G36*
X305290D02*Y85448D01*
X315733D01*
Y95891D01*
X305290D01*
G37*
G36*
X244267D02*Y85448D01*
X254710D01*
Y95891D01*
X244267D01*
G37*
G36*
X415290D02*Y85448D01*
X425733D01*
Y95891D01*
X415290D01*
G37*
G36*
X354267D02*Y85448D01*
X364710D01*
Y95891D01*
X354267D01*
G37*
G36*
X525290D02*Y85448D01*
X535733D01*
Y95891D01*
X525290D01*
G37*
G36*
X464267D02*Y85448D01*
X474710D01*
Y95891D01*
X464267D01*
G37*
M02*
