G04 start of page 3 for group 1 idx 1 *
G04 Title: (unknown), bottom *
G04 Creator: pcb 20140316 *
G04 CreationDate: Thu 20 Aug 2020 03:04:10 AM GMT UTC *
G04 For: railfan *
G04 Format: Gerber/RS-274X *
G04 PCB-Dimensions (mil): 5600.00 1200.00 *
G04 PCB-Coordinate-Origin: lower left *
%MOIN*%
%FSLAX25Y25*%
%LNBOTTOM*%
%ADD35C,0.0390*%
%ADD34C,0.0310*%
%ADD33C,0.0120*%
%ADD32C,0.0240*%
%ADD31C,0.0250*%
%ADD30C,0.0100*%
%ADD29C,0.0001*%
G54D29*G36*
X122000Y19500D02*X204169D01*
X204078Y19422D01*
X204045Y19383D01*
X202155Y17494D01*
X202000Y17506D01*
X201686Y17481D01*
X201380Y17408D01*
X201089Y17288D01*
X200821Y17123D01*
X200581Y16919D01*
X200377Y16679D01*
X200212Y16411D01*
X200092Y16120D01*
X200019Y15814D01*
X199994Y15500D01*
X200000Y15422D01*
Y12000D01*
X122000D01*
Y19500D01*
G37*
G36*
X232000D02*X314169D01*
X314078Y19422D01*
X314045Y19383D01*
X312155Y17494D01*
X312000Y17506D01*
X311686Y17481D01*
X311380Y17408D01*
X311089Y17288D01*
X310821Y17123D01*
X310581Y16919D01*
X310377Y16679D01*
X310212Y16411D01*
X310092Y16120D01*
X310019Y15814D01*
X309994Y15500D01*
X310000Y15422D01*
Y12000D01*
X232000D01*
Y19500D01*
G37*
G36*
X452000D02*X534169D01*
X534078Y19422D01*
X534045Y19383D01*
X532155Y17494D01*
X532000Y17506D01*
X531686Y17481D01*
X531380Y17408D01*
X531089Y17288D01*
X530821Y17123D01*
X530581Y16919D01*
X530377Y16679D01*
X530212Y16411D01*
X530092Y16120D01*
X530019Y15814D01*
X529994Y15500D01*
X530000Y15422D01*
Y12000D01*
X452000D01*
Y19500D01*
G37*
G36*
X310512Y108000D02*X328000D01*
Y34500D01*
X323950D01*
X323923Y34963D01*
X323814Y35414D01*
X323637Y35843D01*
X323394Y36239D01*
X323092Y36592D01*
X322739Y36894D01*
X322343Y37137D01*
X321914Y37314D01*
X321463Y37423D01*
X321000Y37459D01*
X320537Y37423D01*
X320086Y37314D01*
X319657Y37137D01*
X319261Y36894D01*
X318908Y36592D01*
X318606Y36239D01*
X318363Y35843D01*
X318186Y35414D01*
X318077Y34963D01*
X318041Y34500D01*
X310512D01*
Y84752D01*
X315590Y84757D01*
X315743Y84794D01*
X315889Y84854D01*
X316023Y84936D01*
X316143Y85039D01*
X316245Y85158D01*
X316327Y85292D01*
X316387Y85438D01*
X316424Y85591D01*
X316433Y85748D01*
X316424Y95748D01*
X316387Y95901D01*
X316327Y96046D01*
X316245Y96180D01*
X316143Y96300D01*
X316023Y96402D01*
X315889Y96485D01*
X315743Y96545D01*
X315590Y96582D01*
X315433Y96591D01*
X313842Y96589D01*
X313956Y96865D01*
X314031Y97178D01*
X314056Y97500D01*
X314031Y97822D01*
X313956Y98135D01*
X313832Y98434D01*
X313664Y98709D01*
X313454Y98954D01*
X313209Y99164D01*
X312934Y99332D01*
X312635Y99456D01*
X312322Y99531D01*
X312000Y99550D01*
X310580D01*
X310512Y99555D01*
Y108000D01*
G37*
G36*
X271997D02*X310512D01*
Y99555D01*
X310500Y99556D01*
X310420Y99550D01*
X309000D01*
X308678Y99531D01*
X308365Y99456D01*
X308066Y99332D01*
X307791Y99164D01*
X307546Y98954D01*
X307336Y98709D01*
X307168Y98434D01*
X307044Y98135D01*
X306969Y97822D01*
X306944Y97500D01*
X306969Y97178D01*
X307044Y96865D01*
X307161Y96583D01*
X305433Y96582D01*
X305280Y96545D01*
X305135Y96485D01*
X305001Y96402D01*
X304881Y96300D01*
X304779Y96180D01*
X304697Y96046D01*
X304636Y95901D01*
X304600Y95748D01*
X304590Y95591D01*
X304600Y85591D01*
X304636Y85438D01*
X304697Y85292D01*
X304779Y85158D01*
X304881Y85039D01*
X305001Y84936D01*
X305135Y84854D01*
X305280Y84794D01*
X305433Y84757D01*
X305590Y84748D01*
X310512Y84752D01*
Y34500D01*
X293500D01*
Y20500D01*
X271997D01*
Y79494D01*
X272000Y79494D01*
X272314Y79519D01*
X272620Y79592D01*
X272911Y79712D01*
X273179Y79877D01*
X273419Y80081D01*
X273623Y80321D01*
X273788Y80589D01*
X273908Y80880D01*
X273981Y81186D01*
X274000Y81500D01*
X273981Y81814D01*
X273908Y82120D01*
X273788Y82411D01*
X273623Y82679D01*
X273419Y82919D01*
X273300Y83020D01*
Y85980D01*
X273419Y86081D01*
X273623Y86321D01*
X273788Y86589D01*
X273908Y86880D01*
X273981Y87186D01*
X274000Y87500D01*
X273981Y87814D01*
X273908Y88120D01*
X273788Y88411D01*
X273623Y88679D01*
X273419Y88919D01*
X273179Y89123D01*
X272911Y89288D01*
X272620Y89408D01*
X272314Y89481D01*
X272000Y89506D01*
X271997Y89506D01*
Y108000D01*
G37*
G36*
X244000D02*X271997D01*
Y89506D01*
X271686Y89481D01*
X271380Y89408D01*
X271089Y89288D01*
X270821Y89123D01*
X270581Y88919D01*
X270377Y88679D01*
X270212Y88411D01*
X270092Y88120D01*
X270019Y87814D01*
X269994Y87500D01*
X270019Y87186D01*
X270092Y86880D01*
X270212Y86589D01*
X270377Y86321D01*
X270581Y86081D01*
X270700Y85980D01*
Y83020D01*
X270581Y82919D01*
X270377Y82679D01*
X270212Y82411D01*
X270092Y82120D01*
X270019Y81814D01*
X269994Y81500D01*
X270019Y81186D01*
X270092Y80880D01*
X270212Y80589D01*
X270377Y80321D01*
X270581Y80081D01*
X270821Y79877D01*
X271089Y79712D01*
X271380Y79592D01*
X271686Y79519D01*
X271997Y79494D01*
Y20500D01*
X244000D01*
Y84922D01*
X244111Y84854D01*
X244257Y84794D01*
X244410Y84757D01*
X244567Y84748D01*
X246091Y84749D01*
X246044Y84635D01*
X245969Y84322D01*
X245944Y84000D01*
X245969Y83678D01*
X246044Y83365D01*
X246168Y83066D01*
X246336Y82791D01*
X246546Y82546D01*
X246791Y82336D01*
X247066Y82168D01*
X247365Y82044D01*
X247678Y81969D01*
X248000Y81950D01*
X249420D01*
X249500Y81944D01*
X249580Y81950D01*
X251000D01*
X251322Y81969D01*
X251635Y82044D01*
X251934Y82168D01*
X252209Y82336D01*
X252454Y82546D01*
X252664Y82791D01*
X252832Y83066D01*
X252956Y83365D01*
X253031Y83678D01*
X253056Y84000D01*
X253031Y84322D01*
X252956Y84635D01*
X252906Y84756D01*
X254567Y84757D01*
X254720Y84794D01*
X254865Y84854D01*
X254999Y84936D01*
X255119Y85039D01*
X255221Y85158D01*
X255303Y85292D01*
X255364Y85438D01*
X255400Y85591D01*
X255410Y85748D01*
X255400Y95748D01*
X255364Y95901D01*
X255303Y96046D01*
X255221Y96180D01*
X255119Y96300D01*
X254999Y96402D01*
X254865Y96485D01*
X254720Y96545D01*
X254567Y96582D01*
X254410Y96591D01*
X244410Y96582D01*
X244257Y96545D01*
X244111Y96485D01*
X244000Y96416D01*
Y108000D01*
G37*
G36*
X328000Y33000D02*Y24500D01*
X321578D01*
X321500Y24506D01*
X321422Y24500D01*
X295000D01*
Y33000D01*
X318459D01*
X318606Y32761D01*
X318908Y32408D01*
X319261Y32106D01*
X319657Y31863D01*
X320086Y31686D01*
X320537Y31577D01*
X321000Y31541D01*
X321463Y31577D01*
X321914Y31686D01*
X322343Y31863D01*
X322739Y32106D01*
X323092Y32408D01*
X323394Y32761D01*
X323541Y33000D01*
X328000D01*
G37*
G36*
X321500Y25500D02*Y24506D01*
X321186Y24481D01*
X320880Y24408D01*
X320589Y24288D01*
X320321Y24123D01*
X320081Y23919D01*
X319877Y23679D01*
X319712Y23411D01*
X319592Y23120D01*
X319519Y22814D01*
X319494Y22500D01*
X319519Y22186D01*
X319592Y21880D01*
X319712Y21589D01*
X319877Y21321D01*
X320081Y21081D01*
X320200Y20980D01*
Y20538D01*
X319462Y19800D01*
X315051D01*
X315000Y19804D01*
X314796Y19788D01*
X314597Y19740D01*
X314408Y19662D01*
X314234Y19555D01*
X314233Y19555D01*
X314078Y19422D01*
X314045Y19383D01*
X312162Y17500D01*
X312078D01*
X312000Y17506D01*
X311922Y17500D01*
X295000D01*
Y25500D01*
X321500D01*
G37*
G36*
X232000Y12000D02*Y97500D01*
X242500D01*
Y12000D01*
X232000D01*
G37*
G36*
X420512Y108000D02*X438000D01*
Y34500D01*
X433950D01*
X433923Y34963D01*
X433814Y35414D01*
X433637Y35843D01*
X433394Y36239D01*
X433092Y36592D01*
X432739Y36894D01*
X432343Y37137D01*
X431914Y37314D01*
X431463Y37423D01*
X431000Y37459D01*
X430537Y37423D01*
X430086Y37314D01*
X429657Y37137D01*
X429261Y36894D01*
X428908Y36592D01*
X428606Y36239D01*
X428363Y35843D01*
X428186Y35414D01*
X428077Y34963D01*
X428041Y34500D01*
X420512D01*
Y84752D01*
X425590Y84757D01*
X425743Y84794D01*
X425889Y84854D01*
X426023Y84936D01*
X426143Y85039D01*
X426245Y85158D01*
X426327Y85292D01*
X426387Y85438D01*
X426424Y85591D01*
X426433Y85748D01*
X426424Y95748D01*
X426387Y95901D01*
X426327Y96046D01*
X426245Y96180D01*
X426143Y96300D01*
X426023Y96402D01*
X425889Y96485D01*
X425743Y96545D01*
X425590Y96582D01*
X425433Y96591D01*
X423842Y96589D01*
X423956Y96865D01*
X424031Y97178D01*
X424056Y97500D01*
X424031Y97822D01*
X423956Y98135D01*
X423832Y98434D01*
X423664Y98709D01*
X423454Y98954D01*
X423209Y99164D01*
X422934Y99332D01*
X422635Y99456D01*
X422322Y99531D01*
X422000Y99550D01*
X420580D01*
X420512Y99555D01*
Y108000D01*
G37*
G36*
X381997D02*X420512D01*
Y99555D01*
X420500Y99556D01*
X420420Y99550D01*
X419000D01*
X418678Y99531D01*
X418365Y99456D01*
X418066Y99332D01*
X417791Y99164D01*
X417546Y98954D01*
X417336Y98709D01*
X417168Y98434D01*
X417044Y98135D01*
X416969Y97822D01*
X416944Y97500D01*
X416969Y97178D01*
X417044Y96865D01*
X417161Y96583D01*
X415433Y96582D01*
X415280Y96545D01*
X415135Y96485D01*
X415001Y96402D01*
X414881Y96300D01*
X414779Y96180D01*
X414697Y96046D01*
X414636Y95901D01*
X414600Y95748D01*
X414590Y95591D01*
X414600Y85591D01*
X414636Y85438D01*
X414697Y85292D01*
X414779Y85158D01*
X414881Y85039D01*
X415001Y84936D01*
X415135Y84854D01*
X415280Y84794D01*
X415433Y84757D01*
X415590Y84748D01*
X420512Y84752D01*
Y34500D01*
X403500D01*
Y20500D01*
X381997D01*
Y79494D01*
X382000Y79494D01*
X382314Y79519D01*
X382620Y79592D01*
X382911Y79712D01*
X383179Y79877D01*
X383419Y80081D01*
X383623Y80321D01*
X383788Y80589D01*
X383908Y80880D01*
X383981Y81186D01*
X384000Y81500D01*
X383981Y81814D01*
X383908Y82120D01*
X383788Y82411D01*
X383623Y82679D01*
X383419Y82919D01*
X383300Y83020D01*
Y85980D01*
X383419Y86081D01*
X383623Y86321D01*
X383788Y86589D01*
X383908Y86880D01*
X383981Y87186D01*
X384000Y87500D01*
X383981Y87814D01*
X383908Y88120D01*
X383788Y88411D01*
X383623Y88679D01*
X383419Y88919D01*
X383179Y89123D01*
X382911Y89288D01*
X382620Y89408D01*
X382314Y89481D01*
X382000Y89506D01*
X381997Y89506D01*
Y108000D01*
G37*
G36*
X354000D02*X381997D01*
Y89506D01*
X381686Y89481D01*
X381380Y89408D01*
X381089Y89288D01*
X380821Y89123D01*
X380581Y88919D01*
X380377Y88679D01*
X380212Y88411D01*
X380092Y88120D01*
X380019Y87814D01*
X379994Y87500D01*
X380019Y87186D01*
X380092Y86880D01*
X380212Y86589D01*
X380377Y86321D01*
X380581Y86081D01*
X380700Y85980D01*
Y83020D01*
X380581Y82919D01*
X380377Y82679D01*
X380212Y82411D01*
X380092Y82120D01*
X380019Y81814D01*
X379994Y81500D01*
X380019Y81186D01*
X380092Y80880D01*
X380212Y80589D01*
X380377Y80321D01*
X380581Y80081D01*
X380821Y79877D01*
X381089Y79712D01*
X381380Y79592D01*
X381686Y79519D01*
X381997Y79494D01*
Y20500D01*
X354000D01*
Y84922D01*
X354111Y84854D01*
X354257Y84794D01*
X354410Y84757D01*
X354567Y84748D01*
X356091Y84749D01*
X356044Y84635D01*
X355969Y84322D01*
X355944Y84000D01*
X355969Y83678D01*
X356044Y83365D01*
X356168Y83066D01*
X356336Y82791D01*
X356546Y82546D01*
X356791Y82336D01*
X357066Y82168D01*
X357365Y82044D01*
X357678Y81969D01*
X358000Y81950D01*
X359420D01*
X359500Y81944D01*
X359580Y81950D01*
X361000D01*
X361322Y81969D01*
X361635Y82044D01*
X361934Y82168D01*
X362209Y82336D01*
X362454Y82546D01*
X362664Y82791D01*
X362832Y83066D01*
X362956Y83365D01*
X363031Y83678D01*
X363056Y84000D01*
X363031Y84322D01*
X362956Y84635D01*
X362906Y84756D01*
X364567Y84757D01*
X364720Y84794D01*
X364865Y84854D01*
X364999Y84936D01*
X365119Y85039D01*
X365221Y85158D01*
X365303Y85292D01*
X365364Y85438D01*
X365400Y85591D01*
X365410Y85748D01*
X365400Y95748D01*
X365364Y95901D01*
X365303Y96046D01*
X365221Y96180D01*
X365119Y96300D01*
X364999Y96402D01*
X364865Y96485D01*
X364720Y96545D01*
X364567Y96582D01*
X364410Y96591D01*
X354410Y96582D01*
X354257Y96545D01*
X354111Y96485D01*
X354000Y96416D01*
Y108000D01*
G37*
G36*
X342000Y12000D02*Y97500D01*
X352500D01*
Y12000D01*
X342000D01*
G37*
G36*
Y19500D02*X424169D01*
X424078Y19422D01*
X424045Y19383D01*
X422155Y17494D01*
X422000Y17506D01*
X421686Y17481D01*
X421380Y17408D01*
X421089Y17288D01*
X420821Y17123D01*
X420581Y16919D01*
X420377Y16679D01*
X420212Y16411D01*
X420092Y16120D01*
X420019Y15814D01*
X419994Y15500D01*
X420000Y15422D01*
Y12000D01*
X342000D01*
Y19500D01*
G37*
G36*
X438000Y33000D02*Y24500D01*
X431578D01*
X431500Y24506D01*
X431422Y24500D01*
X405000D01*
Y33000D01*
X428459D01*
X428606Y32761D01*
X428908Y32408D01*
X429261Y32106D01*
X429657Y31863D01*
X430086Y31686D01*
X430537Y31577D01*
X431000Y31541D01*
X431463Y31577D01*
X431914Y31686D01*
X432343Y31863D01*
X432739Y32106D01*
X433092Y32408D01*
X433394Y32761D01*
X433541Y33000D01*
X438000D01*
G37*
G36*
X431500Y25500D02*Y24506D01*
X431186Y24481D01*
X430880Y24408D01*
X430589Y24288D01*
X430321Y24123D01*
X430081Y23919D01*
X429877Y23679D01*
X429712Y23411D01*
X429592Y23120D01*
X429519Y22814D01*
X429494Y22500D01*
X429519Y22186D01*
X429592Y21880D01*
X429712Y21589D01*
X429877Y21321D01*
X430081Y21081D01*
X430200Y20980D01*
Y20538D01*
X429462Y19800D01*
X425051D01*
X425000Y19804D01*
X424796Y19788D01*
X424597Y19740D01*
X424408Y19662D01*
X424234Y19555D01*
X424233Y19555D01*
X424078Y19422D01*
X424045Y19383D01*
X422162Y17500D01*
X422078D01*
X422000Y17506D01*
X421922Y17500D01*
X405000D01*
Y25500D01*
X431500D01*
G37*
G36*
X530512Y108000D02*X548000D01*
Y34500D01*
X543950D01*
X543923Y34963D01*
X543814Y35414D01*
X543637Y35843D01*
X543394Y36239D01*
X543092Y36592D01*
X542739Y36894D01*
X542343Y37137D01*
X541914Y37314D01*
X541463Y37423D01*
X541000Y37459D01*
X540537Y37423D01*
X540086Y37314D01*
X539657Y37137D01*
X539261Y36894D01*
X538908Y36592D01*
X538606Y36239D01*
X538363Y35843D01*
X538186Y35414D01*
X538077Y34963D01*
X538041Y34500D01*
X530512D01*
Y84752D01*
X535590Y84757D01*
X535743Y84794D01*
X535889Y84854D01*
X536023Y84936D01*
X536143Y85039D01*
X536245Y85158D01*
X536327Y85292D01*
X536387Y85438D01*
X536424Y85591D01*
X536433Y85748D01*
X536424Y95748D01*
X536387Y95901D01*
X536327Y96046D01*
X536245Y96180D01*
X536143Y96300D01*
X536023Y96402D01*
X535889Y96485D01*
X535743Y96545D01*
X535590Y96582D01*
X535433Y96591D01*
X533842Y96589D01*
X533956Y96865D01*
X534031Y97178D01*
X534056Y97500D01*
X534031Y97822D01*
X533956Y98135D01*
X533832Y98434D01*
X533664Y98709D01*
X533454Y98954D01*
X533209Y99164D01*
X532934Y99332D01*
X532635Y99456D01*
X532322Y99531D01*
X532000Y99550D01*
X530580D01*
X530512Y99555D01*
Y108000D01*
G37*
G36*
X491997D02*X530512D01*
Y99555D01*
X530500Y99556D01*
X530420Y99550D01*
X529000D01*
X528678Y99531D01*
X528365Y99456D01*
X528066Y99332D01*
X527791Y99164D01*
X527546Y98954D01*
X527336Y98709D01*
X527168Y98434D01*
X527044Y98135D01*
X526969Y97822D01*
X526944Y97500D01*
X526969Y97178D01*
X527044Y96865D01*
X527161Y96583D01*
X525433Y96582D01*
X525280Y96545D01*
X525135Y96485D01*
X525001Y96402D01*
X524881Y96300D01*
X524779Y96180D01*
X524697Y96046D01*
X524636Y95901D01*
X524600Y95748D01*
X524590Y95591D01*
X524600Y85591D01*
X524636Y85438D01*
X524697Y85292D01*
X524779Y85158D01*
X524881Y85039D01*
X525001Y84936D01*
X525135Y84854D01*
X525280Y84794D01*
X525433Y84757D01*
X525590Y84748D01*
X530512Y84752D01*
Y34500D01*
X513500D01*
Y20500D01*
X491997D01*
Y79494D01*
X492000Y79494D01*
X492314Y79519D01*
X492620Y79592D01*
X492911Y79712D01*
X493179Y79877D01*
X493419Y80081D01*
X493623Y80321D01*
X493788Y80589D01*
X493908Y80880D01*
X493981Y81186D01*
X494000Y81500D01*
X493981Y81814D01*
X493908Y82120D01*
X493788Y82411D01*
X493623Y82679D01*
X493419Y82919D01*
X493300Y83020D01*
Y85980D01*
X493419Y86081D01*
X493623Y86321D01*
X493788Y86589D01*
X493908Y86880D01*
X493981Y87186D01*
X494000Y87500D01*
X493981Y87814D01*
X493908Y88120D01*
X493788Y88411D01*
X493623Y88679D01*
X493419Y88919D01*
X493179Y89123D01*
X492911Y89288D01*
X492620Y89408D01*
X492314Y89481D01*
X492000Y89506D01*
X491997Y89506D01*
Y108000D01*
G37*
G36*
X464000D02*X491997D01*
Y89506D01*
X491686Y89481D01*
X491380Y89408D01*
X491089Y89288D01*
X490821Y89123D01*
X490581Y88919D01*
X490377Y88679D01*
X490212Y88411D01*
X490092Y88120D01*
X490019Y87814D01*
X489994Y87500D01*
X490019Y87186D01*
X490092Y86880D01*
X490212Y86589D01*
X490377Y86321D01*
X490581Y86081D01*
X490700Y85980D01*
Y83020D01*
X490581Y82919D01*
X490377Y82679D01*
X490212Y82411D01*
X490092Y82120D01*
X490019Y81814D01*
X489994Y81500D01*
X490019Y81186D01*
X490092Y80880D01*
X490212Y80589D01*
X490377Y80321D01*
X490581Y80081D01*
X490821Y79877D01*
X491089Y79712D01*
X491380Y79592D01*
X491686Y79519D01*
X491997Y79494D01*
Y20500D01*
X464000D01*
Y84922D01*
X464111Y84854D01*
X464257Y84794D01*
X464410Y84757D01*
X464567Y84748D01*
X466091Y84749D01*
X466044Y84635D01*
X465969Y84322D01*
X465944Y84000D01*
X465969Y83678D01*
X466044Y83365D01*
X466168Y83066D01*
X466336Y82791D01*
X466546Y82546D01*
X466791Y82336D01*
X467066Y82168D01*
X467365Y82044D01*
X467678Y81969D01*
X468000Y81950D01*
X469420D01*
X469500Y81944D01*
X469580Y81950D01*
X471000D01*
X471322Y81969D01*
X471635Y82044D01*
X471934Y82168D01*
X472209Y82336D01*
X472454Y82546D01*
X472664Y82791D01*
X472832Y83066D01*
X472956Y83365D01*
X473031Y83678D01*
X473056Y84000D01*
X473031Y84322D01*
X472956Y84635D01*
X472906Y84756D01*
X474567Y84757D01*
X474720Y84794D01*
X474865Y84854D01*
X474999Y84936D01*
X475119Y85039D01*
X475221Y85158D01*
X475303Y85292D01*
X475364Y85438D01*
X475400Y85591D01*
X475410Y85748D01*
X475400Y95748D01*
X475364Y95901D01*
X475303Y96046D01*
X475221Y96180D01*
X475119Y96300D01*
X474999Y96402D01*
X474865Y96485D01*
X474720Y96545D01*
X474567Y96582D01*
X474410Y96591D01*
X464410Y96582D01*
X464257Y96545D01*
X464111Y96485D01*
X464000Y96416D01*
Y108000D01*
G37*
G36*
X548000Y33000D02*Y24500D01*
X541578D01*
X541500Y24506D01*
X541422Y24500D01*
X515000D01*
Y33000D01*
X538459D01*
X538606Y32761D01*
X538908Y32408D01*
X539261Y32106D01*
X539657Y31863D01*
X540086Y31686D01*
X540537Y31577D01*
X541000Y31541D01*
X541463Y31577D01*
X541914Y31686D01*
X542343Y31863D01*
X542739Y32106D01*
X543092Y32408D01*
X543394Y32761D01*
X543541Y33000D01*
X548000D01*
G37*
G36*
X541500Y25500D02*Y24506D01*
X541186Y24481D01*
X540880Y24408D01*
X540589Y24288D01*
X540321Y24123D01*
X540081Y23919D01*
X539877Y23679D01*
X539712Y23411D01*
X539592Y23120D01*
X539519Y22814D01*
X539494Y22500D01*
X539519Y22186D01*
X539592Y21880D01*
X539712Y21589D01*
X539877Y21321D01*
X540081Y21081D01*
X540200Y20980D01*
Y20538D01*
X539462Y19800D01*
X535051D01*
X535000Y19804D01*
X534796Y19788D01*
X534597Y19740D01*
X534408Y19662D01*
X534234Y19555D01*
X534233Y19555D01*
X534078Y19422D01*
X534045Y19383D01*
X532162Y17500D01*
X532078D01*
X532000Y17506D01*
X531922Y17500D01*
X515000D01*
Y25500D01*
X541500D01*
G37*
G36*
X452000Y12000D02*Y97500D01*
X462500D01*
Y12000D01*
X452000D01*
G37*
G36*
X200512Y108000D02*X218000D01*
Y34500D01*
X213950D01*
X213923Y34963D01*
X213814Y35414D01*
X213637Y35843D01*
X213394Y36239D01*
X213092Y36592D01*
X212739Y36894D01*
X212343Y37137D01*
X211914Y37314D01*
X211463Y37423D01*
X211000Y37459D01*
X210537Y37423D01*
X210086Y37314D01*
X209657Y37137D01*
X209261Y36894D01*
X208908Y36592D01*
X208606Y36239D01*
X208363Y35843D01*
X208186Y35414D01*
X208077Y34963D01*
X208041Y34500D01*
X200512D01*
Y84752D01*
X205590Y84757D01*
X205743Y84794D01*
X205889Y84854D01*
X206023Y84936D01*
X206143Y85039D01*
X206245Y85158D01*
X206327Y85292D01*
X206387Y85438D01*
X206424Y85591D01*
X206433Y85748D01*
X206424Y95748D01*
X206387Y95901D01*
X206327Y96046D01*
X206245Y96180D01*
X206143Y96300D01*
X206023Y96402D01*
X205889Y96485D01*
X205743Y96545D01*
X205590Y96582D01*
X205433Y96591D01*
X203842Y96589D01*
X203956Y96865D01*
X204031Y97178D01*
X204056Y97500D01*
X204031Y97822D01*
X203956Y98135D01*
X203832Y98434D01*
X203664Y98709D01*
X203454Y98954D01*
X203209Y99164D01*
X202934Y99332D01*
X202635Y99456D01*
X202322Y99531D01*
X202000Y99550D01*
X200580D01*
X200512Y99555D01*
Y108000D01*
G37*
G36*
X161997D02*X200512D01*
Y99555D01*
X200500Y99556D01*
X200420Y99550D01*
X199000D01*
X198678Y99531D01*
X198365Y99456D01*
X198066Y99332D01*
X197791Y99164D01*
X197546Y98954D01*
X197336Y98709D01*
X197168Y98434D01*
X197044Y98135D01*
X196969Y97822D01*
X196944Y97500D01*
X196969Y97178D01*
X197044Y96865D01*
X197161Y96583D01*
X195433Y96582D01*
X195280Y96545D01*
X195135Y96485D01*
X195001Y96402D01*
X194881Y96300D01*
X194779Y96180D01*
X194697Y96046D01*
X194636Y95901D01*
X194600Y95748D01*
X194590Y95591D01*
X194600Y85591D01*
X194636Y85438D01*
X194697Y85292D01*
X194779Y85158D01*
X194881Y85039D01*
X195001Y84936D01*
X195135Y84854D01*
X195280Y84794D01*
X195433Y84757D01*
X195590Y84748D01*
X200512Y84752D01*
Y34500D01*
X183500D01*
Y20500D01*
X161997D01*
Y79494D01*
X162000Y79494D01*
X162314Y79519D01*
X162620Y79592D01*
X162911Y79712D01*
X163179Y79877D01*
X163419Y80081D01*
X163623Y80321D01*
X163788Y80589D01*
X163908Y80880D01*
X163981Y81186D01*
X164000Y81500D01*
X163981Y81814D01*
X163908Y82120D01*
X163788Y82411D01*
X163623Y82679D01*
X163419Y82919D01*
X163300Y83020D01*
Y85980D01*
X163419Y86081D01*
X163623Y86321D01*
X163788Y86589D01*
X163908Y86880D01*
X163981Y87186D01*
X164000Y87500D01*
X163981Y87814D01*
X163908Y88120D01*
X163788Y88411D01*
X163623Y88679D01*
X163419Y88919D01*
X163179Y89123D01*
X162911Y89288D01*
X162620Y89408D01*
X162314Y89481D01*
X162000Y89506D01*
X161997Y89506D01*
Y108000D01*
G37*
G36*
X134000D02*X161997D01*
Y89506D01*
X161686Y89481D01*
X161380Y89408D01*
X161089Y89288D01*
X160821Y89123D01*
X160581Y88919D01*
X160377Y88679D01*
X160212Y88411D01*
X160092Y88120D01*
X160019Y87814D01*
X159994Y87500D01*
X160019Y87186D01*
X160092Y86880D01*
X160212Y86589D01*
X160377Y86321D01*
X160581Y86081D01*
X160700Y85980D01*
Y83020D01*
X160581Y82919D01*
X160377Y82679D01*
X160212Y82411D01*
X160092Y82120D01*
X160019Y81814D01*
X159994Y81500D01*
X160019Y81186D01*
X160092Y80880D01*
X160212Y80589D01*
X160377Y80321D01*
X160581Y80081D01*
X160821Y79877D01*
X161089Y79712D01*
X161380Y79592D01*
X161686Y79519D01*
X161997Y79494D01*
Y20500D01*
X134000D01*
Y84922D01*
X134111Y84854D01*
X134257Y84794D01*
X134410Y84757D01*
X134567Y84748D01*
X136091Y84749D01*
X136044Y84635D01*
X135969Y84322D01*
X135944Y84000D01*
X135969Y83678D01*
X136044Y83365D01*
X136168Y83066D01*
X136336Y82791D01*
X136546Y82546D01*
X136791Y82336D01*
X137066Y82168D01*
X137365Y82044D01*
X137678Y81969D01*
X138000Y81950D01*
X139420D01*
X139500Y81944D01*
X139580Y81950D01*
X141000D01*
X141322Y81969D01*
X141635Y82044D01*
X141934Y82168D01*
X142209Y82336D01*
X142454Y82546D01*
X142664Y82791D01*
X142832Y83066D01*
X142956Y83365D01*
X143031Y83678D01*
X143056Y84000D01*
X143031Y84322D01*
X142956Y84635D01*
X142906Y84756D01*
X144567Y84757D01*
X144720Y84794D01*
X144865Y84854D01*
X144999Y84936D01*
X145119Y85039D01*
X145221Y85158D01*
X145303Y85292D01*
X145364Y85438D01*
X145400Y85591D01*
X145410Y85748D01*
X145400Y95748D01*
X145364Y95901D01*
X145303Y96046D01*
X145221Y96180D01*
X145119Y96300D01*
X144999Y96402D01*
X144865Y96485D01*
X144720Y96545D01*
X144567Y96582D01*
X144410Y96591D01*
X134410Y96582D01*
X134257Y96545D01*
X134111Y96485D01*
X134000Y96416D01*
Y108000D01*
G37*
G36*
X122000Y12000D02*Y97500D01*
X132500D01*
Y12000D01*
X122000D01*
G37*
G36*
X211500Y25500D02*Y24506D01*
X211186Y24481D01*
X210880Y24408D01*
X210589Y24288D01*
X210321Y24123D01*
X210081Y23919D01*
X209877Y23679D01*
X209712Y23411D01*
X209592Y23120D01*
X209519Y22814D01*
X209494Y22500D01*
X209519Y22186D01*
X209592Y21880D01*
X209712Y21589D01*
X209877Y21321D01*
X210081Y21081D01*
X210200Y20980D01*
Y20538D01*
X209462Y19800D01*
X205051D01*
X205000Y19804D01*
X204796Y19788D01*
X204597Y19740D01*
X204408Y19662D01*
X204234Y19555D01*
X204233Y19555D01*
X204078Y19422D01*
X204045Y19383D01*
X202162Y17500D01*
X202078D01*
X202000Y17506D01*
X201922Y17500D01*
X185000D01*
Y25500D01*
X211500D01*
G37*
G36*
X90512Y108000D02*X108000D01*
Y34500D01*
X103950D01*
X103923Y34963D01*
X103814Y35414D01*
X103637Y35843D01*
X103394Y36239D01*
X103092Y36592D01*
X102739Y36894D01*
X102343Y37137D01*
X101914Y37314D01*
X101463Y37423D01*
X101000Y37459D01*
X100537Y37423D01*
X100086Y37314D01*
X99657Y37137D01*
X99261Y36894D01*
X98908Y36592D01*
X98606Y36239D01*
X98363Y35843D01*
X98186Y35414D01*
X98077Y34963D01*
X98041Y34500D01*
X90512D01*
Y84752D01*
X95590Y84757D01*
X95743Y84794D01*
X95889Y84854D01*
X96023Y84936D01*
X96143Y85039D01*
X96245Y85158D01*
X96327Y85292D01*
X96387Y85438D01*
X96424Y85591D01*
X96433Y85748D01*
X96424Y95748D01*
X96387Y95901D01*
X96327Y96046D01*
X96245Y96180D01*
X96143Y96300D01*
X96023Y96402D01*
X95889Y96485D01*
X95743Y96545D01*
X95590Y96582D01*
X95433Y96591D01*
X93842Y96589D01*
X93956Y96865D01*
X94031Y97178D01*
X94056Y97500D01*
X94031Y97822D01*
X93956Y98135D01*
X93832Y98434D01*
X93664Y98709D01*
X93454Y98954D01*
X93209Y99164D01*
X92934Y99332D01*
X92635Y99456D01*
X92322Y99531D01*
X92000Y99550D01*
X90580D01*
X90512Y99555D01*
Y108000D01*
G37*
G36*
X51997D02*X90512D01*
Y99555D01*
X90500Y99556D01*
X90420Y99550D01*
X89000D01*
X88678Y99531D01*
X88365Y99456D01*
X88066Y99332D01*
X87791Y99164D01*
X87546Y98954D01*
X87336Y98709D01*
X87168Y98434D01*
X87044Y98135D01*
X86969Y97822D01*
X86944Y97500D01*
X86969Y97178D01*
X87044Y96865D01*
X87161Y96583D01*
X85433Y96582D01*
X85280Y96545D01*
X85135Y96485D01*
X85001Y96402D01*
X84881Y96300D01*
X84779Y96180D01*
X84697Y96046D01*
X84636Y95901D01*
X84600Y95748D01*
X84590Y95591D01*
X84600Y85591D01*
X84636Y85438D01*
X84697Y85292D01*
X84779Y85158D01*
X84881Y85039D01*
X85001Y84936D01*
X85135Y84854D01*
X85280Y84794D01*
X85433Y84757D01*
X85590Y84748D01*
X90512Y84752D01*
Y34500D01*
X73500D01*
Y20500D01*
X51997D01*
Y79494D01*
X52000Y79494D01*
X52314Y79519D01*
X52620Y79592D01*
X52911Y79712D01*
X53179Y79877D01*
X53419Y80081D01*
X53623Y80321D01*
X53788Y80589D01*
X53908Y80880D01*
X53981Y81186D01*
X54000Y81500D01*
X53981Y81814D01*
X53908Y82120D01*
X53788Y82411D01*
X53623Y82679D01*
X53419Y82919D01*
X53300Y83020D01*
Y85980D01*
X53419Y86081D01*
X53623Y86321D01*
X53788Y86589D01*
X53908Y86880D01*
X53981Y87186D01*
X54000Y87500D01*
X53981Y87814D01*
X53908Y88120D01*
X53788Y88411D01*
X53623Y88679D01*
X53419Y88919D01*
X53179Y89123D01*
X52911Y89288D01*
X52620Y89408D01*
X52314Y89481D01*
X52000Y89506D01*
X51997Y89506D01*
Y108000D01*
G37*
G36*
X24000D02*X51997D01*
Y89506D01*
X51686Y89481D01*
X51380Y89408D01*
X51089Y89288D01*
X50821Y89123D01*
X50581Y88919D01*
X50377Y88679D01*
X50212Y88411D01*
X50092Y88120D01*
X50019Y87814D01*
X49994Y87500D01*
X50019Y87186D01*
X50092Y86880D01*
X50212Y86589D01*
X50377Y86321D01*
X50581Y86081D01*
X50700Y85980D01*
Y83020D01*
X50581Y82919D01*
X50377Y82679D01*
X50212Y82411D01*
X50092Y82120D01*
X50019Y81814D01*
X49994Y81500D01*
X50019Y81186D01*
X50092Y80880D01*
X50212Y80589D01*
X50377Y80321D01*
X50581Y80081D01*
X50821Y79877D01*
X51089Y79712D01*
X51380Y79592D01*
X51686Y79519D01*
X51997Y79494D01*
Y20500D01*
X24000D01*
Y84922D01*
X24111Y84854D01*
X24257Y84794D01*
X24410Y84757D01*
X24567Y84748D01*
X26091Y84749D01*
X26044Y84635D01*
X25969Y84322D01*
X25944Y84000D01*
X25969Y83678D01*
X26044Y83365D01*
X26168Y83066D01*
X26336Y82791D01*
X26546Y82546D01*
X26791Y82336D01*
X27066Y82168D01*
X27365Y82044D01*
X27678Y81969D01*
X28000Y81950D01*
X29420D01*
X29500Y81944D01*
X29580Y81950D01*
X31000D01*
X31322Y81969D01*
X31635Y82044D01*
X31934Y82168D01*
X32209Y82336D01*
X32454Y82546D01*
X32664Y82791D01*
X32832Y83066D01*
X32956Y83365D01*
X33031Y83678D01*
X33056Y84000D01*
X33031Y84322D01*
X32956Y84635D01*
X32906Y84756D01*
X34567Y84757D01*
X34720Y84794D01*
X34865Y84854D01*
X34999Y84936D01*
X35119Y85039D01*
X35221Y85158D01*
X35303Y85292D01*
X35364Y85438D01*
X35400Y85591D01*
X35410Y85748D01*
X35400Y95748D01*
X35364Y95901D01*
X35303Y96046D01*
X35221Y96180D01*
X35119Y96300D01*
X34999Y96402D01*
X34865Y96485D01*
X34720Y96545D01*
X34567Y96582D01*
X34410Y96591D01*
X24410Y96582D01*
X24257Y96545D01*
X24111Y96485D01*
X24000Y96416D01*
Y108000D01*
G37*
G36*
X12000Y12000D02*Y97500D01*
X22500D01*
Y12000D01*
X12000D01*
G37*
G36*
Y19500D02*X94169D01*
X94078Y19422D01*
X94045Y19383D01*
X92155Y17494D01*
X92000Y17506D01*
X91686Y17481D01*
X91380Y17408D01*
X91089Y17288D01*
X90821Y17123D01*
X90581Y16919D01*
X90377Y16679D01*
X90212Y16411D01*
X90092Y16120D01*
X90019Y15814D01*
X89994Y15500D01*
X90000Y15422D01*
Y12000D01*
X12000D01*
Y19500D01*
G37*
G36*
X108000Y33000D02*Y24500D01*
X101578D01*
X101500Y24506D01*
X101422Y24500D01*
X75000D01*
Y33000D01*
X98459D01*
X98606Y32761D01*
X98908Y32408D01*
X99261Y32106D01*
X99657Y31863D01*
X100086Y31686D01*
X100537Y31577D01*
X101000Y31541D01*
X101463Y31577D01*
X101914Y31686D01*
X102343Y31863D01*
X102739Y32106D01*
X103092Y32408D01*
X103394Y32761D01*
X103541Y33000D01*
X108000D01*
G37*
G36*
X101500Y25500D02*Y24506D01*
X101186Y24481D01*
X100880Y24408D01*
X100589Y24288D01*
X100321Y24123D01*
X100081Y23919D01*
X99877Y23679D01*
X99712Y23411D01*
X99592Y23120D01*
X99519Y22814D01*
X99494Y22500D01*
X99519Y22186D01*
X99592Y21880D01*
X99712Y21589D01*
X99877Y21321D01*
X100081Y21081D01*
X100200Y20980D01*
Y20538D01*
X99462Y19800D01*
X95051D01*
X95000Y19804D01*
X94796Y19788D01*
X94597Y19740D01*
X94408Y19662D01*
X94234Y19555D01*
X94233Y19555D01*
X94078Y19422D01*
X94045Y19383D01*
X92162Y17500D01*
X92078D01*
X92000Y17506D01*
X91922Y17500D01*
X75000D01*
Y25500D01*
X101500D01*
G37*
G36*
X218000Y33000D02*Y24500D01*
X211578D01*
X211500Y24506D01*
X211422Y24500D01*
X185000D01*
Y33000D01*
X208459D01*
X208606Y32761D01*
X208908Y32408D01*
X209261Y32106D01*
X209657Y31863D01*
X210086Y31686D01*
X210537Y31577D01*
X211000Y31541D01*
X211463Y31577D01*
X211914Y31686D01*
X212343Y31863D01*
X212739Y32106D01*
X213092Y32408D01*
X213394Y32761D01*
X213541Y33000D01*
X218000D01*
G37*
G54D30*X162000Y81500D02*Y87500D01*
X272000Y81500D02*Y87500D01*
G54D31*X248000Y84000D02*X251000D01*
X249500D02*Y90669D01*
G54D30*X211500Y22500D02*Y20000D01*
X210000Y18500D01*
X205000D01*
X202000Y15500D01*
G54D31*X138000Y84000D02*X141000D01*
X139500D02*Y90669D01*
X199000Y97500D02*X202000D01*
X200500D02*X200512Y97488D01*
Y90669D01*
G54D30*X52000Y81500D02*Y87500D01*
G54D31*X28000Y84000D02*X31000D01*
X29500D02*Y90669D01*
G54D30*X101500Y22500D02*Y20000D01*
X100000Y18500D01*
X95000D01*
X92000Y15500D01*
G54D31*X89000Y97500D02*X92000D01*
X90500D02*X90512Y97488D01*
Y90669D01*
G54D30*X321500Y22500D02*Y20000D01*
X320000Y18500D01*
X315000D01*
X312000Y15500D01*
G54D31*X309000Y97500D02*X312000D01*
X419000D02*X422000D01*
X420500D02*X420512Y97488D01*
Y90669D01*
X310500Y97500D02*X310512Y97488D01*
Y90669D01*
G54D30*X382000Y81500D02*Y87500D01*
G54D31*X358000Y84000D02*X361000D01*
X359500D02*Y90669D01*
G54D30*X492000Y81500D02*Y87500D01*
G54D31*X468000Y84000D02*X471000D01*
X469500D02*Y90669D01*
G54D30*X431500Y22500D02*Y20000D01*
X430000Y18500D01*
X425000D01*
X422000Y15500D01*
X541500Y22500D02*Y20000D01*
X540000Y18500D01*
X535000D01*
X532000Y15500D01*
G54D31*X529000Y97500D02*X532000D01*
X530500D02*X530512Y97488D01*
Y90669D01*
G54D29*G36*
X195590Y95591D02*Y85748D01*
X205433D01*
Y95591D01*
X195590D01*
G37*
G36*
X134567D02*Y85748D01*
X144410D01*
Y95591D01*
X134567D01*
G37*
G36*
X85590D02*Y85748D01*
X95433D01*
Y95591D01*
X85590D01*
G37*
G36*
X24567D02*Y85748D01*
X34410D01*
Y95591D01*
X24567D01*
G37*
G36*
X305590D02*Y85748D01*
X315433D01*
Y95591D01*
X305590D01*
G37*
G36*
X244567D02*Y85748D01*
X254410D01*
Y95591D01*
X244567D01*
G37*
G36*
X415590D02*Y85748D01*
X425433D01*
Y95591D01*
X415590D01*
G37*
G36*
X354567D02*Y85748D01*
X364410D01*
Y95591D01*
X354567D01*
G37*
G36*
X525590D02*Y85748D01*
X535433D01*
Y95591D01*
X525590D01*
G37*
G36*
X464567D02*Y85748D01*
X474410D01*
Y95591D01*
X464567D01*
G37*
G54D32*X67500Y22000D03*
X92000Y15500D03*
X76500Y31500D03*
X105500Y37000D03*
X101500Y27500D03*
X93000Y31500D03*
X101500Y22500D03*
X131500Y18000D03*
X127500D03*
X129500Y16000D03*
X143000Y49000D03*
X139500D03*
X136000D03*
Y45500D03*
Y42000D03*
Y38500D03*
X89000Y97500D03*
X202000D03*
X199000D03*
X150000Y74000D03*
X162000Y81500D03*
Y87500D03*
X138000Y84000D03*
X141000D03*
X186500Y79500D03*
X150000Y70000D03*
Y66000D03*
X124000Y95500D03*
Y92000D03*
Y88500D03*
X127500Y95500D03*
Y92000D03*
Y88500D03*
X52000Y81500D03*
X76500Y79500D03*
X52000Y87500D03*
X92000Y97500D03*
X33000Y49000D03*
X29500D03*
X26000D03*
Y45500D03*
Y42000D03*
Y38500D03*
X21500Y18000D03*
X17500D03*
X19500Y16000D03*
X40000Y74000D03*
Y70000D03*
Y66000D03*
X28000Y84000D03*
X31000D03*
X14000Y95500D03*
Y92000D03*
Y88500D03*
X17500Y95500D03*
Y92000D03*
Y88500D03*
X177500Y22000D03*
X202000Y15500D03*
X186500Y31500D03*
X215500Y37000D03*
X211500Y27500D03*
X203000Y31500D03*
X211500Y22500D03*
X241500Y18000D03*
X237500D03*
X239500Y16000D03*
X253000Y49000D03*
X249500D03*
X246000D03*
Y45500D03*
Y42000D03*
Y38500D03*
X260000Y74000D03*
Y70000D03*
Y66000D03*
X272000Y81500D03*
Y87500D03*
X248000Y84000D03*
X251000D03*
X296500Y79500D03*
X234000Y92000D03*
Y88500D03*
X237500Y92000D03*
Y88500D03*
X234000Y95500D03*
X312000Y97500D03*
X309000D03*
X237500Y95500D03*
X287500Y22000D03*
X312000Y15500D03*
X296500Y31500D03*
X325500Y37000D03*
X321500Y27500D03*
X313000Y31500D03*
X321500Y22500D03*
X351500Y18000D03*
X347500D03*
X349500Y16000D03*
X370000Y74000D03*
X382000Y81500D03*
Y87500D03*
X370000Y70000D03*
Y66000D03*
X363000Y49000D03*
X359500D03*
X356000D03*
Y45500D03*
Y42000D03*
Y38500D03*
X358000Y84000D03*
X361000D03*
X344000Y88500D03*
X347500D03*
X344000Y95500D03*
Y92000D03*
X347500Y95500D03*
Y92000D03*
X397500Y22000D03*
X422000Y15500D03*
X406500Y31500D03*
X435500Y37000D03*
X431500Y27500D03*
X423000Y31500D03*
X431500Y22500D03*
X461500Y18000D03*
X457500D03*
X459500Y16000D03*
X473000Y49000D03*
X469500D03*
X466000D03*
Y45500D03*
Y42000D03*
Y38500D03*
X507500Y22000D03*
X532000Y15500D03*
X516500Y31500D03*
X545500Y37000D03*
X541500Y27500D03*
X533000Y31500D03*
X541500Y22500D03*
X406500Y79500D03*
X422000Y97500D03*
X419000D03*
X454000Y95500D03*
Y92000D03*
Y88500D03*
X457500Y95500D03*
Y92000D03*
Y88500D03*
X480000Y74000D03*
X468000Y84000D03*
X471000D03*
X480000Y70000D03*
Y66000D03*
X492000Y81500D03*
Y87500D03*
X532000Y97500D03*
X529000D03*
X516500Y79500D03*
G54D33*G54D34*G54D33*G54D34*G54D33*G54D34*G54D33*G54D34*G54D33*G54D34*G54D33*G54D35*M02*
