G04 start of page 10 for group -4078 idx -4078 *
G04 Title: (unknown), bottomsilk *
G04 Creator: pcb 20140316 *
G04 CreationDate: Thu 20 Aug 2020 03:04:10 AM GMT UTC *
G04 For: railfan *
G04 Format: Gerber/RS-274X *
G04 PCB-Dimensions (mil): 5600.00 1200.00 *
G04 PCB-Coordinate-Origin: lower left *
%MOIN*%
%FSLAX25Y25*%
%LNBOTTOMSILK*%
%ADD57C,0.0100*%
%ADD56C,0.0060*%
G54D56*X198660Y101307D02*X200181D01*
X201000Y102126D02*X200181Y101307D01*
X201000Y102126D02*Y105168D01*
X200181Y105987D01*
X198660D02*X200181D01*
X197256Y101307D02*Y105987D01*
Y103647D02*X194916Y105987D01*
X197256Y103647D02*X194916Y101307D01*
X191172Y105987D02*X193512D01*
X192342Y101307D02*Y105987D01*
X187428Y103647D02*X189768D01*
X185439Y101307D02*Y105987D01*
X183918D02*X183099Y105168D01*
Y102126D02*Y105168D01*
X183918Y101307D02*X183099Y102126D01*
X183918Y101307D02*X186024D01*
X183918Y105987D02*X186024D01*
X180525D02*X181695D01*
X181110Y101307D02*Y105987D01*
X180525Y101307D02*X181695D01*
X179121D02*Y105987D01*
X176196Y101307D01*
Y105987D01*
X172452D02*X171867Y105402D01*
X172452Y105987D02*X174207D01*
X174792Y105402D02*X174207Y105987D01*
X174792Y101892D02*Y105402D01*
Y101892D02*X174207Y101307D01*
X172452D02*X174207D01*
X172452D02*X171867Y101892D01*
Y103062D01*
X172452Y103647D02*X171867Y103062D01*
X172452Y103647D02*X173622D01*
X169878Y101307D02*Y105987D01*
X168357D02*X167538Y105168D01*
Y102126D02*Y105168D01*
X168357Y101307D02*X167538Y102126D01*
X168357Y101307D02*X170463D01*
X168357Y105987D02*X170463D01*
X166134Y101892D02*Y105402D01*
X165549Y105987D01*
X164379D02*X165549D01*
X164379D02*X163794Y105402D01*
Y101892D02*Y105402D01*
X164379Y101307D02*X163794Y101892D01*
X164379Y101307D02*X165549D01*
X166134Y101892D02*X165549Y101307D01*
X162390D02*Y105987D01*
X159465Y101307D01*
Y105987D01*
X155721D02*X155136Y105402D01*
X155721Y105987D02*X157476D01*
X158061Y105402D02*X157476Y105987D01*
X158061Y101892D02*Y105402D01*
Y101892D02*X157476Y101307D01*
X155721D02*X157476D01*
X155721D02*X155136Y101892D01*
Y103062D01*
X155721Y103647D02*X155136Y103062D01*
X155721Y103647D02*X156891D01*
X149520D02*X148350Y101307D01*
X147180Y103647D02*X148350Y101307D01*
X145776Y105051D02*X144840Y105987D01*
Y101307D02*Y105987D01*
X144021Y101307D02*X145776D01*
X142032D02*X142617D01*
X140628Y101892D02*X140043Y101307D01*
X140628Y101892D02*Y105402D01*
X140043Y105987D01*
X138873D02*X140043D01*
X138873D02*X138288Y105402D01*
Y101892D02*Y105402D01*
X138873Y101307D02*X138288Y101892D01*
X138873Y101307D02*X140043D01*
X140628Y102477D02*X138288Y104817D01*
X181617Y35807D02*X183138D01*
X183957Y36626D02*X183138Y35807D01*
X183957Y36626D02*Y39668D01*
X183138Y40487D01*
X181617D02*X183138D01*
X177873Y35807D02*X179394D01*
X180213Y36626D02*X179394Y35807D01*
X180213Y36626D02*Y39668D01*
X179394Y40487D01*
X177873D02*X179394D01*
X172023Y35807D02*X174363D01*
X172023D02*X171438Y36392D01*
Y37796D01*
X172023Y38381D02*X171438Y37796D01*
X172023Y38381D02*X173778D01*
Y35807D02*Y40487D01*
X172023D02*X174363D01*
X172023D02*X171438Y39902D01*
Y38966D02*Y39902D01*
X172023Y38381D02*X171438Y38966D01*
X170034Y40487D02*X168864Y38147D01*
X167694Y40487D01*
X168864Y35807D02*Y38147D01*
X163950D02*X166290D01*
X160206Y40487D02*X159621Y39902D01*
X160206Y40487D02*X161961D01*
X162546Y39902D02*X161961Y40487D01*
X162546Y38732D02*Y39902D01*
Y38732D02*X161961Y38147D01*
X160206D02*X161961D01*
X160206D02*X159621Y37562D01*
Y36392D02*Y37562D01*
X160206Y35807D02*X159621Y36392D01*
X160206Y35807D02*X161961D01*
X162546Y36392D02*X161961Y35807D01*
X158217D02*Y39317D01*
X157398Y40487D01*
X156111D02*X157398D01*
X156111D02*X155292Y39317D01*
Y35807D02*Y39317D01*
Y38147D02*X158217D01*
X182000Y27892D02*X181415Y27307D01*
X182000Y31402D02*X181415Y31987D01*
X182000Y27892D02*Y31402D01*
X177671Y27307D02*X179192D01*
X180011Y28126D02*X179192Y27307D01*
X180011Y28126D02*Y31168D01*
X179192Y31987D01*
X177671D02*X179192D01*
X176267D02*X175682Y31402D01*
Y27892D02*Y31402D01*
X176267Y27307D02*X175682Y27892D01*
X172172Y31402D02*X171587Y31987D01*
X169832D02*X171587D01*
X169832D02*X169247Y31402D01*
Y30232D02*Y31402D01*
X172172Y27307D02*X169247Y30232D01*
Y27307D02*X172172D01*
X167843Y27892D02*X167258Y27307D01*
X167843Y27892D02*Y31402D01*
X167258Y31987D01*
X166088D02*X167258D01*
X166088D02*X165503Y31402D01*
Y27892D02*Y31402D01*
X166088Y27307D02*X165503Y27892D01*
X166088Y27307D02*X167258D01*
X167843Y28477D02*X165503Y30817D01*
X164099Y31402D02*X163514Y31987D01*
X161759D02*X163514D01*
X161759D02*X161174Y31402D01*
Y30232D02*Y31402D01*
X164099Y27307D02*X161174Y30232D01*
Y27307D02*X164099D01*
X159770Y27892D02*X159185Y27307D01*
X159770Y27892D02*Y31402D01*
X159185Y31987D01*
X158015D02*X159185D01*
X158015D02*X157430Y31402D01*
Y27892D02*Y31402D01*
X158015Y27307D02*X157430Y27892D01*
X158015Y27307D02*X159185D01*
X159770Y28477D02*X157430Y30817D01*
X308660Y101307D02*X310181D01*
X311000Y102126D02*X310181Y101307D01*
X311000Y102126D02*Y105168D01*
X310181Y105987D01*
X308660D02*X310181D01*
X307256Y101307D02*Y105987D01*
Y103647D02*X304916Y105987D01*
X307256Y103647D02*X304916Y101307D01*
X301172Y105987D02*X303512D01*
X302342Y101307D02*Y105987D01*
X297428Y103647D02*X299768D01*
X295439Y101307D02*Y105987D01*
X293918D02*X293099Y105168D01*
Y102126D02*Y105168D01*
X293918Y101307D02*X293099Y102126D01*
X293918Y101307D02*X296024D01*
X293918Y105987D02*X296024D01*
X290525D02*X291695D01*
X291110Y101307D02*Y105987D01*
X290525Y101307D02*X291695D01*
X289121D02*Y105987D01*
X286196Y101307D01*
Y105987D01*
X282452D02*X281867Y105402D01*
X282452Y105987D02*X284207D01*
X284792Y105402D02*X284207Y105987D01*
X284792Y101892D02*Y105402D01*
Y101892D02*X284207Y101307D01*
X282452D02*X284207D01*
X282452D02*X281867Y101892D01*
Y103062D01*
X282452Y103647D02*X281867Y103062D01*
X282452Y103647D02*X283622D01*
X279878Y101307D02*Y105987D01*
X278357D02*X277538Y105168D01*
Y102126D02*Y105168D01*
X278357Y101307D02*X277538Y102126D01*
X278357Y101307D02*X280463D01*
X278357Y105987D02*X280463D01*
X276134Y101892D02*Y105402D01*
X275549Y105987D01*
X274379D02*X275549D01*
X274379D02*X273794Y105402D01*
Y101892D02*Y105402D01*
X274379Y101307D02*X273794Y101892D01*
X274379Y101307D02*X275549D01*
X276134Y101892D02*X275549Y101307D01*
X272390D02*Y105987D01*
X269465Y101307D01*
Y105987D01*
X265721D02*X265136Y105402D01*
X265721Y105987D02*X267476D01*
X268061Y105402D02*X267476Y105987D01*
X268061Y101892D02*Y105402D01*
Y101892D02*X267476Y101307D01*
X265721D02*X267476D01*
X265721D02*X265136Y101892D01*
Y103062D01*
X265721Y103647D02*X265136Y103062D01*
X265721Y103647D02*X266891D01*
X259520D02*X258350Y101307D01*
X257180Y103647D02*X258350Y101307D01*
X255776Y105051D02*X254840Y105987D01*
Y101307D02*Y105987D01*
X254021Y101307D02*X255776D01*
X252032D02*X252617D01*
X250628Y101892D02*X250043Y101307D01*
X250628Y101892D02*Y105402D01*
X250043Y105987D01*
X248873D02*X250043D01*
X248873D02*X248288Y105402D01*
Y101892D02*Y105402D01*
X248873Y101307D02*X248288Y101892D01*
X248873Y101307D02*X250043D01*
X250628Y102477D02*X248288Y104817D01*
X291617Y35807D02*X293138D01*
X293957Y36626D02*X293138Y35807D01*
X293957Y36626D02*Y39668D01*
X293138Y40487D01*
X291617D02*X293138D01*
X287873Y35807D02*X289394D01*
X290213Y36626D02*X289394Y35807D01*
X290213Y36626D02*Y39668D01*
X289394Y40487D01*
X287873D02*X289394D01*
X282023Y35807D02*X284363D01*
X282023D02*X281438Y36392D01*
Y37796D01*
X282023Y38381D02*X281438Y37796D01*
X282023Y38381D02*X283778D01*
Y35807D02*Y40487D01*
X282023D02*X284363D01*
X282023D02*X281438Y39902D01*
Y38966D02*Y39902D01*
X282023Y38381D02*X281438Y38966D01*
X280034Y40487D02*X278864Y38147D01*
X277694Y40487D01*
X278864Y35807D02*Y38147D01*
X273950D02*X276290D01*
X270206Y40487D02*X269621Y39902D01*
X270206Y40487D02*X271961D01*
X272546Y39902D02*X271961Y40487D01*
X272546Y38732D02*Y39902D01*
Y38732D02*X271961Y38147D01*
X270206D02*X271961D01*
X270206D02*X269621Y37562D01*
Y36392D02*Y37562D01*
X270206Y35807D02*X269621Y36392D01*
X270206Y35807D02*X271961D01*
X272546Y36392D02*X271961Y35807D01*
X268217D02*Y39317D01*
X267398Y40487D01*
X266111D02*X267398D01*
X266111D02*X265292Y39317D01*
Y35807D02*Y39317D01*
Y38147D02*X268217D01*
X292000Y27892D02*X291415Y27307D01*
X292000Y31402D02*X291415Y31987D01*
X292000Y27892D02*Y31402D01*
X287671Y27307D02*X289192D01*
X290011Y28126D02*X289192Y27307D01*
X290011Y28126D02*Y31168D01*
X289192Y31987D01*
X287671D02*X289192D01*
X286267D02*X285682Y31402D01*
Y27892D02*Y31402D01*
X286267Y27307D02*X285682Y27892D01*
X282172Y31402D02*X281587Y31987D01*
X279832D02*X281587D01*
X279832D02*X279247Y31402D01*
Y30232D02*Y31402D01*
X282172Y27307D02*X279247Y30232D01*
Y27307D02*X282172D01*
X277843Y27892D02*X277258Y27307D01*
X277843Y27892D02*Y31402D01*
X277258Y31987D01*
X276088D02*X277258D01*
X276088D02*X275503Y31402D01*
Y27892D02*Y31402D01*
X276088Y27307D02*X275503Y27892D01*
X276088Y27307D02*X277258D01*
X277843Y28477D02*X275503Y30817D01*
X274099Y31402D02*X273514Y31987D01*
X271759D02*X273514D01*
X271759D02*X271174Y31402D01*
Y30232D02*Y31402D01*
X274099Y27307D02*X271174Y30232D01*
Y27307D02*X274099D01*
X269770Y27892D02*X269185Y27307D01*
X269770Y27892D02*Y31402D01*
X269185Y31987D01*
X268015D02*X269185D01*
X268015D02*X267430Y31402D01*
Y27892D02*Y31402D01*
X268015Y27307D02*X267430Y27892D01*
X268015Y27307D02*X269185D01*
X269770Y28477D02*X267430Y30817D01*
X88660Y101307D02*X90181D01*
X91000Y102126D02*X90181Y101307D01*
X91000Y102126D02*Y105168D01*
X90181Y105987D01*
X88660D02*X90181D01*
X87256Y101307D02*Y105987D01*
Y103647D02*X84916Y105987D01*
X87256Y103647D02*X84916Y101307D01*
X81172Y105987D02*X83512D01*
X82342Y101307D02*Y105987D01*
X77428Y103647D02*X79768D01*
X75439Y101307D02*Y105987D01*
X73918D02*X73099Y105168D01*
Y102126D02*Y105168D01*
X73918Y101307D02*X73099Y102126D01*
X73918Y101307D02*X76024D01*
X73918Y105987D02*X76024D01*
X70525D02*X71695D01*
X71110Y101307D02*Y105987D01*
X70525Y101307D02*X71695D01*
X69121D02*Y105987D01*
X66196Y101307D01*
Y105987D01*
X62452D02*X61867Y105402D01*
X62452Y105987D02*X64207D01*
X64792Y105402D02*X64207Y105987D01*
X64792Y101892D02*Y105402D01*
Y101892D02*X64207Y101307D01*
X62452D02*X64207D01*
X62452D02*X61867Y101892D01*
Y103062D01*
X62452Y103647D02*X61867Y103062D01*
X62452Y103647D02*X63622D01*
X59878Y101307D02*Y105987D01*
X58357D02*X57538Y105168D01*
Y102126D02*Y105168D01*
X58357Y101307D02*X57538Y102126D01*
X58357Y101307D02*X60463D01*
X58357Y105987D02*X60463D01*
X56134Y101892D02*Y105402D01*
X55549Y105987D01*
X54379D02*X55549D01*
X54379D02*X53794Y105402D01*
Y101892D02*Y105402D01*
X54379Y101307D02*X53794Y101892D01*
X54379Y101307D02*X55549D01*
X56134Y101892D02*X55549Y101307D01*
X52390D02*Y105987D01*
X49465Y101307D01*
Y105987D01*
X45721D02*X45136Y105402D01*
X45721Y105987D02*X47476D01*
X48061Y105402D02*X47476Y105987D01*
X48061Y101892D02*Y105402D01*
Y101892D02*X47476Y101307D01*
X45721D02*X47476D01*
X45721D02*X45136Y101892D01*
Y103062D01*
X45721Y103647D02*X45136Y103062D01*
X45721Y103647D02*X46891D01*
X39520D02*X38350Y101307D01*
X37180Y103647D02*X38350Y101307D01*
X35776Y105051D02*X34840Y105987D01*
Y101307D02*Y105987D01*
X34021Y101307D02*X35776D01*
X32032D02*X32617D01*
X30628Y101892D02*X30043Y101307D01*
X30628Y101892D02*Y105402D01*
X30043Y105987D01*
X28873D02*X30043D01*
X28873D02*X28288Y105402D01*
Y101892D02*Y105402D01*
X28873Y101307D02*X28288Y101892D01*
X28873Y101307D02*X30043D01*
X30628Y102477D02*X28288Y104817D01*
X71617Y35807D02*X73138D01*
X73957Y36626D02*X73138Y35807D01*
X73957Y36626D02*Y39668D01*
X73138Y40487D01*
X71617D02*X73138D01*
X67873Y35807D02*X69394D01*
X70213Y36626D02*X69394Y35807D01*
X70213Y36626D02*Y39668D01*
X69394Y40487D01*
X67873D02*X69394D01*
X62023Y35807D02*X64363D01*
X62023D02*X61438Y36392D01*
Y37796D01*
X62023Y38381D02*X61438Y37796D01*
X62023Y38381D02*X63778D01*
Y35807D02*Y40487D01*
X62023D02*X64363D01*
X62023D02*X61438Y39902D01*
Y38966D02*Y39902D01*
X62023Y38381D02*X61438Y38966D01*
X60034Y40487D02*X58864Y38147D01*
X57694Y40487D01*
X58864Y35807D02*Y38147D01*
X53950D02*X56290D01*
X50206Y40487D02*X49621Y39902D01*
X50206Y40487D02*X51961D01*
X52546Y39902D02*X51961Y40487D01*
X52546Y38732D02*Y39902D01*
Y38732D02*X51961Y38147D01*
X50206D02*X51961D01*
X50206D02*X49621Y37562D01*
Y36392D02*Y37562D01*
X50206Y35807D02*X49621Y36392D01*
X50206Y35807D02*X51961D01*
X52546Y36392D02*X51961Y35807D01*
X48217D02*Y39317D01*
X47398Y40487D01*
X46111D02*X47398D01*
X46111D02*X45292Y39317D01*
Y35807D02*Y39317D01*
Y38147D02*X48217D01*
X72000Y27892D02*X71415Y27307D01*
X72000Y31402D02*X71415Y31987D01*
X72000Y27892D02*Y31402D01*
X67671Y27307D02*X69192D01*
X70011Y28126D02*X69192Y27307D01*
X70011Y28126D02*Y31168D01*
X69192Y31987D01*
X67671D02*X69192D01*
X66267D02*X65682Y31402D01*
Y27892D02*Y31402D01*
X66267Y27307D02*X65682Y27892D01*
X62172Y31402D02*X61587Y31987D01*
X59832D02*X61587D01*
X59832D02*X59247Y31402D01*
Y30232D02*Y31402D01*
X62172Y27307D02*X59247Y30232D01*
Y27307D02*X62172D01*
X57843Y27892D02*X57258Y27307D01*
X57843Y27892D02*Y31402D01*
X57258Y31987D01*
X56088D02*X57258D01*
X56088D02*X55503Y31402D01*
Y27892D02*Y31402D01*
X56088Y27307D02*X55503Y27892D01*
X56088Y27307D02*X57258D01*
X57843Y28477D02*X55503Y30817D01*
X54099Y31402D02*X53514Y31987D01*
X51759D02*X53514D01*
X51759D02*X51174Y31402D01*
Y30232D02*Y31402D01*
X54099Y27307D02*X51174Y30232D01*
Y27307D02*X54099D01*
X49770Y27892D02*X49185Y27307D01*
X49770Y27892D02*Y31402D01*
X49185Y31987D01*
X48015D02*X49185D01*
X48015D02*X47430Y31402D01*
Y27892D02*Y31402D01*
X48015Y27307D02*X47430Y27892D01*
X48015Y27307D02*X49185D01*
X49770Y28477D02*X47430Y30817D01*
X418660Y101307D02*X420181D01*
X421000Y102126D02*X420181Y101307D01*
X421000Y102126D02*Y105168D01*
X420181Y105987D01*
X418660D02*X420181D01*
X417256Y101307D02*Y105987D01*
Y103647D02*X414916Y105987D01*
X417256Y103647D02*X414916Y101307D01*
X411172Y105987D02*X413512D01*
X412342Y101307D02*Y105987D01*
X407428Y103647D02*X409768D01*
X405439Y101307D02*Y105987D01*
X403918D02*X403099Y105168D01*
Y102126D02*Y105168D01*
X403918Y101307D02*X403099Y102126D01*
X403918Y101307D02*X406024D01*
X403918Y105987D02*X406024D01*
X400525D02*X401695D01*
X401110Y101307D02*Y105987D01*
X400525Y101307D02*X401695D01*
X399121D02*Y105987D01*
X396196Y101307D01*
Y105987D01*
X392452D02*X391867Y105402D01*
X392452Y105987D02*X394207D01*
X394792Y105402D02*X394207Y105987D01*
X394792Y101892D02*Y105402D01*
Y101892D02*X394207Y101307D01*
X392452D02*X394207D01*
X392452D02*X391867Y101892D01*
Y103062D01*
X392452Y103647D02*X391867Y103062D01*
X392452Y103647D02*X393622D01*
X389878Y101307D02*Y105987D01*
X388357D02*X387538Y105168D01*
Y102126D02*Y105168D01*
X388357Y101307D02*X387538Y102126D01*
X388357Y101307D02*X390463D01*
X388357Y105987D02*X390463D01*
X386134Y101892D02*Y105402D01*
X385549Y105987D01*
X384379D02*X385549D01*
X384379D02*X383794Y105402D01*
Y101892D02*Y105402D01*
X384379Y101307D02*X383794Y101892D01*
X384379Y101307D02*X385549D01*
X386134Y101892D02*X385549Y101307D01*
X382390D02*Y105987D01*
X379465Y101307D01*
Y105987D01*
X375721D02*X375136Y105402D01*
X375721Y105987D02*X377476D01*
X378061Y105402D02*X377476Y105987D01*
X378061Y101892D02*Y105402D01*
Y101892D02*X377476Y101307D01*
X375721D02*X377476D01*
X375721D02*X375136Y101892D01*
Y103062D01*
X375721Y103647D02*X375136Y103062D01*
X375721Y103647D02*X376891D01*
X369520D02*X368350Y101307D01*
X367180Y103647D02*X368350Y101307D01*
X365776Y105051D02*X364840Y105987D01*
Y101307D02*Y105987D01*
X364021Y101307D02*X365776D01*
X362032D02*X362617D01*
X360628Y101892D02*X360043Y101307D01*
X360628Y101892D02*Y105402D01*
X360043Y105987D01*
X358873D02*X360043D01*
X358873D02*X358288Y105402D01*
Y101892D02*Y105402D01*
X358873Y101307D02*X358288Y101892D01*
X358873Y101307D02*X360043D01*
X360628Y102477D02*X358288Y104817D01*
X401617Y35807D02*X403138D01*
X403957Y36626D02*X403138Y35807D01*
X403957Y36626D02*Y39668D01*
X403138Y40487D01*
X401617D02*X403138D01*
X397873Y35807D02*X399394D01*
X400213Y36626D02*X399394Y35807D01*
X400213Y36626D02*Y39668D01*
X399394Y40487D01*
X397873D02*X399394D01*
X392023Y35807D02*X394363D01*
X392023D02*X391438Y36392D01*
Y37796D01*
X392023Y38381D02*X391438Y37796D01*
X392023Y38381D02*X393778D01*
Y35807D02*Y40487D01*
X392023D02*X394363D01*
X392023D02*X391438Y39902D01*
Y38966D02*Y39902D01*
X392023Y38381D02*X391438Y38966D01*
X390034Y40487D02*X388864Y38147D01*
X387694Y40487D01*
X388864Y35807D02*Y38147D01*
X383950D02*X386290D01*
X380206Y40487D02*X379621Y39902D01*
X380206Y40487D02*X381961D01*
X382546Y39902D02*X381961Y40487D01*
X382546Y38732D02*Y39902D01*
Y38732D02*X381961Y38147D01*
X380206D02*X381961D01*
X380206D02*X379621Y37562D01*
Y36392D02*Y37562D01*
X380206Y35807D02*X379621Y36392D01*
X380206Y35807D02*X381961D01*
X382546Y36392D02*X381961Y35807D01*
X378217D02*Y39317D01*
X377398Y40487D01*
X376111D02*X377398D01*
X376111D02*X375292Y39317D01*
Y35807D02*Y39317D01*
Y38147D02*X378217D01*
X511617Y35807D02*X513138D01*
X513957Y36626D02*X513138Y35807D01*
X513957Y36626D02*Y39668D01*
X513138Y40487D01*
X511617D02*X513138D01*
X507873Y35807D02*X509394D01*
X510213Y36626D02*X509394Y35807D01*
X510213Y36626D02*Y39668D01*
X509394Y40487D01*
X507873D02*X509394D01*
X502023Y35807D02*X504363D01*
X502023D02*X501438Y36392D01*
Y37796D01*
X502023Y38381D02*X501438Y37796D01*
X502023Y38381D02*X503778D01*
Y35807D02*Y40487D01*
X502023D02*X504363D01*
X502023D02*X501438Y39902D01*
Y38966D02*Y39902D01*
X502023Y38381D02*X501438Y38966D01*
X500034Y40487D02*X498864Y38147D01*
X497694Y40487D01*
X498864Y35807D02*Y38147D01*
X493950D02*X496290D01*
X490206Y40487D02*X489621Y39902D01*
X490206Y40487D02*X491961D01*
X492546Y39902D02*X491961Y40487D01*
X492546Y38732D02*Y39902D01*
Y38732D02*X491961Y38147D01*
X490206D02*X491961D01*
X490206D02*X489621Y37562D01*
Y36392D02*Y37562D01*
X490206Y35807D02*X489621Y36392D01*
X490206Y35807D02*X491961D01*
X492546Y36392D02*X491961Y35807D01*
X488217D02*Y39317D01*
X487398Y40487D01*
X486111D02*X487398D01*
X486111D02*X485292Y39317D01*
Y35807D02*Y39317D01*
Y38147D02*X488217D01*
X402000Y27892D02*X401415Y27307D01*
X402000Y31402D02*X401415Y31987D01*
X402000Y27892D02*Y31402D01*
X397671Y27307D02*X399192D01*
X400011Y28126D02*X399192Y27307D01*
X400011Y28126D02*Y31168D01*
X399192Y31987D01*
X397671D02*X399192D01*
X396267D02*X395682Y31402D01*
Y27892D02*Y31402D01*
X396267Y27307D02*X395682Y27892D01*
X392172Y31402D02*X391587Y31987D01*
X389832D02*X391587D01*
X389832D02*X389247Y31402D01*
Y30232D02*Y31402D01*
X392172Y27307D02*X389247Y30232D01*
Y27307D02*X392172D01*
X387843Y27892D02*X387258Y27307D01*
X387843Y27892D02*Y31402D01*
X387258Y31987D01*
X386088D02*X387258D01*
X386088D02*X385503Y31402D01*
Y27892D02*Y31402D01*
X386088Y27307D02*X385503Y27892D01*
X386088Y27307D02*X387258D01*
X387843Y28477D02*X385503Y30817D01*
X384099Y31402D02*X383514Y31987D01*
X381759D02*X383514D01*
X381759D02*X381174Y31402D01*
Y30232D02*Y31402D01*
X384099Y27307D02*X381174Y30232D01*
Y27307D02*X384099D01*
X379770Y27892D02*X379185Y27307D01*
X379770Y27892D02*Y31402D01*
X379185Y31987D01*
X378015D02*X379185D01*
X378015D02*X377430Y31402D01*
Y27892D02*Y31402D01*
X378015Y27307D02*X377430Y27892D01*
X378015Y27307D02*X379185D01*
X379770Y28477D02*X377430Y30817D01*
X512000Y27892D02*X511415Y27307D01*
X512000Y31402D02*X511415Y31987D01*
X512000Y27892D02*Y31402D01*
X507671Y27307D02*X509192D01*
X510011Y28126D02*X509192Y27307D01*
X510011Y28126D02*Y31168D01*
X509192Y31987D01*
X507671D02*X509192D01*
X506267D02*X505682Y31402D01*
Y27892D02*Y31402D01*
X506267Y27307D02*X505682Y27892D01*
X502172Y31402D02*X501587Y31987D01*
X499832D02*X501587D01*
X499832D02*X499247Y31402D01*
Y30232D02*Y31402D01*
X502172Y27307D02*X499247Y30232D01*
Y27307D02*X502172D01*
X497843Y27892D02*X497258Y27307D01*
X497843Y27892D02*Y31402D01*
X497258Y31987D01*
X496088D02*X497258D01*
X496088D02*X495503Y31402D01*
Y27892D02*Y31402D01*
X496088Y27307D02*X495503Y27892D01*
X496088Y27307D02*X497258D01*
X497843Y28477D02*X495503Y30817D01*
X494099Y31402D02*X493514Y31987D01*
X491759D02*X493514D01*
X491759D02*X491174Y31402D01*
Y30232D02*Y31402D01*
X494099Y27307D02*X491174Y30232D01*
Y27307D02*X494099D01*
X489770Y27892D02*X489185Y27307D01*
X489770Y27892D02*Y31402D01*
X489185Y31987D01*
X488015D02*X489185D01*
X488015D02*X487430Y31402D01*
Y27892D02*Y31402D01*
X488015Y27307D02*X487430Y27892D01*
X488015Y27307D02*X489185D01*
X489770Y28477D02*X487430Y30817D01*
X528660Y101307D02*X530181D01*
X531000Y102126D02*X530181Y101307D01*
X531000Y102126D02*Y105168D01*
X530181Y105987D01*
X528660D02*X530181D01*
X527256Y101307D02*Y105987D01*
Y103647D02*X524916Y105987D01*
X527256Y103647D02*X524916Y101307D01*
X521172Y105987D02*X523512D01*
X522342Y101307D02*Y105987D01*
X517428Y103647D02*X519768D01*
X515439Y101307D02*Y105987D01*
X513918D02*X513099Y105168D01*
Y102126D02*Y105168D01*
X513918Y101307D02*X513099Y102126D01*
X513918Y101307D02*X516024D01*
X513918Y105987D02*X516024D01*
X510525D02*X511695D01*
X511110Y101307D02*Y105987D01*
X510525Y101307D02*X511695D01*
X509121D02*Y105987D01*
X506196Y101307D01*
Y105987D01*
X502452D02*X501867Y105402D01*
X502452Y105987D02*X504207D01*
X504792Y105402D02*X504207Y105987D01*
X504792Y101892D02*Y105402D01*
Y101892D02*X504207Y101307D01*
X502452D02*X504207D01*
X502452D02*X501867Y101892D01*
Y103062D01*
X502452Y103647D02*X501867Y103062D01*
X502452Y103647D02*X503622D01*
X499878Y101307D02*Y105987D01*
X498357D02*X497538Y105168D01*
Y102126D02*Y105168D01*
X498357Y101307D02*X497538Y102126D01*
X498357Y101307D02*X500463D01*
X498357Y105987D02*X500463D01*
X496134Y101892D02*Y105402D01*
X495549Y105987D01*
X494379D02*X495549D01*
X494379D02*X493794Y105402D01*
Y101892D02*Y105402D01*
X494379Y101307D02*X493794Y101892D01*
X494379Y101307D02*X495549D01*
X496134Y101892D02*X495549Y101307D01*
X492390D02*Y105987D01*
X489465Y101307D01*
Y105987D01*
X485721D02*X485136Y105402D01*
X485721Y105987D02*X487476D01*
X488061Y105402D02*X487476Y105987D01*
X488061Y101892D02*Y105402D01*
Y101892D02*X487476Y101307D01*
X485721D02*X487476D01*
X485721D02*X485136Y101892D01*
Y103062D01*
X485721Y103647D02*X485136Y103062D01*
X485721Y103647D02*X486891D01*
X479520D02*X478350Y101307D01*
X477180Y103647D02*X478350Y101307D01*
X475776Y105051D02*X474840Y105987D01*
Y101307D02*Y105987D01*
X474021Y101307D02*X475776D01*
X472032D02*X472617D01*
X470628Y101892D02*X470043Y101307D01*
X470628Y101892D02*Y105402D01*
X470043Y105987D01*
X468873D02*X470043D01*
X468873D02*X468288Y105402D01*
Y101892D02*Y105402D01*
X468873Y101307D02*X468288Y101892D01*
X468873Y101307D02*X470043D01*
X470628Y102477D02*X468288Y104817D01*
G54D57*X256378Y95591D02*X303622D01*
X244567Y83780D02*Y44409D01*
X315433D01*
Y83780D02*Y44409D01*
X366378Y95591D02*X413622D01*
X354567Y83780D02*Y44409D01*
X425433D01*
Y83780D02*Y44409D01*
X476378Y95591D02*X523622D01*
X464567Y83780D02*Y44409D01*
X535433D01*
Y83780D02*Y44409D01*
X36378Y95591D02*X83622D01*
X24567Y83780D02*Y44409D01*
X95433D01*
Y83780D02*Y44409D01*
X146378Y95591D02*X193622D01*
X134567Y83780D02*Y44409D01*
X205433D01*
Y83780D02*Y44409D01*
G54D56*X283000Y80000D02*X282500Y79500D01*
X283000Y80000D02*X284500D01*
X285000Y79500D02*X284500Y80000D01*
X285000Y78500D02*Y79500D01*
Y78500D02*X284500Y78000D01*
X283000D02*X284500D01*
X283000D02*X282500Y77500D01*
Y76500D02*Y77500D01*
X283000Y76000D02*X282500Y76500D01*
X283000Y76000D02*X284500D01*
X285000Y76500D02*X284500Y76000D01*
X280800D02*Y80000D01*
X279300D02*X281300D01*
X279300D02*X278800Y79500D01*
Y78500D02*Y79500D01*
X279300Y78000D02*X278800Y78500D01*
X279300Y78000D02*X280800D01*
X277600Y76000D02*Y80000D01*
Y78000D02*X275600Y80000D01*
X277600Y78000D02*X275600Y76000D01*
X393000Y80000D02*X392500Y79500D01*
X393000Y80000D02*X394500D01*
X395000Y79500D02*X394500Y80000D01*
X395000Y78500D02*Y79500D01*
Y78500D02*X394500Y78000D01*
X393000D02*X394500D01*
X393000D02*X392500Y77500D01*
Y76500D02*Y77500D01*
X393000Y76000D02*X392500Y76500D01*
X393000Y76000D02*X394500D01*
X395000Y76500D02*X394500Y76000D01*
X390800D02*Y80000D01*
X389300D02*X391300D01*
X389300D02*X388800Y79500D01*
Y78500D02*Y79500D01*
X389300Y78000D02*X388800Y78500D01*
X389300Y78000D02*X390800D01*
X387600Y76000D02*Y80000D01*
Y78000D02*X385600Y80000D01*
X387600Y78000D02*X385600Y76000D01*
X503000Y80000D02*X502500Y79500D01*
X503000Y80000D02*X504500D01*
X505000Y79500D02*X504500Y80000D01*
X505000Y78500D02*Y79500D01*
Y78500D02*X504500Y78000D01*
X503000D02*X504500D01*
X503000D02*X502500Y77500D01*
Y76500D02*Y77500D01*
X503000Y76000D02*X502500Y76500D01*
X503000Y76000D02*X504500D01*
X505000Y76500D02*X504500Y76000D01*
X500800D02*Y80000D01*
X499300D02*X501300D01*
X499300D02*X498800Y79500D01*
Y78500D02*Y79500D01*
X499300Y78000D02*X498800Y78500D01*
X499300Y78000D02*X500800D01*
X497600Y76000D02*Y80000D01*
Y78000D02*X495600Y80000D01*
X497600Y78000D02*X495600Y76000D01*
X63000Y80000D02*X62500Y79500D01*
X63000Y80000D02*X64500D01*
X65000Y79500D02*X64500Y80000D01*
X65000Y78500D02*Y79500D01*
Y78500D02*X64500Y78000D01*
X63000D02*X64500D01*
X63000D02*X62500Y77500D01*
Y76500D02*Y77500D01*
X63000Y76000D02*X62500Y76500D01*
X63000Y76000D02*X64500D01*
X65000Y76500D02*X64500Y76000D01*
X60800D02*Y80000D01*
X59300D02*X61300D01*
X59300D02*X58800Y79500D01*
Y78500D02*Y79500D01*
X59300Y78000D02*X58800Y78500D01*
X59300Y78000D02*X60800D01*
X57600Y76000D02*Y80000D01*
Y78000D02*X55600Y80000D01*
X57600Y78000D02*X55600Y76000D01*
X173000Y80000D02*X172500Y79500D01*
X173000Y80000D02*X174500D01*
X175000Y79500D02*X174500Y80000D01*
X175000Y78500D02*Y79500D01*
Y78500D02*X174500Y78000D01*
X173000D02*X174500D01*
X173000D02*X172500Y77500D01*
Y76500D02*Y77500D01*
X173000Y76000D02*X172500Y76500D01*
X173000Y76000D02*X174500D01*
X175000Y76500D02*X174500Y76000D01*
X170800D02*Y80000D01*
X169300D02*X171300D01*
X169300D02*X168800Y79500D01*
Y78500D02*Y79500D01*
X169300Y78000D02*X168800Y78500D01*
X169300Y78000D02*X170800D01*
X167600Y76000D02*Y80000D01*
Y78000D02*X165600Y80000D01*
X167600Y78000D02*X165600Y76000D01*
M02*
