G04 start of page 12 for group -4014 idx -4014 *
G04 Title: (unknown), bottompaste *
G04 Creator: pcb 20140316 *
G04 CreationDate: Sun 13 Sep 2020 05:46:49 PM GMT UTC *
G04 For: railfan *
G04 Format: Gerber/RS-274X *
G04 PCB-Dimensions (mil): 5600.00 1200.00 *
G04 PCB-Coordinate-Origin: lower left *
%MOIN*%
%FSLAX25Y25*%
%LNBOTTOMPASTE*%
%ADD68C,0.0001*%
G54D68*G36*
X85590Y95591D02*Y85748D01*
X95433D01*
Y95591D01*
X85590D01*
G37*
G36*
X24567D02*Y85748D01*
X34410D01*
Y95591D01*
X24567D01*
G37*
G36*
X195590D02*Y85748D01*
X205433D01*
Y95591D01*
X195590D01*
G37*
G36*
X134567D02*Y85748D01*
X144410D01*
Y95591D01*
X134567D01*
G37*
G36*
X305590D02*Y85748D01*
X315433D01*
Y95591D01*
X305590D01*
G37*
G36*
X244567D02*Y85748D01*
X254410D01*
Y95591D01*
X244567D01*
G37*
G36*
X415590D02*Y85748D01*
X425433D01*
Y95591D01*
X415590D01*
G37*
G36*
X354567D02*Y85748D01*
X364410D01*
Y95591D01*
X354567D01*
G37*
G36*
X525590D02*Y85748D01*
X535433D01*
Y95591D01*
X525590D01*
G37*
G36*
X464567D02*Y85748D01*
X474410D01*
Y95591D01*
X464567D01*
G37*
M02*
