G04 start of page 9 for group -4079 idx -4079 *
G04 Title: (unknown), topsilk *
G04 Creator: pcb 20140316 *
G04 CreationDate: Sun 13 Sep 2020 05:46:49 PM GMT UTC *
G04 For: railfan *
G04 Format: Gerber/RS-274X *
G04 PCB-Dimensions (mil): 5600.00 1200.00 *
G04 PCB-Coordinate-Origin: lower left *
%MOIN*%
%FSLAX25Y25*%
%LNTOPSILK*%
%ADD55C,0.0100*%
%ADD54C,0.0060*%
G54D54*X197500Y83010D02*X198490Y79050D01*
X199480Y83010D01*
X200668Y80535D02*Y79545D01*
Y80535D02*X201163Y81030D01*
X202153D01*
X202648Y80535D01*
Y79545D01*
X202153Y79050D02*X202648Y79545D01*
X201163Y79050D02*X202153D01*
X200668Y79545D02*X201163Y79050D01*
X203836Y83010D02*Y79545D01*
X204331Y79050D01*
X205321Y81030D02*Y79545D01*
X205816Y79050D01*
X206806D01*
X207301Y79545D01*
Y81030D02*Y79545D01*
X208984Y80535D02*Y79050D01*
Y80535D02*X209479Y81030D01*
X209974D01*
X210469Y80535D01*
Y79050D01*
Y80535D02*X210964Y81030D01*
X211459D01*
X211954Y80535D01*
Y79050D01*
X208489Y81030D02*X208984Y80535D01*
X213637Y79050D02*X215122D01*
X213142Y79545D02*X213637Y79050D01*
X213142Y80535D02*Y79545D01*
Y80535D02*X213637Y81030D01*
X214627D01*
X215122Y80535D01*
X213142Y80040D02*X215122D01*
Y80535D02*Y80040D01*
X307500Y83010D02*X308490Y79050D01*
X309480Y83010D01*
X310668Y80535D02*Y79545D01*
Y80535D02*X311163Y81030D01*
X312153D01*
X312648Y80535D01*
Y79545D01*
X312153Y79050D02*X312648Y79545D01*
X311163Y79050D02*X312153D01*
X310668Y79545D02*X311163Y79050D01*
X313836Y83010D02*Y79545D01*
X314331Y79050D01*
X315321Y81030D02*Y79545D01*
X315816Y79050D01*
X316806D01*
X317301Y79545D01*
Y81030D02*Y79545D01*
X318984Y80535D02*Y79050D01*
Y80535D02*X319479Y81030D01*
X319974D01*
X320469Y80535D01*
Y79050D01*
Y80535D02*X320964Y81030D01*
X321459D01*
X321954Y80535D01*
Y79050D01*
X318489Y81030D02*X318984Y80535D01*
X323637Y79050D02*X325122D01*
X323142Y79545D02*X323637Y79050D01*
X323142Y80535D02*Y79545D01*
Y80535D02*X323637Y81030D01*
X324627D01*
X325122Y80535D01*
X323142Y80040D02*X325122D01*
Y80535D02*Y80040D01*
X87500Y83010D02*X88490Y79050D01*
X89480Y83010D01*
X90668Y80535D02*Y79545D01*
Y80535D02*X91163Y81030D01*
X92153D01*
X92648Y80535D01*
Y79545D01*
X92153Y79050D02*X92648Y79545D01*
X91163Y79050D02*X92153D01*
X90668Y79545D02*X91163Y79050D01*
X93836Y83010D02*Y79545D01*
X94331Y79050D01*
X95321Y81030D02*Y79545D01*
X95816Y79050D01*
X96806D01*
X97301Y79545D01*
Y81030D02*Y79545D01*
X98984Y80535D02*Y79050D01*
Y80535D02*X99479Y81030D01*
X99974D01*
X100469Y80535D01*
Y79050D01*
Y80535D02*X100964Y81030D01*
X101459D01*
X101954Y80535D01*
Y79050D01*
X98489Y81030D02*X98984Y80535D01*
X103637Y79050D02*X105122D01*
X103142Y79545D02*X103637Y79050D01*
X103142Y80535D02*Y79545D01*
Y80535D02*X103637Y81030D01*
X104627D01*
X105122Y80535D01*
X103142Y80040D02*X105122D01*
Y80535D02*Y80040D01*
X27000Y108000D02*X28000D01*
X27500D02*Y104000D01*
X27000D02*X28000D01*
X29200Y105500D02*Y104500D01*
Y105500D02*X29700Y106000D01*
X30700D01*
X31200Y105500D01*
Y104500D01*
X30700Y104000D02*X31200Y104500D01*
X29700Y104000D02*X30700D01*
X29200Y104500D02*X29700Y104000D01*
X32400Y106000D02*Y104500D01*
X32900Y104000D01*
X33400D01*
X33900Y104500D01*
Y106000D02*Y104500D01*
X34400Y104000D01*
X34900D01*
X35400Y104500D01*
Y106000D02*Y104500D01*
X38100Y106000D02*X38600Y105500D01*
X37100Y106000D02*X38100D01*
X36600Y105500D02*X37100Y106000D01*
X36600Y105500D02*Y104500D01*
X37100Y104000D01*
X38600Y106000D02*Y104500D01*
X39100Y104000D01*
X37100D02*X38100D01*
X38600Y104500D01*
X44100Y108000D02*X44600Y107500D01*
X42600Y108000D02*X44100D01*
X42100Y107500D02*X42600Y108000D01*
X42100Y107500D02*Y106500D01*
X42600Y106000D01*
X44100D01*
X44600Y105500D01*
Y104500D01*
X44100Y104000D02*X44600Y104500D01*
X42600Y104000D02*X44100D01*
X42100Y104500D02*X42600Y104000D01*
X46300Y106000D02*X47800D01*
X45800Y105500D02*X46300Y106000D01*
X45800Y105500D02*Y104500D01*
X46300Y104000D01*
X47800D01*
X50500Y106000D02*X51000Y105500D01*
X49500Y106000D02*X50500D01*
X49000Y105500D02*X49500Y106000D01*
X49000Y105500D02*Y104500D01*
X49500Y104000D01*
X51000Y106000D02*Y104500D01*
X51500Y104000D01*
X49500D02*X50500D01*
X51000Y104500D01*
X52700Y108000D02*Y104500D01*
X53200Y104000D01*
X54700D02*X56200D01*
X54200Y104500D02*X54700Y104000D01*
X54200Y105500D02*Y104500D01*
Y105500D02*X54700Y106000D01*
X55700D01*
X56200Y105500D01*
X54200Y105000D02*X56200D01*
Y105500D02*Y105000D01*
X59400Y108000D02*Y104000D01*
X58900D02*X59400Y104500D01*
X57900Y104000D02*X58900D01*
X57400Y104500D02*X57900Y104000D01*
X57400Y105500D02*Y104500D01*
Y105500D02*X57900Y106000D01*
X58900D01*
X59400Y105500D01*
X62400Y106200D02*X63900D01*
X62400Y104000D02*X64400D01*
X62400Y108000D02*Y104000D01*
Y108000D02*X64400D01*
X66100Y105500D02*Y104000D01*
Y105500D02*X66600Y106000D01*
X67100D01*
X67600Y105500D01*
Y104000D01*
X65600Y106000D02*X66100Y105500D01*
X70300Y106000D02*X70800Y105500D01*
X69300Y106000D02*X70300D01*
X68800Y105500D02*X69300Y106000D01*
X68800Y105500D02*Y104500D01*
X69300Y104000D01*
X70300D01*
X70800Y104500D01*
X68800Y103000D02*X69300Y102500D01*
X70300D01*
X70800Y103000D01*
Y106000D02*Y103000D01*
X72000Y107000D02*Y106900D01*
Y105500D02*Y104000D01*
X73500Y105500D02*Y104000D01*
Y105500D02*X74000Y106000D01*
X74500D01*
X75000Y105500D01*
Y104000D01*
X73000Y106000D02*X73500Y105500D01*
X76700Y104000D02*X78200D01*
X76200Y104500D02*X76700Y104000D01*
X76200Y105500D02*Y104500D01*
Y105500D02*X76700Y106000D01*
X77700D01*
X78200Y105500D01*
X76200Y105000D02*X78200D01*
Y105500D02*Y105000D01*
X79900Y104000D02*X81400D01*
X79400Y104500D02*X79900Y104000D01*
X79400Y105500D02*Y104500D01*
Y105500D02*X79900Y106000D01*
X80900D01*
X81400Y105500D01*
X79400Y105000D02*X81400D01*
Y105500D02*Y105000D01*
X83100Y105500D02*Y104000D01*
Y105500D02*X83600Y106000D01*
X84600D01*
X82600D02*X83100Y105500D01*
X85800Y107000D02*Y106900D01*
Y105500D02*Y104000D01*
X87300Y105500D02*Y104000D01*
Y105500D02*X87800Y106000D01*
X88300D01*
X88800Y105500D01*
Y104000D01*
X86800Y106000D02*X87300Y105500D01*
X91500Y106000D02*X92000Y105500D01*
X90500Y106000D02*X91500D01*
X90000Y105500D02*X90500Y106000D01*
X90000Y105500D02*Y104500D01*
X90500Y104000D01*
X91500D01*
X92000Y104500D01*
X90000Y103000D02*X90500Y102500D01*
X91500D01*
X92000Y103000D01*
Y106000D02*Y103000D01*
X42500Y101500D02*Y101400D01*
Y100000D02*Y98500D01*
X45000Y100500D02*X45500Y100000D01*
X44000Y100500D02*X45000D01*
X43500Y100000D02*X44000Y100500D01*
X43500Y100000D02*Y99000D01*
X44000Y98500D01*
X45500Y100500D02*Y99000D01*
X46000Y98500D01*
X44000D02*X45000D01*
X45500Y99000D01*
X47700Y98500D02*X49200D01*
X49700Y99000D01*
X49200Y99500D02*X49700Y99000D01*
X47700Y99500D02*X49200D01*
X47200Y100000D02*X47700Y99500D01*
X47200Y100000D02*X47700Y100500D01*
X49200D01*
X49700Y100000D01*
X47200Y99000D02*X47700Y98500D01*
X51400Y100500D02*X52900D01*
X50900Y100000D02*X51400Y100500D01*
X50900Y100000D02*Y99000D01*
X51400Y98500D01*
X52900D01*
X55600Y100500D02*X56100Y100000D01*
X54600Y100500D02*X55600D01*
X54100Y100000D02*X54600Y100500D01*
X54100Y100000D02*Y99000D01*
X54600Y98500D01*
X56100Y100500D02*Y99000D01*
X56600Y98500D01*
X54600D02*X55600D01*
X56100Y99000D01*
X57800Y102500D02*Y99000D01*
X58300Y98500D01*
X59800D02*X61300D01*
X59300Y99000D02*X59800Y98500D01*
X59300Y100000D02*Y99000D01*
Y100000D02*X59800Y100500D01*
X60800D01*
X61300Y100000D01*
X59300Y99500D02*X61300D01*
Y100000D02*Y99500D01*
X64500Y102500D02*Y98500D01*
X64000D02*X64500Y99000D01*
X63000Y98500D02*X64000D01*
X62500Y99000D02*X63000Y98500D01*
X62500Y100000D02*Y99000D01*
Y100000D02*X63000Y100500D01*
X64000D01*
X64500Y100000D01*
X65700Y98500D02*X66200D01*
X67900Y100500D02*X69400D01*
X67400Y100000D02*X67900Y100500D01*
X67400Y100000D02*Y99000D01*
X67900Y98500D01*
X69400D01*
X70600Y100000D02*Y99000D01*
Y100000D02*X71100Y100500D01*
X72100D01*
X72600Y100000D01*
Y99000D01*
X72100Y98500D02*X72600Y99000D01*
X71100Y98500D02*X72100D01*
X70600Y99000D02*X71100Y98500D01*
X74300Y100000D02*Y98500D01*
Y100000D02*X74800Y100500D01*
X75300D01*
X75800Y100000D01*
Y98500D01*
Y100000D02*X76300Y100500D01*
X76800D01*
X77300Y100000D01*
Y98500D01*
X73800Y100500D02*X74300Y100000D01*
X137000Y108000D02*X138000D01*
X137500D02*Y104000D01*
X137000D02*X138000D01*
X139200Y105500D02*Y104500D01*
Y105500D02*X139700Y106000D01*
X140700D01*
X141200Y105500D01*
Y104500D01*
X140700Y104000D02*X141200Y104500D01*
X139700Y104000D02*X140700D01*
X139200Y104500D02*X139700Y104000D01*
X142400Y106000D02*Y104500D01*
X142900Y104000D01*
X143400D01*
X143900Y104500D01*
Y106000D02*Y104500D01*
X144400Y104000D01*
X144900D01*
X145400Y104500D01*
Y106000D02*Y104500D01*
X148100Y106000D02*X148600Y105500D01*
X147100Y106000D02*X148100D01*
X146600Y105500D02*X147100Y106000D01*
X146600Y105500D02*Y104500D01*
X147100Y104000D01*
X148600Y106000D02*Y104500D01*
X149100Y104000D01*
X147100D02*X148100D01*
X148600Y104500D01*
X154100Y108000D02*X154600Y107500D01*
X152600Y108000D02*X154100D01*
X152100Y107500D02*X152600Y108000D01*
X152100Y107500D02*Y106500D01*
X152600Y106000D01*
X154100D01*
X154600Y105500D01*
Y104500D01*
X154100Y104000D02*X154600Y104500D01*
X152600Y104000D02*X154100D01*
X152100Y104500D02*X152600Y104000D01*
X156300Y106000D02*X157800D01*
X155800Y105500D02*X156300Y106000D01*
X155800Y105500D02*Y104500D01*
X156300Y104000D01*
X157800D01*
X160500Y106000D02*X161000Y105500D01*
X159500Y106000D02*X160500D01*
X159000Y105500D02*X159500Y106000D01*
X159000Y105500D02*Y104500D01*
X159500Y104000D01*
X161000Y106000D02*Y104500D01*
X161500Y104000D01*
X159500D02*X160500D01*
X161000Y104500D01*
X162700Y108000D02*Y104500D01*
X163200Y104000D01*
X164700D02*X166200D01*
X164200Y104500D02*X164700Y104000D01*
X164200Y105500D02*Y104500D01*
Y105500D02*X164700Y106000D01*
X165700D01*
X166200Y105500D01*
X164200Y105000D02*X166200D01*
Y105500D02*Y105000D01*
X169400Y108000D02*Y104000D01*
X168900D02*X169400Y104500D01*
X167900Y104000D02*X168900D01*
X167400Y104500D02*X167900Y104000D01*
X167400Y105500D02*Y104500D01*
Y105500D02*X167900Y106000D01*
X168900D01*
X169400Y105500D01*
X172400Y106200D02*X173900D01*
X172400Y104000D02*X174400D01*
X172400Y108000D02*Y104000D01*
Y108000D02*X174400D01*
X176100Y105500D02*Y104000D01*
Y105500D02*X176600Y106000D01*
X177100D01*
X177600Y105500D01*
Y104000D01*
X175600Y106000D02*X176100Y105500D01*
X180300Y106000D02*X180800Y105500D01*
X179300Y106000D02*X180300D01*
X178800Y105500D02*X179300Y106000D01*
X178800Y105500D02*Y104500D01*
X179300Y104000D01*
X180300D01*
X180800Y104500D01*
X178800Y103000D02*X179300Y102500D01*
X180300D01*
X180800Y103000D01*
Y106000D02*Y103000D01*
X182000Y107000D02*Y106900D01*
Y105500D02*Y104000D01*
X183500Y105500D02*Y104000D01*
Y105500D02*X184000Y106000D01*
X184500D01*
X185000Y105500D01*
Y104000D01*
X183000Y106000D02*X183500Y105500D01*
X186700Y104000D02*X188200D01*
X186200Y104500D02*X186700Y104000D01*
X186200Y105500D02*Y104500D01*
Y105500D02*X186700Y106000D01*
X187700D01*
X188200Y105500D01*
X186200Y105000D02*X188200D01*
Y105500D02*Y105000D01*
X189900Y104000D02*X191400D01*
X189400Y104500D02*X189900Y104000D01*
X189400Y105500D02*Y104500D01*
Y105500D02*X189900Y106000D01*
X190900D01*
X191400Y105500D01*
X189400Y105000D02*X191400D01*
Y105500D02*Y105000D01*
X193100Y105500D02*Y104000D01*
Y105500D02*X193600Y106000D01*
X194600D01*
X192600D02*X193100Y105500D01*
X195800Y107000D02*Y106900D01*
Y105500D02*Y104000D01*
X197300Y105500D02*Y104000D01*
Y105500D02*X197800Y106000D01*
X198300D01*
X198800Y105500D01*
Y104000D01*
X196800Y106000D02*X197300Y105500D01*
X201500Y106000D02*X202000Y105500D01*
X200500Y106000D02*X201500D01*
X200000Y105500D02*X200500Y106000D01*
X200000Y105500D02*Y104500D01*
X200500Y104000D01*
X201500D01*
X202000Y104500D01*
X200000Y103000D02*X200500Y102500D01*
X201500D01*
X202000Y103000D01*
Y106000D02*Y103000D01*
X152500Y101500D02*Y101400D01*
Y100000D02*Y98500D01*
X155000Y100500D02*X155500Y100000D01*
X154000Y100500D02*X155000D01*
X153500Y100000D02*X154000Y100500D01*
X153500Y100000D02*Y99000D01*
X154000Y98500D01*
X155500Y100500D02*Y99000D01*
X156000Y98500D01*
X154000D02*X155000D01*
X155500Y99000D01*
X157700Y98500D02*X159200D01*
X159700Y99000D01*
X159200Y99500D02*X159700Y99000D01*
X157700Y99500D02*X159200D01*
X157200Y100000D02*X157700Y99500D01*
X157200Y100000D02*X157700Y100500D01*
X159200D01*
X159700Y100000D01*
X157200Y99000D02*X157700Y98500D01*
X161400Y100500D02*X162900D01*
X160900Y100000D02*X161400Y100500D01*
X160900Y100000D02*Y99000D01*
X161400Y98500D01*
X162900D01*
X165600Y100500D02*X166100Y100000D01*
X164600Y100500D02*X165600D01*
X164100Y100000D02*X164600Y100500D01*
X164100Y100000D02*Y99000D01*
X164600Y98500D01*
X166100Y100500D02*Y99000D01*
X166600Y98500D01*
X164600D02*X165600D01*
X166100Y99000D01*
X167800Y102500D02*Y99000D01*
X168300Y98500D01*
X169800D02*X171300D01*
X169300Y99000D02*X169800Y98500D01*
X169300Y100000D02*Y99000D01*
Y100000D02*X169800Y100500D01*
X170800D01*
X171300Y100000D01*
X169300Y99500D02*X171300D01*
Y100000D02*Y99500D01*
X174500Y102500D02*Y98500D01*
X174000D02*X174500Y99000D01*
X173000Y98500D02*X174000D01*
X172500Y99000D02*X173000Y98500D01*
X172500Y100000D02*Y99000D01*
Y100000D02*X173000Y100500D01*
X174000D01*
X174500Y100000D01*
X175700Y98500D02*X176200D01*
X177900Y100500D02*X179400D01*
X177400Y100000D02*X177900Y100500D01*
X177400Y100000D02*Y99000D01*
X177900Y98500D01*
X179400D01*
X180600Y100000D02*Y99000D01*
Y100000D02*X181100Y100500D01*
X182100D01*
X182600Y100000D01*
Y99000D01*
X182100Y98500D02*X182600Y99000D01*
X181100Y98500D02*X182100D01*
X180600Y99000D02*X181100Y98500D01*
X184300Y100000D02*Y98500D01*
Y100000D02*X184800Y100500D01*
X185300D01*
X185800Y100000D01*
Y98500D01*
Y100000D02*X186300Y100500D01*
X186800D01*
X187300Y100000D01*
Y98500D01*
X183800Y100500D02*X184300Y100000D01*
X247000Y108000D02*X248000D01*
X247500D02*Y104000D01*
X247000D02*X248000D01*
X249200Y105500D02*Y104500D01*
Y105500D02*X249700Y106000D01*
X250700D01*
X251200Y105500D01*
Y104500D01*
X250700Y104000D02*X251200Y104500D01*
X249700Y104000D02*X250700D01*
X249200Y104500D02*X249700Y104000D01*
X252400Y106000D02*Y104500D01*
X252900Y104000D01*
X253400D01*
X253900Y104500D01*
Y106000D02*Y104500D01*
X254400Y104000D01*
X254900D01*
X255400Y104500D01*
Y106000D02*Y104500D01*
X258100Y106000D02*X258600Y105500D01*
X257100Y106000D02*X258100D01*
X256600Y105500D02*X257100Y106000D01*
X256600Y105500D02*Y104500D01*
X257100Y104000D01*
X258600Y106000D02*Y104500D01*
X259100Y104000D01*
X257100D02*X258100D01*
X258600Y104500D01*
X264100Y108000D02*X264600Y107500D01*
X262600Y108000D02*X264100D01*
X262100Y107500D02*X262600Y108000D01*
X262100Y107500D02*Y106500D01*
X262600Y106000D01*
X264100D01*
X264600Y105500D01*
Y104500D01*
X264100Y104000D02*X264600Y104500D01*
X262600Y104000D02*X264100D01*
X262100Y104500D02*X262600Y104000D01*
X266300Y106000D02*X267800D01*
X265800Y105500D02*X266300Y106000D01*
X265800Y105500D02*Y104500D01*
X266300Y104000D01*
X267800D01*
X270500Y106000D02*X271000Y105500D01*
X269500Y106000D02*X270500D01*
X269000Y105500D02*X269500Y106000D01*
X269000Y105500D02*Y104500D01*
X269500Y104000D01*
X271000Y106000D02*Y104500D01*
X271500Y104000D01*
X269500D02*X270500D01*
X271000Y104500D01*
X272700Y108000D02*Y104500D01*
X273200Y104000D01*
X274700D02*X276200D01*
X274200Y104500D02*X274700Y104000D01*
X274200Y105500D02*Y104500D01*
Y105500D02*X274700Y106000D01*
X275700D01*
X276200Y105500D01*
X274200Y105000D02*X276200D01*
Y105500D02*Y105000D01*
X279400Y108000D02*Y104000D01*
X278900D02*X279400Y104500D01*
X277900Y104000D02*X278900D01*
X277400Y104500D02*X277900Y104000D01*
X277400Y105500D02*Y104500D01*
Y105500D02*X277900Y106000D01*
X278900D01*
X279400Y105500D01*
X282400Y106200D02*X283900D01*
X282400Y104000D02*X284400D01*
X282400Y108000D02*Y104000D01*
Y108000D02*X284400D01*
X286100Y105500D02*Y104000D01*
Y105500D02*X286600Y106000D01*
X287100D01*
X287600Y105500D01*
Y104000D01*
X285600Y106000D02*X286100Y105500D01*
X290300Y106000D02*X290800Y105500D01*
X289300Y106000D02*X290300D01*
X288800Y105500D02*X289300Y106000D01*
X288800Y105500D02*Y104500D01*
X289300Y104000D01*
X290300D01*
X290800Y104500D01*
X288800Y103000D02*X289300Y102500D01*
X290300D01*
X290800Y103000D01*
Y106000D02*Y103000D01*
X292000Y107000D02*Y106900D01*
Y105500D02*Y104000D01*
X293500Y105500D02*Y104000D01*
Y105500D02*X294000Y106000D01*
X294500D01*
X295000Y105500D01*
Y104000D01*
X293000Y106000D02*X293500Y105500D01*
X296700Y104000D02*X298200D01*
X296200Y104500D02*X296700Y104000D01*
X296200Y105500D02*Y104500D01*
Y105500D02*X296700Y106000D01*
X297700D01*
X298200Y105500D01*
X296200Y105000D02*X298200D01*
Y105500D02*Y105000D01*
X299900Y104000D02*X301400D01*
X299400Y104500D02*X299900Y104000D01*
X299400Y105500D02*Y104500D01*
Y105500D02*X299900Y106000D01*
X300900D01*
X301400Y105500D01*
X299400Y105000D02*X301400D01*
Y105500D02*Y105000D01*
X303100Y105500D02*Y104000D01*
Y105500D02*X303600Y106000D01*
X304600D01*
X302600D02*X303100Y105500D01*
X305800Y107000D02*Y106900D01*
Y105500D02*Y104000D01*
X307300Y105500D02*Y104000D01*
Y105500D02*X307800Y106000D01*
X308300D01*
X308800Y105500D01*
Y104000D01*
X306800Y106000D02*X307300Y105500D01*
X311500Y106000D02*X312000Y105500D01*
X310500Y106000D02*X311500D01*
X310000Y105500D02*X310500Y106000D01*
X310000Y105500D02*Y104500D01*
X310500Y104000D01*
X311500D01*
X312000Y104500D01*
X310000Y103000D02*X310500Y102500D01*
X311500D01*
X312000Y103000D01*
Y106000D02*Y103000D01*
X262500Y101500D02*Y101400D01*
Y100000D02*Y98500D01*
X265000Y100500D02*X265500Y100000D01*
X264000Y100500D02*X265000D01*
X263500Y100000D02*X264000Y100500D01*
X263500Y100000D02*Y99000D01*
X264000Y98500D01*
X265500Y100500D02*Y99000D01*
X266000Y98500D01*
X264000D02*X265000D01*
X265500Y99000D01*
X267700Y98500D02*X269200D01*
X269700Y99000D01*
X269200Y99500D02*X269700Y99000D01*
X267700Y99500D02*X269200D01*
X267200Y100000D02*X267700Y99500D01*
X267200Y100000D02*X267700Y100500D01*
X269200D01*
X269700Y100000D01*
X267200Y99000D02*X267700Y98500D01*
X271400Y100500D02*X272900D01*
X270900Y100000D02*X271400Y100500D01*
X270900Y100000D02*Y99000D01*
X271400Y98500D01*
X272900D01*
X275600Y100500D02*X276100Y100000D01*
X274600Y100500D02*X275600D01*
X274100Y100000D02*X274600Y100500D01*
X274100Y100000D02*Y99000D01*
X274600Y98500D01*
X276100Y100500D02*Y99000D01*
X276600Y98500D01*
X274600D02*X275600D01*
X276100Y99000D01*
X277800Y102500D02*Y99000D01*
X278300Y98500D01*
X279800D02*X281300D01*
X279300Y99000D02*X279800Y98500D01*
X279300Y100000D02*Y99000D01*
Y100000D02*X279800Y100500D01*
X280800D01*
X281300Y100000D01*
X279300Y99500D02*X281300D01*
Y100000D02*Y99500D01*
X284500Y102500D02*Y98500D01*
X284000D02*X284500Y99000D01*
X283000Y98500D02*X284000D01*
X282500Y99000D02*X283000Y98500D01*
X282500Y100000D02*Y99000D01*
Y100000D02*X283000Y100500D01*
X284000D01*
X284500Y100000D01*
X285700Y98500D02*X286200D01*
X287900Y100500D02*X289400D01*
X287400Y100000D02*X287900Y100500D01*
X287400Y100000D02*Y99000D01*
X287900Y98500D01*
X289400D01*
X290600Y100000D02*Y99000D01*
Y100000D02*X291100Y100500D01*
X292100D01*
X292600Y100000D01*
Y99000D01*
X292100Y98500D02*X292600Y99000D01*
X291100Y98500D02*X292100D01*
X290600Y99000D02*X291100Y98500D01*
X294300Y100000D02*Y98500D01*
Y100000D02*X294800Y100500D01*
X295300D01*
X295800Y100000D01*
Y98500D01*
Y100000D02*X296300Y100500D01*
X296800D01*
X297300Y100000D01*
Y98500D01*
X293800Y100500D02*X294300Y100000D01*
X417500Y83010D02*X418490Y79050D01*
X419480Y83010D01*
X420668Y80535D02*Y79545D01*
Y80535D02*X421163Y81030D01*
X422153D01*
X422648Y80535D01*
Y79545D01*
X422153Y79050D02*X422648Y79545D01*
X421163Y79050D02*X422153D01*
X420668Y79545D02*X421163Y79050D01*
X423836Y83010D02*Y79545D01*
X424331Y79050D01*
X425321Y81030D02*Y79545D01*
X425816Y79050D01*
X426806D01*
X427301Y79545D01*
Y81030D02*Y79545D01*
X428984Y80535D02*Y79050D01*
Y80535D02*X429479Y81030D01*
X429974D01*
X430469Y80535D01*
Y79050D01*
Y80535D02*X430964Y81030D01*
X431459D01*
X431954Y80535D01*
Y79050D01*
X428489Y81030D02*X428984Y80535D01*
X433637Y79050D02*X435122D01*
X433142Y79545D02*X433637Y79050D01*
X433142Y80535D02*Y79545D01*
Y80535D02*X433637Y81030D01*
X434627D01*
X435122Y80535D01*
X433142Y80040D02*X435122D01*
Y80535D02*Y80040D01*
X527500Y83010D02*X528490Y79050D01*
X529480Y83010D01*
X530668Y80535D02*Y79545D01*
Y80535D02*X531163Y81030D01*
X532153D01*
X532648Y80535D01*
Y79545D01*
X532153Y79050D02*X532648Y79545D01*
X531163Y79050D02*X532153D01*
X530668Y79545D02*X531163Y79050D01*
X533836Y83010D02*Y79545D01*
X534331Y79050D01*
X535321Y81030D02*Y79545D01*
X535816Y79050D01*
X536806D01*
X537301Y79545D01*
Y81030D02*Y79545D01*
X538984Y80535D02*Y79050D01*
Y80535D02*X539479Y81030D01*
X539974D01*
X540469Y80535D01*
Y79050D01*
Y80535D02*X540964Y81030D01*
X541459D01*
X541954Y80535D01*
Y79050D01*
X538489Y81030D02*X538984Y80535D01*
X543637Y79050D02*X545122D01*
X543142Y79545D02*X543637Y79050D01*
X543142Y80535D02*Y79545D01*
Y80535D02*X543637Y81030D01*
X544627D01*
X545122Y80535D01*
X543142Y80040D02*X545122D01*
Y80535D02*Y80040D01*
X357000Y108000D02*X358000D01*
X357500D02*Y104000D01*
X357000D02*X358000D01*
X359200Y105500D02*Y104500D01*
Y105500D02*X359700Y106000D01*
X360700D01*
X361200Y105500D01*
Y104500D01*
X360700Y104000D02*X361200Y104500D01*
X359700Y104000D02*X360700D01*
X359200Y104500D02*X359700Y104000D01*
X362400Y106000D02*Y104500D01*
X362900Y104000D01*
X363400D01*
X363900Y104500D01*
Y106000D02*Y104500D01*
X364400Y104000D01*
X364900D01*
X365400Y104500D01*
Y106000D02*Y104500D01*
X368100Y106000D02*X368600Y105500D01*
X367100Y106000D02*X368100D01*
X366600Y105500D02*X367100Y106000D01*
X366600Y105500D02*Y104500D01*
X367100Y104000D01*
X368600Y106000D02*Y104500D01*
X369100Y104000D01*
X367100D02*X368100D01*
X368600Y104500D01*
X374100Y108000D02*X374600Y107500D01*
X372600Y108000D02*X374100D01*
X372100Y107500D02*X372600Y108000D01*
X372100Y107500D02*Y106500D01*
X372600Y106000D01*
X374100D01*
X374600Y105500D01*
Y104500D01*
X374100Y104000D02*X374600Y104500D01*
X372600Y104000D02*X374100D01*
X372100Y104500D02*X372600Y104000D01*
X376300Y106000D02*X377800D01*
X375800Y105500D02*X376300Y106000D01*
X375800Y105500D02*Y104500D01*
X376300Y104000D01*
X377800D01*
X380500Y106000D02*X381000Y105500D01*
X379500Y106000D02*X380500D01*
X379000Y105500D02*X379500Y106000D01*
X379000Y105500D02*Y104500D01*
X379500Y104000D01*
X381000Y106000D02*Y104500D01*
X381500Y104000D01*
X379500D02*X380500D01*
X381000Y104500D01*
X382700Y108000D02*Y104500D01*
X383200Y104000D01*
X384700D02*X386200D01*
X384200Y104500D02*X384700Y104000D01*
X384200Y105500D02*Y104500D01*
Y105500D02*X384700Y106000D01*
X385700D01*
X386200Y105500D01*
X384200Y105000D02*X386200D01*
Y105500D02*Y105000D01*
X389400Y108000D02*Y104000D01*
X388900D02*X389400Y104500D01*
X387900Y104000D02*X388900D01*
X387400Y104500D02*X387900Y104000D01*
X387400Y105500D02*Y104500D01*
Y105500D02*X387900Y106000D01*
X388900D01*
X389400Y105500D01*
X392400Y106200D02*X393900D01*
X392400Y104000D02*X394400D01*
X392400Y108000D02*Y104000D01*
Y108000D02*X394400D01*
X396100Y105500D02*Y104000D01*
Y105500D02*X396600Y106000D01*
X397100D01*
X397600Y105500D01*
Y104000D01*
X395600Y106000D02*X396100Y105500D01*
X400300Y106000D02*X400800Y105500D01*
X399300Y106000D02*X400300D01*
X398800Y105500D02*X399300Y106000D01*
X398800Y105500D02*Y104500D01*
X399300Y104000D01*
X400300D01*
X400800Y104500D01*
X398800Y103000D02*X399300Y102500D01*
X400300D01*
X400800Y103000D01*
Y106000D02*Y103000D01*
X402000Y107000D02*Y106900D01*
Y105500D02*Y104000D01*
X403500Y105500D02*Y104000D01*
Y105500D02*X404000Y106000D01*
X404500D01*
X405000Y105500D01*
Y104000D01*
X403000Y106000D02*X403500Y105500D01*
X406700Y104000D02*X408200D01*
X406200Y104500D02*X406700Y104000D01*
X406200Y105500D02*Y104500D01*
Y105500D02*X406700Y106000D01*
X407700D01*
X408200Y105500D01*
X406200Y105000D02*X408200D01*
Y105500D02*Y105000D01*
X409900Y104000D02*X411400D01*
X409400Y104500D02*X409900Y104000D01*
X409400Y105500D02*Y104500D01*
Y105500D02*X409900Y106000D01*
X410900D01*
X411400Y105500D01*
X409400Y105000D02*X411400D01*
Y105500D02*Y105000D01*
X413100Y105500D02*Y104000D01*
Y105500D02*X413600Y106000D01*
X414600D01*
X412600D02*X413100Y105500D01*
X415800Y107000D02*Y106900D01*
Y105500D02*Y104000D01*
X417300Y105500D02*Y104000D01*
Y105500D02*X417800Y106000D01*
X418300D01*
X418800Y105500D01*
Y104000D01*
X416800Y106000D02*X417300Y105500D01*
X421500Y106000D02*X422000Y105500D01*
X420500Y106000D02*X421500D01*
X420000Y105500D02*X420500Y106000D01*
X420000Y105500D02*Y104500D01*
X420500Y104000D01*
X421500D01*
X422000Y104500D01*
X420000Y103000D02*X420500Y102500D01*
X421500D01*
X422000Y103000D01*
Y106000D02*Y103000D01*
X372500Y101500D02*Y101400D01*
Y100000D02*Y98500D01*
X375000Y100500D02*X375500Y100000D01*
X374000Y100500D02*X375000D01*
X373500Y100000D02*X374000Y100500D01*
X373500Y100000D02*Y99000D01*
X374000Y98500D01*
X375500Y100500D02*Y99000D01*
X376000Y98500D01*
X374000D02*X375000D01*
X375500Y99000D01*
X377700Y98500D02*X379200D01*
X379700Y99000D01*
X379200Y99500D02*X379700Y99000D01*
X377700Y99500D02*X379200D01*
X377200Y100000D02*X377700Y99500D01*
X377200Y100000D02*X377700Y100500D01*
X379200D01*
X379700Y100000D01*
X377200Y99000D02*X377700Y98500D01*
X381400Y100500D02*X382900D01*
X380900Y100000D02*X381400Y100500D01*
X380900Y100000D02*Y99000D01*
X381400Y98500D01*
X382900D01*
X385600Y100500D02*X386100Y100000D01*
X384600Y100500D02*X385600D01*
X384100Y100000D02*X384600Y100500D01*
X384100Y100000D02*Y99000D01*
X384600Y98500D01*
X386100Y100500D02*Y99000D01*
X386600Y98500D01*
X384600D02*X385600D01*
X386100Y99000D01*
X387800Y102500D02*Y99000D01*
X388300Y98500D01*
X389800D02*X391300D01*
X389300Y99000D02*X389800Y98500D01*
X389300Y100000D02*Y99000D01*
Y100000D02*X389800Y100500D01*
X390800D01*
X391300Y100000D01*
X389300Y99500D02*X391300D01*
Y100000D02*Y99500D01*
X394500Y102500D02*Y98500D01*
X394000D02*X394500Y99000D01*
X393000Y98500D02*X394000D01*
X392500Y99000D02*X393000Y98500D01*
X392500Y100000D02*Y99000D01*
Y100000D02*X393000Y100500D01*
X394000D01*
X394500Y100000D01*
X395700Y98500D02*X396200D01*
X397900Y100500D02*X399400D01*
X397400Y100000D02*X397900Y100500D01*
X397400Y100000D02*Y99000D01*
X397900Y98500D01*
X399400D01*
X400600Y100000D02*Y99000D01*
Y100000D02*X401100Y100500D01*
X402100D01*
X402600Y100000D01*
Y99000D01*
X402100Y98500D02*X402600Y99000D01*
X401100Y98500D02*X402100D01*
X400600Y99000D02*X401100Y98500D01*
X404300Y100000D02*Y98500D01*
Y100000D02*X404800Y100500D01*
X405300D01*
X405800Y100000D01*
Y98500D01*
Y100000D02*X406300Y100500D01*
X406800D01*
X407300Y100000D01*
Y98500D01*
X403800Y100500D02*X404300Y100000D01*
X467000Y108000D02*X468000D01*
X467500D02*Y104000D01*
X467000D02*X468000D01*
X469200Y105500D02*Y104500D01*
Y105500D02*X469700Y106000D01*
X470700D01*
X471200Y105500D01*
Y104500D01*
X470700Y104000D02*X471200Y104500D01*
X469700Y104000D02*X470700D01*
X469200Y104500D02*X469700Y104000D01*
X472400Y106000D02*Y104500D01*
X472900Y104000D01*
X473400D01*
X473900Y104500D01*
Y106000D02*Y104500D01*
X474400Y104000D01*
X474900D01*
X475400Y104500D01*
Y106000D02*Y104500D01*
X478100Y106000D02*X478600Y105500D01*
X477100Y106000D02*X478100D01*
X476600Y105500D02*X477100Y106000D01*
X476600Y105500D02*Y104500D01*
X477100Y104000D01*
X478600Y106000D02*Y104500D01*
X479100Y104000D01*
X477100D02*X478100D01*
X478600Y104500D01*
X484100Y108000D02*X484600Y107500D01*
X482600Y108000D02*X484100D01*
X482100Y107500D02*X482600Y108000D01*
X482100Y107500D02*Y106500D01*
X482600Y106000D01*
X484100D01*
X484600Y105500D01*
Y104500D01*
X484100Y104000D02*X484600Y104500D01*
X482600Y104000D02*X484100D01*
X482100Y104500D02*X482600Y104000D01*
X486300Y106000D02*X487800D01*
X485800Y105500D02*X486300Y106000D01*
X485800Y105500D02*Y104500D01*
X486300Y104000D01*
X487800D01*
X490500Y106000D02*X491000Y105500D01*
X489500Y106000D02*X490500D01*
X489000Y105500D02*X489500Y106000D01*
X489000Y105500D02*Y104500D01*
X489500Y104000D01*
X491000Y106000D02*Y104500D01*
X491500Y104000D01*
X489500D02*X490500D01*
X491000Y104500D01*
X492700Y108000D02*Y104500D01*
X493200Y104000D01*
X494700D02*X496200D01*
X494200Y104500D02*X494700Y104000D01*
X494200Y105500D02*Y104500D01*
Y105500D02*X494700Y106000D01*
X495700D01*
X496200Y105500D01*
X494200Y105000D02*X496200D01*
Y105500D02*Y105000D01*
X499400Y108000D02*Y104000D01*
X498900D02*X499400Y104500D01*
X497900Y104000D02*X498900D01*
X497400Y104500D02*X497900Y104000D01*
X497400Y105500D02*Y104500D01*
Y105500D02*X497900Y106000D01*
X498900D01*
X499400Y105500D01*
X502400Y106200D02*X503900D01*
X502400Y104000D02*X504400D01*
X502400Y108000D02*Y104000D01*
Y108000D02*X504400D01*
X506100Y105500D02*Y104000D01*
Y105500D02*X506600Y106000D01*
X507100D01*
X507600Y105500D01*
Y104000D01*
X505600Y106000D02*X506100Y105500D01*
X510300Y106000D02*X510800Y105500D01*
X509300Y106000D02*X510300D01*
X508800Y105500D02*X509300Y106000D01*
X508800Y105500D02*Y104500D01*
X509300Y104000D01*
X510300D01*
X510800Y104500D01*
X508800Y103000D02*X509300Y102500D01*
X510300D01*
X510800Y103000D01*
Y106000D02*Y103000D01*
X512000Y107000D02*Y106900D01*
Y105500D02*Y104000D01*
X513500Y105500D02*Y104000D01*
Y105500D02*X514000Y106000D01*
X514500D01*
X515000Y105500D01*
Y104000D01*
X513000Y106000D02*X513500Y105500D01*
X516700Y104000D02*X518200D01*
X516200Y104500D02*X516700Y104000D01*
X516200Y105500D02*Y104500D01*
Y105500D02*X516700Y106000D01*
X517700D01*
X518200Y105500D01*
X516200Y105000D02*X518200D01*
Y105500D02*Y105000D01*
X519900Y104000D02*X521400D01*
X519400Y104500D02*X519900Y104000D01*
X519400Y105500D02*Y104500D01*
Y105500D02*X519900Y106000D01*
X520900D01*
X521400Y105500D01*
X519400Y105000D02*X521400D01*
Y105500D02*Y105000D01*
X523100Y105500D02*Y104000D01*
Y105500D02*X523600Y106000D01*
X524600D01*
X522600D02*X523100Y105500D01*
X525800Y107000D02*Y106900D01*
Y105500D02*Y104000D01*
X527300Y105500D02*Y104000D01*
Y105500D02*X527800Y106000D01*
X528300D01*
X528800Y105500D01*
Y104000D01*
X526800Y106000D02*X527300Y105500D01*
X531500Y106000D02*X532000Y105500D01*
X530500Y106000D02*X531500D01*
X530000Y105500D02*X530500Y106000D01*
X530000Y105500D02*Y104500D01*
X530500Y104000D01*
X531500D01*
X532000Y104500D01*
X530000Y103000D02*X530500Y102500D01*
X531500D01*
X532000Y103000D01*
Y106000D02*Y103000D01*
X482500Y101500D02*Y101400D01*
Y100000D02*Y98500D01*
X485000Y100500D02*X485500Y100000D01*
X484000Y100500D02*X485000D01*
X483500Y100000D02*X484000Y100500D01*
X483500Y100000D02*Y99000D01*
X484000Y98500D01*
X485500Y100500D02*Y99000D01*
X486000Y98500D01*
X484000D02*X485000D01*
X485500Y99000D01*
X487700Y98500D02*X489200D01*
X489700Y99000D01*
X489200Y99500D02*X489700Y99000D01*
X487700Y99500D02*X489200D01*
X487200Y100000D02*X487700Y99500D01*
X487200Y100000D02*X487700Y100500D01*
X489200D01*
X489700Y100000D01*
X487200Y99000D02*X487700Y98500D01*
X491400Y100500D02*X492900D01*
X490900Y100000D02*X491400Y100500D01*
X490900Y100000D02*Y99000D01*
X491400Y98500D01*
X492900D01*
X495600Y100500D02*X496100Y100000D01*
X494600Y100500D02*X495600D01*
X494100Y100000D02*X494600Y100500D01*
X494100Y100000D02*Y99000D01*
X494600Y98500D01*
X496100Y100500D02*Y99000D01*
X496600Y98500D01*
X494600D02*X495600D01*
X496100Y99000D01*
X497800Y102500D02*Y99000D01*
X498300Y98500D01*
X499800D02*X501300D01*
X499300Y99000D02*X499800Y98500D01*
X499300Y100000D02*Y99000D01*
Y100000D02*X499800Y100500D01*
X500800D01*
X501300Y100000D01*
X499300Y99500D02*X501300D01*
Y100000D02*Y99500D01*
X504500Y102500D02*Y98500D01*
X504000D02*X504500Y99000D01*
X503000Y98500D02*X504000D01*
X502500Y99000D02*X503000Y98500D01*
X502500Y100000D02*Y99000D01*
Y100000D02*X503000Y100500D01*
X504000D01*
X504500Y100000D01*
X505700Y98500D02*X506200D01*
X507900Y100500D02*X509400D01*
X507400Y100000D02*X507900Y100500D01*
X507400Y100000D02*Y99000D01*
X507900Y98500D01*
X509400D01*
X510600Y100000D02*Y99000D01*
Y100000D02*X511100Y100500D01*
X512100D01*
X512600Y100000D01*
Y99000D01*
X512100Y98500D02*X512600Y99000D01*
X511100Y98500D02*X512100D01*
X510600Y99000D02*X511100Y98500D01*
X514300Y100000D02*Y98500D01*
Y100000D02*X514800Y100500D01*
X515300D01*
X515800Y100000D01*
Y98500D01*
Y100000D02*X516300Y100500D01*
X516800D01*
X517300Y100000D01*
Y98500D01*
X513800Y100500D02*X514300Y100000D01*
G54D55*X191107Y42255D02*X191893D01*
X191107Y36745D02*X191893D01*
X283607Y42255D02*X284393D01*
X283607Y36745D02*X284393D01*
X301107Y42255D02*X301893D01*
X301107Y36745D02*X301893D01*
X274000Y33000D02*Y14000D01*
X311000D01*
Y33000D01*
X274000D02*X290000D01*
X311000D02*X295000D01*
X290000D02*G75*G03X295000Y33000I2500J0D01*G01*
X249107Y20255D02*X249893D01*
X249107Y14745D02*X249893D01*
X270255Y20893D02*Y20107D01*
X264745Y20893D02*Y20107D01*
X243750Y41150D02*Y30520D01*
X262250Y41150D02*Y30520D01*
X243750Y41150D02*X247000D01*
X262250D02*X259000D01*
X243750Y30520D02*X243929D01*
X262071D02*X262250D01*
X240255Y35893D02*Y35107D01*
X234745Y35893D02*Y35107D01*
X275996Y72992D02*X282492D01*
X256508D02*X263004D01*
X256508D02*Y53504D01*
X282492Y72992D02*Y53504D01*
X256508D02*X263004Y47008D01*
X282492Y53504D02*X275996Y47008D01*
X275500Y54000D02*X279500D01*
X277500Y56000D02*Y52000D01*
X299255Y89393D02*Y88607D01*
X293745Y89393D02*Y88607D01*
X258158Y96484D02*Y79162D01*
Y96484D02*X270362D01*
Y79162D01*
X258158D02*X270362D01*
X256658Y77162D02*G75*G03X256658Y77162I0J500D01*G01*
X290255Y89393D02*Y88607D01*
X284745Y89393D02*Y88607D01*
X275745Y89393D02*Y88607D01*
X281255Y89393D02*Y88607D01*
X245255Y85893D02*Y85107D01*
X239745Y85893D02*Y85107D01*
X294642Y76709D02*X322358D01*
Y66700D01*
Y60300D02*Y50291D01*
X294642D01*
Y56700D02*Y70300D01*
X304240Y63500D02*X310240D01*
X307240Y66500D02*Y60500D01*
X302240Y63500D02*G75*G03X302240Y63500I5000J0D01*G01*
X385996Y72992D02*X392492D01*
X366508D02*X373004D01*
X366508D02*Y53504D01*
X392492Y72992D02*Y53504D01*
X366508D02*X373004Y47008D01*
X392492Y53504D02*X385996Y47008D01*
X385500Y54000D02*X389500D01*
X387500Y56000D02*Y52000D01*
X409255Y89393D02*Y88607D01*
X403745Y89393D02*Y88607D01*
X368158Y96484D02*Y79162D01*
Y96484D02*X380362D01*
Y79162D01*
X368158D02*X380362D01*
X366658Y77162D02*G75*G03X366658Y77162I0J500D01*G01*
X400255Y89393D02*Y88607D01*
X394745Y89393D02*Y88607D01*
X385745Y89393D02*Y88607D01*
X391255Y89393D02*Y88607D01*
X355255Y85893D02*Y85107D01*
X349745Y85893D02*Y85107D01*
X404642Y76709D02*X432358D01*
Y66700D01*
Y60300D02*Y50291D01*
X404642D01*
Y56700D02*Y70300D01*
X414240Y63500D02*X420240D01*
X417240Y66500D02*Y60500D01*
X412240Y63500D02*G75*G03X412240Y63500I5000J0D01*G01*
X393607Y42255D02*X394393D01*
X393607Y36745D02*X394393D01*
X411107Y42255D02*X411893D01*
X411107Y36745D02*X411893D01*
X384000Y33000D02*Y14000D01*
X421000D01*
Y33000D01*
X384000D02*X400000D01*
X421000D02*X405000D01*
X400000D02*G75*G03X405000Y33000I2500J0D01*G01*
X359107Y20255D02*X359893D01*
X359107Y14745D02*X359893D01*
X380255Y20893D02*Y20107D01*
X374745Y20893D02*Y20107D01*
X353750Y41150D02*Y30520D01*
X372250Y41150D02*Y30520D01*
X353750Y41150D02*X357000D01*
X372250D02*X369000D01*
X353750Y30520D02*X353929D01*
X372071D02*X372250D01*
X350255Y35893D02*Y35107D01*
X344745Y35893D02*Y35107D01*
X503607Y42255D02*X504393D01*
X503607Y36745D02*X504393D01*
X521107Y42255D02*X521893D01*
X521107Y36745D02*X521893D01*
X494000Y33000D02*Y14000D01*
X531000D01*
Y33000D01*
X494000D02*X510000D01*
X531000D02*X515000D01*
X510000D02*G75*G03X515000Y33000I2500J0D01*G01*
X469107Y20255D02*X469893D01*
X469107Y14745D02*X469893D01*
X490255Y20893D02*Y20107D01*
X484745Y20893D02*Y20107D01*
X463750Y41150D02*Y30520D01*
X482250Y41150D02*Y30520D01*
X463750Y41150D02*X467000D01*
X482250D02*X479000D01*
X463750Y30520D02*X463929D01*
X482071D02*X482250D01*
X460255Y35893D02*Y35107D01*
X454745Y35893D02*Y35107D01*
X495996Y72992D02*X502492D01*
X476508D02*X483004D01*
X476508D02*Y53504D01*
X502492Y72992D02*Y53504D01*
X476508D02*X483004Y47008D01*
X502492Y53504D02*X495996Y47008D01*
X495500Y54000D02*X499500D01*
X497500Y56000D02*Y52000D01*
X519255Y89393D02*Y88607D01*
X513745Y89393D02*Y88607D01*
X478158Y96484D02*Y79162D01*
Y96484D02*X490362D01*
Y79162D01*
X478158D02*X490362D01*
X476658Y77162D02*G75*G03X476658Y77162I0J500D01*G01*
X510255Y89393D02*Y88607D01*
X504745Y89393D02*Y88607D01*
X495745Y89393D02*Y88607D01*
X501255Y89393D02*Y88607D01*
X465255Y85893D02*Y85107D01*
X459745Y85893D02*Y85107D01*
X514642Y76709D02*X542358D01*
Y66700D01*
Y60300D02*Y50291D01*
X514642D01*
Y56700D02*Y70300D01*
X524240Y63500D02*X530240D01*
X527240Y66500D02*Y60500D01*
X522240Y63500D02*G75*G03X522240Y63500I5000J0D01*G01*
X63607Y42255D02*X64393D01*
X63607Y36745D02*X64393D01*
X81107Y42255D02*X81893D01*
X81107Y36745D02*X81893D01*
X54000Y33000D02*Y14000D01*
X91000D01*
Y33000D01*
X54000D02*X70000D01*
X91000D02*X75000D01*
X70000D02*G75*G03X75000Y33000I2500J0D01*G01*
X29107Y20255D02*X29893D01*
X29107Y14745D02*X29893D01*
X50255Y20893D02*Y20107D01*
X44745Y20893D02*Y20107D01*
X23750Y41150D02*Y30520D01*
X42250Y41150D02*Y30520D01*
X23750Y41150D02*X27000D01*
X42250D02*X39000D01*
X23750Y30520D02*X23929D01*
X42071D02*X42250D01*
X20255Y35893D02*Y35107D01*
X14745Y35893D02*Y35107D01*
X173607Y42255D02*X174393D01*
X173607Y36745D02*X174393D01*
X164000Y33000D02*Y14000D01*
X201000D01*
Y33000D01*
X164000D02*X180000D01*
X201000D02*X185000D01*
X180000D02*G75*G03X185000Y33000I2500J0D01*G01*
X139107Y20255D02*X139893D01*
X139107Y14745D02*X139893D01*
X160255Y20893D02*Y20107D01*
X154745Y20893D02*Y20107D01*
X133750Y41150D02*Y30520D01*
X152250Y41150D02*Y30520D01*
X133750Y41150D02*X137000D01*
X152250D02*X149000D01*
X133750Y30520D02*X133929D01*
X152071D02*X152250D01*
X130255Y35893D02*Y35107D01*
X124745Y35893D02*Y35107D01*
X55996Y72992D02*X62492D01*
X36508D02*X43004D01*
X36508D02*Y53504D01*
X62492Y72992D02*Y53504D01*
X36508D02*X43004Y47008D01*
X62492Y53504D02*X55996Y47008D01*
X55500Y54000D02*X59500D01*
X57500Y56000D02*Y52000D01*
X38158Y96484D02*Y79162D01*
Y96484D02*X50362D01*
Y79162D01*
X38158D02*X50362D01*
X36658Y77162D02*G75*G03X36658Y77162I0J500D01*G01*
X55745Y89393D02*Y88607D01*
X61255Y89393D02*Y88607D01*
X25255Y85893D02*Y85107D01*
X19745Y85893D02*Y85107D01*
X70255Y89393D02*Y88607D01*
X64745Y89393D02*Y88607D01*
X79255Y89393D02*Y88607D01*
X73745Y89393D02*Y88607D01*
X74642Y76709D02*X102358D01*
Y66700D01*
Y60300D02*Y50291D01*
X74642D01*
Y56700D02*Y70300D01*
X84240Y63500D02*X90240D01*
X87240Y66500D02*Y60500D01*
X82240Y63500D02*G75*G03X82240Y63500I5000J0D01*G01*
X165996Y72992D02*X172492D01*
X146508D02*X153004D01*
X146508D02*Y53504D01*
X172492Y72992D02*Y53504D01*
X146508D02*X153004Y47008D01*
X172492Y53504D02*X165996Y47008D01*
X165500Y54000D02*X169500D01*
X167500Y56000D02*Y52000D01*
X189255Y89393D02*Y88607D01*
X183745Y89393D02*Y88607D01*
X148158Y96484D02*Y79162D01*
Y96484D02*X160362D01*
Y79162D01*
X148158D02*X160362D01*
X146658Y77162D02*G75*G03X146658Y77162I0J500D01*G01*
X180255Y89393D02*Y88607D01*
X174745Y89393D02*Y88607D01*
X165745Y89393D02*Y88607D01*
X171255Y89393D02*Y88607D01*
X135255Y85893D02*Y85107D01*
X129745Y85893D02*Y85107D01*
X184642Y76709D02*X212358D01*
Y66700D01*
Y60300D02*Y50291D01*
X184642D01*
Y56700D02*Y70300D01*
X194240Y63500D02*X200240D01*
X197240Y66500D02*Y60500D01*
X192240Y63500D02*G75*G03X192240Y63500I5000J0D01*G01*
G54D54*X282050Y44150D02*X283350D01*
X281350Y44850D02*X282050Y44150D01*
X281350Y47450D02*Y44850D01*
Y47450D02*X282050Y48150D01*
X283350D01*
X285050Y44150D02*X287050Y48150D01*
X284550D02*X287050D01*
X290500Y28500D02*Y25000D01*
X291000Y24500D01*
X292000D01*
X292500Y25000D01*
Y28500D02*Y25000D01*
X293700Y28000D02*X294200Y28500D01*
X295700D01*
X296200Y28000D01*
Y27000D01*
X293700Y24500D02*X296200Y27000D01*
X293700Y24500D02*X296200D01*
X257550Y15650D02*X258850D01*
X256850Y16350D02*X257550Y15650D01*
X256850Y18950D02*Y16350D01*
Y18950D02*X257550Y19650D01*
X258850D01*
X260050Y19150D02*X260550Y19650D01*
X262050D01*
X262550Y19150D01*
Y18150D01*
X260050Y15650D02*X262550Y18150D01*
X260050Y15650D02*X262550D01*
X265550Y28150D02*X266850D01*
X264850Y28850D02*X265550Y28150D01*
X264850Y31450D02*Y28850D01*
Y31450D02*X265550Y32150D01*
X266850D01*
X268050Y31650D02*X268550Y32150D01*
X269550D01*
X270050Y31650D01*
X269550Y28150D02*X270050Y28650D01*
X268550Y28150D02*X269550D01*
X268050Y28650D02*X268550Y28150D01*
Y30350D02*X269550D01*
X270050Y31650D02*Y30850D01*
Y29850D02*Y28650D01*
Y29850D02*X269550Y30350D01*
X270050Y30850D02*X269550Y30350D01*
X264000Y40500D02*Y37000D01*
X264500Y36500D01*
X265500D01*
X266000Y37000D01*
Y40500D02*Y37000D01*
X267200Y39700D02*X268000Y40500D01*
Y36500D01*
X267200D02*X268700D01*
X284700Y59500D02*X286000D01*
X284000Y60200D02*X284700Y59500D01*
X284000Y62800D02*Y60200D01*
Y62800D02*X284700Y63500D01*
X286000D01*
X287200Y62700D02*X288000Y63500D01*
Y59500D01*
X287200D02*X288700D01*
X298893Y48150D02*X300893D01*
X301393Y47650D01*
Y46650D01*
X300893Y46150D02*X301393Y46650D01*
X299393Y46150D02*X300893D01*
X299393Y48150D02*Y44150D01*
X300193Y46150D02*X301393Y44150D01*
X302593Y47650D02*X303093Y48150D01*
X304593D01*
X305093Y47650D01*
Y46650D01*
X302593Y44150D02*X305093Y46650D01*
X302593Y44150D02*X305093D01*
X314039Y37230D02*X314655D01*
Y34535D01*
X314270Y34150D02*X314655Y34535D01*
X313885Y34150D02*X314270D01*
X313500Y34535D02*X313885Y34150D01*
X313500Y34920D02*Y34535D01*
X315579Y36845D02*X315964Y37230D01*
X317119D01*
X317504Y36845D01*
Y36075D01*
X315579Y34150D02*X317504Y36075D01*
X315579Y34150D02*X317504D01*
X315500Y48000D02*X317500D01*
X318000Y47500D01*
Y46500D01*
X317500Y46000D02*X318000Y46500D01*
X316000Y46000D02*X317500D01*
X316000Y48000D02*Y44000D01*
X316800Y46000D02*X318000Y44000D01*
X319200Y47500D02*X319700Y48000D01*
X320700D01*
X321200Y47500D01*
X320700Y44000D02*X321200Y44500D01*
X319700Y44000D02*X320700D01*
X319200Y44500D02*X319700Y44000D01*
Y46200D02*X320700D01*
X321200Y47500D02*Y46700D01*
Y45700D02*Y44500D01*
Y45700D02*X320700Y46200D01*
X321200Y46700D02*X320700Y46200D01*
X235350Y27650D02*X237350D01*
X237850Y27150D01*
Y26150D01*
X237350Y25650D02*X237850Y26150D01*
X235850Y25650D02*X237350D01*
X235850Y27650D02*Y23650D01*
X236650Y25650D02*X237850Y23650D01*
X239050Y26850D02*X239850Y27650D01*
Y23650D01*
X239050D02*X240550D01*
X284287Y81504D02*X286287D01*
X286787Y81004D01*
Y80004D01*
X286287Y79504D02*X286787Y80004D01*
X284787Y79504D02*X286287D01*
X284787Y81504D02*Y77504D01*
X285587Y79504D02*X286787Y77504D01*
X287987Y79004D02*X289987Y81504D01*
X287987Y79004D02*X290487D01*
X289987Y81504D02*Y77504D01*
X301967Y87087D02*X303267D01*
X301267Y87787D02*X301967Y87087D01*
X301267Y90387D02*Y87787D01*
Y90387D02*X301967Y91087D01*
X303267D01*
X304467D02*X306467D01*
X304467D02*Y89087D01*
X304967Y89587D01*
X305967D01*
X306467Y89087D01*
Y87587D01*
X305967Y87087D02*X306467Y87587D01*
X304967Y87087D02*X305967D01*
X304467Y87587D02*X304967Y87087D01*
X276896Y77244D02*X278196D01*
X276196Y77944D02*X276896Y77244D01*
X276196Y80544D02*Y77944D01*
Y80544D02*X276896Y81244D01*
X278196D01*
X280896D02*X281396Y80744D01*
X279896Y81244D02*X280896D01*
X279396Y80744D02*X279896Y81244D01*
X279396Y80744D02*Y77744D01*
X279896Y77244D01*
X280896Y79444D02*X281396Y78944D01*
X279396Y79444D02*X280896D01*
X279896Y77244D02*X280896D01*
X281396Y77744D01*
Y78944D02*Y77744D01*
X355200Y73969D02*X356000D01*
Y70469D01*
X355500Y69969D02*X356000Y70469D01*
X355000Y69969D02*X355500D01*
X354500Y70469D02*X355000Y69969D01*
X354500Y70969D02*Y70469D01*
X357200Y73169D02*X358000Y73969D01*
Y69969D01*
X357200D02*X358700D01*
X361240Y91177D02*Y87677D01*
X361740Y87177D01*
X362740D01*
X363240Y87677D01*
Y91177D02*Y87677D01*
X364440Y90677D02*X364940Y91177D01*
X365940D01*
X366440Y90677D01*
X365940Y87177D02*X366440Y87677D01*
X364940Y87177D02*X365940D01*
X364440Y87677D02*X364940Y87177D01*
Y89377D02*X365940D01*
X366440Y90677D02*Y89877D01*
Y88877D02*Y87677D01*
Y88877D02*X365940Y89377D01*
X366440Y89877D02*X365940Y89377D01*
X394287Y81504D02*X396287D01*
X396787Y81004D01*
Y80004D01*
X396287Y79504D02*X396787Y80004D01*
X394787Y79504D02*X396287D01*
X394787Y81504D02*Y77504D01*
X395587Y79504D02*X396787Y77504D01*
X397987Y79004D02*X399987Y81504D01*
X397987Y79004D02*X400487D01*
X399987Y81504D02*Y77504D01*
X386896Y77244D02*X388196D01*
X386196Y77944D02*X386896Y77244D01*
X386196Y80544D02*Y77944D01*
Y80544D02*X386896Y81244D01*
X388196D01*
X390896D02*X391396Y80744D01*
X389896Y81244D02*X390896D01*
X389396Y80744D02*X389896Y81244D01*
X389396Y80744D02*Y77744D01*
X389896Y77244D01*
X390896Y79444D02*X391396Y78944D01*
X389396Y79444D02*X390896D01*
X389896Y77244D02*X390896D01*
X391396Y77744D01*
Y78944D02*Y77744D01*
X343006Y82343D02*X344306D01*
X342306Y83043D02*X343006Y82343D01*
X342306Y85643D02*Y83043D01*
Y85643D02*X343006Y86343D01*
X344306D01*
X345506Y83843D02*X347506Y86343D01*
X345506Y83843D02*X348006D01*
X347506Y86343D02*Y82343D01*
X392050Y44150D02*X393350D01*
X391350Y44850D02*X392050Y44150D01*
X391350Y47450D02*Y44850D01*
Y47450D02*X392050Y48150D01*
X393350D01*
X395050Y44150D02*X397050Y48150D01*
X394550D02*X397050D01*
X400500Y28500D02*Y25000D01*
X401000Y24500D01*
X402000D01*
X402500Y25000D01*
Y28500D02*Y25000D01*
X403700Y28000D02*X404200Y28500D01*
X405700D01*
X406200Y28000D01*
Y27000D01*
X403700Y24500D02*X406200Y27000D01*
X403700Y24500D02*X406200D01*
X367550Y15650D02*X368850D01*
X366850Y16350D02*X367550Y15650D01*
X366850Y18950D02*Y16350D01*
Y18950D02*X367550Y19650D01*
X368850D01*
X370050Y19150D02*X370550Y19650D01*
X372050D01*
X372550Y19150D01*
Y18150D01*
X370050Y15650D02*X372550Y18150D01*
X370050Y15650D02*X372550D01*
X375550Y28150D02*X376850D01*
X374850Y28850D02*X375550Y28150D01*
X374850Y31450D02*Y28850D01*
Y31450D02*X375550Y32150D01*
X376850D01*
X378050Y31650D02*X378550Y32150D01*
X379550D01*
X380050Y31650D01*
X379550Y28150D02*X380050Y28650D01*
X378550Y28150D02*X379550D01*
X378050Y28650D02*X378550Y28150D01*
Y30350D02*X379550D01*
X380050Y31650D02*Y30850D01*
Y29850D02*Y28650D01*
Y29850D02*X379550Y30350D01*
X380050Y30850D02*X379550Y30350D01*
X374000Y40500D02*Y37000D01*
X374500Y36500D01*
X375500D01*
X376000Y37000D01*
Y40500D02*Y37000D01*
X377200Y39700D02*X378000Y40500D01*
Y36500D01*
X377200D02*X378700D01*
X394700Y59500D02*X396000D01*
X394000Y60200D02*X394700Y59500D01*
X394000Y62800D02*Y60200D01*
Y62800D02*X394700Y63500D01*
X396000D01*
X397200Y62700D02*X398000Y63500D01*
Y59500D01*
X397200D02*X398700D01*
X408893Y48150D02*X410893D01*
X411393Y47650D01*
Y46650D01*
X410893Y46150D02*X411393Y46650D01*
X409393Y46150D02*X410893D01*
X409393Y48150D02*Y44150D01*
X410193Y46150D02*X411393Y44150D01*
X412593Y47650D02*X413093Y48150D01*
X414593D01*
X415093Y47650D01*
Y46650D01*
X412593Y44150D02*X415093Y46650D01*
X412593Y44150D02*X415093D01*
X424039Y37230D02*X424655D01*
Y34535D01*
X424270Y34150D02*X424655Y34535D01*
X423885Y34150D02*X424270D01*
X423500Y34535D02*X423885Y34150D01*
X423500Y34920D02*Y34535D01*
X425579Y36845D02*X425964Y37230D01*
X427119D01*
X427504Y36845D01*
Y36075D01*
X425579Y34150D02*X427504Y36075D01*
X425579Y34150D02*X427504D01*
X425500Y48000D02*X427500D01*
X428000Y47500D01*
Y46500D01*
X427500Y46000D02*X428000Y46500D01*
X426000Y46000D02*X427500D01*
X426000Y48000D02*Y44000D01*
X426800Y46000D02*X428000Y44000D01*
X429200Y47500D02*X429700Y48000D01*
X430700D01*
X431200Y47500D01*
X430700Y44000D02*X431200Y44500D01*
X429700Y44000D02*X430700D01*
X429200Y44500D02*X429700Y44000D01*
Y46200D02*X430700D01*
X431200Y47500D02*Y46700D01*
Y45700D02*Y44500D01*
Y45700D02*X430700Y46200D01*
X431200Y46700D02*X430700Y46200D01*
X345350Y27650D02*X347350D01*
X347850Y27150D01*
Y26150D01*
X347350Y25650D02*X347850Y26150D01*
X345850Y25650D02*X347350D01*
X345850Y27650D02*Y23650D01*
X346650Y25650D02*X347850Y23650D01*
X349050Y26850D02*X349850Y27650D01*
Y23650D01*
X349050D02*X350550D01*
X411967Y87087D02*X413267D01*
X411267Y87787D02*X411967Y87087D01*
X411267Y90387D02*Y87787D01*
Y90387D02*X411967Y91087D01*
X413267D01*
X414467D02*X416467D01*
X414467D02*Y89087D01*
X414967Y89587D01*
X415967D01*
X416467Y89087D01*
Y87587D01*
X415967Y87087D02*X416467Y87587D01*
X414967Y87087D02*X415967D01*
X414467Y87587D02*X414967Y87087D01*
X465200Y73969D02*X466000D01*
Y70469D01*
X465500Y69969D02*X466000Y70469D01*
X465000Y69969D02*X465500D01*
X464500Y70469D02*X465000Y69969D01*
X464500Y70969D02*Y70469D01*
X467200Y73169D02*X468000Y73969D01*
Y69969D01*
X467200D02*X468700D01*
X471240Y91177D02*Y87677D01*
X471740Y87177D01*
X472740D01*
X473240Y87677D01*
Y91177D02*Y87677D01*
X474440Y90677D02*X474940Y91177D01*
X475940D01*
X476440Y90677D01*
X475940Y87177D02*X476440Y87677D01*
X474940Y87177D02*X475940D01*
X474440Y87677D02*X474940Y87177D01*
Y89377D02*X475940D01*
X476440Y90677D02*Y89877D01*
Y88877D02*Y87677D01*
Y88877D02*X475940Y89377D01*
X476440Y89877D02*X475940Y89377D01*
X453006Y82343D02*X454306D01*
X452306Y83043D02*X453006Y82343D01*
X452306Y85643D02*Y83043D01*
Y85643D02*X453006Y86343D01*
X454306D01*
X455506Y83843D02*X457506Y86343D01*
X455506Y83843D02*X458006D01*
X457506Y86343D02*Y82343D01*
X504287Y81504D02*X506287D01*
X506787Y81004D01*
Y80004D01*
X506287Y79504D02*X506787Y80004D01*
X504787Y79504D02*X506287D01*
X504787Y81504D02*Y77504D01*
X505587Y79504D02*X506787Y77504D01*
X507987Y79004D02*X509987Y81504D01*
X507987Y79004D02*X510487D01*
X509987Y81504D02*Y77504D01*
X496896Y77244D02*X498196D01*
X496196Y77944D02*X496896Y77244D01*
X496196Y80544D02*Y77944D01*
Y80544D02*X496896Y81244D01*
X498196D01*
X500896D02*X501396Y80744D01*
X499896Y81244D02*X500896D01*
X499396Y80744D02*X499896Y81244D01*
X499396Y80744D02*Y77744D01*
X499896Y77244D01*
X500896Y79444D02*X501396Y78944D01*
X499396Y79444D02*X500896D01*
X499896Y77244D02*X500896D01*
X501396Y77744D01*
Y78944D02*Y77744D01*
X521967Y87087D02*X523267D01*
X521267Y87787D02*X521967Y87087D01*
X521267Y90387D02*Y87787D01*
Y90387D02*X521967Y91087D01*
X523267D01*
X524467D02*X526467D01*
X524467D02*Y89087D01*
X524967Y89587D01*
X525967D01*
X526467Y89087D01*
Y87587D01*
X525967Y87087D02*X526467Y87587D01*
X524967Y87087D02*X525967D01*
X524467Y87587D02*X524967Y87087D01*
X502050Y44150D02*X503350D01*
X501350Y44850D02*X502050Y44150D01*
X501350Y47450D02*Y44850D01*
Y47450D02*X502050Y48150D01*
X503350D01*
X505050Y44150D02*X507050Y48150D01*
X504550D02*X507050D01*
X510500Y28500D02*Y25000D01*
X511000Y24500D01*
X512000D01*
X512500Y25000D01*
Y28500D02*Y25000D01*
X513700Y28000D02*X514200Y28500D01*
X515700D01*
X516200Y28000D01*
Y27000D01*
X513700Y24500D02*X516200Y27000D01*
X513700Y24500D02*X516200D01*
X477550Y15650D02*X478850D01*
X476850Y16350D02*X477550Y15650D01*
X476850Y18950D02*Y16350D01*
Y18950D02*X477550Y19650D01*
X478850D01*
X480050Y19150D02*X480550Y19650D01*
X482050D01*
X482550Y19150D01*
Y18150D01*
X480050Y15650D02*X482550Y18150D01*
X480050Y15650D02*X482550D01*
X485550Y28150D02*X486850D01*
X484850Y28850D02*X485550Y28150D01*
X484850Y31450D02*Y28850D01*
Y31450D02*X485550Y32150D01*
X486850D01*
X488050Y31650D02*X488550Y32150D01*
X489550D01*
X490050Y31650D01*
X489550Y28150D02*X490050Y28650D01*
X488550Y28150D02*X489550D01*
X488050Y28650D02*X488550Y28150D01*
Y30350D02*X489550D01*
X490050Y31650D02*Y30850D01*
Y29850D02*Y28650D01*
Y29850D02*X489550Y30350D01*
X490050Y30850D02*X489550Y30350D01*
X484000Y40500D02*Y37000D01*
X484500Y36500D01*
X485500D01*
X486000Y37000D01*
Y40500D02*Y37000D01*
X487200Y39700D02*X488000Y40500D01*
Y36500D01*
X487200D02*X488700D01*
X504700Y59500D02*X506000D01*
X504000Y60200D02*X504700Y59500D01*
X504000Y62800D02*Y60200D01*
Y62800D02*X504700Y63500D01*
X506000D01*
X507200Y62700D02*X508000Y63500D01*
Y59500D01*
X507200D02*X508700D01*
X518893Y48150D02*X520893D01*
X521393Y47650D01*
Y46650D01*
X520893Y46150D02*X521393Y46650D01*
X519393Y46150D02*X520893D01*
X519393Y48150D02*Y44150D01*
X520193Y46150D02*X521393Y44150D01*
X522593Y47650D02*X523093Y48150D01*
X524593D01*
X525093Y47650D01*
Y46650D01*
X522593Y44150D02*X525093Y46650D01*
X522593Y44150D02*X525093D01*
X534039Y37230D02*X534655D01*
Y34535D01*
X534270Y34150D02*X534655Y34535D01*
X533885Y34150D02*X534270D01*
X533500Y34535D02*X533885Y34150D01*
X533500Y34920D02*Y34535D01*
X535579Y36845D02*X535964Y37230D01*
X537119D01*
X537504Y36845D01*
Y36075D01*
X535579Y34150D02*X537504Y36075D01*
X535579Y34150D02*X537504D01*
X535500Y48000D02*X537500D01*
X538000Y47500D01*
Y46500D01*
X537500Y46000D02*X538000Y46500D01*
X536000Y46000D02*X537500D01*
X536000Y48000D02*Y44000D01*
X536800Y46000D02*X538000Y44000D01*
X539200Y47500D02*X539700Y48000D01*
X540700D01*
X541200Y47500D01*
X540700Y44000D02*X541200Y44500D01*
X539700Y44000D02*X540700D01*
X539200Y44500D02*X539700Y44000D01*
Y46200D02*X540700D01*
X541200Y47500D02*Y46700D01*
Y45700D02*Y44500D01*
Y45700D02*X540700Y46200D01*
X541200Y46700D02*X540700Y46200D01*
X455350Y27650D02*X457350D01*
X457850Y27150D01*
Y26150D01*
X457350Y25650D02*X457850Y26150D01*
X455850Y25650D02*X457350D01*
X455850Y27650D02*Y23650D01*
X456650Y25650D02*X457850Y23650D01*
X459050Y26850D02*X459850Y27650D01*
Y23650D01*
X459050D02*X460550D01*
X62050Y44150D02*X63350D01*
X61350Y44850D02*X62050Y44150D01*
X61350Y47450D02*Y44850D01*
Y47450D02*X62050Y48150D01*
X63350D01*
X65050Y44150D02*X67050Y48150D01*
X64550D02*X67050D01*
X64700Y59500D02*X66000D01*
X64000Y60200D02*X64700Y59500D01*
X64000Y62800D02*Y60200D01*
Y62800D02*X64700Y63500D01*
X66000D01*
X67200Y62700D02*X68000Y63500D01*
Y59500D01*
X67200D02*X68700D01*
X78893Y48150D02*X80893D01*
X81393Y47650D01*
Y46650D01*
X80893Y46150D02*X81393Y46650D01*
X79393Y46150D02*X80893D01*
X79393Y48150D02*Y44150D01*
X80193Y46150D02*X81393Y44150D01*
X82593Y47650D02*X83093Y48150D01*
X84593D01*
X85093Y47650D01*
Y46650D01*
X82593Y44150D02*X85093Y46650D01*
X82593Y44150D02*X85093D01*
X94039Y37230D02*X94655D01*
Y34535D01*
X94270Y34150D02*X94655Y34535D01*
X93885Y34150D02*X94270D01*
X93500Y34535D02*X93885Y34150D01*
X93500Y34920D02*Y34535D01*
X95579Y36845D02*X95964Y37230D01*
X97119D01*
X97504Y36845D01*
Y36075D01*
X95579Y34150D02*X97504Y36075D01*
X95579Y34150D02*X97504D01*
X95500Y48000D02*X97500D01*
X98000Y47500D01*
Y46500D01*
X97500Y46000D02*X98000Y46500D01*
X96000Y46000D02*X97500D01*
X96000Y48000D02*Y44000D01*
X96800Y46000D02*X98000Y44000D01*
X99200Y47500D02*X99700Y48000D01*
X100700D01*
X101200Y47500D01*
X100700Y44000D02*X101200Y44500D01*
X99700Y44000D02*X100700D01*
X99200Y44500D02*X99700Y44000D01*
Y46200D02*X100700D01*
X101200Y47500D02*Y46700D01*
Y45700D02*Y44500D01*
Y45700D02*X100700Y46200D01*
X101200Y46700D02*X100700Y46200D01*
X70500Y28500D02*Y25000D01*
X71000Y24500D01*
X72000D01*
X72500Y25000D01*
Y28500D02*Y25000D01*
X73700Y28000D02*X74200Y28500D01*
X75700D01*
X76200Y28000D01*
Y27000D01*
X73700Y24500D02*X76200Y27000D01*
X73700Y24500D02*X76200D01*
X37550Y15650D02*X38850D01*
X36850Y16350D02*X37550Y15650D01*
X36850Y18950D02*Y16350D01*
Y18950D02*X37550Y19650D01*
X38850D01*
X40050Y19150D02*X40550Y19650D01*
X42050D01*
X42550Y19150D01*
Y18150D01*
X40050Y15650D02*X42550Y18150D01*
X40050Y15650D02*X42550D01*
X45550Y28150D02*X46850D01*
X44850Y28850D02*X45550Y28150D01*
X44850Y31450D02*Y28850D01*
Y31450D02*X45550Y32150D01*
X46850D01*
X48050Y31650D02*X48550Y32150D01*
X49550D01*
X50050Y31650D01*
X49550Y28150D02*X50050Y28650D01*
X48550Y28150D02*X49550D01*
X48050Y28650D02*X48550Y28150D01*
Y30350D02*X49550D01*
X50050Y31650D02*Y30850D01*
Y29850D02*Y28650D01*
Y29850D02*X49550Y30350D01*
X50050Y30850D02*X49550Y30350D01*
X44000Y40500D02*Y37000D01*
X44500Y36500D01*
X45500D01*
X46000Y37000D01*
Y40500D02*Y37000D01*
X47200Y39700D02*X48000Y40500D01*
Y36500D01*
X47200D02*X48700D01*
X15350Y27650D02*X17350D01*
X17850Y27150D01*
Y26150D01*
X17350Y25650D02*X17850Y26150D01*
X15850Y25650D02*X17350D01*
X15850Y27650D02*Y23650D01*
X16650Y25650D02*X17850Y23650D01*
X19050Y26850D02*X19850Y27650D01*
Y23650D01*
X19050D02*X20550D01*
X25200Y73969D02*X26000D01*
Y70469D01*
X25500Y69969D02*X26000Y70469D01*
X25000Y69969D02*X25500D01*
X24500Y70469D02*X25000Y69969D01*
X24500Y70969D02*Y70469D01*
X27200Y73169D02*X28000Y73969D01*
Y69969D01*
X27200D02*X28700D01*
X31240Y91177D02*Y87677D01*
X31740Y87177D01*
X32740D01*
X33240Y87677D01*
Y91177D02*Y87677D01*
X34440Y90677D02*X34940Y91177D01*
X35940D01*
X36440Y90677D01*
X35940Y87177D02*X36440Y87677D01*
X34940Y87177D02*X35940D01*
X34440Y87677D02*X34940Y87177D01*
Y89377D02*X35940D01*
X36440Y90677D02*Y89877D01*
Y88877D02*Y87677D01*
Y88877D02*X35940Y89377D01*
X36440Y89877D02*X35940Y89377D01*
X13006Y82343D02*X14306D01*
X12306Y83043D02*X13006Y82343D01*
X12306Y85643D02*Y83043D01*
Y85643D02*X13006Y86343D01*
X14306D01*
X15506Y83843D02*X17506Y86343D01*
X15506Y83843D02*X18006D01*
X17506Y86343D02*Y82343D01*
X64287Y81504D02*X66287D01*
X66787Y81004D01*
Y80004D01*
X66287Y79504D02*X66787Y80004D01*
X64787Y79504D02*X66287D01*
X64787Y81504D02*Y77504D01*
X65587Y79504D02*X66787Y77504D01*
X67987Y79004D02*X69987Y81504D01*
X67987Y79004D02*X70487D01*
X69987Y81504D02*Y77504D01*
X81967Y87087D02*X83267D01*
X81267Y87787D02*X81967Y87087D01*
X81267Y90387D02*Y87787D01*
Y90387D02*X81967Y91087D01*
X83267D01*
X84467D02*X86467D01*
X84467D02*Y89087D01*
X84967Y89587D01*
X85967D01*
X86467Y89087D01*
Y87587D01*
X85967Y87087D02*X86467Y87587D01*
X84967Y87087D02*X85967D01*
X84467Y87587D02*X84967Y87087D01*
X56896Y77244D02*X58196D01*
X56196Y77944D02*X56896Y77244D01*
X56196Y80544D02*Y77944D01*
Y80544D02*X56896Y81244D01*
X58196D01*
X60896D02*X61396Y80744D01*
X59896Y81244D02*X60896D01*
X59396Y80744D02*X59896Y81244D01*
X59396Y80744D02*Y77744D01*
X59896Y77244D01*
X60896Y79444D02*X61396Y78944D01*
X59396Y79444D02*X60896D01*
X59896Y77244D02*X60896D01*
X61396Y77744D01*
Y78944D02*Y77744D01*
X172050Y44150D02*X173350D01*
X171350Y44850D02*X172050Y44150D01*
X171350Y47450D02*Y44850D01*
Y47450D02*X172050Y48150D01*
X173350D01*
X175050Y44150D02*X177050Y48150D01*
X174550D02*X177050D01*
X180500Y28500D02*Y25000D01*
X181000Y24500D01*
X182000D01*
X182500Y25000D01*
Y28500D02*Y25000D01*
X183700Y28000D02*X184200Y28500D01*
X185700D01*
X186200Y28000D01*
Y27000D01*
X183700Y24500D02*X186200Y27000D01*
X183700Y24500D02*X186200D01*
X147550Y15650D02*X148850D01*
X146850Y16350D02*X147550Y15650D01*
X146850Y18950D02*Y16350D01*
Y18950D02*X147550Y19650D01*
X148850D01*
X150050Y19150D02*X150550Y19650D01*
X152050D01*
X152550Y19150D01*
Y18150D01*
X150050Y15650D02*X152550Y18150D01*
X150050Y15650D02*X152550D01*
X155550Y28150D02*X156850D01*
X154850Y28850D02*X155550Y28150D01*
X154850Y31450D02*Y28850D01*
Y31450D02*X155550Y32150D01*
X156850D01*
X158050Y31650D02*X158550Y32150D01*
X159550D01*
X160050Y31650D01*
X159550Y28150D02*X160050Y28650D01*
X158550Y28150D02*X159550D01*
X158050Y28650D02*X158550Y28150D01*
Y30350D02*X159550D01*
X160050Y31650D02*Y30850D01*
Y29850D02*Y28650D01*
Y29850D02*X159550Y30350D01*
X160050Y30850D02*X159550Y30350D01*
X154000Y40500D02*Y37000D01*
X154500Y36500D01*
X155500D01*
X156000Y37000D01*
Y40500D02*Y37000D01*
X157200Y39700D02*X158000Y40500D01*
Y36500D01*
X157200D02*X158700D01*
X174700Y59500D02*X176000D01*
X174000Y60200D02*X174700Y59500D01*
X174000Y62800D02*Y60200D01*
Y62800D02*X174700Y63500D01*
X176000D01*
X177200Y62700D02*X178000Y63500D01*
Y59500D01*
X177200D02*X178700D01*
X188893Y48150D02*X190893D01*
X191393Y47650D01*
Y46650D01*
X190893Y46150D02*X191393Y46650D01*
X189393Y46150D02*X190893D01*
X189393Y48150D02*Y44150D01*
X190193Y46150D02*X191393Y44150D01*
X192593Y47650D02*X193093Y48150D01*
X194593D01*
X195093Y47650D01*
Y46650D01*
X192593Y44150D02*X195093Y46650D01*
X192593Y44150D02*X195093D01*
X204039Y37230D02*X204655D01*
Y34535D01*
X204270Y34150D02*X204655Y34535D01*
X203885Y34150D02*X204270D01*
X203500Y34535D02*X203885Y34150D01*
X203500Y34920D02*Y34535D01*
X205579Y36845D02*X205964Y37230D01*
X207119D01*
X207504Y36845D01*
Y36075D01*
X205579Y34150D02*X207504Y36075D01*
X205579Y34150D02*X207504D01*
X205500Y48000D02*X207500D01*
X208000Y47500D01*
Y46500D01*
X207500Y46000D02*X208000Y46500D01*
X206000Y46000D02*X207500D01*
X206000Y48000D02*Y44000D01*
X206800Y46000D02*X208000Y44000D01*
X209200Y47500D02*X209700Y48000D01*
X210700D01*
X211200Y47500D01*
X210700Y44000D02*X211200Y44500D01*
X209700Y44000D02*X210700D01*
X209200Y44500D02*X209700Y44000D01*
Y46200D02*X210700D01*
X211200Y47500D02*Y46700D01*
Y45700D02*Y44500D01*
Y45700D02*X210700Y46200D01*
X211200Y46700D02*X210700Y46200D01*
X125350Y27650D02*X127350D01*
X127850Y27150D01*
Y26150D01*
X127350Y25650D02*X127850Y26150D01*
X125850Y25650D02*X127350D01*
X125850Y27650D02*Y23650D01*
X126650Y25650D02*X127850Y23650D01*
X129050Y26850D02*X129850Y27650D01*
Y23650D01*
X129050D02*X130550D01*
X135200Y73969D02*X136000D01*
Y70469D01*
X135500Y69969D02*X136000Y70469D01*
X135000Y69969D02*X135500D01*
X134500Y70469D02*X135000Y69969D01*
X134500Y70969D02*Y70469D01*
X137200Y73169D02*X138000Y73969D01*
Y69969D01*
X137200D02*X138700D01*
X123006Y82343D02*X124306D01*
X122306Y83043D02*X123006Y82343D01*
X122306Y85643D02*Y83043D01*
Y85643D02*X123006Y86343D01*
X124306D01*
X125506Y83843D02*X127506Y86343D01*
X125506Y83843D02*X128006D01*
X127506Y86343D02*Y82343D01*
X141240Y91177D02*Y87677D01*
X141740Y87177D01*
X142740D01*
X143240Y87677D01*
Y91177D02*Y87677D01*
X144440Y90677D02*X144940Y91177D01*
X145940D01*
X146440Y90677D01*
X145940Y87177D02*X146440Y87677D01*
X144940Y87177D02*X145940D01*
X144440Y87677D02*X144940Y87177D01*
Y89377D02*X145940D01*
X146440Y90677D02*Y89877D01*
Y88877D02*Y87677D01*
Y88877D02*X145940Y89377D01*
X146440Y89877D02*X145940Y89377D01*
X174287Y81504D02*X176287D01*
X176787Y81004D01*
Y80004D01*
X176287Y79504D02*X176787Y80004D01*
X174787Y79504D02*X176287D01*
X174787Y81504D02*Y77504D01*
X175587Y79504D02*X176787Y77504D01*
X177987Y79004D02*X179987Y81504D01*
X177987Y79004D02*X180487D01*
X179987Y81504D02*Y77504D01*
X166896Y77244D02*X168196D01*
X166196Y77944D02*X166896Y77244D01*
X166196Y80544D02*Y77944D01*
Y80544D02*X166896Y81244D01*
X168196D01*
X170896D02*X171396Y80744D01*
X169896Y81244D02*X170896D01*
X169396Y80744D02*X169896Y81244D01*
X169396Y80744D02*Y77744D01*
X169896Y77244D01*
X170896Y79444D02*X171396Y78944D01*
X169396Y79444D02*X170896D01*
X169896Y77244D02*X170896D01*
X171396Y77744D01*
Y78944D02*Y77744D01*
X191967Y87087D02*X193267D01*
X191267Y87787D02*X191967Y87087D01*
X191267Y90387D02*Y87787D01*
Y90387D02*X191967Y91087D01*
X193267D01*
X194467D02*X196467D01*
X194467D02*Y89087D01*
X194967Y89587D01*
X195967D01*
X196467Y89087D01*
Y87587D01*
X195967Y87087D02*X196467Y87587D01*
X194967Y87087D02*X195967D01*
X194467Y87587D02*X194967Y87087D01*
X245200Y73969D02*X246000D01*
Y70469D01*
X245500Y69969D02*X246000Y70469D01*
X245000Y69969D02*X245500D01*
X244500Y70469D02*X245000Y69969D01*
X244500Y70969D02*Y70469D01*
X247200Y73169D02*X248000Y73969D01*
Y69969D01*
X247200D02*X248700D01*
X251240Y91177D02*Y87677D01*
X251740Y87177D01*
X252740D01*
X253240Y87677D01*
Y91177D02*Y87677D01*
X254440Y90677D02*X254940Y91177D01*
X255940D01*
X256440Y90677D01*
X255940Y87177D02*X256440Y87677D01*
X254940Y87177D02*X255940D01*
X254440Y87677D02*X254940Y87177D01*
Y89377D02*X255940D01*
X256440Y90677D02*Y89877D01*
Y88877D02*Y87677D01*
Y88877D02*X255940Y89377D01*
X256440Y89877D02*X255940Y89377D01*
X233006Y82343D02*X234306D01*
X232306Y83043D02*X233006Y82343D01*
X232306Y85643D02*Y83043D01*
Y85643D02*X233006Y86343D01*
X234306D01*
X235506Y83843D02*X237506Y86343D01*
X235506Y83843D02*X238006D01*
X237506Y86343D02*Y82343D01*
M02*
