M48
INCH
T37C0.012
%
T37
X001400Y009550
X001400Y009200
X001400Y008850
X001750Y009550
X001750Y009200
X001750Y008850
X001750Y001800
X001950Y001600
X002150Y001800
X002600Y004900
X002600Y004550
X002600Y004200
X002600Y003850
X002800Y008400
X002950Y004900
X003100Y008400
X003300Y004900
X004000Y007400
X004000Y007000
X004000Y006600
X005200Y008750
X005200Y008150
X006750Y002200
X007150Y004100
X007150Y003800
X007650Y007950
X007650Y003150
X008900Y009750
X009200Y009750
X009200Y001550
X009300Y003150
X010150Y002750
X010150Y002250
X010550Y003700
X012400Y009550
X012400Y009200
X012400Y008850
X012750Y009550
X012750Y009200
X012750Y008850
X012750Y001800
X012950Y001600
X013150Y001800
X013600Y004900
X013600Y004550
X013600Y004200
X013600Y003850
X013800Y008400
X013950Y004900
X014100Y008400
X014300Y004900
X015000Y007400
X015000Y007000
X015000Y006600
X016200Y008750
X016200Y008150
X017750Y002200
X018150Y004100
X018150Y003800
X018650Y007950
X018650Y003150
X019900Y009750
X020200Y009750
X020200Y001550
X020300Y003150
X021150Y002750
X021150Y002250
X021550Y003700
X023400Y009550
X023400Y009200
X023400Y008850
X023750Y009550
X023750Y009200
X023750Y008850
X023750Y001800
X023950Y001600
X024150Y001800
X024600Y004900
X024600Y004550
X024600Y004200
X024600Y003850
X024800Y008400
X024950Y004900
X025100Y008400
X025300Y004900
X026000Y007400
X026000Y007000
X026000Y006600
X027200Y008750
X027200Y008150
X028750Y002200
X029150Y004100
X029150Y003800
X029650Y007950
X029650Y003150
X030900Y009750
X031200Y009750
X031200Y001550
X031300Y003150
X032150Y002750
X032150Y002250
X032550Y003700
X034400Y009550
X034400Y009200
X034400Y008850
X034750Y009550
X034750Y009200
X034750Y008850
X034750Y001800
X034950Y001600
X035150Y001800
X035600Y004900
X035600Y004550
X035600Y004200
X035600Y003850
X035800Y008400
X035950Y004900
X036100Y008400
X036300Y004900
X037000Y007400
X037000Y007000
X037000Y006600
X038200Y008750
X038200Y008150
X039750Y002200
X040150Y004100
X040150Y003800
X040650Y007950
X040650Y003150
X041900Y009750
X042200Y009750
X042200Y001550
X042300Y003150
X043150Y002750
X043150Y002250
X043550Y003700
X045400Y009550
X045400Y009200
X045400Y008850
X045750Y009550
X045750Y009200
X045750Y008850
X045750Y001800
X045950Y001600
X046150Y001800
X046600Y004900
X046600Y004550
X046600Y004200
X046600Y003850
X046800Y008400
X046950Y004900
X047100Y008400
X047300Y004900
X048000Y007400
X048000Y007000
X048000Y006600
X049200Y008750
X049200Y008150
X050750Y002200
X051150Y004100
X051150Y003800
X051650Y007950
X051650Y003150
X052900Y009750
X053200Y009750
X053200Y001550
X053300Y003150
X054150Y002750
X054150Y002250
X054550Y003700
M30
