G04 start of page 4 for group 2 idx 2 *
G04 Title: (unknown), outline *
G04 Creator: pcb 20140316 *
G04 CreationDate: Sun 13 Sep 2020 05:46:49 PM GMT UTC *
G04 For: railfan *
G04 Format: Gerber/RS-274X *
G04 PCB-Dimensions (mil): 5600.00 1200.00 *
G04 PCB-Coordinate-Origin: lower left *
%MOIN*%
%FSLAX25Y25*%
%LNOUTLINE*%
%ADD36C,0.0100*%
G54D36*X220000Y10000D02*X120000D01*
X330000D02*X230000D01*
X440000D02*X340000D01*
X550000D02*X450000D01*
X220000Y50000D02*Y10000D01*
X230000Y110000D02*Y70000D01*
Y110000D02*X330000D01*
X230000Y50000D02*Y10000D01*
X330000Y50000D02*Y10000D01*
X340000Y50000D02*Y10000D01*
X440000Y50000D02*Y10000D01*
X330000Y110000D02*Y70000D01*
X340000Y110000D02*Y70000D01*
Y110000D02*X440000D01*
Y70000D01*
X450000Y110000D02*Y70000D01*
Y110000D02*X550000D01*
X450000Y50000D02*Y10000D01*
X550000Y110000D02*Y10000D01*
X110000Y110000D02*Y70000D01*
X120000Y110000D02*Y70000D01*
Y110000D02*X220000D01*
Y70000D01*
X110000Y10000D02*X10000D01*
Y110000D01*
X110000Y50000D02*Y10000D01*
X120000Y50000D02*Y10000D01*
X10000Y110000D02*X110000D01*
X225000Y55000D02*G75*G03X220000Y50000I0J-5000D01*G01*
X225000Y55000D02*G75*G02X230000Y50000I0J-5000D01*G01*
X225000Y65000D02*G75*G02X220000Y70000I0J5000D01*G01*
X225000Y65000D02*G75*G03X230000Y70000I0J5000D01*G01*
X115000Y55000D02*G75*G03X110000Y50000I0J-5000D01*G01*
X115000Y55000D02*G75*G02X120000Y50000I0J-5000D01*G01*
X115000Y65000D02*G75*G02X110000Y70000I0J5000D01*G01*
X115000Y65000D02*G75*G03X120000Y70000I0J5000D01*G01*
X335000Y55000D02*G75*G03X330000Y50000I0J-5000D01*G01*
X335000Y55000D02*G75*G02X340000Y50000I0J-5000D01*G01*
X445000Y55000D02*G75*G03X440000Y50000I0J-5000D01*G01*
X445000Y55000D02*G75*G02X450000Y50000I0J-5000D01*G01*
X335000Y65000D02*G75*G02X330000Y70000I0J5000D01*G01*
X335000Y65000D02*G75*G03X340000Y70000I0J5000D01*G01*
X445000Y65000D02*G75*G02X440000Y70000I0J5000D01*G01*
X445000Y65000D02*G75*G03X450000Y70000I0J5000D01*G01*
M02*
