M48
INCH
T39C0.031
T38C0.039
%
T39
X011100Y006500
X011100Y006000
X011100Y005500
X011900Y006500
X011900Y006000
X011900Y005500
X022100Y006500
X022100Y006000
X022100Y005500
X022900Y006500
X022900Y006000
X022900Y005500
X033100Y006500
X033100Y006000
X033100Y005500
X033900Y006500
X033900Y006000
X033900Y005500
X044100Y006500
X044100Y006000
X044100Y005500
X044900Y006500
X044900Y006000
X044900Y005500
T38
X009700Y001450
X010100Y003450
X010500Y001450
X020700Y001450
X021100Y003450
X021500Y001450
X031700Y001450
X032100Y003450
X032500Y001450
X042700Y001450
X043100Y003450
X043500Y001450
X053700Y001450
X054100Y003450
X054500Y001450
M30
