G04 start of page 13 for group -3984 idx -3984 *
G04 Title: (unknown), fab *
G04 Creator: pcb 20140316 *
G04 CreationDate: Sun 13 Sep 2020 05:46:49 PM GMT UTC *
G04 For: railfan *
G04 Format: Gerber/RS-274X *
G04 PCB-Dimensions (mil): 5600.00 1200.00 *
G04 PCB-Coordinate-Origin: lower left *
%MOIN*%
%FSLAX25Y25*%
%LNFAB*%
%ADD72C,0.0100*%
%ADD71C,0.0075*%
%ADD70C,0.0060*%
%ADD69C,0.0001*%
G54D69*G36*
X99800Y36266D02*X102766Y33300D01*
X102200Y32734D01*
X99234Y35700D01*
X99800Y36266D01*
G37*
G36*
X99234Y33300D02*X102200Y36266D01*
X102766Y35700D01*
X99800Y32734D01*
X99234Y33300D01*
G37*
G36*
X103800Y16266D02*X106766Y13300D01*
X106200Y12734D01*
X103234Y15700D01*
X103800Y16266D01*
G37*
G36*
X103234Y13300D02*X106200Y16266D01*
X106766Y15700D01*
X103800Y12734D01*
X103234Y13300D01*
G37*
G36*
X95800Y16266D02*X98766Y13300D01*
X98200Y12734D01*
X95234Y15700D01*
X95800Y16266D01*
G37*
G36*
X95234Y13300D02*X98200Y16266D01*
X98766Y15700D01*
X95800Y12734D01*
X95234Y13300D01*
G37*
G36*
X209800Y36266D02*X212766Y33300D01*
X212200Y32734D01*
X209234Y35700D01*
X209800Y36266D01*
G37*
G36*
X209234Y33300D02*X212200Y36266D01*
X212766Y35700D01*
X209800Y32734D01*
X209234Y33300D01*
G37*
G36*
X213800Y16266D02*X216766Y13300D01*
X216200Y12734D01*
X213234Y15700D01*
X213800Y16266D01*
G37*
G36*
X213234Y13300D02*X216200Y16266D01*
X216766Y15700D01*
X213800Y12734D01*
X213234Y13300D01*
G37*
G36*
X205800Y16266D02*X208766Y13300D01*
X208200Y12734D01*
X205234Y15700D01*
X205800Y16266D01*
G37*
G36*
X205234Y13300D02*X208200Y16266D01*
X208766Y15700D01*
X205800Y12734D01*
X205234Y13300D01*
G37*
G36*
X319800Y36266D02*X322766Y33300D01*
X322200Y32734D01*
X319234Y35700D01*
X319800Y36266D01*
G37*
G36*
X319234Y33300D02*X322200Y36266D01*
X322766Y35700D01*
X319800Y32734D01*
X319234Y33300D01*
G37*
G36*
X323800Y16266D02*X326766Y13300D01*
X326200Y12734D01*
X323234Y15700D01*
X323800Y16266D01*
G37*
G36*
X323234Y13300D02*X326200Y16266D01*
X326766Y15700D01*
X323800Y12734D01*
X323234Y13300D01*
G37*
G36*
X315800Y16266D02*X318766Y13300D01*
X318200Y12734D01*
X315234Y15700D01*
X315800Y16266D01*
G37*
G36*
X315234Y13300D02*X318200Y16266D01*
X318766Y15700D01*
X315800Y12734D01*
X315234Y13300D01*
G37*
G36*
X429800Y36266D02*X432766Y33300D01*
X432200Y32734D01*
X429234Y35700D01*
X429800Y36266D01*
G37*
G36*
X429234Y33300D02*X432200Y36266D01*
X432766Y35700D01*
X429800Y32734D01*
X429234Y33300D01*
G37*
G36*
X433800Y16266D02*X436766Y13300D01*
X436200Y12734D01*
X433234Y15700D01*
X433800Y16266D01*
G37*
G36*
X433234Y13300D02*X436200Y16266D01*
X436766Y15700D01*
X433800Y12734D01*
X433234Y13300D01*
G37*
G36*
X425800Y16266D02*X428766Y13300D01*
X428200Y12734D01*
X425234Y15700D01*
X425800Y16266D01*
G37*
G36*
X425234Y13300D02*X428200Y16266D01*
X428766Y15700D01*
X425800Y12734D01*
X425234Y13300D01*
G37*
G36*
X539800Y36266D02*X542766Y33300D01*
X542200Y32734D01*
X539234Y35700D01*
X539800Y36266D01*
G37*
G36*
X539234Y33300D02*X542200Y36266D01*
X542766Y35700D01*
X539800Y32734D01*
X539234Y33300D01*
G37*
G36*
X543800Y16266D02*X546766Y13300D01*
X546200Y12734D01*
X543234Y15700D01*
X543800Y16266D01*
G37*
G36*
X543234Y13300D02*X546200Y16266D01*
X546766Y15700D01*
X543800Y12734D01*
X543234Y13300D01*
G37*
G36*
X535800Y16266D02*X538766Y13300D01*
X538200Y12734D01*
X535234Y15700D01*
X535800Y16266D01*
G37*
G36*
X535234Y13300D02*X538200Y16266D01*
X538766Y15700D01*
X535800Y12734D01*
X535234Y13300D01*
G37*
G36*
X13800Y148016D02*X16766Y145050D01*
X16200Y144484D01*
X13234Y147450D01*
X13800Y148016D01*
G37*
G36*
X13234Y145050D02*X16200Y148016D01*
X16766Y147450D01*
X13800Y144484D01*
X13234Y145050D01*
G37*
G54D70*X140000Y148500D02*Y142500D01*
Y148500D02*X143750Y142500D01*
Y148500D02*Y142500D01*
X145550Y147750D02*Y143250D01*
Y147750D02*X146300Y148500D01*
X147800D01*
X148550Y147750D01*
Y143250D01*
X147800Y142500D02*X148550Y143250D01*
X146300Y142500D02*X147800D01*
X145550Y143250D02*X146300Y142500D01*
X98000Y147300D02*X99200Y148500D01*
Y142500D01*
X98000D02*X100250D01*
X102050Y148500D02*X105050D01*
X102050D02*Y145500D01*
X102800Y146250D01*
X104300D01*
X105050Y145500D01*
Y143250D01*
X104300Y142500D02*X105050Y143250D01*
X102800Y142500D02*X104300D01*
X102050Y143250D02*X102800Y142500D01*
X45000Y143250D02*X45750Y142500D01*
X45000Y147750D02*Y143250D01*
Y147750D02*X45750Y148500D01*
X47250D01*
X48000Y147750D01*
Y143250D01*
X47250Y142500D02*X48000Y143250D01*
X45750Y142500D02*X47250D01*
X45000Y144000D02*X48000Y147000D01*
X49800Y142500D02*X50550D01*
X52350Y143250D02*X53100Y142500D01*
X52350Y147750D02*Y143250D01*
Y147750D02*X53100Y148500D01*
X54600D01*
X55350Y147750D01*
Y143250D01*
X54600Y142500D02*X55350Y143250D01*
X53100Y142500D02*X54600D01*
X52350Y144000D02*X55350Y147000D01*
X57150Y147750D02*X57900Y148500D01*
X59400D01*
X60150Y147750D01*
X59400Y142500D02*X60150Y143250D01*
X57900Y142500D02*X59400D01*
X57150Y143250D02*X57900Y142500D01*
Y145800D02*X59400D01*
X60150Y147750D02*Y146550D01*
Y145050D02*Y143250D01*
Y145050D02*X59400Y145800D01*
X60150Y146550D02*X59400Y145800D01*
X62700Y142500D02*X64950Y145500D01*
Y147750D02*Y145500D01*
X64200Y148500D02*X64950Y147750D01*
X62700Y148500D02*X64200D01*
X61950Y147750D02*X62700Y148500D01*
X61950Y147750D02*Y146250D01*
X62700Y145500D01*
X64950D01*
X119000Y66600D02*Y63400D01*
X117400Y65000D02*X120600D01*
X119000Y56600D02*Y53400D01*
X117400Y55000D02*X120600D01*
X119000Y61600D02*Y58400D01*
X117400Y60000D02*X120600D01*
X111000Y66600D02*Y63400D01*
X109400Y65000D02*X112600D01*
X111000Y61600D02*Y58400D01*
X109400Y60000D02*X112600D01*
X111000Y56600D02*Y53400D01*
X109400Y55000D02*X112600D01*
X229000Y66600D02*Y63400D01*
X227400Y65000D02*X230600D01*
X229000Y56600D02*Y53400D01*
X227400Y55000D02*X230600D01*
X229000Y61600D02*Y58400D01*
X227400Y60000D02*X230600D01*
X221000Y66600D02*Y63400D01*
X219400Y65000D02*X222600D01*
X221000Y61600D02*Y58400D01*
X219400Y60000D02*X222600D01*
X221000Y56600D02*Y53400D01*
X219400Y55000D02*X222600D01*
X339000Y66600D02*Y63400D01*
X337400Y65000D02*X340600D01*
X339000Y56600D02*Y53400D01*
X337400Y55000D02*X340600D01*
X339000Y61600D02*Y58400D01*
X337400Y60000D02*X340600D01*
X331000Y66600D02*Y63400D01*
X329400Y65000D02*X332600D01*
X331000Y61600D02*Y58400D01*
X329400Y60000D02*X332600D01*
X331000Y56600D02*Y53400D01*
X329400Y55000D02*X332600D01*
X449000Y66600D02*Y63400D01*
X447400Y65000D02*X450600D01*
X449000Y56600D02*Y53400D01*
X447400Y55000D02*X450600D01*
X449000Y61600D02*Y58400D01*
X447400Y60000D02*X450600D01*
X441000Y66600D02*Y63400D01*
X439400Y65000D02*X442600D01*
X441000Y61600D02*Y58400D01*
X439400Y60000D02*X442600D01*
X441000Y56600D02*Y53400D01*
X439400Y55000D02*X442600D01*
X15000Y162850D02*Y159650D01*
X13400Y161250D02*X16600D01*
X140000Y163500D02*Y157500D01*
Y163500D02*X143750Y157500D01*
Y163500D02*Y157500D01*
X145550Y162750D02*Y158250D01*
Y162750D02*X146300Y163500D01*
X147800D01*
X148550Y162750D01*
Y158250D01*
X147800Y157500D02*X148550Y158250D01*
X146300Y157500D02*X147800D01*
X145550Y158250D02*X146300Y157500D01*
X98000Y162750D02*X98750Y163500D01*
X101000D01*
X101750Y162750D01*
Y161250D01*
X98000Y157500D02*X101750Y161250D01*
X98000Y157500D02*X101750D01*
X103550Y159750D02*X106550Y163500D01*
X103550Y159750D02*X107300D01*
X106550Y163500D02*Y157500D01*
X45000Y158250D02*X45750Y157500D01*
X45000Y162750D02*Y158250D01*
Y162750D02*X45750Y163500D01*
X47250D01*
X48000Y162750D01*
Y158250D01*
X47250Y157500D02*X48000Y158250D01*
X45750Y157500D02*X47250D01*
X45000Y159000D02*X48000Y162000D01*
X49800Y157500D02*X50550D01*
X52350Y158250D02*X53100Y157500D01*
X52350Y162750D02*Y158250D01*
Y162750D02*X53100Y163500D01*
X54600D01*
X55350Y162750D01*
Y158250D01*
X54600Y157500D02*X55350Y158250D01*
X53100Y157500D02*X54600D01*
X52350Y159000D02*X55350Y162000D01*
X57150Y162750D02*X57900Y163500D01*
X59400D01*
X60150Y162750D01*
X59400Y157500D02*X60150Y158250D01*
X57900Y157500D02*X59400D01*
X57150Y158250D02*X57900Y157500D01*
Y160800D02*X59400D01*
X60150Y162750D02*Y161550D01*
Y160050D02*Y158250D01*
Y160050D02*X59400Y160800D01*
X60150Y161550D02*X59400Y160800D01*
X61950Y162300D02*X63150Y163500D01*
Y157500D01*
X61950D02*X64200D01*
X40000Y74000D02*Y72400D01*
Y74000D02*X41387Y74800D01*
X40000Y74000D02*X38613Y74800D01*
X40000Y70000D02*Y68400D01*
Y70000D02*X41387Y70800D01*
X40000Y70000D02*X38613Y70800D01*
X40000Y66000D02*Y64400D01*
Y66000D02*X41387Y66800D01*
X40000Y66000D02*X38613Y66800D01*
X33000Y49000D02*Y47400D01*
Y49000D02*X34387Y49800D01*
X33000Y49000D02*X31613Y49800D01*
X29500Y49000D02*Y47400D01*
Y49000D02*X30887Y49800D01*
X29500Y49000D02*X28113Y49800D01*
X26000Y49000D02*Y47400D01*
Y49000D02*X27387Y49800D01*
X26000Y49000D02*X24613Y49800D01*
X26000Y45500D02*Y43900D01*
Y45500D02*X27387Y46300D01*
X26000Y45500D02*X24613Y46300D01*
X26000Y42000D02*Y40400D01*
Y42000D02*X27387Y42800D01*
X26000Y42000D02*X24613Y42800D01*
X26000Y38500D02*Y36900D01*
Y38500D02*X27387Y39300D01*
X26000Y38500D02*X24613Y39300D01*
X52000Y81500D02*Y79900D01*
Y81500D02*X53387Y82300D01*
X52000Y81500D02*X50613Y82300D01*
X52000Y87500D02*Y85900D01*
Y87500D02*X53387Y88300D01*
X52000Y87500D02*X50613Y88300D01*
X21500Y18000D02*Y16400D01*
Y18000D02*X22887Y18800D01*
X21500Y18000D02*X20113Y18800D01*
X17500Y18000D02*Y16400D01*
Y18000D02*X18887Y18800D01*
X17500Y18000D02*X16113Y18800D01*
X19500Y16000D02*Y14400D01*
Y16000D02*X20887Y16800D01*
X19500Y16000D02*X18113Y16800D01*
X67500Y22000D02*Y20400D01*
Y22000D02*X68887Y22800D01*
X67500Y22000D02*X66113Y22800D01*
X105500Y37000D02*Y35400D01*
Y37000D02*X106887Y37800D01*
X105500Y37000D02*X104113Y37800D01*
X101500Y27500D02*Y25900D01*
Y27500D02*X102887Y28300D01*
X101500Y27500D02*X100113Y28300D01*
X93000Y31500D02*Y29900D01*
Y31500D02*X94387Y32300D01*
X93000Y31500D02*X91613Y32300D01*
X101500Y22500D02*Y20900D01*
Y22500D02*X102887Y23300D01*
X101500Y22500D02*X100113Y23300D01*
X92000Y15500D02*Y13900D01*
Y15500D02*X93387Y16300D01*
X92000Y15500D02*X90613Y16300D01*
X76500Y31500D02*Y29900D01*
Y31500D02*X77887Y32300D01*
X76500Y31500D02*X75113Y32300D01*
X28000Y84000D02*Y82400D01*
Y84000D02*X29387Y84800D01*
X28000Y84000D02*X26613Y84800D01*
X31000Y84000D02*Y82400D01*
Y84000D02*X32387Y84800D01*
X31000Y84000D02*X29613Y84800D01*
X14000Y95500D02*Y93900D01*
Y95500D02*X15387Y96300D01*
X14000Y95500D02*X12613Y96300D01*
X14000Y92000D02*Y90400D01*
Y92000D02*X15387Y92800D01*
X14000Y92000D02*X12613Y92800D01*
X14000Y88500D02*Y86900D01*
Y88500D02*X15387Y89300D01*
X14000Y88500D02*X12613Y89300D01*
X92000Y97500D02*Y95900D01*
Y97500D02*X93387Y98300D01*
X92000Y97500D02*X90613Y98300D01*
X89000Y97500D02*Y95900D01*
Y97500D02*X90387Y98300D01*
X89000Y97500D02*X87613Y98300D01*
X76500Y79500D02*Y77900D01*
Y79500D02*X77887Y80300D01*
X76500Y79500D02*X75113Y80300D01*
X17500Y95500D02*Y93900D01*
Y95500D02*X18887Y96300D01*
X17500Y95500D02*X16113Y96300D01*
X17500Y92000D02*Y90400D01*
Y92000D02*X18887Y92800D01*
X17500Y92000D02*X16113Y92800D01*
X17500Y88500D02*Y86900D01*
Y88500D02*X18887Y89300D01*
X17500Y88500D02*X16113Y89300D01*
X71500Y41000D02*Y39400D01*
Y41000D02*X72887Y41800D01*
X71500Y41000D02*X70113Y41800D01*
X71500Y38000D02*Y36400D01*
Y38000D02*X72887Y38800D01*
X71500Y38000D02*X70113Y38800D01*
X150000Y74000D02*Y72400D01*
Y74000D02*X151387Y74800D01*
X150000Y74000D02*X148613Y74800D01*
X150000Y70000D02*Y68400D01*
Y70000D02*X151387Y70800D01*
X150000Y70000D02*X148613Y70800D01*
X150000Y66000D02*Y64400D01*
Y66000D02*X151387Y66800D01*
X150000Y66000D02*X148613Y66800D01*
X143000Y49000D02*Y47400D01*
Y49000D02*X144387Y49800D01*
X143000Y49000D02*X141613Y49800D01*
X139500Y49000D02*Y47400D01*
Y49000D02*X140887Y49800D01*
X139500Y49000D02*X138113Y49800D01*
X136000Y49000D02*Y47400D01*
Y49000D02*X137387Y49800D01*
X136000Y49000D02*X134613Y49800D01*
X136000Y45500D02*Y43900D01*
Y45500D02*X137387Y46300D01*
X136000Y45500D02*X134613Y46300D01*
X136000Y42000D02*Y40400D01*
Y42000D02*X137387Y42800D01*
X136000Y42000D02*X134613Y42800D01*
X136000Y38500D02*Y36900D01*
Y38500D02*X137387Y39300D01*
X136000Y38500D02*X134613Y39300D01*
X162000Y81500D02*Y79900D01*
Y81500D02*X163387Y82300D01*
X162000Y81500D02*X160613Y82300D01*
X162000Y87500D02*Y85900D01*
Y87500D02*X163387Y88300D01*
X162000Y87500D02*X160613Y88300D01*
X131500Y18000D02*Y16400D01*
Y18000D02*X132887Y18800D01*
X131500Y18000D02*X130113Y18800D01*
X127500Y18000D02*Y16400D01*
Y18000D02*X128887Y18800D01*
X127500Y18000D02*X126113Y18800D01*
X129500Y16000D02*Y14400D01*
Y16000D02*X130887Y16800D01*
X129500Y16000D02*X128113Y16800D01*
X177500Y22000D02*Y20400D01*
Y22000D02*X178887Y22800D01*
X177500Y22000D02*X176113Y22800D01*
X215500Y37000D02*Y35400D01*
Y37000D02*X216887Y37800D01*
X215500Y37000D02*X214113Y37800D01*
X211500Y27500D02*Y25900D01*
Y27500D02*X212887Y28300D01*
X211500Y27500D02*X210113Y28300D01*
X203000Y31500D02*Y29900D01*
Y31500D02*X204387Y32300D01*
X203000Y31500D02*X201613Y32300D01*
X211500Y22500D02*Y20900D01*
Y22500D02*X212887Y23300D01*
X211500Y22500D02*X210113Y23300D01*
X202000Y15500D02*Y13900D01*
Y15500D02*X203387Y16300D01*
X202000Y15500D02*X200613Y16300D01*
X186500Y31500D02*Y29900D01*
Y31500D02*X187887Y32300D01*
X186500Y31500D02*X185113Y32300D01*
X138000Y84000D02*Y82400D01*
Y84000D02*X139387Y84800D01*
X138000Y84000D02*X136613Y84800D01*
X141000Y84000D02*Y82400D01*
Y84000D02*X142387Y84800D01*
X141000Y84000D02*X139613Y84800D01*
X124000Y95500D02*Y93900D01*
Y95500D02*X125387Y96300D01*
X124000Y95500D02*X122613Y96300D01*
X124000Y92000D02*Y90400D01*
Y92000D02*X125387Y92800D01*
X124000Y92000D02*X122613Y92800D01*
X124000Y88500D02*Y86900D01*
Y88500D02*X125387Y89300D01*
X124000Y88500D02*X122613Y89300D01*
X202000Y97500D02*Y95900D01*
Y97500D02*X203387Y98300D01*
X202000Y97500D02*X200613Y98300D01*
X199000Y97500D02*Y95900D01*
Y97500D02*X200387Y98300D01*
X199000Y97500D02*X197613Y98300D01*
X186500Y79500D02*Y77900D01*
Y79500D02*X187887Y80300D01*
X186500Y79500D02*X185113Y80300D01*
X127500Y95500D02*Y93900D01*
Y95500D02*X128887Y96300D01*
X127500Y95500D02*X126113Y96300D01*
X127500Y92000D02*Y90400D01*
Y92000D02*X128887Y92800D01*
X127500Y92000D02*X126113Y92800D01*
X127500Y88500D02*Y86900D01*
Y88500D02*X128887Y89300D01*
X127500Y88500D02*X126113Y89300D01*
X181500Y41000D02*Y39400D01*
Y41000D02*X182887Y41800D01*
X181500Y41000D02*X180113Y41800D01*
X181500Y38000D02*Y36400D01*
Y38000D02*X182887Y38800D01*
X181500Y38000D02*X180113Y38800D01*
X260000Y74000D02*Y72400D01*
Y74000D02*X261387Y74800D01*
X260000Y74000D02*X258613Y74800D01*
X260000Y70000D02*Y68400D01*
Y70000D02*X261387Y70800D01*
X260000Y70000D02*X258613Y70800D01*
X260000Y66000D02*Y64400D01*
Y66000D02*X261387Y66800D01*
X260000Y66000D02*X258613Y66800D01*
X253000Y49000D02*Y47400D01*
Y49000D02*X254387Y49800D01*
X253000Y49000D02*X251613Y49800D01*
X249500Y49000D02*Y47400D01*
Y49000D02*X250887Y49800D01*
X249500Y49000D02*X248113Y49800D01*
X246000Y49000D02*Y47400D01*
Y49000D02*X247387Y49800D01*
X246000Y49000D02*X244613Y49800D01*
X246000Y45500D02*Y43900D01*
Y45500D02*X247387Y46300D01*
X246000Y45500D02*X244613Y46300D01*
X246000Y42000D02*Y40400D01*
Y42000D02*X247387Y42800D01*
X246000Y42000D02*X244613Y42800D01*
X246000Y38500D02*Y36900D01*
Y38500D02*X247387Y39300D01*
X246000Y38500D02*X244613Y39300D01*
X272000Y81500D02*Y79900D01*
Y81500D02*X273387Y82300D01*
X272000Y81500D02*X270613Y82300D01*
X272000Y87500D02*Y85900D01*
Y87500D02*X273387Y88300D01*
X272000Y87500D02*X270613Y88300D01*
X241500Y18000D02*Y16400D01*
Y18000D02*X242887Y18800D01*
X241500Y18000D02*X240113Y18800D01*
X237500Y18000D02*Y16400D01*
Y18000D02*X238887Y18800D01*
X237500Y18000D02*X236113Y18800D01*
X239500Y16000D02*Y14400D01*
Y16000D02*X240887Y16800D01*
X239500Y16000D02*X238113Y16800D01*
X287500Y22000D02*Y20400D01*
Y22000D02*X288887Y22800D01*
X287500Y22000D02*X286113Y22800D01*
X325500Y37000D02*Y35400D01*
Y37000D02*X326887Y37800D01*
X325500Y37000D02*X324113Y37800D01*
X321500Y27500D02*Y25900D01*
Y27500D02*X322887Y28300D01*
X321500Y27500D02*X320113Y28300D01*
X313000Y31500D02*Y29900D01*
Y31500D02*X314387Y32300D01*
X313000Y31500D02*X311613Y32300D01*
X321500Y22500D02*Y20900D01*
Y22500D02*X322887Y23300D01*
X321500Y22500D02*X320113Y23300D01*
X312000Y15500D02*Y13900D01*
Y15500D02*X313387Y16300D01*
X312000Y15500D02*X310613Y16300D01*
X296500Y31500D02*Y29900D01*
Y31500D02*X297887Y32300D01*
X296500Y31500D02*X295113Y32300D01*
X248000Y84000D02*Y82400D01*
Y84000D02*X249387Y84800D01*
X248000Y84000D02*X246613Y84800D01*
X251000Y84000D02*Y82400D01*
Y84000D02*X252387Y84800D01*
X251000Y84000D02*X249613Y84800D01*
X234000Y95500D02*Y93900D01*
Y95500D02*X235387Y96300D01*
X234000Y95500D02*X232613Y96300D01*
X234000Y92000D02*Y90400D01*
Y92000D02*X235387Y92800D01*
X234000Y92000D02*X232613Y92800D01*
X234000Y88500D02*Y86900D01*
Y88500D02*X235387Y89300D01*
X234000Y88500D02*X232613Y89300D01*
X312000Y97500D02*Y95900D01*
Y97500D02*X313387Y98300D01*
X312000Y97500D02*X310613Y98300D01*
X309000Y97500D02*Y95900D01*
Y97500D02*X310387Y98300D01*
X309000Y97500D02*X307613Y98300D01*
X296500Y79500D02*Y77900D01*
Y79500D02*X297887Y80300D01*
X296500Y79500D02*X295113Y80300D01*
X237500Y95500D02*Y93900D01*
Y95500D02*X238887Y96300D01*
X237500Y95500D02*X236113Y96300D01*
X237500Y92000D02*Y90400D01*
Y92000D02*X238887Y92800D01*
X237500Y92000D02*X236113Y92800D01*
X237500Y88500D02*Y86900D01*
Y88500D02*X238887Y89300D01*
X237500Y88500D02*X236113Y89300D01*
X291500Y41000D02*Y39400D01*
Y41000D02*X292887Y41800D01*
X291500Y41000D02*X290113Y41800D01*
X291500Y38000D02*Y36400D01*
Y38000D02*X292887Y38800D01*
X291500Y38000D02*X290113Y38800D01*
X370000Y74000D02*Y72400D01*
Y74000D02*X371387Y74800D01*
X370000Y74000D02*X368613Y74800D01*
X370000Y70000D02*Y68400D01*
Y70000D02*X371387Y70800D01*
X370000Y70000D02*X368613Y70800D01*
X370000Y66000D02*Y64400D01*
Y66000D02*X371387Y66800D01*
X370000Y66000D02*X368613Y66800D01*
X363000Y49000D02*Y47400D01*
Y49000D02*X364387Y49800D01*
X363000Y49000D02*X361613Y49800D01*
X359500Y49000D02*Y47400D01*
Y49000D02*X360887Y49800D01*
X359500Y49000D02*X358113Y49800D01*
X356000Y49000D02*Y47400D01*
Y49000D02*X357387Y49800D01*
X356000Y49000D02*X354613Y49800D01*
X356000Y45500D02*Y43900D01*
Y45500D02*X357387Y46300D01*
X356000Y45500D02*X354613Y46300D01*
X356000Y42000D02*Y40400D01*
Y42000D02*X357387Y42800D01*
X356000Y42000D02*X354613Y42800D01*
X356000Y38500D02*Y36900D01*
Y38500D02*X357387Y39300D01*
X356000Y38500D02*X354613Y39300D01*
X382000Y81500D02*Y79900D01*
Y81500D02*X383387Y82300D01*
X382000Y81500D02*X380613Y82300D01*
X382000Y87500D02*Y85900D01*
Y87500D02*X383387Y88300D01*
X382000Y87500D02*X380613Y88300D01*
X351500Y18000D02*Y16400D01*
Y18000D02*X352887Y18800D01*
X351500Y18000D02*X350113Y18800D01*
X347500Y18000D02*Y16400D01*
Y18000D02*X348887Y18800D01*
X347500Y18000D02*X346113Y18800D01*
X349500Y16000D02*Y14400D01*
Y16000D02*X350887Y16800D01*
X349500Y16000D02*X348113Y16800D01*
X397500Y22000D02*Y20400D01*
Y22000D02*X398887Y22800D01*
X397500Y22000D02*X396113Y22800D01*
X435500Y37000D02*Y35400D01*
Y37000D02*X436887Y37800D01*
X435500Y37000D02*X434113Y37800D01*
X431500Y27500D02*Y25900D01*
Y27500D02*X432887Y28300D01*
X431500Y27500D02*X430113Y28300D01*
X423000Y31500D02*Y29900D01*
Y31500D02*X424387Y32300D01*
X423000Y31500D02*X421613Y32300D01*
X431500Y22500D02*Y20900D01*
Y22500D02*X432887Y23300D01*
X431500Y22500D02*X430113Y23300D01*
X422000Y15500D02*Y13900D01*
Y15500D02*X423387Y16300D01*
X422000Y15500D02*X420613Y16300D01*
X406500Y31500D02*Y29900D01*
Y31500D02*X407887Y32300D01*
X406500Y31500D02*X405113Y32300D01*
X358000Y84000D02*Y82400D01*
Y84000D02*X359387Y84800D01*
X358000Y84000D02*X356613Y84800D01*
X361000Y84000D02*Y82400D01*
Y84000D02*X362387Y84800D01*
X361000Y84000D02*X359613Y84800D01*
X344000Y95500D02*Y93900D01*
Y95500D02*X345387Y96300D01*
X344000Y95500D02*X342613Y96300D01*
X344000Y92000D02*Y90400D01*
Y92000D02*X345387Y92800D01*
X344000Y92000D02*X342613Y92800D01*
X344000Y88500D02*Y86900D01*
Y88500D02*X345387Y89300D01*
X344000Y88500D02*X342613Y89300D01*
X422000Y97500D02*Y95900D01*
Y97500D02*X423387Y98300D01*
X422000Y97500D02*X420613Y98300D01*
X419000Y97500D02*Y95900D01*
Y97500D02*X420387Y98300D01*
X419000Y97500D02*X417613Y98300D01*
X406500Y79500D02*Y77900D01*
Y79500D02*X407887Y80300D01*
X406500Y79500D02*X405113Y80300D01*
X347500Y95500D02*Y93900D01*
Y95500D02*X348887Y96300D01*
X347500Y95500D02*X346113Y96300D01*
X347500Y92000D02*Y90400D01*
Y92000D02*X348887Y92800D01*
X347500Y92000D02*X346113Y92800D01*
X347500Y88500D02*Y86900D01*
Y88500D02*X348887Y89300D01*
X347500Y88500D02*X346113Y89300D01*
X401500Y41000D02*Y39400D01*
Y41000D02*X402887Y41800D01*
X401500Y41000D02*X400113Y41800D01*
X401500Y38000D02*Y36400D01*
Y38000D02*X402887Y38800D01*
X401500Y38000D02*X400113Y38800D01*
X480000Y74000D02*Y72400D01*
Y74000D02*X481387Y74800D01*
X480000Y74000D02*X478613Y74800D01*
X480000Y70000D02*Y68400D01*
Y70000D02*X481387Y70800D01*
X480000Y70000D02*X478613Y70800D01*
X480000Y66000D02*Y64400D01*
Y66000D02*X481387Y66800D01*
X480000Y66000D02*X478613Y66800D01*
X473000Y49000D02*Y47400D01*
Y49000D02*X474387Y49800D01*
X473000Y49000D02*X471613Y49800D01*
X469500Y49000D02*Y47400D01*
Y49000D02*X470887Y49800D01*
X469500Y49000D02*X468113Y49800D01*
X466000Y49000D02*Y47400D01*
Y49000D02*X467387Y49800D01*
X466000Y49000D02*X464613Y49800D01*
X466000Y45500D02*Y43900D01*
Y45500D02*X467387Y46300D01*
X466000Y45500D02*X464613Y46300D01*
X466000Y42000D02*Y40400D01*
Y42000D02*X467387Y42800D01*
X466000Y42000D02*X464613Y42800D01*
X466000Y38500D02*Y36900D01*
Y38500D02*X467387Y39300D01*
X466000Y38500D02*X464613Y39300D01*
X492000Y81500D02*Y79900D01*
Y81500D02*X493387Y82300D01*
X492000Y81500D02*X490613Y82300D01*
X492000Y87500D02*Y85900D01*
Y87500D02*X493387Y88300D01*
X492000Y87500D02*X490613Y88300D01*
X461500Y18000D02*Y16400D01*
Y18000D02*X462887Y18800D01*
X461500Y18000D02*X460113Y18800D01*
X457500Y18000D02*Y16400D01*
Y18000D02*X458887Y18800D01*
X457500Y18000D02*X456113Y18800D01*
X459500Y16000D02*Y14400D01*
Y16000D02*X460887Y16800D01*
X459500Y16000D02*X458113Y16800D01*
X507500Y22000D02*Y20400D01*
Y22000D02*X508887Y22800D01*
X507500Y22000D02*X506113Y22800D01*
X545500Y37000D02*Y35400D01*
Y37000D02*X546887Y37800D01*
X545500Y37000D02*X544113Y37800D01*
X541500Y27500D02*Y25900D01*
Y27500D02*X542887Y28300D01*
X541500Y27500D02*X540113Y28300D01*
X533000Y31500D02*Y29900D01*
Y31500D02*X534387Y32300D01*
X533000Y31500D02*X531613Y32300D01*
X541500Y22500D02*Y20900D01*
Y22500D02*X542887Y23300D01*
X541500Y22500D02*X540113Y23300D01*
X532000Y15500D02*Y13900D01*
Y15500D02*X533387Y16300D01*
X532000Y15500D02*X530613Y16300D01*
X516500Y31500D02*Y29900D01*
Y31500D02*X517887Y32300D01*
X516500Y31500D02*X515113Y32300D01*
X468000Y84000D02*Y82400D01*
Y84000D02*X469387Y84800D01*
X468000Y84000D02*X466613Y84800D01*
X471000Y84000D02*Y82400D01*
Y84000D02*X472387Y84800D01*
X471000Y84000D02*X469613Y84800D01*
X454000Y95500D02*Y93900D01*
Y95500D02*X455387Y96300D01*
X454000Y95500D02*X452613Y96300D01*
X454000Y92000D02*Y90400D01*
Y92000D02*X455387Y92800D01*
X454000Y92000D02*X452613Y92800D01*
X454000Y88500D02*Y86900D01*
Y88500D02*X455387Y89300D01*
X454000Y88500D02*X452613Y89300D01*
X532000Y97500D02*Y95900D01*
Y97500D02*X533387Y98300D01*
X532000Y97500D02*X530613Y98300D01*
X529000Y97500D02*Y95900D01*
Y97500D02*X530387Y98300D01*
X529000Y97500D02*X527613Y98300D01*
X516500Y79500D02*Y77900D01*
Y79500D02*X517887Y80300D01*
X516500Y79500D02*X515113Y80300D01*
X457500Y95500D02*Y93900D01*
Y95500D02*X458887Y96300D01*
X457500Y95500D02*X456113Y96300D01*
X457500Y92000D02*Y90400D01*
Y92000D02*X458887Y92800D01*
X457500Y92000D02*X456113Y92800D01*
X457500Y88500D02*Y86900D01*
Y88500D02*X458887Y89300D01*
X457500Y88500D02*X456113Y89300D01*
X511500Y41000D02*Y39400D01*
Y41000D02*X512887Y41800D01*
X511500Y41000D02*X510113Y41800D01*
X511500Y38000D02*Y36400D01*
Y38000D02*X512887Y38800D01*
X511500Y38000D02*X510113Y38800D01*
X15000Y176250D02*Y174650D01*
Y176250D02*X16387Y177050D01*
X15000Y176250D02*X13613Y177050D01*
X135000Y178500D02*X136500Y175500D01*
X138000Y178500D01*
X136500Y175500D02*Y172500D01*
X139800Y175800D02*X142050D01*
X139800Y172500D02*X142800D01*
X139800Y178500D02*Y172500D01*
Y178500D02*X142800D01*
X147600D02*X148350Y177750D01*
X145350Y178500D02*X147600D01*
X144600Y177750D02*X145350Y178500D01*
X144600Y177750D02*Y176250D01*
X145350Y175500D01*
X147600D01*
X148350Y174750D01*
Y173250D01*
X147600Y172500D02*X148350Y173250D01*
X145350Y172500D02*X147600D01*
X144600Y173250D02*X145350Y172500D01*
X98000Y177300D02*X99200Y178500D01*
Y172500D01*
X98000D02*X100250D01*
X102800D02*X105800Y178500D01*
X102050D02*X105800D01*
X107600Y173250D02*X108350Y172500D01*
X107600Y177750D02*Y173250D01*
Y177750D02*X108350Y178500D01*
X109850D01*
X110600Y177750D01*
Y173250D01*
X109850Y172500D02*X110600Y173250D01*
X108350Y172500D02*X109850D01*
X107600Y174000D02*X110600Y177000D01*
X45000Y173250D02*X45750Y172500D01*
X45000Y177750D02*Y173250D01*
Y177750D02*X45750Y178500D01*
X47250D01*
X48000Y177750D01*
Y173250D01*
X47250Y172500D02*X48000Y173250D01*
X45750Y172500D02*X47250D01*
X45000Y174000D02*X48000Y177000D01*
X49800Y172500D02*X50550D01*
X52350Y173250D02*X53100Y172500D01*
X52350Y177750D02*Y173250D01*
Y177750D02*X53100Y178500D01*
X54600D01*
X55350Y177750D01*
Y173250D01*
X54600Y172500D02*X55350Y173250D01*
X53100Y172500D02*X54600D01*
X52350Y174000D02*X55350Y177000D01*
X57150Y177300D02*X58350Y178500D01*
Y172500D01*
X57150D02*X59400D01*
X61200Y177750D02*X61950Y178500D01*
X64200D01*
X64950Y177750D01*
Y176250D01*
X61200Y172500D02*X64950Y176250D01*
X61200Y172500D02*X64950D01*
X3000Y193500D02*X3750Y192750D01*
X750Y193500D02*X3000D01*
X0Y192750D02*X750Y193500D01*
X0Y192750D02*Y191250D01*
X750Y190500D01*
X3000D01*
X3750Y189750D01*
Y188250D01*
X3000Y187500D02*X3750Y188250D01*
X750Y187500D02*X3000D01*
X0Y188250D02*X750Y187500D01*
X5550Y190500D02*Y188250D01*
X6300Y187500D01*
X8550Y190500D02*Y186000D01*
X7800Y185250D02*X8550Y186000D01*
X6300Y185250D02*X7800D01*
X5550Y186000D02*X6300Y185250D01*
Y187500D02*X7800D01*
X8550Y188250D01*
X11100Y189750D02*Y187500D01*
Y189750D02*X11850Y190500D01*
X12600D01*
X13350Y189750D01*
Y187500D01*
Y189750D02*X14100Y190500D01*
X14850D01*
X15600Y189750D01*
Y187500D01*
X10350Y190500D02*X11100Y189750D01*
X17400Y193500D02*Y187500D01*
Y188250D02*X18150Y187500D01*
X19650D01*
X20400Y188250D01*
Y189750D02*Y188250D01*
X19650Y190500D02*X20400Y189750D01*
X18150Y190500D02*X19650D01*
X17400Y189750D02*X18150Y190500D01*
X22200Y189750D02*Y188250D01*
Y189750D02*X22950Y190500D01*
X24450D01*
X25200Y189750D01*
Y188250D01*
X24450Y187500D02*X25200Y188250D01*
X22950Y187500D02*X24450D01*
X22200Y188250D02*X22950Y187500D01*
X27000Y193500D02*Y188250D01*
X27750Y187500D01*
X0Y184250D02*X29250D01*
X41750Y193500D02*Y187500D01*
X43700Y193500D02*X44750Y192450D01*
Y188550D01*
X43700Y187500D02*X44750Y188550D01*
X41000Y187500D02*X43700D01*
X41000Y193500D02*X43700D01*
G54D71*X46550Y192000D02*Y191850D01*
G54D70*Y189750D02*Y187500D01*
X50300Y190500D02*X51050Y189750D01*
X48800Y190500D02*X50300D01*
X48050Y189750D02*X48800Y190500D01*
X48050Y189750D02*Y188250D01*
X48800Y187500D01*
X51050Y190500D02*Y188250D01*
X51800Y187500D01*
X48800D02*X50300D01*
X51050Y188250D01*
X54350Y189750D02*Y187500D01*
Y189750D02*X55100Y190500D01*
X55850D01*
X56600Y189750D01*
Y187500D01*
Y189750D02*X57350Y190500D01*
X58100D01*
X58850Y189750D01*
Y187500D01*
X53600Y190500D02*X54350Y189750D01*
X60650Y187500D02*X61400D01*
X65900Y188250D02*X66650Y187500D01*
X65900Y192750D02*X66650Y193500D01*
X65900Y192750D02*Y188250D01*
X68450Y193500D02*X69950D01*
X69200D02*Y187500D01*
X68450D02*X69950D01*
X72500Y189750D02*Y187500D01*
Y189750D02*X73250Y190500D01*
X74000D01*
X74750Y189750D01*
Y187500D01*
X71750Y190500D02*X72500Y189750D01*
X77300Y190500D02*X79550D01*
X76550Y189750D02*X77300Y190500D01*
X76550Y189750D02*Y188250D01*
X77300Y187500D01*
X79550D01*
X81350Y193500D02*Y187500D01*
Y189750D02*X82100Y190500D01*
X83600D01*
X84350Y189750D01*
Y187500D01*
X86150Y193500D02*X86900Y192750D01*
Y188250D01*
X86150Y187500D02*X86900Y188250D01*
X41000Y184250D02*X88700D01*
X96050Y187500D02*X98000D01*
X95000Y188550D02*X96050Y187500D01*
X95000Y192450D02*Y188550D01*
Y192450D02*X96050Y193500D01*
X98000D01*
X99800Y189750D02*Y188250D01*
Y189750D02*X100550Y190500D01*
X102050D01*
X102800Y189750D01*
Y188250D01*
X102050Y187500D02*X102800Y188250D01*
X100550Y187500D02*X102050D01*
X99800Y188250D02*X100550Y187500D01*
X104600Y190500D02*Y188250D01*
X105350Y187500D01*
X106850D01*
X107600Y188250D01*
Y190500D02*Y188250D01*
X110150Y189750D02*Y187500D01*
Y189750D02*X110900Y190500D01*
X111650D01*
X112400Y189750D01*
Y187500D01*
X109400Y190500D02*X110150Y189750D01*
X114950Y193500D02*Y188250D01*
X115700Y187500D01*
X114200Y191250D02*X115700D01*
X95000Y184250D02*X117200D01*
X130750Y193500D02*Y187500D01*
X130000Y193500D02*X133000D01*
X133750Y192750D01*
Y191250D01*
X133000Y190500D02*X133750Y191250D01*
X130750Y190500D02*X133000D01*
X135550Y193500D02*Y188250D01*
X136300Y187500D01*
X140050Y190500D02*X140800Y189750D01*
X138550Y190500D02*X140050D01*
X137800Y189750D02*X138550Y190500D01*
X137800Y189750D02*Y188250D01*
X138550Y187500D01*
X140800Y190500D02*Y188250D01*
X141550Y187500D01*
X138550D02*X140050D01*
X140800Y188250D01*
X144100Y193500D02*Y188250D01*
X144850Y187500D01*
X143350Y191250D02*X144850D01*
X147100Y187500D02*X149350D01*
X146350Y188250D02*X147100Y187500D01*
X146350Y189750D02*Y188250D01*
Y189750D02*X147100Y190500D01*
X148600D01*
X149350Y189750D01*
X146350Y189000D02*X149350D01*
Y189750D02*Y189000D01*
X154150Y193500D02*Y187500D01*
X153400D02*X154150Y188250D01*
X151900Y187500D02*X153400D01*
X151150Y188250D02*X151900Y187500D01*
X151150Y189750D02*Y188250D01*
Y189750D02*X151900Y190500D01*
X153400D01*
X154150Y189750D01*
X157450Y190500D02*Y189750D01*
Y188250D02*Y187500D01*
X155950Y192750D02*Y192000D01*
Y192750D02*X156700Y193500D01*
X158200D01*
X158950Y192750D01*
Y192000D01*
X157450Y190500D02*X158950Y192000D01*
X130000Y184250D02*X160750D01*
X0Y208500D02*X3000D01*
X1500D02*Y202500D01*
X4800Y208500D02*Y202500D01*
Y204750D02*X5550Y205500D01*
X7050D01*
X7800Y204750D01*
Y202500D01*
X10350D02*X12600D01*
X9600Y203250D02*X10350Y202500D01*
X9600Y204750D02*Y203250D01*
Y204750D02*X10350Y205500D01*
X11850D01*
X12600Y204750D01*
X9600Y204000D02*X12600D01*
Y204750D02*Y204000D01*
X15150Y204750D02*Y202500D01*
Y204750D02*X15900Y205500D01*
X17400D01*
X14400D02*X15150Y204750D01*
X19950Y202500D02*X22200D01*
X19200Y203250D02*X19950Y202500D01*
X19200Y204750D02*Y203250D01*
Y204750D02*X19950Y205500D01*
X21450D01*
X22200Y204750D01*
X19200Y204000D02*X22200D01*
Y204750D02*Y204000D01*
X28950Y205500D02*X29700Y204750D01*
X27450Y205500D02*X28950D01*
X26700Y204750D02*X27450Y205500D01*
X26700Y204750D02*Y203250D01*
X27450Y202500D01*
X29700Y205500D02*Y203250D01*
X30450Y202500D01*
X27450D02*X28950D01*
X29700Y203250D01*
X33000Y204750D02*Y202500D01*
Y204750D02*X33750Y205500D01*
X35250D01*
X32250D02*X33000Y204750D01*
X37800Y202500D02*X40050D01*
X37050Y203250D02*X37800Y202500D01*
X37050Y204750D02*Y203250D01*
Y204750D02*X37800Y205500D01*
X39300D01*
X40050Y204750D01*
X37050Y204000D02*X40050D01*
Y204750D02*Y204000D01*
X44550Y207750D02*X45300Y208500D01*
X46800D01*
X47550Y207750D01*
X46800Y202500D02*X47550Y203250D01*
X45300Y202500D02*X46800D01*
X44550Y203250D02*X45300Y202500D01*
Y205800D02*X46800D01*
X47550Y207750D02*Y206550D01*
Y205050D02*Y203250D01*
Y205050D02*X46800Y205800D01*
X47550Y206550D02*X46800Y205800D01*
X55050Y208500D02*Y202500D01*
X54300D02*X55050Y203250D01*
X52800Y202500D02*X54300D01*
X52050Y203250D02*X52800Y202500D01*
X52050Y204750D02*Y203250D01*
Y204750D02*X52800Y205500D01*
X54300D01*
X55050Y204750D01*
G54D71*X56850Y207000D02*Y206850D01*
G54D70*Y204750D02*Y202500D01*
X59100Y207750D02*Y202500D01*
Y207750D02*X59850Y208500D01*
X60600D01*
X58350Y205500D02*X59850D01*
X62850Y207750D02*Y202500D01*
Y207750D02*X63600Y208500D01*
X64350D01*
X62100Y205500D02*X63600D01*
X66600Y202500D02*X68850D01*
X65850Y203250D02*X66600Y202500D01*
X65850Y204750D02*Y203250D01*
Y204750D02*X66600Y205500D01*
X68100D01*
X68850Y204750D01*
X65850Y204000D02*X68850D01*
Y204750D02*Y204000D01*
X71400Y204750D02*Y202500D01*
Y204750D02*X72150Y205500D01*
X73650D01*
X70650D02*X71400Y204750D01*
X76200Y202500D02*X78450D01*
X75450Y203250D02*X76200Y202500D01*
X75450Y204750D02*Y203250D01*
Y204750D02*X76200Y205500D01*
X77700D01*
X78450Y204750D01*
X75450Y204000D02*X78450D01*
Y204750D02*Y204000D01*
X81000Y204750D02*Y202500D01*
Y204750D02*X81750Y205500D01*
X82500D01*
X83250Y204750D01*
Y202500D01*
X80250Y205500D02*X81000Y204750D01*
X85800Y208500D02*Y203250D01*
X86550Y202500D01*
X85050Y206250D02*X86550D01*
X93750Y208500D02*Y202500D01*
X93000D02*X93750Y203250D01*
X91500Y202500D02*X93000D01*
X90750Y203250D02*X91500Y202500D01*
X90750Y204750D02*Y203250D01*
Y204750D02*X91500Y205500D01*
X93000D01*
X93750Y204750D01*
X96300D02*Y202500D01*
Y204750D02*X97050Y205500D01*
X98550D01*
X95550D02*X96300Y204750D01*
G54D71*X100350Y207000D02*Y206850D01*
G54D70*Y204750D02*Y202500D01*
X101850Y208500D02*Y203250D01*
X102600Y202500D01*
X104100Y208500D02*Y203250D01*
X104850Y202500D01*
X109800D02*X112050D01*
X112800Y203250D01*
X112050Y204000D02*X112800Y203250D01*
X109800Y204000D02*X112050D01*
X109050Y204750D02*X109800Y204000D01*
X109050Y204750D02*X109800Y205500D01*
X112050D01*
X112800Y204750D01*
X109050Y203250D02*X109800Y202500D01*
G54D71*X114600Y207000D02*Y206850D01*
G54D70*Y204750D02*Y202500D01*
X116100Y205500D02*X119100D01*
X116100Y202500D02*X119100Y205500D01*
X116100Y202500D02*X119100D01*
X121650D02*X123900D01*
X120900Y203250D02*X121650Y202500D01*
X120900Y204750D02*Y203250D01*
Y204750D02*X121650Y205500D01*
X123150D01*
X123900Y204750D01*
X120900Y204000D02*X123900D01*
Y204750D02*Y204000D01*
X126450Y202500D02*X128700D01*
X129450Y203250D01*
X128700Y204000D02*X129450Y203250D01*
X126450Y204000D02*X128700D01*
X125700Y204750D02*X126450Y204000D01*
X125700Y204750D02*X126450Y205500D01*
X128700D01*
X129450Y204750D01*
X125700Y203250D02*X126450Y202500D01*
X133950Y205500D02*Y203250D01*
X134700Y202500D01*
X136200D01*
X136950Y203250D01*
Y205500D02*Y203250D01*
X139500Y202500D02*X141750D01*
X142500Y203250D01*
X141750Y204000D02*X142500Y203250D01*
X139500Y204000D02*X141750D01*
X138750Y204750D02*X139500Y204000D01*
X138750Y204750D02*X139500Y205500D01*
X141750D01*
X142500Y204750D01*
X138750Y203250D02*X139500Y202500D01*
X145050D02*X147300D01*
X144300Y203250D02*X145050Y202500D01*
X144300Y204750D02*Y203250D01*
Y204750D02*X145050Y205500D01*
X146550D01*
X147300Y204750D01*
X144300Y204000D02*X147300D01*
Y204750D02*Y204000D01*
X152100Y208500D02*Y202500D01*
X151350D02*X152100Y203250D01*
X149850Y202500D02*X151350D01*
X149100Y203250D02*X149850Y202500D01*
X149100Y204750D02*Y203250D01*
Y204750D02*X149850Y205500D01*
X151350D01*
X152100Y204750D01*
G54D71*X156600Y207000D02*Y206850D01*
G54D70*Y204750D02*Y202500D01*
X158850Y204750D02*Y202500D01*
Y204750D02*X159600Y205500D01*
X160350D01*
X161100Y204750D01*
Y202500D01*
X158100Y205500D02*X158850Y204750D01*
X166350Y208500D02*Y203250D01*
X167100Y202500D01*
X165600Y206250D02*X167100D01*
X168600Y208500D02*Y202500D01*
Y204750D02*X169350Y205500D01*
X170850D01*
X171600Y204750D01*
Y202500D01*
G54D71*X173400Y207000D02*Y206850D01*
G54D70*Y204750D02*Y202500D01*
X175650D02*X177900D01*
X178650Y203250D01*
X177900Y204000D02*X178650Y203250D01*
X175650Y204000D02*X177900D01*
X174900Y204750D02*X175650Y204000D01*
X174900Y204750D02*X175650Y205500D01*
X177900D01*
X178650Y204750D01*
X174900Y203250D02*X175650Y202500D01*
X183150Y208500D02*Y203250D01*
X183900Y202500D01*
X187650Y205500D02*X188400Y204750D01*
X186150Y205500D02*X187650D01*
X185400Y204750D02*X186150Y205500D01*
X185400Y204750D02*Y203250D01*
X186150Y202500D01*
X188400Y205500D02*Y203250D01*
X189150Y202500D01*
X186150D02*X187650D01*
X188400Y203250D01*
X190950Y205500D02*Y203250D01*
X191700Y202500D01*
X193950Y205500D02*Y201000D01*
X193200Y200250D02*X193950Y201000D01*
X191700Y200250D02*X193200D01*
X190950Y201000D02*X191700Y200250D01*
Y202500D02*X193200D01*
X193950Y203250D01*
X195750Y204750D02*Y203250D01*
Y204750D02*X196500Y205500D01*
X198000D01*
X198750Y204750D01*
Y203250D01*
X198000Y202500D02*X198750Y203250D01*
X196500Y202500D02*X198000D01*
X195750Y203250D02*X196500Y202500D01*
X200550Y205500D02*Y203250D01*
X201300Y202500D01*
X202800D01*
X203550Y203250D01*
Y205500D02*Y203250D01*
X206100Y208500D02*Y203250D01*
X206850Y202500D01*
X205350Y206250D02*X206850D01*
X208350Y201000D02*X209850Y202500D01*
X214350Y207750D02*X215100Y208500D01*
X217350D01*
X218100Y207750D01*
Y206250D01*
X214350Y202500D02*X218100Y206250D01*
X214350Y202500D02*X218100D01*
X219900Y203250D02*X220650Y202500D01*
X219900Y207750D02*Y203250D01*
Y207750D02*X220650Y208500D01*
X222150D01*
X222900Y207750D01*
Y203250D01*
X222150Y202500D02*X222900Y203250D01*
X220650Y202500D02*X222150D01*
X219900Y204000D02*X222900Y207000D01*
X225450Y202500D02*X227700Y205500D01*
Y207750D02*Y205500D01*
X226950Y208500D02*X227700Y207750D01*
X225450Y208500D02*X226950D01*
X224700Y207750D02*X225450Y208500D01*
X224700Y207750D02*Y206250D01*
X225450Y205500D01*
X227700D01*
X232200Y208500D02*Y202500D01*
Y204750D02*X232950Y205500D01*
X234450D01*
X235200Y204750D01*
Y202500D01*
X237000Y204750D02*Y203250D01*
Y204750D02*X237750Y205500D01*
X239250D01*
X240000Y204750D01*
Y203250D01*
X239250Y202500D02*X240000Y203250D01*
X237750Y202500D02*X239250D01*
X237000Y203250D02*X237750Y202500D01*
X241800Y208500D02*Y203250D01*
X242550Y202500D01*
X244800D02*X247050D01*
X244050Y203250D02*X244800Y202500D01*
X244050Y204750D02*Y203250D01*
Y204750D02*X244800Y205500D01*
X246300D01*
X247050Y204750D01*
X244050Y204000D02*X247050D01*
Y204750D02*Y204000D01*
X249600Y202500D02*X251850D01*
X252600Y203250D01*
X251850Y204000D02*X252600Y203250D01*
X249600Y204000D02*X251850D01*
X248850Y204750D02*X249600Y204000D01*
X248850Y204750D02*X249600Y205500D01*
X251850D01*
X252600Y204750D01*
X248850Y203250D02*X249600Y202500D01*
X257850Y208500D02*Y203250D01*
X258600Y202500D01*
X257100Y206250D02*X258600D01*
X260100Y204750D02*Y203250D01*
Y204750D02*X260850Y205500D01*
X262350D01*
X263100Y204750D01*
Y203250D01*
X262350Y202500D02*X263100Y203250D01*
X260850Y202500D02*X262350D01*
X260100Y203250D02*X260850Y202500D01*
X265650Y208500D02*Y203250D01*
X266400Y202500D01*
X264900Y206250D02*X266400D01*
X270150Y205500D02*X270900Y204750D01*
X268650Y205500D02*X270150D01*
X267900Y204750D02*X268650Y205500D01*
X267900Y204750D02*Y203250D01*
X268650Y202500D01*
X270900Y205500D02*Y203250D01*
X271650Y202500D01*
X268650D02*X270150D01*
X270900Y203250D01*
X273450Y208500D02*Y203250D01*
X274200Y202500D01*
G54D72*X110000Y10000D02*X10000D01*
Y110000D01*
X110000D02*Y70000D01*
Y50000D02*Y10000D01*
X120000Y110000D02*Y70000D01*
Y50000D02*Y10000D01*
Y110000D02*X220000D01*
Y10000D02*X120000D01*
X220000Y110000D02*Y70000D01*
Y50000D02*Y10000D01*
X230000Y110000D02*Y70000D01*
Y50000D02*Y10000D01*
Y110000D02*X330000D01*
Y10000D02*X230000D01*
X330000Y110000D02*Y70000D01*
Y50000D02*Y10000D01*
X340000Y110000D02*Y70000D01*
Y50000D02*Y10000D01*
Y110000D02*X440000D01*
Y10000D02*X340000D01*
X440000Y110000D02*Y70000D01*
Y50000D02*Y10000D01*
X450000Y110000D02*Y70000D01*
Y50000D02*Y10000D01*
Y110000D02*X550000D01*
Y10000D02*X450000D01*
X550000Y110000D02*Y10000D01*
X10000Y110000D02*X110000D01*
X115000Y55000D02*G75*G03X110000Y50000I0J-5000D01*G01*
X115000Y55000D02*G75*G02X120000Y50000I0J-5000D01*G01*
X115000Y65000D02*G75*G02X110000Y70000I0J5000D01*G01*
X115000Y65000D02*G75*G03X120000Y70000I0J5000D01*G01*
X225000Y55000D02*G75*G03X220000Y50000I0J-5000D01*G01*
X225000Y55000D02*G75*G02X230000Y50000I0J-5000D01*G01*
X225000Y65000D02*G75*G02X220000Y70000I0J5000D01*G01*
X225000Y65000D02*G75*G03X230000Y70000I0J5000D01*G01*
X335000Y55000D02*G75*G03X330000Y50000I0J-5000D01*G01*
X335000Y55000D02*G75*G02X340000Y50000I0J-5000D01*G01*
X335000Y65000D02*G75*G02X330000Y70000I0J5000D01*G01*
X335000Y65000D02*G75*G03X340000Y70000I0J5000D01*G01*
X445000Y55000D02*G75*G03X440000Y50000I0J-5000D01*G01*
X445000Y55000D02*G75*G02X450000Y50000I0J-5000D01*G01*
X445000Y65000D02*G75*G02X440000Y70000I0J5000D01*G01*
X445000Y65000D02*G75*G03X450000Y70000I0J5000D01*G01*
G54D70*X193675Y-9500D02*X196675D01*
X197425Y-8750D01*
Y-6950D02*Y-8750D01*
X196675Y-6200D02*X197425Y-6950D01*
X194425Y-6200D02*X196675D01*
X194425Y-3500D02*Y-9500D01*
X193675Y-3500D02*X196675D01*
X197425Y-4250D01*
Y-5450D01*
X196675Y-6200D02*X197425Y-5450D01*
X199225Y-7250D02*Y-8750D01*
Y-7250D02*X199975Y-6500D01*
X201475D01*
X202225Y-7250D01*
Y-8750D01*
X201475Y-9500D02*X202225Y-8750D01*
X199975Y-9500D02*X201475D01*
X199225Y-8750D02*X199975Y-9500D01*
X206275Y-6500D02*X207025Y-7250D01*
X204775Y-6500D02*X206275D01*
X204025Y-7250D02*X204775Y-6500D01*
X204025Y-7250D02*Y-8750D01*
X204775Y-9500D01*
X207025Y-6500D02*Y-8750D01*
X207775Y-9500D01*
X204775D02*X206275D01*
X207025Y-8750D01*
X210325Y-7250D02*Y-9500D01*
Y-7250D02*X211075Y-6500D01*
X212575D01*
X209575D02*X210325Y-7250D01*
X217375Y-3500D02*Y-9500D01*
X216625D02*X217375Y-8750D01*
X215125Y-9500D02*X216625D01*
X214375Y-8750D02*X215125Y-9500D01*
X214375Y-7250D02*Y-8750D01*
Y-7250D02*X215125Y-6500D01*
X216625D01*
X217375Y-7250D01*
X221875D02*Y-8750D01*
Y-7250D02*X222625Y-6500D01*
X224125D01*
X224875Y-7250D01*
Y-8750D01*
X224125Y-9500D02*X224875Y-8750D01*
X222625Y-9500D02*X224125D01*
X221875Y-8750D02*X222625Y-9500D01*
X226675Y-6500D02*Y-8750D01*
X227425Y-9500D01*
X228925D01*
X229675Y-8750D01*
Y-6500D02*Y-8750D01*
X232225Y-3500D02*Y-8750D01*
X232975Y-9500D01*
X231475Y-5750D02*X232975D01*
X234475Y-3500D02*Y-8750D01*
X235225Y-9500D01*
G54D71*X236725Y-5000D02*Y-5150D01*
G54D70*Y-7250D02*Y-9500D01*
X238975Y-7250D02*Y-9500D01*
Y-7250D02*X239725Y-6500D01*
X240475D01*
X241225Y-7250D01*
Y-9500D01*
X238225Y-6500D02*X238975Y-7250D01*
X243775Y-9500D02*X246025D01*
X243025Y-8750D02*X243775Y-9500D01*
X243025Y-7250D02*Y-8750D01*
Y-7250D02*X243775Y-6500D01*
X245275D01*
X246025Y-7250D01*
X243025Y-8000D02*X246025D01*
Y-7250D02*Y-8000D01*
G54D71*X250525Y-5000D02*Y-5150D01*
G54D70*Y-7250D02*Y-9500D01*
X252775D02*X255025D01*
X255775Y-8750D01*
X255025Y-8000D02*X255775Y-8750D01*
X252775Y-8000D02*X255025D01*
X252025Y-7250D02*X252775Y-8000D01*
X252025Y-7250D02*X252775Y-6500D01*
X255025D01*
X255775Y-7250D01*
X252025Y-8750D02*X252775Y-9500D01*
X261025Y-3500D02*Y-8750D01*
X261775Y-9500D01*
X260275Y-5750D02*X261775D01*
X263275Y-3500D02*Y-9500D01*
Y-7250D02*X264025Y-6500D01*
X265525D01*
X266275Y-7250D01*
Y-9500D01*
X268825D02*X271075D01*
X268075Y-8750D02*X268825Y-9500D01*
X268075Y-7250D02*Y-8750D01*
Y-7250D02*X268825Y-6500D01*
X270325D01*
X271075Y-7250D01*
X268075Y-8000D02*X271075D01*
Y-7250D02*Y-8000D01*
X276325Y-6500D02*X278575D01*
X275575Y-7250D02*X276325Y-6500D01*
X275575Y-7250D02*Y-8750D01*
X276325Y-9500D01*
X278575D01*
X281125D02*X283375D01*
X280375Y-8750D02*X281125Y-9500D01*
X280375Y-7250D02*Y-8750D01*
Y-7250D02*X281125Y-6500D01*
X282625D01*
X283375Y-7250D01*
X280375Y-8000D02*X283375D01*
Y-7250D02*Y-8000D01*
X285925Y-7250D02*Y-9500D01*
Y-7250D02*X286675Y-6500D01*
X287425D01*
X288175Y-7250D01*
Y-9500D01*
X285175Y-6500D02*X285925Y-7250D01*
X290725Y-3500D02*Y-8750D01*
X291475Y-9500D01*
X289975Y-5750D02*X291475D01*
X293725Y-9500D02*X295975D01*
X292975Y-8750D02*X293725Y-9500D01*
X292975Y-7250D02*Y-8750D01*
Y-7250D02*X293725Y-6500D01*
X295225D01*
X295975Y-7250D01*
X292975Y-8000D02*X295975D01*
Y-7250D02*Y-8000D01*
X298525Y-7250D02*Y-9500D01*
Y-7250D02*X299275Y-6500D01*
X300775D01*
X297775D02*X298525Y-7250D01*
X302575Y-3500D02*Y-8750D01*
X303325Y-9500D01*
G54D71*X304825Y-5000D02*Y-5150D01*
G54D70*Y-7250D02*Y-9500D01*
X307075Y-7250D02*Y-9500D01*
Y-7250D02*X307825Y-6500D01*
X308575D01*
X309325Y-7250D01*
Y-9500D01*
X306325Y-6500D02*X307075Y-7250D01*
X311875Y-9500D02*X314125D01*
X311125Y-8750D02*X311875Y-9500D01*
X311125Y-7250D02*Y-8750D01*
Y-7250D02*X311875Y-6500D01*
X313375D01*
X314125Y-7250D01*
X311125Y-8000D02*X314125D01*
Y-7250D02*Y-8000D01*
X318625Y-7250D02*Y-8750D01*
Y-7250D02*X319375Y-6500D01*
X320875D01*
X321625Y-7250D01*
Y-8750D01*
X320875Y-9500D02*X321625Y-8750D01*
X319375Y-9500D02*X320875D01*
X318625Y-8750D02*X319375Y-9500D01*
X324175Y-4250D02*Y-9500D01*
Y-4250D02*X324925Y-3500D01*
X325675D01*
X323425Y-6500D02*X324925D01*
X330625Y-3500D02*Y-8750D01*
X331375Y-9500D01*
X329875Y-5750D02*X331375D01*
X332875Y-3500D02*Y-9500D01*
Y-7250D02*X333625Y-6500D01*
X335125D01*
X335875Y-7250D01*
Y-9500D01*
G54D71*X337675Y-5000D02*Y-5150D01*
G54D70*Y-7250D02*Y-9500D01*
X339925D02*X342175D01*
X342925Y-8750D01*
X342175Y-8000D02*X342925Y-8750D01*
X339925Y-8000D02*X342175D01*
X339175Y-7250D02*X339925Y-8000D01*
X339175Y-7250D02*X339925Y-6500D01*
X342175D01*
X342925Y-7250D01*
X339175Y-8750D02*X339925Y-9500D01*
X348175Y-7250D02*Y-11750D01*
X347425Y-6500D02*X348175Y-7250D01*
X348925Y-6500D01*
X350425D01*
X351175Y-7250D01*
Y-8750D01*
X350425Y-9500D02*X351175Y-8750D01*
X348925Y-9500D02*X350425D01*
X348175Y-8750D02*X348925Y-9500D01*
X355225Y-6500D02*X355975Y-7250D01*
X353725Y-6500D02*X355225D01*
X352975Y-7250D02*X353725Y-6500D01*
X352975Y-7250D02*Y-8750D01*
X353725Y-9500D01*
X355975Y-6500D02*Y-8750D01*
X356725Y-9500D01*
X353725D02*X355225D01*
X355975Y-8750D01*
X359275Y-3500D02*Y-8750D01*
X360025Y-9500D01*
X358525Y-5750D02*X360025D01*
X361525Y-3500D02*Y-9500D01*
Y-7250D02*X362275Y-6500D01*
X363775D01*
X364525Y-7250D01*
Y-9500D01*
X200750Y148500D02*Y142500D01*
X202700Y148500D02*X203750Y147450D01*
Y143550D01*
X202700Y142500D02*X203750Y143550D01*
X200000Y142500D02*X202700D01*
X200000Y148500D02*X202700D01*
X207800Y145500D02*X208550Y144750D01*
X206300Y145500D02*X207800D01*
X205550Y144750D02*X206300Y145500D01*
X205550Y144750D02*Y143250D01*
X206300Y142500D01*
X208550Y145500D02*Y143250D01*
X209300Y142500D01*
X206300D02*X207800D01*
X208550Y143250D01*
X211850Y148500D02*Y143250D01*
X212600Y142500D01*
X211100Y146250D02*X212600D01*
X214850Y142500D02*X217100D01*
X214100Y143250D02*X214850Y142500D01*
X214100Y144750D02*Y143250D01*
Y144750D02*X214850Y145500D01*
X216350D01*
X217100Y144750D01*
X214100Y144000D02*X217100D01*
Y144750D02*Y144000D01*
X218900Y146250D02*X219650D01*
X218900Y144750D02*X219650D01*
X227150Y148500D02*X227900Y147750D01*
X224900Y148500D02*X227150D01*
X224150Y147750D02*X224900Y148500D01*
X224150Y147750D02*Y146250D01*
X224900Y145500D01*
X227150D01*
X227900Y144750D01*
Y143250D01*
X227150Y142500D02*X227900Y143250D01*
X224900Y142500D02*X227150D01*
X224150Y143250D02*X224900Y142500D01*
X229700Y145500D02*Y143250D01*
X230450Y142500D01*
X231950D01*
X232700Y143250D01*
Y145500D02*Y143250D01*
X235250Y144750D02*Y142500D01*
Y144750D02*X236000Y145500D01*
X236750D01*
X237500Y144750D01*
Y142500D01*
X234500Y145500D02*X235250Y144750D01*
X242000Y147300D02*X243200Y148500D01*
Y142500D01*
X242000D02*X244250D01*
X246050Y147750D02*X246800Y148500D01*
X248300D01*
X249050Y147750D01*
X248300Y142500D02*X249050Y143250D01*
X246800Y142500D02*X248300D01*
X246050Y143250D02*X246800Y142500D01*
Y145800D02*X248300D01*
X249050Y147750D02*Y146550D01*
Y145050D02*Y143250D01*
Y145050D02*X248300Y145800D01*
X249050Y146550D02*X248300Y145800D01*
X256550Y148500D02*X257300Y147750D01*
X254300Y148500D02*X256550D01*
X253550Y147750D02*X254300Y148500D01*
X253550Y147750D02*Y146250D01*
X254300Y145500D01*
X256550D01*
X257300Y144750D01*
Y143250D01*
X256550Y142500D02*X257300Y143250D01*
X254300Y142500D02*X256550D01*
X253550Y143250D02*X254300Y142500D01*
X259850D02*X262100D01*
X259100Y143250D02*X259850Y142500D01*
X259100Y144750D02*Y143250D01*
Y144750D02*X259850Y145500D01*
X261350D01*
X262100Y144750D01*
X259100Y144000D02*X262100D01*
Y144750D02*Y144000D01*
X264650Y144750D02*Y140250D01*
X263900Y145500D02*X264650Y144750D01*
X265400Y145500D01*
X266900D01*
X267650Y144750D01*
Y143250D01*
X266900Y142500D02*X267650Y143250D01*
X265400Y142500D02*X266900D01*
X264650Y143250D02*X265400Y142500D01*
X272150Y147750D02*X272900Y148500D01*
X275150D01*
X275900Y147750D01*
Y146250D01*
X272150Y142500D02*X275900Y146250D01*
X272150Y142500D02*X275900D01*
X277700Y143250D02*X278450Y142500D01*
X277700Y147750D02*Y143250D01*
Y147750D02*X278450Y148500D01*
X279950D01*
X280700Y147750D01*
Y143250D01*
X279950Y142500D02*X280700Y143250D01*
X278450Y142500D02*X279950D01*
X277700Y144000D02*X280700Y147000D01*
X282500Y147750D02*X283250Y148500D01*
X285500D01*
X286250Y147750D01*
Y146250D01*
X282500Y142500D02*X286250Y146250D01*
X282500Y142500D02*X286250D01*
X288050Y143250D02*X288800Y142500D01*
X288050Y147750D02*Y143250D01*
Y147750D02*X288800Y148500D01*
X290300D01*
X291050Y147750D01*
Y143250D01*
X290300Y142500D02*X291050Y143250D01*
X288800Y142500D02*X290300D01*
X288050Y144000D02*X291050Y147000D01*
X295550Y143250D02*X296300Y142500D01*
X295550Y147750D02*Y143250D01*
Y147750D02*X296300Y148500D01*
X297800D01*
X298550Y147750D01*
Y143250D01*
X297800Y142500D02*X298550Y143250D01*
X296300Y142500D02*X297800D01*
X295550Y144000D02*X298550Y147000D01*
X300350Y148500D02*X303350D01*
X300350D02*Y145500D01*
X301100Y146250D01*
X302600D01*
X303350Y145500D01*
Y143250D01*
X302600Y142500D02*X303350Y143250D01*
X301100Y142500D02*X302600D01*
X300350Y143250D02*X301100Y142500D01*
X305150Y146250D02*X305900D01*
X305150Y144750D02*X305900D01*
X307700D02*X310700Y148500D01*
X307700Y144750D02*X311450D01*
X310700Y148500D02*Y142500D01*
X315500Y148500D02*X316250Y147750D01*
X314000Y148500D02*X315500D01*
X313250Y147750D02*X314000Y148500D01*
X313250Y147750D02*Y143250D01*
X314000Y142500D01*
X315500Y145800D02*X316250Y145050D01*
X313250Y145800D02*X315500D01*
X314000Y142500D02*X315500D01*
X316250Y143250D01*
Y145050D02*Y143250D01*
X318050Y146250D02*X318800D01*
X318050Y144750D02*X318800D01*
X320600D02*X323600Y148500D01*
X320600Y144750D02*X324350D01*
X323600Y148500D02*Y142500D01*
X326900D02*X329150Y145500D01*
Y147750D02*Y145500D01*
X328400Y148500D02*X329150Y147750D01*
X326900Y148500D02*X328400D01*
X326150Y147750D02*X326900Y148500D01*
X326150Y147750D02*Y146250D01*
X326900Y145500D01*
X329150D01*
X334400Y148500D02*Y142500D01*
X333650Y148500D02*X336650D01*
X337400Y147750D01*
Y146250D01*
X336650Y145500D02*X337400Y146250D01*
X334400Y145500D02*X336650D01*
X339200Y148500D02*Y142500D01*
Y148500D02*X341450Y145500D01*
X343700Y148500D01*
Y142500D01*
X351200Y148500D02*X351950Y147750D01*
X348950Y148500D02*X351200D01*
X348200Y147750D02*X348950Y148500D01*
X348200Y147750D02*Y143250D01*
X348950Y142500D01*
X351200D01*
X351950Y143250D01*
Y144750D02*Y143250D01*
X351200Y145500D02*X351950Y144750D01*
X349700Y145500D02*X351200D01*
X353750Y148500D02*Y142500D01*
Y148500D02*X356000Y145500D01*
X358250Y148500D01*
Y142500D01*
X360050Y148500D02*X363050D01*
X361550D02*Y142500D01*
X367550Y148500D02*Y143250D01*
X368300Y142500D01*
X369800D01*
X370550Y143250D01*
Y148500D02*Y143250D01*
X372350Y148500D02*X375350D01*
X373850D02*Y142500D01*
X378200D02*X380150D01*
X377150Y143550D02*X378200Y142500D01*
X377150Y147450D02*Y143550D01*
Y147450D02*X378200Y148500D01*
X380150D01*
X200000Y162000D02*Y157500D01*
Y162000D02*X201050Y163500D01*
X202700D01*
X203750Y162000D01*
Y157500D01*
X200000Y160500D02*X203750D01*
X205550D02*Y158250D01*
X206300Y157500D01*
X207800D01*
X208550Y158250D01*
Y160500D02*Y158250D01*
X211100Y163500D02*Y158250D01*
X211850Y157500D01*
X210350Y161250D02*X211850D01*
X213350Y163500D02*Y157500D01*
Y159750D02*X214100Y160500D01*
X215600D01*
X216350Y159750D01*
Y157500D01*
X218150Y159750D02*Y158250D01*
Y159750D02*X218900Y160500D01*
X220400D01*
X221150Y159750D01*
Y158250D01*
X220400Y157500D02*X221150Y158250D01*
X218900Y157500D02*X220400D01*
X218150Y158250D02*X218900Y157500D01*
X223700Y159750D02*Y157500D01*
Y159750D02*X224450Y160500D01*
X225950D01*
X222950D02*X223700Y159750D01*
X227750Y161250D02*X228500D01*
X227750Y159750D02*X228500D01*
X233000Y163500D02*Y157500D01*
Y163500D02*X235250Y160500D01*
X237500Y163500D01*
Y157500D01*
G54D71*X239300Y162000D02*Y161850D01*
G54D70*Y159750D02*Y157500D01*
X241550Y160500D02*X243800D01*
X240800Y159750D02*X241550Y160500D01*
X240800Y159750D02*Y158250D01*
X241550Y157500D01*
X243800D01*
X245600Y163500D02*Y157500D01*
Y159750D02*X246350Y160500D01*
X247850D01*
X248600Y159750D01*
Y157500D01*
X252650Y160500D02*X253400Y159750D01*
X251150Y160500D02*X252650D01*
X250400Y159750D02*X251150Y160500D01*
X250400Y159750D02*Y158250D01*
X251150Y157500D01*
X253400Y160500D02*Y158250D01*
X254150Y157500D01*
X251150D02*X252650D01*
X253400Y158250D01*
X256700Y157500D02*X258950D01*
X255950Y158250D02*X256700Y157500D01*
X255950Y159750D02*Y158250D01*
Y159750D02*X256700Y160500D01*
X258200D01*
X258950Y159750D01*
X255950Y159000D02*X258950D01*
Y159750D02*Y159000D01*
X260750Y163500D02*Y158250D01*
X261500Y157500D01*
X266450Y163500D02*Y157500D01*
X265700Y163500D02*X268700D01*
X269450Y162750D01*
Y161250D01*
X268700Y160500D02*X269450Y161250D01*
X266450Y160500D02*X268700D01*
X272000Y157500D02*X274250D01*
X271250Y158250D02*X272000Y157500D01*
X271250Y159750D02*Y158250D01*
Y159750D02*X272000Y160500D01*
X273500D01*
X274250Y159750D01*
X271250Y159000D02*X274250D01*
Y159750D02*Y159000D01*
X276800Y163500D02*Y158250D01*
X277550Y157500D01*
X276050Y161250D02*X277550D01*
X279800Y157500D02*X282050D01*
X279050Y158250D02*X279800Y157500D01*
X279050Y159750D02*Y158250D01*
Y159750D02*X279800Y160500D01*
X281300D01*
X282050Y159750D01*
X279050Y159000D02*X282050D01*
Y159750D02*Y159000D01*
X284600Y159750D02*Y157500D01*
Y159750D02*X285350Y160500D01*
X286850D01*
X283850D02*X284600Y159750D01*
X289400Y157500D02*X291650D01*
X292400Y158250D01*
X291650Y159000D02*X292400Y158250D01*
X289400Y159000D02*X291650D01*
X288650Y159750D02*X289400Y159000D01*
X288650Y159750D02*X289400Y160500D01*
X291650D01*
X292400Y159750D01*
X288650Y158250D02*X289400Y157500D01*
X294950D02*X297200D01*
X294200Y158250D02*X294950Y157500D01*
X294200Y159750D02*Y158250D01*
Y159750D02*X294950Y160500D01*
X296450D01*
X297200Y159750D01*
X294200Y159000D02*X297200D01*
Y159750D02*Y159000D01*
X299750Y159750D02*Y157500D01*
Y159750D02*X300500Y160500D01*
X301250D01*
X302000Y159750D01*
Y157500D01*
X299000Y160500D02*X299750Y159750D01*
X200000Y178500D02*X203000D01*
X201500D02*Y172500D01*
G54D71*X204800Y177000D02*Y176850D01*
G54D70*Y174750D02*Y172500D01*
X207050Y178500D02*Y173250D01*
X207800Y172500D01*
X206300Y176250D02*X207800D01*
X209300Y178500D02*Y173250D01*
X210050Y172500D01*
X212300D02*X214550D01*
X211550Y173250D02*X212300Y172500D01*
X211550Y174750D02*Y173250D01*
Y174750D02*X212300Y175500D01*
X213800D01*
X214550Y174750D01*
X211550Y174000D02*X214550D01*
Y174750D02*Y174000D01*
X216350Y176250D02*X217100D01*
X216350Y174750D02*X217100D01*
X221600Y173250D02*X222350Y172500D01*
X221600Y177750D02*X222350Y178500D01*
X221600Y177750D02*Y173250D01*
X224150Y175500D02*Y173250D01*
X224900Y172500D01*
X226400D01*
X227150Y173250D01*
Y175500D02*Y173250D01*
X229700Y174750D02*Y172500D01*
Y174750D02*X230450Y175500D01*
X231200D01*
X231950Y174750D01*
Y172500D01*
X228950Y175500D02*X229700Y174750D01*
X233750Y178500D02*Y172500D01*
Y174750D02*X236000Y172500D01*
X233750Y174750D02*X235250Y176250D01*
X238550Y174750D02*Y172500D01*
Y174750D02*X239300Y175500D01*
X240050D01*
X240800Y174750D01*
Y172500D01*
X237800Y175500D02*X238550Y174750D01*
X242600D02*Y173250D01*
Y174750D02*X243350Y175500D01*
X244850D01*
X245600Y174750D01*
Y173250D01*
X244850Y172500D02*X245600Y173250D01*
X243350Y172500D02*X244850D01*
X242600Y173250D02*X243350Y172500D01*
X247400Y175500D02*Y173250D01*
X248150Y172500D01*
X248900D01*
X249650Y173250D01*
Y175500D02*Y173250D01*
X250400Y172500D01*
X251150D01*
X251900Y173250D01*
Y175500D02*Y173250D01*
X254450Y174750D02*Y172500D01*
Y174750D02*X255200Y175500D01*
X255950D01*
X256700Y174750D01*
Y172500D01*
X253700Y175500D02*X254450Y174750D01*
X258500Y178500D02*X259250Y177750D01*
Y173250D01*
X258500Y172500D02*X259250Y173250D01*
X263750Y175500D02*X266750D01*
X271250Y178500D02*Y172500D01*
Y178500D02*X274250D01*
X271250Y175800D02*X273500D01*
X278300Y175500D02*X279050Y174750D01*
X276800Y175500D02*X278300D01*
X276050Y174750D02*X276800Y175500D01*
X276050Y174750D02*Y173250D01*
X276800Y172500D01*
X279050Y175500D02*Y173250D01*
X279800Y172500D01*
X276800D02*X278300D01*
X279050Y173250D01*
X281600Y178500D02*Y172500D01*
Y173250D02*X282350Y172500D01*
X283850D01*
X284600Y173250D01*
Y174750D02*Y173250D01*
X283850Y175500D02*X284600Y174750D01*
X282350Y175500D02*X283850D01*
X281600Y174750D02*X282350Y175500D01*
X287150Y174750D02*Y172500D01*
Y174750D02*X287900Y175500D01*
X289400D01*
X286400D02*X287150Y174750D01*
G54D71*X291200Y177000D02*Y176850D01*
G54D70*Y174750D02*Y172500D01*
X293450Y175500D02*X295700D01*
X292700Y174750D02*X293450Y175500D01*
X292700Y174750D02*Y173250D01*
X293450Y172500D01*
X295700D01*
X299750Y175500D02*X300500Y174750D01*
X298250Y175500D02*X299750D01*
X297500Y174750D02*X298250Y175500D01*
X297500Y174750D02*Y173250D01*
X298250Y172500D01*
X300500Y175500D02*Y173250D01*
X301250Y172500D01*
X298250D02*X299750D01*
X300500Y173250D01*
X303800Y178500D02*Y173250D01*
X304550Y172500D01*
X303050Y176250D02*X304550D01*
G54D71*X306050Y177000D02*Y176850D01*
G54D70*Y174750D02*Y172500D01*
X307550Y174750D02*Y173250D01*
Y174750D02*X308300Y175500D01*
X309800D01*
X310550Y174750D01*
Y173250D01*
X309800Y172500D02*X310550Y173250D01*
X308300Y172500D02*X309800D01*
X307550Y173250D02*X308300Y172500D01*
X313100Y174750D02*Y172500D01*
Y174750D02*X313850Y175500D01*
X314600D01*
X315350Y174750D01*
Y172500D01*
X312350Y175500D02*X313100Y174750D01*
X320600Y178500D02*Y172500D01*
X322550Y178500D02*X323600Y177450D01*
Y173550D01*
X322550Y172500D02*X323600Y173550D01*
X319850Y172500D02*X322550D01*
X319850Y178500D02*X322550D01*
X326150Y174750D02*Y172500D01*
Y174750D02*X326900Y175500D01*
X328400D01*
X325400D02*X326150Y174750D01*
X332450Y175500D02*X333200Y174750D01*
X330950Y175500D02*X332450D01*
X330200Y174750D02*X330950Y175500D01*
X330200Y174750D02*Y173250D01*
X330950Y172500D01*
X333200Y175500D02*Y173250D01*
X333950Y172500D01*
X330950D02*X332450D01*
X333200Y173250D01*
X335750Y175500D02*Y173250D01*
X336500Y172500D01*
X337250D01*
X338000Y173250D01*
Y175500D02*Y173250D01*
X338750Y172500D01*
X339500D01*
X340250Y173250D01*
Y175500D02*Y173250D01*
G54D71*X342050Y177000D02*Y176850D01*
G54D70*Y174750D02*Y172500D01*
X344300Y174750D02*Y172500D01*
Y174750D02*X345050Y175500D01*
X345800D01*
X346550Y174750D01*
Y172500D01*
X343550Y175500D02*X344300Y174750D01*
X350600Y175500D02*X351350Y174750D01*
X349100Y175500D02*X350600D01*
X348350Y174750D02*X349100Y175500D01*
X348350Y174750D02*Y173250D01*
X349100Y172500D01*
X350600D01*
X351350Y173250D01*
X348350Y171000D02*X349100Y170250D01*
X350600D01*
X351350Y171000D01*
Y175500D02*Y171000D01*
M02*
