G04 start of page 11 for group -4015 idx -4015 *
G04 Title: (unknown), toppaste *
G04 Creator: pcb 4.0.2 *
G04 CreationDate: Sun May 15 03:11:06 2022 UTC *
G04 For: railfan *
G04 Format: Gerber/RS-274X *
G04 PCB-Dimensions (mil): 4000.00 4000.00 *
G04 PCB-Coordinate-Origin: lower left *
%MOIN*%
%FSLAX25Y25*%
%LNTOPPASTE*%
%ADD42C,0.0001*%
G54D42*G36*
X56449Y317055D02*Y314693D01*
X62551D01*
Y317055D01*
X56449D01*
G37*
G36*
Y313118D02*Y310756D01*
X62551D01*
Y313118D01*
X56449D01*
G37*
G36*
Y309181D02*Y306819D01*
X62551D01*
Y309181D01*
X56449D01*
G37*
G36*
Y305244D02*Y302882D01*
X62551D01*
Y305244D01*
X56449D01*
G37*
G36*
X40701Y323354D02*Y318630D01*
X47787D01*
Y323354D01*
X40701D01*
G37*
G36*
Y301307D02*Y296583D01*
X47787D01*
Y301307D01*
X40701D01*
G37*
G36*
X93016Y292452D02*X87898D01*
Y286548D01*
X93016D01*
Y292452D01*
G37*
G36*
X100102D02*X94984D01*
Y286548D01*
X100102D01*
Y292452D01*
G37*
G36*
X82650Y306457D02*X76350D01*
Y293858D01*
X82650D01*
Y306457D01*
G37*
G36*
Y326142D02*X76350D01*
Y313543D01*
X82650D01*
Y326142D01*
G37*
G36*
X110516Y292452D02*X105398D01*
Y286548D01*
X110516D01*
Y292452D01*
G37*
G36*
X117602D02*X112484D01*
Y286548D01*
X117602D01*
Y292452D01*
G37*
G36*
X85000Y282000D02*Y280000D01*
X93500D01*
Y282000D01*
X85000D01*
G37*
G36*
Y277000D02*Y275000D01*
X93500D01*
Y277000D01*
X85000D01*
G37*
G36*
Y272000D02*Y270000D01*
X93500D01*
Y272000D01*
X85000D01*
G37*
G36*
Y267000D02*Y265000D01*
X93500D01*
Y267000D01*
X85000D01*
G37*
G36*
X111500D02*Y265000D01*
X120000D01*
Y267000D01*
X111500D01*
G37*
G36*
Y272000D02*Y270000D01*
X120000D01*
Y272000D01*
X111500D01*
G37*
G36*
Y277000D02*Y275000D01*
X120000D01*
Y277000D01*
X111500D01*
G37*
G36*
Y282000D02*Y280000D01*
X120000D01*
Y282000D01*
X111500D01*
G37*
G36*
X58516Y270452D02*X53398D01*
Y264548D01*
X58516D01*
Y270452D01*
G37*
G36*
X65602D02*X60484D01*
Y264548D01*
X65602D01*
Y270452D01*
G37*
G36*
X71740Y335047D02*X69300D01*
Y330244D01*
X71740D01*
Y335047D01*
G37*
G36*
X75480D02*X73040D01*
Y330244D01*
X75480D01*
Y335047D01*
G37*
G36*
X79220D02*X76780D01*
Y330244D01*
X79220D01*
Y335047D01*
G37*
G36*
Y345401D02*X76780D01*
Y340598D01*
X79220D01*
Y345401D01*
G37*
G36*
X75480D02*X73040D01*
Y340598D01*
X75480D01*
Y345401D01*
G37*
G36*
X71740D02*X69300D01*
Y340598D01*
X71740D01*
Y345401D01*
G37*
G36*
X94548Y345102D02*Y339984D01*
X100452D01*
Y345102D01*
X94548D01*
G37*
G36*
Y338016D02*Y332898D01*
X100452D01*
Y338016D01*
X94548D01*
G37*
G36*
X85548D02*Y332898D01*
X91452D01*
Y338016D01*
X85548D01*
G37*
G36*
Y345102D02*Y339984D01*
X91452D01*
Y345102D01*
X85548D01*
G37*
G36*
X74548Y276602D02*Y271484D01*
X80452D01*
Y276602D01*
X74548D01*
G37*
G36*
Y269516D02*Y264398D01*
X80452D01*
Y269516D01*
X74548D01*
G37*
G36*
X49548Y341602D02*Y336484D01*
X55452D01*
Y341602D01*
X49548D01*
G37*
G36*
Y334516D02*Y329398D01*
X55452D01*
Y334516D01*
X49548D01*
G37*
G36*
X103548Y345102D02*Y339984D01*
X109452D01*
Y345102D01*
X103548D01*
G37*
G36*
Y338016D02*Y332898D01*
X109452D01*
Y338016D01*
X103548D01*
G37*
G36*
X99406Y325842D02*Y321158D01*
X112397D01*
Y325842D01*
X99406D01*
G37*
G36*
Y305842D02*Y301158D01*
X112397D01*
Y305842D01*
X99406D01*
G37*
G36*
X124603Y315842D02*Y311158D01*
X137594D01*
Y315842D01*
X124603D01*
G37*
G36*
X58984Y283000D02*X55204D01*
Y275126D01*
X58984D01*
Y283000D01*
G37*
G36*
X64890Y290716D02*X61110D01*
Y275126D01*
X64890D01*
Y290716D01*
G37*
G36*
X67725Y297175D02*X58275D01*
Y285835D01*
X67725D01*
Y297175D01*
G37*
G36*
X59695Y287255D02*X58275Y285835D01*
X61115Y282995D01*
X62535Y284415D01*
X59695Y287255D01*
G37*
G36*
X67725Y285835D02*X66305Y287255D01*
X63465Y284415D01*
X64885Y282995D01*
X67725Y285835D01*
G37*
G36*
X70796Y283000D02*X67016D01*
Y275126D01*
X70796D01*
Y283000D01*
G37*
G36*
X44548Y291602D02*Y286484D01*
X50452D01*
Y291602D01*
X44548D01*
G37*
G36*
Y284516D02*Y279398D01*
X50452D01*
Y284516D01*
X44548D01*
G37*
G36*
X166449Y317055D02*Y314693D01*
X172551D01*
Y317055D01*
X166449D01*
G37*
G36*
Y313118D02*Y310756D01*
X172551D01*
Y313118D01*
X166449D01*
G37*
G36*
Y309181D02*Y306819D01*
X172551D01*
Y309181D01*
X166449D01*
G37*
G36*
Y305244D02*Y302882D01*
X172551D01*
Y305244D01*
X166449D01*
G37*
G36*
X150701Y323354D02*Y318630D01*
X157787D01*
Y323354D01*
X150701D01*
G37*
G36*
Y301307D02*Y296583D01*
X157787D01*
Y301307D01*
X150701D01*
G37*
G36*
X203016Y292452D02*X197898D01*
Y286548D01*
X203016D01*
Y292452D01*
G37*
G36*
X210102D02*X204984D01*
Y286548D01*
X210102D01*
Y292452D01*
G37*
G36*
X192650Y306457D02*X186350D01*
Y293858D01*
X192650D01*
Y306457D01*
G37*
G36*
Y326142D02*X186350D01*
Y313543D01*
X192650D01*
Y326142D01*
G37*
G36*
X220516Y292452D02*X215398D01*
Y286548D01*
X220516D01*
Y292452D01*
G37*
G36*
X227602D02*X222484D01*
Y286548D01*
X227602D01*
Y292452D01*
G37*
G36*
X195000Y282000D02*Y280000D01*
X203500D01*
Y282000D01*
X195000D01*
G37*
G36*
Y277000D02*Y275000D01*
X203500D01*
Y277000D01*
X195000D01*
G37*
G36*
Y272000D02*Y270000D01*
X203500D01*
Y272000D01*
X195000D01*
G37*
G36*
Y267000D02*Y265000D01*
X203500D01*
Y267000D01*
X195000D01*
G37*
G36*
X221500D02*Y265000D01*
X230000D01*
Y267000D01*
X221500D01*
G37*
G36*
Y272000D02*Y270000D01*
X230000D01*
Y272000D01*
X221500D01*
G37*
G36*
Y277000D02*Y275000D01*
X230000D01*
Y277000D01*
X221500D01*
G37*
G36*
Y282000D02*Y280000D01*
X230000D01*
Y282000D01*
X221500D01*
G37*
G36*
X168516Y270452D02*X163398D01*
Y264548D01*
X168516D01*
Y270452D01*
G37*
G36*
X175602D02*X170484D01*
Y264548D01*
X175602D01*
Y270452D01*
G37*
G36*
X181740Y335047D02*X179299D01*
Y330244D01*
X181740D01*
Y335047D01*
G37*
G36*
X185480D02*X183039D01*
Y330244D01*
X185480D01*
Y335047D01*
G37*
G36*
X189220D02*X186779D01*
Y330244D01*
X189220D01*
Y335047D01*
G37*
G36*
Y345401D02*X186779D01*
Y340598D01*
X189220D01*
Y345401D01*
G37*
G36*
X185480D02*X183039D01*
Y340598D01*
X185480D01*
Y345401D01*
G37*
G36*
X181740D02*X179299D01*
Y340598D01*
X181740D01*
Y345401D01*
G37*
G36*
X204548Y345102D02*Y339984D01*
X210452D01*
Y345102D01*
X204548D01*
G37*
G36*
Y338016D02*Y332898D01*
X210452D01*
Y338016D01*
X204548D01*
G37*
G36*
X195548D02*Y332898D01*
X201452D01*
Y338016D01*
X195548D01*
G37*
G36*
Y345102D02*Y339984D01*
X201452D01*
Y345102D01*
X195548D01*
G37*
G36*
X184548Y276602D02*Y271484D01*
X190452D01*
Y276602D01*
X184548D01*
G37*
G36*
Y269516D02*Y264398D01*
X190452D01*
Y269516D01*
X184548D01*
G37*
G36*
X159548Y341602D02*Y336484D01*
X165452D01*
Y341602D01*
X159548D01*
G37*
G36*
Y334516D02*Y329398D01*
X165452D01*
Y334516D01*
X159548D01*
G37*
G36*
X213548Y345102D02*Y339984D01*
X219452D01*
Y345102D01*
X213548D01*
G37*
G36*
Y338016D02*Y332898D01*
X219452D01*
Y338016D01*
X213548D01*
G37*
G36*
X209405Y325842D02*Y321158D01*
X222398D01*
Y325842D01*
X209405D01*
G37*
G36*
Y305842D02*Y301158D01*
X222398D01*
Y305842D01*
X209405D01*
G37*
G36*
X234602Y315842D02*Y311158D01*
X247595D01*
Y315842D01*
X234602D01*
G37*
G36*
X168984Y283000D02*X165204D01*
Y275126D01*
X168984D01*
Y283000D01*
G37*
G36*
X174890Y290716D02*X171110D01*
Y275126D01*
X174890D01*
Y290716D01*
G37*
G36*
X177725Y297175D02*X168275D01*
Y285835D01*
X177725D01*
Y297175D01*
G37*
G36*
X169695Y287255D02*X168275Y285835D01*
X171115Y282995D01*
X172535Y284415D01*
X169695Y287255D01*
G37*
G36*
X177725Y285835D02*X176305Y287255D01*
X173465Y284415D01*
X174885Y282995D01*
X177725Y285835D01*
G37*
G36*
X180796Y283000D02*X177016D01*
Y275126D01*
X180796D01*
Y283000D01*
G37*
G36*
X154548Y291602D02*Y286484D01*
X160452D01*
Y291602D01*
X154548D01*
G37*
G36*
Y284516D02*Y279398D01*
X160452D01*
Y284516D01*
X154548D01*
G37*
G36*
X276449Y317055D02*Y314693D01*
X282551D01*
Y317055D01*
X276449D01*
G37*
G36*
Y313118D02*Y310756D01*
X282551D01*
Y313118D01*
X276449D01*
G37*
G36*
Y309181D02*Y306819D01*
X282551D01*
Y309181D01*
X276449D01*
G37*
G36*
Y305244D02*Y302882D01*
X282551D01*
Y305244D01*
X276449D01*
G37*
G36*
X260701Y323354D02*Y318630D01*
X267787D01*
Y323354D01*
X260701D01*
G37*
G36*
Y301307D02*Y296583D01*
X267787D01*
Y301307D01*
X260701D01*
G37*
G36*
X313016Y292452D02*X307898D01*
Y286548D01*
X313016D01*
Y292452D01*
G37*
G36*
X320102D02*X314984D01*
Y286548D01*
X320102D01*
Y292452D01*
G37*
G36*
X302650Y306457D02*X296350D01*
Y293858D01*
X302650D01*
Y306457D01*
G37*
G36*
Y326142D02*X296350D01*
Y313543D01*
X302650D01*
Y326142D01*
G37*
G36*
X330516Y292452D02*X325398D01*
Y286548D01*
X330516D01*
Y292452D01*
G37*
G36*
X337602D02*X332484D01*
Y286548D01*
X337602D01*
Y292452D01*
G37*
G36*
X305000Y282000D02*Y280000D01*
X313500D01*
Y282000D01*
X305000D01*
G37*
G36*
Y277000D02*Y275000D01*
X313500D01*
Y277000D01*
X305000D01*
G37*
G36*
Y272000D02*Y270000D01*
X313500D01*
Y272000D01*
X305000D01*
G37*
G36*
Y267000D02*Y265000D01*
X313500D01*
Y267000D01*
X305000D01*
G37*
G36*
X331500D02*Y265000D01*
X340000D01*
Y267000D01*
X331500D01*
G37*
G36*
Y272000D02*Y270000D01*
X340000D01*
Y272000D01*
X331500D01*
G37*
G36*
Y277000D02*Y275000D01*
X340000D01*
Y277000D01*
X331500D01*
G37*
G36*
Y282000D02*Y280000D01*
X340000D01*
Y282000D01*
X331500D01*
G37*
G36*
X278516Y270452D02*X273398D01*
Y264548D01*
X278516D01*
Y270452D01*
G37*
G36*
X285602D02*X280484D01*
Y264548D01*
X285602D01*
Y270452D01*
G37*
G36*
X291740Y335047D02*X289299D01*
Y330244D01*
X291740D01*
Y335047D01*
G37*
G36*
X295480D02*X293039D01*
Y330244D01*
X295480D01*
Y335047D01*
G37*
G36*
X299220D02*X296779D01*
Y330244D01*
X299220D01*
Y335047D01*
G37*
G36*
Y345401D02*X296779D01*
Y340598D01*
X299220D01*
Y345401D01*
G37*
G36*
X295480D02*X293039D01*
Y340598D01*
X295480D01*
Y345401D01*
G37*
G36*
X291740D02*X289299D01*
Y340598D01*
X291740D01*
Y345401D01*
G37*
G36*
X314548Y345102D02*Y339984D01*
X320452D01*
Y345102D01*
X314548D01*
G37*
G36*
Y338016D02*Y332898D01*
X320452D01*
Y338016D01*
X314548D01*
G37*
G36*
X305548D02*Y332898D01*
X311452D01*
Y338016D01*
X305548D01*
G37*
G36*
Y345102D02*Y339984D01*
X311452D01*
Y345102D01*
X305548D01*
G37*
G36*
X294548Y276602D02*Y271484D01*
X300452D01*
Y276602D01*
X294548D01*
G37*
G36*
Y269516D02*Y264398D01*
X300452D01*
Y269516D01*
X294548D01*
G37*
G36*
X269548Y341602D02*Y336484D01*
X275452D01*
Y341602D01*
X269548D01*
G37*
G36*
Y334516D02*Y329398D01*
X275452D01*
Y334516D01*
X269548D01*
G37*
G36*
X323548Y345102D02*Y339984D01*
X329452D01*
Y345102D01*
X323548D01*
G37*
G36*
Y338016D02*Y332898D01*
X329452D01*
Y338016D01*
X323548D01*
G37*
G36*
X319406Y325842D02*Y321158D01*
X332398D01*
Y325842D01*
X319406D01*
G37*
G36*
Y305842D02*Y301158D01*
X332398D01*
Y305842D01*
X319406D01*
G37*
G36*
X344602Y315842D02*Y311158D01*
X357594D01*
Y315842D01*
X344602D01*
G37*
G36*
X278984Y283000D02*X275204D01*
Y275126D01*
X278984D01*
Y283000D01*
G37*
G36*
X284890Y290716D02*X281110D01*
Y275126D01*
X284890D01*
Y290716D01*
G37*
G36*
X287725Y297175D02*X278275D01*
Y285835D01*
X287725D01*
Y297175D01*
G37*
G36*
X279695Y287255D02*X278275Y285835D01*
X281115Y282995D01*
X282535Y284415D01*
X279695Y287255D01*
G37*
G36*
X287725Y285835D02*X286305Y287255D01*
X283465Y284415D01*
X284885Y282995D01*
X287725Y285835D01*
G37*
G36*
X290796Y283000D02*X287016D01*
Y275126D01*
X290796D01*
Y283000D01*
G37*
G36*
X264548Y291602D02*Y286484D01*
X270452D01*
Y291602D01*
X264548D01*
G37*
G36*
Y284516D02*Y279398D01*
X270452D01*
Y284516D01*
X264548D01*
G37*
G36*
X56449Y207055D02*Y204693D01*
X62551D01*
Y207055D01*
X56449D01*
G37*
G36*
Y203118D02*Y200756D01*
X62551D01*
Y203118D01*
X56449D01*
G37*
G36*
Y199181D02*Y196819D01*
X62551D01*
Y199181D01*
X56449D01*
G37*
G36*
Y195244D02*Y192882D01*
X62551D01*
Y195244D01*
X56449D01*
G37*
G36*
X40701Y213354D02*Y208630D01*
X47787D01*
Y213354D01*
X40701D01*
G37*
G36*
Y191307D02*Y186583D01*
X47787D01*
Y191307D01*
X40701D01*
G37*
G36*
X93016Y182452D02*X87898D01*
Y176548D01*
X93016D01*
Y182452D01*
G37*
G36*
X100102D02*X94984D01*
Y176548D01*
X100102D01*
Y182452D01*
G37*
G36*
X82650Y196457D02*X76350D01*
Y183858D01*
X82650D01*
Y196457D01*
G37*
G36*
Y216142D02*X76350D01*
Y203543D01*
X82650D01*
Y216142D01*
G37*
G36*
X110516Y182452D02*X105398D01*
Y176548D01*
X110516D01*
Y182452D01*
G37*
G36*
X117602D02*X112484D01*
Y176548D01*
X117602D01*
Y182452D01*
G37*
G36*
X85000Y172000D02*Y170000D01*
X93500D01*
Y172000D01*
X85000D01*
G37*
G36*
Y167000D02*Y165000D01*
X93500D01*
Y167000D01*
X85000D01*
G37*
G36*
Y162000D02*Y160000D01*
X93500D01*
Y162000D01*
X85000D01*
G37*
G36*
Y157000D02*Y155000D01*
X93500D01*
Y157000D01*
X85000D01*
G37*
G36*
X111500D02*Y155000D01*
X120000D01*
Y157000D01*
X111500D01*
G37*
G36*
Y162000D02*Y160000D01*
X120000D01*
Y162000D01*
X111500D01*
G37*
G36*
Y167000D02*Y165000D01*
X120000D01*
Y167000D01*
X111500D01*
G37*
G36*
Y172000D02*Y170000D01*
X120000D01*
Y172000D01*
X111500D01*
G37*
G36*
X58516Y160452D02*X53398D01*
Y154548D01*
X58516D01*
Y160452D01*
G37*
G36*
X65602D02*X60484D01*
Y154548D01*
X65602D01*
Y160452D01*
G37*
G36*
X71740Y225047D02*X69300D01*
Y220244D01*
X71740D01*
Y225047D01*
G37*
G36*
X75480D02*X73040D01*
Y220244D01*
X75480D01*
Y225047D01*
G37*
G36*
X79220D02*X76780D01*
Y220244D01*
X79220D01*
Y225047D01*
G37*
G36*
Y235401D02*X76780D01*
Y230598D01*
X79220D01*
Y235401D01*
G37*
G36*
X75480D02*X73040D01*
Y230598D01*
X75480D01*
Y235401D01*
G37*
G36*
X71740D02*X69300D01*
Y230598D01*
X71740D01*
Y235401D01*
G37*
G36*
X94548Y235102D02*Y229984D01*
X100452D01*
Y235102D01*
X94548D01*
G37*
G36*
Y228016D02*Y222898D01*
X100452D01*
Y228016D01*
X94548D01*
G37*
G36*
X85548D02*Y222898D01*
X91452D01*
Y228016D01*
X85548D01*
G37*
G36*
Y235102D02*Y229984D01*
X91452D01*
Y235102D01*
X85548D01*
G37*
G36*
X74548Y166602D02*Y161484D01*
X80452D01*
Y166602D01*
X74548D01*
G37*
G36*
Y159516D02*Y154398D01*
X80452D01*
Y159516D01*
X74548D01*
G37*
G36*
X49548Y231602D02*Y226484D01*
X55452D01*
Y231602D01*
X49548D01*
G37*
G36*
Y224516D02*Y219398D01*
X55452D01*
Y224516D01*
X49548D01*
G37*
G36*
X103548Y235102D02*Y229984D01*
X109452D01*
Y235102D01*
X103548D01*
G37*
G36*
Y228016D02*Y222898D01*
X109452D01*
Y228016D01*
X103548D01*
G37*
G36*
X99406Y215843D02*Y211157D01*
X112397D01*
Y215843D01*
X99406D01*
G37*
G36*
Y195842D02*Y191158D01*
X112397D01*
Y195842D01*
X99406D01*
G37*
G36*
X124603Y205843D02*Y201158D01*
X137594D01*
Y205843D01*
X124603D01*
G37*
G36*
X58984Y173000D02*X55204D01*
Y165126D01*
X58984D01*
Y173000D01*
G37*
G36*
X64890Y180716D02*X61110D01*
Y165126D01*
X64890D01*
Y180716D01*
G37*
G36*
X67725Y187175D02*X58275D01*
Y175835D01*
X67725D01*
Y187175D01*
G37*
G36*
X59695Y177255D02*X58275Y175835D01*
X61115Y172995D01*
X62535Y174415D01*
X59695Y177255D01*
G37*
G36*
X67725Y175835D02*X66305Y177255D01*
X63465Y174415D01*
X64885Y172995D01*
X67725Y175835D01*
G37*
G36*
X70796Y173000D02*X67016D01*
Y165126D01*
X70796D01*
Y173000D01*
G37*
G36*
X44548Y181602D02*Y176484D01*
X50452D01*
Y181602D01*
X44548D01*
G37*
G36*
Y174516D02*Y169398D01*
X50452D01*
Y174516D01*
X44548D01*
G37*
G36*
X166449Y207055D02*Y204693D01*
X172551D01*
Y207055D01*
X166449D01*
G37*
G36*
Y203118D02*Y200756D01*
X172551D01*
Y203118D01*
X166449D01*
G37*
G36*
Y199181D02*Y196819D01*
X172551D01*
Y199181D01*
X166449D01*
G37*
G36*
Y195244D02*Y192882D01*
X172551D01*
Y195244D01*
X166449D01*
G37*
G36*
X150701Y213354D02*Y208630D01*
X157787D01*
Y213354D01*
X150701D01*
G37*
G36*
Y191307D02*Y186583D01*
X157787D01*
Y191307D01*
X150701D01*
G37*
G36*
X203016Y182452D02*X197898D01*
Y176548D01*
X203016D01*
Y182452D01*
G37*
G36*
X210102D02*X204984D01*
Y176548D01*
X210102D01*
Y182452D01*
G37*
G36*
X192650Y196457D02*X186350D01*
Y183858D01*
X192650D01*
Y196457D01*
G37*
G36*
Y216142D02*X186350D01*
Y203543D01*
X192650D01*
Y216142D01*
G37*
G36*
X220516Y182452D02*X215398D01*
Y176548D01*
X220516D01*
Y182452D01*
G37*
G36*
X227602D02*X222484D01*
Y176548D01*
X227602D01*
Y182452D01*
G37*
G36*
X195000Y172000D02*Y170000D01*
X203500D01*
Y172000D01*
X195000D01*
G37*
G36*
Y167000D02*Y165000D01*
X203500D01*
Y167000D01*
X195000D01*
G37*
G36*
Y162000D02*Y160000D01*
X203500D01*
Y162000D01*
X195000D01*
G37*
G36*
Y157000D02*Y155000D01*
X203500D01*
Y157000D01*
X195000D01*
G37*
G36*
X221500D02*Y155000D01*
X230000D01*
Y157000D01*
X221500D01*
G37*
G36*
Y162000D02*Y160000D01*
X230000D01*
Y162000D01*
X221500D01*
G37*
G36*
Y167000D02*Y165000D01*
X230000D01*
Y167000D01*
X221500D01*
G37*
G36*
Y172000D02*Y170000D01*
X230000D01*
Y172000D01*
X221500D01*
G37*
G36*
X168516Y160452D02*X163398D01*
Y154548D01*
X168516D01*
Y160452D01*
G37*
G36*
X175602D02*X170484D01*
Y154548D01*
X175602D01*
Y160452D01*
G37*
G36*
X181740Y225047D02*X179299D01*
Y220244D01*
X181740D01*
Y225047D01*
G37*
G36*
X185480D02*X183039D01*
Y220244D01*
X185480D01*
Y225047D01*
G37*
G36*
X189220D02*X186779D01*
Y220244D01*
X189220D01*
Y225047D01*
G37*
G36*
Y235401D02*X186779D01*
Y230598D01*
X189220D01*
Y235401D01*
G37*
G36*
X185480D02*X183039D01*
Y230598D01*
X185480D01*
Y235401D01*
G37*
G36*
X181740D02*X179299D01*
Y230598D01*
X181740D01*
Y235401D01*
G37*
G36*
X204548Y235102D02*Y229984D01*
X210452D01*
Y235102D01*
X204548D01*
G37*
G36*
Y228016D02*Y222898D01*
X210452D01*
Y228016D01*
X204548D01*
G37*
G36*
X195548D02*Y222898D01*
X201452D01*
Y228016D01*
X195548D01*
G37*
G36*
Y235102D02*Y229984D01*
X201452D01*
Y235102D01*
X195548D01*
G37*
G36*
X184548Y166602D02*Y161484D01*
X190452D01*
Y166602D01*
X184548D01*
G37*
G36*
Y159516D02*Y154398D01*
X190452D01*
Y159516D01*
X184548D01*
G37*
G36*
X159548Y231602D02*Y226484D01*
X165452D01*
Y231602D01*
X159548D01*
G37*
G36*
Y224516D02*Y219398D01*
X165452D01*
Y224516D01*
X159548D01*
G37*
G36*
X213548Y235102D02*Y229984D01*
X219452D01*
Y235102D01*
X213548D01*
G37*
G36*
Y228016D02*Y222898D01*
X219452D01*
Y228016D01*
X213548D01*
G37*
G36*
X209405Y215843D02*Y211157D01*
X222398D01*
Y215843D01*
X209405D01*
G37*
G36*
Y195842D02*Y191158D01*
X222398D01*
Y195842D01*
X209405D01*
G37*
G36*
X234602Y205843D02*Y201158D01*
X247595D01*
Y205843D01*
X234602D01*
G37*
G36*
X168984Y173000D02*X165204D01*
Y165126D01*
X168984D01*
Y173000D01*
G37*
G36*
X174890Y180716D02*X171110D01*
Y165126D01*
X174890D01*
Y180716D01*
G37*
G36*
X177725Y187175D02*X168275D01*
Y175835D01*
X177725D01*
Y187175D01*
G37*
G36*
X169695Y177255D02*X168275Y175835D01*
X171115Y172995D01*
X172535Y174415D01*
X169695Y177255D01*
G37*
G36*
X177725Y175835D02*X176305Y177255D01*
X173465Y174415D01*
X174885Y172995D01*
X177725Y175835D01*
G37*
G36*
X180796Y173000D02*X177016D01*
Y165126D01*
X180796D01*
Y173000D01*
G37*
G36*
X154548Y181602D02*Y176484D01*
X160452D01*
Y181602D01*
X154548D01*
G37*
G36*
Y174516D02*Y169398D01*
X160452D01*
Y174516D01*
X154548D01*
G37*
G36*
X276449Y207055D02*Y204693D01*
X282551D01*
Y207055D01*
X276449D01*
G37*
G36*
Y203118D02*Y200756D01*
X282551D01*
Y203118D01*
X276449D01*
G37*
G36*
Y199181D02*Y196819D01*
X282551D01*
Y199181D01*
X276449D01*
G37*
G36*
Y195244D02*Y192882D01*
X282551D01*
Y195244D01*
X276449D01*
G37*
G36*
X260701Y213354D02*Y208630D01*
X267787D01*
Y213354D01*
X260701D01*
G37*
G36*
Y191307D02*Y186583D01*
X267787D01*
Y191307D01*
X260701D01*
G37*
G36*
X313016Y182452D02*X307898D01*
Y176548D01*
X313016D01*
Y182452D01*
G37*
G36*
X320102D02*X314984D01*
Y176548D01*
X320102D01*
Y182452D01*
G37*
G36*
X302650Y196457D02*X296350D01*
Y183858D01*
X302650D01*
Y196457D01*
G37*
G36*
Y216142D02*X296350D01*
Y203543D01*
X302650D01*
Y216142D01*
G37*
G36*
X330516Y182452D02*X325398D01*
Y176548D01*
X330516D01*
Y182452D01*
G37*
G36*
X337602D02*X332484D01*
Y176548D01*
X337602D01*
Y182452D01*
G37*
G36*
X305000Y172000D02*Y170000D01*
X313500D01*
Y172000D01*
X305000D01*
G37*
G36*
Y167000D02*Y165000D01*
X313500D01*
Y167000D01*
X305000D01*
G37*
G36*
Y162000D02*Y160000D01*
X313500D01*
Y162000D01*
X305000D01*
G37*
G36*
Y157000D02*Y155000D01*
X313500D01*
Y157000D01*
X305000D01*
G37*
G36*
X331500D02*Y155000D01*
X340000D01*
Y157000D01*
X331500D01*
G37*
G36*
Y162000D02*Y160000D01*
X340000D01*
Y162000D01*
X331500D01*
G37*
G36*
Y167000D02*Y165000D01*
X340000D01*
Y167000D01*
X331500D01*
G37*
G36*
Y172000D02*Y170000D01*
X340000D01*
Y172000D01*
X331500D01*
G37*
G36*
X278516Y160452D02*X273398D01*
Y154548D01*
X278516D01*
Y160452D01*
G37*
G36*
X285602D02*X280484D01*
Y154548D01*
X285602D01*
Y160452D01*
G37*
G36*
X291740Y225047D02*X289299D01*
Y220244D01*
X291740D01*
Y225047D01*
G37*
G36*
X295480D02*X293039D01*
Y220244D01*
X295480D01*
Y225047D01*
G37*
G36*
X299220D02*X296779D01*
Y220244D01*
X299220D01*
Y225047D01*
G37*
G36*
Y235401D02*X296779D01*
Y230598D01*
X299220D01*
Y235401D01*
G37*
G36*
X295480D02*X293039D01*
Y230598D01*
X295480D01*
Y235401D01*
G37*
G36*
X291740D02*X289299D01*
Y230598D01*
X291740D01*
Y235401D01*
G37*
G36*
X314548Y235102D02*Y229984D01*
X320452D01*
Y235102D01*
X314548D01*
G37*
G36*
Y228016D02*Y222898D01*
X320452D01*
Y228016D01*
X314548D01*
G37*
G36*
X305548D02*Y222898D01*
X311452D01*
Y228016D01*
X305548D01*
G37*
G36*
Y235102D02*Y229984D01*
X311452D01*
Y235102D01*
X305548D01*
G37*
G36*
X294548Y166602D02*Y161484D01*
X300452D01*
Y166602D01*
X294548D01*
G37*
G36*
Y159516D02*Y154398D01*
X300452D01*
Y159516D01*
X294548D01*
G37*
G36*
X269548Y231602D02*Y226484D01*
X275452D01*
Y231602D01*
X269548D01*
G37*
G36*
Y224516D02*Y219398D01*
X275452D01*
Y224516D01*
X269548D01*
G37*
G36*
X323548Y235102D02*Y229984D01*
X329452D01*
Y235102D01*
X323548D01*
G37*
G36*
Y228016D02*Y222898D01*
X329452D01*
Y228016D01*
X323548D01*
G37*
G36*
X319406Y215843D02*Y211157D01*
X332398D01*
Y215843D01*
X319406D01*
G37*
G36*
Y195842D02*Y191158D01*
X332398D01*
Y195842D01*
X319406D01*
G37*
G36*
X344602Y205843D02*Y201158D01*
X357594D01*
Y205843D01*
X344602D01*
G37*
G36*
X278984Y173000D02*X275204D01*
Y165126D01*
X278984D01*
Y173000D01*
G37*
G36*
X284890Y180716D02*X281110D01*
Y165126D01*
X284890D01*
Y180716D01*
G37*
G36*
X287725Y187175D02*X278275D01*
Y175835D01*
X287725D01*
Y187175D01*
G37*
G36*
X279695Y177255D02*X278275Y175835D01*
X281115Y172995D01*
X282535Y174415D01*
X279695Y177255D01*
G37*
G36*
X287725Y175835D02*X286305Y177255D01*
X283465Y174415D01*
X284885Y172995D01*
X287725Y175835D01*
G37*
G36*
X290796Y173000D02*X287016D01*
Y165126D01*
X290796D01*
Y173000D01*
G37*
G36*
X264548Y181602D02*Y176484D01*
X270452D01*
Y181602D01*
X264548D01*
G37*
G36*
Y174516D02*Y169398D01*
X270452D01*
Y174516D01*
X264548D01*
G37*
G36*
X276449Y97055D02*Y94693D01*
X282551D01*
Y97055D01*
X276449D01*
G37*
G36*
Y93118D02*Y90756D01*
X282551D01*
Y93118D01*
X276449D01*
G37*
G36*
Y89181D02*Y86819D01*
X282551D01*
Y89181D01*
X276449D01*
G37*
G36*
Y85244D02*Y82882D01*
X282551D01*
Y85244D01*
X276449D01*
G37*
G36*
X260701Y103354D02*Y98630D01*
X267787D01*
Y103354D01*
X260701D01*
G37*
G36*
Y81307D02*Y76583D01*
X267787D01*
Y81307D01*
X260701D01*
G37*
G36*
X313016Y72452D02*X307898D01*
Y66548D01*
X313016D01*
Y72452D01*
G37*
G36*
X320102D02*X314984D01*
Y66548D01*
X320102D01*
Y72452D01*
G37*
G36*
X302650Y86457D02*X296350D01*
Y73858D01*
X302650D01*
Y86457D01*
G37*
G36*
Y106142D02*X296350D01*
Y93543D01*
X302650D01*
Y106142D01*
G37*
G36*
X330516Y72452D02*X325398D01*
Y66548D01*
X330516D01*
Y72452D01*
G37*
G36*
X337602D02*X332484D01*
Y66548D01*
X337602D01*
Y72452D01*
G37*
G36*
X305000Y62000D02*Y60000D01*
X313500D01*
Y62000D01*
X305000D01*
G37*
G36*
Y57000D02*Y55000D01*
X313500D01*
Y57000D01*
X305000D01*
G37*
G36*
Y52000D02*Y50000D01*
X313500D01*
Y52000D01*
X305000D01*
G37*
G36*
Y47000D02*Y45000D01*
X313500D01*
Y47000D01*
X305000D01*
G37*
G36*
X331500D02*Y45000D01*
X340000D01*
Y47000D01*
X331500D01*
G37*
G36*
Y52000D02*Y50000D01*
X340000D01*
Y52000D01*
X331500D01*
G37*
G36*
Y57000D02*Y55000D01*
X340000D01*
Y57000D01*
X331500D01*
G37*
G36*
Y62000D02*Y60000D01*
X340000D01*
Y62000D01*
X331500D01*
G37*
G36*
X278516Y50452D02*X273398D01*
Y44548D01*
X278516D01*
Y50452D01*
G37*
G36*
X285602D02*X280484D01*
Y44548D01*
X285602D01*
Y50452D01*
G37*
G36*
X291740Y115047D02*X289299D01*
Y110244D01*
X291740D01*
Y115047D01*
G37*
G36*
X295480D02*X293039D01*
Y110244D01*
X295480D01*
Y115047D01*
G37*
G36*
X299220D02*X296779D01*
Y110244D01*
X299220D01*
Y115047D01*
G37*
G36*
Y125401D02*X296779D01*
Y120598D01*
X299220D01*
Y125401D01*
G37*
G36*
X295480D02*X293039D01*
Y120598D01*
X295480D01*
Y125401D01*
G37*
G36*
X291740D02*X289299D01*
Y120598D01*
X291740D01*
Y125401D01*
G37*
G36*
X314548Y125102D02*Y119984D01*
X320452D01*
Y125102D01*
X314548D01*
G37*
G36*
Y118016D02*Y112898D01*
X320452D01*
Y118016D01*
X314548D01*
G37*
G36*
X305548D02*Y112898D01*
X311452D01*
Y118016D01*
X305548D01*
G37*
G36*
Y125102D02*Y119984D01*
X311452D01*
Y125102D01*
X305548D01*
G37*
G36*
X294548Y56602D02*Y51484D01*
X300452D01*
Y56602D01*
X294548D01*
G37*
G36*
Y49516D02*Y44398D01*
X300452D01*
Y49516D01*
X294548D01*
G37*
G36*
X269548Y121602D02*Y116484D01*
X275452D01*
Y121602D01*
X269548D01*
G37*
G36*
Y114516D02*Y109398D01*
X275452D01*
Y114516D01*
X269548D01*
G37*
G36*
X323548Y125102D02*Y119984D01*
X329452D01*
Y125102D01*
X323548D01*
G37*
G36*
Y118016D02*Y112898D01*
X329452D01*
Y118016D01*
X323548D01*
G37*
G36*
X319406Y105842D02*Y101158D01*
X332398D01*
Y105842D01*
X319406D01*
G37*
G36*
Y85842D02*Y81158D01*
X332398D01*
Y85842D01*
X319406D01*
G37*
G36*
X344602Y95842D02*Y91158D01*
X357594D01*
Y95842D01*
X344602D01*
G37*
G36*
X278984Y63000D02*X275204D01*
Y55126D01*
X278984D01*
Y63000D01*
G37*
G36*
X284890Y70716D02*X281110D01*
Y55126D01*
X284890D01*
Y70716D01*
G37*
G36*
X287725Y77175D02*X278275D01*
Y65835D01*
X287725D01*
Y77175D01*
G37*
G36*
X279695Y67255D02*X278275Y65835D01*
X281115Y62995D01*
X282535Y64415D01*
X279695Y67255D01*
G37*
G36*
X287725Y65835D02*X286305Y67255D01*
X283465Y64415D01*
X284885Y62995D01*
X287725Y65835D01*
G37*
G36*
X290796Y63000D02*X287016D01*
Y55126D01*
X290796D01*
Y63000D01*
G37*
G36*
X264548Y71602D02*Y66484D01*
X270452D01*
Y71602D01*
X264548D01*
G37*
G36*
Y64516D02*Y59398D01*
X270452D01*
Y64516D01*
X264548D01*
G37*
G36*
X166449Y97055D02*Y94693D01*
X172551D01*
Y97055D01*
X166449D01*
G37*
G36*
Y93118D02*Y90756D01*
X172551D01*
Y93118D01*
X166449D01*
G37*
G36*
Y89181D02*Y86819D01*
X172551D01*
Y89181D01*
X166449D01*
G37*
G36*
Y85244D02*Y82882D01*
X172551D01*
Y85244D01*
X166449D01*
G37*
G36*
X150701Y103354D02*Y98630D01*
X157787D01*
Y103354D01*
X150701D01*
G37*
G36*
Y81307D02*Y76583D01*
X157787D01*
Y81307D01*
X150701D01*
G37*
G36*
X203016Y72452D02*X197898D01*
Y66548D01*
X203016D01*
Y72452D01*
G37*
G36*
X210102D02*X204984D01*
Y66548D01*
X210102D01*
Y72452D01*
G37*
G36*
X192650Y86457D02*X186350D01*
Y73858D01*
X192650D01*
Y86457D01*
G37*
G36*
Y106142D02*X186350D01*
Y93543D01*
X192650D01*
Y106142D01*
G37*
G36*
X220516Y72452D02*X215398D01*
Y66548D01*
X220516D01*
Y72452D01*
G37*
G36*
X227602D02*X222484D01*
Y66548D01*
X227602D01*
Y72452D01*
G37*
G36*
X195000Y62000D02*Y60000D01*
X203500D01*
Y62000D01*
X195000D01*
G37*
G36*
Y57000D02*Y55000D01*
X203500D01*
Y57000D01*
X195000D01*
G37*
G36*
Y52000D02*Y50000D01*
X203500D01*
Y52000D01*
X195000D01*
G37*
G36*
Y47000D02*Y45000D01*
X203500D01*
Y47000D01*
X195000D01*
G37*
G36*
X221500D02*Y45000D01*
X230000D01*
Y47000D01*
X221500D01*
G37*
G36*
Y52000D02*Y50000D01*
X230000D01*
Y52000D01*
X221500D01*
G37*
G36*
Y57000D02*Y55000D01*
X230000D01*
Y57000D01*
X221500D01*
G37*
G36*
Y62000D02*Y60000D01*
X230000D01*
Y62000D01*
X221500D01*
G37*
G36*
X168516Y50452D02*X163398D01*
Y44548D01*
X168516D01*
Y50452D01*
G37*
G36*
X175602D02*X170484D01*
Y44548D01*
X175602D01*
Y50452D01*
G37*
G36*
X181740Y115047D02*X179299D01*
Y110244D01*
X181740D01*
Y115047D01*
G37*
G36*
X185480D02*X183039D01*
Y110244D01*
X185480D01*
Y115047D01*
G37*
G36*
X189220D02*X186779D01*
Y110244D01*
X189220D01*
Y115047D01*
G37*
G36*
Y125401D02*X186779D01*
Y120598D01*
X189220D01*
Y125401D01*
G37*
G36*
X185480D02*X183039D01*
Y120598D01*
X185480D01*
Y125401D01*
G37*
G36*
X181740D02*X179299D01*
Y120598D01*
X181740D01*
Y125401D01*
G37*
G36*
X204548Y125102D02*Y119984D01*
X210452D01*
Y125102D01*
X204548D01*
G37*
G36*
Y118016D02*Y112898D01*
X210452D01*
Y118016D01*
X204548D01*
G37*
G36*
X195548D02*Y112898D01*
X201452D01*
Y118016D01*
X195548D01*
G37*
G36*
Y125102D02*Y119984D01*
X201452D01*
Y125102D01*
X195548D01*
G37*
G36*
X184548Y56602D02*Y51484D01*
X190452D01*
Y56602D01*
X184548D01*
G37*
G36*
Y49516D02*Y44398D01*
X190452D01*
Y49516D01*
X184548D01*
G37*
G36*
X159548Y121602D02*Y116484D01*
X165452D01*
Y121602D01*
X159548D01*
G37*
G36*
Y114516D02*Y109398D01*
X165452D01*
Y114516D01*
X159548D01*
G37*
G36*
X213548Y125102D02*Y119984D01*
X219452D01*
Y125102D01*
X213548D01*
G37*
G36*
Y118016D02*Y112898D01*
X219452D01*
Y118016D01*
X213548D01*
G37*
G36*
X209405Y105842D02*Y101158D01*
X222398D01*
Y105842D01*
X209405D01*
G37*
G36*
Y85842D02*Y81158D01*
X222398D01*
Y85842D01*
X209405D01*
G37*
G36*
X234602Y95842D02*Y91158D01*
X247595D01*
Y95842D01*
X234602D01*
G37*
G36*
X168984Y63000D02*X165204D01*
Y55126D01*
X168984D01*
Y63000D01*
G37*
G36*
X174890Y70716D02*X171110D01*
Y55126D01*
X174890D01*
Y70716D01*
G37*
G36*
X177725Y77175D02*X168275D01*
Y65835D01*
X177725D01*
Y77175D01*
G37*
G36*
X169695Y67255D02*X168275Y65835D01*
X171115Y62995D01*
X172535Y64415D01*
X169695Y67255D01*
G37*
G36*
X177725Y65835D02*X176305Y67255D01*
X173465Y64415D01*
X174885Y62995D01*
X177725Y65835D01*
G37*
G36*
X180796Y63000D02*X177016D01*
Y55126D01*
X180796D01*
Y63000D01*
G37*
G36*
X154548Y71602D02*Y66484D01*
X160452D01*
Y71602D01*
X154548D01*
G37*
G36*
Y64516D02*Y59398D01*
X160452D01*
Y64516D01*
X154548D01*
G37*
G36*
X56449Y97055D02*Y94693D01*
X62551D01*
Y97055D01*
X56449D01*
G37*
G36*
Y93118D02*Y90756D01*
X62551D01*
Y93118D01*
X56449D01*
G37*
G36*
Y89181D02*Y86819D01*
X62551D01*
Y89181D01*
X56449D01*
G37*
G36*
Y85244D02*Y82882D01*
X62551D01*
Y85244D01*
X56449D01*
G37*
G36*
X40701Y103354D02*Y98630D01*
X47787D01*
Y103354D01*
X40701D01*
G37*
G36*
Y81307D02*Y76583D01*
X47787D01*
Y81307D01*
X40701D01*
G37*
G36*
X93016Y72452D02*X87898D01*
Y66548D01*
X93016D01*
Y72452D01*
G37*
G36*
X100102D02*X94984D01*
Y66548D01*
X100102D01*
Y72452D01*
G37*
G36*
X82650Y86457D02*X76350D01*
Y73858D01*
X82650D01*
Y86457D01*
G37*
G36*
Y106142D02*X76350D01*
Y93543D01*
X82650D01*
Y106142D01*
G37*
G36*
X110516Y72452D02*X105398D01*
Y66548D01*
X110516D01*
Y72452D01*
G37*
G36*
X117602D02*X112484D01*
Y66548D01*
X117602D01*
Y72452D01*
G37*
G36*
X85000Y62000D02*Y60000D01*
X93500D01*
Y62000D01*
X85000D01*
G37*
G36*
Y57000D02*Y55000D01*
X93500D01*
Y57000D01*
X85000D01*
G37*
G36*
Y52000D02*Y50000D01*
X93500D01*
Y52000D01*
X85000D01*
G37*
G36*
Y47000D02*Y45000D01*
X93500D01*
Y47000D01*
X85000D01*
G37*
G36*
X111500D02*Y45000D01*
X120000D01*
Y47000D01*
X111500D01*
G37*
G36*
Y52000D02*Y50000D01*
X120000D01*
Y52000D01*
X111500D01*
G37*
G36*
Y57000D02*Y55000D01*
X120000D01*
Y57000D01*
X111500D01*
G37*
G36*
Y62000D02*Y60000D01*
X120000D01*
Y62000D01*
X111500D01*
G37*
G36*
X58516Y50452D02*X53398D01*
Y44548D01*
X58516D01*
Y50452D01*
G37*
G36*
X65602D02*X60484D01*
Y44548D01*
X65602D01*
Y50452D01*
G37*
G36*
X71740Y115047D02*X69300D01*
Y110244D01*
X71740D01*
Y115047D01*
G37*
G36*
X75480D02*X73040D01*
Y110244D01*
X75480D01*
Y115047D01*
G37*
G36*
X79220D02*X76780D01*
Y110244D01*
X79220D01*
Y115047D01*
G37*
G36*
Y125401D02*X76780D01*
Y120598D01*
X79220D01*
Y125401D01*
G37*
G36*
X75480D02*X73040D01*
Y120598D01*
X75480D01*
Y125401D01*
G37*
G36*
X71740D02*X69300D01*
Y120598D01*
X71740D01*
Y125401D01*
G37*
G36*
X94548Y125102D02*Y119984D01*
X100452D01*
Y125102D01*
X94548D01*
G37*
G36*
Y118016D02*Y112898D01*
X100452D01*
Y118016D01*
X94548D01*
G37*
G36*
X85548D02*Y112898D01*
X91452D01*
Y118016D01*
X85548D01*
G37*
G36*
Y125102D02*Y119984D01*
X91452D01*
Y125102D01*
X85548D01*
G37*
G36*
X74548Y56602D02*Y51484D01*
X80452D01*
Y56602D01*
X74548D01*
G37*
G36*
Y49516D02*Y44398D01*
X80452D01*
Y49516D01*
X74548D01*
G37*
G36*
X49548Y121602D02*Y116484D01*
X55452D01*
Y121602D01*
X49548D01*
G37*
G36*
Y114516D02*Y109398D01*
X55452D01*
Y114516D01*
X49548D01*
G37*
G36*
X103548Y125102D02*Y119984D01*
X109452D01*
Y125102D01*
X103548D01*
G37*
G36*
Y118016D02*Y112898D01*
X109452D01*
Y118016D01*
X103548D01*
G37*
G36*
X99406Y105842D02*Y101158D01*
X112397D01*
Y105842D01*
X99406D01*
G37*
G36*
Y85842D02*Y81158D01*
X112397D01*
Y85842D01*
X99406D01*
G37*
G36*
X124603Y95842D02*Y91158D01*
X137594D01*
Y95842D01*
X124603D01*
G37*
G36*
X58984Y63000D02*X55204D01*
Y55126D01*
X58984D01*
Y63000D01*
G37*
G36*
X64890Y70716D02*X61110D01*
Y55126D01*
X64890D01*
Y70716D01*
G37*
G36*
X67725Y77175D02*X58275D01*
Y65835D01*
X67725D01*
Y77175D01*
G37*
G36*
X59695Y67255D02*X58275Y65835D01*
X61115Y62995D01*
X62535Y64415D01*
X59695Y67255D01*
G37*
G36*
X67725Y65835D02*X66305Y67255D01*
X63465Y64415D01*
X64885Y62995D01*
X67725Y65835D01*
G37*
G36*
X70796Y63000D02*X67016D01*
Y55126D01*
X70796D01*
Y63000D01*
G37*
G36*
X44548Y71602D02*Y66484D01*
X50452D01*
Y71602D01*
X44548D01*
G37*
G36*
Y64516D02*Y59398D01*
X50452D01*
Y64516D01*
X44548D01*
G37*
M02*
