G04 start of page 10 for group -4078 idx -4078 *
G04 Title: (unknown), bottomsilk *
G04 Creator: pcb 4.0.2 *
G04 CreationDate: Sun May 15 03:11:06 2022 UTC *
G04 For: railfan *
G04 Format: Gerber/RS-274X *
G04 PCB-Dimensions (mil): 4000.00 4000.00 *
G04 PCB-Coordinate-Origin: lower left *
%MOIN*%
%FSLAX25Y25*%
%LNBOTTOMSILK*%
%ADD41C,0.0100*%
%ADD40C,0.0060*%
G54D40*X101617Y175807D02*X103138D01*
X103957Y176626D02*X103138Y175807D01*
X103957Y176626D02*Y179668D01*
X103138Y180487D01*
X101617D02*X103138D01*
X97873Y175807D02*X99394D01*
X100213Y176626D02*X99394Y175807D01*
X100213Y176626D02*Y179668D01*
X99394Y180487D01*
X97873D02*X99394D01*
X92023Y175807D02*X94363D01*
X92023D02*X91438Y176392D01*
Y177796D01*
X92023Y178381D02*X91438Y177796D01*
X92023Y178381D02*X93778D01*
Y175807D02*Y180487D01*
X92023D02*X94363D01*
X92023D02*X91438Y179902D01*
Y178966D02*Y179902D01*
X92023Y178381D02*X91438Y178966D01*
X90034Y180487D02*X88864Y178147D01*
X87694Y180487D01*
X88864Y175807D02*Y178147D01*
X83950D02*X86290D01*
X80206Y180487D02*X79621Y179902D01*
X80206Y180487D02*X81961D01*
X82546Y179902D02*X81961Y180487D01*
X82546Y178732D02*Y179902D01*
Y178732D02*X81961Y178147D01*
X80206D02*X81961D01*
X80206D02*X79621Y177562D01*
Y176392D02*Y177562D01*
X80206Y175807D02*X79621Y176392D01*
X80206Y175807D02*X81961D01*
X82546Y176392D02*X81961Y175807D01*
X78217D02*Y179317D01*
X77398Y180487D01*
X76111D02*X77398D01*
X76111D02*X75292Y179317D01*
Y175807D02*Y179317D01*
Y178147D02*X78217D01*
X211617Y175807D02*X213138D01*
X213957Y176626D02*X213138Y175807D01*
X213957Y176626D02*Y179668D01*
X213138Y180487D01*
X211617D02*X213138D01*
X207873Y175807D02*X209394D01*
X210213Y176626D02*X209394Y175807D01*
X210213Y176626D02*Y179668D01*
X209394Y180487D01*
X207873D02*X209394D01*
X202023Y175807D02*X204363D01*
X202023D02*X201438Y176392D01*
Y177796D01*
X202023Y178381D02*X201438Y177796D01*
X202023Y178381D02*X203778D01*
Y175807D02*Y180487D01*
X202023D02*X204363D01*
X202023D02*X201438Y179902D01*
Y178966D02*Y179902D01*
X202023Y178381D02*X201438Y178966D01*
X200034Y180487D02*X198864Y178147D01*
X197694Y180487D01*
X198864Y175807D02*Y178147D01*
X193950D02*X196290D01*
X190206Y180487D02*X189621Y179902D01*
X190206Y180487D02*X191961D01*
X192546Y179902D02*X191961Y180487D01*
X192546Y178732D02*Y179902D01*
Y178732D02*X191961Y178147D01*
X190206D02*X191961D01*
X190206D02*X189621Y177562D01*
Y176392D02*Y177562D01*
X190206Y175807D02*X189621Y176392D01*
X190206Y175807D02*X191961D01*
X192546Y176392D02*X191961Y175807D01*
X188217D02*Y179317D01*
X187398Y180487D01*
X186111D02*X187398D01*
X186111D02*X185292Y179317D01*
Y175807D02*Y179317D01*
Y178147D02*X188217D01*
X321617Y175807D02*X323138D01*
X323957Y176626D02*X323138Y175807D01*
X323957Y176626D02*Y179668D01*
X323138Y180487D01*
X321617D02*X323138D01*
X317873Y175807D02*X319394D01*
X320213Y176626D02*X319394Y175807D01*
X320213Y176626D02*Y179668D01*
X319394Y180487D01*
X317873D02*X319394D01*
X312023Y175807D02*X314363D01*
X312023D02*X311438Y176392D01*
Y177796D01*
X312023Y178381D02*X311438Y177796D01*
X312023Y178381D02*X313778D01*
Y175807D02*Y180487D01*
X312023D02*X314363D01*
X312023D02*X311438Y179902D01*
Y178966D02*Y179902D01*
X312023Y178381D02*X311438Y178966D01*
X310034Y180487D02*X308864Y178147D01*
X307694Y180487D01*
X308864Y175807D02*Y178147D01*
X303950D02*X306290D01*
X300206Y180487D02*X299621Y179902D01*
X300206Y180487D02*X301961D01*
X302546Y179902D02*X301961Y180487D01*
X302546Y178732D02*Y179902D01*
Y178732D02*X301961Y178147D01*
X300206D02*X301961D01*
X300206D02*X299621Y177562D01*
Y176392D02*Y177562D01*
X300206Y175807D02*X299621Y176392D01*
X300206Y175807D02*X301961D01*
X302546Y176392D02*X301961Y175807D01*
X298217D02*Y179317D01*
X297398Y180487D01*
X296111D02*X297398D01*
X296111D02*X295292Y179317D01*
Y175807D02*Y179317D01*
Y178147D02*X298217D01*
X102000Y167892D02*X101415Y167307D01*
X102000Y171402D02*X101415Y171987D01*
X102000Y167892D02*Y171402D01*
X97671Y167307D02*X99192D01*
X100011Y168126D02*X99192Y167307D01*
X100011Y168126D02*Y171168D01*
X99192Y171987D01*
X97671D02*X99192D01*
X96267D02*X95682Y171402D01*
Y167892D02*Y171402D01*
X96267Y167307D02*X95682Y167892D01*
X92172Y171402D02*X91587Y171987D01*
X89832D02*X91587D01*
X89832D02*X89247Y171402D01*
Y170232D02*Y171402D01*
X92172Y167307D02*X89247Y170232D01*
Y167307D02*X92172D01*
X87843Y167892D02*X87258Y167307D01*
X87843Y167892D02*Y171402D01*
X87258Y171987D01*
X86088D02*X87258D01*
X86088D02*X85503Y171402D01*
Y167892D02*Y171402D01*
X86088Y167307D02*X85503Y167892D01*
X86088Y167307D02*X87258D01*
X87843Y168477D02*X85503Y170817D01*
X84099Y171402D02*X83514Y171987D01*
X81759D02*X83514D01*
X81759D02*X81174Y171402D01*
Y170232D02*Y171402D01*
X84099Y167307D02*X81174Y170232D01*
Y167307D02*X84099D01*
X79770Y167892D02*X79185Y167307D01*
X79770Y167892D02*Y171402D01*
X79185Y171987D01*
X78015D02*X79185D01*
X78015D02*X77430Y171402D01*
Y167892D02*Y171402D01*
X78015Y167307D02*X77430Y167892D01*
X78015Y167307D02*X79185D01*
X79770Y168477D02*X77430Y170817D01*
X212000Y167892D02*X211415Y167307D01*
X212000Y171402D02*X211415Y171987D01*
X212000Y167892D02*Y171402D01*
X207671Y167307D02*X209192D01*
X210011Y168126D02*X209192Y167307D01*
X210011Y168126D02*Y171168D01*
X209192Y171987D01*
X207671D02*X209192D01*
X206267D02*X205682Y171402D01*
Y167892D02*Y171402D01*
X206267Y167307D02*X205682Y167892D01*
X202172Y171402D02*X201587Y171987D01*
X199832D02*X201587D01*
X199832D02*X199247Y171402D01*
Y170232D02*Y171402D01*
X202172Y167307D02*X199247Y170232D01*
Y167307D02*X202172D01*
X197843Y167892D02*X197258Y167307D01*
X197843Y167892D02*Y171402D01*
X197258Y171987D01*
X196088D02*X197258D01*
X196088D02*X195503Y171402D01*
Y167892D02*Y171402D01*
X196088Y167307D02*X195503Y167892D01*
X196088Y167307D02*X197258D01*
X197843Y168477D02*X195503Y170817D01*
X194099Y171402D02*X193514Y171987D01*
X191759D02*X193514D01*
X191759D02*X191174Y171402D01*
Y170232D02*Y171402D01*
X194099Y167307D02*X191174Y170232D01*
Y167307D02*X194099D01*
X189770Y167892D02*X189185Y167307D01*
X189770Y167892D02*Y171402D01*
X189185Y171987D01*
X188015D02*X189185D01*
X188015D02*X187430Y171402D01*
Y167892D02*Y171402D01*
X188015Y167307D02*X187430Y167892D01*
X188015Y167307D02*X189185D01*
X189770Y168477D02*X187430Y170817D01*
X228660Y131307D02*X230181D01*
X231000Y132126D02*X230181Y131307D01*
X231000Y132126D02*Y135168D01*
X230181Y135987D01*
X228660D02*X230181D01*
X227256Y131307D02*Y135987D01*
Y133647D02*X224916Y135987D01*
X227256Y133647D02*X224916Y131307D01*
X221172Y135987D02*X223512D01*
X222342Y131307D02*Y135987D01*
X217428Y133647D02*X219768D01*
X215439Y131307D02*Y135987D01*
X213918D02*X213099Y135168D01*
Y132126D02*Y135168D01*
X213918Y131307D02*X213099Y132126D01*
X213918Y131307D02*X216024D01*
X213918Y135987D02*X216024D01*
X210525D02*X211695D01*
X211110Y131307D02*Y135987D01*
X210525Y131307D02*X211695D01*
X209121D02*Y135987D01*
X206196Y131307D01*
Y135987D01*
X202452D02*X201867Y135402D01*
X202452Y135987D02*X204207D01*
X204792Y135402D02*X204207Y135987D01*
X204792Y131892D02*Y135402D01*
Y131892D02*X204207Y131307D01*
X202452D02*X204207D01*
X202452D02*X201867Y131892D01*
Y133062D01*
X202452Y133647D02*X201867Y133062D01*
X202452Y133647D02*X203622D01*
X199878Y131307D02*Y135987D01*
X198357D02*X197538Y135168D01*
Y132126D02*Y135168D01*
X198357Y131307D02*X197538Y132126D01*
X198357Y131307D02*X200463D01*
X198357Y135987D02*X200463D01*
X196134Y131892D02*Y135402D01*
X195549Y135987D01*
X194379D02*X195549D01*
X194379D02*X193794Y135402D01*
Y131892D02*Y135402D01*
X194379Y131307D02*X193794Y131892D01*
X194379Y131307D02*X195549D01*
X196134Y131892D02*X195549Y131307D01*
X192390D02*Y135987D01*
X189465Y131307D01*
Y135987D01*
X185721D02*X185136Y135402D01*
X185721Y135987D02*X187476D01*
X188061Y135402D02*X187476Y135987D01*
X188061Y131892D02*Y135402D01*
Y131892D02*X187476Y131307D01*
X185721D02*X187476D01*
X185721D02*X185136Y131892D01*
Y133062D01*
X185721Y133647D02*X185136Y133062D01*
X185721Y133647D02*X186891D01*
X179520D02*X178350Y131307D01*
X177180Y133647D02*X178350Y131307D01*
X175776Y135051D02*X174840Y135987D01*
Y131307D02*Y135987D01*
X174021Y131307D02*X175776D01*
X172032D02*X172617D01*
X170628Y135051D02*X169692Y135987D01*
Y131307D02*Y135987D01*
X168873Y131307D02*X170628D01*
X211617Y65807D02*X213138D01*
X213957Y66626D02*X213138Y65807D01*
X213957Y66626D02*Y69668D01*
X213138Y70487D01*
X211617D02*X213138D01*
X207873Y65807D02*X209394D01*
X210213Y66626D02*X209394Y65807D01*
X210213Y66626D02*Y69668D01*
X209394Y70487D01*
X207873D02*X209394D01*
X202023Y65807D02*X204363D01*
X202023D02*X201438Y66392D01*
Y67796D01*
X202023Y68381D02*X201438Y67796D01*
X202023Y68381D02*X203778D01*
Y65807D02*Y70487D01*
X202023D02*X204363D01*
X202023D02*X201438Y69902D01*
Y68966D02*Y69902D01*
X202023Y68381D02*X201438Y68966D01*
X200034Y70487D02*X198864Y68147D01*
X197694Y70487D01*
X198864Y65807D02*Y68147D01*
X193950D02*X196290D01*
X190206Y70487D02*X189621Y69902D01*
X190206Y70487D02*X191961D01*
X192546Y69902D02*X191961Y70487D01*
X192546Y68732D02*Y69902D01*
Y68732D02*X191961Y68147D01*
X190206D02*X191961D01*
X190206D02*X189621Y67562D01*
Y66392D02*Y67562D01*
X190206Y65807D02*X189621Y66392D01*
X190206Y65807D02*X191961D01*
X192546Y66392D02*X191961Y65807D01*
X188217D02*Y69317D01*
X187398Y70487D01*
X186111D02*X187398D01*
X186111D02*X185292Y69317D01*
Y65807D02*Y69317D01*
Y68147D02*X188217D01*
X322000Y167892D02*X321415Y167307D01*
X322000Y171402D02*X321415Y171987D01*
X322000Y167892D02*Y171402D01*
X317671Y167307D02*X319192D01*
X320011Y168126D02*X319192Y167307D01*
X320011Y168126D02*Y171168D01*
X319192Y171987D01*
X317671D02*X319192D01*
X316267D02*X315682Y171402D01*
Y167892D02*Y171402D01*
X316267Y167307D02*X315682Y167892D01*
X312172Y171402D02*X311587Y171987D01*
X309832D02*X311587D01*
X309832D02*X309247Y171402D01*
Y170232D02*Y171402D01*
X312172Y167307D02*X309247Y170232D01*
Y167307D02*X312172D01*
X307843Y167892D02*X307258Y167307D01*
X307843Y167892D02*Y171402D01*
X307258Y171987D01*
X306088D02*X307258D01*
X306088D02*X305503Y171402D01*
Y167892D02*Y171402D01*
X306088Y167307D02*X305503Y167892D01*
X306088Y167307D02*X307258D01*
X307843Y168477D02*X305503Y170817D01*
X304099Y171402D02*X303514Y171987D01*
X301759D02*X303514D01*
X301759D02*X301174Y171402D01*
Y170232D02*Y171402D01*
X304099Y167307D02*X301174Y170232D01*
Y167307D02*X304099D01*
X299770Y167892D02*X299185Y167307D01*
X299770Y167892D02*Y171402D01*
X299185Y171987D01*
X298015D02*X299185D01*
X298015D02*X297430Y171402D01*
Y167892D02*Y171402D01*
X298015Y167307D02*X297430Y167892D01*
X298015Y167307D02*X299185D01*
X299770Y168477D02*X297430Y170817D01*
X338660Y131307D02*X340181D01*
X341000Y132126D02*X340181Y131307D01*
X341000Y132126D02*Y135168D01*
X340181Y135987D01*
X338660D02*X340181D01*
X337256Y131307D02*Y135987D01*
Y133647D02*X334916Y135987D01*
X337256Y133647D02*X334916Y131307D01*
X331172Y135987D02*X333512D01*
X332342Y131307D02*Y135987D01*
X327428Y133647D02*X329768D01*
X325439Y131307D02*Y135987D01*
X323918D02*X323099Y135168D01*
Y132126D02*Y135168D01*
X323918Y131307D02*X323099Y132126D01*
X323918Y131307D02*X326024D01*
X323918Y135987D02*X326024D01*
X320525D02*X321695D01*
X321110Y131307D02*Y135987D01*
X320525Y131307D02*X321695D01*
X319121D02*Y135987D01*
X316196Y131307D01*
Y135987D01*
X312452D02*X311867Y135402D01*
X312452Y135987D02*X314207D01*
X314792Y135402D02*X314207Y135987D01*
X314792Y131892D02*Y135402D01*
Y131892D02*X314207Y131307D01*
X312452D02*X314207D01*
X312452D02*X311867Y131892D01*
Y133062D01*
X312452Y133647D02*X311867Y133062D01*
X312452Y133647D02*X313622D01*
X309878Y131307D02*Y135987D01*
X308357D02*X307538Y135168D01*
Y132126D02*Y135168D01*
X308357Y131307D02*X307538Y132126D01*
X308357Y131307D02*X310463D01*
X308357Y135987D02*X310463D01*
X306134Y131892D02*Y135402D01*
X305549Y135987D01*
X304379D02*X305549D01*
X304379D02*X303794Y135402D01*
Y131892D02*Y135402D01*
X304379Y131307D02*X303794Y131892D01*
X304379Y131307D02*X305549D01*
X306134Y131892D02*X305549Y131307D01*
X302390D02*Y135987D01*
X299465Y131307D01*
Y135987D01*
X295721D02*X295136Y135402D01*
X295721Y135987D02*X297476D01*
X298061Y135402D02*X297476Y135987D01*
X298061Y131892D02*Y135402D01*
Y131892D02*X297476Y131307D01*
X295721D02*X297476D01*
X295721D02*X295136Y131892D01*
Y133062D01*
X295721Y133647D02*X295136Y133062D01*
X295721Y133647D02*X296891D01*
X289520D02*X288350Y131307D01*
X287180Y133647D02*X288350Y131307D01*
X285776Y135051D02*X284840Y135987D01*
Y131307D02*Y135987D01*
X284021Y131307D02*X285776D01*
X282032D02*X282617D01*
X280628Y135051D02*X279692Y135987D01*
Y131307D02*Y135987D01*
X278873Y131307D02*X280628D01*
X321617Y65807D02*X323138D01*
X323957Y66626D02*X323138Y65807D01*
X323957Y66626D02*Y69668D01*
X323138Y70487D01*
X321617D02*X323138D01*
X317873Y65807D02*X319394D01*
X320213Y66626D02*X319394Y65807D01*
X320213Y66626D02*Y69668D01*
X319394Y70487D01*
X317873D02*X319394D01*
X312023Y65807D02*X314363D01*
X312023D02*X311438Y66392D01*
Y67796D01*
X312023Y68381D02*X311438Y67796D01*
X312023Y68381D02*X313778D01*
Y65807D02*Y70487D01*
X312023D02*X314363D01*
X312023D02*X311438Y69902D01*
Y68966D02*Y69902D01*
X312023Y68381D02*X311438Y68966D01*
X310034Y70487D02*X308864Y68147D01*
X307694Y70487D01*
X308864Y65807D02*Y68147D01*
X303950D02*X306290D01*
X300206Y70487D02*X299621Y69902D01*
X300206Y70487D02*X301961D01*
X302546Y69902D02*X301961Y70487D01*
X302546Y68732D02*Y69902D01*
Y68732D02*X301961Y68147D01*
X300206D02*X301961D01*
X300206D02*X299621Y67562D01*
Y66392D02*Y67562D01*
X300206Y65807D02*X299621Y66392D01*
X300206Y65807D02*X301961D01*
X302546Y66392D02*X301961Y65807D01*
X298217D02*Y69317D01*
X297398Y70487D01*
X296111D02*X297398D01*
X296111D02*X295292Y69317D01*
Y65807D02*Y69317D01*
Y68147D02*X298217D01*
X322000Y57892D02*X321415Y57307D01*
X322000Y61402D02*X321415Y61987D01*
X322000Y57892D02*Y61402D01*
X317671Y57307D02*X319192D01*
X320011Y58126D02*X319192Y57307D01*
X320011Y58126D02*Y61168D01*
X319192Y61987D01*
X317671D02*X319192D01*
X316267D02*X315682Y61402D01*
Y57892D02*Y61402D01*
X316267Y57307D02*X315682Y57892D01*
X312172Y61402D02*X311587Y61987D01*
X309832D02*X311587D01*
X309832D02*X309247Y61402D01*
Y60232D02*Y61402D01*
X312172Y57307D02*X309247Y60232D01*
Y57307D02*X312172D01*
X307843Y57892D02*X307258Y57307D01*
X307843Y57892D02*Y61402D01*
X307258Y61987D01*
X306088D02*X307258D01*
X306088D02*X305503Y61402D01*
Y57892D02*Y61402D01*
X306088Y57307D02*X305503Y57892D01*
X306088Y57307D02*X307258D01*
X307843Y58477D02*X305503Y60817D01*
X304099Y61402D02*X303514Y61987D01*
X301759D02*X303514D01*
X301759D02*X301174Y61402D01*
Y60232D02*Y61402D01*
X304099Y57307D02*X301174Y60232D01*
Y57307D02*X304099D01*
X299770Y57892D02*X299185Y57307D01*
X299770Y57892D02*Y61402D01*
X299185Y61987D01*
X298015D02*X299185D01*
X298015D02*X297430Y61402D01*
Y57892D02*Y61402D01*
X298015Y57307D02*X297430Y57892D01*
X298015Y57307D02*X299185D01*
X299770Y58477D02*X297430Y60817D01*
X212000Y57892D02*X211415Y57307D01*
X212000Y61402D02*X211415Y61987D01*
X212000Y57892D02*Y61402D01*
X207671Y57307D02*X209192D01*
X210011Y58126D02*X209192Y57307D01*
X210011Y58126D02*Y61168D01*
X209192Y61987D01*
X207671D02*X209192D01*
X206267D02*X205682Y61402D01*
Y57892D02*Y61402D01*
X206267Y57307D02*X205682Y57892D01*
X202172Y61402D02*X201587Y61987D01*
X199832D02*X201587D01*
X199832D02*X199247Y61402D01*
Y60232D02*Y61402D01*
X202172Y57307D02*X199247Y60232D01*
Y57307D02*X202172D01*
X197843Y57892D02*X197258Y57307D01*
X197843Y57892D02*Y61402D01*
X197258Y61987D01*
X196088D02*X197258D01*
X196088D02*X195503Y61402D01*
Y57892D02*Y61402D01*
X196088Y57307D02*X195503Y57892D01*
X196088Y57307D02*X197258D01*
X197843Y58477D02*X195503Y60817D01*
X194099Y61402D02*X193514Y61987D01*
X191759D02*X193514D01*
X191759D02*X191174Y61402D01*
Y60232D02*Y61402D01*
X194099Y57307D02*X191174Y60232D01*
Y57307D02*X194099D01*
X189770Y57892D02*X189185Y57307D01*
X189770Y57892D02*Y61402D01*
X189185Y61987D01*
X188015D02*X189185D01*
X188015D02*X187430Y61402D01*
Y57892D02*Y61402D01*
X188015Y57307D02*X187430Y57892D01*
X188015Y57307D02*X189185D01*
X189770Y58477D02*X187430Y60817D01*
X101617Y65807D02*X103138D01*
X103957Y66626D02*X103138Y65807D01*
X103957Y66626D02*Y69668D01*
X103138Y70487D01*
X101617D02*X103138D01*
X97873Y65807D02*X99394D01*
X100213Y66626D02*X99394Y65807D01*
X100213Y66626D02*Y69668D01*
X99394Y70487D01*
X97873D02*X99394D01*
X92023Y65807D02*X94363D01*
X92023D02*X91438Y66392D01*
Y67796D01*
X92023Y68381D02*X91438Y67796D01*
X92023Y68381D02*X93778D01*
Y65807D02*Y70487D01*
X92023D02*X94363D01*
X92023D02*X91438Y69902D01*
Y68966D02*Y69902D01*
X92023Y68381D02*X91438Y68966D01*
X90034Y70487D02*X88864Y68147D01*
X87694Y70487D01*
X88864Y65807D02*Y68147D01*
X83950D02*X86290D01*
X80206Y70487D02*X79621Y69902D01*
X80206Y70487D02*X81961D01*
X82546Y69902D02*X81961Y70487D01*
X82546Y68732D02*Y69902D01*
Y68732D02*X81961Y68147D01*
X80206D02*X81961D01*
X80206D02*X79621Y67562D01*
Y66392D02*Y67562D01*
X80206Y65807D02*X79621Y66392D01*
X80206Y65807D02*X81961D01*
X82546Y66392D02*X81961Y65807D01*
X78217D02*Y69317D01*
X77398Y70487D01*
X76111D02*X77398D01*
X76111D02*X75292Y69317D01*
Y65807D02*Y69317D01*
Y68147D02*X78217D01*
X102000Y57892D02*X101415Y57307D01*
X102000Y61402D02*X101415Y61987D01*
X102000Y57892D02*Y61402D01*
X97671Y57307D02*X99192D01*
X100011Y58126D02*X99192Y57307D01*
X100011Y58126D02*Y61168D01*
X99192Y61987D01*
X97671D02*X99192D01*
X96267D02*X95682Y61402D01*
Y57892D02*Y61402D01*
X96267Y57307D02*X95682Y57892D01*
X92172Y61402D02*X91587Y61987D01*
X89832D02*X91587D01*
X89832D02*X89247Y61402D01*
Y60232D02*Y61402D01*
X92172Y57307D02*X89247Y60232D01*
Y57307D02*X92172D01*
X87843Y57892D02*X87258Y57307D01*
X87843Y57892D02*Y61402D01*
X87258Y61987D01*
X86088D02*X87258D01*
X86088D02*X85503Y61402D01*
Y57892D02*Y61402D01*
X86088Y57307D02*X85503Y57892D01*
X86088Y57307D02*X87258D01*
X87843Y58477D02*X85503Y60817D01*
X84099Y61402D02*X83514Y61987D01*
X81759D02*X83514D01*
X81759D02*X81174Y61402D01*
Y60232D02*Y61402D01*
X84099Y57307D02*X81174Y60232D01*
Y57307D02*X84099D01*
X79770Y57892D02*X79185Y57307D01*
X79770Y57892D02*Y61402D01*
X79185Y61987D01*
X78015D02*X79185D01*
X78015D02*X77430Y61402D01*
Y57892D02*Y61402D01*
X78015Y57307D02*X77430Y57892D01*
X78015Y57307D02*X79185D01*
X79770Y58477D02*X77430Y60817D01*
X118660Y131307D02*X120181D01*
X121000Y132126D02*X120181Y131307D01*
X121000Y132126D02*Y135168D01*
X120181Y135987D01*
X118660D02*X120181D01*
X117256Y131307D02*Y135987D01*
Y133647D02*X114916Y135987D01*
X117256Y133647D02*X114916Y131307D01*
X111172Y135987D02*X113512D01*
X112342Y131307D02*Y135987D01*
X107428Y133647D02*X109768D01*
X105439Y131307D02*Y135987D01*
X103918D02*X103099Y135168D01*
Y132126D02*Y135168D01*
X103918Y131307D02*X103099Y132126D01*
X103918Y131307D02*X106024D01*
X103918Y135987D02*X106024D01*
X100525D02*X101695D01*
X101110Y131307D02*Y135987D01*
X100525Y131307D02*X101695D01*
X99121D02*Y135987D01*
X96196Y131307D01*
Y135987D01*
X92452D02*X91867Y135402D01*
X92452Y135987D02*X94207D01*
X94792Y135402D02*X94207Y135987D01*
X94792Y131892D02*Y135402D01*
Y131892D02*X94207Y131307D01*
X92452D02*X94207D01*
X92452D02*X91867Y131892D01*
Y133062D01*
X92452Y133647D02*X91867Y133062D01*
X92452Y133647D02*X93622D01*
X89878Y131307D02*Y135987D01*
X88357D02*X87538Y135168D01*
Y132126D02*Y135168D01*
X88357Y131307D02*X87538Y132126D01*
X88357Y131307D02*X90463D01*
X88357Y135987D02*X90463D01*
X86134Y131892D02*Y135402D01*
X85549Y135987D01*
X84379D02*X85549D01*
X84379D02*X83794Y135402D01*
Y131892D02*Y135402D01*
X84379Y131307D02*X83794Y131892D01*
X84379Y131307D02*X85549D01*
X86134Y131892D02*X85549Y131307D01*
X82390D02*Y135987D01*
X79465Y131307D01*
Y135987D01*
X75721D02*X75136Y135402D01*
X75721Y135987D02*X77476D01*
X78061Y135402D02*X77476Y135987D01*
X78061Y131892D02*Y135402D01*
Y131892D02*X77476Y131307D01*
X75721D02*X77476D01*
X75721D02*X75136Y131892D01*
Y133062D01*
X75721Y133647D02*X75136Y133062D01*
X75721Y133647D02*X76891D01*
X69520D02*X68350Y131307D01*
X67180Y133647D02*X68350Y131307D01*
X65776Y135051D02*X64840Y135987D01*
Y131307D02*Y135987D01*
X64021Y131307D02*X65776D01*
X62032D02*X62617D01*
X60628Y135051D02*X59692Y135987D01*
Y131307D02*Y135987D01*
X58873Y131307D02*X60628D01*
X228660Y351307D02*X230181D01*
X231000Y352126D02*X230181Y351307D01*
X231000Y352126D02*Y355168D01*
X230181Y355987D01*
X228660D02*X230181D01*
X227256Y351307D02*Y355987D01*
Y353647D02*X224916Y355987D01*
X227256Y353647D02*X224916Y351307D01*
X221172Y355987D02*X223512D01*
X222342Y351307D02*Y355987D01*
X217428Y353647D02*X219768D01*
X215439Y351307D02*Y355987D01*
X213918D02*X213099Y355168D01*
Y352126D02*Y355168D01*
X213918Y351307D02*X213099Y352126D01*
X213918Y351307D02*X216024D01*
X213918Y355987D02*X216024D01*
X210525D02*X211695D01*
X211110Y351307D02*Y355987D01*
X210525Y351307D02*X211695D01*
X209121D02*Y355987D01*
X206196Y351307D01*
Y355987D01*
X202452D02*X201867Y355402D01*
X202452Y355987D02*X204207D01*
X204792Y355402D02*X204207Y355987D01*
X204792Y351892D02*Y355402D01*
Y351892D02*X204207Y351307D01*
X202452D02*X204207D01*
X202452D02*X201867Y351892D01*
Y353062D01*
X202452Y353647D02*X201867Y353062D01*
X202452Y353647D02*X203622D01*
X199878Y351307D02*Y355987D01*
X198357D02*X197538Y355168D01*
Y352126D02*Y355168D01*
X198357Y351307D02*X197538Y352126D01*
X198357Y351307D02*X200463D01*
X198357Y355987D02*X200463D01*
X196134Y351892D02*Y355402D01*
X195549Y355987D01*
X194379D02*X195549D01*
X194379D02*X193794Y355402D01*
Y351892D02*Y355402D01*
X194379Y351307D02*X193794Y351892D01*
X194379Y351307D02*X195549D01*
X196134Y351892D02*X195549Y351307D01*
X192390D02*Y355987D01*
X189465Y351307D01*
Y355987D01*
X185721D02*X185136Y355402D01*
X185721Y355987D02*X187476D01*
X188061Y355402D02*X187476Y355987D01*
X188061Y351892D02*Y355402D01*
Y351892D02*X187476Y351307D01*
X185721D02*X187476D01*
X185721D02*X185136Y351892D01*
Y353062D01*
X185721Y353647D02*X185136Y353062D01*
X185721Y353647D02*X186891D01*
X179520D02*X178350Y351307D01*
X177180Y353647D02*X178350Y351307D01*
X175776Y355051D02*X174840Y355987D01*
Y351307D02*Y355987D01*
X174021Y351307D02*X175776D01*
X172032D02*X172617D01*
X170628Y355051D02*X169692Y355987D01*
Y351307D02*Y355987D01*
X168873Y351307D02*X170628D01*
X211617Y285807D02*X213138D01*
X213957Y286626D02*X213138Y285807D01*
X213957Y286626D02*Y289668D01*
X213138Y290487D01*
X211617D02*X213138D01*
X207873Y285807D02*X209394D01*
X210213Y286626D02*X209394Y285807D01*
X210213Y286626D02*Y289668D01*
X209394Y290487D01*
X207873D02*X209394D01*
X202023Y285807D02*X204363D01*
X202023D02*X201438Y286392D01*
Y287796D01*
X202023Y288381D02*X201438Y287796D01*
X202023Y288381D02*X203778D01*
Y285807D02*Y290487D01*
X202023D02*X204363D01*
X202023D02*X201438Y289902D01*
Y288966D02*Y289902D01*
X202023Y288381D02*X201438Y288966D01*
X200034Y290487D02*X198864Y288147D01*
X197694Y290487D01*
X198864Y285807D02*Y288147D01*
X193950D02*X196290D01*
X190206Y290487D02*X189621Y289902D01*
X190206Y290487D02*X191961D01*
X192546Y289902D02*X191961Y290487D01*
X192546Y288732D02*Y289902D01*
Y288732D02*X191961Y288147D01*
X190206D02*X191961D01*
X190206D02*X189621Y287562D01*
Y286392D02*Y287562D01*
X190206Y285807D02*X189621Y286392D01*
X190206Y285807D02*X191961D01*
X192546Y286392D02*X191961Y285807D01*
X188217D02*Y289317D01*
X187398Y290487D01*
X186111D02*X187398D01*
X186111D02*X185292Y289317D01*
Y285807D02*Y289317D01*
Y288147D02*X188217D01*
X212000Y277892D02*X211415Y277307D01*
X212000Y281402D02*X211415Y281987D01*
X212000Y277892D02*Y281402D01*
X207671Y277307D02*X209192D01*
X210011Y278126D02*X209192Y277307D01*
X210011Y278126D02*Y281168D01*
X209192Y281987D01*
X207671D02*X209192D01*
X206267D02*X205682Y281402D01*
Y277892D02*Y281402D01*
X206267Y277307D02*X205682Y277892D01*
X202172Y281402D02*X201587Y281987D01*
X199832D02*X201587D01*
X199832D02*X199247Y281402D01*
Y280232D02*Y281402D01*
X202172Y277307D02*X199247Y280232D01*
Y277307D02*X202172D01*
X197843Y277892D02*X197258Y277307D01*
X197843Y277892D02*Y281402D01*
X197258Y281987D01*
X196088D02*X197258D01*
X196088D02*X195503Y281402D01*
Y277892D02*Y281402D01*
X196088Y277307D02*X195503Y277892D01*
X196088Y277307D02*X197258D01*
X197843Y278477D02*X195503Y280817D01*
X194099Y281402D02*X193514Y281987D01*
X191759D02*X193514D01*
X191759D02*X191174Y281402D01*
Y280232D02*Y281402D01*
X194099Y277307D02*X191174Y280232D01*
Y277307D02*X194099D01*
X189770Y277892D02*X189185Y277307D01*
X189770Y277892D02*Y281402D01*
X189185Y281987D01*
X188015D02*X189185D01*
X188015D02*X187430Y281402D01*
Y277892D02*Y281402D01*
X188015Y277307D02*X187430Y277892D01*
X188015Y277307D02*X189185D01*
X189770Y278477D02*X187430Y280817D01*
X338660Y351307D02*X340181D01*
X341000Y352126D02*X340181Y351307D01*
X341000Y352126D02*Y355168D01*
X340181Y355987D01*
X338660D02*X340181D01*
X337256Y351307D02*Y355987D01*
Y353647D02*X334916Y355987D01*
X337256Y353647D02*X334916Y351307D01*
X331172Y355987D02*X333512D01*
X332342Y351307D02*Y355987D01*
X327428Y353647D02*X329768D01*
X325439Y351307D02*Y355987D01*
X323918D02*X323099Y355168D01*
Y352126D02*Y355168D01*
X323918Y351307D02*X323099Y352126D01*
X323918Y351307D02*X326024D01*
X323918Y355987D02*X326024D01*
X320525D02*X321695D01*
X321110Y351307D02*Y355987D01*
X320525Y351307D02*X321695D01*
X319121D02*Y355987D01*
X316196Y351307D01*
Y355987D01*
X312452D02*X311867Y355402D01*
X312452Y355987D02*X314207D01*
X314792Y355402D02*X314207Y355987D01*
X314792Y351892D02*Y355402D01*
Y351892D02*X314207Y351307D01*
X312452D02*X314207D01*
X312452D02*X311867Y351892D01*
Y353062D01*
X312452Y353647D02*X311867Y353062D01*
X312452Y353647D02*X313622D01*
X309878Y351307D02*Y355987D01*
X308357D02*X307538Y355168D01*
Y352126D02*Y355168D01*
X308357Y351307D02*X307538Y352126D01*
X308357Y351307D02*X310463D01*
X308357Y355987D02*X310463D01*
X306134Y351892D02*Y355402D01*
X305549Y355987D01*
X304379D02*X305549D01*
X304379D02*X303794Y355402D01*
Y351892D02*Y355402D01*
X304379Y351307D02*X303794Y351892D01*
X304379Y351307D02*X305549D01*
X306134Y351892D02*X305549Y351307D01*
X302390D02*Y355987D01*
X299465Y351307D01*
Y355987D01*
X295721D02*X295136Y355402D01*
X295721Y355987D02*X297476D01*
X298061Y355402D02*X297476Y355987D01*
X298061Y351892D02*Y355402D01*
Y351892D02*X297476Y351307D01*
X295721D02*X297476D01*
X295721D02*X295136Y351892D01*
Y353062D01*
X295721Y353647D02*X295136Y353062D01*
X295721Y353647D02*X296891D01*
X289520D02*X288350Y351307D01*
X287180Y353647D02*X288350Y351307D01*
X285776Y355051D02*X284840Y355987D01*
Y351307D02*Y355987D01*
X284021Y351307D02*X285776D01*
X282032D02*X282617D01*
X280628Y355051D02*X279692Y355987D01*
Y351307D02*Y355987D01*
X278873Y351307D02*X280628D01*
X321617Y285807D02*X323138D01*
X323957Y286626D02*X323138Y285807D01*
X323957Y286626D02*Y289668D01*
X323138Y290487D01*
X321617D02*X323138D01*
X317873Y285807D02*X319394D01*
X320213Y286626D02*X319394Y285807D01*
X320213Y286626D02*Y289668D01*
X319394Y290487D01*
X317873D02*X319394D01*
X312023Y285807D02*X314363D01*
X312023D02*X311438Y286392D01*
Y287796D01*
X312023Y288381D02*X311438Y287796D01*
X312023Y288381D02*X313778D01*
Y285807D02*Y290487D01*
X312023D02*X314363D01*
X312023D02*X311438Y289902D01*
Y288966D02*Y289902D01*
X312023Y288381D02*X311438Y288966D01*
X310034Y290487D02*X308864Y288147D01*
X307694Y290487D01*
X308864Y285807D02*Y288147D01*
X303950D02*X306290D01*
X300206Y290487D02*X299621Y289902D01*
X300206Y290487D02*X301961D01*
X302546Y289902D02*X301961Y290487D01*
X302546Y288732D02*Y289902D01*
Y288732D02*X301961Y288147D01*
X300206D02*X301961D01*
X300206D02*X299621Y287562D01*
Y286392D02*Y287562D01*
X300206Y285807D02*X299621Y286392D01*
X300206Y285807D02*X301961D01*
X302546Y286392D02*X301961Y285807D01*
X298217D02*Y289317D01*
X297398Y290487D01*
X296111D02*X297398D01*
X296111D02*X295292Y289317D01*
Y285807D02*Y289317D01*
Y288147D02*X298217D01*
X322000Y277892D02*X321415Y277307D01*
X322000Y281402D02*X321415Y281987D01*
X322000Y277892D02*Y281402D01*
X317671Y277307D02*X319192D01*
X320011Y278126D02*X319192Y277307D01*
X320011Y278126D02*Y281168D01*
X319192Y281987D01*
X317671D02*X319192D01*
X316267D02*X315682Y281402D01*
Y277892D02*Y281402D01*
X316267Y277307D02*X315682Y277892D01*
X312172Y281402D02*X311587Y281987D01*
X309832D02*X311587D01*
X309832D02*X309247Y281402D01*
Y280232D02*Y281402D01*
X312172Y277307D02*X309247Y280232D01*
Y277307D02*X312172D01*
X307843Y277892D02*X307258Y277307D01*
X307843Y277892D02*Y281402D01*
X307258Y281987D01*
X306088D02*X307258D01*
X306088D02*X305503Y281402D01*
Y277892D02*Y281402D01*
X306088Y277307D02*X305503Y277892D01*
X306088Y277307D02*X307258D01*
X307843Y278477D02*X305503Y280817D01*
X304099Y281402D02*X303514Y281987D01*
X301759D02*X303514D01*
X301759D02*X301174Y281402D01*
Y280232D02*Y281402D01*
X304099Y277307D02*X301174Y280232D01*
Y277307D02*X304099D01*
X299770Y277892D02*X299185Y277307D01*
X299770Y277892D02*Y281402D01*
X299185Y281987D01*
X298015D02*X299185D01*
X298015D02*X297430Y281402D01*
Y277892D02*Y281402D01*
X298015Y277307D02*X297430Y277892D01*
X298015Y277307D02*X299185D01*
X299770Y278477D02*X297430Y280817D01*
X118660Y351307D02*X120181D01*
X121000Y352126D02*X120181Y351307D01*
X121000Y352126D02*Y355168D01*
X120181Y355987D01*
X118660D02*X120181D01*
X117256Y351307D02*Y355987D01*
Y353647D02*X114916Y355987D01*
X117256Y353647D02*X114916Y351307D01*
X111172Y355987D02*X113512D01*
X112342Y351307D02*Y355987D01*
X107428Y353647D02*X109768D01*
X105439Y351307D02*Y355987D01*
X103918D02*X103099Y355168D01*
Y352126D02*Y355168D01*
X103918Y351307D02*X103099Y352126D01*
X103918Y351307D02*X106024D01*
X103918Y355987D02*X106024D01*
X100525D02*X101695D01*
X101110Y351307D02*Y355987D01*
X100525Y351307D02*X101695D01*
X99121D02*Y355987D01*
X96196Y351307D01*
Y355987D01*
X92452D02*X91867Y355402D01*
X92452Y355987D02*X94207D01*
X94792Y355402D02*X94207Y355987D01*
X94792Y351892D02*Y355402D01*
Y351892D02*X94207Y351307D01*
X92452D02*X94207D01*
X92452D02*X91867Y351892D01*
Y353062D01*
X92452Y353647D02*X91867Y353062D01*
X92452Y353647D02*X93622D01*
X89878Y351307D02*Y355987D01*
X88357D02*X87538Y355168D01*
Y352126D02*Y355168D01*
X88357Y351307D02*X87538Y352126D01*
X88357Y351307D02*X90463D01*
X88357Y355987D02*X90463D01*
X86134Y351892D02*Y355402D01*
X85549Y355987D01*
X84379D02*X85549D01*
X84379D02*X83794Y355402D01*
Y351892D02*Y355402D01*
X84379Y351307D02*X83794Y351892D01*
X84379Y351307D02*X85549D01*
X86134Y351892D02*X85549Y351307D01*
X82390D02*Y355987D01*
X79465Y351307D01*
Y355987D01*
X75721D02*X75136Y355402D01*
X75721Y355987D02*X77476D01*
X78061Y355402D02*X77476Y355987D01*
X78061Y351892D02*Y355402D01*
Y351892D02*X77476Y351307D01*
X75721D02*X77476D01*
X75721D02*X75136Y351892D01*
Y353062D01*
X75721Y353647D02*X75136Y353062D01*
X75721Y353647D02*X76891D01*
X69520D02*X68350Y351307D01*
X67180Y353647D02*X68350Y351307D01*
X65776Y355051D02*X64840Y355987D01*
Y351307D02*Y355987D01*
X64021Y351307D02*X65776D01*
X62032D02*X62617D01*
X60628Y355051D02*X59692Y355987D01*
Y351307D02*Y355987D01*
X58873Y351307D02*X60628D01*
X101617Y285807D02*X103138D01*
X103957Y286626D02*X103138Y285807D01*
X103957Y286626D02*Y289668D01*
X103138Y290487D01*
X101617D02*X103138D01*
X97873Y285807D02*X99394D01*
X100213Y286626D02*X99394Y285807D01*
X100213Y286626D02*Y289668D01*
X99394Y290487D01*
X97873D02*X99394D01*
X92023Y285807D02*X94363D01*
X92023D02*X91438Y286392D01*
Y287796D01*
X92023Y288381D02*X91438Y287796D01*
X92023Y288381D02*X93778D01*
Y285807D02*Y290487D01*
X92023D02*X94363D01*
X92023D02*X91438Y289902D01*
Y288966D02*Y289902D01*
X92023Y288381D02*X91438Y288966D01*
X90034Y290487D02*X88864Y288147D01*
X87694Y290487D01*
X88864Y285807D02*Y288147D01*
X83950D02*X86290D01*
X80206Y290487D02*X79621Y289902D01*
X80206Y290487D02*X81961D01*
X82546Y289902D02*X81961Y290487D01*
X82546Y288732D02*Y289902D01*
Y288732D02*X81961Y288147D01*
X80206D02*X81961D01*
X80206D02*X79621Y287562D01*
Y286392D02*Y287562D01*
X80206Y285807D02*X79621Y286392D01*
X80206Y285807D02*X81961D01*
X82546Y286392D02*X81961Y285807D01*
X78217D02*Y289317D01*
X77398Y290487D01*
X76111D02*X77398D01*
X76111D02*X75292Y289317D01*
Y285807D02*Y289317D01*
Y288147D02*X78217D01*
X102000Y277892D02*X101415Y277307D01*
X102000Y281402D02*X101415Y281987D01*
X102000Y277892D02*Y281402D01*
X97671Y277307D02*X99192D01*
X100011Y278126D02*X99192Y277307D01*
X100011Y278126D02*Y281168D01*
X99192Y281987D01*
X97671D02*X99192D01*
X96267D02*X95682Y281402D01*
Y277892D02*Y281402D01*
X96267Y277307D02*X95682Y277892D01*
X92172Y281402D02*X91587Y281987D01*
X89832D02*X91587D01*
X89832D02*X89247Y281402D01*
Y280232D02*Y281402D01*
X92172Y277307D02*X89247Y280232D01*
Y277307D02*X92172D01*
X87843Y277892D02*X87258Y277307D01*
X87843Y277892D02*Y281402D01*
X87258Y281987D01*
X86088D02*X87258D01*
X86088D02*X85503Y281402D01*
Y277892D02*Y281402D01*
X86088Y277307D02*X85503Y277892D01*
X86088Y277307D02*X87258D01*
X87843Y278477D02*X85503Y280817D01*
X84099Y281402D02*X83514Y281987D01*
X81759D02*X83514D01*
X81759D02*X81174Y281402D01*
Y280232D02*Y281402D01*
X84099Y277307D02*X81174Y280232D01*
Y277307D02*X84099D01*
X79770Y277892D02*X79185Y277307D01*
X79770Y277892D02*Y281402D01*
X79185Y281987D01*
X78015D02*X79185D01*
X78015D02*X77430Y281402D01*
Y277892D02*Y281402D01*
X78015Y277307D02*X77430Y277892D01*
X78015Y277307D02*X79185D01*
X79770Y278477D02*X77430Y280817D01*
X118660Y241307D02*X120181D01*
X121000Y242126D02*X120181Y241307D01*
X121000Y242126D02*Y245168D01*
X120181Y245987D01*
X118660D02*X120181D01*
X117256Y241307D02*Y245987D01*
Y243647D02*X114916Y245987D01*
X117256Y243647D02*X114916Y241307D01*
X111172Y245987D02*X113512D01*
X112342Y241307D02*Y245987D01*
X107428Y243647D02*X109768D01*
X105439Y241307D02*Y245987D01*
X103918D02*X103099Y245168D01*
Y242126D02*Y245168D01*
X103918Y241307D02*X103099Y242126D01*
X103918Y241307D02*X106024D01*
X103918Y245987D02*X106024D01*
X100525D02*X101695D01*
X101110Y241307D02*Y245987D01*
X100525Y241307D02*X101695D01*
X99121D02*Y245987D01*
X96196Y241307D01*
Y245987D01*
X92452D02*X91867Y245402D01*
X92452Y245987D02*X94207D01*
X94792Y245402D02*X94207Y245987D01*
X94792Y241892D02*Y245402D01*
Y241892D02*X94207Y241307D01*
X92452D02*X94207D01*
X92452D02*X91867Y241892D01*
Y243062D01*
X92452Y243647D02*X91867Y243062D01*
X92452Y243647D02*X93622D01*
X89878Y241307D02*Y245987D01*
X88357D02*X87538Y245168D01*
Y242126D02*Y245168D01*
X88357Y241307D02*X87538Y242126D01*
X88357Y241307D02*X90463D01*
X88357Y245987D02*X90463D01*
X86134Y241892D02*Y245402D01*
X85549Y245987D01*
X84379D02*X85549D01*
X84379D02*X83794Y245402D01*
Y241892D02*Y245402D01*
X84379Y241307D02*X83794Y241892D01*
X84379Y241307D02*X85549D01*
X86134Y241892D02*X85549Y241307D01*
X82390D02*Y245987D01*
X79465Y241307D01*
Y245987D01*
X75721D02*X75136Y245402D01*
X75721Y245987D02*X77476D01*
X78061Y245402D02*X77476Y245987D01*
X78061Y241892D02*Y245402D01*
Y241892D02*X77476Y241307D01*
X75721D02*X77476D01*
X75721D02*X75136Y241892D01*
Y243062D01*
X75721Y243647D02*X75136Y243062D01*
X75721Y243647D02*X76891D01*
X69520D02*X68350Y241307D01*
X67180Y243647D02*X68350Y241307D01*
X65776Y245051D02*X64840Y245987D01*
Y241307D02*Y245987D01*
X64021Y241307D02*X65776D01*
X62032D02*X62617D01*
X60628Y245051D02*X59692Y245987D01*
Y241307D02*Y245987D01*
X58873Y241307D02*X60628D01*
X228660D02*X230181D01*
X231000Y242126D02*X230181Y241307D01*
X231000Y242126D02*Y245168D01*
X230181Y245987D01*
X228660D02*X230181D01*
X227256Y241307D02*Y245987D01*
Y243647D02*X224916Y245987D01*
X227256Y243647D02*X224916Y241307D01*
X221172Y245987D02*X223512D01*
X222342Y241307D02*Y245987D01*
X217428Y243647D02*X219768D01*
X215439Y241307D02*Y245987D01*
X213918D02*X213099Y245168D01*
Y242126D02*Y245168D01*
X213918Y241307D02*X213099Y242126D01*
X213918Y241307D02*X216024D01*
X213918Y245987D02*X216024D01*
X210525D02*X211695D01*
X211110Y241307D02*Y245987D01*
X210525Y241307D02*X211695D01*
X209121D02*Y245987D01*
X206196Y241307D01*
Y245987D01*
X202452D02*X201867Y245402D01*
X202452Y245987D02*X204207D01*
X204792Y245402D02*X204207Y245987D01*
X204792Y241892D02*Y245402D01*
Y241892D02*X204207Y241307D01*
X202452D02*X204207D01*
X202452D02*X201867Y241892D01*
Y243062D01*
X202452Y243647D02*X201867Y243062D01*
X202452Y243647D02*X203622D01*
X199878Y241307D02*Y245987D01*
X198357D02*X197538Y245168D01*
Y242126D02*Y245168D01*
X198357Y241307D02*X197538Y242126D01*
X198357Y241307D02*X200463D01*
X198357Y245987D02*X200463D01*
X196134Y241892D02*Y245402D01*
X195549Y245987D01*
X194379D02*X195549D01*
X194379D02*X193794Y245402D01*
Y241892D02*Y245402D01*
X194379Y241307D02*X193794Y241892D01*
X194379Y241307D02*X195549D01*
X196134Y241892D02*X195549Y241307D01*
X192390D02*Y245987D01*
X189465Y241307D01*
Y245987D01*
X185721D02*X185136Y245402D01*
X185721Y245987D02*X187476D01*
X188061Y245402D02*X187476Y245987D01*
X188061Y241892D02*Y245402D01*
Y241892D02*X187476Y241307D01*
X185721D02*X187476D01*
X185721D02*X185136Y241892D01*
Y243062D01*
X185721Y243647D02*X185136Y243062D01*
X185721Y243647D02*X186891D01*
X179520D02*X178350Y241307D01*
X177180Y243647D02*X178350Y241307D01*
X175776Y245051D02*X174840Y245987D01*
Y241307D02*Y245987D01*
X174021Y241307D02*X175776D01*
X172032D02*X172617D01*
X170628Y245051D02*X169692Y245987D01*
Y241307D02*Y245987D01*
X168873Y241307D02*X170628D01*
X338660D02*X340181D01*
X341000Y242126D02*X340181Y241307D01*
X341000Y242126D02*Y245168D01*
X340181Y245987D01*
X338660D02*X340181D01*
X337256Y241307D02*Y245987D01*
Y243647D02*X334916Y245987D01*
X337256Y243647D02*X334916Y241307D01*
X331172Y245987D02*X333512D01*
X332342Y241307D02*Y245987D01*
X327428Y243647D02*X329768D01*
X325439Y241307D02*Y245987D01*
X323918D02*X323099Y245168D01*
Y242126D02*Y245168D01*
X323918Y241307D02*X323099Y242126D01*
X323918Y241307D02*X326024D01*
X323918Y245987D02*X326024D01*
X320525D02*X321695D01*
X321110Y241307D02*Y245987D01*
X320525Y241307D02*X321695D01*
X319121D02*Y245987D01*
X316196Y241307D01*
Y245987D01*
X312452D02*X311867Y245402D01*
X312452Y245987D02*X314207D01*
X314792Y245402D02*X314207Y245987D01*
X314792Y241892D02*Y245402D01*
Y241892D02*X314207Y241307D01*
X312452D02*X314207D01*
X312452D02*X311867Y241892D01*
Y243062D01*
X312452Y243647D02*X311867Y243062D01*
X312452Y243647D02*X313622D01*
X309878Y241307D02*Y245987D01*
X308357D02*X307538Y245168D01*
Y242126D02*Y245168D01*
X308357Y241307D02*X307538Y242126D01*
X308357Y241307D02*X310463D01*
X308357Y245987D02*X310463D01*
X306134Y241892D02*Y245402D01*
X305549Y245987D01*
X304379D02*X305549D01*
X304379D02*X303794Y245402D01*
Y241892D02*Y245402D01*
X304379Y241307D02*X303794Y241892D01*
X304379Y241307D02*X305549D01*
X306134Y241892D02*X305549Y241307D01*
X302390D02*Y245987D01*
X299465Y241307D01*
Y245987D01*
X295721D02*X295136Y245402D01*
X295721Y245987D02*X297476D01*
X298061Y245402D02*X297476Y245987D01*
X298061Y241892D02*Y245402D01*
Y241892D02*X297476Y241307D01*
X295721D02*X297476D01*
X295721D02*X295136Y241892D01*
Y243062D01*
X295721Y243647D02*X295136Y243062D01*
X295721Y243647D02*X296891D01*
X289520D02*X288350Y241307D01*
X287180Y243647D02*X288350Y241307D01*
X285776Y245051D02*X284840Y245987D01*
Y241307D02*Y245987D01*
X284021Y241307D02*X285776D01*
X282032D02*X282617D01*
X280628Y245051D02*X279692Y245987D01*
Y241307D02*Y245987D01*
X278873Y241307D02*X280628D01*
G54D41*X176378Y345591D02*X223622D01*
X164567Y333780D02*Y294409D01*
X235433D01*
Y333780D02*Y294409D01*
X286378Y345591D02*X333622D01*
X274567Y333780D02*Y294409D01*
X345433D01*
Y333780D02*Y294409D01*
X66378Y345591D02*X113622D01*
X54567Y333780D02*Y294409D01*
X125433D01*
Y333780D02*Y294409D01*
X66378Y235591D02*X113622D01*
X54567Y223780D02*Y184409D01*
X125433D01*
Y223780D02*Y184409D01*
X66378Y125591D02*X113622D01*
X54567Y113780D02*Y74409D01*
X125433D01*
Y113780D02*Y74409D01*
X176378Y235591D02*X223622D01*
X164567Y223780D02*Y184409D01*
X235433D01*
Y223780D02*Y184409D01*
X286378Y235591D02*X333622D01*
X274567Y223780D02*Y184409D01*
X345433D01*
Y223780D02*Y184409D01*
X286378Y125591D02*X333622D01*
X274567Y113780D02*Y74409D01*
X345433D01*
Y113780D02*Y74409D01*
X176378Y125591D02*X223622D01*
X164567Y113780D02*Y74409D01*
X235433D01*
Y113780D02*Y74409D01*
G54D40*X93000Y330000D02*X92500Y329500D01*
X93000Y330000D02*X94500D01*
X95000Y329500D02*X94500Y330000D01*
X95000Y328500D02*Y329500D01*
Y328500D02*X94500Y328000D01*
X93000D02*X94500D01*
X93000D02*X92500Y327500D01*
Y326500D02*Y327500D01*
X93000Y326000D02*X92500Y326500D01*
X93000Y326000D02*X94500D01*
X95000Y326500D02*X94500Y326000D01*
X90800D02*Y330000D01*
X89300D02*X91300D01*
X89300D02*X88800Y329500D01*
Y328500D02*Y329500D01*
X89300Y328000D02*X88800Y328500D01*
X89300Y328000D02*X90800D01*
X87600Y326000D02*Y330000D01*
Y328000D02*X85600Y330000D01*
X87600Y328000D02*X85600Y326000D01*
X93000Y220000D02*X92500Y219500D01*
X93000Y220000D02*X94500D01*
X95000Y219500D02*X94500Y220000D01*
X95000Y218500D02*Y219500D01*
Y218500D02*X94500Y218000D01*
X93000D02*X94500D01*
X93000D02*X92500Y217500D01*
Y216500D02*Y217500D01*
X93000Y216000D02*X92500Y216500D01*
X93000Y216000D02*X94500D01*
X95000Y216500D02*X94500Y216000D01*
X90800D02*Y220000D01*
X89300D02*X91300D01*
X89300D02*X88800Y219500D01*
Y218500D02*Y219500D01*
X89300Y218000D02*X88800Y218500D01*
X89300Y218000D02*X90800D01*
X87600Y216000D02*Y220000D01*
Y218000D02*X85600Y220000D01*
X87600Y218000D02*X85600Y216000D01*
X93000Y110000D02*X92500Y109500D01*
X93000Y110000D02*X94500D01*
X95000Y109500D02*X94500Y110000D01*
X95000Y108500D02*Y109500D01*
Y108500D02*X94500Y108000D01*
X93000D02*X94500D01*
X93000D02*X92500Y107500D01*
Y106500D02*Y107500D01*
X93000Y106000D02*X92500Y106500D01*
X93000Y106000D02*X94500D01*
X95000Y106500D02*X94500Y106000D01*
X90800D02*Y110000D01*
X89300D02*X91300D01*
X89300D02*X88800Y109500D01*
Y108500D02*Y109500D01*
X89300Y108000D02*X88800Y108500D01*
X89300Y108000D02*X90800D01*
X87600Y106000D02*Y110000D01*
Y108000D02*X85600Y110000D01*
X87600Y108000D02*X85600Y106000D01*
X203000Y330000D02*X202500Y329500D01*
X203000Y330000D02*X204500D01*
X205000Y329500D02*X204500Y330000D01*
X205000Y328500D02*Y329500D01*
Y328500D02*X204500Y328000D01*
X203000D02*X204500D01*
X203000D02*X202500Y327500D01*
Y326500D02*Y327500D01*
X203000Y326000D02*X202500Y326500D01*
X203000Y326000D02*X204500D01*
X205000Y326500D02*X204500Y326000D01*
X200800D02*Y330000D01*
X199300D02*X201300D01*
X199300D02*X198800Y329500D01*
Y328500D02*Y329500D01*
X199300Y328000D02*X198800Y328500D01*
X199300Y328000D02*X200800D01*
X197600Y326000D02*Y330000D01*
Y328000D02*X195600Y330000D01*
X197600Y328000D02*X195600Y326000D01*
X313000Y330000D02*X312500Y329500D01*
X313000Y330000D02*X314500D01*
X315000Y329500D02*X314500Y330000D01*
X315000Y328500D02*Y329500D01*
Y328500D02*X314500Y328000D01*
X313000D02*X314500D01*
X313000D02*X312500Y327500D01*
Y326500D02*Y327500D01*
X313000Y326000D02*X312500Y326500D01*
X313000Y326000D02*X314500D01*
X315000Y326500D02*X314500Y326000D01*
X310800D02*Y330000D01*
X309300D02*X311300D01*
X309300D02*X308800Y329500D01*
Y328500D02*Y329500D01*
X309300Y328000D02*X308800Y328500D01*
X309300Y328000D02*X310800D01*
X307600Y326000D02*Y330000D01*
Y328000D02*X305600Y330000D01*
X307600Y328000D02*X305600Y326000D01*
X203000Y220000D02*X202500Y219500D01*
X203000Y220000D02*X204500D01*
X205000Y219500D02*X204500Y220000D01*
X205000Y218500D02*Y219500D01*
Y218500D02*X204500Y218000D01*
X203000D02*X204500D01*
X203000D02*X202500Y217500D01*
Y216500D02*Y217500D01*
X203000Y216000D02*X202500Y216500D01*
X203000Y216000D02*X204500D01*
X205000Y216500D02*X204500Y216000D01*
X200800D02*Y220000D01*
X199300D02*X201300D01*
X199300D02*X198800Y219500D01*
Y218500D02*Y219500D01*
X199300Y218000D02*X198800Y218500D01*
X199300Y218000D02*X200800D01*
X197600Y216000D02*Y220000D01*
Y218000D02*X195600Y220000D01*
X197600Y218000D02*X195600Y216000D01*
X313000Y220000D02*X312500Y219500D01*
X313000Y220000D02*X314500D01*
X315000Y219500D02*X314500Y220000D01*
X315000Y218500D02*Y219500D01*
Y218500D02*X314500Y218000D01*
X313000D02*X314500D01*
X313000D02*X312500Y217500D01*
Y216500D02*Y217500D01*
X313000Y216000D02*X312500Y216500D01*
X313000Y216000D02*X314500D01*
X315000Y216500D02*X314500Y216000D01*
X310800D02*Y220000D01*
X309300D02*X311300D01*
X309300D02*X308800Y219500D01*
Y218500D02*Y219500D01*
X309300Y218000D02*X308800Y218500D01*
X309300Y218000D02*X310800D01*
X307600Y216000D02*Y220000D01*
Y218000D02*X305600Y220000D01*
X307600Y218000D02*X305600Y216000D01*
X313000Y110000D02*X312500Y109500D01*
X313000Y110000D02*X314500D01*
X315000Y109500D02*X314500Y110000D01*
X315000Y108500D02*Y109500D01*
Y108500D02*X314500Y108000D01*
X313000D02*X314500D01*
X313000D02*X312500Y107500D01*
Y106500D02*Y107500D01*
X313000Y106000D02*X312500Y106500D01*
X313000Y106000D02*X314500D01*
X315000Y106500D02*X314500Y106000D01*
X310800D02*Y110000D01*
X309300D02*X311300D01*
X309300D02*X308800Y109500D01*
Y108500D02*Y109500D01*
X309300Y108000D02*X308800Y108500D01*
X309300Y108000D02*X310800D01*
X307600Y106000D02*Y110000D01*
Y108000D02*X305600Y110000D01*
X307600Y108000D02*X305600Y106000D01*
X203000Y110000D02*X202500Y109500D01*
X203000Y110000D02*X204500D01*
X205000Y109500D02*X204500Y110000D01*
X205000Y108500D02*Y109500D01*
Y108500D02*X204500Y108000D01*
X203000D02*X204500D01*
X203000D02*X202500Y107500D01*
Y106500D02*Y107500D01*
X203000Y106000D02*X202500Y106500D01*
X203000Y106000D02*X204500D01*
X205000Y106500D02*X204500Y106000D01*
X200800D02*Y110000D01*
X199300D02*X201300D01*
X199300D02*X198800Y109500D01*
Y108500D02*Y109500D01*
X199300Y108000D02*X198800Y108500D01*
X199300Y108000D02*X200800D01*
X197600Y106000D02*Y110000D01*
Y108000D02*X195600Y110000D01*
X197600Y108000D02*X195600Y106000D01*
M02*
