M48
INCH
T31C0.031
T30C0.039
%
T31
X003100Y031500
X003100Y031000
X003100Y030500
X003100Y020500
X003100Y020000
X003100Y019500
X003100Y009500
X003100Y009000
X003100Y008500
X003900Y031500
X003900Y031000
X003900Y030500
X003900Y020500
X003900Y020000
X003900Y019500
X003900Y009500
X003900Y009000
X003900Y008500
X008500Y036900
X008500Y036100
X008500Y025900
X008500Y025100
X008500Y014900
X008500Y014100
X008500Y003900
X008500Y003100
X009000Y036900
X009000Y036100
X009000Y025900
X009000Y025100
X009000Y014900
X009000Y014100
X009000Y003900
X009000Y003100
X009500Y036900
X009500Y036100
X009500Y025900
X009500Y025100
X009500Y014900
X009500Y014100
X009500Y003900
X009500Y003100
X014100Y031500
X014100Y031000
X014100Y030500
X014100Y020500
X014100Y020000
X014100Y019500
X014100Y009500
X014100Y009000
X014100Y008500
X014900Y031500
X014900Y031000
X014900Y030500
X014900Y020500
X014900Y020000
X014900Y019500
X014900Y009500
X014900Y009000
X014900Y008500
X019500Y036900
X019500Y036100
X019500Y025900
X019500Y025100
X019500Y014900
X019500Y014100
X019500Y003900
X019500Y003100
X020000Y036900
X020000Y036100
X020000Y025900
X020000Y025100
X020000Y014900
X020000Y014100
X020000Y003900
X020000Y003100
X020500Y036900
X020500Y036100
X020500Y025900
X020500Y025100
X020500Y014900
X020500Y014100
X020500Y003900
X020500Y003100
X025100Y031500
X025100Y031000
X025100Y030500
X025100Y020500
X025100Y020000
X025100Y019500
X025100Y009500
X025100Y009000
X025100Y008500
X025900Y031500
X025900Y031000
X025900Y030500
X025900Y020500
X025900Y020000
X025900Y019500
X025900Y009500
X025900Y009000
X025900Y008500
X030500Y036900
X030500Y036100
X030500Y025900
X030500Y025100
X030500Y014900
X030500Y014100
X030500Y003900
X030500Y003100
X031000Y036900
X031000Y036100
X031000Y025900
X031000Y025100
X031000Y014900
X031000Y014100
X031000Y003900
X031000Y003100
X031500Y036900
X031500Y036100
X031500Y025900
X031500Y025100
X031500Y014900
X031500Y014100
X031500Y003900
X031500Y003100
X036100Y031500
X036100Y031000
X036100Y030500
X036100Y020500
X036100Y020000
X036100Y019500
X036100Y009500
X036100Y009000
X036100Y008500
X036900Y031500
X036900Y031000
X036900Y030500
X036900Y020500
X036900Y020000
X036900Y019500
X036900Y009500
X036900Y009000
X036900Y008500
T30
X012700Y026450
X012700Y015450
X012700Y004450
X013100Y028450
X013100Y017450
X013100Y006450
X013500Y026450
X013500Y015450
X013500Y004450
X023700Y026450
X023700Y015450
X023700Y004450
X024100Y028450
X024100Y017450
X024100Y006450
X024500Y026450
X024500Y015450
X024500Y004450
X034700Y026450
X034700Y015450
X034700Y004450
X035100Y028450
X035100Y017450
X035100Y006450
X035500Y026450
X035500Y015450
X035500Y004450
M30
