M48
INCH
T29C0.012
%
T29
X004400Y034550
X004400Y034200
X004400Y033850
X004400Y023550
X004400Y023200
X004400Y022850
X004400Y012550
X004400Y012200
X004400Y011850
X004750Y034550
X004750Y034200
X004750Y033850
X004750Y026800
X004750Y023550
X004750Y023200
X004750Y022850
X004750Y015800
X004750Y012550
X004750Y012200
X004750Y011850
X004750Y004800
X004950Y026600
X004950Y015600
X004950Y004600
X005150Y026800
X005150Y015800
X005150Y004800
X005600Y029900
X005600Y029550
X005600Y029200
X005600Y028850
X005600Y018900
X005600Y018550
X005600Y018200
X005600Y017850
X005600Y007900
X005600Y007550
X005600Y007200
X005600Y006850
X005800Y033400
X005800Y022400
X005800Y011400
X005950Y029900
X005950Y018900
X005950Y007900
X006100Y033400
X006100Y022400
X006100Y011400
X006300Y029900
X006300Y018900
X006300Y007900
X007000Y032400
X007000Y032000
X007000Y031600
X007000Y021400
X007000Y021000
X007000Y020600
X007000Y010400
X007000Y010000
X007000Y009600
X008200Y033750
X008200Y033150
X008200Y022750
X008200Y022150
X008200Y011750
X008200Y011150
X009750Y027200
X009750Y016200
X009750Y005200
X010150Y029100
X010150Y028800
X010150Y018100
X010150Y017800
X010150Y007100
X010150Y006800
X010650Y032950
X010650Y028150
X010650Y021950
X010650Y017150
X010650Y010950
X010650Y006150
X011900Y034750
X011900Y023750
X011900Y012750
X012200Y034750
X012200Y026550
X012200Y023750
X012200Y015550
X012200Y012750
X012200Y004550
X012300Y028150
X012300Y017150
X012300Y006150
X013150Y027750
X013150Y027250
X013150Y016750
X013150Y016250
X013150Y005750
X013150Y005250
X013550Y028700
X013550Y017700
X013550Y006700
X015400Y034550
X015400Y034200
X015400Y033850
X015400Y023550
X015400Y023200
X015400Y022850
X015400Y012550
X015400Y012200
X015400Y011850
X015750Y034550
X015750Y034200
X015750Y033850
X015750Y026800
X015750Y023550
X015750Y023200
X015750Y022850
X015750Y015800
X015750Y012550
X015750Y012200
X015750Y011850
X015750Y004800
X015950Y026600
X015950Y015600
X015950Y004600
X016150Y026800
X016150Y015800
X016150Y004800
X016600Y029900
X016600Y029550
X016600Y029200
X016600Y028850
X016600Y018900
X016600Y018550
X016600Y018200
X016600Y017850
X016600Y007900
X016600Y007550
X016600Y007200
X016600Y006850
X016800Y033400
X016800Y022400
X016800Y011400
X016950Y029900
X016950Y018900
X016950Y007900
X017100Y033400
X017100Y022400
X017100Y011400
X017300Y029900
X017300Y018900
X017300Y007900
X018000Y032400
X018000Y032000
X018000Y031600
X018000Y021400
X018000Y021000
X018000Y020600
X018000Y010400
X018000Y010000
X018000Y009600
X019200Y033750
X019200Y033150
X019200Y022750
X019200Y022150
X019200Y011750
X019200Y011150
X020750Y027200
X020750Y016200
X020750Y005200
X021150Y029100
X021150Y028800
X021150Y018100
X021150Y017800
X021150Y007100
X021150Y006800
X021650Y032950
X021650Y028150
X021650Y021950
X021650Y017150
X021650Y010950
X021650Y006150
X022900Y034750
X022900Y023750
X022900Y012750
X023200Y034750
X023200Y026550
X023200Y023750
X023200Y015550
X023200Y012750
X023200Y004550
X023300Y028150
X023300Y017150
X023300Y006150
X024150Y027750
X024150Y027250
X024150Y016750
X024150Y016250
X024150Y005750
X024150Y005250
X024550Y028700
X024550Y017700
X024550Y006700
X026400Y034550
X026400Y034200
X026400Y033850
X026400Y023550
X026400Y023200
X026400Y022850
X026400Y012550
X026400Y012200
X026400Y011850
X026750Y034550
X026750Y034200
X026750Y033850
X026750Y026800
X026750Y023550
X026750Y023200
X026750Y022850
X026750Y015800
X026750Y012550
X026750Y012200
X026750Y011850
X026750Y004800
X026950Y026600
X026950Y015600
X026950Y004600
X027150Y026800
X027150Y015800
X027150Y004800
X027600Y029900
X027600Y029550
X027600Y029200
X027600Y028850
X027600Y018900
X027600Y018550
X027600Y018200
X027600Y017850
X027600Y007900
X027600Y007550
X027600Y007200
X027600Y006850
X027800Y033400
X027800Y022400
X027800Y011400
X027950Y029900
X027950Y018900
X027950Y007900
X028100Y033400
X028100Y022400
X028100Y011400
X028300Y029900
X028300Y018900
X028300Y007900
X029000Y032400
X029000Y032000
X029000Y031600
X029000Y021400
X029000Y021000
X029000Y020600
X029000Y010400
X029000Y010000
X029000Y009600
X030200Y033750
X030200Y033150
X030200Y022750
X030200Y022150
X030200Y011750
X030200Y011150
X031750Y027200
X031750Y016200
X031750Y005200
X032150Y029100
X032150Y028800
X032150Y018100
X032150Y017800
X032150Y007100
X032150Y006800
X032650Y032950
X032650Y028150
X032650Y021950
X032650Y017150
X032650Y010950
X032650Y006150
X033900Y034750
X033900Y023750
X033900Y012750
X034200Y034750
X034200Y026550
X034200Y023750
X034200Y015550
X034200Y012750
X034200Y004550
X034300Y028150
X034300Y017150
X034300Y006150
X035150Y027750
X035150Y027250
X035150Y016750
X035150Y016250
X035150Y005750
X035150Y005250
X035550Y028700
X035550Y017700
X035550Y006700
M30
