M48
INCH,TZ
T1C0.0157
T2C0.0394
%
G90
G05
T1
X35375Y-41225
X36050Y-41300
X36325Y-41025
X36600Y-40750
X37025Y-42875
X39600Y-34150
X40000Y-34150
T2
X23994Y-44502
X23994Y-45502
X24994Y-44502
X24994Y-45502
X25994Y-44502
X25994Y-45502
X35002Y-44502
X35002Y-45502
X36002Y-44502
X36002Y-45502
X37002Y-44502
X37002Y-45502
X38002Y-44502
X38002Y-45502
X39002Y-44502
X39002Y-45502
X45000Y-35000
X45000Y-36000
X45000Y-37000
X45000Y-38000
X45000Y-39000
X45000Y-40000
X45000Y-41000
X45000Y-42000
X45000Y-43000
X45000Y-44000
X45000Y-45000
X53000Y-35000
X53000Y-36000
X53000Y-37000
X53000Y-38000
X53000Y-39000
X53000Y-40000
X53000Y-41000
X53000Y-42000
X53000Y-43000
X53000Y-44000
X53000Y-45000
T0
M30
