M48
INCH,TZ
T1C0.0120
%
G90
G05
T1
X10856Y-9656
X11006Y-12906
X11806Y-13456
X11806Y-14456
X12306Y-12906
X16956Y-9656
X21856Y-9656
X22006Y-12906
X22806Y-13456
X22806Y-14456
X23306Y-12906
X27956Y-9656
X32856Y-9656
X33006Y-12906
X33806Y-13456
X33806Y-14456
X34306Y-12906
X38956Y-9656
X43856Y-9656
X44006Y-12906
X44806Y-13456
X44806Y-14456
X45306Y-12906
X49956Y-9656
X54856Y-9656
X55006Y-12906
X55806Y-13456
X55806Y-14456
X56306Y-12906
X60956Y-9656
T0
M30
