G04 #@! TF.GenerationSoftware,KiCad,Pcbnew,6.0.2+dfsg-1*
G04 #@! TF.CreationDate,2023-06-21T21:29:58-06:00*
G04 #@! TF.ProjectId,ckt-dingdong-spk-array,636b742d-6469-46e6-9764-6f6e672d7370,rev?*
G04 #@! TF.SameCoordinates,Original*
G04 #@! TF.FileFunction,Legend,Top*
G04 #@! TF.FilePolarity,Positive*
%FSLAX46Y46*%
G04 Gerber Fmt 4.6, Leading zero omitted, Abs format (unit mm)*
G04 Created by KiCad (PCBNEW 6.0.2+dfsg-1) date 2023-06-21 21:29:58*
%MOMM*%
%LPD*%
G01*
G04 APERTURE LIST*
%ADD10C,0.152400*%
%ADD11C,0.150000*%
%ADD12C,0.120000*%
G04 APERTURE END LIST*
D10*
X56051238Y-41738217D02*
X56002857Y-41786598D01*
X55857714Y-41834979D01*
X55760952Y-41834979D01*
X55615809Y-41786598D01*
X55519047Y-41689836D01*
X55470666Y-41593074D01*
X55422285Y-41399550D01*
X55422285Y-41254407D01*
X55470666Y-41060883D01*
X55519047Y-40964121D01*
X55615809Y-40867360D01*
X55760952Y-40818979D01*
X55857714Y-40818979D01*
X56002857Y-40867360D01*
X56051238Y-40915740D01*
X56486666Y-41834979D02*
X56486666Y-40818979D01*
X57067238Y-41834979D02*
X56631809Y-41254407D01*
X57067238Y-40818979D02*
X56486666Y-41399550D01*
X57357523Y-40818979D02*
X57938095Y-40818979D01*
X57647809Y-41834979D02*
X57647809Y-40818979D01*
X58276761Y-41447931D02*
X59050857Y-41447931D01*
X59534666Y-41834979D02*
X59534666Y-40818979D01*
X59776571Y-40818979D01*
X59921714Y-40867360D01*
X60018476Y-40964121D01*
X60066857Y-41060883D01*
X60115238Y-41254407D01*
X60115238Y-41399550D01*
X60066857Y-41593074D01*
X60018476Y-41689836D01*
X59921714Y-41786598D01*
X59776571Y-41834979D01*
X59534666Y-41834979D01*
X60550666Y-41834979D02*
X60550666Y-40818979D01*
X61034476Y-41834979D02*
X61034476Y-40818979D01*
X61615047Y-41834979D01*
X61615047Y-40818979D01*
X62631047Y-40867360D02*
X62534285Y-40818979D01*
X62389142Y-40818979D01*
X62244000Y-40867360D01*
X62147238Y-40964121D01*
X62098857Y-41060883D01*
X62050476Y-41254407D01*
X62050476Y-41399550D01*
X62098857Y-41593074D01*
X62147238Y-41689836D01*
X62244000Y-41786598D01*
X62389142Y-41834979D01*
X62485904Y-41834979D01*
X62631047Y-41786598D01*
X62679428Y-41738217D01*
X62679428Y-41399550D01*
X62485904Y-41399550D01*
X63114857Y-41834979D02*
X63114857Y-40818979D01*
X63356761Y-40818979D01*
X63501904Y-40867360D01*
X63598666Y-40964121D01*
X63647047Y-41060883D01*
X63695428Y-41254407D01*
X63695428Y-41399550D01*
X63647047Y-41593074D01*
X63598666Y-41689836D01*
X63501904Y-41786598D01*
X63356761Y-41834979D01*
X63114857Y-41834979D01*
X64324380Y-40818979D02*
X64517904Y-40818979D01*
X64614666Y-40867360D01*
X64711428Y-40964121D01*
X64759809Y-41157645D01*
X64759809Y-41496312D01*
X64711428Y-41689836D01*
X64614666Y-41786598D01*
X64517904Y-41834979D01*
X64324380Y-41834979D01*
X64227619Y-41786598D01*
X64130857Y-41689836D01*
X64082476Y-41496312D01*
X64082476Y-41157645D01*
X64130857Y-40964121D01*
X64227619Y-40867360D01*
X64324380Y-40818979D01*
X65195238Y-41834979D02*
X65195238Y-40818979D01*
X65775809Y-41834979D01*
X65775809Y-40818979D01*
X66791809Y-40867360D02*
X66695047Y-40818979D01*
X66549904Y-40818979D01*
X66404761Y-40867360D01*
X66308000Y-40964121D01*
X66259619Y-41060883D01*
X66211238Y-41254407D01*
X66211238Y-41399550D01*
X66259619Y-41593074D01*
X66308000Y-41689836D01*
X66404761Y-41786598D01*
X66549904Y-41834979D01*
X66646666Y-41834979D01*
X66791809Y-41786598D01*
X66840190Y-41738217D01*
X66840190Y-41399550D01*
X66646666Y-41399550D01*
X67275619Y-41447931D02*
X68049714Y-41447931D01*
X68485142Y-41786598D02*
X68630285Y-41834979D01*
X68872190Y-41834979D01*
X68968952Y-41786598D01*
X69017333Y-41738217D01*
X69065714Y-41641455D01*
X69065714Y-41544693D01*
X69017333Y-41447931D01*
X68968952Y-41399550D01*
X68872190Y-41351169D01*
X68678666Y-41302788D01*
X68581904Y-41254407D01*
X68533523Y-41206026D01*
X68485142Y-41109264D01*
X68485142Y-41012502D01*
X68533523Y-40915740D01*
X68581904Y-40867360D01*
X68678666Y-40818979D01*
X68920571Y-40818979D01*
X69065714Y-40867360D01*
X69501142Y-41834979D02*
X69501142Y-40818979D01*
X69888190Y-40818979D01*
X69984952Y-40867360D01*
X70033333Y-40915740D01*
X70081714Y-41012502D01*
X70081714Y-41157645D01*
X70033333Y-41254407D01*
X69984952Y-41302788D01*
X69888190Y-41351169D01*
X69501142Y-41351169D01*
X70517142Y-41834979D02*
X70517142Y-40818979D01*
X71097714Y-41834979D02*
X70662285Y-41254407D01*
X71097714Y-40818979D02*
X70517142Y-41399550D01*
X61808571Y-42793405D02*
X62050476Y-43470739D01*
X62292380Y-42793405D01*
X62631047Y-42551500D02*
X62679428Y-42503120D01*
X62776190Y-42454739D01*
X63018095Y-42454739D01*
X63114857Y-42503120D01*
X63163238Y-42551500D01*
X63211619Y-42648262D01*
X63211619Y-42745024D01*
X63163238Y-42890167D01*
X62582666Y-43470739D01*
X63211619Y-43470739D01*
X63647047Y-43373977D02*
X63695428Y-43422358D01*
X63647047Y-43470739D01*
X63598666Y-43422358D01*
X63647047Y-43373977D01*
X63647047Y-43470739D01*
X64324380Y-42454739D02*
X64421142Y-42454739D01*
X64517904Y-42503120D01*
X64566285Y-42551500D01*
X64614666Y-42648262D01*
X64663047Y-42841786D01*
X64663047Y-43083691D01*
X64614666Y-43277215D01*
X64566285Y-43373977D01*
X64517904Y-43422358D01*
X64421142Y-43470739D01*
X64324380Y-43470739D01*
X64227619Y-43422358D01*
X64179238Y-43373977D01*
X64130857Y-43277215D01*
X64082476Y-43083691D01*
X64082476Y-42841786D01*
X64130857Y-42648262D01*
X64179238Y-42551500D01*
X64227619Y-42503120D01*
X64324380Y-42454739D01*
X54067619Y-45106499D02*
X54067619Y-44090499D01*
X54696571Y-45106499D02*
X54599809Y-45058118D01*
X54551428Y-45009737D01*
X54503047Y-44912975D01*
X54503047Y-44622689D01*
X54551428Y-44525927D01*
X54599809Y-44477546D01*
X54696571Y-44429165D01*
X54841714Y-44429165D01*
X54938476Y-44477546D01*
X54986857Y-44525927D01*
X55035238Y-44622689D01*
X55035238Y-44912975D01*
X54986857Y-45009737D01*
X54938476Y-45058118D01*
X54841714Y-45106499D01*
X54696571Y-45106499D01*
X55373904Y-44429165D02*
X55567428Y-45106499D01*
X55760952Y-44622689D01*
X55954476Y-45106499D01*
X56148000Y-44429165D01*
X56970476Y-45106499D02*
X56970476Y-44574308D01*
X56922095Y-44477546D01*
X56825333Y-44429165D01*
X56631809Y-44429165D01*
X56535047Y-44477546D01*
X56970476Y-45058118D02*
X56873714Y-45106499D01*
X56631809Y-45106499D01*
X56535047Y-45058118D01*
X56486666Y-44961356D01*
X56486666Y-44864594D01*
X56535047Y-44767832D01*
X56631809Y-44719451D01*
X56873714Y-44719451D01*
X56970476Y-44671070D01*
X58180000Y-45058118D02*
X58325142Y-45106499D01*
X58567047Y-45106499D01*
X58663809Y-45058118D01*
X58712190Y-45009737D01*
X58760571Y-44912975D01*
X58760571Y-44816213D01*
X58712190Y-44719451D01*
X58663809Y-44671070D01*
X58567047Y-44622689D01*
X58373523Y-44574308D01*
X58276761Y-44525927D01*
X58228380Y-44477546D01*
X58180000Y-44380784D01*
X58180000Y-44284022D01*
X58228380Y-44187260D01*
X58276761Y-44138880D01*
X58373523Y-44090499D01*
X58615428Y-44090499D01*
X58760571Y-44138880D01*
X59631428Y-45058118D02*
X59534666Y-45106499D01*
X59341142Y-45106499D01*
X59244380Y-45058118D01*
X59196000Y-45009737D01*
X59147619Y-44912975D01*
X59147619Y-44622689D01*
X59196000Y-44525927D01*
X59244380Y-44477546D01*
X59341142Y-44429165D01*
X59534666Y-44429165D01*
X59631428Y-44477546D01*
X60502285Y-45106499D02*
X60502285Y-44574308D01*
X60453904Y-44477546D01*
X60357142Y-44429165D01*
X60163619Y-44429165D01*
X60066857Y-44477546D01*
X60502285Y-45058118D02*
X60405523Y-45106499D01*
X60163619Y-45106499D01*
X60066857Y-45058118D01*
X60018476Y-44961356D01*
X60018476Y-44864594D01*
X60066857Y-44767832D01*
X60163619Y-44719451D01*
X60405523Y-44719451D01*
X60502285Y-44671070D01*
X61131238Y-45106499D02*
X61034476Y-45058118D01*
X60986095Y-44961356D01*
X60986095Y-44090499D01*
X61905333Y-45058118D02*
X61808571Y-45106499D01*
X61615047Y-45106499D01*
X61518285Y-45058118D01*
X61469904Y-44961356D01*
X61469904Y-44574308D01*
X61518285Y-44477546D01*
X61615047Y-44429165D01*
X61808571Y-44429165D01*
X61905333Y-44477546D01*
X61953714Y-44574308D01*
X61953714Y-44671070D01*
X61469904Y-44767832D01*
X62824571Y-45106499D02*
X62824571Y-44090499D01*
X62824571Y-45058118D02*
X62727809Y-45106499D01*
X62534285Y-45106499D01*
X62437523Y-45058118D01*
X62389142Y-45009737D01*
X62340761Y-44912975D01*
X62340761Y-44622689D01*
X62389142Y-44525927D01*
X62437523Y-44477546D01*
X62534285Y-44429165D01*
X62727809Y-44429165D01*
X62824571Y-44477546D01*
X64082476Y-44574308D02*
X64421142Y-44574308D01*
X64566285Y-45106499D02*
X64082476Y-45106499D01*
X64082476Y-44090499D01*
X64566285Y-44090499D01*
X65001714Y-44429165D02*
X65001714Y-45106499D01*
X65001714Y-44525927D02*
X65050095Y-44477546D01*
X65146857Y-44429165D01*
X65292000Y-44429165D01*
X65388761Y-44477546D01*
X65437142Y-44574308D01*
X65437142Y-45106499D01*
X66356380Y-44429165D02*
X66356380Y-45251641D01*
X66308000Y-45348403D01*
X66259619Y-45396784D01*
X66162857Y-45445165D01*
X66017714Y-45445165D01*
X65920952Y-45396784D01*
X66356380Y-45058118D02*
X66259619Y-45106499D01*
X66066095Y-45106499D01*
X65969333Y-45058118D01*
X65920952Y-45009737D01*
X65872571Y-44912975D01*
X65872571Y-44622689D01*
X65920952Y-44525927D01*
X65969333Y-44477546D01*
X66066095Y-44429165D01*
X66259619Y-44429165D01*
X66356380Y-44477546D01*
X66840190Y-45106499D02*
X66840190Y-44429165D01*
X66840190Y-44090499D02*
X66791809Y-44138880D01*
X66840190Y-44187260D01*
X66888571Y-44138880D01*
X66840190Y-44090499D01*
X66840190Y-44187260D01*
X67324000Y-44429165D02*
X67324000Y-45106499D01*
X67324000Y-44525927D02*
X67372380Y-44477546D01*
X67469142Y-44429165D01*
X67614285Y-44429165D01*
X67711047Y-44477546D01*
X67759428Y-44574308D01*
X67759428Y-45106499D01*
X68630285Y-45058118D02*
X68533523Y-45106499D01*
X68340000Y-45106499D01*
X68243238Y-45058118D01*
X68194857Y-44961356D01*
X68194857Y-44574308D01*
X68243238Y-44477546D01*
X68340000Y-44429165D01*
X68533523Y-44429165D01*
X68630285Y-44477546D01*
X68678666Y-44574308D01*
X68678666Y-44671070D01*
X68194857Y-44767832D01*
X69501142Y-45058118D02*
X69404380Y-45106499D01*
X69210857Y-45106499D01*
X69114095Y-45058118D01*
X69065714Y-44961356D01*
X69065714Y-44574308D01*
X69114095Y-44477546D01*
X69210857Y-44429165D01*
X69404380Y-44429165D01*
X69501142Y-44477546D01*
X69549523Y-44574308D01*
X69549523Y-44671070D01*
X69065714Y-44767832D01*
X69984952Y-45106499D02*
X69984952Y-44429165D01*
X69984952Y-44622689D02*
X70033333Y-44525927D01*
X70081714Y-44477546D01*
X70178476Y-44429165D01*
X70275238Y-44429165D01*
X70613904Y-45106499D02*
X70613904Y-44429165D01*
X70613904Y-44090499D02*
X70565523Y-44138880D01*
X70613904Y-44187260D01*
X70662285Y-44138880D01*
X70613904Y-44090499D01*
X70613904Y-44187260D01*
X71097714Y-44429165D02*
X71097714Y-45106499D01*
X71097714Y-44525927D02*
X71146095Y-44477546D01*
X71242857Y-44429165D01*
X71388000Y-44429165D01*
X71484761Y-44477546D01*
X71533142Y-44574308D01*
X71533142Y-45106499D01*
X72452380Y-44429165D02*
X72452380Y-45251641D01*
X72404000Y-45348403D01*
X72355619Y-45396784D01*
X72258857Y-45445165D01*
X72113714Y-45445165D01*
X72016952Y-45396784D01*
X72452380Y-45058118D02*
X72355619Y-45106499D01*
X72162095Y-45106499D01*
X72065333Y-45058118D01*
X72016952Y-45009737D01*
X71968571Y-44912975D01*
X71968571Y-44622689D01*
X72016952Y-44525927D01*
X72065333Y-44477546D01*
X72162095Y-44429165D01*
X72355619Y-44429165D01*
X72452380Y-44477546D01*
X57236571Y-45968163D02*
X57139809Y-45919782D01*
X56946285Y-45919782D01*
X56849523Y-45968163D01*
X56752761Y-46064925D01*
X56704380Y-46161687D01*
X56704380Y-46355211D01*
X56752761Y-46451973D01*
X56849523Y-46548735D01*
X56946285Y-46597116D01*
X57139809Y-46597116D01*
X57236571Y-46548735D01*
X57043047Y-45581116D02*
X56801142Y-45629497D01*
X56559238Y-45774640D01*
X56414095Y-46016544D01*
X56365714Y-46258449D01*
X56414095Y-46500354D01*
X56559238Y-46742259D01*
X56801142Y-46887401D01*
X57043047Y-46935782D01*
X57284952Y-46887401D01*
X57526857Y-46742259D01*
X57672000Y-46500354D01*
X57720380Y-46258449D01*
X57672000Y-46016544D01*
X57526857Y-45774640D01*
X57284952Y-45629497D01*
X57043047Y-45581116D01*
X58107428Y-45823020D02*
X58155809Y-45774640D01*
X58252571Y-45726259D01*
X58494476Y-45726259D01*
X58591238Y-45774640D01*
X58639619Y-45823020D01*
X58688000Y-45919782D01*
X58688000Y-46016544D01*
X58639619Y-46161687D01*
X58059047Y-46742259D01*
X58688000Y-46742259D01*
X59316952Y-45726259D02*
X59413714Y-45726259D01*
X59510476Y-45774640D01*
X59558857Y-45823020D01*
X59607238Y-45919782D01*
X59655619Y-46113306D01*
X59655619Y-46355211D01*
X59607238Y-46548735D01*
X59558857Y-46645497D01*
X59510476Y-46693878D01*
X59413714Y-46742259D01*
X59316952Y-46742259D01*
X59220190Y-46693878D01*
X59171809Y-46645497D01*
X59123428Y-46548735D01*
X59075047Y-46355211D01*
X59075047Y-46113306D01*
X59123428Y-45919782D01*
X59171809Y-45823020D01*
X59220190Y-45774640D01*
X59316952Y-45726259D01*
X60042666Y-45823020D02*
X60091047Y-45774640D01*
X60187809Y-45726259D01*
X60429714Y-45726259D01*
X60526476Y-45774640D01*
X60574857Y-45823020D01*
X60623238Y-45919782D01*
X60623238Y-46016544D01*
X60574857Y-46161687D01*
X59994285Y-46742259D01*
X60623238Y-46742259D01*
X60961904Y-45726259D02*
X61590857Y-45726259D01*
X61252190Y-46113306D01*
X61397333Y-46113306D01*
X61494095Y-46161687D01*
X61542476Y-46210068D01*
X61590857Y-46306830D01*
X61590857Y-46548735D01*
X61542476Y-46645497D01*
X61494095Y-46693878D01*
X61397333Y-46742259D01*
X61107047Y-46742259D01*
X61010285Y-46693878D01*
X60961904Y-46645497D01*
X63380952Y-46645497D02*
X63332571Y-46693878D01*
X63187428Y-46742259D01*
X63090666Y-46742259D01*
X62945523Y-46693878D01*
X62848761Y-46597116D01*
X62800380Y-46500354D01*
X62752000Y-46306830D01*
X62752000Y-46161687D01*
X62800380Y-45968163D01*
X62848761Y-45871401D01*
X62945523Y-45774640D01*
X63090666Y-45726259D01*
X63187428Y-45726259D01*
X63332571Y-45774640D01*
X63380952Y-45823020D01*
X64396952Y-46645497D02*
X64348571Y-46693878D01*
X64203428Y-46742259D01*
X64106666Y-46742259D01*
X63961523Y-46693878D01*
X63864761Y-46597116D01*
X63816380Y-46500354D01*
X63768000Y-46306830D01*
X63768000Y-46161687D01*
X63816380Y-45968163D01*
X63864761Y-45871401D01*
X63961523Y-45774640D01*
X64106666Y-45726259D01*
X64203428Y-45726259D01*
X64348571Y-45774640D01*
X64396952Y-45823020D01*
X65945142Y-46210068D02*
X66090285Y-46258449D01*
X66138666Y-46306830D01*
X66187047Y-46403592D01*
X66187047Y-46548735D01*
X66138666Y-46645497D01*
X66090285Y-46693878D01*
X65993523Y-46742259D01*
X65606476Y-46742259D01*
X65606476Y-45726259D01*
X65945142Y-45726259D01*
X66041904Y-45774640D01*
X66090285Y-45823020D01*
X66138666Y-45919782D01*
X66138666Y-46016544D01*
X66090285Y-46113306D01*
X66041904Y-46161687D01*
X65945142Y-46210068D01*
X65606476Y-46210068D01*
X66816000Y-46258449D02*
X66816000Y-46742259D01*
X66477333Y-45726259D02*
X66816000Y-46258449D01*
X67154666Y-45726259D01*
X67493333Y-46355211D02*
X68267428Y-46355211D01*
X68702857Y-46693878D02*
X68848000Y-46742259D01*
X69089904Y-46742259D01*
X69186666Y-46693878D01*
X69235047Y-46645497D01*
X69283428Y-46548735D01*
X69283428Y-46451973D01*
X69235047Y-46355211D01*
X69186666Y-46306830D01*
X69089904Y-46258449D01*
X68896380Y-46210068D01*
X68799619Y-46161687D01*
X68751238Y-46113306D01*
X68702857Y-46016544D01*
X68702857Y-45919782D01*
X68751238Y-45823020D01*
X68799619Y-45774640D01*
X68896380Y-45726259D01*
X69138285Y-45726259D01*
X69283428Y-45774640D01*
X69670476Y-46451973D02*
X70154285Y-46451973D01*
X69573714Y-46742259D02*
X69912380Y-45726259D01*
X70251047Y-46742259D01*
X28111238Y-41738217D02*
X28062857Y-41786598D01*
X27917714Y-41834979D01*
X27820952Y-41834979D01*
X27675809Y-41786598D01*
X27579047Y-41689836D01*
X27530666Y-41593074D01*
X27482285Y-41399550D01*
X27482285Y-41254407D01*
X27530666Y-41060883D01*
X27579047Y-40964121D01*
X27675809Y-40867360D01*
X27820952Y-40818979D01*
X27917714Y-40818979D01*
X28062857Y-40867360D01*
X28111238Y-40915740D01*
X28546666Y-41834979D02*
X28546666Y-40818979D01*
X29127238Y-41834979D02*
X28691809Y-41254407D01*
X29127238Y-40818979D02*
X28546666Y-41399550D01*
X29417523Y-40818979D02*
X29998095Y-40818979D01*
X29707809Y-41834979D02*
X29707809Y-40818979D01*
X30336761Y-41447931D02*
X31110857Y-41447931D01*
X31594666Y-41834979D02*
X31594666Y-40818979D01*
X31836571Y-40818979D01*
X31981714Y-40867360D01*
X32078476Y-40964121D01*
X32126857Y-41060883D01*
X32175238Y-41254407D01*
X32175238Y-41399550D01*
X32126857Y-41593074D01*
X32078476Y-41689836D01*
X31981714Y-41786598D01*
X31836571Y-41834979D01*
X31594666Y-41834979D01*
X32610666Y-41834979D02*
X32610666Y-40818979D01*
X33094476Y-41834979D02*
X33094476Y-40818979D01*
X33675047Y-41834979D01*
X33675047Y-40818979D01*
X34691047Y-40867360D02*
X34594285Y-40818979D01*
X34449142Y-40818979D01*
X34304000Y-40867360D01*
X34207238Y-40964121D01*
X34158857Y-41060883D01*
X34110476Y-41254407D01*
X34110476Y-41399550D01*
X34158857Y-41593074D01*
X34207238Y-41689836D01*
X34304000Y-41786598D01*
X34449142Y-41834979D01*
X34545904Y-41834979D01*
X34691047Y-41786598D01*
X34739428Y-41738217D01*
X34739428Y-41399550D01*
X34545904Y-41399550D01*
X35174857Y-41834979D02*
X35174857Y-40818979D01*
X35416761Y-40818979D01*
X35561904Y-40867360D01*
X35658666Y-40964121D01*
X35707047Y-41060883D01*
X35755428Y-41254407D01*
X35755428Y-41399550D01*
X35707047Y-41593074D01*
X35658666Y-41689836D01*
X35561904Y-41786598D01*
X35416761Y-41834979D01*
X35174857Y-41834979D01*
X36384380Y-40818979D02*
X36577904Y-40818979D01*
X36674666Y-40867360D01*
X36771428Y-40964121D01*
X36819809Y-41157645D01*
X36819809Y-41496312D01*
X36771428Y-41689836D01*
X36674666Y-41786598D01*
X36577904Y-41834979D01*
X36384380Y-41834979D01*
X36287619Y-41786598D01*
X36190857Y-41689836D01*
X36142476Y-41496312D01*
X36142476Y-41157645D01*
X36190857Y-40964121D01*
X36287619Y-40867360D01*
X36384380Y-40818979D01*
X37255238Y-41834979D02*
X37255238Y-40818979D01*
X37835809Y-41834979D01*
X37835809Y-40818979D01*
X38851809Y-40867360D02*
X38755047Y-40818979D01*
X38609904Y-40818979D01*
X38464761Y-40867360D01*
X38368000Y-40964121D01*
X38319619Y-41060883D01*
X38271238Y-41254407D01*
X38271238Y-41399550D01*
X38319619Y-41593074D01*
X38368000Y-41689836D01*
X38464761Y-41786598D01*
X38609904Y-41834979D01*
X38706666Y-41834979D01*
X38851809Y-41786598D01*
X38900190Y-41738217D01*
X38900190Y-41399550D01*
X38706666Y-41399550D01*
X39335619Y-41447931D02*
X40109714Y-41447931D01*
X40545142Y-41786598D02*
X40690285Y-41834979D01*
X40932190Y-41834979D01*
X41028952Y-41786598D01*
X41077333Y-41738217D01*
X41125714Y-41641455D01*
X41125714Y-41544693D01*
X41077333Y-41447931D01*
X41028952Y-41399550D01*
X40932190Y-41351169D01*
X40738666Y-41302788D01*
X40641904Y-41254407D01*
X40593523Y-41206026D01*
X40545142Y-41109264D01*
X40545142Y-41012502D01*
X40593523Y-40915740D01*
X40641904Y-40867360D01*
X40738666Y-40818979D01*
X40980571Y-40818979D01*
X41125714Y-40867360D01*
X41561142Y-41834979D02*
X41561142Y-40818979D01*
X41948190Y-40818979D01*
X42044952Y-40867360D01*
X42093333Y-40915740D01*
X42141714Y-41012502D01*
X42141714Y-41157645D01*
X42093333Y-41254407D01*
X42044952Y-41302788D01*
X41948190Y-41351169D01*
X41561142Y-41351169D01*
X42577142Y-41834979D02*
X42577142Y-40818979D01*
X43157714Y-41834979D02*
X42722285Y-41254407D01*
X43157714Y-40818979D02*
X42577142Y-41399550D01*
X33868571Y-42793405D02*
X34110476Y-43470739D01*
X34352380Y-42793405D01*
X34691047Y-42551500D02*
X34739428Y-42503120D01*
X34836190Y-42454739D01*
X35078095Y-42454739D01*
X35174857Y-42503120D01*
X35223238Y-42551500D01*
X35271619Y-42648262D01*
X35271619Y-42745024D01*
X35223238Y-42890167D01*
X34642666Y-43470739D01*
X35271619Y-43470739D01*
X35707047Y-43373977D02*
X35755428Y-43422358D01*
X35707047Y-43470739D01*
X35658666Y-43422358D01*
X35707047Y-43373977D01*
X35707047Y-43470739D01*
X36384380Y-42454739D02*
X36481142Y-42454739D01*
X36577904Y-42503120D01*
X36626285Y-42551500D01*
X36674666Y-42648262D01*
X36723047Y-42841786D01*
X36723047Y-43083691D01*
X36674666Y-43277215D01*
X36626285Y-43373977D01*
X36577904Y-43422358D01*
X36481142Y-43470739D01*
X36384380Y-43470739D01*
X36287619Y-43422358D01*
X36239238Y-43373977D01*
X36190857Y-43277215D01*
X36142476Y-43083691D01*
X36142476Y-42841786D01*
X36190857Y-42648262D01*
X36239238Y-42551500D01*
X36287619Y-42503120D01*
X36384380Y-42454739D01*
X26127619Y-45106499D02*
X26127619Y-44090499D01*
X26756571Y-45106499D02*
X26659809Y-45058118D01*
X26611428Y-45009737D01*
X26563047Y-44912975D01*
X26563047Y-44622689D01*
X26611428Y-44525927D01*
X26659809Y-44477546D01*
X26756571Y-44429165D01*
X26901714Y-44429165D01*
X26998476Y-44477546D01*
X27046857Y-44525927D01*
X27095238Y-44622689D01*
X27095238Y-44912975D01*
X27046857Y-45009737D01*
X26998476Y-45058118D01*
X26901714Y-45106499D01*
X26756571Y-45106499D01*
X27433904Y-44429165D02*
X27627428Y-45106499D01*
X27820952Y-44622689D01*
X28014476Y-45106499D01*
X28207999Y-44429165D01*
X29030476Y-45106499D02*
X29030476Y-44574308D01*
X28982095Y-44477546D01*
X28885333Y-44429165D01*
X28691809Y-44429165D01*
X28595047Y-44477546D01*
X29030476Y-45058118D02*
X28933714Y-45106499D01*
X28691809Y-45106499D01*
X28595047Y-45058118D01*
X28546666Y-44961356D01*
X28546666Y-44864594D01*
X28595047Y-44767832D01*
X28691809Y-44719451D01*
X28933714Y-44719451D01*
X29030476Y-44671070D01*
X30239999Y-45058118D02*
X30385142Y-45106499D01*
X30627047Y-45106499D01*
X30723809Y-45058118D01*
X30772190Y-45009737D01*
X30820571Y-44912975D01*
X30820571Y-44816213D01*
X30772190Y-44719451D01*
X30723809Y-44671070D01*
X30627047Y-44622689D01*
X30433523Y-44574308D01*
X30336761Y-44525927D01*
X30288380Y-44477546D01*
X30239999Y-44380784D01*
X30239999Y-44284022D01*
X30288380Y-44187260D01*
X30336761Y-44138880D01*
X30433523Y-44090499D01*
X30675428Y-44090499D01*
X30820571Y-44138880D01*
X31691428Y-45058118D02*
X31594666Y-45106499D01*
X31401142Y-45106499D01*
X31304380Y-45058118D01*
X31255999Y-45009737D01*
X31207619Y-44912975D01*
X31207619Y-44622689D01*
X31255999Y-44525927D01*
X31304380Y-44477546D01*
X31401142Y-44429165D01*
X31594666Y-44429165D01*
X31691428Y-44477546D01*
X32562285Y-45106499D02*
X32562285Y-44574308D01*
X32513904Y-44477546D01*
X32417142Y-44429165D01*
X32223619Y-44429165D01*
X32126857Y-44477546D01*
X32562285Y-45058118D02*
X32465523Y-45106499D01*
X32223619Y-45106499D01*
X32126857Y-45058118D01*
X32078476Y-44961356D01*
X32078476Y-44864594D01*
X32126857Y-44767832D01*
X32223619Y-44719451D01*
X32465523Y-44719451D01*
X32562285Y-44671070D01*
X33191238Y-45106499D02*
X33094476Y-45058118D01*
X33046095Y-44961356D01*
X33046095Y-44090499D01*
X33965333Y-45058118D02*
X33868571Y-45106499D01*
X33675047Y-45106499D01*
X33578285Y-45058118D01*
X33529904Y-44961356D01*
X33529904Y-44574308D01*
X33578285Y-44477546D01*
X33675047Y-44429165D01*
X33868571Y-44429165D01*
X33965333Y-44477546D01*
X34013714Y-44574308D01*
X34013714Y-44671070D01*
X33529904Y-44767832D01*
X34884571Y-45106499D02*
X34884571Y-44090499D01*
X34884571Y-45058118D02*
X34787809Y-45106499D01*
X34594285Y-45106499D01*
X34497523Y-45058118D01*
X34449142Y-45009737D01*
X34400761Y-44912975D01*
X34400761Y-44622689D01*
X34449142Y-44525927D01*
X34497523Y-44477546D01*
X34594285Y-44429165D01*
X34787809Y-44429165D01*
X34884571Y-44477546D01*
X36142476Y-44574308D02*
X36481142Y-44574308D01*
X36626285Y-45106499D02*
X36142476Y-45106499D01*
X36142476Y-44090499D01*
X36626285Y-44090499D01*
X37061714Y-44429165D02*
X37061714Y-45106499D01*
X37061714Y-44525927D02*
X37110095Y-44477546D01*
X37206857Y-44429165D01*
X37352000Y-44429165D01*
X37448761Y-44477546D01*
X37497142Y-44574308D01*
X37497142Y-45106499D01*
X38416380Y-44429165D02*
X38416380Y-45251641D01*
X38368000Y-45348403D01*
X38319619Y-45396784D01*
X38222857Y-45445165D01*
X38077714Y-45445165D01*
X37980952Y-45396784D01*
X38416380Y-45058118D02*
X38319619Y-45106499D01*
X38126095Y-45106499D01*
X38029333Y-45058118D01*
X37980952Y-45009737D01*
X37932571Y-44912975D01*
X37932571Y-44622689D01*
X37980952Y-44525927D01*
X38029333Y-44477546D01*
X38126095Y-44429165D01*
X38319619Y-44429165D01*
X38416380Y-44477546D01*
X38900190Y-45106499D02*
X38900190Y-44429165D01*
X38900190Y-44090499D02*
X38851809Y-44138880D01*
X38900190Y-44187260D01*
X38948571Y-44138880D01*
X38900190Y-44090499D01*
X38900190Y-44187260D01*
X39384000Y-44429165D02*
X39384000Y-45106499D01*
X39384000Y-44525927D02*
X39432380Y-44477546D01*
X39529142Y-44429165D01*
X39674285Y-44429165D01*
X39771047Y-44477546D01*
X39819428Y-44574308D01*
X39819428Y-45106499D01*
X40690285Y-45058118D02*
X40593523Y-45106499D01*
X40400000Y-45106499D01*
X40303238Y-45058118D01*
X40254857Y-44961356D01*
X40254857Y-44574308D01*
X40303238Y-44477546D01*
X40400000Y-44429165D01*
X40593523Y-44429165D01*
X40690285Y-44477546D01*
X40738666Y-44574308D01*
X40738666Y-44671070D01*
X40254857Y-44767832D01*
X41561142Y-45058118D02*
X41464380Y-45106499D01*
X41270857Y-45106499D01*
X41174095Y-45058118D01*
X41125714Y-44961356D01*
X41125714Y-44574308D01*
X41174095Y-44477546D01*
X41270857Y-44429165D01*
X41464380Y-44429165D01*
X41561142Y-44477546D01*
X41609523Y-44574308D01*
X41609523Y-44671070D01*
X41125714Y-44767832D01*
X42044952Y-45106499D02*
X42044952Y-44429165D01*
X42044952Y-44622689D02*
X42093333Y-44525927D01*
X42141714Y-44477546D01*
X42238476Y-44429165D01*
X42335238Y-44429165D01*
X42673904Y-45106499D02*
X42673904Y-44429165D01*
X42673904Y-44090499D02*
X42625523Y-44138880D01*
X42673904Y-44187260D01*
X42722285Y-44138880D01*
X42673904Y-44090499D01*
X42673904Y-44187260D01*
X43157714Y-44429165D02*
X43157714Y-45106499D01*
X43157714Y-44525927D02*
X43206095Y-44477546D01*
X43302857Y-44429165D01*
X43448000Y-44429165D01*
X43544761Y-44477546D01*
X43593142Y-44574308D01*
X43593142Y-45106499D01*
X44512380Y-44429165D02*
X44512380Y-45251641D01*
X44464000Y-45348403D01*
X44415619Y-45396784D01*
X44318857Y-45445165D01*
X44173714Y-45445165D01*
X44076952Y-45396784D01*
X44512380Y-45058118D02*
X44415619Y-45106499D01*
X44222095Y-45106499D01*
X44125333Y-45058118D01*
X44076952Y-45009737D01*
X44028571Y-44912975D01*
X44028571Y-44622689D01*
X44076952Y-44525927D01*
X44125333Y-44477546D01*
X44222095Y-44429165D01*
X44415619Y-44429165D01*
X44512380Y-44477546D01*
X29296571Y-45968163D02*
X29199809Y-45919782D01*
X29006285Y-45919782D01*
X28909523Y-45968163D01*
X28812761Y-46064925D01*
X28764380Y-46161687D01*
X28764380Y-46355211D01*
X28812761Y-46451973D01*
X28909523Y-46548735D01*
X29006285Y-46597116D01*
X29199809Y-46597116D01*
X29296571Y-46548735D01*
X29103047Y-45581116D02*
X28861142Y-45629497D01*
X28619238Y-45774640D01*
X28474095Y-46016544D01*
X28425714Y-46258449D01*
X28474095Y-46500354D01*
X28619238Y-46742259D01*
X28861142Y-46887401D01*
X29103047Y-46935782D01*
X29344952Y-46887401D01*
X29586857Y-46742259D01*
X29732000Y-46500354D01*
X29780380Y-46258449D01*
X29732000Y-46016544D01*
X29586857Y-45774640D01*
X29344952Y-45629497D01*
X29103047Y-45581116D01*
X30167428Y-45823020D02*
X30215809Y-45774640D01*
X30312571Y-45726259D01*
X30554476Y-45726259D01*
X30651238Y-45774640D01*
X30699619Y-45823020D01*
X30748000Y-45919782D01*
X30748000Y-46016544D01*
X30699619Y-46161687D01*
X30119047Y-46742259D01*
X30748000Y-46742259D01*
X31376952Y-45726259D02*
X31473714Y-45726259D01*
X31570476Y-45774640D01*
X31618857Y-45823020D01*
X31667238Y-45919782D01*
X31715619Y-46113306D01*
X31715619Y-46355211D01*
X31667238Y-46548735D01*
X31618857Y-46645497D01*
X31570476Y-46693878D01*
X31473714Y-46742259D01*
X31376952Y-46742259D01*
X31280190Y-46693878D01*
X31231809Y-46645497D01*
X31183428Y-46548735D01*
X31135047Y-46355211D01*
X31135047Y-46113306D01*
X31183428Y-45919782D01*
X31231809Y-45823020D01*
X31280190Y-45774640D01*
X31376952Y-45726259D01*
X32102666Y-45823020D02*
X32151047Y-45774640D01*
X32247809Y-45726259D01*
X32489714Y-45726259D01*
X32586476Y-45774640D01*
X32634857Y-45823020D01*
X32683238Y-45919782D01*
X32683238Y-46016544D01*
X32634857Y-46161687D01*
X32054285Y-46742259D01*
X32683238Y-46742259D01*
X33021904Y-45726259D02*
X33650857Y-45726259D01*
X33312190Y-46113306D01*
X33457333Y-46113306D01*
X33554095Y-46161687D01*
X33602476Y-46210068D01*
X33650857Y-46306830D01*
X33650857Y-46548735D01*
X33602476Y-46645497D01*
X33554095Y-46693878D01*
X33457333Y-46742259D01*
X33167047Y-46742259D01*
X33070285Y-46693878D01*
X33021904Y-46645497D01*
X35440952Y-46645497D02*
X35392571Y-46693878D01*
X35247428Y-46742259D01*
X35150666Y-46742259D01*
X35005523Y-46693878D01*
X34908761Y-46597116D01*
X34860380Y-46500354D01*
X34812000Y-46306830D01*
X34812000Y-46161687D01*
X34860380Y-45968163D01*
X34908761Y-45871401D01*
X35005523Y-45774640D01*
X35150666Y-45726259D01*
X35247428Y-45726259D01*
X35392571Y-45774640D01*
X35440952Y-45823020D01*
X36456952Y-46645497D02*
X36408571Y-46693878D01*
X36263428Y-46742259D01*
X36166666Y-46742259D01*
X36021523Y-46693878D01*
X35924761Y-46597116D01*
X35876380Y-46500354D01*
X35828000Y-46306830D01*
X35828000Y-46161687D01*
X35876380Y-45968163D01*
X35924761Y-45871401D01*
X36021523Y-45774640D01*
X36166666Y-45726259D01*
X36263428Y-45726259D01*
X36408571Y-45774640D01*
X36456952Y-45823020D01*
X38005142Y-46210068D02*
X38150285Y-46258449D01*
X38198666Y-46306830D01*
X38247047Y-46403592D01*
X38247047Y-46548735D01*
X38198666Y-46645497D01*
X38150285Y-46693878D01*
X38053523Y-46742259D01*
X37666476Y-46742259D01*
X37666476Y-45726259D01*
X38005142Y-45726259D01*
X38101904Y-45774640D01*
X38150285Y-45823020D01*
X38198666Y-45919782D01*
X38198666Y-46016544D01*
X38150285Y-46113306D01*
X38101904Y-46161687D01*
X38005142Y-46210068D01*
X37666476Y-46210068D01*
X38876000Y-46258449D02*
X38876000Y-46742259D01*
X38537333Y-45726259D02*
X38876000Y-46258449D01*
X39214666Y-45726259D01*
X39553333Y-46355211D02*
X40327428Y-46355211D01*
X40762857Y-46693878D02*
X40908000Y-46742259D01*
X41149904Y-46742259D01*
X41246666Y-46693878D01*
X41295047Y-46645497D01*
X41343428Y-46548735D01*
X41343428Y-46451973D01*
X41295047Y-46355211D01*
X41246666Y-46306830D01*
X41149904Y-46258449D01*
X40956380Y-46210068D01*
X40859619Y-46161687D01*
X40811238Y-46113306D01*
X40762857Y-46016544D01*
X40762857Y-45919782D01*
X40811238Y-45823020D01*
X40859619Y-45774640D01*
X40956380Y-45726259D01*
X41198285Y-45726259D01*
X41343428Y-45774640D01*
X41730476Y-46451973D02*
X42214285Y-46451973D01*
X41633714Y-46742259D02*
X41972380Y-45726259D01*
X42311047Y-46742259D01*
X83991238Y-41738217D02*
X83942857Y-41786598D01*
X83797714Y-41834979D01*
X83700952Y-41834979D01*
X83555809Y-41786598D01*
X83459047Y-41689836D01*
X83410666Y-41593074D01*
X83362285Y-41399550D01*
X83362285Y-41254407D01*
X83410666Y-41060883D01*
X83459047Y-40964121D01*
X83555809Y-40867360D01*
X83700952Y-40818979D01*
X83797714Y-40818979D01*
X83942857Y-40867360D01*
X83991238Y-40915740D01*
X84426666Y-41834979D02*
X84426666Y-40818979D01*
X85007238Y-41834979D02*
X84571809Y-41254407D01*
X85007238Y-40818979D02*
X84426666Y-41399550D01*
X85297523Y-40818979D02*
X85878095Y-40818979D01*
X85587809Y-41834979D02*
X85587809Y-40818979D01*
X86216761Y-41447931D02*
X86990857Y-41447931D01*
X87474666Y-41834979D02*
X87474666Y-40818979D01*
X87716571Y-40818979D01*
X87861714Y-40867360D01*
X87958476Y-40964121D01*
X88006857Y-41060883D01*
X88055238Y-41254407D01*
X88055238Y-41399550D01*
X88006857Y-41593074D01*
X87958476Y-41689836D01*
X87861714Y-41786598D01*
X87716571Y-41834979D01*
X87474666Y-41834979D01*
X88490666Y-41834979D02*
X88490666Y-40818979D01*
X88974476Y-41834979D02*
X88974476Y-40818979D01*
X89555047Y-41834979D01*
X89555047Y-40818979D01*
X90571047Y-40867360D02*
X90474285Y-40818979D01*
X90329142Y-40818979D01*
X90184000Y-40867360D01*
X90087238Y-40964121D01*
X90038857Y-41060883D01*
X89990476Y-41254407D01*
X89990476Y-41399550D01*
X90038857Y-41593074D01*
X90087238Y-41689836D01*
X90184000Y-41786598D01*
X90329142Y-41834979D01*
X90425904Y-41834979D01*
X90571047Y-41786598D01*
X90619428Y-41738217D01*
X90619428Y-41399550D01*
X90425904Y-41399550D01*
X91054857Y-41834979D02*
X91054857Y-40818979D01*
X91296761Y-40818979D01*
X91441904Y-40867360D01*
X91538666Y-40964121D01*
X91587047Y-41060883D01*
X91635428Y-41254407D01*
X91635428Y-41399550D01*
X91587047Y-41593074D01*
X91538666Y-41689836D01*
X91441904Y-41786598D01*
X91296761Y-41834979D01*
X91054857Y-41834979D01*
X92264380Y-40818979D02*
X92457904Y-40818979D01*
X92554666Y-40867360D01*
X92651428Y-40964121D01*
X92699809Y-41157645D01*
X92699809Y-41496312D01*
X92651428Y-41689836D01*
X92554666Y-41786598D01*
X92457904Y-41834979D01*
X92264380Y-41834979D01*
X92167619Y-41786598D01*
X92070857Y-41689836D01*
X92022476Y-41496312D01*
X92022476Y-41157645D01*
X92070857Y-40964121D01*
X92167619Y-40867360D01*
X92264380Y-40818979D01*
X93135238Y-41834979D02*
X93135238Y-40818979D01*
X93715809Y-41834979D01*
X93715809Y-40818979D01*
X94731809Y-40867360D02*
X94635047Y-40818979D01*
X94489904Y-40818979D01*
X94344761Y-40867360D01*
X94248000Y-40964121D01*
X94199619Y-41060883D01*
X94151238Y-41254407D01*
X94151238Y-41399550D01*
X94199619Y-41593074D01*
X94248000Y-41689836D01*
X94344761Y-41786598D01*
X94489904Y-41834979D01*
X94586666Y-41834979D01*
X94731809Y-41786598D01*
X94780190Y-41738217D01*
X94780190Y-41399550D01*
X94586666Y-41399550D01*
X95215619Y-41447931D02*
X95989714Y-41447931D01*
X96425142Y-41786598D02*
X96570285Y-41834979D01*
X96812190Y-41834979D01*
X96908952Y-41786598D01*
X96957333Y-41738217D01*
X97005714Y-41641455D01*
X97005714Y-41544693D01*
X96957333Y-41447931D01*
X96908952Y-41399550D01*
X96812190Y-41351169D01*
X96618666Y-41302788D01*
X96521904Y-41254407D01*
X96473523Y-41206026D01*
X96425142Y-41109264D01*
X96425142Y-41012502D01*
X96473523Y-40915740D01*
X96521904Y-40867360D01*
X96618666Y-40818979D01*
X96860571Y-40818979D01*
X97005714Y-40867360D01*
X97441142Y-41834979D02*
X97441142Y-40818979D01*
X97828190Y-40818979D01*
X97924952Y-40867360D01*
X97973333Y-40915740D01*
X98021714Y-41012502D01*
X98021714Y-41157645D01*
X97973333Y-41254407D01*
X97924952Y-41302788D01*
X97828190Y-41351169D01*
X97441142Y-41351169D01*
X98457142Y-41834979D02*
X98457142Y-40818979D01*
X99037714Y-41834979D02*
X98602285Y-41254407D01*
X99037714Y-40818979D02*
X98457142Y-41399550D01*
X89748571Y-42793405D02*
X89990476Y-43470739D01*
X90232380Y-42793405D01*
X90571047Y-42551500D02*
X90619428Y-42503120D01*
X90716190Y-42454739D01*
X90958095Y-42454739D01*
X91054857Y-42503120D01*
X91103238Y-42551500D01*
X91151619Y-42648262D01*
X91151619Y-42745024D01*
X91103238Y-42890167D01*
X90522666Y-43470739D01*
X91151619Y-43470739D01*
X91587047Y-43373977D02*
X91635428Y-43422358D01*
X91587047Y-43470739D01*
X91538666Y-43422358D01*
X91587047Y-43373977D01*
X91587047Y-43470739D01*
X92264380Y-42454739D02*
X92361142Y-42454739D01*
X92457904Y-42503120D01*
X92506285Y-42551500D01*
X92554666Y-42648262D01*
X92603047Y-42841786D01*
X92603047Y-43083691D01*
X92554666Y-43277215D01*
X92506285Y-43373977D01*
X92457904Y-43422358D01*
X92361142Y-43470739D01*
X92264380Y-43470739D01*
X92167619Y-43422358D01*
X92119238Y-43373977D01*
X92070857Y-43277215D01*
X92022476Y-43083691D01*
X92022476Y-42841786D01*
X92070857Y-42648262D01*
X92119238Y-42551500D01*
X92167619Y-42503120D01*
X92264380Y-42454739D01*
X82007619Y-45106499D02*
X82007619Y-44090499D01*
X82636571Y-45106499D02*
X82539809Y-45058118D01*
X82491428Y-45009737D01*
X82443047Y-44912975D01*
X82443047Y-44622689D01*
X82491428Y-44525927D01*
X82539809Y-44477546D01*
X82636571Y-44429165D01*
X82781714Y-44429165D01*
X82878476Y-44477546D01*
X82926857Y-44525927D01*
X82975238Y-44622689D01*
X82975238Y-44912975D01*
X82926857Y-45009737D01*
X82878476Y-45058118D01*
X82781714Y-45106499D01*
X82636571Y-45106499D01*
X83313904Y-44429165D02*
X83507428Y-45106499D01*
X83700952Y-44622689D01*
X83894476Y-45106499D01*
X84088000Y-44429165D01*
X84910476Y-45106499D02*
X84910476Y-44574308D01*
X84862095Y-44477546D01*
X84765333Y-44429165D01*
X84571809Y-44429165D01*
X84475047Y-44477546D01*
X84910476Y-45058118D02*
X84813714Y-45106499D01*
X84571809Y-45106499D01*
X84475047Y-45058118D01*
X84426666Y-44961356D01*
X84426666Y-44864594D01*
X84475047Y-44767832D01*
X84571809Y-44719451D01*
X84813714Y-44719451D01*
X84910476Y-44671070D01*
X86120000Y-45058118D02*
X86265142Y-45106499D01*
X86507047Y-45106499D01*
X86603809Y-45058118D01*
X86652190Y-45009737D01*
X86700571Y-44912975D01*
X86700571Y-44816213D01*
X86652190Y-44719451D01*
X86603809Y-44671070D01*
X86507047Y-44622689D01*
X86313523Y-44574308D01*
X86216761Y-44525927D01*
X86168380Y-44477546D01*
X86120000Y-44380784D01*
X86120000Y-44284022D01*
X86168380Y-44187260D01*
X86216761Y-44138880D01*
X86313523Y-44090499D01*
X86555428Y-44090499D01*
X86700571Y-44138880D01*
X87571428Y-45058118D02*
X87474666Y-45106499D01*
X87281142Y-45106499D01*
X87184380Y-45058118D01*
X87136000Y-45009737D01*
X87087619Y-44912975D01*
X87087619Y-44622689D01*
X87136000Y-44525927D01*
X87184380Y-44477546D01*
X87281142Y-44429165D01*
X87474666Y-44429165D01*
X87571428Y-44477546D01*
X88442285Y-45106499D02*
X88442285Y-44574308D01*
X88393904Y-44477546D01*
X88297142Y-44429165D01*
X88103619Y-44429165D01*
X88006857Y-44477546D01*
X88442285Y-45058118D02*
X88345523Y-45106499D01*
X88103619Y-45106499D01*
X88006857Y-45058118D01*
X87958476Y-44961356D01*
X87958476Y-44864594D01*
X88006857Y-44767832D01*
X88103619Y-44719451D01*
X88345523Y-44719451D01*
X88442285Y-44671070D01*
X89071238Y-45106499D02*
X88974476Y-45058118D01*
X88926095Y-44961356D01*
X88926095Y-44090499D01*
X89845333Y-45058118D02*
X89748571Y-45106499D01*
X89555047Y-45106499D01*
X89458285Y-45058118D01*
X89409904Y-44961356D01*
X89409904Y-44574308D01*
X89458285Y-44477546D01*
X89555047Y-44429165D01*
X89748571Y-44429165D01*
X89845333Y-44477546D01*
X89893714Y-44574308D01*
X89893714Y-44671070D01*
X89409904Y-44767832D01*
X90764571Y-45106499D02*
X90764571Y-44090499D01*
X90764571Y-45058118D02*
X90667809Y-45106499D01*
X90474285Y-45106499D01*
X90377523Y-45058118D01*
X90329142Y-45009737D01*
X90280761Y-44912975D01*
X90280761Y-44622689D01*
X90329142Y-44525927D01*
X90377523Y-44477546D01*
X90474285Y-44429165D01*
X90667809Y-44429165D01*
X90764571Y-44477546D01*
X92022476Y-44574308D02*
X92361142Y-44574308D01*
X92506285Y-45106499D02*
X92022476Y-45106499D01*
X92022476Y-44090499D01*
X92506285Y-44090499D01*
X92941714Y-44429165D02*
X92941714Y-45106499D01*
X92941714Y-44525927D02*
X92990095Y-44477546D01*
X93086857Y-44429165D01*
X93232000Y-44429165D01*
X93328761Y-44477546D01*
X93377142Y-44574308D01*
X93377142Y-45106499D01*
X94296380Y-44429165D02*
X94296380Y-45251641D01*
X94248000Y-45348403D01*
X94199619Y-45396784D01*
X94102857Y-45445165D01*
X93957714Y-45445165D01*
X93860952Y-45396784D01*
X94296380Y-45058118D02*
X94199619Y-45106499D01*
X94006095Y-45106499D01*
X93909333Y-45058118D01*
X93860952Y-45009737D01*
X93812571Y-44912975D01*
X93812571Y-44622689D01*
X93860952Y-44525927D01*
X93909333Y-44477546D01*
X94006095Y-44429165D01*
X94199619Y-44429165D01*
X94296380Y-44477546D01*
X94780190Y-45106499D02*
X94780190Y-44429165D01*
X94780190Y-44090499D02*
X94731809Y-44138880D01*
X94780190Y-44187260D01*
X94828571Y-44138880D01*
X94780190Y-44090499D01*
X94780190Y-44187260D01*
X95264000Y-44429165D02*
X95264000Y-45106499D01*
X95264000Y-44525927D02*
X95312380Y-44477546D01*
X95409142Y-44429165D01*
X95554285Y-44429165D01*
X95651047Y-44477546D01*
X95699428Y-44574308D01*
X95699428Y-45106499D01*
X96570285Y-45058118D02*
X96473523Y-45106499D01*
X96280000Y-45106499D01*
X96183238Y-45058118D01*
X96134857Y-44961356D01*
X96134857Y-44574308D01*
X96183238Y-44477546D01*
X96280000Y-44429165D01*
X96473523Y-44429165D01*
X96570285Y-44477546D01*
X96618666Y-44574308D01*
X96618666Y-44671070D01*
X96134857Y-44767832D01*
X97441142Y-45058118D02*
X97344380Y-45106499D01*
X97150857Y-45106499D01*
X97054095Y-45058118D01*
X97005714Y-44961356D01*
X97005714Y-44574308D01*
X97054095Y-44477546D01*
X97150857Y-44429165D01*
X97344380Y-44429165D01*
X97441142Y-44477546D01*
X97489523Y-44574308D01*
X97489523Y-44671070D01*
X97005714Y-44767832D01*
X97924952Y-45106499D02*
X97924952Y-44429165D01*
X97924952Y-44622689D02*
X97973333Y-44525927D01*
X98021714Y-44477546D01*
X98118476Y-44429165D01*
X98215238Y-44429165D01*
X98553904Y-45106499D02*
X98553904Y-44429165D01*
X98553904Y-44090499D02*
X98505523Y-44138880D01*
X98553904Y-44187260D01*
X98602285Y-44138880D01*
X98553904Y-44090499D01*
X98553904Y-44187260D01*
X99037714Y-44429165D02*
X99037714Y-45106499D01*
X99037714Y-44525927D02*
X99086095Y-44477546D01*
X99182857Y-44429165D01*
X99328000Y-44429165D01*
X99424761Y-44477546D01*
X99473142Y-44574308D01*
X99473142Y-45106499D01*
X100392380Y-44429165D02*
X100392380Y-45251641D01*
X100344000Y-45348403D01*
X100295619Y-45396784D01*
X100198857Y-45445165D01*
X100053714Y-45445165D01*
X99956952Y-45396784D01*
X100392380Y-45058118D02*
X100295619Y-45106499D01*
X100102095Y-45106499D01*
X100005333Y-45058118D01*
X99956952Y-45009737D01*
X99908571Y-44912975D01*
X99908571Y-44622689D01*
X99956952Y-44525927D01*
X100005333Y-44477546D01*
X100102095Y-44429165D01*
X100295619Y-44429165D01*
X100392380Y-44477546D01*
X85176571Y-45968163D02*
X85079809Y-45919782D01*
X84886285Y-45919782D01*
X84789523Y-45968163D01*
X84692761Y-46064925D01*
X84644380Y-46161687D01*
X84644380Y-46355211D01*
X84692761Y-46451973D01*
X84789523Y-46548735D01*
X84886285Y-46597116D01*
X85079809Y-46597116D01*
X85176571Y-46548735D01*
X84983047Y-45581116D02*
X84741142Y-45629497D01*
X84499238Y-45774640D01*
X84354095Y-46016544D01*
X84305714Y-46258449D01*
X84354095Y-46500354D01*
X84499238Y-46742259D01*
X84741142Y-46887401D01*
X84983047Y-46935782D01*
X85224952Y-46887401D01*
X85466857Y-46742259D01*
X85612000Y-46500354D01*
X85660380Y-46258449D01*
X85612000Y-46016544D01*
X85466857Y-45774640D01*
X85224952Y-45629497D01*
X84983047Y-45581116D01*
X86047428Y-45823020D02*
X86095809Y-45774640D01*
X86192571Y-45726259D01*
X86434476Y-45726259D01*
X86531238Y-45774640D01*
X86579619Y-45823020D01*
X86628000Y-45919782D01*
X86628000Y-46016544D01*
X86579619Y-46161687D01*
X85999047Y-46742259D01*
X86628000Y-46742259D01*
X87256952Y-45726259D02*
X87353714Y-45726259D01*
X87450476Y-45774640D01*
X87498857Y-45823020D01*
X87547238Y-45919782D01*
X87595619Y-46113306D01*
X87595619Y-46355211D01*
X87547238Y-46548735D01*
X87498857Y-46645497D01*
X87450476Y-46693878D01*
X87353714Y-46742259D01*
X87256952Y-46742259D01*
X87160190Y-46693878D01*
X87111809Y-46645497D01*
X87063428Y-46548735D01*
X87015047Y-46355211D01*
X87015047Y-46113306D01*
X87063428Y-45919782D01*
X87111809Y-45823020D01*
X87160190Y-45774640D01*
X87256952Y-45726259D01*
X87982666Y-45823020D02*
X88031047Y-45774640D01*
X88127809Y-45726259D01*
X88369714Y-45726259D01*
X88466476Y-45774640D01*
X88514857Y-45823020D01*
X88563238Y-45919782D01*
X88563238Y-46016544D01*
X88514857Y-46161687D01*
X87934285Y-46742259D01*
X88563238Y-46742259D01*
X88901904Y-45726259D02*
X89530857Y-45726259D01*
X89192190Y-46113306D01*
X89337333Y-46113306D01*
X89434095Y-46161687D01*
X89482476Y-46210068D01*
X89530857Y-46306830D01*
X89530857Y-46548735D01*
X89482476Y-46645497D01*
X89434095Y-46693878D01*
X89337333Y-46742259D01*
X89047047Y-46742259D01*
X88950285Y-46693878D01*
X88901904Y-46645497D01*
X91320952Y-46645497D02*
X91272571Y-46693878D01*
X91127428Y-46742259D01*
X91030666Y-46742259D01*
X90885523Y-46693878D01*
X90788761Y-46597116D01*
X90740380Y-46500354D01*
X90692000Y-46306830D01*
X90692000Y-46161687D01*
X90740380Y-45968163D01*
X90788761Y-45871401D01*
X90885523Y-45774640D01*
X91030666Y-45726259D01*
X91127428Y-45726259D01*
X91272571Y-45774640D01*
X91320952Y-45823020D01*
X92336952Y-46645497D02*
X92288571Y-46693878D01*
X92143428Y-46742259D01*
X92046666Y-46742259D01*
X91901523Y-46693878D01*
X91804761Y-46597116D01*
X91756380Y-46500354D01*
X91708000Y-46306830D01*
X91708000Y-46161687D01*
X91756380Y-45968163D01*
X91804761Y-45871401D01*
X91901523Y-45774640D01*
X92046666Y-45726259D01*
X92143428Y-45726259D01*
X92288571Y-45774640D01*
X92336952Y-45823020D01*
X93885142Y-46210068D02*
X94030285Y-46258449D01*
X94078666Y-46306830D01*
X94127047Y-46403592D01*
X94127047Y-46548735D01*
X94078666Y-46645497D01*
X94030285Y-46693878D01*
X93933523Y-46742259D01*
X93546476Y-46742259D01*
X93546476Y-45726259D01*
X93885142Y-45726259D01*
X93981904Y-45774640D01*
X94030285Y-45823020D01*
X94078666Y-45919782D01*
X94078666Y-46016544D01*
X94030285Y-46113306D01*
X93981904Y-46161687D01*
X93885142Y-46210068D01*
X93546476Y-46210068D01*
X94756000Y-46258449D02*
X94756000Y-46742259D01*
X94417333Y-45726259D02*
X94756000Y-46258449D01*
X95094666Y-45726259D01*
X95433333Y-46355211D02*
X96207428Y-46355211D01*
X96642857Y-46693878D02*
X96788000Y-46742259D01*
X97029904Y-46742259D01*
X97126666Y-46693878D01*
X97175047Y-46645497D01*
X97223428Y-46548735D01*
X97223428Y-46451973D01*
X97175047Y-46355211D01*
X97126666Y-46306830D01*
X97029904Y-46258449D01*
X96836380Y-46210068D01*
X96739619Y-46161687D01*
X96691238Y-46113306D01*
X96642857Y-46016544D01*
X96642857Y-45919782D01*
X96691238Y-45823020D01*
X96739619Y-45774640D01*
X96836380Y-45726259D01*
X97078285Y-45726259D01*
X97223428Y-45774640D01*
X97610476Y-46451973D02*
X98094285Y-46451973D01*
X97513714Y-46742259D02*
X97852380Y-45726259D01*
X98191047Y-46742259D01*
X111931238Y-41738217D02*
X111882857Y-41786598D01*
X111737714Y-41834979D01*
X111640952Y-41834979D01*
X111495809Y-41786598D01*
X111399047Y-41689836D01*
X111350666Y-41593074D01*
X111302285Y-41399550D01*
X111302285Y-41254407D01*
X111350666Y-41060883D01*
X111399047Y-40964121D01*
X111495809Y-40867360D01*
X111640952Y-40818979D01*
X111737714Y-40818979D01*
X111882857Y-40867360D01*
X111931238Y-40915740D01*
X112366666Y-41834979D02*
X112366666Y-40818979D01*
X112947238Y-41834979D02*
X112511809Y-41254407D01*
X112947238Y-40818979D02*
X112366666Y-41399550D01*
X113237523Y-40818979D02*
X113818095Y-40818979D01*
X113527809Y-41834979D02*
X113527809Y-40818979D01*
X114156761Y-41447931D02*
X114930857Y-41447931D01*
X115414666Y-41834979D02*
X115414666Y-40818979D01*
X115656571Y-40818979D01*
X115801714Y-40867360D01*
X115898476Y-40964121D01*
X115946857Y-41060883D01*
X115995238Y-41254407D01*
X115995238Y-41399550D01*
X115946857Y-41593074D01*
X115898476Y-41689836D01*
X115801714Y-41786598D01*
X115656571Y-41834979D01*
X115414666Y-41834979D01*
X116430666Y-41834979D02*
X116430666Y-40818979D01*
X116914476Y-41834979D02*
X116914476Y-40818979D01*
X117495047Y-41834979D01*
X117495047Y-40818979D01*
X118511047Y-40867360D02*
X118414285Y-40818979D01*
X118269142Y-40818979D01*
X118124000Y-40867360D01*
X118027238Y-40964121D01*
X117978857Y-41060883D01*
X117930476Y-41254407D01*
X117930476Y-41399550D01*
X117978857Y-41593074D01*
X118027238Y-41689836D01*
X118124000Y-41786598D01*
X118269142Y-41834979D01*
X118365904Y-41834979D01*
X118511047Y-41786598D01*
X118559428Y-41738217D01*
X118559428Y-41399550D01*
X118365904Y-41399550D01*
X118994857Y-41834979D02*
X118994857Y-40818979D01*
X119236761Y-40818979D01*
X119381904Y-40867360D01*
X119478666Y-40964121D01*
X119527047Y-41060883D01*
X119575428Y-41254407D01*
X119575428Y-41399550D01*
X119527047Y-41593074D01*
X119478666Y-41689836D01*
X119381904Y-41786598D01*
X119236761Y-41834979D01*
X118994857Y-41834979D01*
X120204380Y-40818979D02*
X120397904Y-40818979D01*
X120494666Y-40867360D01*
X120591428Y-40964121D01*
X120639809Y-41157645D01*
X120639809Y-41496312D01*
X120591428Y-41689836D01*
X120494666Y-41786598D01*
X120397904Y-41834979D01*
X120204380Y-41834979D01*
X120107619Y-41786598D01*
X120010857Y-41689836D01*
X119962476Y-41496312D01*
X119962476Y-41157645D01*
X120010857Y-40964121D01*
X120107619Y-40867360D01*
X120204380Y-40818979D01*
X121075238Y-41834979D02*
X121075238Y-40818979D01*
X121655809Y-41834979D01*
X121655809Y-40818979D01*
X122671809Y-40867360D02*
X122575047Y-40818979D01*
X122429904Y-40818979D01*
X122284761Y-40867360D01*
X122188000Y-40964121D01*
X122139619Y-41060883D01*
X122091238Y-41254407D01*
X122091238Y-41399550D01*
X122139619Y-41593074D01*
X122188000Y-41689836D01*
X122284761Y-41786598D01*
X122429904Y-41834979D01*
X122526666Y-41834979D01*
X122671809Y-41786598D01*
X122720190Y-41738217D01*
X122720190Y-41399550D01*
X122526666Y-41399550D01*
X123155619Y-41447931D02*
X123929714Y-41447931D01*
X124365142Y-41786598D02*
X124510285Y-41834979D01*
X124752190Y-41834979D01*
X124848952Y-41786598D01*
X124897333Y-41738217D01*
X124945714Y-41641455D01*
X124945714Y-41544693D01*
X124897333Y-41447931D01*
X124848952Y-41399550D01*
X124752190Y-41351169D01*
X124558666Y-41302788D01*
X124461904Y-41254407D01*
X124413523Y-41206026D01*
X124365142Y-41109264D01*
X124365142Y-41012502D01*
X124413523Y-40915740D01*
X124461904Y-40867360D01*
X124558666Y-40818979D01*
X124800571Y-40818979D01*
X124945714Y-40867360D01*
X125381142Y-41834979D02*
X125381142Y-40818979D01*
X125768190Y-40818979D01*
X125864952Y-40867360D01*
X125913333Y-40915740D01*
X125961714Y-41012502D01*
X125961714Y-41157645D01*
X125913333Y-41254407D01*
X125864952Y-41302788D01*
X125768190Y-41351169D01*
X125381142Y-41351169D01*
X126397142Y-41834979D02*
X126397142Y-40818979D01*
X126977714Y-41834979D02*
X126542285Y-41254407D01*
X126977714Y-40818979D02*
X126397142Y-41399550D01*
X117688571Y-42793405D02*
X117930476Y-43470739D01*
X118172380Y-42793405D01*
X118511047Y-42551500D02*
X118559428Y-42503120D01*
X118656190Y-42454739D01*
X118898095Y-42454739D01*
X118994857Y-42503120D01*
X119043238Y-42551500D01*
X119091619Y-42648262D01*
X119091619Y-42745024D01*
X119043238Y-42890167D01*
X118462666Y-43470739D01*
X119091619Y-43470739D01*
X119527047Y-43373977D02*
X119575428Y-43422358D01*
X119527047Y-43470739D01*
X119478666Y-43422358D01*
X119527047Y-43373977D01*
X119527047Y-43470739D01*
X120204380Y-42454739D02*
X120301142Y-42454739D01*
X120397904Y-42503120D01*
X120446285Y-42551500D01*
X120494666Y-42648262D01*
X120543047Y-42841786D01*
X120543047Y-43083691D01*
X120494666Y-43277215D01*
X120446285Y-43373977D01*
X120397904Y-43422358D01*
X120301142Y-43470739D01*
X120204380Y-43470739D01*
X120107619Y-43422358D01*
X120059238Y-43373977D01*
X120010857Y-43277215D01*
X119962476Y-43083691D01*
X119962476Y-42841786D01*
X120010857Y-42648262D01*
X120059238Y-42551500D01*
X120107619Y-42503120D01*
X120204380Y-42454739D01*
X109947619Y-45106499D02*
X109947619Y-44090499D01*
X110576571Y-45106499D02*
X110479809Y-45058118D01*
X110431428Y-45009737D01*
X110383047Y-44912975D01*
X110383047Y-44622689D01*
X110431428Y-44525927D01*
X110479809Y-44477546D01*
X110576571Y-44429165D01*
X110721714Y-44429165D01*
X110818476Y-44477546D01*
X110866857Y-44525927D01*
X110915238Y-44622689D01*
X110915238Y-44912975D01*
X110866857Y-45009737D01*
X110818476Y-45058118D01*
X110721714Y-45106499D01*
X110576571Y-45106499D01*
X111253904Y-44429165D02*
X111447428Y-45106499D01*
X111640952Y-44622689D01*
X111834476Y-45106499D01*
X112028000Y-44429165D01*
X112850476Y-45106499D02*
X112850476Y-44574308D01*
X112802095Y-44477546D01*
X112705333Y-44429165D01*
X112511809Y-44429165D01*
X112415047Y-44477546D01*
X112850476Y-45058118D02*
X112753714Y-45106499D01*
X112511809Y-45106499D01*
X112415047Y-45058118D01*
X112366666Y-44961356D01*
X112366666Y-44864594D01*
X112415047Y-44767832D01*
X112511809Y-44719451D01*
X112753714Y-44719451D01*
X112850476Y-44671070D01*
X114060000Y-45058118D02*
X114205142Y-45106499D01*
X114447047Y-45106499D01*
X114543809Y-45058118D01*
X114592190Y-45009737D01*
X114640571Y-44912975D01*
X114640571Y-44816213D01*
X114592190Y-44719451D01*
X114543809Y-44671070D01*
X114447047Y-44622689D01*
X114253523Y-44574308D01*
X114156761Y-44525927D01*
X114108380Y-44477546D01*
X114060000Y-44380784D01*
X114060000Y-44284022D01*
X114108380Y-44187260D01*
X114156761Y-44138880D01*
X114253523Y-44090499D01*
X114495428Y-44090499D01*
X114640571Y-44138880D01*
X115511428Y-45058118D02*
X115414666Y-45106499D01*
X115221142Y-45106499D01*
X115124380Y-45058118D01*
X115076000Y-45009737D01*
X115027619Y-44912975D01*
X115027619Y-44622689D01*
X115076000Y-44525927D01*
X115124380Y-44477546D01*
X115221142Y-44429165D01*
X115414666Y-44429165D01*
X115511428Y-44477546D01*
X116382285Y-45106499D02*
X116382285Y-44574308D01*
X116333904Y-44477546D01*
X116237142Y-44429165D01*
X116043619Y-44429165D01*
X115946857Y-44477546D01*
X116382285Y-45058118D02*
X116285523Y-45106499D01*
X116043619Y-45106499D01*
X115946857Y-45058118D01*
X115898476Y-44961356D01*
X115898476Y-44864594D01*
X115946857Y-44767832D01*
X116043619Y-44719451D01*
X116285523Y-44719451D01*
X116382285Y-44671070D01*
X117011238Y-45106499D02*
X116914476Y-45058118D01*
X116866095Y-44961356D01*
X116866095Y-44090499D01*
X117785333Y-45058118D02*
X117688571Y-45106499D01*
X117495047Y-45106499D01*
X117398285Y-45058118D01*
X117349904Y-44961356D01*
X117349904Y-44574308D01*
X117398285Y-44477546D01*
X117495047Y-44429165D01*
X117688571Y-44429165D01*
X117785333Y-44477546D01*
X117833714Y-44574308D01*
X117833714Y-44671070D01*
X117349904Y-44767832D01*
X118704571Y-45106499D02*
X118704571Y-44090499D01*
X118704571Y-45058118D02*
X118607809Y-45106499D01*
X118414285Y-45106499D01*
X118317523Y-45058118D01*
X118269142Y-45009737D01*
X118220761Y-44912975D01*
X118220761Y-44622689D01*
X118269142Y-44525927D01*
X118317523Y-44477546D01*
X118414285Y-44429165D01*
X118607809Y-44429165D01*
X118704571Y-44477546D01*
X119962476Y-44574308D02*
X120301142Y-44574308D01*
X120446285Y-45106499D02*
X119962476Y-45106499D01*
X119962476Y-44090499D01*
X120446285Y-44090499D01*
X120881714Y-44429165D02*
X120881714Y-45106499D01*
X120881714Y-44525927D02*
X120930095Y-44477546D01*
X121026857Y-44429165D01*
X121172000Y-44429165D01*
X121268761Y-44477546D01*
X121317142Y-44574308D01*
X121317142Y-45106499D01*
X122236380Y-44429165D02*
X122236380Y-45251641D01*
X122188000Y-45348403D01*
X122139619Y-45396784D01*
X122042857Y-45445165D01*
X121897714Y-45445165D01*
X121800952Y-45396784D01*
X122236380Y-45058118D02*
X122139619Y-45106499D01*
X121946095Y-45106499D01*
X121849333Y-45058118D01*
X121800952Y-45009737D01*
X121752571Y-44912975D01*
X121752571Y-44622689D01*
X121800952Y-44525927D01*
X121849333Y-44477546D01*
X121946095Y-44429165D01*
X122139619Y-44429165D01*
X122236380Y-44477546D01*
X122720190Y-45106499D02*
X122720190Y-44429165D01*
X122720190Y-44090499D02*
X122671809Y-44138880D01*
X122720190Y-44187260D01*
X122768571Y-44138880D01*
X122720190Y-44090499D01*
X122720190Y-44187260D01*
X123204000Y-44429165D02*
X123204000Y-45106499D01*
X123204000Y-44525927D02*
X123252380Y-44477546D01*
X123349142Y-44429165D01*
X123494285Y-44429165D01*
X123591047Y-44477546D01*
X123639428Y-44574308D01*
X123639428Y-45106499D01*
X124510285Y-45058118D02*
X124413523Y-45106499D01*
X124220000Y-45106499D01*
X124123238Y-45058118D01*
X124074857Y-44961356D01*
X124074857Y-44574308D01*
X124123238Y-44477546D01*
X124220000Y-44429165D01*
X124413523Y-44429165D01*
X124510285Y-44477546D01*
X124558666Y-44574308D01*
X124558666Y-44671070D01*
X124074857Y-44767832D01*
X125381142Y-45058118D02*
X125284380Y-45106499D01*
X125090857Y-45106499D01*
X124994095Y-45058118D01*
X124945714Y-44961356D01*
X124945714Y-44574308D01*
X124994095Y-44477546D01*
X125090857Y-44429165D01*
X125284380Y-44429165D01*
X125381142Y-44477546D01*
X125429523Y-44574308D01*
X125429523Y-44671070D01*
X124945714Y-44767832D01*
X125864952Y-45106499D02*
X125864952Y-44429165D01*
X125864952Y-44622689D02*
X125913333Y-44525927D01*
X125961714Y-44477546D01*
X126058476Y-44429165D01*
X126155238Y-44429165D01*
X126493904Y-45106499D02*
X126493904Y-44429165D01*
X126493904Y-44090499D02*
X126445523Y-44138880D01*
X126493904Y-44187260D01*
X126542285Y-44138880D01*
X126493904Y-44090499D01*
X126493904Y-44187260D01*
X126977714Y-44429165D02*
X126977714Y-45106499D01*
X126977714Y-44525927D02*
X127026095Y-44477546D01*
X127122857Y-44429165D01*
X127268000Y-44429165D01*
X127364761Y-44477546D01*
X127413142Y-44574308D01*
X127413142Y-45106499D01*
X128332380Y-44429165D02*
X128332380Y-45251641D01*
X128284000Y-45348403D01*
X128235619Y-45396784D01*
X128138857Y-45445165D01*
X127993714Y-45445165D01*
X127896952Y-45396784D01*
X128332380Y-45058118D02*
X128235619Y-45106499D01*
X128042095Y-45106499D01*
X127945333Y-45058118D01*
X127896952Y-45009737D01*
X127848571Y-44912975D01*
X127848571Y-44622689D01*
X127896952Y-44525927D01*
X127945333Y-44477546D01*
X128042095Y-44429165D01*
X128235619Y-44429165D01*
X128332380Y-44477546D01*
X113116571Y-45968163D02*
X113019809Y-45919782D01*
X112826285Y-45919782D01*
X112729523Y-45968163D01*
X112632761Y-46064925D01*
X112584380Y-46161687D01*
X112584380Y-46355211D01*
X112632761Y-46451973D01*
X112729523Y-46548735D01*
X112826285Y-46597116D01*
X113019809Y-46597116D01*
X113116571Y-46548735D01*
X112923047Y-45581116D02*
X112681142Y-45629497D01*
X112439238Y-45774640D01*
X112294095Y-46016544D01*
X112245714Y-46258449D01*
X112294095Y-46500354D01*
X112439238Y-46742259D01*
X112681142Y-46887401D01*
X112923047Y-46935782D01*
X113164952Y-46887401D01*
X113406857Y-46742259D01*
X113552000Y-46500354D01*
X113600380Y-46258449D01*
X113552000Y-46016544D01*
X113406857Y-45774640D01*
X113164952Y-45629497D01*
X112923047Y-45581116D01*
X113987428Y-45823020D02*
X114035809Y-45774640D01*
X114132571Y-45726259D01*
X114374476Y-45726259D01*
X114471238Y-45774640D01*
X114519619Y-45823020D01*
X114568000Y-45919782D01*
X114568000Y-46016544D01*
X114519619Y-46161687D01*
X113939047Y-46742259D01*
X114568000Y-46742259D01*
X115196952Y-45726259D02*
X115293714Y-45726259D01*
X115390476Y-45774640D01*
X115438857Y-45823020D01*
X115487238Y-45919782D01*
X115535619Y-46113306D01*
X115535619Y-46355211D01*
X115487238Y-46548735D01*
X115438857Y-46645497D01*
X115390476Y-46693878D01*
X115293714Y-46742259D01*
X115196952Y-46742259D01*
X115100190Y-46693878D01*
X115051809Y-46645497D01*
X115003428Y-46548735D01*
X114955047Y-46355211D01*
X114955047Y-46113306D01*
X115003428Y-45919782D01*
X115051809Y-45823020D01*
X115100190Y-45774640D01*
X115196952Y-45726259D01*
X115922666Y-45823020D02*
X115971047Y-45774640D01*
X116067809Y-45726259D01*
X116309714Y-45726259D01*
X116406476Y-45774640D01*
X116454857Y-45823020D01*
X116503238Y-45919782D01*
X116503238Y-46016544D01*
X116454857Y-46161687D01*
X115874285Y-46742259D01*
X116503238Y-46742259D01*
X116841904Y-45726259D02*
X117470857Y-45726259D01*
X117132190Y-46113306D01*
X117277333Y-46113306D01*
X117374095Y-46161687D01*
X117422476Y-46210068D01*
X117470857Y-46306830D01*
X117470857Y-46548735D01*
X117422476Y-46645497D01*
X117374095Y-46693878D01*
X117277333Y-46742259D01*
X116987047Y-46742259D01*
X116890285Y-46693878D01*
X116841904Y-46645497D01*
X119260952Y-46645497D02*
X119212571Y-46693878D01*
X119067428Y-46742259D01*
X118970666Y-46742259D01*
X118825523Y-46693878D01*
X118728761Y-46597116D01*
X118680380Y-46500354D01*
X118632000Y-46306830D01*
X118632000Y-46161687D01*
X118680380Y-45968163D01*
X118728761Y-45871401D01*
X118825523Y-45774640D01*
X118970666Y-45726259D01*
X119067428Y-45726259D01*
X119212571Y-45774640D01*
X119260952Y-45823020D01*
X120276952Y-46645497D02*
X120228571Y-46693878D01*
X120083428Y-46742259D01*
X119986666Y-46742259D01*
X119841523Y-46693878D01*
X119744761Y-46597116D01*
X119696380Y-46500354D01*
X119648000Y-46306830D01*
X119648000Y-46161687D01*
X119696380Y-45968163D01*
X119744761Y-45871401D01*
X119841523Y-45774640D01*
X119986666Y-45726259D01*
X120083428Y-45726259D01*
X120228571Y-45774640D01*
X120276952Y-45823020D01*
X121825142Y-46210068D02*
X121970285Y-46258449D01*
X122018666Y-46306830D01*
X122067047Y-46403592D01*
X122067047Y-46548735D01*
X122018666Y-46645497D01*
X121970285Y-46693878D01*
X121873523Y-46742259D01*
X121486476Y-46742259D01*
X121486476Y-45726259D01*
X121825142Y-45726259D01*
X121921904Y-45774640D01*
X121970285Y-45823020D01*
X122018666Y-45919782D01*
X122018666Y-46016544D01*
X121970285Y-46113306D01*
X121921904Y-46161687D01*
X121825142Y-46210068D01*
X121486476Y-46210068D01*
X122696000Y-46258449D02*
X122696000Y-46742259D01*
X122357333Y-45726259D02*
X122696000Y-46258449D01*
X123034666Y-45726259D01*
X123373333Y-46355211D02*
X124147428Y-46355211D01*
X124582857Y-46693878D02*
X124728000Y-46742259D01*
X124969904Y-46742259D01*
X125066666Y-46693878D01*
X125115047Y-46645497D01*
X125163428Y-46548735D01*
X125163428Y-46451973D01*
X125115047Y-46355211D01*
X125066666Y-46306830D01*
X124969904Y-46258449D01*
X124776380Y-46210068D01*
X124679619Y-46161687D01*
X124631238Y-46113306D01*
X124582857Y-46016544D01*
X124582857Y-45919782D01*
X124631238Y-45823020D01*
X124679619Y-45774640D01*
X124776380Y-45726259D01*
X125018285Y-45726259D01*
X125163428Y-45774640D01*
X125550476Y-46451973D02*
X126034285Y-46451973D01*
X125453714Y-46742259D02*
X125792380Y-45726259D01*
X126131047Y-46742259D01*
X139871238Y-41738217D02*
X139822857Y-41786598D01*
X139677714Y-41834979D01*
X139580952Y-41834979D01*
X139435809Y-41786598D01*
X139339047Y-41689836D01*
X139290666Y-41593074D01*
X139242285Y-41399550D01*
X139242285Y-41254407D01*
X139290666Y-41060883D01*
X139339047Y-40964121D01*
X139435809Y-40867360D01*
X139580952Y-40818979D01*
X139677714Y-40818979D01*
X139822857Y-40867360D01*
X139871238Y-40915740D01*
X140306666Y-41834979D02*
X140306666Y-40818979D01*
X140887238Y-41834979D02*
X140451809Y-41254407D01*
X140887238Y-40818979D02*
X140306666Y-41399550D01*
X141177523Y-40818979D02*
X141758095Y-40818979D01*
X141467809Y-41834979D02*
X141467809Y-40818979D01*
X142096761Y-41447931D02*
X142870857Y-41447931D01*
X143354666Y-41834979D02*
X143354666Y-40818979D01*
X143596571Y-40818979D01*
X143741714Y-40867360D01*
X143838476Y-40964121D01*
X143886857Y-41060883D01*
X143935238Y-41254407D01*
X143935238Y-41399550D01*
X143886857Y-41593074D01*
X143838476Y-41689836D01*
X143741714Y-41786598D01*
X143596571Y-41834979D01*
X143354666Y-41834979D01*
X144370666Y-41834979D02*
X144370666Y-40818979D01*
X144854476Y-41834979D02*
X144854476Y-40818979D01*
X145435047Y-41834979D01*
X145435047Y-40818979D01*
X146451047Y-40867360D02*
X146354285Y-40818979D01*
X146209142Y-40818979D01*
X146064000Y-40867360D01*
X145967238Y-40964121D01*
X145918857Y-41060883D01*
X145870476Y-41254407D01*
X145870476Y-41399550D01*
X145918857Y-41593074D01*
X145967238Y-41689836D01*
X146064000Y-41786598D01*
X146209142Y-41834979D01*
X146305904Y-41834979D01*
X146451047Y-41786598D01*
X146499428Y-41738217D01*
X146499428Y-41399550D01*
X146305904Y-41399550D01*
X146934857Y-41834979D02*
X146934857Y-40818979D01*
X147176761Y-40818979D01*
X147321904Y-40867360D01*
X147418666Y-40964121D01*
X147467047Y-41060883D01*
X147515428Y-41254407D01*
X147515428Y-41399550D01*
X147467047Y-41593074D01*
X147418666Y-41689836D01*
X147321904Y-41786598D01*
X147176761Y-41834979D01*
X146934857Y-41834979D01*
X148144380Y-40818979D02*
X148337904Y-40818979D01*
X148434666Y-40867360D01*
X148531428Y-40964121D01*
X148579809Y-41157645D01*
X148579809Y-41496312D01*
X148531428Y-41689836D01*
X148434666Y-41786598D01*
X148337904Y-41834979D01*
X148144380Y-41834979D01*
X148047619Y-41786598D01*
X147950857Y-41689836D01*
X147902476Y-41496312D01*
X147902476Y-41157645D01*
X147950857Y-40964121D01*
X148047619Y-40867360D01*
X148144380Y-40818979D01*
X149015238Y-41834979D02*
X149015238Y-40818979D01*
X149595809Y-41834979D01*
X149595809Y-40818979D01*
X150611809Y-40867360D02*
X150515047Y-40818979D01*
X150369904Y-40818979D01*
X150224761Y-40867360D01*
X150128000Y-40964121D01*
X150079619Y-41060883D01*
X150031238Y-41254407D01*
X150031238Y-41399550D01*
X150079619Y-41593074D01*
X150128000Y-41689836D01*
X150224761Y-41786598D01*
X150369904Y-41834979D01*
X150466666Y-41834979D01*
X150611809Y-41786598D01*
X150660190Y-41738217D01*
X150660190Y-41399550D01*
X150466666Y-41399550D01*
X151095619Y-41447931D02*
X151869714Y-41447931D01*
X152305142Y-41786598D02*
X152450285Y-41834979D01*
X152692190Y-41834979D01*
X152788952Y-41786598D01*
X152837333Y-41738217D01*
X152885714Y-41641455D01*
X152885714Y-41544693D01*
X152837333Y-41447931D01*
X152788952Y-41399550D01*
X152692190Y-41351169D01*
X152498666Y-41302788D01*
X152401904Y-41254407D01*
X152353523Y-41206026D01*
X152305142Y-41109264D01*
X152305142Y-41012502D01*
X152353523Y-40915740D01*
X152401904Y-40867360D01*
X152498666Y-40818979D01*
X152740571Y-40818979D01*
X152885714Y-40867360D01*
X153321142Y-41834979D02*
X153321142Y-40818979D01*
X153708190Y-40818979D01*
X153804952Y-40867360D01*
X153853333Y-40915740D01*
X153901714Y-41012502D01*
X153901714Y-41157645D01*
X153853333Y-41254407D01*
X153804952Y-41302788D01*
X153708190Y-41351169D01*
X153321142Y-41351169D01*
X154337142Y-41834979D02*
X154337142Y-40818979D01*
X154917714Y-41834979D02*
X154482285Y-41254407D01*
X154917714Y-40818979D02*
X154337142Y-41399550D01*
X145628571Y-42793405D02*
X145870476Y-43470739D01*
X146112380Y-42793405D01*
X146451047Y-42551500D02*
X146499428Y-42503120D01*
X146596190Y-42454739D01*
X146838095Y-42454739D01*
X146934857Y-42503120D01*
X146983238Y-42551500D01*
X147031619Y-42648262D01*
X147031619Y-42745024D01*
X146983238Y-42890167D01*
X146402666Y-43470739D01*
X147031619Y-43470739D01*
X147467047Y-43373977D02*
X147515428Y-43422358D01*
X147467047Y-43470739D01*
X147418666Y-43422358D01*
X147467047Y-43373977D01*
X147467047Y-43470739D01*
X148144380Y-42454739D02*
X148241142Y-42454739D01*
X148337904Y-42503120D01*
X148386285Y-42551500D01*
X148434666Y-42648262D01*
X148483047Y-42841786D01*
X148483047Y-43083691D01*
X148434666Y-43277215D01*
X148386285Y-43373977D01*
X148337904Y-43422358D01*
X148241142Y-43470739D01*
X148144380Y-43470739D01*
X148047619Y-43422358D01*
X147999238Y-43373977D01*
X147950857Y-43277215D01*
X147902476Y-43083691D01*
X147902476Y-42841786D01*
X147950857Y-42648262D01*
X147999238Y-42551500D01*
X148047619Y-42503120D01*
X148144380Y-42454739D01*
X137887619Y-45106499D02*
X137887619Y-44090499D01*
X138516571Y-45106499D02*
X138419809Y-45058118D01*
X138371428Y-45009737D01*
X138323047Y-44912975D01*
X138323047Y-44622689D01*
X138371428Y-44525927D01*
X138419809Y-44477546D01*
X138516571Y-44429165D01*
X138661714Y-44429165D01*
X138758476Y-44477546D01*
X138806857Y-44525927D01*
X138855238Y-44622689D01*
X138855238Y-44912975D01*
X138806857Y-45009737D01*
X138758476Y-45058118D01*
X138661714Y-45106499D01*
X138516571Y-45106499D01*
X139193904Y-44429165D02*
X139387428Y-45106499D01*
X139580952Y-44622689D01*
X139774476Y-45106499D01*
X139968000Y-44429165D01*
X140790476Y-45106499D02*
X140790476Y-44574308D01*
X140742095Y-44477546D01*
X140645333Y-44429165D01*
X140451809Y-44429165D01*
X140355047Y-44477546D01*
X140790476Y-45058118D02*
X140693714Y-45106499D01*
X140451809Y-45106499D01*
X140355047Y-45058118D01*
X140306666Y-44961356D01*
X140306666Y-44864594D01*
X140355047Y-44767832D01*
X140451809Y-44719451D01*
X140693714Y-44719451D01*
X140790476Y-44671070D01*
X142000000Y-45058118D02*
X142145142Y-45106499D01*
X142387047Y-45106499D01*
X142483809Y-45058118D01*
X142532190Y-45009737D01*
X142580571Y-44912975D01*
X142580571Y-44816213D01*
X142532190Y-44719451D01*
X142483809Y-44671070D01*
X142387047Y-44622689D01*
X142193523Y-44574308D01*
X142096761Y-44525927D01*
X142048380Y-44477546D01*
X142000000Y-44380784D01*
X142000000Y-44284022D01*
X142048380Y-44187260D01*
X142096761Y-44138880D01*
X142193523Y-44090499D01*
X142435428Y-44090499D01*
X142580571Y-44138880D01*
X143451428Y-45058118D02*
X143354666Y-45106499D01*
X143161142Y-45106499D01*
X143064380Y-45058118D01*
X143016000Y-45009737D01*
X142967619Y-44912975D01*
X142967619Y-44622689D01*
X143016000Y-44525927D01*
X143064380Y-44477546D01*
X143161142Y-44429165D01*
X143354666Y-44429165D01*
X143451428Y-44477546D01*
X144322285Y-45106499D02*
X144322285Y-44574308D01*
X144273904Y-44477546D01*
X144177142Y-44429165D01*
X143983619Y-44429165D01*
X143886857Y-44477546D01*
X144322285Y-45058118D02*
X144225523Y-45106499D01*
X143983619Y-45106499D01*
X143886857Y-45058118D01*
X143838476Y-44961356D01*
X143838476Y-44864594D01*
X143886857Y-44767832D01*
X143983619Y-44719451D01*
X144225523Y-44719451D01*
X144322285Y-44671070D01*
X144951238Y-45106499D02*
X144854476Y-45058118D01*
X144806095Y-44961356D01*
X144806095Y-44090499D01*
X145725333Y-45058118D02*
X145628571Y-45106499D01*
X145435047Y-45106499D01*
X145338285Y-45058118D01*
X145289904Y-44961356D01*
X145289904Y-44574308D01*
X145338285Y-44477546D01*
X145435047Y-44429165D01*
X145628571Y-44429165D01*
X145725333Y-44477546D01*
X145773714Y-44574308D01*
X145773714Y-44671070D01*
X145289904Y-44767832D01*
X146644571Y-45106499D02*
X146644571Y-44090499D01*
X146644571Y-45058118D02*
X146547809Y-45106499D01*
X146354285Y-45106499D01*
X146257523Y-45058118D01*
X146209142Y-45009737D01*
X146160761Y-44912975D01*
X146160761Y-44622689D01*
X146209142Y-44525927D01*
X146257523Y-44477546D01*
X146354285Y-44429165D01*
X146547809Y-44429165D01*
X146644571Y-44477546D01*
X147902476Y-44574308D02*
X148241142Y-44574308D01*
X148386285Y-45106499D02*
X147902476Y-45106499D01*
X147902476Y-44090499D01*
X148386285Y-44090499D01*
X148821714Y-44429165D02*
X148821714Y-45106499D01*
X148821714Y-44525927D02*
X148870095Y-44477546D01*
X148966857Y-44429165D01*
X149112000Y-44429165D01*
X149208761Y-44477546D01*
X149257142Y-44574308D01*
X149257142Y-45106499D01*
X150176380Y-44429165D02*
X150176380Y-45251641D01*
X150128000Y-45348403D01*
X150079619Y-45396784D01*
X149982857Y-45445165D01*
X149837714Y-45445165D01*
X149740952Y-45396784D01*
X150176380Y-45058118D02*
X150079619Y-45106499D01*
X149886095Y-45106499D01*
X149789333Y-45058118D01*
X149740952Y-45009737D01*
X149692571Y-44912975D01*
X149692571Y-44622689D01*
X149740952Y-44525927D01*
X149789333Y-44477546D01*
X149886095Y-44429165D01*
X150079619Y-44429165D01*
X150176380Y-44477546D01*
X150660190Y-45106499D02*
X150660190Y-44429165D01*
X150660190Y-44090499D02*
X150611809Y-44138880D01*
X150660190Y-44187260D01*
X150708571Y-44138880D01*
X150660190Y-44090499D01*
X150660190Y-44187260D01*
X151144000Y-44429165D02*
X151144000Y-45106499D01*
X151144000Y-44525927D02*
X151192380Y-44477546D01*
X151289142Y-44429165D01*
X151434285Y-44429165D01*
X151531047Y-44477546D01*
X151579428Y-44574308D01*
X151579428Y-45106499D01*
X152450285Y-45058118D02*
X152353523Y-45106499D01*
X152160000Y-45106499D01*
X152063238Y-45058118D01*
X152014857Y-44961356D01*
X152014857Y-44574308D01*
X152063238Y-44477546D01*
X152160000Y-44429165D01*
X152353523Y-44429165D01*
X152450285Y-44477546D01*
X152498666Y-44574308D01*
X152498666Y-44671070D01*
X152014857Y-44767832D01*
X153321142Y-45058118D02*
X153224380Y-45106499D01*
X153030857Y-45106499D01*
X152934095Y-45058118D01*
X152885714Y-44961356D01*
X152885714Y-44574308D01*
X152934095Y-44477546D01*
X153030857Y-44429165D01*
X153224380Y-44429165D01*
X153321142Y-44477546D01*
X153369523Y-44574308D01*
X153369523Y-44671070D01*
X152885714Y-44767832D01*
X153804952Y-45106499D02*
X153804952Y-44429165D01*
X153804952Y-44622689D02*
X153853333Y-44525927D01*
X153901714Y-44477546D01*
X153998476Y-44429165D01*
X154095238Y-44429165D01*
X154433904Y-45106499D02*
X154433904Y-44429165D01*
X154433904Y-44090499D02*
X154385523Y-44138880D01*
X154433904Y-44187260D01*
X154482285Y-44138880D01*
X154433904Y-44090499D01*
X154433904Y-44187260D01*
X154917714Y-44429165D02*
X154917714Y-45106499D01*
X154917714Y-44525927D02*
X154966095Y-44477546D01*
X155062857Y-44429165D01*
X155208000Y-44429165D01*
X155304761Y-44477546D01*
X155353142Y-44574308D01*
X155353142Y-45106499D01*
X156272380Y-44429165D02*
X156272380Y-45251641D01*
X156224000Y-45348403D01*
X156175619Y-45396784D01*
X156078857Y-45445165D01*
X155933714Y-45445165D01*
X155836952Y-45396784D01*
X156272380Y-45058118D02*
X156175619Y-45106499D01*
X155982095Y-45106499D01*
X155885333Y-45058118D01*
X155836952Y-45009737D01*
X155788571Y-44912975D01*
X155788571Y-44622689D01*
X155836952Y-44525927D01*
X155885333Y-44477546D01*
X155982095Y-44429165D01*
X156175619Y-44429165D01*
X156272380Y-44477546D01*
X141056571Y-45968163D02*
X140959809Y-45919782D01*
X140766285Y-45919782D01*
X140669523Y-45968163D01*
X140572761Y-46064925D01*
X140524380Y-46161687D01*
X140524380Y-46355211D01*
X140572761Y-46451973D01*
X140669523Y-46548735D01*
X140766285Y-46597116D01*
X140959809Y-46597116D01*
X141056571Y-46548735D01*
X140863047Y-45581116D02*
X140621142Y-45629497D01*
X140379238Y-45774640D01*
X140234095Y-46016544D01*
X140185714Y-46258449D01*
X140234095Y-46500354D01*
X140379238Y-46742259D01*
X140621142Y-46887401D01*
X140863047Y-46935782D01*
X141104952Y-46887401D01*
X141346857Y-46742259D01*
X141492000Y-46500354D01*
X141540380Y-46258449D01*
X141492000Y-46016544D01*
X141346857Y-45774640D01*
X141104952Y-45629497D01*
X140863047Y-45581116D01*
X141927428Y-45823020D02*
X141975809Y-45774640D01*
X142072571Y-45726259D01*
X142314476Y-45726259D01*
X142411238Y-45774640D01*
X142459619Y-45823020D01*
X142508000Y-45919782D01*
X142508000Y-46016544D01*
X142459619Y-46161687D01*
X141879047Y-46742259D01*
X142508000Y-46742259D01*
X143136952Y-45726259D02*
X143233714Y-45726259D01*
X143330476Y-45774640D01*
X143378857Y-45823020D01*
X143427238Y-45919782D01*
X143475619Y-46113306D01*
X143475619Y-46355211D01*
X143427238Y-46548735D01*
X143378857Y-46645497D01*
X143330476Y-46693878D01*
X143233714Y-46742259D01*
X143136952Y-46742259D01*
X143040190Y-46693878D01*
X142991809Y-46645497D01*
X142943428Y-46548735D01*
X142895047Y-46355211D01*
X142895047Y-46113306D01*
X142943428Y-45919782D01*
X142991809Y-45823020D01*
X143040190Y-45774640D01*
X143136952Y-45726259D01*
X143862666Y-45823020D02*
X143911047Y-45774640D01*
X144007809Y-45726259D01*
X144249714Y-45726259D01*
X144346476Y-45774640D01*
X144394857Y-45823020D01*
X144443238Y-45919782D01*
X144443238Y-46016544D01*
X144394857Y-46161687D01*
X143814285Y-46742259D01*
X144443238Y-46742259D01*
X144781904Y-45726259D02*
X145410857Y-45726259D01*
X145072190Y-46113306D01*
X145217333Y-46113306D01*
X145314095Y-46161687D01*
X145362476Y-46210068D01*
X145410857Y-46306830D01*
X145410857Y-46548735D01*
X145362476Y-46645497D01*
X145314095Y-46693878D01*
X145217333Y-46742259D01*
X144927047Y-46742259D01*
X144830285Y-46693878D01*
X144781904Y-46645497D01*
X147200952Y-46645497D02*
X147152571Y-46693878D01*
X147007428Y-46742259D01*
X146910666Y-46742259D01*
X146765523Y-46693878D01*
X146668761Y-46597116D01*
X146620380Y-46500354D01*
X146572000Y-46306830D01*
X146572000Y-46161687D01*
X146620380Y-45968163D01*
X146668761Y-45871401D01*
X146765523Y-45774640D01*
X146910666Y-45726259D01*
X147007428Y-45726259D01*
X147152571Y-45774640D01*
X147200952Y-45823020D01*
X148216952Y-46645497D02*
X148168571Y-46693878D01*
X148023428Y-46742259D01*
X147926666Y-46742259D01*
X147781523Y-46693878D01*
X147684761Y-46597116D01*
X147636380Y-46500354D01*
X147588000Y-46306830D01*
X147588000Y-46161687D01*
X147636380Y-45968163D01*
X147684761Y-45871401D01*
X147781523Y-45774640D01*
X147926666Y-45726259D01*
X148023428Y-45726259D01*
X148168571Y-45774640D01*
X148216952Y-45823020D01*
X149765142Y-46210068D02*
X149910285Y-46258449D01*
X149958666Y-46306830D01*
X150007047Y-46403592D01*
X150007047Y-46548735D01*
X149958666Y-46645497D01*
X149910285Y-46693878D01*
X149813523Y-46742259D01*
X149426476Y-46742259D01*
X149426476Y-45726259D01*
X149765142Y-45726259D01*
X149861904Y-45774640D01*
X149910285Y-45823020D01*
X149958666Y-45919782D01*
X149958666Y-46016544D01*
X149910285Y-46113306D01*
X149861904Y-46161687D01*
X149765142Y-46210068D01*
X149426476Y-46210068D01*
X150636000Y-46258449D02*
X150636000Y-46742259D01*
X150297333Y-45726259D02*
X150636000Y-46258449D01*
X150974666Y-45726259D01*
X151313333Y-46355211D02*
X152087428Y-46355211D01*
X152522857Y-46693878D02*
X152668000Y-46742259D01*
X152909904Y-46742259D01*
X153006666Y-46693878D01*
X153055047Y-46645497D01*
X153103428Y-46548735D01*
X153103428Y-46451973D01*
X153055047Y-46355211D01*
X153006666Y-46306830D01*
X152909904Y-46258449D01*
X152716380Y-46210068D01*
X152619619Y-46161687D01*
X152571238Y-46113306D01*
X152522857Y-46016544D01*
X152522857Y-45919782D01*
X152571238Y-45823020D01*
X152619619Y-45774640D01*
X152716380Y-45726259D01*
X152958285Y-45726259D01*
X153103428Y-45774640D01*
X153490476Y-46451973D02*
X153974285Y-46451973D01*
X153393714Y-46742259D02*
X153732380Y-45726259D01*
X154071047Y-46742259D01*
D11*
X29354380Y-35653333D02*
X30068666Y-35653333D01*
X30211523Y-35700952D01*
X30306761Y-35796190D01*
X30354380Y-35939047D01*
X30354380Y-36034285D01*
X30354380Y-34653333D02*
X30354380Y-35224761D01*
X30354380Y-34939047D02*
X29354380Y-34939047D01*
X29497238Y-35034285D01*
X29592476Y-35129523D01*
X29640095Y-35224761D01*
X141114380Y-35653333D02*
X141828666Y-35653333D01*
X141971523Y-35700952D01*
X142066761Y-35796190D01*
X142114380Y-35939047D01*
X142114380Y-36034285D01*
X142114380Y-34653333D02*
X142114380Y-35224761D01*
X142114380Y-34939047D02*
X141114380Y-34939047D01*
X141257238Y-35034285D01*
X141352476Y-35129523D01*
X141400095Y-35224761D01*
X113174380Y-35653333D02*
X113888666Y-35653333D01*
X114031523Y-35700952D01*
X114126761Y-35796190D01*
X114174380Y-35939047D01*
X114174380Y-36034285D01*
X114174380Y-34653333D02*
X114174380Y-35224761D01*
X114174380Y-34939047D02*
X113174380Y-34939047D01*
X113317238Y-35034285D01*
X113412476Y-35129523D01*
X113460095Y-35224761D01*
X85234380Y-35653333D02*
X85948666Y-35653333D01*
X86091523Y-35700952D01*
X86186761Y-35796190D01*
X86234380Y-35939047D01*
X86234380Y-36034285D01*
X86234380Y-34653333D02*
X86234380Y-35224761D01*
X86234380Y-34939047D02*
X85234380Y-34939047D01*
X85377238Y-35034285D01*
X85472476Y-35129523D01*
X85520095Y-35224761D01*
X57294380Y-35653333D02*
X58008666Y-35653333D01*
X58151523Y-35700952D01*
X58246761Y-35796190D01*
X58294380Y-35939047D01*
X58294380Y-36034285D01*
X58294380Y-34653333D02*
X58294380Y-35224761D01*
X58294380Y-34939047D02*
X57294380Y-34939047D01*
X57437238Y-35034285D01*
X57532476Y-35129523D01*
X57580095Y-35224761D01*
D12*
X27707000Y-33260000D02*
X28697000Y-33260000D01*
X25207000Y-32210000D02*
X27707000Y-32210000D01*
X23237000Y-33380000D02*
X23237000Y-37260000D01*
X27707000Y-32210000D02*
X27707000Y-33260000D01*
X27707000Y-38430000D02*
X27707000Y-37380000D01*
X25207000Y-38430000D02*
X27707000Y-38430000D01*
X139467000Y-32210000D02*
X139467000Y-33260000D01*
X139467000Y-33260000D02*
X140457000Y-33260000D01*
X139467000Y-38430000D02*
X139467000Y-37380000D01*
X136967000Y-38430000D02*
X139467000Y-38430000D01*
X134997000Y-33380000D02*
X134997000Y-37260000D01*
X136967000Y-32210000D02*
X139467000Y-32210000D01*
X111527000Y-32210000D02*
X111527000Y-33260000D01*
X107057000Y-33380000D02*
X107057000Y-37260000D01*
X111527000Y-33260000D02*
X112517000Y-33260000D01*
X109027000Y-38430000D02*
X111527000Y-38430000D01*
X111527000Y-38430000D02*
X111527000Y-37380000D01*
X109027000Y-32210000D02*
X111527000Y-32210000D01*
X81087000Y-38430000D02*
X83587000Y-38430000D01*
X83587000Y-33260000D02*
X84577000Y-33260000D01*
X81087000Y-32210000D02*
X83587000Y-32210000D01*
X83587000Y-38430000D02*
X83587000Y-37380000D01*
X83587000Y-32210000D02*
X83587000Y-33260000D01*
X79117000Y-33380000D02*
X79117000Y-37260000D01*
X55647000Y-38430000D02*
X55647000Y-37380000D01*
X51177000Y-33380000D02*
X51177000Y-37260000D01*
X53147000Y-38430000D02*
X55647000Y-38430000D01*
X55647000Y-32210000D02*
X55647000Y-33260000D01*
X53147000Y-32210000D02*
X55647000Y-32210000D01*
X55647000Y-33260000D02*
X56637000Y-33260000D01*
M02*
