M48
INCH,TZ
T1C0.0197
%
G90
G05
T1
X5906Y-8906
X5906Y-18906
X6239Y-8906
X6239Y-18906
X6572Y-8906
X6572Y-18906
X6906Y-8906
X6906Y-18906
X7239Y-8906
X7239Y-18906
X7572Y-8906
X7572Y-18906
X7906Y-8906
X7906Y-18906
X8906Y-5906
X8906Y-6239
X8906Y-6572
X8906Y-6906
X8906Y-7239
X8906Y-7572
X8906Y-7906
X8906Y-19906
X8906Y-20239
X8906Y-20572
X8906Y-20906
X8906Y-21239
X8906Y-21572
X8906Y-21906
X13406Y-8906
X13406Y-18906
X13739Y-8906
X13739Y-18906
X14072Y-8906
X14072Y-18906
X14406Y-8906
X14406Y-18906
X24406Y-8906
X24406Y-18906
X24739Y-8906
X24739Y-18906
X25072Y-8906
X25072Y-18906
X25406Y-8906
X25406Y-18906
X35406Y-8906
X35406Y-18906
X35739Y-8906
X35739Y-18906
X36072Y-8906
X36072Y-18906
X36406Y-8906
X36406Y-18906
X46406Y-8906
X46406Y-18906
X46739Y-8906
X46739Y-18906
X47072Y-8906
X47072Y-18906
X47406Y-8906
X47406Y-18906
X57406Y-8906
X57406Y-18906
X57739Y-8906
X57739Y-18906
X58072Y-8906
X58072Y-18906
X58406Y-8906
X58406Y-18906
X62906Y-5906
X62906Y-6239
X62906Y-6572
X62906Y-6906
X62906Y-7239
X62906Y-7572
X62906Y-7906
X62906Y-19906
X62906Y-20239
X62906Y-20572
X62906Y-20906
X62906Y-21239
X62906Y-21572
X62906Y-21906
X63906Y-8906
X63906Y-18906
X64239Y-8906
X64239Y-18906
X64572Y-8906
X64572Y-18906
X64906Y-8906
X64906Y-18906
X65239Y-8906
X65239Y-18906
X65572Y-8906
X65572Y-18906
X65906Y-8906
X65906Y-18906
T0
M30
