G04 #@! TF.GenerationSoftware,KiCad,Pcbnew,6.0.2+dfsg-1*
G04 #@! TF.CreationDate,2023-06-21T21:29:58-06:00*
G04 #@! TF.ProjectId,ckt-dingdong-spk-array,636b742d-6469-46e6-9764-6f6e672d7370,rev?*
G04 #@! TF.SameCoordinates,Original*
G04 #@! TF.FileFunction,Legend,Bot*
G04 #@! TF.FilePolarity,Positive*
%FSLAX46Y46*%
G04 Gerber Fmt 4.6, Leading zero omitted, Abs format (unit mm)*
G04 Created by KiCad (PCBNEW 6.0.2+dfsg-1) date 2023-06-21 21:29:58*
%MOMM*%
%LPD*%
G01*
G04 APERTURE LIST*
%ADD10C,0.150000*%
%ADD11C,0.120000*%
G04 APERTURE END LIST*
D10*
X120901904Y-32684761D02*
X120759047Y-32732380D01*
X120520952Y-32732380D01*
X120425714Y-32684761D01*
X120378095Y-32637142D01*
X120330476Y-32541904D01*
X120330476Y-32446666D01*
X120378095Y-32351428D01*
X120425714Y-32303809D01*
X120520952Y-32256190D01*
X120711428Y-32208571D01*
X120806666Y-32160952D01*
X120854285Y-32113333D01*
X120901904Y-32018095D01*
X120901904Y-31922857D01*
X120854285Y-31827619D01*
X120806666Y-31780000D01*
X120711428Y-31732380D01*
X120473333Y-31732380D01*
X120330476Y-31780000D01*
X119901904Y-32732380D02*
X119901904Y-31732380D01*
X119520952Y-31732380D01*
X119425714Y-31780000D01*
X119378095Y-31827619D01*
X119330476Y-31922857D01*
X119330476Y-32065714D01*
X119378095Y-32160952D01*
X119425714Y-32208571D01*
X119520952Y-32256190D01*
X119901904Y-32256190D01*
X118901904Y-32732380D02*
X118901904Y-31732380D01*
X118330476Y-32732380D02*
X118759047Y-32160952D01*
X118330476Y-31732380D02*
X118901904Y-32303809D01*
X117378095Y-32732380D02*
X117949523Y-32732380D01*
X117663809Y-32732380D02*
X117663809Y-31732380D01*
X117759047Y-31875238D01*
X117854285Y-31970476D01*
X117949523Y-32018095D01*
X37081904Y-32684761D02*
X36939047Y-32732380D01*
X36700952Y-32732380D01*
X36605714Y-32684761D01*
X36558095Y-32637142D01*
X36510476Y-32541904D01*
X36510476Y-32446666D01*
X36558095Y-32351428D01*
X36605714Y-32303809D01*
X36700952Y-32256190D01*
X36891428Y-32208571D01*
X36986666Y-32160952D01*
X37034285Y-32113333D01*
X37081904Y-32018095D01*
X37081904Y-31922857D01*
X37034285Y-31827619D01*
X36986666Y-31780000D01*
X36891428Y-31732380D01*
X36653333Y-31732380D01*
X36510476Y-31780000D01*
X36081904Y-32732380D02*
X36081904Y-31732380D01*
X35700952Y-31732380D01*
X35605714Y-31780000D01*
X35558095Y-31827619D01*
X35510476Y-31922857D01*
X35510476Y-32065714D01*
X35558095Y-32160952D01*
X35605714Y-32208571D01*
X35700952Y-32256190D01*
X36081904Y-32256190D01*
X35081904Y-32732380D02*
X35081904Y-31732380D01*
X34510476Y-32732380D02*
X34939047Y-32160952D01*
X34510476Y-31732380D02*
X35081904Y-32303809D01*
X33558095Y-32732380D02*
X34129523Y-32732380D01*
X33843809Y-32732380D02*
X33843809Y-31732380D01*
X33939047Y-31875238D01*
X34034285Y-31970476D01*
X34129523Y-32018095D01*
X92961904Y-32684761D02*
X92819047Y-32732380D01*
X92580952Y-32732380D01*
X92485714Y-32684761D01*
X92438095Y-32637142D01*
X92390476Y-32541904D01*
X92390476Y-32446666D01*
X92438095Y-32351428D01*
X92485714Y-32303809D01*
X92580952Y-32256190D01*
X92771428Y-32208571D01*
X92866666Y-32160952D01*
X92914285Y-32113333D01*
X92961904Y-32018095D01*
X92961904Y-31922857D01*
X92914285Y-31827619D01*
X92866666Y-31780000D01*
X92771428Y-31732380D01*
X92533333Y-31732380D01*
X92390476Y-31780000D01*
X91961904Y-32732380D02*
X91961904Y-31732380D01*
X91580952Y-31732380D01*
X91485714Y-31780000D01*
X91438095Y-31827619D01*
X91390476Y-31922857D01*
X91390476Y-32065714D01*
X91438095Y-32160952D01*
X91485714Y-32208571D01*
X91580952Y-32256190D01*
X91961904Y-32256190D01*
X90961904Y-32732380D02*
X90961904Y-31732380D01*
X90390476Y-32732380D02*
X90819047Y-32160952D01*
X90390476Y-31732380D02*
X90961904Y-32303809D01*
X89438095Y-32732380D02*
X90009523Y-32732380D01*
X89723809Y-32732380D02*
X89723809Y-31732380D01*
X89819047Y-31875238D01*
X89914285Y-31970476D01*
X90009523Y-32018095D01*
X65021904Y-32684761D02*
X64879047Y-32732380D01*
X64640952Y-32732380D01*
X64545714Y-32684761D01*
X64498095Y-32637142D01*
X64450476Y-32541904D01*
X64450476Y-32446666D01*
X64498095Y-32351428D01*
X64545714Y-32303809D01*
X64640952Y-32256190D01*
X64831428Y-32208571D01*
X64926666Y-32160952D01*
X64974285Y-32113333D01*
X65021904Y-32018095D01*
X65021904Y-31922857D01*
X64974285Y-31827619D01*
X64926666Y-31780000D01*
X64831428Y-31732380D01*
X64593333Y-31732380D01*
X64450476Y-31780000D01*
X64021904Y-32732380D02*
X64021904Y-31732380D01*
X63640952Y-31732380D01*
X63545714Y-31780000D01*
X63498095Y-31827619D01*
X63450476Y-31922857D01*
X63450476Y-32065714D01*
X63498095Y-32160952D01*
X63545714Y-32208571D01*
X63640952Y-32256190D01*
X64021904Y-32256190D01*
X63021904Y-32732380D02*
X63021904Y-31732380D01*
X62450476Y-32732380D02*
X62879047Y-32160952D01*
X62450476Y-31732380D02*
X63021904Y-32303809D01*
X61498095Y-32732380D02*
X62069523Y-32732380D01*
X61783809Y-32732380D02*
X61783809Y-31732380D01*
X61879047Y-31875238D01*
X61974285Y-31970476D01*
X62069523Y-32018095D01*
X148841904Y-32684761D02*
X148699047Y-32732380D01*
X148460952Y-32732380D01*
X148365714Y-32684761D01*
X148318095Y-32637142D01*
X148270476Y-32541904D01*
X148270476Y-32446666D01*
X148318095Y-32351428D01*
X148365714Y-32303809D01*
X148460952Y-32256190D01*
X148651428Y-32208571D01*
X148746666Y-32160952D01*
X148794285Y-32113333D01*
X148841904Y-32018095D01*
X148841904Y-31922857D01*
X148794285Y-31827619D01*
X148746666Y-31780000D01*
X148651428Y-31732380D01*
X148413333Y-31732380D01*
X148270476Y-31780000D01*
X147841904Y-32732380D02*
X147841904Y-31732380D01*
X147460952Y-31732380D01*
X147365714Y-31780000D01*
X147318095Y-31827619D01*
X147270476Y-31922857D01*
X147270476Y-32065714D01*
X147318095Y-32160952D01*
X147365714Y-32208571D01*
X147460952Y-32256190D01*
X147841904Y-32256190D01*
X146841904Y-32732380D02*
X146841904Y-31732380D01*
X146270476Y-32732380D02*
X146699047Y-32160952D01*
X146270476Y-31732380D02*
X146841904Y-32303809D01*
X145318095Y-32732380D02*
X145889523Y-32732380D01*
X145603809Y-32732380D02*
X145603809Y-31732380D01*
X145699047Y-31875238D01*
X145794285Y-31970476D01*
X145889523Y-32018095D01*
D11*
X110140000Y-29280000D02*
X110140000Y-39280000D01*
X110140000Y-39280000D02*
X128140000Y-39280000D01*
X125140000Y-26280000D02*
X113140000Y-26280000D01*
X128140000Y-39280000D02*
X128140000Y-29280000D01*
X26320000Y-39280000D02*
X44320000Y-39280000D01*
X26320000Y-29280000D02*
X26320000Y-39280000D01*
X41320000Y-26280000D02*
X29320000Y-26280000D01*
X44320000Y-39280000D02*
X44320000Y-29280000D01*
X82200000Y-29280000D02*
X82200000Y-39280000D01*
X97200000Y-26280000D02*
X85200000Y-26280000D01*
X82200000Y-39280000D02*
X100200000Y-39280000D01*
X100200000Y-39280000D02*
X100200000Y-29280000D01*
X54260000Y-29280000D02*
X54260000Y-39280000D01*
X54260000Y-39280000D02*
X72260000Y-39280000D01*
X72260000Y-39280000D02*
X72260000Y-29280000D01*
X69260000Y-26280000D02*
X57260000Y-26280000D01*
X138080000Y-29280000D02*
X138080000Y-39280000D01*
X138080000Y-39280000D02*
X156080000Y-39280000D01*
X156080000Y-39280000D02*
X156080000Y-29280000D01*
X153080000Y-26280000D02*
X141080000Y-26280000D01*
M02*
