G04 #@! TF.GenerationSoftware,KiCad,Pcbnew,6.0.2+dfsg-1*
G04 #@! TF.CreationDate,2023-06-21T21:29:58-06:00*
G04 #@! TF.ProjectId,ckt-dingdong-spk-array,636b742d-6469-46e6-9764-6f6e672d7370,rev?*
G04 #@! TF.SameCoordinates,Original*
G04 #@! TF.FileFunction,Soldermask,Bot*
G04 #@! TF.FilePolarity,Negative*
%FSLAX46Y46*%
G04 Gerber Fmt 4.6, Leading zero omitted, Abs format (unit mm)*
G04 Created by KiCad (PCBNEW 6.0.2+dfsg-1) date 2023-06-21 21:29:58*
%MOMM*%
%LPD*%
G01*
G04 APERTURE LIST*
%ADD10C,0.500000*%
%ADD11C,2.000000*%
G04 APERTURE END LIST*
D10*
X164013333Y-22620000D03*
X22620000Y-54793333D03*
X22620000Y-17540000D03*
X148350000Y-22620000D03*
X90776666Y-22620000D03*
X117870000Y-22620000D03*
X147503333Y-48020000D03*
X159780000Y-51406666D03*
X163166666Y-48020000D03*
X159780000Y-15846667D03*
X34050000Y-22620000D03*
X166553333Y-48020000D03*
X22620000Y-55640000D03*
X64530000Y-48020000D03*
X22620000Y-15846667D03*
X34896667Y-48020000D03*
X166553333Y-22620000D03*
X159780000Y-55640000D03*
X162320000Y-22620000D03*
X162320000Y-48020000D03*
X119563333Y-48020000D03*
X159780000Y-54793333D03*
X145810000Y-48020000D03*
X15846667Y-22620000D03*
X119563333Y-22620000D03*
X16693334Y-48020000D03*
X35743333Y-48020000D03*
X20080000Y-22620000D03*
X92470000Y-22620000D03*
X22620000Y-18386667D03*
X159780000Y-50560000D03*
X118716666Y-22620000D03*
X61990000Y-48020000D03*
X159780000Y-53100000D03*
X159780000Y-53946666D03*
X165706666Y-22620000D03*
X64530000Y-22620000D03*
X165706666Y-48020000D03*
X15000000Y-22620000D03*
X16693334Y-22620000D03*
X147503333Y-22620000D03*
X163166666Y-22620000D03*
X145810000Y-22620000D03*
X146656666Y-48020000D03*
X63683333Y-48020000D03*
X22620000Y-19233334D03*
X61990000Y-22620000D03*
X164013333Y-48020000D03*
X117870000Y-48020000D03*
X62836666Y-48020000D03*
X120410000Y-22620000D03*
X90776666Y-48020000D03*
X159780000Y-18386667D03*
X18386667Y-48020000D03*
X22620000Y-16693334D03*
X159780000Y-52253333D03*
X22620000Y-15000000D03*
X15846667Y-48020000D03*
X20080000Y-48020000D03*
X159780000Y-16693334D03*
X164860000Y-22620000D03*
X22620000Y-51406666D03*
X22620000Y-53946666D03*
X63683333Y-22620000D03*
X17540000Y-22620000D03*
X159780000Y-19233334D03*
X19233334Y-48020000D03*
X89930000Y-22620000D03*
X15000000Y-48020000D03*
X62836666Y-22620000D03*
X36590000Y-22620000D03*
X159780000Y-20080000D03*
X148350000Y-48020000D03*
X17540000Y-48020000D03*
X22620000Y-52253333D03*
X34896667Y-22620000D03*
X19233334Y-22620000D03*
X164860000Y-48020000D03*
X159780000Y-15000000D03*
X22620000Y-50560000D03*
X146656666Y-22620000D03*
X92470000Y-48020000D03*
X22620000Y-20080000D03*
X118716666Y-48020000D03*
X18386667Y-22620000D03*
X89930000Y-48020000D03*
X36590000Y-48020000D03*
X34050000Y-48020000D03*
X91623333Y-48020000D03*
X22620000Y-53100000D03*
X91623333Y-22620000D03*
X167400000Y-22620000D03*
X120410000Y-48020000D03*
X35743333Y-22620000D03*
X167400000Y-48020000D03*
X159780000Y-17540000D03*
D11*
X17540000Y-45480000D03*
X17540000Y-25160000D03*
G36*
G01*
X128216200Y-26905000D02*
X128216200Y-28155000D01*
G75*
G02*
X127515000Y-28856200I-701200J0D01*
G01*
X126265000Y-28856200D01*
G75*
G02*
X125563800Y-28155000I0J701200D01*
G01*
X125563800Y-26905000D01*
G75*
G02*
X126265000Y-26203800I701200J0D01*
G01*
X127515000Y-26203800D01*
G75*
G02*
X128216200Y-26905000I0J-701200D01*
G01*
G37*
G36*
G01*
X112716200Y-26905000D02*
X112716200Y-28155000D01*
G75*
G02*
X112015000Y-28856200I-701200J0D01*
G01*
X110765000Y-28856200D01*
G75*
G02*
X110063800Y-28155000I0J701200D01*
G01*
X110063800Y-26905000D01*
G75*
G02*
X110765000Y-26203800I701200J0D01*
G01*
X112015000Y-26203800D01*
G75*
G02*
X112716200Y-26905000I0J-701200D01*
G01*
G37*
G36*
G01*
X44396200Y-26905000D02*
X44396200Y-28155000D01*
G75*
G02*
X43695000Y-28856200I-701200J0D01*
G01*
X42445000Y-28856200D01*
G75*
G02*
X41743800Y-28155000I0J701200D01*
G01*
X41743800Y-26905000D01*
G75*
G02*
X42445000Y-26203800I701200J0D01*
G01*
X43695000Y-26203800D01*
G75*
G02*
X44396200Y-26905000I0J-701200D01*
G01*
G37*
G36*
G01*
X28896200Y-26905000D02*
X28896200Y-28155000D01*
G75*
G02*
X28195000Y-28856200I-701200J0D01*
G01*
X26945000Y-28856200D01*
G75*
G02*
X26243800Y-28155000I0J701200D01*
G01*
X26243800Y-26905000D01*
G75*
G02*
X26945000Y-26203800I701200J0D01*
G01*
X28195000Y-26203800D01*
G75*
G02*
X28896200Y-26905000I0J-701200D01*
G01*
G37*
G36*
G01*
X100276200Y-26905000D02*
X100276200Y-28155000D01*
G75*
G02*
X99575000Y-28856200I-701200J0D01*
G01*
X98325000Y-28856200D01*
G75*
G02*
X97623800Y-28155000I0J701200D01*
G01*
X97623800Y-26905000D01*
G75*
G02*
X98325000Y-26203800I701200J0D01*
G01*
X99575000Y-26203800D01*
G75*
G02*
X100276200Y-26905000I0J-701200D01*
G01*
G37*
G36*
G01*
X84776200Y-26905000D02*
X84776200Y-28155000D01*
G75*
G02*
X84075000Y-28856200I-701200J0D01*
G01*
X82825000Y-28856200D01*
G75*
G02*
X82123800Y-28155000I0J701200D01*
G01*
X82123800Y-26905000D01*
G75*
G02*
X82825000Y-26203800I701200J0D01*
G01*
X84075000Y-26203800D01*
G75*
G02*
X84776200Y-26905000I0J-701200D01*
G01*
G37*
G36*
G01*
X72336200Y-26905000D02*
X72336200Y-28155000D01*
G75*
G02*
X71635000Y-28856200I-701200J0D01*
G01*
X70385000Y-28856200D01*
G75*
G02*
X69683800Y-28155000I0J701200D01*
G01*
X69683800Y-26905000D01*
G75*
G02*
X70385000Y-26203800I701200J0D01*
G01*
X71635000Y-26203800D01*
G75*
G02*
X72336200Y-26905000I0J-701200D01*
G01*
G37*
G36*
G01*
X56836200Y-26905000D02*
X56836200Y-28155000D01*
G75*
G02*
X56135000Y-28856200I-701200J0D01*
G01*
X54885000Y-28856200D01*
G75*
G02*
X54183800Y-28155000I0J701200D01*
G01*
X54183800Y-26905000D01*
G75*
G02*
X54885000Y-26203800I701200J0D01*
G01*
X56135000Y-26203800D01*
G75*
G02*
X56836200Y-26905000I0J-701200D01*
G01*
G37*
X164860000Y-25160000D03*
G36*
G01*
X156156200Y-26905000D02*
X156156200Y-28155000D01*
G75*
G02*
X155455000Y-28856200I-701200J0D01*
G01*
X154205000Y-28856200D01*
G75*
G02*
X153503800Y-28155000I0J701200D01*
G01*
X153503800Y-26905000D01*
G75*
G02*
X154205000Y-26203800I701200J0D01*
G01*
X155455000Y-26203800D01*
G75*
G02*
X156156200Y-26905000I0J-701200D01*
G01*
G37*
G36*
G01*
X140656200Y-26905000D02*
X140656200Y-28155000D01*
G75*
G02*
X139955000Y-28856200I-701200J0D01*
G01*
X138705000Y-28856200D01*
G75*
G02*
X138003800Y-28155000I0J701200D01*
G01*
X138003800Y-26905000D01*
G75*
G02*
X138705000Y-26203800I701200J0D01*
G01*
X139955000Y-26203800D01*
G75*
G02*
X140656200Y-26905000I0J-701200D01*
G01*
G37*
M02*
