G04 #@! TF.GenerationSoftware,KiCad,Pcbnew,6.0.2+dfsg-1*
G04 #@! TF.CreationDate,2023-09-16T20:59:25-06:00*
G04 #@! TF.ProjectId,ckt-dingdong-prog,636b742d-6469-46e6-9764-6f6e672d7072,rev?*
G04 #@! TF.SameCoordinates,Original*
G04 #@! TF.FileFunction,Copper,L2,Bot*
G04 #@! TF.FilePolarity,Positive*
%FSLAX46Y46*%
G04 Gerber Fmt 4.6, Leading zero omitted, Abs format (unit mm)*
G04 Created by KiCad (PCBNEW 6.0.2+dfsg-1) date 2023-09-16 20:59:25*
%MOMM*%
%LPD*%
G01*
G04 APERTURE LIST*
G04 #@! TA.AperFunction,ComponentPad*
%ADD10R,1.700000X1.700000*%
G04 #@! TD*
G04 #@! TA.AperFunction,ComponentPad*
%ADD11O,1.700000X1.700000*%
G04 #@! TD*
G04 #@! TA.AperFunction,ViaPad*
%ADD12C,0.800000*%
G04 #@! TD*
G04 #@! TA.AperFunction,Conductor*
%ADD13C,0.254000*%
G04 #@! TD*
G04 APERTURE END LIST*
D10*
X88905000Y-115575000D03*
D11*
X88905000Y-113035000D03*
X91445000Y-115575000D03*
X91445000Y-113035000D03*
X93985000Y-115575000D03*
X93985000Y-113035000D03*
X96525000Y-115575000D03*
X96525000Y-113035000D03*
X99065000Y-115575000D03*
X99065000Y-113035000D03*
D10*
X134620000Y-88900000D03*
D11*
X134620000Y-91440000D03*
X134620000Y-93980000D03*
X134620000Y-96520000D03*
X134620000Y-99060000D03*
X134620000Y-101600000D03*
X134620000Y-104140000D03*
X134620000Y-106680000D03*
X134620000Y-109220000D03*
X134620000Y-111760000D03*
X134620000Y-114300000D03*
D10*
X114300000Y-88900000D03*
D11*
X114300000Y-91440000D03*
X114300000Y-93980000D03*
X114300000Y-96520000D03*
X114300000Y-99060000D03*
X114300000Y-101600000D03*
X114300000Y-104140000D03*
X114300000Y-106680000D03*
X114300000Y-109220000D03*
X114300000Y-111760000D03*
X114300000Y-114300000D03*
D10*
X66025000Y-115575000D03*
D11*
X66025000Y-113035000D03*
X63485000Y-115575000D03*
X63485000Y-113035000D03*
X60945000Y-115575000D03*
X60945000Y-113035000D03*
D12*
X101546000Y-118056000D03*
X101600000Y-86741000D03*
X100584000Y-86741000D03*
D13*
X64750000Y-114300000D02*
X63485000Y-113035000D01*
X91445000Y-113035000D02*
X90180000Y-114300000D01*
X85471000Y-116586000D02*
X69723000Y-116586000D01*
X90180000Y-114300000D02*
X87757000Y-114300000D01*
X67437000Y-114300000D02*
X64750000Y-114300000D01*
X87757000Y-114300000D02*
X85471000Y-116586000D01*
X69723000Y-116586000D02*
X67437000Y-114300000D01*
X66025000Y-115575000D02*
X67544000Y-117094000D01*
X92202000Y-117094000D02*
X92710000Y-116586000D01*
X67544000Y-117094000D02*
X92202000Y-117094000D01*
X92710000Y-114310000D02*
X93985000Y-113035000D01*
X92710000Y-116586000D02*
X92710000Y-114310000D01*
X95250000Y-116459000D02*
X95250000Y-114310000D01*
X63485000Y-115575000D02*
X63485000Y-116825000D01*
X95250000Y-114310000D02*
X96525000Y-113035000D01*
X64262000Y-117602000D02*
X94107000Y-117602000D01*
X94107000Y-117602000D02*
X95250000Y-116459000D01*
X63485000Y-116825000D02*
X64262000Y-117602000D01*
X101546000Y-118056000D02*
X99065000Y-115575000D01*
G04 #@! TA.AperFunction,Conductor*
G36*
X139387621Y-68219502D02*
G01*
X139434114Y-68273158D01*
X139445500Y-68325500D01*
X139445500Y-118872500D01*
X139425498Y-118940621D01*
X139371842Y-118987114D01*
X139319500Y-118998500D01*
X50926500Y-118998500D01*
X50858379Y-118978498D01*
X50811886Y-118924842D01*
X50800500Y-118872500D01*
X50800500Y-113302966D01*
X59613257Y-113302966D01*
X59643565Y-113437446D01*
X59646645Y-113447275D01*
X59726770Y-113644603D01*
X59731413Y-113653794D01*
X59842694Y-113835388D01*
X59848777Y-113843699D01*
X59988213Y-114004667D01*
X59995580Y-114011883D01*
X60159434Y-114147916D01*
X60167881Y-114153831D01*
X60351756Y-114261279D01*
X60361042Y-114265729D01*
X60510124Y-114322657D01*
X60566627Y-114365644D01*
X60590920Y-114432355D01*
X60575290Y-114501610D01*
X60524699Y-114551421D01*
X60508785Y-114558579D01*
X60467463Y-114573824D01*
X60293010Y-114677612D01*
X60288670Y-114681418D01*
X60288666Y-114681421D01*
X60213756Y-114747116D01*
X60140392Y-114811455D01*
X60014720Y-114970869D01*
X60012031Y-114975980D01*
X60012029Y-114975983D01*
X59999073Y-115000609D01*
X59920203Y-115150515D01*
X59860007Y-115344378D01*
X59836148Y-115545964D01*
X59849424Y-115748522D01*
X59850845Y-115754118D01*
X59850846Y-115754123D01*
X59871119Y-115833945D01*
X59899392Y-115945269D01*
X59901809Y-115950512D01*
X59939010Y-116031208D01*
X59984377Y-116129616D01*
X59987710Y-116134332D01*
X60062477Y-116240125D01*
X60101533Y-116295389D01*
X60246938Y-116437035D01*
X60251742Y-116440245D01*
X60269067Y-116451821D01*
X60415720Y-116549812D01*
X60421023Y-116552090D01*
X60421026Y-116552092D01*
X60568327Y-116615377D01*
X60602228Y-116629942D01*
X60653197Y-116641475D01*
X60794579Y-116673467D01*
X60794584Y-116673468D01*
X60800216Y-116674742D01*
X60805987Y-116674969D01*
X60805989Y-116674969D01*
X60865756Y-116677317D01*
X61003053Y-116682712D01*
X61110348Y-116667155D01*
X61198231Y-116654413D01*
X61198236Y-116654412D01*
X61203945Y-116653584D01*
X61209409Y-116651729D01*
X61209414Y-116651728D01*
X61390693Y-116590192D01*
X61390698Y-116590190D01*
X61396165Y-116588334D01*
X61410472Y-116580322D01*
X61489235Y-116536212D01*
X61573276Y-116489147D01*
X61612969Y-116456135D01*
X61724913Y-116363031D01*
X61729345Y-116359345D01*
X61859147Y-116203276D01*
X61958334Y-116026165D01*
X61960190Y-116020698D01*
X61960192Y-116020693D01*
X62021728Y-115839414D01*
X62021729Y-115839409D01*
X62023584Y-115833945D01*
X62024412Y-115828236D01*
X62024413Y-115828231D01*
X62052179Y-115636727D01*
X62052712Y-115633053D01*
X62054232Y-115575000D01*
X62038840Y-115407485D01*
X62036187Y-115378613D01*
X62036186Y-115378610D01*
X62035658Y-115372859D01*
X62034090Y-115367299D01*
X61982125Y-115183046D01*
X61982124Y-115183044D01*
X61980557Y-115177487D01*
X61970949Y-115158002D01*
X61893331Y-115000609D01*
X61890776Y-114995428D01*
X61769320Y-114832779D01*
X61649044Y-114721597D01*
X61624503Y-114698911D01*
X61620258Y-114694987D01*
X61615372Y-114691904D01*
X61615371Y-114691903D01*
X61453464Y-114589748D01*
X61448581Y-114586667D01*
X61376614Y-114557955D01*
X61320755Y-114514134D01*
X61297455Y-114447069D01*
X61314111Y-114378054D01*
X61365436Y-114329000D01*
X61387098Y-114320239D01*
X61437252Y-114305192D01*
X61446842Y-114301433D01*
X61638095Y-114207739D01*
X61646945Y-114202464D01*
X61820328Y-114078792D01*
X61828200Y-114072139D01*
X61979052Y-113921812D01*
X61985730Y-113913965D01*
X62110003Y-113741020D01*
X62115313Y-113732183D01*
X62209670Y-113541267D01*
X62213469Y-113531672D01*
X62230066Y-113477047D01*
X62269007Y-113417683D01*
X62333862Y-113388796D01*
X62404038Y-113399558D01*
X62457256Y-113446551D01*
X62465048Y-113460922D01*
X62524377Y-113589616D01*
X62641533Y-113755389D01*
X62786938Y-113897035D01*
X62791742Y-113900245D01*
X62825083Y-113922523D01*
X62955720Y-114009812D01*
X62961023Y-114012090D01*
X62961026Y-114012092D01*
X63136921Y-114087662D01*
X63142228Y-114089942D01*
X63215244Y-114106464D01*
X63334579Y-114133467D01*
X63334584Y-114133468D01*
X63340216Y-114134742D01*
X63345987Y-114134969D01*
X63345989Y-114134969D01*
X63405756Y-114137317D01*
X63543053Y-114142712D01*
X63645203Y-114127901D01*
X63738231Y-114114413D01*
X63738236Y-114114412D01*
X63743945Y-114113584D01*
X63749409Y-114111729D01*
X63749414Y-114111728D01*
X63878880Y-114067780D01*
X63949815Y-114064824D01*
X64008476Y-114097998D01*
X64441958Y-114531480D01*
X64457311Y-114550489D01*
X64458278Y-114551552D01*
X64463929Y-114560304D01*
X64489527Y-114580484D01*
X64490472Y-114581229D01*
X64494950Y-114585208D01*
X64495010Y-114585137D01*
X64498967Y-114588490D01*
X64502648Y-114592171D01*
X64506880Y-114595195D01*
X64506882Y-114595197D01*
X64518457Y-114603469D01*
X64523202Y-114607032D01*
X64563670Y-114638934D01*
X64572355Y-114641984D01*
X64579842Y-114647334D01*
X64629247Y-114662109D01*
X64634842Y-114663927D01*
X64683502Y-114681016D01*
X64689091Y-114681500D01*
X64691804Y-114681500D01*
X64694469Y-114681615D01*
X64694532Y-114681634D01*
X64694525Y-114681808D01*
X64695271Y-114681855D01*
X64701524Y-114683725D01*
X64751383Y-114681766D01*
X64755678Y-114681597D01*
X64760625Y-114681500D01*
X64794500Y-114681500D01*
X64862621Y-114701502D01*
X64909114Y-114755158D01*
X64920500Y-114807500D01*
X64920501Y-115629344D01*
X64920501Y-116450066D01*
X64925273Y-116474056D01*
X64931920Y-116507476D01*
X64935266Y-116524301D01*
X64942161Y-116534621D01*
X64942162Y-116534622D01*
X64982516Y-116595015D01*
X64991516Y-116608484D01*
X65075699Y-116664734D01*
X65149933Y-116679500D01*
X65302551Y-116679500D01*
X66537786Y-116679499D01*
X66605907Y-116699501D01*
X66626882Y-116716404D01*
X66915882Y-117005405D01*
X66949907Y-117067717D01*
X66944842Y-117138533D01*
X66902295Y-117195368D01*
X66835775Y-117220179D01*
X66826786Y-117220500D01*
X64472213Y-117220500D01*
X64404092Y-117200498D01*
X64383117Y-117183595D01*
X63958795Y-116759272D01*
X63924770Y-116696960D01*
X63929835Y-116626144D01*
X63972382Y-116569309D01*
X63986325Y-116560243D01*
X64018584Y-116542177D01*
X64113276Y-116489147D01*
X64152969Y-116456135D01*
X64264913Y-116363031D01*
X64269345Y-116359345D01*
X64399147Y-116203276D01*
X64498334Y-116026165D01*
X64500190Y-116020698D01*
X64500192Y-116020693D01*
X64561728Y-115839414D01*
X64561729Y-115839409D01*
X64563584Y-115833945D01*
X64564412Y-115828236D01*
X64564413Y-115828231D01*
X64592179Y-115636727D01*
X64592712Y-115633053D01*
X64594232Y-115575000D01*
X64578840Y-115407485D01*
X64576187Y-115378613D01*
X64576186Y-115378610D01*
X64575658Y-115372859D01*
X64574090Y-115367299D01*
X64522125Y-115183046D01*
X64522124Y-115183044D01*
X64520557Y-115177487D01*
X64510949Y-115158002D01*
X64433331Y-115000609D01*
X64430776Y-114995428D01*
X64309320Y-114832779D01*
X64189044Y-114721597D01*
X64164503Y-114698911D01*
X64160258Y-114694987D01*
X64155372Y-114691904D01*
X64155371Y-114691903D01*
X63993464Y-114589748D01*
X63988581Y-114586667D01*
X63800039Y-114511446D01*
X63794379Y-114510320D01*
X63794375Y-114510319D01*
X63606613Y-114472971D01*
X63606610Y-114472971D01*
X63600946Y-114471844D01*
X63595171Y-114471768D01*
X63595167Y-114471768D01*
X63493793Y-114470441D01*
X63397971Y-114469187D01*
X63392274Y-114470166D01*
X63392273Y-114470166D01*
X63203607Y-114502585D01*
X63197910Y-114503564D01*
X63007463Y-114573824D01*
X62833010Y-114677612D01*
X62828670Y-114681418D01*
X62828666Y-114681421D01*
X62753756Y-114747116D01*
X62680392Y-114811455D01*
X62554720Y-114970869D01*
X62552031Y-114975980D01*
X62552029Y-114975983D01*
X62539073Y-115000609D01*
X62460203Y-115150515D01*
X62400007Y-115344378D01*
X62376148Y-115545964D01*
X62389424Y-115748522D01*
X62390845Y-115754118D01*
X62390846Y-115754123D01*
X62411119Y-115833945D01*
X62439392Y-115945269D01*
X62441809Y-115950512D01*
X62479010Y-116031208D01*
X62524377Y-116129616D01*
X62527710Y-116134332D01*
X62602477Y-116240125D01*
X62641533Y-116295389D01*
X62786938Y-116437035D01*
X62791742Y-116440245D01*
X62809067Y-116451821D01*
X62955720Y-116549812D01*
X62961027Y-116552092D01*
X62961029Y-116552093D01*
X63027237Y-116580538D01*
X63081930Y-116625806D01*
X63103500Y-116696306D01*
X63103500Y-116770865D01*
X63100914Y-116795164D01*
X63100846Y-116796602D01*
X63098655Y-116806780D01*
X63099879Y-116817120D01*
X63102627Y-116840342D01*
X63102979Y-116846320D01*
X63103072Y-116846312D01*
X63103500Y-116851490D01*
X63103500Y-116856692D01*
X63104354Y-116861822D01*
X63106686Y-116875832D01*
X63107522Y-116881704D01*
X63113582Y-116932907D01*
X63117567Y-116941206D01*
X63119078Y-116950283D01*
X63143558Y-116995651D01*
X63146239Y-117000914D01*
X63165127Y-117040250D01*
X63165130Y-117040254D01*
X63168560Y-117047398D01*
X63172170Y-117051692D01*
X63174102Y-117053624D01*
X63175889Y-117055573D01*
X63175918Y-117055626D01*
X63175788Y-117055745D01*
X63176289Y-117056313D01*
X63179388Y-117062057D01*
X63187033Y-117069124D01*
X63219195Y-117098854D01*
X63222762Y-117102284D01*
X63953960Y-117833483D01*
X63969314Y-117852494D01*
X63970280Y-117853556D01*
X63975929Y-117862304D01*
X63984104Y-117868748D01*
X63984106Y-117868751D01*
X64002472Y-117883229D01*
X64006947Y-117887206D01*
X64007008Y-117887135D01*
X64010965Y-117890488D01*
X64014648Y-117894171D01*
X64018883Y-117897197D01*
X64018885Y-117897199D01*
X64030436Y-117905453D01*
X64035182Y-117909016D01*
X64075670Y-117940934D01*
X64084357Y-117943985D01*
X64091843Y-117949334D01*
X64101819Y-117952317D01*
X64101820Y-117952318D01*
X64133202Y-117961703D01*
X64137463Y-117962977D01*
X64141211Y-117964098D01*
X64146843Y-117965928D01*
X64195502Y-117983016D01*
X64201091Y-117983500D01*
X64203802Y-117983500D01*
X64206469Y-117983615D01*
X64206532Y-117983634D01*
X64206525Y-117983808D01*
X64207271Y-117983855D01*
X64213524Y-117985725D01*
X64263383Y-117983766D01*
X64267678Y-117983597D01*
X64272625Y-117983500D01*
X94052865Y-117983500D01*
X94077164Y-117986086D01*
X94078602Y-117986154D01*
X94088780Y-117988345D01*
X94122341Y-117984373D01*
X94128320Y-117984021D01*
X94128312Y-117983928D01*
X94133490Y-117983500D01*
X94138692Y-117983500D01*
X94157846Y-117980312D01*
X94163704Y-117979478D01*
X94180318Y-117977512D01*
X94204567Y-117974642D01*
X94204568Y-117974642D01*
X94214907Y-117973418D01*
X94223206Y-117969433D01*
X94232283Y-117967922D01*
X94277651Y-117943442D01*
X94282914Y-117940761D01*
X94322250Y-117921873D01*
X94322254Y-117921870D01*
X94329398Y-117918440D01*
X94333692Y-117914830D01*
X94335624Y-117912898D01*
X94337573Y-117911111D01*
X94337626Y-117911082D01*
X94337745Y-117911212D01*
X94338313Y-117910711D01*
X94344057Y-117907612D01*
X94380867Y-117867791D01*
X94384296Y-117864226D01*
X95481480Y-116767042D01*
X95500489Y-116751689D01*
X95501552Y-116750722D01*
X95510304Y-116745071D01*
X95531229Y-116718528D01*
X95535208Y-116714050D01*
X95535137Y-116713990D01*
X95538490Y-116710033D01*
X95542171Y-116706352D01*
X95548883Y-116696960D01*
X95553469Y-116690543D01*
X95557032Y-116685798D01*
X95568935Y-116670699D01*
X95588934Y-116645330D01*
X95591984Y-116636645D01*
X95597334Y-116629158D01*
X95612109Y-116579753D01*
X95613930Y-116574150D01*
X95615891Y-116568568D01*
X95621677Y-116552092D01*
X95628389Y-116532980D01*
X95628390Y-116532976D01*
X95631016Y-116525498D01*
X95631500Y-116519909D01*
X95631500Y-116518527D01*
X95632430Y-116514207D01*
X95666321Y-116451821D01*
X95728560Y-116417662D01*
X95799386Y-116422575D01*
X95826343Y-116437926D01*
X95826938Y-116437035D01*
X95995720Y-116549812D01*
X96001023Y-116552090D01*
X96001026Y-116552092D01*
X96148327Y-116615377D01*
X96182228Y-116629942D01*
X96233197Y-116641475D01*
X96374579Y-116673467D01*
X96374584Y-116673468D01*
X96380216Y-116674742D01*
X96385987Y-116674969D01*
X96385989Y-116674969D01*
X96445756Y-116677317D01*
X96583053Y-116682712D01*
X96690348Y-116667155D01*
X96778231Y-116654413D01*
X96778236Y-116654412D01*
X96783945Y-116653584D01*
X96789409Y-116651729D01*
X96789414Y-116651728D01*
X96970693Y-116590192D01*
X96970698Y-116590190D01*
X96976165Y-116588334D01*
X96990472Y-116580322D01*
X97069235Y-116536212D01*
X97153276Y-116489147D01*
X97192969Y-116456135D01*
X97304913Y-116363031D01*
X97309345Y-116359345D01*
X97439147Y-116203276D01*
X97538334Y-116026165D01*
X97540190Y-116020698D01*
X97540192Y-116020693D01*
X97601728Y-115839414D01*
X97601729Y-115839409D01*
X97603584Y-115833945D01*
X97604412Y-115828236D01*
X97604413Y-115828231D01*
X97632179Y-115636727D01*
X97632712Y-115633053D01*
X97634232Y-115575000D01*
X97618840Y-115407485D01*
X97616187Y-115378613D01*
X97616186Y-115378610D01*
X97615658Y-115372859D01*
X97614090Y-115367299D01*
X97562125Y-115183046D01*
X97562124Y-115183044D01*
X97560557Y-115177487D01*
X97550949Y-115158002D01*
X97473331Y-115000609D01*
X97470776Y-114995428D01*
X97349320Y-114832779D01*
X97229044Y-114721597D01*
X97204503Y-114698911D01*
X97200258Y-114694987D01*
X97195372Y-114691904D01*
X97195371Y-114691903D01*
X97033464Y-114589748D01*
X97028581Y-114586667D01*
X96840039Y-114511446D01*
X96834379Y-114510320D01*
X96834375Y-114510319D01*
X96646613Y-114472971D01*
X96646610Y-114472971D01*
X96640946Y-114471844D01*
X96635171Y-114471768D01*
X96635167Y-114471768D01*
X96533793Y-114470441D01*
X96437971Y-114469187D01*
X96432274Y-114470166D01*
X96432273Y-114470166D01*
X96243607Y-114502585D01*
X96237910Y-114503564D01*
X96047463Y-114573824D01*
X95873010Y-114677612D01*
X95868667Y-114681421D01*
X95868660Y-114681426D01*
X95840577Y-114706054D01*
X95776173Y-114735931D01*
X95705840Y-114726245D01*
X95651909Y-114680072D01*
X95631500Y-114611322D01*
X95631500Y-114520212D01*
X95651502Y-114452091D01*
X95668405Y-114431117D01*
X96001085Y-114098437D01*
X96063397Y-114064411D01*
X96139917Y-114071764D01*
X96176925Y-114087664D01*
X96176928Y-114087665D01*
X96182228Y-114089942D01*
X96187857Y-114091216D01*
X96187858Y-114091216D01*
X96374579Y-114133467D01*
X96374584Y-114133468D01*
X96380216Y-114134742D01*
X96385987Y-114134969D01*
X96385989Y-114134969D01*
X96445756Y-114137317D01*
X96583053Y-114142712D01*
X96685203Y-114127901D01*
X96778231Y-114114413D01*
X96778236Y-114114412D01*
X96783945Y-114113584D01*
X96789409Y-114111729D01*
X96789414Y-114111728D01*
X96970693Y-114050192D01*
X96970698Y-114050190D01*
X96976165Y-114048334D01*
X96991590Y-114039696D01*
X97079078Y-113990700D01*
X97153276Y-113949147D01*
X97171395Y-113934078D01*
X97280696Y-113843172D01*
X97309345Y-113819345D01*
X97398681Y-113711931D01*
X97435453Y-113667718D01*
X97435455Y-113667715D01*
X97439147Y-113663276D01*
X97538334Y-113486165D01*
X97540720Y-113479135D01*
X97541170Y-113478496D01*
X97542541Y-113475416D01*
X97543146Y-113475685D01*
X97581553Y-113421059D01*
X97647305Y-113394278D01*
X97717098Y-113407295D01*
X97768773Y-113455980D01*
X97776777Y-113472229D01*
X97846770Y-113644603D01*
X97851413Y-113653794D01*
X97962694Y-113835388D01*
X97968777Y-113843699D01*
X98108213Y-114004667D01*
X98115580Y-114011883D01*
X98279434Y-114147916D01*
X98287881Y-114153831D01*
X98471756Y-114261279D01*
X98481042Y-114265729D01*
X98630124Y-114322657D01*
X98686627Y-114365644D01*
X98710920Y-114432355D01*
X98695290Y-114501610D01*
X98644699Y-114551421D01*
X98628785Y-114558579D01*
X98587463Y-114573824D01*
X98413010Y-114677612D01*
X98408670Y-114681418D01*
X98408666Y-114681421D01*
X98333756Y-114747116D01*
X98260392Y-114811455D01*
X98134720Y-114970869D01*
X98132031Y-114975980D01*
X98132029Y-114975983D01*
X98119073Y-115000609D01*
X98040203Y-115150515D01*
X97980007Y-115344378D01*
X97956148Y-115545964D01*
X97969424Y-115748522D01*
X97970845Y-115754118D01*
X97970846Y-115754123D01*
X97991119Y-115833945D01*
X98019392Y-115945269D01*
X98021809Y-115950512D01*
X98059010Y-116031208D01*
X98104377Y-116129616D01*
X98107710Y-116134332D01*
X98182477Y-116240125D01*
X98221533Y-116295389D01*
X98366938Y-116437035D01*
X98371742Y-116440245D01*
X98389067Y-116451821D01*
X98535720Y-116549812D01*
X98541023Y-116552090D01*
X98541026Y-116552092D01*
X98688327Y-116615377D01*
X98722228Y-116629942D01*
X98773197Y-116641475D01*
X98914579Y-116673467D01*
X98914584Y-116673468D01*
X98920216Y-116674742D01*
X98925987Y-116674969D01*
X98925989Y-116674969D01*
X98985756Y-116677317D01*
X99123053Y-116682712D01*
X99230348Y-116667155D01*
X99318231Y-116654413D01*
X99318236Y-116654412D01*
X99323945Y-116653584D01*
X99329409Y-116651729D01*
X99329414Y-116651728D01*
X99458880Y-116607780D01*
X99529815Y-116604824D01*
X99588476Y-116637998D01*
X100855920Y-117905443D01*
X100889946Y-117967755D01*
X100891747Y-118010982D01*
X100886729Y-118049096D01*
X100904113Y-118206553D01*
X100958553Y-118355319D01*
X101046908Y-118486805D01*
X101052527Y-118491918D01*
X101052528Y-118491919D01*
X101063903Y-118502269D01*
X101164076Y-118593419D01*
X101303293Y-118669008D01*
X101456522Y-118709207D01*
X101540477Y-118710526D01*
X101607319Y-118711576D01*
X101607322Y-118711576D01*
X101614916Y-118711695D01*
X101769332Y-118676329D01*
X101839742Y-118640917D01*
X101904072Y-118608563D01*
X101904075Y-118608561D01*
X101910855Y-118605151D01*
X101916626Y-118600222D01*
X101916629Y-118600220D01*
X102025536Y-118507204D01*
X102025536Y-118507203D01*
X102031314Y-118502269D01*
X102123755Y-118373624D01*
X102182842Y-118226641D01*
X102205162Y-118069807D01*
X102205307Y-118056000D01*
X102186276Y-117898733D01*
X102130280Y-117750546D01*
X102040553Y-117619992D01*
X101922275Y-117514611D01*
X101782274Y-117440484D01*
X101628633Y-117401892D01*
X101621034Y-117401852D01*
X101621033Y-117401852D01*
X101573079Y-117401601D01*
X101482179Y-117401125D01*
X101414165Y-117380767D01*
X101393745Y-117364222D01*
X100127998Y-116098475D01*
X100093972Y-116036163D01*
X100097780Y-115968879D01*
X100141728Y-115839414D01*
X100141729Y-115839409D01*
X100143584Y-115833945D01*
X100144412Y-115828236D01*
X100144413Y-115828231D01*
X100172179Y-115636727D01*
X100172712Y-115633053D01*
X100174232Y-115575000D01*
X100158840Y-115407485D01*
X100156187Y-115378613D01*
X100156186Y-115378610D01*
X100155658Y-115372859D01*
X100154090Y-115367299D01*
X100102125Y-115183046D01*
X100102124Y-115183044D01*
X100100557Y-115177487D01*
X100090949Y-115158002D01*
X100013331Y-115000609D01*
X100010776Y-114995428D01*
X99889320Y-114832779D01*
X99769044Y-114721597D01*
X99744503Y-114698911D01*
X99740258Y-114694987D01*
X99735372Y-114691904D01*
X99735371Y-114691903D01*
X99573464Y-114589748D01*
X99568581Y-114586667D01*
X99496614Y-114557955D01*
X99440755Y-114514134D01*
X99417455Y-114447069D01*
X99434111Y-114378054D01*
X99485436Y-114329000D01*
X99507098Y-114320239D01*
X99557252Y-114305192D01*
X99566842Y-114301433D01*
X99629037Y-114270964D01*
X113191148Y-114270964D01*
X113204424Y-114473522D01*
X113205845Y-114479118D01*
X113205846Y-114479123D01*
X113239421Y-114611322D01*
X113254392Y-114670269D01*
X113256809Y-114675512D01*
X113293526Y-114755158D01*
X113339377Y-114854616D01*
X113342710Y-114859332D01*
X113418330Y-114966332D01*
X113456533Y-115020389D01*
X113460675Y-115024424D01*
X113517637Y-115079913D01*
X113601938Y-115162035D01*
X113770720Y-115274812D01*
X113776023Y-115277090D01*
X113776026Y-115277092D01*
X113945993Y-115350115D01*
X113957228Y-115354942D01*
X114030244Y-115371464D01*
X114149579Y-115398467D01*
X114149584Y-115398468D01*
X114155216Y-115399742D01*
X114160987Y-115399969D01*
X114160989Y-115399969D01*
X114220756Y-115402317D01*
X114358053Y-115407712D01*
X114458499Y-115393148D01*
X114553231Y-115379413D01*
X114553236Y-115379412D01*
X114558945Y-115378584D01*
X114564409Y-115376729D01*
X114564414Y-115376728D01*
X114745693Y-115315192D01*
X114745698Y-115315190D01*
X114751165Y-115313334D01*
X114928276Y-115214147D01*
X114990934Y-115162035D01*
X115079913Y-115088031D01*
X115084345Y-115084345D01*
X115162145Y-114990801D01*
X115210453Y-114932718D01*
X115210455Y-114932715D01*
X115214147Y-114928276D01*
X115313334Y-114751165D01*
X115315190Y-114745698D01*
X115315192Y-114745693D01*
X115376728Y-114564414D01*
X115376729Y-114564409D01*
X115378584Y-114558945D01*
X115379412Y-114553236D01*
X115379413Y-114553231D01*
X115407179Y-114361727D01*
X115407712Y-114358053D01*
X115409232Y-114300000D01*
X115406564Y-114270964D01*
X133511148Y-114270964D01*
X133524424Y-114473522D01*
X133525845Y-114479118D01*
X133525846Y-114479123D01*
X133559421Y-114611322D01*
X133574392Y-114670269D01*
X133576809Y-114675512D01*
X133613526Y-114755158D01*
X133659377Y-114854616D01*
X133662710Y-114859332D01*
X133738330Y-114966332D01*
X133776533Y-115020389D01*
X133780675Y-115024424D01*
X133837637Y-115079913D01*
X133921938Y-115162035D01*
X134090720Y-115274812D01*
X134096023Y-115277090D01*
X134096026Y-115277092D01*
X134265993Y-115350115D01*
X134277228Y-115354942D01*
X134350244Y-115371464D01*
X134469579Y-115398467D01*
X134469584Y-115398468D01*
X134475216Y-115399742D01*
X134480987Y-115399969D01*
X134480989Y-115399969D01*
X134540756Y-115402317D01*
X134678053Y-115407712D01*
X134778499Y-115393148D01*
X134873231Y-115379413D01*
X134873236Y-115379412D01*
X134878945Y-115378584D01*
X134884409Y-115376729D01*
X134884414Y-115376728D01*
X135065693Y-115315192D01*
X135065698Y-115315190D01*
X135071165Y-115313334D01*
X135248276Y-115214147D01*
X135310934Y-115162035D01*
X135399913Y-115088031D01*
X135404345Y-115084345D01*
X135482145Y-114990801D01*
X135530453Y-114932718D01*
X135530455Y-114932715D01*
X135534147Y-114928276D01*
X135633334Y-114751165D01*
X135635190Y-114745698D01*
X135635192Y-114745693D01*
X135696728Y-114564414D01*
X135696729Y-114564409D01*
X135698584Y-114558945D01*
X135699412Y-114553236D01*
X135699413Y-114553231D01*
X135727179Y-114361727D01*
X135727712Y-114358053D01*
X135729232Y-114300000D01*
X135715258Y-114147916D01*
X135711187Y-114103613D01*
X135711186Y-114103610D01*
X135710658Y-114097859D01*
X135708785Y-114091217D01*
X135657125Y-113908046D01*
X135657124Y-113908044D01*
X135655557Y-113902487D01*
X135652869Y-113897035D01*
X135568331Y-113725609D01*
X135565776Y-113720428D01*
X135444320Y-113557779D01*
X135295258Y-113419987D01*
X135290375Y-113416906D01*
X135290371Y-113416903D01*
X135128464Y-113314748D01*
X135123581Y-113311667D01*
X134935039Y-113236446D01*
X134929379Y-113235320D01*
X134929375Y-113235319D01*
X134741613Y-113197971D01*
X134741610Y-113197971D01*
X134735946Y-113196844D01*
X134730171Y-113196768D01*
X134730167Y-113196768D01*
X134628793Y-113195441D01*
X134532971Y-113194187D01*
X134527274Y-113195166D01*
X134527273Y-113195166D01*
X134416951Y-113214123D01*
X134332910Y-113228564D01*
X134142463Y-113298824D01*
X133968010Y-113402612D01*
X133963670Y-113406418D01*
X133963666Y-113406421D01*
X133869822Y-113488721D01*
X133815392Y-113536455D01*
X133811817Y-113540990D01*
X133811816Y-113540991D01*
X133802032Y-113553402D01*
X133689720Y-113695869D01*
X133687031Y-113700980D01*
X133687029Y-113700983D01*
X133674073Y-113725609D01*
X133595203Y-113875515D01*
X133535007Y-114069378D01*
X133511148Y-114270964D01*
X115406564Y-114270964D01*
X115395258Y-114147916D01*
X115391187Y-114103613D01*
X115391186Y-114103610D01*
X115390658Y-114097859D01*
X115388785Y-114091217D01*
X115337125Y-113908046D01*
X115337124Y-113908044D01*
X115335557Y-113902487D01*
X115332869Y-113897035D01*
X115248331Y-113725609D01*
X115245776Y-113720428D01*
X115124320Y-113557779D01*
X114975258Y-113419987D01*
X114970375Y-113416906D01*
X114970371Y-113416903D01*
X114808464Y-113314748D01*
X114803581Y-113311667D01*
X114615039Y-113236446D01*
X114609379Y-113235320D01*
X114609375Y-113235319D01*
X114421613Y-113197971D01*
X114421610Y-113197971D01*
X114415946Y-113196844D01*
X114410171Y-113196768D01*
X114410167Y-113196768D01*
X114308793Y-113195441D01*
X114212971Y-113194187D01*
X114207274Y-113195166D01*
X114207273Y-113195166D01*
X114096951Y-113214123D01*
X114012910Y-113228564D01*
X113822463Y-113298824D01*
X113648010Y-113402612D01*
X113643670Y-113406418D01*
X113643666Y-113406421D01*
X113549822Y-113488721D01*
X113495392Y-113536455D01*
X113491817Y-113540990D01*
X113491816Y-113540991D01*
X113482032Y-113553402D01*
X113369720Y-113695869D01*
X113367031Y-113700980D01*
X113367029Y-113700983D01*
X113354073Y-113725609D01*
X113275203Y-113875515D01*
X113215007Y-114069378D01*
X113191148Y-114270964D01*
X99629037Y-114270964D01*
X99758095Y-114207739D01*
X99766945Y-114202464D01*
X99940328Y-114078792D01*
X99948200Y-114072139D01*
X100099052Y-113921812D01*
X100105730Y-113913965D01*
X100230003Y-113741020D01*
X100235313Y-113732183D01*
X100329670Y-113541267D01*
X100333469Y-113531672D01*
X100395377Y-113327910D01*
X100397555Y-113317837D01*
X100398986Y-113306962D01*
X100396775Y-113292778D01*
X100383617Y-113289000D01*
X98937000Y-113289000D01*
X98868879Y-113268998D01*
X98822386Y-113215342D01*
X98811000Y-113163000D01*
X98811000Y-112762885D01*
X99319000Y-112762885D01*
X99323475Y-112778124D01*
X99324865Y-112779329D01*
X99332548Y-112781000D01*
X100383344Y-112781000D01*
X100396875Y-112777027D01*
X100398180Y-112767947D01*
X100356214Y-112600875D01*
X100352894Y-112591124D01*
X100267972Y-112395814D01*
X100263105Y-112386739D01*
X100147426Y-112207926D01*
X100141136Y-112199757D01*
X99997806Y-112042240D01*
X99990273Y-112035215D01*
X99823139Y-111903222D01*
X99814552Y-111897517D01*
X99628117Y-111794599D01*
X99618705Y-111790369D01*
X99450953Y-111730964D01*
X113191148Y-111730964D01*
X113204424Y-111933522D01*
X113205845Y-111939118D01*
X113205846Y-111939123D01*
X113233942Y-112049748D01*
X113254392Y-112130269D01*
X113256809Y-112135512D01*
X113294010Y-112216208D01*
X113339377Y-112314616D01*
X113342710Y-112319332D01*
X113418330Y-112426332D01*
X113456533Y-112480389D01*
X113601938Y-112622035D01*
X113770720Y-112734812D01*
X113776023Y-112737090D01*
X113776026Y-112737092D01*
X113945993Y-112810115D01*
X113957228Y-112814942D01*
X114030244Y-112831464D01*
X114149579Y-112858467D01*
X114149584Y-112858468D01*
X114155216Y-112859742D01*
X114160987Y-112859969D01*
X114160989Y-112859969D01*
X114220756Y-112862317D01*
X114358053Y-112867712D01*
X114458499Y-112853148D01*
X114553231Y-112839413D01*
X114553236Y-112839412D01*
X114558945Y-112838584D01*
X114564409Y-112836729D01*
X114564414Y-112836728D01*
X114745693Y-112775192D01*
X114745698Y-112775190D01*
X114751165Y-112773334D01*
X114758578Y-112769183D01*
X114825683Y-112731602D01*
X114928276Y-112674147D01*
X114936437Y-112667360D01*
X115079913Y-112548031D01*
X115084345Y-112544345D01*
X115162145Y-112450801D01*
X115210453Y-112392718D01*
X115210455Y-112392715D01*
X115214147Y-112388276D01*
X115313334Y-112211165D01*
X115315190Y-112205698D01*
X115315192Y-112205693D01*
X115376728Y-112024414D01*
X115376729Y-112024409D01*
X115378584Y-112018945D01*
X115379412Y-112013236D01*
X115379413Y-112013231D01*
X115398000Y-111885036D01*
X115407712Y-111818053D01*
X115409232Y-111760000D01*
X115406564Y-111730964D01*
X133511148Y-111730964D01*
X133524424Y-111933522D01*
X133525845Y-111939118D01*
X133525846Y-111939123D01*
X133553942Y-112049748D01*
X133574392Y-112130269D01*
X133576809Y-112135512D01*
X133614010Y-112216208D01*
X133659377Y-112314616D01*
X133662710Y-112319332D01*
X133738330Y-112426332D01*
X133776533Y-112480389D01*
X133921938Y-112622035D01*
X134090720Y-112734812D01*
X134096023Y-112737090D01*
X134096026Y-112737092D01*
X134265993Y-112810115D01*
X134277228Y-112814942D01*
X134350244Y-112831464D01*
X134469579Y-112858467D01*
X134469584Y-112858468D01*
X134475216Y-112859742D01*
X134480987Y-112859969D01*
X134480989Y-112859969D01*
X134540756Y-112862317D01*
X134678053Y-112867712D01*
X134778499Y-112853148D01*
X134873231Y-112839413D01*
X134873236Y-112839412D01*
X134878945Y-112838584D01*
X134884409Y-112836729D01*
X134884414Y-112836728D01*
X135065693Y-112775192D01*
X135065698Y-112775190D01*
X135071165Y-112773334D01*
X135078578Y-112769183D01*
X135145683Y-112731602D01*
X135248276Y-112674147D01*
X135256437Y-112667360D01*
X135399913Y-112548031D01*
X135404345Y-112544345D01*
X135482145Y-112450801D01*
X135530453Y-112392718D01*
X135530455Y-112392715D01*
X135534147Y-112388276D01*
X135633334Y-112211165D01*
X135635190Y-112205698D01*
X135635192Y-112205693D01*
X135696728Y-112024414D01*
X135696729Y-112024409D01*
X135698584Y-112018945D01*
X135699412Y-112013236D01*
X135699413Y-112013231D01*
X135718000Y-111885036D01*
X135727712Y-111818053D01*
X135729232Y-111760000D01*
X135710658Y-111557859D01*
X135709090Y-111552299D01*
X135657125Y-111368046D01*
X135657124Y-111368044D01*
X135655557Y-111362487D01*
X135644978Y-111341033D01*
X135568331Y-111185609D01*
X135565776Y-111180428D01*
X135444320Y-111017779D01*
X135295258Y-110879987D01*
X135290375Y-110876906D01*
X135290371Y-110876903D01*
X135128464Y-110774748D01*
X135123581Y-110771667D01*
X134935039Y-110696446D01*
X134929379Y-110695320D01*
X134929375Y-110695319D01*
X134741613Y-110657971D01*
X134741610Y-110657971D01*
X134735946Y-110656844D01*
X134730171Y-110656768D01*
X134730167Y-110656768D01*
X134628793Y-110655441D01*
X134532971Y-110654187D01*
X134527274Y-110655166D01*
X134527273Y-110655166D01*
X134338607Y-110687585D01*
X134332910Y-110688564D01*
X134142463Y-110758824D01*
X133968010Y-110862612D01*
X133963670Y-110866418D01*
X133963666Y-110866421D01*
X133943723Y-110883911D01*
X133815392Y-110996455D01*
X133689720Y-111155869D01*
X133687031Y-111160980D01*
X133687029Y-111160983D01*
X133674073Y-111185609D01*
X133595203Y-111335515D01*
X133535007Y-111529378D01*
X133511148Y-111730964D01*
X115406564Y-111730964D01*
X115390658Y-111557859D01*
X115389090Y-111552299D01*
X115337125Y-111368046D01*
X115337124Y-111368044D01*
X115335557Y-111362487D01*
X115324978Y-111341033D01*
X115248331Y-111185609D01*
X115245776Y-111180428D01*
X115124320Y-111017779D01*
X114975258Y-110879987D01*
X114970375Y-110876906D01*
X114970371Y-110876903D01*
X114808464Y-110774748D01*
X114803581Y-110771667D01*
X114615039Y-110696446D01*
X114609379Y-110695320D01*
X114609375Y-110695319D01*
X114421613Y-110657971D01*
X114421610Y-110657971D01*
X114415946Y-110656844D01*
X114410171Y-110656768D01*
X114410167Y-110656768D01*
X114308793Y-110655441D01*
X114212971Y-110654187D01*
X114207274Y-110655166D01*
X114207273Y-110655166D01*
X114018607Y-110687585D01*
X114012910Y-110688564D01*
X113822463Y-110758824D01*
X113648010Y-110862612D01*
X113643670Y-110866418D01*
X113643666Y-110866421D01*
X113623723Y-110883911D01*
X113495392Y-110996455D01*
X113369720Y-111155869D01*
X113367031Y-111160980D01*
X113367029Y-111160983D01*
X113354073Y-111185609D01*
X113275203Y-111335515D01*
X113215007Y-111529378D01*
X113191148Y-111730964D01*
X99450953Y-111730964D01*
X99417959Y-111719280D01*
X99407988Y-111716646D01*
X99336837Y-111703972D01*
X99323540Y-111705432D01*
X99319000Y-111719989D01*
X99319000Y-112762885D01*
X98811000Y-112762885D01*
X98811000Y-111718102D01*
X98807082Y-111704758D01*
X98792806Y-111702771D01*
X98754324Y-111708660D01*
X98744288Y-111711051D01*
X98541868Y-111777212D01*
X98532359Y-111781209D01*
X98343463Y-111879542D01*
X98334738Y-111885036D01*
X98164433Y-112012905D01*
X98156726Y-112019748D01*
X98009590Y-112173717D01*
X98003104Y-112181727D01*
X97883098Y-112357649D01*
X97878000Y-112366623D01*
X97788338Y-112559783D01*
X97784777Y-112569464D01*
X97780291Y-112585640D01*
X97742813Y-112645939D01*
X97678684Y-112676403D01*
X97608266Y-112667360D01*
X97553915Y-112621682D01*
X97545867Y-112607698D01*
X97473331Y-112460609D01*
X97470776Y-112455428D01*
X97349320Y-112292779D01*
X97200258Y-112154987D01*
X97195375Y-112151906D01*
X97195371Y-112151903D01*
X97033464Y-112049748D01*
X97028581Y-112046667D01*
X96840039Y-111971446D01*
X96834379Y-111970320D01*
X96834375Y-111970319D01*
X96646613Y-111932971D01*
X96646610Y-111932971D01*
X96640946Y-111931844D01*
X96635171Y-111931768D01*
X96635167Y-111931768D01*
X96533793Y-111930441D01*
X96437971Y-111929187D01*
X96432274Y-111930166D01*
X96432273Y-111930166D01*
X96380147Y-111939123D01*
X96237910Y-111963564D01*
X96047463Y-112033824D01*
X95873010Y-112137612D01*
X95868670Y-112141418D01*
X95868666Y-112141421D01*
X95789139Y-112211165D01*
X95720392Y-112271455D01*
X95594720Y-112430869D01*
X95592031Y-112435980D01*
X95592029Y-112435983D01*
X95579073Y-112460609D01*
X95500203Y-112610515D01*
X95440007Y-112804378D01*
X95416148Y-113005964D01*
X95429424Y-113208522D01*
X95430845Y-113214118D01*
X95430846Y-113214123D01*
X95450872Y-113292973D01*
X95479392Y-113405269D01*
X95481809Y-113410512D01*
X95481811Y-113410517D01*
X95485483Y-113418483D01*
X95495836Y-113488721D01*
X95466573Y-113553406D01*
X95460151Y-113560327D01*
X95018520Y-114001958D01*
X94999511Y-114017311D01*
X94998448Y-114018278D01*
X94989696Y-114023929D01*
X94976866Y-114040204D01*
X94968771Y-114050472D01*
X94964794Y-114054947D01*
X94964865Y-114055008D01*
X94961512Y-114058965D01*
X94957829Y-114062648D01*
X94954803Y-114066883D01*
X94954801Y-114066885D01*
X94946547Y-114078436D01*
X94942982Y-114083185D01*
X94918364Y-114114413D01*
X94911066Y-114123670D01*
X94908015Y-114132357D01*
X94902666Y-114139843D01*
X94899683Y-114149819D01*
X94899682Y-114149820D01*
X94887902Y-114189211D01*
X94886072Y-114194843D01*
X94868984Y-114243502D01*
X94868500Y-114249091D01*
X94868500Y-114251802D01*
X94868385Y-114254469D01*
X94868366Y-114254532D01*
X94868192Y-114254525D01*
X94868145Y-114255271D01*
X94866275Y-114261524D01*
X94867991Y-114305192D01*
X94868403Y-114315678D01*
X94868500Y-114320625D01*
X94868500Y-114599941D01*
X94848498Y-114668062D01*
X94794842Y-114714555D01*
X94724568Y-114724659D01*
X94665793Y-114699901D01*
X94664503Y-114698911D01*
X94660258Y-114694987D01*
X94644622Y-114685121D01*
X94493464Y-114589748D01*
X94488581Y-114586667D01*
X94300039Y-114511446D01*
X94294379Y-114510320D01*
X94294375Y-114510319D01*
X94106613Y-114472971D01*
X94106610Y-114472971D01*
X94100946Y-114471844D01*
X94095171Y-114471768D01*
X94095167Y-114471768D01*
X93993793Y-114470441D01*
X93897971Y-114469187D01*
X93892274Y-114470166D01*
X93892273Y-114470166D01*
X93703607Y-114502585D01*
X93697910Y-114503564D01*
X93507463Y-114573824D01*
X93333010Y-114677612D01*
X93328667Y-114681421D01*
X93328660Y-114681426D01*
X93300577Y-114706054D01*
X93236173Y-114735931D01*
X93165840Y-114726245D01*
X93111909Y-114680072D01*
X93091500Y-114611322D01*
X93091500Y-114520212D01*
X93111502Y-114452091D01*
X93128405Y-114431117D01*
X93461085Y-114098437D01*
X93523397Y-114064411D01*
X93599917Y-114071764D01*
X93636925Y-114087664D01*
X93636928Y-114087665D01*
X93642228Y-114089942D01*
X93647857Y-114091216D01*
X93647858Y-114091216D01*
X93834579Y-114133467D01*
X93834584Y-114133468D01*
X93840216Y-114134742D01*
X93845987Y-114134969D01*
X93845989Y-114134969D01*
X93905756Y-114137317D01*
X94043053Y-114142712D01*
X94145203Y-114127901D01*
X94238231Y-114114413D01*
X94238236Y-114114412D01*
X94243945Y-114113584D01*
X94249409Y-114111729D01*
X94249414Y-114111728D01*
X94430693Y-114050192D01*
X94430698Y-114050190D01*
X94436165Y-114048334D01*
X94451590Y-114039696D01*
X94539078Y-113990700D01*
X94613276Y-113949147D01*
X94631395Y-113934078D01*
X94740696Y-113843172D01*
X94769345Y-113819345D01*
X94858681Y-113711931D01*
X94895453Y-113667718D01*
X94895455Y-113667715D01*
X94899147Y-113663276D01*
X94998334Y-113486165D01*
X95000190Y-113480698D01*
X95000192Y-113480693D01*
X95061728Y-113299414D01*
X95061729Y-113299409D01*
X95063584Y-113293945D01*
X95064412Y-113288236D01*
X95064413Y-113288231D01*
X95092179Y-113096727D01*
X95092712Y-113093053D01*
X95094232Y-113035000D01*
X95078840Y-112867485D01*
X95076187Y-112838613D01*
X95076186Y-112838610D01*
X95075658Y-112832859D01*
X95074090Y-112827299D01*
X95022125Y-112643046D01*
X95022124Y-112643044D01*
X95020557Y-112637487D01*
X95010949Y-112618002D01*
X94933331Y-112460609D01*
X94930776Y-112455428D01*
X94809320Y-112292779D01*
X94660258Y-112154987D01*
X94655375Y-112151906D01*
X94655371Y-112151903D01*
X94493464Y-112049748D01*
X94488581Y-112046667D01*
X94300039Y-111971446D01*
X94294379Y-111970320D01*
X94294375Y-111970319D01*
X94106613Y-111932971D01*
X94106610Y-111932971D01*
X94100946Y-111931844D01*
X94095171Y-111931768D01*
X94095167Y-111931768D01*
X93993793Y-111930441D01*
X93897971Y-111929187D01*
X93892274Y-111930166D01*
X93892273Y-111930166D01*
X93840147Y-111939123D01*
X93697910Y-111963564D01*
X93507463Y-112033824D01*
X93333010Y-112137612D01*
X93328670Y-112141418D01*
X93328666Y-112141421D01*
X93249139Y-112211165D01*
X93180392Y-112271455D01*
X93054720Y-112430869D01*
X93052031Y-112435980D01*
X93052029Y-112435983D01*
X93039073Y-112460609D01*
X92960203Y-112610515D01*
X92900007Y-112804378D01*
X92876148Y-113005964D01*
X92889424Y-113208522D01*
X92890845Y-113214118D01*
X92890846Y-113214123D01*
X92910872Y-113292973D01*
X92939392Y-113405269D01*
X92941809Y-113410512D01*
X92941811Y-113410517D01*
X92945483Y-113418483D01*
X92955836Y-113488721D01*
X92926573Y-113553406D01*
X92920151Y-113560327D01*
X92478520Y-114001958D01*
X92459511Y-114017311D01*
X92458448Y-114018278D01*
X92449696Y-114023929D01*
X92436866Y-114040204D01*
X92428771Y-114050472D01*
X92424794Y-114054947D01*
X92424865Y-114055008D01*
X92421512Y-114058965D01*
X92417829Y-114062648D01*
X92414803Y-114066883D01*
X92414801Y-114066885D01*
X92406547Y-114078436D01*
X92402982Y-114083185D01*
X92378364Y-114114413D01*
X92371066Y-114123670D01*
X92368015Y-114132357D01*
X92362666Y-114139843D01*
X92359683Y-114149819D01*
X92359682Y-114149820D01*
X92347902Y-114189211D01*
X92346072Y-114194843D01*
X92328984Y-114243502D01*
X92328500Y-114249091D01*
X92328500Y-114251802D01*
X92328385Y-114254469D01*
X92328366Y-114254532D01*
X92328192Y-114254525D01*
X92328145Y-114255271D01*
X92326275Y-114261524D01*
X92327991Y-114305192D01*
X92328403Y-114315678D01*
X92328500Y-114320625D01*
X92328500Y-114599941D01*
X92308498Y-114668062D01*
X92254842Y-114714555D01*
X92184568Y-114724659D01*
X92125793Y-114699901D01*
X92124503Y-114698911D01*
X92120258Y-114694987D01*
X92104622Y-114685121D01*
X91953464Y-114589748D01*
X91948581Y-114586667D01*
X91760039Y-114511446D01*
X91754379Y-114510320D01*
X91754375Y-114510319D01*
X91566613Y-114472971D01*
X91566610Y-114472971D01*
X91560946Y-114471844D01*
X91555171Y-114471768D01*
X91555167Y-114471768D01*
X91453793Y-114470441D01*
X91357971Y-114469187D01*
X91352274Y-114470166D01*
X91352273Y-114470166D01*
X91163607Y-114502585D01*
X91157910Y-114503564D01*
X90967463Y-114573824D01*
X90793010Y-114677612D01*
X90788670Y-114681418D01*
X90788666Y-114681421D01*
X90713756Y-114747116D01*
X90640392Y-114811455D01*
X90514720Y-114970869D01*
X90512031Y-114975980D01*
X90512029Y-114975983D01*
X90499073Y-115000609D01*
X90420203Y-115150515D01*
X90360007Y-115344378D01*
X90336148Y-115545964D01*
X90349424Y-115748522D01*
X90350845Y-115754118D01*
X90350846Y-115754123D01*
X90371119Y-115833945D01*
X90399392Y-115945269D01*
X90401809Y-115950512D01*
X90439010Y-116031208D01*
X90484377Y-116129616D01*
X90487710Y-116134332D01*
X90562477Y-116240125D01*
X90601533Y-116295389D01*
X90746938Y-116437035D01*
X90751742Y-116440245D01*
X90813836Y-116481735D01*
X90859364Y-116536212D01*
X90868212Y-116606655D01*
X90837570Y-116670699D01*
X90777169Y-116708011D01*
X90743834Y-116712500D01*
X90102731Y-116712500D01*
X90034610Y-116692498D01*
X89988117Y-116638842D01*
X89978013Y-116568568D01*
X89986322Y-116538282D01*
X89987839Y-116534621D01*
X89994734Y-116524301D01*
X90009500Y-116450067D01*
X90009499Y-114809534D01*
X90029501Y-114741413D01*
X90083157Y-114694920D01*
X90141435Y-114683674D01*
X90151600Y-114684153D01*
X90161780Y-114686345D01*
X90195341Y-114682373D01*
X90201320Y-114682021D01*
X90201312Y-114681928D01*
X90206490Y-114681500D01*
X90211692Y-114681500D01*
X90230846Y-114678312D01*
X90236704Y-114677478D01*
X90260540Y-114674657D01*
X90277567Y-114672642D01*
X90277568Y-114672642D01*
X90287907Y-114671418D01*
X90296206Y-114667433D01*
X90305283Y-114665922D01*
X90350651Y-114641442D01*
X90355914Y-114638761D01*
X90395250Y-114619873D01*
X90395254Y-114619870D01*
X90402398Y-114616440D01*
X90406692Y-114612830D01*
X90408624Y-114610898D01*
X90410573Y-114609111D01*
X90410626Y-114609082D01*
X90410745Y-114609212D01*
X90411313Y-114608711D01*
X90417057Y-114605612D01*
X90426685Y-114595197D01*
X90453866Y-114565792D01*
X90457296Y-114562226D01*
X90921085Y-114098437D01*
X90983397Y-114064411D01*
X91059917Y-114071764D01*
X91096925Y-114087664D01*
X91096928Y-114087665D01*
X91102228Y-114089942D01*
X91107857Y-114091216D01*
X91107858Y-114091216D01*
X91294579Y-114133467D01*
X91294584Y-114133468D01*
X91300216Y-114134742D01*
X91305987Y-114134969D01*
X91305989Y-114134969D01*
X91365756Y-114137317D01*
X91503053Y-114142712D01*
X91605203Y-114127901D01*
X91698231Y-114114413D01*
X91698236Y-114114412D01*
X91703945Y-114113584D01*
X91709409Y-114111729D01*
X91709414Y-114111728D01*
X91890693Y-114050192D01*
X91890698Y-114050190D01*
X91896165Y-114048334D01*
X91911590Y-114039696D01*
X91999078Y-113990700D01*
X92073276Y-113949147D01*
X92091395Y-113934078D01*
X92200696Y-113843172D01*
X92229345Y-113819345D01*
X92318681Y-113711931D01*
X92355453Y-113667718D01*
X92355455Y-113667715D01*
X92359147Y-113663276D01*
X92458334Y-113486165D01*
X92460190Y-113480698D01*
X92460192Y-113480693D01*
X92521728Y-113299414D01*
X92521729Y-113299409D01*
X92523584Y-113293945D01*
X92524412Y-113288236D01*
X92524413Y-113288231D01*
X92552179Y-113096727D01*
X92552712Y-113093053D01*
X92554232Y-113035000D01*
X92538840Y-112867485D01*
X92536187Y-112838613D01*
X92536186Y-112838610D01*
X92535658Y-112832859D01*
X92534090Y-112827299D01*
X92482125Y-112643046D01*
X92482124Y-112643044D01*
X92480557Y-112637487D01*
X92470949Y-112618002D01*
X92393331Y-112460609D01*
X92390776Y-112455428D01*
X92269320Y-112292779D01*
X92120258Y-112154987D01*
X92115375Y-112151906D01*
X92115371Y-112151903D01*
X91953464Y-112049748D01*
X91948581Y-112046667D01*
X91760039Y-111971446D01*
X91754379Y-111970320D01*
X91754375Y-111970319D01*
X91566613Y-111932971D01*
X91566610Y-111932971D01*
X91560946Y-111931844D01*
X91555171Y-111931768D01*
X91555167Y-111931768D01*
X91453793Y-111930441D01*
X91357971Y-111929187D01*
X91352274Y-111930166D01*
X91352273Y-111930166D01*
X91300147Y-111939123D01*
X91157910Y-111963564D01*
X90967463Y-112033824D01*
X90793010Y-112137612D01*
X90788670Y-112141418D01*
X90788666Y-112141421D01*
X90709139Y-112211165D01*
X90640392Y-112271455D01*
X90514720Y-112430869D01*
X90512031Y-112435980D01*
X90512029Y-112435983D01*
X90499073Y-112460609D01*
X90420203Y-112610515D01*
X90360007Y-112804378D01*
X90336148Y-113005964D01*
X90349424Y-113208522D01*
X90350845Y-113214118D01*
X90350846Y-113214123D01*
X90370872Y-113292973D01*
X90399392Y-113405269D01*
X90401809Y-113410511D01*
X90401809Y-113410512D01*
X90405482Y-113418479D01*
X90415837Y-113488716D01*
X90386575Y-113553402D01*
X90380153Y-113560325D01*
X90214868Y-113725609D01*
X90058881Y-113881596D01*
X89996569Y-113915621D01*
X89969786Y-113918500D01*
X89875556Y-113918500D01*
X89807435Y-113898498D01*
X89760942Y-113844842D01*
X89750838Y-113774568D01*
X89778682Y-113711931D01*
X89815449Y-113667724D01*
X89815456Y-113667714D01*
X89819147Y-113663276D01*
X89918334Y-113486165D01*
X89920190Y-113480698D01*
X89920192Y-113480693D01*
X89981728Y-113299414D01*
X89981729Y-113299409D01*
X89983584Y-113293945D01*
X89984412Y-113288236D01*
X89984413Y-113288231D01*
X90012179Y-113096727D01*
X90012712Y-113093053D01*
X90014232Y-113035000D01*
X89998840Y-112867485D01*
X89996187Y-112838613D01*
X89996186Y-112838610D01*
X89995658Y-112832859D01*
X89994090Y-112827299D01*
X89942125Y-112643046D01*
X89942124Y-112643044D01*
X89940557Y-112637487D01*
X89930949Y-112618002D01*
X89853331Y-112460609D01*
X89850776Y-112455428D01*
X89729320Y-112292779D01*
X89580258Y-112154987D01*
X89575375Y-112151906D01*
X89575371Y-112151903D01*
X89413464Y-112049748D01*
X89408581Y-112046667D01*
X89220039Y-111971446D01*
X89214379Y-111970320D01*
X89214375Y-111970319D01*
X89026613Y-111932971D01*
X89026610Y-111932971D01*
X89020946Y-111931844D01*
X89015171Y-111931768D01*
X89015167Y-111931768D01*
X88913793Y-111930441D01*
X88817971Y-111929187D01*
X88812274Y-111930166D01*
X88812273Y-111930166D01*
X88760147Y-111939123D01*
X88617910Y-111963564D01*
X88427463Y-112033824D01*
X88253010Y-112137612D01*
X88248670Y-112141418D01*
X88248666Y-112141421D01*
X88169139Y-112211165D01*
X88100392Y-112271455D01*
X87974720Y-112430869D01*
X87972031Y-112435980D01*
X87972029Y-112435983D01*
X87959073Y-112460609D01*
X87880203Y-112610515D01*
X87820007Y-112804378D01*
X87796148Y-113005964D01*
X87809424Y-113208522D01*
X87810845Y-113214118D01*
X87810846Y-113214123D01*
X87857971Y-113399674D01*
X87859392Y-113405269D01*
X87861809Y-113410512D01*
X87897864Y-113488721D01*
X87944377Y-113589616D01*
X87947710Y-113594332D01*
X88036367Y-113719780D01*
X88059348Y-113786955D01*
X88042363Y-113855890D01*
X87990806Y-113904699D01*
X87933470Y-113918500D01*
X87811135Y-113918500D01*
X87786836Y-113915914D01*
X87785398Y-113915846D01*
X87775220Y-113913655D01*
X87745516Y-113917170D01*
X87741658Y-113917627D01*
X87735680Y-113917979D01*
X87735688Y-113918072D01*
X87730510Y-113918500D01*
X87725308Y-113918500D01*
X87706154Y-113921688D01*
X87700296Y-113922522D01*
X87683682Y-113924488D01*
X87659433Y-113927358D01*
X87659432Y-113927358D01*
X87649093Y-113928582D01*
X87640794Y-113932567D01*
X87631717Y-113934078D01*
X87586349Y-113958558D01*
X87581086Y-113961239D01*
X87541750Y-113980127D01*
X87541746Y-113980130D01*
X87534602Y-113983560D01*
X87530308Y-113987170D01*
X87528376Y-113989102D01*
X87526427Y-113990889D01*
X87526374Y-113990918D01*
X87526255Y-113990788D01*
X87525687Y-113991289D01*
X87519943Y-113994388D01*
X87512876Y-114002033D01*
X87483134Y-114034208D01*
X87479704Y-114037774D01*
X85349882Y-116167595D01*
X85287570Y-116201621D01*
X85260787Y-116204500D01*
X69933212Y-116204500D01*
X69865091Y-116184498D01*
X69844117Y-116167595D01*
X67745044Y-114068521D01*
X67729685Y-114049505D01*
X67728719Y-114048444D01*
X67723071Y-114039696D01*
X67696528Y-114018771D01*
X67692053Y-114014794D01*
X67691992Y-114014865D01*
X67688035Y-114011512D01*
X67684352Y-114007829D01*
X67668561Y-113996545D01*
X67663815Y-113992982D01*
X67631507Y-113967512D01*
X67631506Y-113967511D01*
X67623330Y-113961066D01*
X67614643Y-113958015D01*
X67607157Y-113952666D01*
X67597181Y-113949683D01*
X67597180Y-113949682D01*
X67565798Y-113940297D01*
X67557786Y-113937901D01*
X67552157Y-113936072D01*
X67503498Y-113918984D01*
X67497909Y-113918500D01*
X67495198Y-113918500D01*
X67492531Y-113918385D01*
X67492468Y-113918366D01*
X67492475Y-113918192D01*
X67491729Y-113918145D01*
X67485476Y-113916275D01*
X67439746Y-113918072D01*
X67431322Y-113918403D01*
X67426375Y-113918500D01*
X66995556Y-113918500D01*
X66927435Y-113898498D01*
X66880942Y-113844842D01*
X66870838Y-113774568D01*
X66898682Y-113711931D01*
X66935449Y-113667724D01*
X66935456Y-113667714D01*
X66939147Y-113663276D01*
X67038334Y-113486165D01*
X67040190Y-113480698D01*
X67040192Y-113480693D01*
X67101728Y-113299414D01*
X67101729Y-113299409D01*
X67103584Y-113293945D01*
X67104412Y-113288236D01*
X67104413Y-113288231D01*
X67132179Y-113096727D01*
X67132712Y-113093053D01*
X67134232Y-113035000D01*
X67118840Y-112867485D01*
X67116187Y-112838613D01*
X67116186Y-112838610D01*
X67115658Y-112832859D01*
X67114090Y-112827299D01*
X67062125Y-112643046D01*
X67062124Y-112643044D01*
X67060557Y-112637487D01*
X67050949Y-112618002D01*
X66973331Y-112460609D01*
X66970776Y-112455428D01*
X66849320Y-112292779D01*
X66700258Y-112154987D01*
X66695375Y-112151906D01*
X66695371Y-112151903D01*
X66533464Y-112049748D01*
X66528581Y-112046667D01*
X66340039Y-111971446D01*
X66334379Y-111970320D01*
X66334375Y-111970319D01*
X66146613Y-111932971D01*
X66146610Y-111932971D01*
X66140946Y-111931844D01*
X66135171Y-111931768D01*
X66135167Y-111931768D01*
X66033793Y-111930441D01*
X65937971Y-111929187D01*
X65932274Y-111930166D01*
X65932273Y-111930166D01*
X65880147Y-111939123D01*
X65737910Y-111963564D01*
X65547463Y-112033824D01*
X65373010Y-112137612D01*
X65368670Y-112141418D01*
X65368666Y-112141421D01*
X65289139Y-112211165D01*
X65220392Y-112271455D01*
X65094720Y-112430869D01*
X65092031Y-112435980D01*
X65092029Y-112435983D01*
X65079073Y-112460609D01*
X65000203Y-112610515D01*
X64940007Y-112804378D01*
X64916148Y-113005964D01*
X64929424Y-113208522D01*
X64930845Y-113214118D01*
X64930846Y-113214123D01*
X64977971Y-113399674D01*
X64979392Y-113405269D01*
X64981809Y-113410512D01*
X65017864Y-113488721D01*
X65064377Y-113589616D01*
X65067710Y-113594332D01*
X65156367Y-113719780D01*
X65179348Y-113786955D01*
X65162363Y-113855890D01*
X65110806Y-113904699D01*
X65053470Y-113918500D01*
X64960212Y-113918500D01*
X64892091Y-113898498D01*
X64871117Y-113881595D01*
X64547998Y-113558476D01*
X64513972Y-113496164D01*
X64517780Y-113428880D01*
X64561728Y-113299414D01*
X64561729Y-113299409D01*
X64563584Y-113293945D01*
X64564412Y-113288236D01*
X64564413Y-113288231D01*
X64592179Y-113096727D01*
X64592712Y-113093053D01*
X64594232Y-113035000D01*
X64578840Y-112867485D01*
X64576187Y-112838613D01*
X64576186Y-112838610D01*
X64575658Y-112832859D01*
X64574090Y-112827299D01*
X64522125Y-112643046D01*
X64522124Y-112643044D01*
X64520557Y-112637487D01*
X64510949Y-112618002D01*
X64433331Y-112460609D01*
X64430776Y-112455428D01*
X64309320Y-112292779D01*
X64160258Y-112154987D01*
X64155375Y-112151906D01*
X64155371Y-112151903D01*
X63993464Y-112049748D01*
X63988581Y-112046667D01*
X63800039Y-111971446D01*
X63794379Y-111970320D01*
X63794375Y-111970319D01*
X63606613Y-111932971D01*
X63606610Y-111932971D01*
X63600946Y-111931844D01*
X63595171Y-111931768D01*
X63595167Y-111931768D01*
X63493793Y-111930441D01*
X63397971Y-111929187D01*
X63392274Y-111930166D01*
X63392273Y-111930166D01*
X63340147Y-111939123D01*
X63197910Y-111963564D01*
X63007463Y-112033824D01*
X62833010Y-112137612D01*
X62828670Y-112141418D01*
X62828666Y-112141421D01*
X62749139Y-112211165D01*
X62680392Y-112271455D01*
X62554720Y-112430869D01*
X62552031Y-112435980D01*
X62552029Y-112435983D01*
X62462589Y-112605980D01*
X62413170Y-112656952D01*
X62344037Y-112673115D01*
X62277141Y-112649336D01*
X62237003Y-112594973D01*
X62234955Y-112595863D01*
X62147972Y-112395814D01*
X62143105Y-112386739D01*
X62027426Y-112207926D01*
X62021136Y-112199757D01*
X61877806Y-112042240D01*
X61870273Y-112035215D01*
X61703139Y-111903222D01*
X61694552Y-111897517D01*
X61508117Y-111794599D01*
X61498705Y-111790369D01*
X61297959Y-111719280D01*
X61287988Y-111716646D01*
X61216837Y-111703972D01*
X61203540Y-111705432D01*
X61199000Y-111719989D01*
X61199000Y-113163000D01*
X61178998Y-113231121D01*
X61125342Y-113277614D01*
X61073000Y-113289000D01*
X59628225Y-113289000D01*
X59614694Y-113292973D01*
X59613257Y-113302966D01*
X50800500Y-113302966D01*
X50800500Y-112769183D01*
X59609389Y-112769183D01*
X59610912Y-112777607D01*
X59623292Y-112781000D01*
X60672885Y-112781000D01*
X60688124Y-112776525D01*
X60689329Y-112775135D01*
X60691000Y-112767452D01*
X60691000Y-111718102D01*
X60687082Y-111704758D01*
X60672806Y-111702771D01*
X60634324Y-111708660D01*
X60624288Y-111711051D01*
X60421868Y-111777212D01*
X60412359Y-111781209D01*
X60223463Y-111879542D01*
X60214738Y-111885036D01*
X60044433Y-112012905D01*
X60036726Y-112019748D01*
X59889590Y-112173717D01*
X59883104Y-112181727D01*
X59763098Y-112357649D01*
X59758000Y-112366623D01*
X59668338Y-112559783D01*
X59664775Y-112569470D01*
X59609389Y-112769183D01*
X50800500Y-112769183D01*
X50800500Y-109190964D01*
X113191148Y-109190964D01*
X113204424Y-109393522D01*
X113205845Y-109399118D01*
X113205846Y-109399123D01*
X113226119Y-109478945D01*
X113254392Y-109590269D01*
X113256809Y-109595512D01*
X113294010Y-109676208D01*
X113339377Y-109774616D01*
X113456533Y-109940389D01*
X113601938Y-110082035D01*
X113770720Y-110194812D01*
X113776023Y-110197090D01*
X113776026Y-110197092D01*
X113864707Y-110235192D01*
X113957228Y-110274942D01*
X114030244Y-110291464D01*
X114149579Y-110318467D01*
X114149584Y-110318468D01*
X114155216Y-110319742D01*
X114160987Y-110319969D01*
X114160989Y-110319969D01*
X114220756Y-110322317D01*
X114358053Y-110327712D01*
X114458499Y-110313148D01*
X114553231Y-110299413D01*
X114553236Y-110299412D01*
X114558945Y-110298584D01*
X114564409Y-110296729D01*
X114564414Y-110296728D01*
X114745693Y-110235192D01*
X114745698Y-110235190D01*
X114751165Y-110233334D01*
X114928276Y-110134147D01*
X114990934Y-110082035D01*
X115079913Y-110008031D01*
X115084345Y-110004345D01*
X115214147Y-109848276D01*
X115313334Y-109671165D01*
X115315190Y-109665698D01*
X115315192Y-109665693D01*
X115376728Y-109484414D01*
X115376729Y-109484409D01*
X115378584Y-109478945D01*
X115379412Y-109473236D01*
X115379413Y-109473231D01*
X115407179Y-109281727D01*
X115407712Y-109278053D01*
X115409232Y-109220000D01*
X115406564Y-109190964D01*
X133511148Y-109190964D01*
X133524424Y-109393522D01*
X133525845Y-109399118D01*
X133525846Y-109399123D01*
X133546119Y-109478945D01*
X133574392Y-109590269D01*
X133576809Y-109595512D01*
X133614010Y-109676208D01*
X133659377Y-109774616D01*
X133776533Y-109940389D01*
X133921938Y-110082035D01*
X134090720Y-110194812D01*
X134096023Y-110197090D01*
X134096026Y-110197092D01*
X134184707Y-110235192D01*
X134277228Y-110274942D01*
X134350244Y-110291464D01*
X134469579Y-110318467D01*
X134469584Y-110318468D01*
X134475216Y-110319742D01*
X134480987Y-110319969D01*
X134480989Y-110319969D01*
X134540756Y-110322317D01*
X134678053Y-110327712D01*
X134778499Y-110313148D01*
X134873231Y-110299413D01*
X134873236Y-110299412D01*
X134878945Y-110298584D01*
X134884409Y-110296729D01*
X134884414Y-110296728D01*
X135065693Y-110235192D01*
X135065698Y-110235190D01*
X135071165Y-110233334D01*
X135248276Y-110134147D01*
X135310934Y-110082035D01*
X135399913Y-110008031D01*
X135404345Y-110004345D01*
X135534147Y-109848276D01*
X135633334Y-109671165D01*
X135635190Y-109665698D01*
X135635192Y-109665693D01*
X135696728Y-109484414D01*
X135696729Y-109484409D01*
X135698584Y-109478945D01*
X135699412Y-109473236D01*
X135699413Y-109473231D01*
X135727179Y-109281727D01*
X135727712Y-109278053D01*
X135729232Y-109220000D01*
X135710658Y-109017859D01*
X135709090Y-109012299D01*
X135657125Y-108828046D01*
X135657124Y-108828044D01*
X135655557Y-108822487D01*
X135644978Y-108801033D01*
X135568331Y-108645609D01*
X135565776Y-108640428D01*
X135444320Y-108477779D01*
X135295258Y-108339987D01*
X135290375Y-108336906D01*
X135290371Y-108336903D01*
X135128464Y-108234748D01*
X135123581Y-108231667D01*
X134935039Y-108156446D01*
X134929379Y-108155320D01*
X134929375Y-108155319D01*
X134741613Y-108117971D01*
X134741610Y-108117971D01*
X134735946Y-108116844D01*
X134730171Y-108116768D01*
X134730167Y-108116768D01*
X134628793Y-108115441D01*
X134532971Y-108114187D01*
X134527274Y-108115166D01*
X134527273Y-108115166D01*
X134338607Y-108147585D01*
X134332910Y-108148564D01*
X134142463Y-108218824D01*
X133968010Y-108322612D01*
X133963670Y-108326418D01*
X133963666Y-108326421D01*
X133943723Y-108343911D01*
X133815392Y-108456455D01*
X133689720Y-108615869D01*
X133687031Y-108620980D01*
X133687029Y-108620983D01*
X133674073Y-108645609D01*
X133595203Y-108795515D01*
X133535007Y-108989378D01*
X133511148Y-109190964D01*
X115406564Y-109190964D01*
X115390658Y-109017859D01*
X115389090Y-109012299D01*
X115337125Y-108828046D01*
X115337124Y-108828044D01*
X115335557Y-108822487D01*
X115324978Y-108801033D01*
X115248331Y-108645609D01*
X115245776Y-108640428D01*
X115124320Y-108477779D01*
X114975258Y-108339987D01*
X114970375Y-108336906D01*
X114970371Y-108336903D01*
X114808464Y-108234748D01*
X114803581Y-108231667D01*
X114615039Y-108156446D01*
X114609379Y-108155320D01*
X114609375Y-108155319D01*
X114421613Y-108117971D01*
X114421610Y-108117971D01*
X114415946Y-108116844D01*
X114410171Y-108116768D01*
X114410167Y-108116768D01*
X114308793Y-108115441D01*
X114212971Y-108114187D01*
X114207274Y-108115166D01*
X114207273Y-108115166D01*
X114018607Y-108147585D01*
X114012910Y-108148564D01*
X113822463Y-108218824D01*
X113648010Y-108322612D01*
X113643670Y-108326418D01*
X113643666Y-108326421D01*
X113623723Y-108343911D01*
X113495392Y-108456455D01*
X113369720Y-108615869D01*
X113367031Y-108620980D01*
X113367029Y-108620983D01*
X113354073Y-108645609D01*
X113275203Y-108795515D01*
X113215007Y-108989378D01*
X113191148Y-109190964D01*
X50800500Y-109190964D01*
X50800500Y-106650964D01*
X113191148Y-106650964D01*
X113204424Y-106853522D01*
X113205845Y-106859118D01*
X113205846Y-106859123D01*
X113226119Y-106938945D01*
X113254392Y-107050269D01*
X113256809Y-107055512D01*
X113294010Y-107136208D01*
X113339377Y-107234616D01*
X113456533Y-107400389D01*
X113601938Y-107542035D01*
X113770720Y-107654812D01*
X113776023Y-107657090D01*
X113776026Y-107657092D01*
X113864707Y-107695192D01*
X113957228Y-107734942D01*
X114030244Y-107751464D01*
X114149579Y-107778467D01*
X114149584Y-107778468D01*
X114155216Y-107779742D01*
X114160987Y-107779969D01*
X114160989Y-107779969D01*
X114220756Y-107782317D01*
X114358053Y-107787712D01*
X114458499Y-107773148D01*
X114553231Y-107759413D01*
X114553236Y-107759412D01*
X114558945Y-107758584D01*
X114564409Y-107756729D01*
X114564414Y-107756728D01*
X114745693Y-107695192D01*
X114745698Y-107695190D01*
X114751165Y-107693334D01*
X114928276Y-107594147D01*
X114990934Y-107542035D01*
X115079913Y-107468031D01*
X115084345Y-107464345D01*
X115214147Y-107308276D01*
X115313334Y-107131165D01*
X115315190Y-107125698D01*
X115315192Y-107125693D01*
X115376728Y-106944414D01*
X115376729Y-106944409D01*
X115378584Y-106938945D01*
X115379412Y-106933236D01*
X115379413Y-106933231D01*
X115407179Y-106741727D01*
X115407712Y-106738053D01*
X115409232Y-106680000D01*
X115406564Y-106650964D01*
X133511148Y-106650964D01*
X133524424Y-106853522D01*
X133525845Y-106859118D01*
X133525846Y-106859123D01*
X133546119Y-106938945D01*
X133574392Y-107050269D01*
X133576809Y-107055512D01*
X133614010Y-107136208D01*
X133659377Y-107234616D01*
X133776533Y-107400389D01*
X133921938Y-107542035D01*
X134090720Y-107654812D01*
X134096023Y-107657090D01*
X134096026Y-107657092D01*
X134184707Y-107695192D01*
X134277228Y-107734942D01*
X134350244Y-107751464D01*
X134469579Y-107778467D01*
X134469584Y-107778468D01*
X134475216Y-107779742D01*
X134480987Y-107779969D01*
X134480989Y-107779969D01*
X134540756Y-107782317D01*
X134678053Y-107787712D01*
X134778499Y-107773148D01*
X134873231Y-107759413D01*
X134873236Y-107759412D01*
X134878945Y-107758584D01*
X134884409Y-107756729D01*
X134884414Y-107756728D01*
X135065693Y-107695192D01*
X135065698Y-107695190D01*
X135071165Y-107693334D01*
X135248276Y-107594147D01*
X135310934Y-107542035D01*
X135399913Y-107468031D01*
X135404345Y-107464345D01*
X135534147Y-107308276D01*
X135633334Y-107131165D01*
X135635190Y-107125698D01*
X135635192Y-107125693D01*
X135696728Y-106944414D01*
X135696729Y-106944409D01*
X135698584Y-106938945D01*
X135699412Y-106933236D01*
X135699413Y-106933231D01*
X135727179Y-106741727D01*
X135727712Y-106738053D01*
X135729232Y-106680000D01*
X135710658Y-106477859D01*
X135709090Y-106472299D01*
X135657125Y-106288046D01*
X135657124Y-106288044D01*
X135655557Y-106282487D01*
X135644978Y-106261033D01*
X135568331Y-106105609D01*
X135565776Y-106100428D01*
X135444320Y-105937779D01*
X135295258Y-105799987D01*
X135290375Y-105796906D01*
X135290371Y-105796903D01*
X135128464Y-105694748D01*
X135123581Y-105691667D01*
X134935039Y-105616446D01*
X134929379Y-105615320D01*
X134929375Y-105615319D01*
X134741613Y-105577971D01*
X134741610Y-105577971D01*
X134735946Y-105576844D01*
X134730171Y-105576768D01*
X134730167Y-105576768D01*
X134628793Y-105575441D01*
X134532971Y-105574187D01*
X134527274Y-105575166D01*
X134527273Y-105575166D01*
X134338607Y-105607585D01*
X134332910Y-105608564D01*
X134142463Y-105678824D01*
X133968010Y-105782612D01*
X133963670Y-105786418D01*
X133963666Y-105786421D01*
X133943723Y-105803911D01*
X133815392Y-105916455D01*
X133689720Y-106075869D01*
X133687031Y-106080980D01*
X133687029Y-106080983D01*
X133674073Y-106105609D01*
X133595203Y-106255515D01*
X133535007Y-106449378D01*
X133511148Y-106650964D01*
X115406564Y-106650964D01*
X115390658Y-106477859D01*
X115389090Y-106472299D01*
X115337125Y-106288046D01*
X115337124Y-106288044D01*
X115335557Y-106282487D01*
X115324978Y-106261033D01*
X115248331Y-106105609D01*
X115245776Y-106100428D01*
X115124320Y-105937779D01*
X114975258Y-105799987D01*
X114970375Y-105796906D01*
X114970371Y-105796903D01*
X114808464Y-105694748D01*
X114803581Y-105691667D01*
X114615039Y-105616446D01*
X114609379Y-105615320D01*
X114609375Y-105615319D01*
X114421613Y-105577971D01*
X114421610Y-105577971D01*
X114415946Y-105576844D01*
X114410171Y-105576768D01*
X114410167Y-105576768D01*
X114308793Y-105575441D01*
X114212971Y-105574187D01*
X114207274Y-105575166D01*
X114207273Y-105575166D01*
X114018607Y-105607585D01*
X114012910Y-105608564D01*
X113822463Y-105678824D01*
X113648010Y-105782612D01*
X113643670Y-105786418D01*
X113643666Y-105786421D01*
X113623723Y-105803911D01*
X113495392Y-105916455D01*
X113369720Y-106075869D01*
X113367031Y-106080980D01*
X113367029Y-106080983D01*
X113354073Y-106105609D01*
X113275203Y-106255515D01*
X113215007Y-106449378D01*
X113191148Y-106650964D01*
X50800500Y-106650964D01*
X50800500Y-104110964D01*
X113191148Y-104110964D01*
X113204424Y-104313522D01*
X113205845Y-104319118D01*
X113205846Y-104319123D01*
X113226119Y-104398945D01*
X113254392Y-104510269D01*
X113256809Y-104515512D01*
X113294010Y-104596208D01*
X113339377Y-104694616D01*
X113456533Y-104860389D01*
X113601938Y-105002035D01*
X113770720Y-105114812D01*
X113776023Y-105117090D01*
X113776026Y-105117092D01*
X113864707Y-105155192D01*
X113957228Y-105194942D01*
X114030244Y-105211464D01*
X114149579Y-105238467D01*
X114149584Y-105238468D01*
X114155216Y-105239742D01*
X114160987Y-105239969D01*
X114160989Y-105239969D01*
X114220756Y-105242317D01*
X114358053Y-105247712D01*
X114458499Y-105233148D01*
X114553231Y-105219413D01*
X114553236Y-105219412D01*
X114558945Y-105218584D01*
X114564409Y-105216729D01*
X114564414Y-105216728D01*
X114745693Y-105155192D01*
X114745698Y-105155190D01*
X114751165Y-105153334D01*
X114928276Y-105054147D01*
X114990934Y-105002035D01*
X115079913Y-104928031D01*
X115084345Y-104924345D01*
X115214147Y-104768276D01*
X115313334Y-104591165D01*
X115315190Y-104585698D01*
X115315192Y-104585693D01*
X115376728Y-104404414D01*
X115376729Y-104404409D01*
X115378584Y-104398945D01*
X115379412Y-104393236D01*
X115379413Y-104393231D01*
X115407179Y-104201727D01*
X115407712Y-104198053D01*
X115409232Y-104140000D01*
X115406564Y-104110964D01*
X133511148Y-104110964D01*
X133524424Y-104313522D01*
X133525845Y-104319118D01*
X133525846Y-104319123D01*
X133546119Y-104398945D01*
X133574392Y-104510269D01*
X133576809Y-104515512D01*
X133614010Y-104596208D01*
X133659377Y-104694616D01*
X133776533Y-104860389D01*
X133921938Y-105002035D01*
X134090720Y-105114812D01*
X134096023Y-105117090D01*
X134096026Y-105117092D01*
X134184707Y-105155192D01*
X134277228Y-105194942D01*
X134350244Y-105211464D01*
X134469579Y-105238467D01*
X134469584Y-105238468D01*
X134475216Y-105239742D01*
X134480987Y-105239969D01*
X134480989Y-105239969D01*
X134540756Y-105242317D01*
X134678053Y-105247712D01*
X134778499Y-105233148D01*
X134873231Y-105219413D01*
X134873236Y-105219412D01*
X134878945Y-105218584D01*
X134884409Y-105216729D01*
X134884414Y-105216728D01*
X135065693Y-105155192D01*
X135065698Y-105155190D01*
X135071165Y-105153334D01*
X135248276Y-105054147D01*
X135310934Y-105002035D01*
X135399913Y-104928031D01*
X135404345Y-104924345D01*
X135534147Y-104768276D01*
X135633334Y-104591165D01*
X135635190Y-104585698D01*
X135635192Y-104585693D01*
X135696728Y-104404414D01*
X135696729Y-104404409D01*
X135698584Y-104398945D01*
X135699412Y-104393236D01*
X135699413Y-104393231D01*
X135727179Y-104201727D01*
X135727712Y-104198053D01*
X135729232Y-104140000D01*
X135710658Y-103937859D01*
X135709090Y-103932299D01*
X135657125Y-103748046D01*
X135657124Y-103748044D01*
X135655557Y-103742487D01*
X135644978Y-103721033D01*
X135568331Y-103565609D01*
X135565776Y-103560428D01*
X135444320Y-103397779D01*
X135295258Y-103259987D01*
X135290375Y-103256906D01*
X135290371Y-103256903D01*
X135128464Y-103154748D01*
X135123581Y-103151667D01*
X134935039Y-103076446D01*
X134929379Y-103075320D01*
X134929375Y-103075319D01*
X134741613Y-103037971D01*
X134741610Y-103037971D01*
X134735946Y-103036844D01*
X134730171Y-103036768D01*
X134730167Y-103036768D01*
X134628793Y-103035441D01*
X134532971Y-103034187D01*
X134527274Y-103035166D01*
X134527273Y-103035166D01*
X134338607Y-103067585D01*
X134332910Y-103068564D01*
X134142463Y-103138824D01*
X133968010Y-103242612D01*
X133963670Y-103246418D01*
X133963666Y-103246421D01*
X133943723Y-103263911D01*
X133815392Y-103376455D01*
X133689720Y-103535869D01*
X133687031Y-103540980D01*
X133687029Y-103540983D01*
X133674073Y-103565609D01*
X133595203Y-103715515D01*
X133535007Y-103909378D01*
X133511148Y-104110964D01*
X115406564Y-104110964D01*
X115390658Y-103937859D01*
X115389090Y-103932299D01*
X115337125Y-103748046D01*
X115337124Y-103748044D01*
X115335557Y-103742487D01*
X115324978Y-103721033D01*
X115248331Y-103565609D01*
X115245776Y-103560428D01*
X115124320Y-103397779D01*
X114975258Y-103259987D01*
X114970375Y-103256906D01*
X114970371Y-103256903D01*
X114808464Y-103154748D01*
X114803581Y-103151667D01*
X114615039Y-103076446D01*
X114609379Y-103075320D01*
X114609375Y-103075319D01*
X114421613Y-103037971D01*
X114421610Y-103037971D01*
X114415946Y-103036844D01*
X114410171Y-103036768D01*
X114410167Y-103036768D01*
X114308793Y-103035441D01*
X114212971Y-103034187D01*
X114207274Y-103035166D01*
X114207273Y-103035166D01*
X114018607Y-103067585D01*
X114012910Y-103068564D01*
X113822463Y-103138824D01*
X113648010Y-103242612D01*
X113643670Y-103246418D01*
X113643666Y-103246421D01*
X113623723Y-103263911D01*
X113495392Y-103376455D01*
X113369720Y-103535869D01*
X113367031Y-103540980D01*
X113367029Y-103540983D01*
X113354073Y-103565609D01*
X113275203Y-103715515D01*
X113215007Y-103909378D01*
X113191148Y-104110964D01*
X50800500Y-104110964D01*
X50800500Y-101570964D01*
X113191148Y-101570964D01*
X113204424Y-101773522D01*
X113205845Y-101779118D01*
X113205846Y-101779123D01*
X113226119Y-101858945D01*
X113254392Y-101970269D01*
X113256809Y-101975512D01*
X113294010Y-102056208D01*
X113339377Y-102154616D01*
X113456533Y-102320389D01*
X113601938Y-102462035D01*
X113770720Y-102574812D01*
X113776023Y-102577090D01*
X113776026Y-102577092D01*
X113864707Y-102615192D01*
X113957228Y-102654942D01*
X114030244Y-102671464D01*
X114149579Y-102698467D01*
X114149584Y-102698468D01*
X114155216Y-102699742D01*
X114160987Y-102699969D01*
X114160989Y-102699969D01*
X114220756Y-102702317D01*
X114358053Y-102707712D01*
X114458499Y-102693148D01*
X114553231Y-102679413D01*
X114553236Y-102679412D01*
X114558945Y-102678584D01*
X114564409Y-102676729D01*
X114564414Y-102676728D01*
X114745693Y-102615192D01*
X114745698Y-102615190D01*
X114751165Y-102613334D01*
X114928276Y-102514147D01*
X114990934Y-102462035D01*
X115079913Y-102388031D01*
X115084345Y-102384345D01*
X115214147Y-102228276D01*
X115313334Y-102051165D01*
X115315190Y-102045698D01*
X115315192Y-102045693D01*
X115376728Y-101864414D01*
X115376729Y-101864409D01*
X115378584Y-101858945D01*
X115379412Y-101853236D01*
X115379413Y-101853231D01*
X115407179Y-101661727D01*
X115407712Y-101658053D01*
X115409232Y-101600000D01*
X115406564Y-101570964D01*
X133511148Y-101570964D01*
X133524424Y-101773522D01*
X133525845Y-101779118D01*
X133525846Y-101779123D01*
X133546119Y-101858945D01*
X133574392Y-101970269D01*
X133576809Y-101975512D01*
X133614010Y-102056208D01*
X133659377Y-102154616D01*
X133776533Y-102320389D01*
X133921938Y-102462035D01*
X134090720Y-102574812D01*
X134096023Y-102577090D01*
X134096026Y-102577092D01*
X134184707Y-102615192D01*
X134277228Y-102654942D01*
X134350244Y-102671464D01*
X134469579Y-102698467D01*
X134469584Y-102698468D01*
X134475216Y-102699742D01*
X134480987Y-102699969D01*
X134480989Y-102699969D01*
X134540756Y-102702317D01*
X134678053Y-102707712D01*
X134778499Y-102693148D01*
X134873231Y-102679413D01*
X134873236Y-102679412D01*
X134878945Y-102678584D01*
X134884409Y-102676729D01*
X134884414Y-102676728D01*
X135065693Y-102615192D01*
X135065698Y-102615190D01*
X135071165Y-102613334D01*
X135248276Y-102514147D01*
X135310934Y-102462035D01*
X135399913Y-102388031D01*
X135404345Y-102384345D01*
X135534147Y-102228276D01*
X135633334Y-102051165D01*
X135635190Y-102045698D01*
X135635192Y-102045693D01*
X135696728Y-101864414D01*
X135696729Y-101864409D01*
X135698584Y-101858945D01*
X135699412Y-101853236D01*
X135699413Y-101853231D01*
X135727179Y-101661727D01*
X135727712Y-101658053D01*
X135729232Y-101600000D01*
X135710658Y-101397859D01*
X135709090Y-101392299D01*
X135657125Y-101208046D01*
X135657124Y-101208044D01*
X135655557Y-101202487D01*
X135644978Y-101181033D01*
X135568331Y-101025609D01*
X135565776Y-101020428D01*
X135444320Y-100857779D01*
X135295258Y-100719987D01*
X135290375Y-100716906D01*
X135290371Y-100716903D01*
X135128464Y-100614748D01*
X135123581Y-100611667D01*
X134935039Y-100536446D01*
X134929379Y-100535320D01*
X134929375Y-100535319D01*
X134741613Y-100497971D01*
X134741610Y-100497971D01*
X134735946Y-100496844D01*
X134730171Y-100496768D01*
X134730167Y-100496768D01*
X134628793Y-100495441D01*
X134532971Y-100494187D01*
X134527274Y-100495166D01*
X134527273Y-100495166D01*
X134338607Y-100527585D01*
X134332910Y-100528564D01*
X134142463Y-100598824D01*
X133968010Y-100702612D01*
X133963670Y-100706418D01*
X133963666Y-100706421D01*
X133943723Y-100723911D01*
X133815392Y-100836455D01*
X133689720Y-100995869D01*
X133687031Y-101000980D01*
X133687029Y-101000983D01*
X133674073Y-101025609D01*
X133595203Y-101175515D01*
X133535007Y-101369378D01*
X133511148Y-101570964D01*
X115406564Y-101570964D01*
X115390658Y-101397859D01*
X115389090Y-101392299D01*
X115337125Y-101208046D01*
X115337124Y-101208044D01*
X115335557Y-101202487D01*
X115324978Y-101181033D01*
X115248331Y-101025609D01*
X115245776Y-101020428D01*
X115124320Y-100857779D01*
X114975258Y-100719987D01*
X114970375Y-100716906D01*
X114970371Y-100716903D01*
X114808464Y-100614748D01*
X114803581Y-100611667D01*
X114615039Y-100536446D01*
X114609379Y-100535320D01*
X114609375Y-100535319D01*
X114421613Y-100497971D01*
X114421610Y-100497971D01*
X114415946Y-100496844D01*
X114410171Y-100496768D01*
X114410167Y-100496768D01*
X114308793Y-100495441D01*
X114212971Y-100494187D01*
X114207274Y-100495166D01*
X114207273Y-100495166D01*
X114018607Y-100527585D01*
X114012910Y-100528564D01*
X113822463Y-100598824D01*
X113648010Y-100702612D01*
X113643670Y-100706418D01*
X113643666Y-100706421D01*
X113623723Y-100723911D01*
X113495392Y-100836455D01*
X113369720Y-100995869D01*
X113367031Y-101000980D01*
X113367029Y-101000983D01*
X113354073Y-101025609D01*
X113275203Y-101175515D01*
X113215007Y-101369378D01*
X113191148Y-101570964D01*
X50800500Y-101570964D01*
X50800500Y-99030964D01*
X113191148Y-99030964D01*
X113204424Y-99233522D01*
X113205845Y-99239118D01*
X113205846Y-99239123D01*
X113226119Y-99318945D01*
X113254392Y-99430269D01*
X113256809Y-99435512D01*
X113294010Y-99516208D01*
X113339377Y-99614616D01*
X113456533Y-99780389D01*
X113601938Y-99922035D01*
X113770720Y-100034812D01*
X113776023Y-100037090D01*
X113776026Y-100037092D01*
X113864707Y-100075192D01*
X113957228Y-100114942D01*
X114030244Y-100131464D01*
X114149579Y-100158467D01*
X114149584Y-100158468D01*
X114155216Y-100159742D01*
X114160987Y-100159969D01*
X114160989Y-100159969D01*
X114220756Y-100162317D01*
X114358053Y-100167712D01*
X114458499Y-100153148D01*
X114553231Y-100139413D01*
X114553236Y-100139412D01*
X114558945Y-100138584D01*
X114564409Y-100136729D01*
X114564414Y-100136728D01*
X114745693Y-100075192D01*
X114745698Y-100075190D01*
X114751165Y-100073334D01*
X114928276Y-99974147D01*
X114990934Y-99922035D01*
X115079913Y-99848031D01*
X115084345Y-99844345D01*
X115214147Y-99688276D01*
X115313334Y-99511165D01*
X115315190Y-99505698D01*
X115315192Y-99505693D01*
X115376728Y-99324414D01*
X115376729Y-99324409D01*
X115378584Y-99318945D01*
X115379412Y-99313236D01*
X115379413Y-99313231D01*
X115407179Y-99121727D01*
X115407712Y-99118053D01*
X115409232Y-99060000D01*
X115406564Y-99030964D01*
X133511148Y-99030964D01*
X133524424Y-99233522D01*
X133525845Y-99239118D01*
X133525846Y-99239123D01*
X133546119Y-99318945D01*
X133574392Y-99430269D01*
X133576809Y-99435512D01*
X133614010Y-99516208D01*
X133659377Y-99614616D01*
X133776533Y-99780389D01*
X133921938Y-99922035D01*
X134090720Y-100034812D01*
X134096023Y-100037090D01*
X134096026Y-100037092D01*
X134184707Y-100075192D01*
X134277228Y-100114942D01*
X134350244Y-100131464D01*
X134469579Y-100158467D01*
X134469584Y-100158468D01*
X134475216Y-100159742D01*
X134480987Y-100159969D01*
X134480989Y-100159969D01*
X134540756Y-100162317D01*
X134678053Y-100167712D01*
X134778499Y-100153148D01*
X134873231Y-100139413D01*
X134873236Y-100139412D01*
X134878945Y-100138584D01*
X134884409Y-100136729D01*
X134884414Y-100136728D01*
X135065693Y-100075192D01*
X135065698Y-100075190D01*
X135071165Y-100073334D01*
X135248276Y-99974147D01*
X135310934Y-99922035D01*
X135399913Y-99848031D01*
X135404345Y-99844345D01*
X135534147Y-99688276D01*
X135633334Y-99511165D01*
X135635190Y-99505698D01*
X135635192Y-99505693D01*
X135696728Y-99324414D01*
X135696729Y-99324409D01*
X135698584Y-99318945D01*
X135699412Y-99313236D01*
X135699413Y-99313231D01*
X135727179Y-99121727D01*
X135727712Y-99118053D01*
X135729232Y-99060000D01*
X135710658Y-98857859D01*
X135709090Y-98852299D01*
X135657125Y-98668046D01*
X135657124Y-98668044D01*
X135655557Y-98662487D01*
X135644978Y-98641033D01*
X135568331Y-98485609D01*
X135565776Y-98480428D01*
X135444320Y-98317779D01*
X135295258Y-98179987D01*
X135290375Y-98176906D01*
X135290371Y-98176903D01*
X135128464Y-98074748D01*
X135123581Y-98071667D01*
X134935039Y-97996446D01*
X134929379Y-97995320D01*
X134929375Y-97995319D01*
X134741613Y-97957971D01*
X134741610Y-97957971D01*
X134735946Y-97956844D01*
X134730171Y-97956768D01*
X134730167Y-97956768D01*
X134628793Y-97955441D01*
X134532971Y-97954187D01*
X134527274Y-97955166D01*
X134527273Y-97955166D01*
X134338607Y-97987585D01*
X134332910Y-97988564D01*
X134142463Y-98058824D01*
X133968010Y-98162612D01*
X133963670Y-98166418D01*
X133963666Y-98166421D01*
X133943723Y-98183911D01*
X133815392Y-98296455D01*
X133689720Y-98455869D01*
X133687031Y-98460980D01*
X133687029Y-98460983D01*
X133674073Y-98485609D01*
X133595203Y-98635515D01*
X133535007Y-98829378D01*
X133511148Y-99030964D01*
X115406564Y-99030964D01*
X115390658Y-98857859D01*
X115389090Y-98852299D01*
X115337125Y-98668046D01*
X115337124Y-98668044D01*
X115335557Y-98662487D01*
X115324978Y-98641033D01*
X115248331Y-98485609D01*
X115245776Y-98480428D01*
X115124320Y-98317779D01*
X114975258Y-98179987D01*
X114970375Y-98176906D01*
X114970371Y-98176903D01*
X114808464Y-98074748D01*
X114803581Y-98071667D01*
X114615039Y-97996446D01*
X114609379Y-97995320D01*
X114609375Y-97995319D01*
X114421613Y-97957971D01*
X114421610Y-97957971D01*
X114415946Y-97956844D01*
X114410171Y-97956768D01*
X114410167Y-97956768D01*
X114308793Y-97955441D01*
X114212971Y-97954187D01*
X114207274Y-97955166D01*
X114207273Y-97955166D01*
X114018607Y-97987585D01*
X114012910Y-97988564D01*
X113822463Y-98058824D01*
X113648010Y-98162612D01*
X113643670Y-98166418D01*
X113643666Y-98166421D01*
X113623723Y-98183911D01*
X113495392Y-98296455D01*
X113369720Y-98455869D01*
X113367031Y-98460980D01*
X113367029Y-98460983D01*
X113354073Y-98485609D01*
X113275203Y-98635515D01*
X113215007Y-98829378D01*
X113191148Y-99030964D01*
X50800500Y-99030964D01*
X50800500Y-94247966D01*
X112968257Y-94247966D01*
X112998565Y-94382446D01*
X113001645Y-94392275D01*
X113081770Y-94589603D01*
X113086413Y-94598794D01*
X113197694Y-94780388D01*
X113203777Y-94788699D01*
X113343213Y-94949667D01*
X113350580Y-94956883D01*
X113514434Y-95092916D01*
X113522881Y-95098831D01*
X113706756Y-95206279D01*
X113716042Y-95210729D01*
X113865124Y-95267657D01*
X113921627Y-95310644D01*
X113945920Y-95377355D01*
X113930290Y-95446610D01*
X113879699Y-95496421D01*
X113863785Y-95503579D01*
X113822463Y-95518824D01*
X113648010Y-95622612D01*
X113643670Y-95626418D01*
X113643666Y-95626421D01*
X113623723Y-95643911D01*
X113495392Y-95756455D01*
X113369720Y-95915869D01*
X113367031Y-95920980D01*
X113367029Y-95920983D01*
X113354073Y-95945609D01*
X113275203Y-96095515D01*
X113215007Y-96289378D01*
X113191148Y-96490964D01*
X113204424Y-96693522D01*
X113205845Y-96699118D01*
X113205846Y-96699123D01*
X113226119Y-96778945D01*
X113254392Y-96890269D01*
X113256809Y-96895512D01*
X113294010Y-96976208D01*
X113339377Y-97074616D01*
X113456533Y-97240389D01*
X113601938Y-97382035D01*
X113770720Y-97494812D01*
X113776023Y-97497090D01*
X113776026Y-97497092D01*
X113864707Y-97535192D01*
X113957228Y-97574942D01*
X114030244Y-97591464D01*
X114149579Y-97618467D01*
X114149584Y-97618468D01*
X114155216Y-97619742D01*
X114160987Y-97619969D01*
X114160989Y-97619969D01*
X114220756Y-97622317D01*
X114358053Y-97627712D01*
X114458499Y-97613148D01*
X114553231Y-97599413D01*
X114553236Y-97599412D01*
X114558945Y-97598584D01*
X114564409Y-97596729D01*
X114564414Y-97596728D01*
X114745693Y-97535192D01*
X114745698Y-97535190D01*
X114751165Y-97533334D01*
X114928276Y-97434147D01*
X114990934Y-97382035D01*
X115079913Y-97308031D01*
X115084345Y-97304345D01*
X115214147Y-97148276D01*
X115313334Y-96971165D01*
X115315190Y-96965698D01*
X115315192Y-96965693D01*
X115376728Y-96784414D01*
X115376729Y-96784409D01*
X115378584Y-96778945D01*
X115379412Y-96773236D01*
X115379413Y-96773231D01*
X115407179Y-96581727D01*
X115407712Y-96578053D01*
X115409232Y-96520000D01*
X115406564Y-96490964D01*
X133511148Y-96490964D01*
X133524424Y-96693522D01*
X133525845Y-96699118D01*
X133525846Y-96699123D01*
X133546119Y-96778945D01*
X133574392Y-96890269D01*
X133576809Y-96895512D01*
X133614010Y-96976208D01*
X133659377Y-97074616D01*
X133776533Y-97240389D01*
X133921938Y-97382035D01*
X134090720Y-97494812D01*
X134096023Y-97497090D01*
X134096026Y-97497092D01*
X134184707Y-97535192D01*
X134277228Y-97574942D01*
X134350244Y-97591464D01*
X134469579Y-97618467D01*
X134469584Y-97618468D01*
X134475216Y-97619742D01*
X134480987Y-97619969D01*
X134480989Y-97619969D01*
X134540756Y-97622317D01*
X134678053Y-97627712D01*
X134778499Y-97613148D01*
X134873231Y-97599413D01*
X134873236Y-97599412D01*
X134878945Y-97598584D01*
X134884409Y-97596729D01*
X134884414Y-97596728D01*
X135065693Y-97535192D01*
X135065698Y-97535190D01*
X135071165Y-97533334D01*
X135248276Y-97434147D01*
X135310934Y-97382035D01*
X135399913Y-97308031D01*
X135404345Y-97304345D01*
X135534147Y-97148276D01*
X135633334Y-96971165D01*
X135635190Y-96965698D01*
X135635192Y-96965693D01*
X135696728Y-96784414D01*
X135696729Y-96784409D01*
X135698584Y-96778945D01*
X135699412Y-96773236D01*
X135699413Y-96773231D01*
X135727179Y-96581727D01*
X135727712Y-96578053D01*
X135729232Y-96520000D01*
X135710658Y-96317859D01*
X135709090Y-96312299D01*
X135657125Y-96128046D01*
X135657124Y-96128044D01*
X135655557Y-96122487D01*
X135644978Y-96101033D01*
X135568331Y-95945609D01*
X135565776Y-95940428D01*
X135444320Y-95777779D01*
X135295258Y-95639987D01*
X135290375Y-95636906D01*
X135290371Y-95636903D01*
X135128464Y-95534748D01*
X135123581Y-95531667D01*
X134935039Y-95456446D01*
X134929379Y-95455320D01*
X134929375Y-95455319D01*
X134741613Y-95417971D01*
X134741610Y-95417971D01*
X134735946Y-95416844D01*
X134730171Y-95416768D01*
X134730167Y-95416768D01*
X134628793Y-95415441D01*
X134532971Y-95414187D01*
X134527274Y-95415166D01*
X134527273Y-95415166D01*
X134338607Y-95447585D01*
X134332910Y-95448564D01*
X134142463Y-95518824D01*
X133968010Y-95622612D01*
X133963670Y-95626418D01*
X133963666Y-95626421D01*
X133943723Y-95643911D01*
X133815392Y-95756455D01*
X133689720Y-95915869D01*
X133687031Y-95920980D01*
X133687029Y-95920983D01*
X133674073Y-95945609D01*
X133595203Y-96095515D01*
X133535007Y-96289378D01*
X133511148Y-96490964D01*
X115406564Y-96490964D01*
X115390658Y-96317859D01*
X115389090Y-96312299D01*
X115337125Y-96128046D01*
X115337124Y-96128044D01*
X115335557Y-96122487D01*
X115324978Y-96101033D01*
X115248331Y-95945609D01*
X115245776Y-95940428D01*
X115124320Y-95777779D01*
X114975258Y-95639987D01*
X114970375Y-95636906D01*
X114970371Y-95636903D01*
X114808464Y-95534748D01*
X114803581Y-95531667D01*
X114731614Y-95502955D01*
X114675755Y-95459134D01*
X114652455Y-95392069D01*
X114669111Y-95323054D01*
X114720436Y-95274000D01*
X114742098Y-95265239D01*
X114792252Y-95250192D01*
X114801842Y-95246433D01*
X114993095Y-95152739D01*
X115001945Y-95147464D01*
X115175328Y-95023792D01*
X115183200Y-95017139D01*
X115334052Y-94866812D01*
X115340730Y-94858965D01*
X115465003Y-94686020D01*
X115470313Y-94677183D01*
X115564670Y-94486267D01*
X115568469Y-94476672D01*
X115630377Y-94272910D01*
X115632555Y-94262837D01*
X115633986Y-94251962D01*
X115631775Y-94237778D01*
X115618617Y-94234000D01*
X112983225Y-94234000D01*
X112969694Y-94237973D01*
X112968257Y-94247966D01*
X50800500Y-94247966D01*
X50800500Y-93950964D01*
X133511148Y-93950964D01*
X133524424Y-94153522D01*
X133525845Y-94159118D01*
X133525846Y-94159123D01*
X133545872Y-94237973D01*
X133574392Y-94350269D01*
X133576809Y-94355512D01*
X133614010Y-94436208D01*
X133659377Y-94534616D01*
X133776533Y-94700389D01*
X133921938Y-94842035D01*
X134090720Y-94954812D01*
X134096023Y-94957090D01*
X134096026Y-94957092D01*
X134271921Y-95032662D01*
X134277228Y-95034942D01*
X134350244Y-95051464D01*
X134469579Y-95078467D01*
X134469584Y-95078468D01*
X134475216Y-95079742D01*
X134480987Y-95079969D01*
X134480989Y-95079969D01*
X134540756Y-95082317D01*
X134678053Y-95087712D01*
X134778499Y-95073148D01*
X134873231Y-95059413D01*
X134873236Y-95059412D01*
X134878945Y-95058584D01*
X134884409Y-95056729D01*
X134884414Y-95056728D01*
X135065693Y-94995192D01*
X135065698Y-94995190D01*
X135071165Y-94993334D01*
X135248276Y-94894147D01*
X135310934Y-94842035D01*
X135375696Y-94788172D01*
X135404345Y-94764345D01*
X135534147Y-94608276D01*
X135633334Y-94431165D01*
X135635190Y-94425698D01*
X135635192Y-94425693D01*
X135696728Y-94244414D01*
X135696729Y-94244409D01*
X135698584Y-94238945D01*
X135699412Y-94233236D01*
X135699413Y-94233231D01*
X135727179Y-94041727D01*
X135727712Y-94038053D01*
X135729232Y-93980000D01*
X135710658Y-93777859D01*
X135709090Y-93772299D01*
X135657125Y-93588046D01*
X135657124Y-93588044D01*
X135655557Y-93582487D01*
X135644978Y-93561033D01*
X135568331Y-93405609D01*
X135565776Y-93400428D01*
X135444320Y-93237779D01*
X135295258Y-93099987D01*
X135290375Y-93096906D01*
X135290371Y-93096903D01*
X135128464Y-92994748D01*
X135123581Y-92991667D01*
X134935039Y-92916446D01*
X134929379Y-92915320D01*
X134929375Y-92915319D01*
X134741613Y-92877971D01*
X134741610Y-92877971D01*
X134735946Y-92876844D01*
X134730171Y-92876768D01*
X134730167Y-92876768D01*
X134628793Y-92875441D01*
X134532971Y-92874187D01*
X134527274Y-92875166D01*
X134527273Y-92875166D01*
X134338607Y-92907585D01*
X134332910Y-92908564D01*
X134142463Y-92978824D01*
X133968010Y-93082612D01*
X133963670Y-93086418D01*
X133963666Y-93086421D01*
X133819733Y-93212648D01*
X133815392Y-93216455D01*
X133689720Y-93375869D01*
X133687031Y-93380980D01*
X133687029Y-93380983D01*
X133674073Y-93405609D01*
X133595203Y-93555515D01*
X133535007Y-93749378D01*
X133511148Y-93950964D01*
X50800500Y-93950964D01*
X50800500Y-93714183D01*
X112964389Y-93714183D01*
X112965912Y-93722607D01*
X112978292Y-93726000D01*
X115618344Y-93726000D01*
X115631875Y-93722027D01*
X115633180Y-93712947D01*
X115591214Y-93545875D01*
X115587894Y-93536124D01*
X115502972Y-93340814D01*
X115498105Y-93331739D01*
X115382426Y-93152926D01*
X115376136Y-93144757D01*
X115232806Y-92987240D01*
X115225273Y-92980215D01*
X115058139Y-92848222D01*
X115049552Y-92842517D01*
X114863117Y-92739599D01*
X114853705Y-92735369D01*
X114739391Y-92694888D01*
X114681855Y-92653294D01*
X114655939Y-92587196D01*
X114669873Y-92517580D01*
X114719232Y-92466549D01*
X114740943Y-92456804D01*
X114751165Y-92453334D01*
X114928276Y-92354147D01*
X114990934Y-92302035D01*
X115079913Y-92228031D01*
X115084345Y-92224345D01*
X115214147Y-92068276D01*
X115313334Y-91891165D01*
X115315190Y-91885698D01*
X115315192Y-91885693D01*
X115376728Y-91704414D01*
X115376729Y-91704409D01*
X115378584Y-91698945D01*
X115379412Y-91693236D01*
X115379413Y-91693231D01*
X115407179Y-91501727D01*
X115407712Y-91498053D01*
X115409232Y-91440000D01*
X115390658Y-91237859D01*
X115389090Y-91232299D01*
X115337125Y-91048046D01*
X115337124Y-91048044D01*
X115335557Y-91042487D01*
X115324978Y-91021033D01*
X115248331Y-90865609D01*
X115245776Y-90860428D01*
X115124320Y-90697779D01*
X114975258Y-90559987D01*
X114970375Y-90556906D01*
X114970371Y-90556903D01*
X114808464Y-90454748D01*
X114803581Y-90451667D01*
X114615039Y-90376446D01*
X114609379Y-90375320D01*
X114609375Y-90375319D01*
X114421613Y-90337971D01*
X114421610Y-90337971D01*
X114415946Y-90336844D01*
X114410171Y-90336768D01*
X114410167Y-90336768D01*
X114308793Y-90335441D01*
X114212971Y-90334187D01*
X114207274Y-90335166D01*
X114207273Y-90335166D01*
X114021389Y-90367107D01*
X114012910Y-90368564D01*
X113822463Y-90438824D01*
X113648010Y-90542612D01*
X113643670Y-90546418D01*
X113643666Y-90546421D01*
X113623723Y-90563911D01*
X113495392Y-90676455D01*
X113369720Y-90835869D01*
X113367031Y-90840980D01*
X113367029Y-90840983D01*
X113354073Y-90865609D01*
X113275203Y-91015515D01*
X113215007Y-91209378D01*
X113191148Y-91410964D01*
X113204424Y-91613522D01*
X113205845Y-91619118D01*
X113205846Y-91619123D01*
X113226119Y-91698945D01*
X113254392Y-91810269D01*
X113256809Y-91815512D01*
X113294010Y-91896208D01*
X113339377Y-91994616D01*
X113456533Y-92160389D01*
X113601938Y-92302035D01*
X113770720Y-92414812D01*
X113776023Y-92417090D01*
X113776026Y-92417092D01*
X113872954Y-92458735D01*
X113927647Y-92504003D01*
X113949184Y-92571654D01*
X113930727Y-92640210D01*
X113878136Y-92687904D01*
X113862361Y-92694268D01*
X113776868Y-92722212D01*
X113767359Y-92726209D01*
X113578463Y-92824542D01*
X113569738Y-92830036D01*
X113399433Y-92957905D01*
X113391726Y-92964748D01*
X113244590Y-93118717D01*
X113238104Y-93126727D01*
X113118098Y-93302649D01*
X113113000Y-93311623D01*
X113023338Y-93504783D01*
X113019775Y-93514470D01*
X112964389Y-93714183D01*
X50800500Y-93714183D01*
X50800500Y-88024933D01*
X113195500Y-88024933D01*
X113195501Y-89775066D01*
X113210266Y-89849301D01*
X113266516Y-89933484D01*
X113350699Y-89989734D01*
X113424933Y-90004500D01*
X114299858Y-90004500D01*
X115175066Y-90004499D01*
X115210818Y-89997388D01*
X115237126Y-89992156D01*
X115237128Y-89992155D01*
X115249301Y-89989734D01*
X115259621Y-89982839D01*
X115259622Y-89982838D01*
X115323168Y-89940377D01*
X115333484Y-89933484D01*
X115389734Y-89849301D01*
X115400601Y-89794669D01*
X133262001Y-89794669D01*
X133262371Y-89801490D01*
X133267895Y-89852352D01*
X133271521Y-89867604D01*
X133316676Y-89988054D01*
X133325214Y-90003649D01*
X133401715Y-90105724D01*
X133414276Y-90118285D01*
X133516351Y-90194786D01*
X133531946Y-90203324D01*
X133652394Y-90248478D01*
X133667649Y-90252105D01*
X133718514Y-90257631D01*
X133725328Y-90258000D01*
X133988180Y-90258000D01*
X134056301Y-90278002D01*
X134102794Y-90331658D01*
X134112898Y-90401932D01*
X134083404Y-90466512D01*
X134052605Y-90492284D01*
X133968010Y-90542612D01*
X133963670Y-90546418D01*
X133963666Y-90546421D01*
X133943723Y-90563911D01*
X133815392Y-90676455D01*
X133689720Y-90835869D01*
X133687031Y-90840980D01*
X133687029Y-90840983D01*
X133674073Y-90865609D01*
X133595203Y-91015515D01*
X133535007Y-91209378D01*
X133511148Y-91410964D01*
X133524424Y-91613522D01*
X133525845Y-91619118D01*
X133525846Y-91619123D01*
X133546119Y-91698945D01*
X133574392Y-91810269D01*
X133576809Y-91815512D01*
X133614010Y-91896208D01*
X133659377Y-91994616D01*
X133776533Y-92160389D01*
X133921938Y-92302035D01*
X134090720Y-92414812D01*
X134096023Y-92417090D01*
X134096026Y-92417092D01*
X134211141Y-92466549D01*
X134277228Y-92494942D01*
X134350244Y-92511464D01*
X134469579Y-92538467D01*
X134469584Y-92538468D01*
X134475216Y-92539742D01*
X134480987Y-92539969D01*
X134480989Y-92539969D01*
X134540756Y-92542317D01*
X134678053Y-92547712D01*
X134778499Y-92533148D01*
X134873231Y-92519413D01*
X134873236Y-92519412D01*
X134878945Y-92518584D01*
X134884409Y-92516729D01*
X134884414Y-92516728D01*
X135065693Y-92455192D01*
X135065698Y-92455190D01*
X135071165Y-92453334D01*
X135248276Y-92354147D01*
X135310934Y-92302035D01*
X135399913Y-92228031D01*
X135404345Y-92224345D01*
X135534147Y-92068276D01*
X135633334Y-91891165D01*
X135635190Y-91885698D01*
X135635192Y-91885693D01*
X135696728Y-91704414D01*
X135696729Y-91704409D01*
X135698584Y-91698945D01*
X135699412Y-91693236D01*
X135699413Y-91693231D01*
X135727179Y-91501727D01*
X135727712Y-91498053D01*
X135729232Y-91440000D01*
X135710658Y-91237859D01*
X135709090Y-91232299D01*
X135657125Y-91048046D01*
X135657124Y-91048044D01*
X135655557Y-91042487D01*
X135644978Y-91021033D01*
X135568331Y-90865609D01*
X135565776Y-90860428D01*
X135444320Y-90697779D01*
X135295258Y-90559987D01*
X135185224Y-90490561D01*
X135138286Y-90437294D01*
X135127597Y-90367107D01*
X135156552Y-90302282D01*
X135215956Y-90263403D01*
X135252460Y-90257999D01*
X135514669Y-90257999D01*
X135521490Y-90257629D01*
X135572352Y-90252105D01*
X135587604Y-90248479D01*
X135708054Y-90203324D01*
X135723649Y-90194786D01*
X135825724Y-90118285D01*
X135838285Y-90105724D01*
X135914786Y-90003649D01*
X135923324Y-89988054D01*
X135968478Y-89867606D01*
X135972105Y-89852351D01*
X135977631Y-89801486D01*
X135978000Y-89794672D01*
X135978000Y-89172115D01*
X135973525Y-89156876D01*
X135972135Y-89155671D01*
X135964452Y-89154000D01*
X133280116Y-89154000D01*
X133264877Y-89158475D01*
X133263672Y-89159865D01*
X133262001Y-89167548D01*
X133262001Y-89794669D01*
X115400601Y-89794669D01*
X115404500Y-89775067D01*
X115404499Y-88627885D01*
X133262000Y-88627885D01*
X133266475Y-88643124D01*
X133267865Y-88644329D01*
X133275548Y-88646000D01*
X134347885Y-88646000D01*
X134363124Y-88641525D01*
X134364329Y-88640135D01*
X134366000Y-88632452D01*
X134366000Y-88627885D01*
X134874000Y-88627885D01*
X134878475Y-88643124D01*
X134879865Y-88644329D01*
X134887548Y-88646000D01*
X135959884Y-88646000D01*
X135975123Y-88641525D01*
X135976328Y-88640135D01*
X135977999Y-88632452D01*
X135977999Y-88005331D01*
X135977629Y-87998510D01*
X135972105Y-87947648D01*
X135968479Y-87932396D01*
X135923324Y-87811946D01*
X135914786Y-87796351D01*
X135838285Y-87694276D01*
X135825724Y-87681715D01*
X135723649Y-87605214D01*
X135708054Y-87596676D01*
X135587606Y-87551522D01*
X135572351Y-87547895D01*
X135521486Y-87542369D01*
X135514672Y-87542000D01*
X134892115Y-87542000D01*
X134876876Y-87546475D01*
X134875671Y-87547865D01*
X134874000Y-87555548D01*
X134874000Y-88627885D01*
X134366000Y-88627885D01*
X134366000Y-87560116D01*
X134361525Y-87544877D01*
X134360135Y-87543672D01*
X134352452Y-87542001D01*
X133725331Y-87542001D01*
X133718510Y-87542371D01*
X133667648Y-87547895D01*
X133652396Y-87551521D01*
X133531946Y-87596676D01*
X133516351Y-87605214D01*
X133414276Y-87681715D01*
X133401715Y-87694276D01*
X133325214Y-87796351D01*
X133316676Y-87811946D01*
X133271522Y-87932394D01*
X133267895Y-87947649D01*
X133262369Y-87998514D01*
X133262000Y-88005328D01*
X133262000Y-88627885D01*
X115404499Y-88627885D01*
X115404499Y-88024934D01*
X115389734Y-87950699D01*
X115333484Y-87866516D01*
X115249301Y-87810266D01*
X115175067Y-87795500D01*
X114300142Y-87795500D01*
X113424934Y-87795501D01*
X113389182Y-87802612D01*
X113362874Y-87807844D01*
X113362872Y-87807845D01*
X113350699Y-87810266D01*
X113340379Y-87817161D01*
X113340378Y-87817162D01*
X113279985Y-87857516D01*
X113266516Y-87866516D01*
X113210266Y-87950699D01*
X113195500Y-88024933D01*
X50800500Y-88024933D01*
X50800500Y-68325500D01*
X50820502Y-68257379D01*
X50874158Y-68210886D01*
X50926500Y-68199500D01*
X139319500Y-68199500D01*
X139387621Y-68219502D01*
G37*
G04 #@! TD.AperFunction*
M02*
