G04 #@! TF.GenerationSoftware,KiCad,Pcbnew,6.0.2+dfsg-1*
G04 #@! TF.CreationDate,2023-09-16T20:59:25-06:00*
G04 #@! TF.ProjectId,ckt-dingdong-prog,636b742d-6469-46e6-9764-6f6e672d7072,rev?*
G04 #@! TF.SameCoordinates,Original*
G04 #@! TF.FileFunction,Copper,L1,Top*
G04 #@! TF.FilePolarity,Positive*
%FSLAX46Y46*%
G04 Gerber Fmt 4.6, Leading zero omitted, Abs format (unit mm)*
G04 Created by KiCad (PCBNEW 6.0.2+dfsg-1) date 2023-09-16 20:59:25*
%MOMM*%
%LPD*%
G01*
G04 APERTURE LIST*
G04 #@! TA.AperFunction,ComponentPad*
%ADD10R,1.700000X1.700000*%
G04 #@! TD*
G04 #@! TA.AperFunction,ComponentPad*
%ADD11O,1.700000X1.700000*%
G04 #@! TD*
G04 #@! TA.AperFunction,SMDPad,CuDef*
%ADD12R,1.200000X2.500000*%
G04 #@! TD*
G04 #@! TA.AperFunction,ViaPad*
%ADD13C,0.800000*%
G04 #@! TD*
G04 #@! TA.AperFunction,Conductor*
%ADD14C,0.254000*%
G04 #@! TD*
G04 #@! TA.AperFunction,Conductor*
%ADD15C,1.270000*%
G04 #@! TD*
G04 #@! TA.AperFunction,Conductor*
%ADD16C,0.508000*%
G04 #@! TD*
G04 APERTURE END LIST*
D10*
X88905000Y-115575000D03*
D11*
X88905000Y-113035000D03*
X91445000Y-115575000D03*
X91445000Y-113035000D03*
X93985000Y-115575000D03*
X93985000Y-113035000D03*
X96525000Y-115575000D03*
X96525000Y-113035000D03*
X99065000Y-115575000D03*
X99065000Y-113035000D03*
D10*
X134620000Y-88900000D03*
D11*
X134620000Y-91440000D03*
X134620000Y-93980000D03*
X134620000Y-96520000D03*
X134620000Y-99060000D03*
X134620000Y-101600000D03*
X134620000Y-104140000D03*
X134620000Y-106680000D03*
X134620000Y-109220000D03*
X134620000Y-111760000D03*
X134620000Y-114300000D03*
D10*
X114300000Y-88900000D03*
D11*
X114300000Y-91440000D03*
X114300000Y-93980000D03*
X114300000Y-96520000D03*
X114300000Y-99060000D03*
X114300000Y-101600000D03*
X114300000Y-104140000D03*
X114300000Y-106680000D03*
X114300000Y-109220000D03*
X114300000Y-111760000D03*
X114300000Y-114300000D03*
D12*
X91988000Y-93301000D03*
X94488000Y-93301000D03*
X96988000Y-93301000D03*
X91988000Y-87801000D03*
X94488000Y-87801000D03*
X96988000Y-87801000D03*
D10*
X66025000Y-115575000D03*
D11*
X66025000Y-113035000D03*
X63485000Y-115575000D03*
X63485000Y-113035000D03*
X60945000Y-115575000D03*
X60945000Y-113035000D03*
D13*
X101546000Y-118056000D03*
X101600000Y-86741000D03*
X100584000Y-86741000D03*
D14*
X103124000Y-114554000D02*
X100330000Y-117348000D01*
X114300000Y-106680000D02*
X108458000Y-106680000D01*
X100330000Y-117348000D02*
X90678000Y-117348000D01*
X108458000Y-106680000D02*
X103124000Y-112014000D01*
X90678000Y-117348000D02*
X88905000Y-115575000D01*
X103124000Y-112014000D02*
X103124000Y-114554000D01*
D15*
X88905000Y-109088000D02*
X88905000Y-113035000D01*
X109093000Y-88900000D02*
X88905000Y-109088000D01*
X114300000Y-88900000D02*
X109093000Y-88900000D01*
X66025000Y-113035000D02*
X88905000Y-113035000D01*
D14*
X107315000Y-96520000D02*
X92710000Y-111125000D01*
X92710000Y-111125000D02*
X92710000Y-114310000D01*
X114300000Y-96520000D02*
X107315000Y-96520000D01*
X92710000Y-114310000D02*
X91445000Y-115575000D01*
X95250000Y-114310000D02*
X93985000Y-115575000D01*
X107569000Y-99060000D02*
X95250000Y-111379000D01*
X95250000Y-111379000D02*
X95250000Y-114310000D01*
X114300000Y-99060000D02*
X107569000Y-99060000D01*
X114300000Y-101600000D02*
X107569000Y-101600000D01*
X97888000Y-114212000D02*
X96525000Y-115575000D01*
X98298000Y-110998000D02*
X97888000Y-111408000D01*
X97888000Y-111408000D02*
X97888000Y-114212000D01*
X98298000Y-110871000D02*
X98298000Y-110998000D01*
X107569000Y-101600000D02*
X98298000Y-110871000D01*
X93980000Y-85217000D02*
X94488000Y-85725000D01*
X60398000Y-118056000D02*
X57023000Y-114681000D01*
X94488000Y-85725000D02*
X94488000Y-87801000D01*
X64516000Y-85217000D02*
X93980000Y-85217000D01*
X101546000Y-118056000D02*
X60398000Y-118056000D01*
X57023000Y-92710000D02*
X64516000Y-85217000D01*
X57023000Y-114681000D02*
X57023000Y-92710000D01*
D16*
X99524000Y-87801000D02*
X100584000Y-86741000D01*
X100584000Y-86741000D02*
X101600000Y-86741000D01*
X96988000Y-87801000D02*
X99524000Y-87801000D01*
D14*
X60945000Y-115575000D02*
X58679000Y-115575000D01*
X57658000Y-92964000D02*
X62821000Y-87801000D01*
X57658000Y-114554000D02*
X57658000Y-92964000D01*
X62821000Y-87801000D02*
X91988000Y-87801000D01*
X58679000Y-115575000D02*
X57658000Y-114554000D01*
M02*
