G04 #@! TF.GenerationSoftware,KiCad,Pcbnew,6.0.2+dfsg-1*
G04 #@! TF.CreationDate,2023-03-16T21:42:12-06:00*
G04 #@! TF.ProjectId,ckt-dingdong-spk-array,636b742d-6469-46e6-9764-6f6e672d7370,rev?*
G04 #@! TF.SameCoordinates,Original*
G04 #@! TF.FileFunction,Legend,Top*
G04 #@! TF.FilePolarity,Positive*
%FSLAX46Y46*%
G04 Gerber Fmt 4.6, Leading zero omitted, Abs format (unit mm)*
G04 Created by KiCad (PCBNEW 6.0.2+dfsg-1) date 2023-03-16 21:42:12*
%MOMM*%
%LPD*%
G01*
G04 APERTURE LIST*
%ADD10C,0.152400*%
%ADD11C,0.150000*%
%ADD12C,0.120000*%
G04 APERTURE END LIST*
D10*
X71441238Y-46738217D02*
X71392857Y-46786598D01*
X71247714Y-46834979D01*
X71150952Y-46834979D01*
X71005809Y-46786598D01*
X70909047Y-46689836D01*
X70860666Y-46593074D01*
X70812285Y-46399550D01*
X70812285Y-46254407D01*
X70860666Y-46060883D01*
X70909047Y-45964121D01*
X71005809Y-45867360D01*
X71150952Y-45818979D01*
X71247714Y-45818979D01*
X71392857Y-45867360D01*
X71441238Y-45915740D01*
X71876666Y-46834979D02*
X71876666Y-45818979D01*
X72457238Y-46834979D02*
X72021809Y-46254407D01*
X72457238Y-45818979D02*
X71876666Y-46399550D01*
X72747523Y-45818979D02*
X73328095Y-45818979D01*
X73037809Y-46834979D02*
X73037809Y-45818979D01*
X73666761Y-46447931D02*
X74440857Y-46447931D01*
X74924666Y-46834979D02*
X74924666Y-45818979D01*
X75166571Y-45818979D01*
X75311714Y-45867360D01*
X75408476Y-45964121D01*
X75456857Y-46060883D01*
X75505238Y-46254407D01*
X75505238Y-46399550D01*
X75456857Y-46593074D01*
X75408476Y-46689836D01*
X75311714Y-46786598D01*
X75166571Y-46834979D01*
X74924666Y-46834979D01*
X75940666Y-46834979D02*
X75940666Y-45818979D01*
X76424476Y-46834979D02*
X76424476Y-45818979D01*
X77005047Y-46834979D01*
X77005047Y-45818979D01*
X78021047Y-45867360D02*
X77924285Y-45818979D01*
X77779142Y-45818979D01*
X77634000Y-45867360D01*
X77537238Y-45964121D01*
X77488857Y-46060883D01*
X77440476Y-46254407D01*
X77440476Y-46399550D01*
X77488857Y-46593074D01*
X77537238Y-46689836D01*
X77634000Y-46786598D01*
X77779142Y-46834979D01*
X77875904Y-46834979D01*
X78021047Y-46786598D01*
X78069428Y-46738217D01*
X78069428Y-46399550D01*
X77875904Y-46399550D01*
X78504857Y-46834979D02*
X78504857Y-45818979D01*
X78746761Y-45818979D01*
X78891904Y-45867360D01*
X78988666Y-45964121D01*
X79037047Y-46060883D01*
X79085428Y-46254407D01*
X79085428Y-46399550D01*
X79037047Y-46593074D01*
X78988666Y-46689836D01*
X78891904Y-46786598D01*
X78746761Y-46834979D01*
X78504857Y-46834979D01*
X79714380Y-45818979D02*
X79907904Y-45818979D01*
X80004666Y-45867360D01*
X80101428Y-45964121D01*
X80149809Y-46157645D01*
X80149809Y-46496312D01*
X80101428Y-46689836D01*
X80004666Y-46786598D01*
X79907904Y-46834979D01*
X79714380Y-46834979D01*
X79617619Y-46786598D01*
X79520857Y-46689836D01*
X79472476Y-46496312D01*
X79472476Y-46157645D01*
X79520857Y-45964121D01*
X79617619Y-45867360D01*
X79714380Y-45818979D01*
X80585238Y-46834979D02*
X80585238Y-45818979D01*
X81165809Y-46834979D01*
X81165809Y-45818979D01*
X82181809Y-45867360D02*
X82085047Y-45818979D01*
X81939904Y-45818979D01*
X81794761Y-45867360D01*
X81698000Y-45964121D01*
X81649619Y-46060883D01*
X81601238Y-46254407D01*
X81601238Y-46399550D01*
X81649619Y-46593074D01*
X81698000Y-46689836D01*
X81794761Y-46786598D01*
X81939904Y-46834979D01*
X82036666Y-46834979D01*
X82181809Y-46786598D01*
X82230190Y-46738217D01*
X82230190Y-46399550D01*
X82036666Y-46399550D01*
X82665619Y-46447931D02*
X83439714Y-46447931D01*
X83875142Y-46786598D02*
X84020285Y-46834979D01*
X84262190Y-46834979D01*
X84358952Y-46786598D01*
X84407333Y-46738217D01*
X84455714Y-46641455D01*
X84455714Y-46544693D01*
X84407333Y-46447931D01*
X84358952Y-46399550D01*
X84262190Y-46351169D01*
X84068666Y-46302788D01*
X83971904Y-46254407D01*
X83923523Y-46206026D01*
X83875142Y-46109264D01*
X83875142Y-46012502D01*
X83923523Y-45915740D01*
X83971904Y-45867360D01*
X84068666Y-45818979D01*
X84310571Y-45818979D01*
X84455714Y-45867360D01*
X84891142Y-46834979D02*
X84891142Y-45818979D01*
X85278190Y-45818979D01*
X85374952Y-45867360D01*
X85423333Y-45915740D01*
X85471714Y-46012502D01*
X85471714Y-46157645D01*
X85423333Y-46254407D01*
X85374952Y-46302788D01*
X85278190Y-46351169D01*
X84891142Y-46351169D01*
X85907142Y-46834979D02*
X85907142Y-45818979D01*
X86487714Y-46834979D02*
X86052285Y-46254407D01*
X86487714Y-45818979D02*
X85907142Y-46399550D01*
X77198571Y-47793405D02*
X77440476Y-48470739D01*
X77682380Y-47793405D01*
X78021047Y-47551500D02*
X78069428Y-47503120D01*
X78166190Y-47454739D01*
X78408095Y-47454739D01*
X78504857Y-47503120D01*
X78553238Y-47551500D01*
X78601619Y-47648262D01*
X78601619Y-47745024D01*
X78553238Y-47890167D01*
X77972666Y-48470739D01*
X78601619Y-48470739D01*
X79037047Y-48373977D02*
X79085428Y-48422358D01*
X79037047Y-48470739D01*
X78988666Y-48422358D01*
X79037047Y-48373977D01*
X79037047Y-48470739D01*
X79714380Y-47454739D02*
X79811142Y-47454739D01*
X79907904Y-47503120D01*
X79956285Y-47551500D01*
X80004666Y-47648262D01*
X80053047Y-47841786D01*
X80053047Y-48083691D01*
X80004666Y-48277215D01*
X79956285Y-48373977D01*
X79907904Y-48422358D01*
X79811142Y-48470739D01*
X79714380Y-48470739D01*
X79617619Y-48422358D01*
X79569238Y-48373977D01*
X79520857Y-48277215D01*
X79472476Y-48083691D01*
X79472476Y-47841786D01*
X79520857Y-47648262D01*
X79569238Y-47551500D01*
X79617619Y-47503120D01*
X79714380Y-47454739D01*
X69457619Y-50106499D02*
X69457619Y-49090499D01*
X70086571Y-50106499D02*
X69989809Y-50058118D01*
X69941428Y-50009737D01*
X69893047Y-49912975D01*
X69893047Y-49622689D01*
X69941428Y-49525927D01*
X69989809Y-49477546D01*
X70086571Y-49429165D01*
X70231714Y-49429165D01*
X70328476Y-49477546D01*
X70376857Y-49525927D01*
X70425238Y-49622689D01*
X70425238Y-49912975D01*
X70376857Y-50009737D01*
X70328476Y-50058118D01*
X70231714Y-50106499D01*
X70086571Y-50106499D01*
X70763904Y-49429165D02*
X70957428Y-50106499D01*
X71150952Y-49622689D01*
X71344476Y-50106499D01*
X71538000Y-49429165D01*
X72360476Y-50106499D02*
X72360476Y-49574308D01*
X72312095Y-49477546D01*
X72215333Y-49429165D01*
X72021809Y-49429165D01*
X71925047Y-49477546D01*
X72360476Y-50058118D02*
X72263714Y-50106499D01*
X72021809Y-50106499D01*
X71925047Y-50058118D01*
X71876666Y-49961356D01*
X71876666Y-49864594D01*
X71925047Y-49767832D01*
X72021809Y-49719451D01*
X72263714Y-49719451D01*
X72360476Y-49671070D01*
X73570000Y-50058118D02*
X73715142Y-50106499D01*
X73957047Y-50106499D01*
X74053809Y-50058118D01*
X74102190Y-50009737D01*
X74150571Y-49912975D01*
X74150571Y-49816213D01*
X74102190Y-49719451D01*
X74053809Y-49671070D01*
X73957047Y-49622689D01*
X73763523Y-49574308D01*
X73666761Y-49525927D01*
X73618380Y-49477546D01*
X73570000Y-49380784D01*
X73570000Y-49284022D01*
X73618380Y-49187260D01*
X73666761Y-49138880D01*
X73763523Y-49090499D01*
X74005428Y-49090499D01*
X74150571Y-49138880D01*
X75021428Y-50058118D02*
X74924666Y-50106499D01*
X74731142Y-50106499D01*
X74634380Y-50058118D01*
X74586000Y-50009737D01*
X74537619Y-49912975D01*
X74537619Y-49622689D01*
X74586000Y-49525927D01*
X74634380Y-49477546D01*
X74731142Y-49429165D01*
X74924666Y-49429165D01*
X75021428Y-49477546D01*
X75892285Y-50106499D02*
X75892285Y-49574308D01*
X75843904Y-49477546D01*
X75747142Y-49429165D01*
X75553619Y-49429165D01*
X75456857Y-49477546D01*
X75892285Y-50058118D02*
X75795523Y-50106499D01*
X75553619Y-50106499D01*
X75456857Y-50058118D01*
X75408476Y-49961356D01*
X75408476Y-49864594D01*
X75456857Y-49767832D01*
X75553619Y-49719451D01*
X75795523Y-49719451D01*
X75892285Y-49671070D01*
X76521238Y-50106499D02*
X76424476Y-50058118D01*
X76376095Y-49961356D01*
X76376095Y-49090499D01*
X77295333Y-50058118D02*
X77198571Y-50106499D01*
X77005047Y-50106499D01*
X76908285Y-50058118D01*
X76859904Y-49961356D01*
X76859904Y-49574308D01*
X76908285Y-49477546D01*
X77005047Y-49429165D01*
X77198571Y-49429165D01*
X77295333Y-49477546D01*
X77343714Y-49574308D01*
X77343714Y-49671070D01*
X76859904Y-49767832D01*
X78214571Y-50106499D02*
X78214571Y-49090499D01*
X78214571Y-50058118D02*
X78117809Y-50106499D01*
X77924285Y-50106499D01*
X77827523Y-50058118D01*
X77779142Y-50009737D01*
X77730761Y-49912975D01*
X77730761Y-49622689D01*
X77779142Y-49525927D01*
X77827523Y-49477546D01*
X77924285Y-49429165D01*
X78117809Y-49429165D01*
X78214571Y-49477546D01*
X79472476Y-49574308D02*
X79811142Y-49574308D01*
X79956285Y-50106499D02*
X79472476Y-50106499D01*
X79472476Y-49090499D01*
X79956285Y-49090499D01*
X80391714Y-49429165D02*
X80391714Y-50106499D01*
X80391714Y-49525927D02*
X80440095Y-49477546D01*
X80536857Y-49429165D01*
X80682000Y-49429165D01*
X80778761Y-49477546D01*
X80827142Y-49574308D01*
X80827142Y-50106499D01*
X81746380Y-49429165D02*
X81746380Y-50251641D01*
X81698000Y-50348403D01*
X81649619Y-50396784D01*
X81552857Y-50445165D01*
X81407714Y-50445165D01*
X81310952Y-50396784D01*
X81746380Y-50058118D02*
X81649619Y-50106499D01*
X81456095Y-50106499D01*
X81359333Y-50058118D01*
X81310952Y-50009737D01*
X81262571Y-49912975D01*
X81262571Y-49622689D01*
X81310952Y-49525927D01*
X81359333Y-49477546D01*
X81456095Y-49429165D01*
X81649619Y-49429165D01*
X81746380Y-49477546D01*
X82230190Y-50106499D02*
X82230190Y-49429165D01*
X82230190Y-49090499D02*
X82181809Y-49138880D01*
X82230190Y-49187260D01*
X82278571Y-49138880D01*
X82230190Y-49090499D01*
X82230190Y-49187260D01*
X82714000Y-49429165D02*
X82714000Y-50106499D01*
X82714000Y-49525927D02*
X82762380Y-49477546D01*
X82859142Y-49429165D01*
X83004285Y-49429165D01*
X83101047Y-49477546D01*
X83149428Y-49574308D01*
X83149428Y-50106499D01*
X84020285Y-50058118D02*
X83923523Y-50106499D01*
X83730000Y-50106499D01*
X83633238Y-50058118D01*
X83584857Y-49961356D01*
X83584857Y-49574308D01*
X83633238Y-49477546D01*
X83730000Y-49429165D01*
X83923523Y-49429165D01*
X84020285Y-49477546D01*
X84068666Y-49574308D01*
X84068666Y-49671070D01*
X83584857Y-49767832D01*
X84891142Y-50058118D02*
X84794380Y-50106499D01*
X84600857Y-50106499D01*
X84504095Y-50058118D01*
X84455714Y-49961356D01*
X84455714Y-49574308D01*
X84504095Y-49477546D01*
X84600857Y-49429165D01*
X84794380Y-49429165D01*
X84891142Y-49477546D01*
X84939523Y-49574308D01*
X84939523Y-49671070D01*
X84455714Y-49767832D01*
X85374952Y-50106499D02*
X85374952Y-49429165D01*
X85374952Y-49622689D02*
X85423333Y-49525927D01*
X85471714Y-49477546D01*
X85568476Y-49429165D01*
X85665238Y-49429165D01*
X86003904Y-50106499D02*
X86003904Y-49429165D01*
X86003904Y-49090499D02*
X85955523Y-49138880D01*
X86003904Y-49187260D01*
X86052285Y-49138880D01*
X86003904Y-49090499D01*
X86003904Y-49187260D01*
X86487714Y-49429165D02*
X86487714Y-50106499D01*
X86487714Y-49525927D02*
X86536095Y-49477546D01*
X86632857Y-49429165D01*
X86778000Y-49429165D01*
X86874761Y-49477546D01*
X86923142Y-49574308D01*
X86923142Y-50106499D01*
X87842380Y-49429165D02*
X87842380Y-50251641D01*
X87794000Y-50348403D01*
X87745619Y-50396784D01*
X87648857Y-50445165D01*
X87503714Y-50445165D01*
X87406952Y-50396784D01*
X87842380Y-50058118D02*
X87745619Y-50106499D01*
X87552095Y-50106499D01*
X87455333Y-50058118D01*
X87406952Y-50009737D01*
X87358571Y-49912975D01*
X87358571Y-49622689D01*
X87406952Y-49525927D01*
X87455333Y-49477546D01*
X87552095Y-49429165D01*
X87745619Y-49429165D01*
X87842380Y-49477546D01*
X72626571Y-50968163D02*
X72529809Y-50919782D01*
X72336285Y-50919782D01*
X72239523Y-50968163D01*
X72142761Y-51064925D01*
X72094380Y-51161687D01*
X72094380Y-51355211D01*
X72142761Y-51451973D01*
X72239523Y-51548735D01*
X72336285Y-51597116D01*
X72529809Y-51597116D01*
X72626571Y-51548735D01*
X72433047Y-50581116D02*
X72191142Y-50629497D01*
X71949238Y-50774640D01*
X71804095Y-51016544D01*
X71755714Y-51258449D01*
X71804095Y-51500354D01*
X71949238Y-51742259D01*
X72191142Y-51887401D01*
X72433047Y-51935782D01*
X72674952Y-51887401D01*
X72916857Y-51742259D01*
X73062000Y-51500354D01*
X73110380Y-51258449D01*
X73062000Y-51016544D01*
X72916857Y-50774640D01*
X72674952Y-50629497D01*
X72433047Y-50581116D01*
X73497428Y-50823020D02*
X73545809Y-50774640D01*
X73642571Y-50726259D01*
X73884476Y-50726259D01*
X73981238Y-50774640D01*
X74029619Y-50823020D01*
X74078000Y-50919782D01*
X74078000Y-51016544D01*
X74029619Y-51161687D01*
X73449047Y-51742259D01*
X74078000Y-51742259D01*
X74706952Y-50726259D02*
X74803714Y-50726259D01*
X74900476Y-50774640D01*
X74948857Y-50823020D01*
X74997238Y-50919782D01*
X75045619Y-51113306D01*
X75045619Y-51355211D01*
X74997238Y-51548735D01*
X74948857Y-51645497D01*
X74900476Y-51693878D01*
X74803714Y-51742259D01*
X74706952Y-51742259D01*
X74610190Y-51693878D01*
X74561809Y-51645497D01*
X74513428Y-51548735D01*
X74465047Y-51355211D01*
X74465047Y-51113306D01*
X74513428Y-50919782D01*
X74561809Y-50823020D01*
X74610190Y-50774640D01*
X74706952Y-50726259D01*
X75432666Y-50823020D02*
X75481047Y-50774640D01*
X75577809Y-50726259D01*
X75819714Y-50726259D01*
X75916476Y-50774640D01*
X75964857Y-50823020D01*
X76013238Y-50919782D01*
X76013238Y-51016544D01*
X75964857Y-51161687D01*
X75384285Y-51742259D01*
X76013238Y-51742259D01*
X76351904Y-50726259D02*
X76980857Y-50726259D01*
X76642190Y-51113306D01*
X76787333Y-51113306D01*
X76884095Y-51161687D01*
X76932476Y-51210068D01*
X76980857Y-51306830D01*
X76980857Y-51548735D01*
X76932476Y-51645497D01*
X76884095Y-51693878D01*
X76787333Y-51742259D01*
X76497047Y-51742259D01*
X76400285Y-51693878D01*
X76351904Y-51645497D01*
X78770952Y-51645497D02*
X78722571Y-51693878D01*
X78577428Y-51742259D01*
X78480666Y-51742259D01*
X78335523Y-51693878D01*
X78238761Y-51597116D01*
X78190380Y-51500354D01*
X78142000Y-51306830D01*
X78142000Y-51161687D01*
X78190380Y-50968163D01*
X78238761Y-50871401D01*
X78335523Y-50774640D01*
X78480666Y-50726259D01*
X78577428Y-50726259D01*
X78722571Y-50774640D01*
X78770952Y-50823020D01*
X79786952Y-51645497D02*
X79738571Y-51693878D01*
X79593428Y-51742259D01*
X79496666Y-51742259D01*
X79351523Y-51693878D01*
X79254761Y-51597116D01*
X79206380Y-51500354D01*
X79158000Y-51306830D01*
X79158000Y-51161687D01*
X79206380Y-50968163D01*
X79254761Y-50871401D01*
X79351523Y-50774640D01*
X79496666Y-50726259D01*
X79593428Y-50726259D01*
X79738571Y-50774640D01*
X79786952Y-50823020D01*
X81335142Y-51210068D02*
X81480285Y-51258449D01*
X81528666Y-51306830D01*
X81577047Y-51403592D01*
X81577047Y-51548735D01*
X81528666Y-51645497D01*
X81480285Y-51693878D01*
X81383523Y-51742259D01*
X80996476Y-51742259D01*
X80996476Y-50726259D01*
X81335142Y-50726259D01*
X81431904Y-50774640D01*
X81480285Y-50823020D01*
X81528666Y-50919782D01*
X81528666Y-51016544D01*
X81480285Y-51113306D01*
X81431904Y-51161687D01*
X81335142Y-51210068D01*
X80996476Y-51210068D01*
X82206000Y-51258449D02*
X82206000Y-51742259D01*
X81867333Y-50726259D02*
X82206000Y-51258449D01*
X82544666Y-50726259D01*
X82883333Y-51355211D02*
X83657428Y-51355211D01*
X84092857Y-51693878D02*
X84238000Y-51742259D01*
X84479904Y-51742259D01*
X84576666Y-51693878D01*
X84625047Y-51645497D01*
X84673428Y-51548735D01*
X84673428Y-51451973D01*
X84625047Y-51355211D01*
X84576666Y-51306830D01*
X84479904Y-51258449D01*
X84286380Y-51210068D01*
X84189619Y-51161687D01*
X84141238Y-51113306D01*
X84092857Y-51016544D01*
X84092857Y-50919782D01*
X84141238Y-50823020D01*
X84189619Y-50774640D01*
X84286380Y-50726259D01*
X84528285Y-50726259D01*
X84673428Y-50774640D01*
X85060476Y-51451973D02*
X85544285Y-51451973D01*
X84963714Y-51742259D02*
X85302380Y-50726259D01*
X85641047Y-51742259D01*
X43501238Y-46738217D02*
X43452857Y-46786598D01*
X43307714Y-46834979D01*
X43210952Y-46834979D01*
X43065809Y-46786598D01*
X42969047Y-46689836D01*
X42920666Y-46593074D01*
X42872285Y-46399550D01*
X42872285Y-46254407D01*
X42920666Y-46060883D01*
X42969047Y-45964121D01*
X43065809Y-45867360D01*
X43210952Y-45818979D01*
X43307714Y-45818979D01*
X43452857Y-45867360D01*
X43501238Y-45915740D01*
X43936666Y-46834979D02*
X43936666Y-45818979D01*
X44517238Y-46834979D02*
X44081809Y-46254407D01*
X44517238Y-45818979D02*
X43936666Y-46399550D01*
X44807523Y-45818979D02*
X45388095Y-45818979D01*
X45097809Y-46834979D02*
X45097809Y-45818979D01*
X45726761Y-46447931D02*
X46500857Y-46447931D01*
X46984666Y-46834979D02*
X46984666Y-45818979D01*
X47226571Y-45818979D01*
X47371714Y-45867360D01*
X47468476Y-45964121D01*
X47516857Y-46060883D01*
X47565238Y-46254407D01*
X47565238Y-46399550D01*
X47516857Y-46593074D01*
X47468476Y-46689836D01*
X47371714Y-46786598D01*
X47226571Y-46834979D01*
X46984666Y-46834979D01*
X48000666Y-46834979D02*
X48000666Y-45818979D01*
X48484476Y-46834979D02*
X48484476Y-45818979D01*
X49065047Y-46834979D01*
X49065047Y-45818979D01*
X50081047Y-45867360D02*
X49984285Y-45818979D01*
X49839142Y-45818979D01*
X49694000Y-45867360D01*
X49597238Y-45964121D01*
X49548857Y-46060883D01*
X49500476Y-46254407D01*
X49500476Y-46399550D01*
X49548857Y-46593074D01*
X49597238Y-46689836D01*
X49694000Y-46786598D01*
X49839142Y-46834979D01*
X49935904Y-46834979D01*
X50081047Y-46786598D01*
X50129428Y-46738217D01*
X50129428Y-46399550D01*
X49935904Y-46399550D01*
X50564857Y-46834979D02*
X50564857Y-45818979D01*
X50806761Y-45818979D01*
X50951904Y-45867360D01*
X51048666Y-45964121D01*
X51097047Y-46060883D01*
X51145428Y-46254407D01*
X51145428Y-46399550D01*
X51097047Y-46593074D01*
X51048666Y-46689836D01*
X50951904Y-46786598D01*
X50806761Y-46834979D01*
X50564857Y-46834979D01*
X51774380Y-45818979D02*
X51967904Y-45818979D01*
X52064666Y-45867360D01*
X52161428Y-45964121D01*
X52209809Y-46157645D01*
X52209809Y-46496312D01*
X52161428Y-46689836D01*
X52064666Y-46786598D01*
X51967904Y-46834979D01*
X51774380Y-46834979D01*
X51677619Y-46786598D01*
X51580857Y-46689836D01*
X51532476Y-46496312D01*
X51532476Y-46157645D01*
X51580857Y-45964121D01*
X51677619Y-45867360D01*
X51774380Y-45818979D01*
X52645238Y-46834979D02*
X52645238Y-45818979D01*
X53225809Y-46834979D01*
X53225809Y-45818979D01*
X54241809Y-45867360D02*
X54145047Y-45818979D01*
X53999904Y-45818979D01*
X53854761Y-45867360D01*
X53758000Y-45964121D01*
X53709619Y-46060883D01*
X53661238Y-46254407D01*
X53661238Y-46399550D01*
X53709619Y-46593074D01*
X53758000Y-46689836D01*
X53854761Y-46786598D01*
X53999904Y-46834979D01*
X54096666Y-46834979D01*
X54241809Y-46786598D01*
X54290190Y-46738217D01*
X54290190Y-46399550D01*
X54096666Y-46399550D01*
X54725619Y-46447931D02*
X55499714Y-46447931D01*
X55935142Y-46786598D02*
X56080285Y-46834979D01*
X56322190Y-46834979D01*
X56418952Y-46786598D01*
X56467333Y-46738217D01*
X56515714Y-46641455D01*
X56515714Y-46544693D01*
X56467333Y-46447931D01*
X56418952Y-46399550D01*
X56322190Y-46351169D01*
X56128666Y-46302788D01*
X56031904Y-46254407D01*
X55983523Y-46206026D01*
X55935142Y-46109264D01*
X55935142Y-46012502D01*
X55983523Y-45915740D01*
X56031904Y-45867360D01*
X56128666Y-45818979D01*
X56370571Y-45818979D01*
X56515714Y-45867360D01*
X56951142Y-46834979D02*
X56951142Y-45818979D01*
X57338190Y-45818979D01*
X57434952Y-45867360D01*
X57483333Y-45915740D01*
X57531714Y-46012502D01*
X57531714Y-46157645D01*
X57483333Y-46254407D01*
X57434952Y-46302788D01*
X57338190Y-46351169D01*
X56951142Y-46351169D01*
X57967142Y-46834979D02*
X57967142Y-45818979D01*
X58547714Y-46834979D02*
X58112285Y-46254407D01*
X58547714Y-45818979D02*
X57967142Y-46399550D01*
X49258571Y-47793405D02*
X49500476Y-48470739D01*
X49742380Y-47793405D01*
X50081047Y-47551500D02*
X50129428Y-47503120D01*
X50226190Y-47454739D01*
X50468095Y-47454739D01*
X50564857Y-47503120D01*
X50613238Y-47551500D01*
X50661619Y-47648262D01*
X50661619Y-47745024D01*
X50613238Y-47890167D01*
X50032666Y-48470739D01*
X50661619Y-48470739D01*
X51097047Y-48373977D02*
X51145428Y-48422358D01*
X51097047Y-48470739D01*
X51048666Y-48422358D01*
X51097047Y-48373977D01*
X51097047Y-48470739D01*
X51774380Y-47454739D02*
X51871142Y-47454739D01*
X51967904Y-47503120D01*
X52016285Y-47551500D01*
X52064666Y-47648262D01*
X52113047Y-47841786D01*
X52113047Y-48083691D01*
X52064666Y-48277215D01*
X52016285Y-48373977D01*
X51967904Y-48422358D01*
X51871142Y-48470739D01*
X51774380Y-48470739D01*
X51677619Y-48422358D01*
X51629238Y-48373977D01*
X51580857Y-48277215D01*
X51532476Y-48083691D01*
X51532476Y-47841786D01*
X51580857Y-47648262D01*
X51629238Y-47551500D01*
X51677619Y-47503120D01*
X51774380Y-47454739D01*
X41517619Y-50106499D02*
X41517619Y-49090499D01*
X42146571Y-50106499D02*
X42049809Y-50058118D01*
X42001428Y-50009737D01*
X41953047Y-49912975D01*
X41953047Y-49622689D01*
X42001428Y-49525927D01*
X42049809Y-49477546D01*
X42146571Y-49429165D01*
X42291714Y-49429165D01*
X42388476Y-49477546D01*
X42436857Y-49525927D01*
X42485238Y-49622689D01*
X42485238Y-49912975D01*
X42436857Y-50009737D01*
X42388476Y-50058118D01*
X42291714Y-50106499D01*
X42146571Y-50106499D01*
X42823904Y-49429165D02*
X43017428Y-50106499D01*
X43210952Y-49622689D01*
X43404476Y-50106499D01*
X43598000Y-49429165D01*
X44420476Y-50106499D02*
X44420476Y-49574308D01*
X44372095Y-49477546D01*
X44275333Y-49429165D01*
X44081809Y-49429165D01*
X43985047Y-49477546D01*
X44420476Y-50058118D02*
X44323714Y-50106499D01*
X44081809Y-50106499D01*
X43985047Y-50058118D01*
X43936666Y-49961356D01*
X43936666Y-49864594D01*
X43985047Y-49767832D01*
X44081809Y-49719451D01*
X44323714Y-49719451D01*
X44420476Y-49671070D01*
X45630000Y-50058118D02*
X45775142Y-50106499D01*
X46017047Y-50106499D01*
X46113809Y-50058118D01*
X46162190Y-50009737D01*
X46210571Y-49912975D01*
X46210571Y-49816213D01*
X46162190Y-49719451D01*
X46113809Y-49671070D01*
X46017047Y-49622689D01*
X45823523Y-49574308D01*
X45726761Y-49525927D01*
X45678380Y-49477546D01*
X45630000Y-49380784D01*
X45630000Y-49284022D01*
X45678380Y-49187260D01*
X45726761Y-49138880D01*
X45823523Y-49090499D01*
X46065428Y-49090499D01*
X46210571Y-49138880D01*
X47081428Y-50058118D02*
X46984666Y-50106499D01*
X46791142Y-50106499D01*
X46694380Y-50058118D01*
X46646000Y-50009737D01*
X46597619Y-49912975D01*
X46597619Y-49622689D01*
X46646000Y-49525927D01*
X46694380Y-49477546D01*
X46791142Y-49429165D01*
X46984666Y-49429165D01*
X47081428Y-49477546D01*
X47952285Y-50106499D02*
X47952285Y-49574308D01*
X47903904Y-49477546D01*
X47807142Y-49429165D01*
X47613619Y-49429165D01*
X47516857Y-49477546D01*
X47952285Y-50058118D02*
X47855523Y-50106499D01*
X47613619Y-50106499D01*
X47516857Y-50058118D01*
X47468476Y-49961356D01*
X47468476Y-49864594D01*
X47516857Y-49767832D01*
X47613619Y-49719451D01*
X47855523Y-49719451D01*
X47952285Y-49671070D01*
X48581238Y-50106499D02*
X48484476Y-50058118D01*
X48436095Y-49961356D01*
X48436095Y-49090499D01*
X49355333Y-50058118D02*
X49258571Y-50106499D01*
X49065047Y-50106499D01*
X48968285Y-50058118D01*
X48919904Y-49961356D01*
X48919904Y-49574308D01*
X48968285Y-49477546D01*
X49065047Y-49429165D01*
X49258571Y-49429165D01*
X49355333Y-49477546D01*
X49403714Y-49574308D01*
X49403714Y-49671070D01*
X48919904Y-49767832D01*
X50274571Y-50106499D02*
X50274571Y-49090499D01*
X50274571Y-50058118D02*
X50177809Y-50106499D01*
X49984285Y-50106499D01*
X49887523Y-50058118D01*
X49839142Y-50009737D01*
X49790761Y-49912975D01*
X49790761Y-49622689D01*
X49839142Y-49525927D01*
X49887523Y-49477546D01*
X49984285Y-49429165D01*
X50177809Y-49429165D01*
X50274571Y-49477546D01*
X51532476Y-49574308D02*
X51871142Y-49574308D01*
X52016285Y-50106499D02*
X51532476Y-50106499D01*
X51532476Y-49090499D01*
X52016285Y-49090499D01*
X52451714Y-49429165D02*
X52451714Y-50106499D01*
X52451714Y-49525927D02*
X52500095Y-49477546D01*
X52596857Y-49429165D01*
X52742000Y-49429165D01*
X52838761Y-49477546D01*
X52887142Y-49574308D01*
X52887142Y-50106499D01*
X53806380Y-49429165D02*
X53806380Y-50251641D01*
X53758000Y-50348403D01*
X53709619Y-50396784D01*
X53612857Y-50445165D01*
X53467714Y-50445165D01*
X53370952Y-50396784D01*
X53806380Y-50058118D02*
X53709619Y-50106499D01*
X53516095Y-50106499D01*
X53419333Y-50058118D01*
X53370952Y-50009737D01*
X53322571Y-49912975D01*
X53322571Y-49622689D01*
X53370952Y-49525927D01*
X53419333Y-49477546D01*
X53516095Y-49429165D01*
X53709619Y-49429165D01*
X53806380Y-49477546D01*
X54290190Y-50106499D02*
X54290190Y-49429165D01*
X54290190Y-49090499D02*
X54241809Y-49138880D01*
X54290190Y-49187260D01*
X54338571Y-49138880D01*
X54290190Y-49090499D01*
X54290190Y-49187260D01*
X54774000Y-49429165D02*
X54774000Y-50106499D01*
X54774000Y-49525927D02*
X54822380Y-49477546D01*
X54919142Y-49429165D01*
X55064285Y-49429165D01*
X55161047Y-49477546D01*
X55209428Y-49574308D01*
X55209428Y-50106499D01*
X56080285Y-50058118D02*
X55983523Y-50106499D01*
X55790000Y-50106499D01*
X55693238Y-50058118D01*
X55644857Y-49961356D01*
X55644857Y-49574308D01*
X55693238Y-49477546D01*
X55790000Y-49429165D01*
X55983523Y-49429165D01*
X56080285Y-49477546D01*
X56128666Y-49574308D01*
X56128666Y-49671070D01*
X55644857Y-49767832D01*
X56951142Y-50058118D02*
X56854380Y-50106499D01*
X56660857Y-50106499D01*
X56564095Y-50058118D01*
X56515714Y-49961356D01*
X56515714Y-49574308D01*
X56564095Y-49477546D01*
X56660857Y-49429165D01*
X56854380Y-49429165D01*
X56951142Y-49477546D01*
X56999523Y-49574308D01*
X56999523Y-49671070D01*
X56515714Y-49767832D01*
X57434952Y-50106499D02*
X57434952Y-49429165D01*
X57434952Y-49622689D02*
X57483333Y-49525927D01*
X57531714Y-49477546D01*
X57628476Y-49429165D01*
X57725238Y-49429165D01*
X58063904Y-50106499D02*
X58063904Y-49429165D01*
X58063904Y-49090499D02*
X58015523Y-49138880D01*
X58063904Y-49187260D01*
X58112285Y-49138880D01*
X58063904Y-49090499D01*
X58063904Y-49187260D01*
X58547714Y-49429165D02*
X58547714Y-50106499D01*
X58547714Y-49525927D02*
X58596095Y-49477546D01*
X58692857Y-49429165D01*
X58838000Y-49429165D01*
X58934761Y-49477546D01*
X58983142Y-49574308D01*
X58983142Y-50106499D01*
X59902380Y-49429165D02*
X59902380Y-50251641D01*
X59854000Y-50348403D01*
X59805619Y-50396784D01*
X59708857Y-50445165D01*
X59563714Y-50445165D01*
X59466952Y-50396784D01*
X59902380Y-50058118D02*
X59805619Y-50106499D01*
X59612095Y-50106499D01*
X59515333Y-50058118D01*
X59466952Y-50009737D01*
X59418571Y-49912975D01*
X59418571Y-49622689D01*
X59466952Y-49525927D01*
X59515333Y-49477546D01*
X59612095Y-49429165D01*
X59805619Y-49429165D01*
X59902380Y-49477546D01*
X44686571Y-50968163D02*
X44589809Y-50919782D01*
X44396285Y-50919782D01*
X44299523Y-50968163D01*
X44202761Y-51064925D01*
X44154380Y-51161687D01*
X44154380Y-51355211D01*
X44202761Y-51451973D01*
X44299523Y-51548735D01*
X44396285Y-51597116D01*
X44589809Y-51597116D01*
X44686571Y-51548735D01*
X44493047Y-50581116D02*
X44251142Y-50629497D01*
X44009238Y-50774640D01*
X43864095Y-51016544D01*
X43815714Y-51258449D01*
X43864095Y-51500354D01*
X44009238Y-51742259D01*
X44251142Y-51887401D01*
X44493047Y-51935782D01*
X44734952Y-51887401D01*
X44976857Y-51742259D01*
X45122000Y-51500354D01*
X45170380Y-51258449D01*
X45122000Y-51016544D01*
X44976857Y-50774640D01*
X44734952Y-50629497D01*
X44493047Y-50581116D01*
X45557428Y-50823020D02*
X45605809Y-50774640D01*
X45702571Y-50726259D01*
X45944476Y-50726259D01*
X46041238Y-50774640D01*
X46089619Y-50823020D01*
X46138000Y-50919782D01*
X46138000Y-51016544D01*
X46089619Y-51161687D01*
X45509047Y-51742259D01*
X46138000Y-51742259D01*
X46766952Y-50726259D02*
X46863714Y-50726259D01*
X46960476Y-50774640D01*
X47008857Y-50823020D01*
X47057238Y-50919782D01*
X47105619Y-51113306D01*
X47105619Y-51355211D01*
X47057238Y-51548735D01*
X47008857Y-51645497D01*
X46960476Y-51693878D01*
X46863714Y-51742259D01*
X46766952Y-51742259D01*
X46670190Y-51693878D01*
X46621809Y-51645497D01*
X46573428Y-51548735D01*
X46525047Y-51355211D01*
X46525047Y-51113306D01*
X46573428Y-50919782D01*
X46621809Y-50823020D01*
X46670190Y-50774640D01*
X46766952Y-50726259D01*
X47492666Y-50823020D02*
X47541047Y-50774640D01*
X47637809Y-50726259D01*
X47879714Y-50726259D01*
X47976476Y-50774640D01*
X48024857Y-50823020D01*
X48073238Y-50919782D01*
X48073238Y-51016544D01*
X48024857Y-51161687D01*
X47444285Y-51742259D01*
X48073238Y-51742259D01*
X48411904Y-50726259D02*
X49040857Y-50726259D01*
X48702190Y-51113306D01*
X48847333Y-51113306D01*
X48944095Y-51161687D01*
X48992476Y-51210068D01*
X49040857Y-51306830D01*
X49040857Y-51548735D01*
X48992476Y-51645497D01*
X48944095Y-51693878D01*
X48847333Y-51742259D01*
X48557047Y-51742259D01*
X48460285Y-51693878D01*
X48411904Y-51645497D01*
X50830952Y-51645497D02*
X50782571Y-51693878D01*
X50637428Y-51742259D01*
X50540666Y-51742259D01*
X50395523Y-51693878D01*
X50298761Y-51597116D01*
X50250380Y-51500354D01*
X50202000Y-51306830D01*
X50202000Y-51161687D01*
X50250380Y-50968163D01*
X50298761Y-50871401D01*
X50395523Y-50774640D01*
X50540666Y-50726259D01*
X50637428Y-50726259D01*
X50782571Y-50774640D01*
X50830952Y-50823020D01*
X51846952Y-51645497D02*
X51798571Y-51693878D01*
X51653428Y-51742259D01*
X51556666Y-51742259D01*
X51411523Y-51693878D01*
X51314761Y-51597116D01*
X51266380Y-51500354D01*
X51218000Y-51306830D01*
X51218000Y-51161687D01*
X51266380Y-50968163D01*
X51314761Y-50871401D01*
X51411523Y-50774640D01*
X51556666Y-50726259D01*
X51653428Y-50726259D01*
X51798571Y-50774640D01*
X51846952Y-50823020D01*
X53395142Y-51210068D02*
X53540285Y-51258449D01*
X53588666Y-51306830D01*
X53637047Y-51403592D01*
X53637047Y-51548735D01*
X53588666Y-51645497D01*
X53540285Y-51693878D01*
X53443523Y-51742259D01*
X53056476Y-51742259D01*
X53056476Y-50726259D01*
X53395142Y-50726259D01*
X53491904Y-50774640D01*
X53540285Y-50823020D01*
X53588666Y-50919782D01*
X53588666Y-51016544D01*
X53540285Y-51113306D01*
X53491904Y-51161687D01*
X53395142Y-51210068D01*
X53056476Y-51210068D01*
X54266000Y-51258449D02*
X54266000Y-51742259D01*
X53927333Y-50726259D02*
X54266000Y-51258449D01*
X54604666Y-50726259D01*
X54943333Y-51355211D02*
X55717428Y-51355211D01*
X56152857Y-51693878D02*
X56298000Y-51742259D01*
X56539904Y-51742259D01*
X56636666Y-51693878D01*
X56685047Y-51645497D01*
X56733428Y-51548735D01*
X56733428Y-51451973D01*
X56685047Y-51355211D01*
X56636666Y-51306830D01*
X56539904Y-51258449D01*
X56346380Y-51210068D01*
X56249619Y-51161687D01*
X56201238Y-51113306D01*
X56152857Y-51016544D01*
X56152857Y-50919782D01*
X56201238Y-50823020D01*
X56249619Y-50774640D01*
X56346380Y-50726259D01*
X56588285Y-50726259D01*
X56733428Y-50774640D01*
X57120476Y-51451973D02*
X57604285Y-51451973D01*
X57023714Y-51742259D02*
X57362380Y-50726259D01*
X57701047Y-51742259D01*
X15561238Y-46738217D02*
X15512857Y-46786598D01*
X15367714Y-46834979D01*
X15270952Y-46834979D01*
X15125809Y-46786598D01*
X15029047Y-46689836D01*
X14980666Y-46593074D01*
X14932285Y-46399550D01*
X14932285Y-46254407D01*
X14980666Y-46060883D01*
X15029047Y-45964121D01*
X15125809Y-45867360D01*
X15270952Y-45818979D01*
X15367714Y-45818979D01*
X15512857Y-45867360D01*
X15561238Y-45915740D01*
X15996666Y-46834979D02*
X15996666Y-45818979D01*
X16577238Y-46834979D02*
X16141809Y-46254407D01*
X16577238Y-45818979D02*
X15996666Y-46399550D01*
X16867523Y-45818979D02*
X17448095Y-45818979D01*
X17157809Y-46834979D02*
X17157809Y-45818979D01*
X17786761Y-46447931D02*
X18560857Y-46447931D01*
X19044666Y-46834979D02*
X19044666Y-45818979D01*
X19286571Y-45818979D01*
X19431714Y-45867360D01*
X19528476Y-45964121D01*
X19576857Y-46060883D01*
X19625238Y-46254407D01*
X19625238Y-46399550D01*
X19576857Y-46593074D01*
X19528476Y-46689836D01*
X19431714Y-46786598D01*
X19286571Y-46834979D01*
X19044666Y-46834979D01*
X20060666Y-46834979D02*
X20060666Y-45818979D01*
X20544476Y-46834979D02*
X20544476Y-45818979D01*
X21125047Y-46834979D01*
X21125047Y-45818979D01*
X22141047Y-45867360D02*
X22044285Y-45818979D01*
X21899142Y-45818979D01*
X21754000Y-45867360D01*
X21657238Y-45964121D01*
X21608857Y-46060883D01*
X21560476Y-46254407D01*
X21560476Y-46399550D01*
X21608857Y-46593074D01*
X21657238Y-46689836D01*
X21754000Y-46786598D01*
X21899142Y-46834979D01*
X21995904Y-46834979D01*
X22141047Y-46786598D01*
X22189428Y-46738217D01*
X22189428Y-46399550D01*
X21995904Y-46399550D01*
X22624857Y-46834979D02*
X22624857Y-45818979D01*
X22866761Y-45818979D01*
X23011904Y-45867360D01*
X23108666Y-45964121D01*
X23157047Y-46060883D01*
X23205428Y-46254407D01*
X23205428Y-46399550D01*
X23157047Y-46593074D01*
X23108666Y-46689836D01*
X23011904Y-46786598D01*
X22866761Y-46834979D01*
X22624857Y-46834979D01*
X23834380Y-45818979D02*
X24027904Y-45818979D01*
X24124666Y-45867360D01*
X24221428Y-45964121D01*
X24269809Y-46157645D01*
X24269809Y-46496312D01*
X24221428Y-46689836D01*
X24124666Y-46786598D01*
X24027904Y-46834979D01*
X23834380Y-46834979D01*
X23737619Y-46786598D01*
X23640857Y-46689836D01*
X23592476Y-46496312D01*
X23592476Y-46157645D01*
X23640857Y-45964121D01*
X23737619Y-45867360D01*
X23834380Y-45818979D01*
X24705238Y-46834979D02*
X24705238Y-45818979D01*
X25285809Y-46834979D01*
X25285809Y-45818979D01*
X26301809Y-45867360D02*
X26205047Y-45818979D01*
X26059904Y-45818979D01*
X25914761Y-45867360D01*
X25818000Y-45964121D01*
X25769619Y-46060883D01*
X25721238Y-46254407D01*
X25721238Y-46399550D01*
X25769619Y-46593074D01*
X25818000Y-46689836D01*
X25914761Y-46786598D01*
X26059904Y-46834979D01*
X26156666Y-46834979D01*
X26301809Y-46786598D01*
X26350190Y-46738217D01*
X26350190Y-46399550D01*
X26156666Y-46399550D01*
X26785619Y-46447931D02*
X27559714Y-46447931D01*
X27995142Y-46786598D02*
X28140285Y-46834979D01*
X28382190Y-46834979D01*
X28478952Y-46786598D01*
X28527333Y-46738217D01*
X28575714Y-46641455D01*
X28575714Y-46544693D01*
X28527333Y-46447931D01*
X28478952Y-46399550D01*
X28382190Y-46351169D01*
X28188666Y-46302788D01*
X28091904Y-46254407D01*
X28043523Y-46206026D01*
X27995142Y-46109264D01*
X27995142Y-46012502D01*
X28043523Y-45915740D01*
X28091904Y-45867360D01*
X28188666Y-45818979D01*
X28430571Y-45818979D01*
X28575714Y-45867360D01*
X29011142Y-46834979D02*
X29011142Y-45818979D01*
X29398190Y-45818979D01*
X29494952Y-45867360D01*
X29543333Y-45915740D01*
X29591714Y-46012502D01*
X29591714Y-46157645D01*
X29543333Y-46254407D01*
X29494952Y-46302788D01*
X29398190Y-46351169D01*
X29011142Y-46351169D01*
X30027142Y-46834979D02*
X30027142Y-45818979D01*
X30607714Y-46834979D02*
X30172285Y-46254407D01*
X30607714Y-45818979D02*
X30027142Y-46399550D01*
X21318571Y-47793405D02*
X21560476Y-48470739D01*
X21802380Y-47793405D01*
X22141047Y-47551500D02*
X22189428Y-47503120D01*
X22286190Y-47454739D01*
X22528095Y-47454739D01*
X22624857Y-47503120D01*
X22673238Y-47551500D01*
X22721619Y-47648262D01*
X22721619Y-47745024D01*
X22673238Y-47890167D01*
X22092666Y-48470739D01*
X22721619Y-48470739D01*
X23157047Y-48373977D02*
X23205428Y-48422358D01*
X23157047Y-48470739D01*
X23108666Y-48422358D01*
X23157047Y-48373977D01*
X23157047Y-48470739D01*
X23834380Y-47454739D02*
X23931142Y-47454739D01*
X24027904Y-47503120D01*
X24076285Y-47551500D01*
X24124666Y-47648262D01*
X24173047Y-47841786D01*
X24173047Y-48083691D01*
X24124666Y-48277215D01*
X24076285Y-48373977D01*
X24027904Y-48422358D01*
X23931142Y-48470739D01*
X23834380Y-48470739D01*
X23737619Y-48422358D01*
X23689238Y-48373977D01*
X23640857Y-48277215D01*
X23592476Y-48083691D01*
X23592476Y-47841786D01*
X23640857Y-47648262D01*
X23689238Y-47551500D01*
X23737619Y-47503120D01*
X23834380Y-47454739D01*
X13577619Y-50106499D02*
X13577619Y-49090499D01*
X14206571Y-50106499D02*
X14109809Y-50058118D01*
X14061428Y-50009737D01*
X14013047Y-49912975D01*
X14013047Y-49622689D01*
X14061428Y-49525927D01*
X14109809Y-49477546D01*
X14206571Y-49429165D01*
X14351714Y-49429165D01*
X14448476Y-49477546D01*
X14496857Y-49525927D01*
X14545238Y-49622689D01*
X14545238Y-49912975D01*
X14496857Y-50009737D01*
X14448476Y-50058118D01*
X14351714Y-50106499D01*
X14206571Y-50106499D01*
X14883904Y-49429165D02*
X15077428Y-50106499D01*
X15270952Y-49622689D01*
X15464476Y-50106499D01*
X15658000Y-49429165D01*
X16480476Y-50106499D02*
X16480476Y-49574308D01*
X16432095Y-49477546D01*
X16335333Y-49429165D01*
X16141809Y-49429165D01*
X16045047Y-49477546D01*
X16480476Y-50058118D02*
X16383714Y-50106499D01*
X16141809Y-50106499D01*
X16045047Y-50058118D01*
X15996666Y-49961356D01*
X15996666Y-49864594D01*
X16045047Y-49767832D01*
X16141809Y-49719451D01*
X16383714Y-49719451D01*
X16480476Y-49671070D01*
X17690000Y-50058118D02*
X17835142Y-50106499D01*
X18077047Y-50106499D01*
X18173809Y-50058118D01*
X18222190Y-50009737D01*
X18270571Y-49912975D01*
X18270571Y-49816213D01*
X18222190Y-49719451D01*
X18173809Y-49671070D01*
X18077047Y-49622689D01*
X17883523Y-49574308D01*
X17786761Y-49525927D01*
X17738380Y-49477546D01*
X17690000Y-49380784D01*
X17690000Y-49284022D01*
X17738380Y-49187260D01*
X17786761Y-49138880D01*
X17883523Y-49090499D01*
X18125428Y-49090499D01*
X18270571Y-49138880D01*
X19141428Y-50058118D02*
X19044666Y-50106499D01*
X18851142Y-50106499D01*
X18754380Y-50058118D01*
X18706000Y-50009737D01*
X18657619Y-49912975D01*
X18657619Y-49622689D01*
X18706000Y-49525927D01*
X18754380Y-49477546D01*
X18851142Y-49429165D01*
X19044666Y-49429165D01*
X19141428Y-49477546D01*
X20012285Y-50106499D02*
X20012285Y-49574308D01*
X19963904Y-49477546D01*
X19867142Y-49429165D01*
X19673619Y-49429165D01*
X19576857Y-49477546D01*
X20012285Y-50058118D02*
X19915523Y-50106499D01*
X19673619Y-50106499D01*
X19576857Y-50058118D01*
X19528476Y-49961356D01*
X19528476Y-49864594D01*
X19576857Y-49767832D01*
X19673619Y-49719451D01*
X19915523Y-49719451D01*
X20012285Y-49671070D01*
X20641238Y-50106499D02*
X20544476Y-50058118D01*
X20496095Y-49961356D01*
X20496095Y-49090499D01*
X21415333Y-50058118D02*
X21318571Y-50106499D01*
X21125047Y-50106499D01*
X21028285Y-50058118D01*
X20979904Y-49961356D01*
X20979904Y-49574308D01*
X21028285Y-49477546D01*
X21125047Y-49429165D01*
X21318571Y-49429165D01*
X21415333Y-49477546D01*
X21463714Y-49574308D01*
X21463714Y-49671070D01*
X20979904Y-49767832D01*
X22334571Y-50106499D02*
X22334571Y-49090499D01*
X22334571Y-50058118D02*
X22237809Y-50106499D01*
X22044285Y-50106499D01*
X21947523Y-50058118D01*
X21899142Y-50009737D01*
X21850761Y-49912975D01*
X21850761Y-49622689D01*
X21899142Y-49525927D01*
X21947523Y-49477546D01*
X22044285Y-49429165D01*
X22237809Y-49429165D01*
X22334571Y-49477546D01*
X23592476Y-49574308D02*
X23931142Y-49574308D01*
X24076285Y-50106499D02*
X23592476Y-50106499D01*
X23592476Y-49090499D01*
X24076285Y-49090499D01*
X24511714Y-49429165D02*
X24511714Y-50106499D01*
X24511714Y-49525927D02*
X24560095Y-49477546D01*
X24656857Y-49429165D01*
X24802000Y-49429165D01*
X24898761Y-49477546D01*
X24947142Y-49574308D01*
X24947142Y-50106499D01*
X25866380Y-49429165D02*
X25866380Y-50251641D01*
X25818000Y-50348403D01*
X25769619Y-50396784D01*
X25672857Y-50445165D01*
X25527714Y-50445165D01*
X25430952Y-50396784D01*
X25866380Y-50058118D02*
X25769619Y-50106499D01*
X25576095Y-50106499D01*
X25479333Y-50058118D01*
X25430952Y-50009737D01*
X25382571Y-49912975D01*
X25382571Y-49622689D01*
X25430952Y-49525927D01*
X25479333Y-49477546D01*
X25576095Y-49429165D01*
X25769619Y-49429165D01*
X25866380Y-49477546D01*
X26350190Y-50106499D02*
X26350190Y-49429165D01*
X26350190Y-49090499D02*
X26301809Y-49138880D01*
X26350190Y-49187260D01*
X26398571Y-49138880D01*
X26350190Y-49090499D01*
X26350190Y-49187260D01*
X26834000Y-49429165D02*
X26834000Y-50106499D01*
X26834000Y-49525927D02*
X26882380Y-49477546D01*
X26979142Y-49429165D01*
X27124285Y-49429165D01*
X27221047Y-49477546D01*
X27269428Y-49574308D01*
X27269428Y-50106499D01*
X28140285Y-50058118D02*
X28043523Y-50106499D01*
X27850000Y-50106499D01*
X27753238Y-50058118D01*
X27704857Y-49961356D01*
X27704857Y-49574308D01*
X27753238Y-49477546D01*
X27850000Y-49429165D01*
X28043523Y-49429165D01*
X28140285Y-49477546D01*
X28188666Y-49574308D01*
X28188666Y-49671070D01*
X27704857Y-49767832D01*
X29011142Y-50058118D02*
X28914380Y-50106499D01*
X28720857Y-50106499D01*
X28624095Y-50058118D01*
X28575714Y-49961356D01*
X28575714Y-49574308D01*
X28624095Y-49477546D01*
X28720857Y-49429165D01*
X28914380Y-49429165D01*
X29011142Y-49477546D01*
X29059523Y-49574308D01*
X29059523Y-49671070D01*
X28575714Y-49767832D01*
X29494952Y-50106499D02*
X29494952Y-49429165D01*
X29494952Y-49622689D02*
X29543333Y-49525927D01*
X29591714Y-49477546D01*
X29688476Y-49429165D01*
X29785238Y-49429165D01*
X30123904Y-50106499D02*
X30123904Y-49429165D01*
X30123904Y-49090499D02*
X30075523Y-49138880D01*
X30123904Y-49187260D01*
X30172285Y-49138880D01*
X30123904Y-49090499D01*
X30123904Y-49187260D01*
X30607714Y-49429165D02*
X30607714Y-50106499D01*
X30607714Y-49525927D02*
X30656095Y-49477546D01*
X30752857Y-49429165D01*
X30898000Y-49429165D01*
X30994761Y-49477546D01*
X31043142Y-49574308D01*
X31043142Y-50106499D01*
X31962380Y-49429165D02*
X31962380Y-50251641D01*
X31914000Y-50348403D01*
X31865619Y-50396784D01*
X31768857Y-50445165D01*
X31623714Y-50445165D01*
X31526952Y-50396784D01*
X31962380Y-50058118D02*
X31865619Y-50106499D01*
X31672095Y-50106499D01*
X31575333Y-50058118D01*
X31526952Y-50009737D01*
X31478571Y-49912975D01*
X31478571Y-49622689D01*
X31526952Y-49525927D01*
X31575333Y-49477546D01*
X31672095Y-49429165D01*
X31865619Y-49429165D01*
X31962380Y-49477546D01*
X16746571Y-50968163D02*
X16649809Y-50919782D01*
X16456285Y-50919782D01*
X16359523Y-50968163D01*
X16262761Y-51064925D01*
X16214380Y-51161687D01*
X16214380Y-51355211D01*
X16262761Y-51451973D01*
X16359523Y-51548735D01*
X16456285Y-51597116D01*
X16649809Y-51597116D01*
X16746571Y-51548735D01*
X16553047Y-50581116D02*
X16311142Y-50629497D01*
X16069238Y-50774640D01*
X15924095Y-51016544D01*
X15875714Y-51258449D01*
X15924095Y-51500354D01*
X16069238Y-51742259D01*
X16311142Y-51887401D01*
X16553047Y-51935782D01*
X16794952Y-51887401D01*
X17036857Y-51742259D01*
X17182000Y-51500354D01*
X17230380Y-51258449D01*
X17182000Y-51016544D01*
X17036857Y-50774640D01*
X16794952Y-50629497D01*
X16553047Y-50581116D01*
X17617428Y-50823020D02*
X17665809Y-50774640D01*
X17762571Y-50726259D01*
X18004476Y-50726259D01*
X18101238Y-50774640D01*
X18149619Y-50823020D01*
X18198000Y-50919782D01*
X18198000Y-51016544D01*
X18149619Y-51161687D01*
X17569047Y-51742259D01*
X18198000Y-51742259D01*
X18826952Y-50726259D02*
X18923714Y-50726259D01*
X19020476Y-50774640D01*
X19068857Y-50823020D01*
X19117238Y-50919782D01*
X19165619Y-51113306D01*
X19165619Y-51355211D01*
X19117238Y-51548735D01*
X19068857Y-51645497D01*
X19020476Y-51693878D01*
X18923714Y-51742259D01*
X18826952Y-51742259D01*
X18730190Y-51693878D01*
X18681809Y-51645497D01*
X18633428Y-51548735D01*
X18585047Y-51355211D01*
X18585047Y-51113306D01*
X18633428Y-50919782D01*
X18681809Y-50823020D01*
X18730190Y-50774640D01*
X18826952Y-50726259D01*
X19552666Y-50823020D02*
X19601047Y-50774640D01*
X19697809Y-50726259D01*
X19939714Y-50726259D01*
X20036476Y-50774640D01*
X20084857Y-50823020D01*
X20133238Y-50919782D01*
X20133238Y-51016544D01*
X20084857Y-51161687D01*
X19504285Y-51742259D01*
X20133238Y-51742259D01*
X20471904Y-50726259D02*
X21100857Y-50726259D01*
X20762190Y-51113306D01*
X20907333Y-51113306D01*
X21004095Y-51161687D01*
X21052476Y-51210068D01*
X21100857Y-51306830D01*
X21100857Y-51548735D01*
X21052476Y-51645497D01*
X21004095Y-51693878D01*
X20907333Y-51742259D01*
X20617047Y-51742259D01*
X20520285Y-51693878D01*
X20471904Y-51645497D01*
X22890952Y-51645497D02*
X22842571Y-51693878D01*
X22697428Y-51742259D01*
X22600666Y-51742259D01*
X22455523Y-51693878D01*
X22358761Y-51597116D01*
X22310380Y-51500354D01*
X22262000Y-51306830D01*
X22262000Y-51161687D01*
X22310380Y-50968163D01*
X22358761Y-50871401D01*
X22455523Y-50774640D01*
X22600666Y-50726259D01*
X22697428Y-50726259D01*
X22842571Y-50774640D01*
X22890952Y-50823020D01*
X23906952Y-51645497D02*
X23858571Y-51693878D01*
X23713428Y-51742259D01*
X23616666Y-51742259D01*
X23471523Y-51693878D01*
X23374761Y-51597116D01*
X23326380Y-51500354D01*
X23278000Y-51306830D01*
X23278000Y-51161687D01*
X23326380Y-50968163D01*
X23374761Y-50871401D01*
X23471523Y-50774640D01*
X23616666Y-50726259D01*
X23713428Y-50726259D01*
X23858571Y-50774640D01*
X23906952Y-50823020D01*
X25455142Y-51210068D02*
X25600285Y-51258449D01*
X25648666Y-51306830D01*
X25697047Y-51403592D01*
X25697047Y-51548735D01*
X25648666Y-51645497D01*
X25600285Y-51693878D01*
X25503523Y-51742259D01*
X25116476Y-51742259D01*
X25116476Y-50726259D01*
X25455142Y-50726259D01*
X25551904Y-50774640D01*
X25600285Y-50823020D01*
X25648666Y-50919782D01*
X25648666Y-51016544D01*
X25600285Y-51113306D01*
X25551904Y-51161687D01*
X25455142Y-51210068D01*
X25116476Y-51210068D01*
X26326000Y-51258449D02*
X26326000Y-51742259D01*
X25987333Y-50726259D02*
X26326000Y-51258449D01*
X26664666Y-50726259D01*
X27003333Y-51355211D02*
X27777428Y-51355211D01*
X28212857Y-51693878D02*
X28358000Y-51742259D01*
X28599904Y-51742259D01*
X28696666Y-51693878D01*
X28745047Y-51645497D01*
X28793428Y-51548735D01*
X28793428Y-51451973D01*
X28745047Y-51355211D01*
X28696666Y-51306830D01*
X28599904Y-51258449D01*
X28406380Y-51210068D01*
X28309619Y-51161687D01*
X28261238Y-51113306D01*
X28212857Y-51016544D01*
X28212857Y-50919782D01*
X28261238Y-50823020D01*
X28309619Y-50774640D01*
X28406380Y-50726259D01*
X28648285Y-50726259D01*
X28793428Y-50774640D01*
X29180476Y-51451973D02*
X29664285Y-51451973D01*
X29083714Y-51742259D02*
X29422380Y-50726259D01*
X29761047Y-51742259D01*
X99381238Y-46738217D02*
X99332857Y-46786598D01*
X99187714Y-46834979D01*
X99090952Y-46834979D01*
X98945809Y-46786598D01*
X98849047Y-46689836D01*
X98800666Y-46593074D01*
X98752285Y-46399550D01*
X98752285Y-46254407D01*
X98800666Y-46060883D01*
X98849047Y-45964121D01*
X98945809Y-45867360D01*
X99090952Y-45818979D01*
X99187714Y-45818979D01*
X99332857Y-45867360D01*
X99381238Y-45915740D01*
X99816666Y-46834979D02*
X99816666Y-45818979D01*
X100397238Y-46834979D02*
X99961809Y-46254407D01*
X100397238Y-45818979D02*
X99816666Y-46399550D01*
X100687523Y-45818979D02*
X101268095Y-45818979D01*
X100977809Y-46834979D02*
X100977809Y-45818979D01*
X101606761Y-46447931D02*
X102380857Y-46447931D01*
X102864666Y-46834979D02*
X102864666Y-45818979D01*
X103106571Y-45818979D01*
X103251714Y-45867360D01*
X103348476Y-45964121D01*
X103396857Y-46060883D01*
X103445238Y-46254407D01*
X103445238Y-46399550D01*
X103396857Y-46593074D01*
X103348476Y-46689836D01*
X103251714Y-46786598D01*
X103106571Y-46834979D01*
X102864666Y-46834979D01*
X103880666Y-46834979D02*
X103880666Y-45818979D01*
X104364476Y-46834979D02*
X104364476Y-45818979D01*
X104945047Y-46834979D01*
X104945047Y-45818979D01*
X105961047Y-45867360D02*
X105864285Y-45818979D01*
X105719142Y-45818979D01*
X105574000Y-45867360D01*
X105477238Y-45964121D01*
X105428857Y-46060883D01*
X105380476Y-46254407D01*
X105380476Y-46399550D01*
X105428857Y-46593074D01*
X105477238Y-46689836D01*
X105574000Y-46786598D01*
X105719142Y-46834979D01*
X105815904Y-46834979D01*
X105961047Y-46786598D01*
X106009428Y-46738217D01*
X106009428Y-46399550D01*
X105815904Y-46399550D01*
X106444857Y-46834979D02*
X106444857Y-45818979D01*
X106686761Y-45818979D01*
X106831904Y-45867360D01*
X106928666Y-45964121D01*
X106977047Y-46060883D01*
X107025428Y-46254407D01*
X107025428Y-46399550D01*
X106977047Y-46593074D01*
X106928666Y-46689836D01*
X106831904Y-46786598D01*
X106686761Y-46834979D01*
X106444857Y-46834979D01*
X107654380Y-45818979D02*
X107847904Y-45818979D01*
X107944666Y-45867360D01*
X108041428Y-45964121D01*
X108089809Y-46157645D01*
X108089809Y-46496312D01*
X108041428Y-46689836D01*
X107944666Y-46786598D01*
X107847904Y-46834979D01*
X107654380Y-46834979D01*
X107557619Y-46786598D01*
X107460857Y-46689836D01*
X107412476Y-46496312D01*
X107412476Y-46157645D01*
X107460857Y-45964121D01*
X107557619Y-45867360D01*
X107654380Y-45818979D01*
X108525238Y-46834979D02*
X108525238Y-45818979D01*
X109105809Y-46834979D01*
X109105809Y-45818979D01*
X110121809Y-45867360D02*
X110025047Y-45818979D01*
X109879904Y-45818979D01*
X109734761Y-45867360D01*
X109638000Y-45964121D01*
X109589619Y-46060883D01*
X109541238Y-46254407D01*
X109541238Y-46399550D01*
X109589619Y-46593074D01*
X109638000Y-46689836D01*
X109734761Y-46786598D01*
X109879904Y-46834979D01*
X109976666Y-46834979D01*
X110121809Y-46786598D01*
X110170190Y-46738217D01*
X110170190Y-46399550D01*
X109976666Y-46399550D01*
X110605619Y-46447931D02*
X111379714Y-46447931D01*
X111815142Y-46786598D02*
X111960285Y-46834979D01*
X112202190Y-46834979D01*
X112298952Y-46786598D01*
X112347333Y-46738217D01*
X112395714Y-46641455D01*
X112395714Y-46544693D01*
X112347333Y-46447931D01*
X112298952Y-46399550D01*
X112202190Y-46351169D01*
X112008666Y-46302788D01*
X111911904Y-46254407D01*
X111863523Y-46206026D01*
X111815142Y-46109264D01*
X111815142Y-46012502D01*
X111863523Y-45915740D01*
X111911904Y-45867360D01*
X112008666Y-45818979D01*
X112250571Y-45818979D01*
X112395714Y-45867360D01*
X112831142Y-46834979D02*
X112831142Y-45818979D01*
X113218190Y-45818979D01*
X113314952Y-45867360D01*
X113363333Y-45915740D01*
X113411714Y-46012502D01*
X113411714Y-46157645D01*
X113363333Y-46254407D01*
X113314952Y-46302788D01*
X113218190Y-46351169D01*
X112831142Y-46351169D01*
X113847142Y-46834979D02*
X113847142Y-45818979D01*
X114427714Y-46834979D02*
X113992285Y-46254407D01*
X114427714Y-45818979D02*
X113847142Y-46399550D01*
X105138571Y-47793405D02*
X105380476Y-48470739D01*
X105622380Y-47793405D01*
X105961047Y-47551500D02*
X106009428Y-47503120D01*
X106106190Y-47454739D01*
X106348095Y-47454739D01*
X106444857Y-47503120D01*
X106493238Y-47551500D01*
X106541619Y-47648262D01*
X106541619Y-47745024D01*
X106493238Y-47890167D01*
X105912666Y-48470739D01*
X106541619Y-48470739D01*
X106977047Y-48373977D02*
X107025428Y-48422358D01*
X106977047Y-48470739D01*
X106928666Y-48422358D01*
X106977047Y-48373977D01*
X106977047Y-48470739D01*
X107654380Y-47454739D02*
X107751142Y-47454739D01*
X107847904Y-47503120D01*
X107896285Y-47551500D01*
X107944666Y-47648262D01*
X107993047Y-47841786D01*
X107993047Y-48083691D01*
X107944666Y-48277215D01*
X107896285Y-48373977D01*
X107847904Y-48422358D01*
X107751142Y-48470739D01*
X107654380Y-48470739D01*
X107557619Y-48422358D01*
X107509238Y-48373977D01*
X107460857Y-48277215D01*
X107412476Y-48083691D01*
X107412476Y-47841786D01*
X107460857Y-47648262D01*
X107509238Y-47551500D01*
X107557619Y-47503120D01*
X107654380Y-47454739D01*
X97397619Y-50106499D02*
X97397619Y-49090499D01*
X98026571Y-50106499D02*
X97929809Y-50058118D01*
X97881428Y-50009737D01*
X97833047Y-49912975D01*
X97833047Y-49622689D01*
X97881428Y-49525927D01*
X97929809Y-49477546D01*
X98026571Y-49429165D01*
X98171714Y-49429165D01*
X98268476Y-49477546D01*
X98316857Y-49525927D01*
X98365238Y-49622689D01*
X98365238Y-49912975D01*
X98316857Y-50009737D01*
X98268476Y-50058118D01*
X98171714Y-50106499D01*
X98026571Y-50106499D01*
X98703904Y-49429165D02*
X98897428Y-50106499D01*
X99090952Y-49622689D01*
X99284476Y-50106499D01*
X99478000Y-49429165D01*
X100300476Y-50106499D02*
X100300476Y-49574308D01*
X100252095Y-49477546D01*
X100155333Y-49429165D01*
X99961809Y-49429165D01*
X99865047Y-49477546D01*
X100300476Y-50058118D02*
X100203714Y-50106499D01*
X99961809Y-50106499D01*
X99865047Y-50058118D01*
X99816666Y-49961356D01*
X99816666Y-49864594D01*
X99865047Y-49767832D01*
X99961809Y-49719451D01*
X100203714Y-49719451D01*
X100300476Y-49671070D01*
X101510000Y-50058118D02*
X101655142Y-50106499D01*
X101897047Y-50106499D01*
X101993809Y-50058118D01*
X102042190Y-50009737D01*
X102090571Y-49912975D01*
X102090571Y-49816213D01*
X102042190Y-49719451D01*
X101993809Y-49671070D01*
X101897047Y-49622689D01*
X101703523Y-49574308D01*
X101606761Y-49525927D01*
X101558380Y-49477546D01*
X101510000Y-49380784D01*
X101510000Y-49284022D01*
X101558380Y-49187260D01*
X101606761Y-49138880D01*
X101703523Y-49090499D01*
X101945428Y-49090499D01*
X102090571Y-49138880D01*
X102961428Y-50058118D02*
X102864666Y-50106499D01*
X102671142Y-50106499D01*
X102574380Y-50058118D01*
X102526000Y-50009737D01*
X102477619Y-49912975D01*
X102477619Y-49622689D01*
X102526000Y-49525927D01*
X102574380Y-49477546D01*
X102671142Y-49429165D01*
X102864666Y-49429165D01*
X102961428Y-49477546D01*
X103832285Y-50106499D02*
X103832285Y-49574308D01*
X103783904Y-49477546D01*
X103687142Y-49429165D01*
X103493619Y-49429165D01*
X103396857Y-49477546D01*
X103832285Y-50058118D02*
X103735523Y-50106499D01*
X103493619Y-50106499D01*
X103396857Y-50058118D01*
X103348476Y-49961356D01*
X103348476Y-49864594D01*
X103396857Y-49767832D01*
X103493619Y-49719451D01*
X103735523Y-49719451D01*
X103832285Y-49671070D01*
X104461238Y-50106499D02*
X104364476Y-50058118D01*
X104316095Y-49961356D01*
X104316095Y-49090499D01*
X105235333Y-50058118D02*
X105138571Y-50106499D01*
X104945047Y-50106499D01*
X104848285Y-50058118D01*
X104799904Y-49961356D01*
X104799904Y-49574308D01*
X104848285Y-49477546D01*
X104945047Y-49429165D01*
X105138571Y-49429165D01*
X105235333Y-49477546D01*
X105283714Y-49574308D01*
X105283714Y-49671070D01*
X104799904Y-49767832D01*
X106154571Y-50106499D02*
X106154571Y-49090499D01*
X106154571Y-50058118D02*
X106057809Y-50106499D01*
X105864285Y-50106499D01*
X105767523Y-50058118D01*
X105719142Y-50009737D01*
X105670761Y-49912975D01*
X105670761Y-49622689D01*
X105719142Y-49525927D01*
X105767523Y-49477546D01*
X105864285Y-49429165D01*
X106057809Y-49429165D01*
X106154571Y-49477546D01*
X107412476Y-49574308D02*
X107751142Y-49574308D01*
X107896285Y-50106499D02*
X107412476Y-50106499D01*
X107412476Y-49090499D01*
X107896285Y-49090499D01*
X108331714Y-49429165D02*
X108331714Y-50106499D01*
X108331714Y-49525927D02*
X108380095Y-49477546D01*
X108476857Y-49429165D01*
X108622000Y-49429165D01*
X108718761Y-49477546D01*
X108767142Y-49574308D01*
X108767142Y-50106499D01*
X109686380Y-49429165D02*
X109686380Y-50251641D01*
X109638000Y-50348403D01*
X109589619Y-50396784D01*
X109492857Y-50445165D01*
X109347714Y-50445165D01*
X109250952Y-50396784D01*
X109686380Y-50058118D02*
X109589619Y-50106499D01*
X109396095Y-50106499D01*
X109299333Y-50058118D01*
X109250952Y-50009737D01*
X109202571Y-49912975D01*
X109202571Y-49622689D01*
X109250952Y-49525927D01*
X109299333Y-49477546D01*
X109396095Y-49429165D01*
X109589619Y-49429165D01*
X109686380Y-49477546D01*
X110170190Y-50106499D02*
X110170190Y-49429165D01*
X110170190Y-49090499D02*
X110121809Y-49138880D01*
X110170190Y-49187260D01*
X110218571Y-49138880D01*
X110170190Y-49090499D01*
X110170190Y-49187260D01*
X110654000Y-49429165D02*
X110654000Y-50106499D01*
X110654000Y-49525927D02*
X110702380Y-49477546D01*
X110799142Y-49429165D01*
X110944285Y-49429165D01*
X111041047Y-49477546D01*
X111089428Y-49574308D01*
X111089428Y-50106499D01*
X111960285Y-50058118D02*
X111863523Y-50106499D01*
X111670000Y-50106499D01*
X111573238Y-50058118D01*
X111524857Y-49961356D01*
X111524857Y-49574308D01*
X111573238Y-49477546D01*
X111670000Y-49429165D01*
X111863523Y-49429165D01*
X111960285Y-49477546D01*
X112008666Y-49574308D01*
X112008666Y-49671070D01*
X111524857Y-49767832D01*
X112831142Y-50058118D02*
X112734380Y-50106499D01*
X112540857Y-50106499D01*
X112444095Y-50058118D01*
X112395714Y-49961356D01*
X112395714Y-49574308D01*
X112444095Y-49477546D01*
X112540857Y-49429165D01*
X112734380Y-49429165D01*
X112831142Y-49477546D01*
X112879523Y-49574308D01*
X112879523Y-49671070D01*
X112395714Y-49767832D01*
X113314952Y-50106499D02*
X113314952Y-49429165D01*
X113314952Y-49622689D02*
X113363333Y-49525927D01*
X113411714Y-49477546D01*
X113508476Y-49429165D01*
X113605238Y-49429165D01*
X113943904Y-50106499D02*
X113943904Y-49429165D01*
X113943904Y-49090499D02*
X113895523Y-49138880D01*
X113943904Y-49187260D01*
X113992285Y-49138880D01*
X113943904Y-49090499D01*
X113943904Y-49187260D01*
X114427714Y-49429165D02*
X114427714Y-50106499D01*
X114427714Y-49525927D02*
X114476095Y-49477546D01*
X114572857Y-49429165D01*
X114718000Y-49429165D01*
X114814761Y-49477546D01*
X114863142Y-49574308D01*
X114863142Y-50106499D01*
X115782380Y-49429165D02*
X115782380Y-50251641D01*
X115734000Y-50348403D01*
X115685619Y-50396784D01*
X115588857Y-50445165D01*
X115443714Y-50445165D01*
X115346952Y-50396784D01*
X115782380Y-50058118D02*
X115685619Y-50106499D01*
X115492095Y-50106499D01*
X115395333Y-50058118D01*
X115346952Y-50009737D01*
X115298571Y-49912975D01*
X115298571Y-49622689D01*
X115346952Y-49525927D01*
X115395333Y-49477546D01*
X115492095Y-49429165D01*
X115685619Y-49429165D01*
X115782380Y-49477546D01*
X100566571Y-50968163D02*
X100469809Y-50919782D01*
X100276285Y-50919782D01*
X100179523Y-50968163D01*
X100082761Y-51064925D01*
X100034380Y-51161687D01*
X100034380Y-51355211D01*
X100082761Y-51451973D01*
X100179523Y-51548735D01*
X100276285Y-51597116D01*
X100469809Y-51597116D01*
X100566571Y-51548735D01*
X100373047Y-50581116D02*
X100131142Y-50629497D01*
X99889238Y-50774640D01*
X99744095Y-51016544D01*
X99695714Y-51258449D01*
X99744095Y-51500354D01*
X99889238Y-51742259D01*
X100131142Y-51887401D01*
X100373047Y-51935782D01*
X100614952Y-51887401D01*
X100856857Y-51742259D01*
X101002000Y-51500354D01*
X101050380Y-51258449D01*
X101002000Y-51016544D01*
X100856857Y-50774640D01*
X100614952Y-50629497D01*
X100373047Y-50581116D01*
X101437428Y-50823020D02*
X101485809Y-50774640D01*
X101582571Y-50726259D01*
X101824476Y-50726259D01*
X101921238Y-50774640D01*
X101969619Y-50823020D01*
X102018000Y-50919782D01*
X102018000Y-51016544D01*
X101969619Y-51161687D01*
X101389047Y-51742259D01*
X102018000Y-51742259D01*
X102646952Y-50726259D02*
X102743714Y-50726259D01*
X102840476Y-50774640D01*
X102888857Y-50823020D01*
X102937238Y-50919782D01*
X102985619Y-51113306D01*
X102985619Y-51355211D01*
X102937238Y-51548735D01*
X102888857Y-51645497D01*
X102840476Y-51693878D01*
X102743714Y-51742259D01*
X102646952Y-51742259D01*
X102550190Y-51693878D01*
X102501809Y-51645497D01*
X102453428Y-51548735D01*
X102405047Y-51355211D01*
X102405047Y-51113306D01*
X102453428Y-50919782D01*
X102501809Y-50823020D01*
X102550190Y-50774640D01*
X102646952Y-50726259D01*
X103372666Y-50823020D02*
X103421047Y-50774640D01*
X103517809Y-50726259D01*
X103759714Y-50726259D01*
X103856476Y-50774640D01*
X103904857Y-50823020D01*
X103953238Y-50919782D01*
X103953238Y-51016544D01*
X103904857Y-51161687D01*
X103324285Y-51742259D01*
X103953238Y-51742259D01*
X104291904Y-50726259D02*
X104920857Y-50726259D01*
X104582190Y-51113306D01*
X104727333Y-51113306D01*
X104824095Y-51161687D01*
X104872476Y-51210068D01*
X104920857Y-51306830D01*
X104920857Y-51548735D01*
X104872476Y-51645497D01*
X104824095Y-51693878D01*
X104727333Y-51742259D01*
X104437047Y-51742259D01*
X104340285Y-51693878D01*
X104291904Y-51645497D01*
X106710952Y-51645497D02*
X106662571Y-51693878D01*
X106517428Y-51742259D01*
X106420666Y-51742259D01*
X106275523Y-51693878D01*
X106178761Y-51597116D01*
X106130380Y-51500354D01*
X106082000Y-51306830D01*
X106082000Y-51161687D01*
X106130380Y-50968163D01*
X106178761Y-50871401D01*
X106275523Y-50774640D01*
X106420666Y-50726259D01*
X106517428Y-50726259D01*
X106662571Y-50774640D01*
X106710952Y-50823020D01*
X107726952Y-51645497D02*
X107678571Y-51693878D01*
X107533428Y-51742259D01*
X107436666Y-51742259D01*
X107291523Y-51693878D01*
X107194761Y-51597116D01*
X107146380Y-51500354D01*
X107098000Y-51306830D01*
X107098000Y-51161687D01*
X107146380Y-50968163D01*
X107194761Y-50871401D01*
X107291523Y-50774640D01*
X107436666Y-50726259D01*
X107533428Y-50726259D01*
X107678571Y-50774640D01*
X107726952Y-50823020D01*
X109275142Y-51210068D02*
X109420285Y-51258449D01*
X109468666Y-51306830D01*
X109517047Y-51403592D01*
X109517047Y-51548735D01*
X109468666Y-51645497D01*
X109420285Y-51693878D01*
X109323523Y-51742259D01*
X108936476Y-51742259D01*
X108936476Y-50726259D01*
X109275142Y-50726259D01*
X109371904Y-50774640D01*
X109420285Y-50823020D01*
X109468666Y-50919782D01*
X109468666Y-51016544D01*
X109420285Y-51113306D01*
X109371904Y-51161687D01*
X109275142Y-51210068D01*
X108936476Y-51210068D01*
X110146000Y-51258449D02*
X110146000Y-51742259D01*
X109807333Y-50726259D02*
X110146000Y-51258449D01*
X110484666Y-50726259D01*
X110823333Y-51355211D02*
X111597428Y-51355211D01*
X112032857Y-51693878D02*
X112178000Y-51742259D01*
X112419904Y-51742259D01*
X112516666Y-51693878D01*
X112565047Y-51645497D01*
X112613428Y-51548735D01*
X112613428Y-51451973D01*
X112565047Y-51355211D01*
X112516666Y-51306830D01*
X112419904Y-51258449D01*
X112226380Y-51210068D01*
X112129619Y-51161687D01*
X112081238Y-51113306D01*
X112032857Y-51016544D01*
X112032857Y-50919782D01*
X112081238Y-50823020D01*
X112129619Y-50774640D01*
X112226380Y-50726259D01*
X112468285Y-50726259D01*
X112613428Y-50774640D01*
X113000476Y-51451973D02*
X113484285Y-51451973D01*
X112903714Y-51742259D02*
X113242380Y-50726259D01*
X113581047Y-51742259D01*
X127321238Y-46738217D02*
X127272857Y-46786598D01*
X127127714Y-46834979D01*
X127030952Y-46834979D01*
X126885809Y-46786598D01*
X126789047Y-46689836D01*
X126740666Y-46593074D01*
X126692285Y-46399550D01*
X126692285Y-46254407D01*
X126740666Y-46060883D01*
X126789047Y-45964121D01*
X126885809Y-45867360D01*
X127030952Y-45818979D01*
X127127714Y-45818979D01*
X127272857Y-45867360D01*
X127321238Y-45915740D01*
X127756666Y-46834979D02*
X127756666Y-45818979D01*
X128337238Y-46834979D02*
X127901809Y-46254407D01*
X128337238Y-45818979D02*
X127756666Y-46399550D01*
X128627523Y-45818979D02*
X129208095Y-45818979D01*
X128917809Y-46834979D02*
X128917809Y-45818979D01*
X129546761Y-46447931D02*
X130320857Y-46447931D01*
X130804666Y-46834979D02*
X130804666Y-45818979D01*
X131046571Y-45818979D01*
X131191714Y-45867360D01*
X131288476Y-45964121D01*
X131336857Y-46060883D01*
X131385238Y-46254407D01*
X131385238Y-46399550D01*
X131336857Y-46593074D01*
X131288476Y-46689836D01*
X131191714Y-46786598D01*
X131046571Y-46834979D01*
X130804666Y-46834979D01*
X131820666Y-46834979D02*
X131820666Y-45818979D01*
X132304476Y-46834979D02*
X132304476Y-45818979D01*
X132885047Y-46834979D01*
X132885047Y-45818979D01*
X133901047Y-45867360D02*
X133804285Y-45818979D01*
X133659142Y-45818979D01*
X133514000Y-45867360D01*
X133417238Y-45964121D01*
X133368857Y-46060883D01*
X133320476Y-46254407D01*
X133320476Y-46399550D01*
X133368857Y-46593074D01*
X133417238Y-46689836D01*
X133514000Y-46786598D01*
X133659142Y-46834979D01*
X133755904Y-46834979D01*
X133901047Y-46786598D01*
X133949428Y-46738217D01*
X133949428Y-46399550D01*
X133755904Y-46399550D01*
X134384857Y-46834979D02*
X134384857Y-45818979D01*
X134626761Y-45818979D01*
X134771904Y-45867360D01*
X134868666Y-45964121D01*
X134917047Y-46060883D01*
X134965428Y-46254407D01*
X134965428Y-46399550D01*
X134917047Y-46593074D01*
X134868666Y-46689836D01*
X134771904Y-46786598D01*
X134626761Y-46834979D01*
X134384857Y-46834979D01*
X135594380Y-45818979D02*
X135787904Y-45818979D01*
X135884666Y-45867360D01*
X135981428Y-45964121D01*
X136029809Y-46157645D01*
X136029809Y-46496312D01*
X135981428Y-46689836D01*
X135884666Y-46786598D01*
X135787904Y-46834979D01*
X135594380Y-46834979D01*
X135497619Y-46786598D01*
X135400857Y-46689836D01*
X135352476Y-46496312D01*
X135352476Y-46157645D01*
X135400857Y-45964121D01*
X135497619Y-45867360D01*
X135594380Y-45818979D01*
X136465238Y-46834979D02*
X136465238Y-45818979D01*
X137045809Y-46834979D01*
X137045809Y-45818979D01*
X138061809Y-45867360D02*
X137965047Y-45818979D01*
X137819904Y-45818979D01*
X137674761Y-45867360D01*
X137578000Y-45964121D01*
X137529619Y-46060883D01*
X137481238Y-46254407D01*
X137481238Y-46399550D01*
X137529619Y-46593074D01*
X137578000Y-46689836D01*
X137674761Y-46786598D01*
X137819904Y-46834979D01*
X137916666Y-46834979D01*
X138061809Y-46786598D01*
X138110190Y-46738217D01*
X138110190Y-46399550D01*
X137916666Y-46399550D01*
X138545619Y-46447931D02*
X139319714Y-46447931D01*
X139755142Y-46786598D02*
X139900285Y-46834979D01*
X140142190Y-46834979D01*
X140238952Y-46786598D01*
X140287333Y-46738217D01*
X140335714Y-46641455D01*
X140335714Y-46544693D01*
X140287333Y-46447931D01*
X140238952Y-46399550D01*
X140142190Y-46351169D01*
X139948666Y-46302788D01*
X139851904Y-46254407D01*
X139803523Y-46206026D01*
X139755142Y-46109264D01*
X139755142Y-46012502D01*
X139803523Y-45915740D01*
X139851904Y-45867360D01*
X139948666Y-45818979D01*
X140190571Y-45818979D01*
X140335714Y-45867360D01*
X140771142Y-46834979D02*
X140771142Y-45818979D01*
X141158190Y-45818979D01*
X141254952Y-45867360D01*
X141303333Y-45915740D01*
X141351714Y-46012502D01*
X141351714Y-46157645D01*
X141303333Y-46254407D01*
X141254952Y-46302788D01*
X141158190Y-46351169D01*
X140771142Y-46351169D01*
X141787142Y-46834979D02*
X141787142Y-45818979D01*
X142367714Y-46834979D02*
X141932285Y-46254407D01*
X142367714Y-45818979D02*
X141787142Y-46399550D01*
X133078571Y-47793405D02*
X133320476Y-48470739D01*
X133562380Y-47793405D01*
X133901047Y-47551500D02*
X133949428Y-47503120D01*
X134046190Y-47454739D01*
X134288095Y-47454739D01*
X134384857Y-47503120D01*
X134433238Y-47551500D01*
X134481619Y-47648262D01*
X134481619Y-47745024D01*
X134433238Y-47890167D01*
X133852666Y-48470739D01*
X134481619Y-48470739D01*
X134917047Y-48373977D02*
X134965428Y-48422358D01*
X134917047Y-48470739D01*
X134868666Y-48422358D01*
X134917047Y-48373977D01*
X134917047Y-48470739D01*
X135594380Y-47454739D02*
X135691142Y-47454739D01*
X135787904Y-47503120D01*
X135836285Y-47551500D01*
X135884666Y-47648262D01*
X135933047Y-47841786D01*
X135933047Y-48083691D01*
X135884666Y-48277215D01*
X135836285Y-48373977D01*
X135787904Y-48422358D01*
X135691142Y-48470739D01*
X135594380Y-48470739D01*
X135497619Y-48422358D01*
X135449238Y-48373977D01*
X135400857Y-48277215D01*
X135352476Y-48083691D01*
X135352476Y-47841786D01*
X135400857Y-47648262D01*
X135449238Y-47551500D01*
X135497619Y-47503120D01*
X135594380Y-47454739D01*
X125337619Y-50106499D02*
X125337619Y-49090499D01*
X125966571Y-50106499D02*
X125869809Y-50058118D01*
X125821428Y-50009737D01*
X125773047Y-49912975D01*
X125773047Y-49622689D01*
X125821428Y-49525927D01*
X125869809Y-49477546D01*
X125966571Y-49429165D01*
X126111714Y-49429165D01*
X126208476Y-49477546D01*
X126256857Y-49525927D01*
X126305238Y-49622689D01*
X126305238Y-49912975D01*
X126256857Y-50009737D01*
X126208476Y-50058118D01*
X126111714Y-50106499D01*
X125966571Y-50106499D01*
X126643904Y-49429165D02*
X126837428Y-50106499D01*
X127030952Y-49622689D01*
X127224476Y-50106499D01*
X127418000Y-49429165D01*
X128240476Y-50106499D02*
X128240476Y-49574308D01*
X128192095Y-49477546D01*
X128095333Y-49429165D01*
X127901809Y-49429165D01*
X127805047Y-49477546D01*
X128240476Y-50058118D02*
X128143714Y-50106499D01*
X127901809Y-50106499D01*
X127805047Y-50058118D01*
X127756666Y-49961356D01*
X127756666Y-49864594D01*
X127805047Y-49767832D01*
X127901809Y-49719451D01*
X128143714Y-49719451D01*
X128240476Y-49671070D01*
X129450000Y-50058118D02*
X129595142Y-50106499D01*
X129837047Y-50106499D01*
X129933809Y-50058118D01*
X129982190Y-50009737D01*
X130030571Y-49912975D01*
X130030571Y-49816213D01*
X129982190Y-49719451D01*
X129933809Y-49671070D01*
X129837047Y-49622689D01*
X129643523Y-49574308D01*
X129546761Y-49525927D01*
X129498380Y-49477546D01*
X129450000Y-49380784D01*
X129450000Y-49284022D01*
X129498380Y-49187260D01*
X129546761Y-49138880D01*
X129643523Y-49090499D01*
X129885428Y-49090499D01*
X130030571Y-49138880D01*
X130901428Y-50058118D02*
X130804666Y-50106499D01*
X130611142Y-50106499D01*
X130514380Y-50058118D01*
X130466000Y-50009737D01*
X130417619Y-49912975D01*
X130417619Y-49622689D01*
X130466000Y-49525927D01*
X130514380Y-49477546D01*
X130611142Y-49429165D01*
X130804666Y-49429165D01*
X130901428Y-49477546D01*
X131772285Y-50106499D02*
X131772285Y-49574308D01*
X131723904Y-49477546D01*
X131627142Y-49429165D01*
X131433619Y-49429165D01*
X131336857Y-49477546D01*
X131772285Y-50058118D02*
X131675523Y-50106499D01*
X131433619Y-50106499D01*
X131336857Y-50058118D01*
X131288476Y-49961356D01*
X131288476Y-49864594D01*
X131336857Y-49767832D01*
X131433619Y-49719451D01*
X131675523Y-49719451D01*
X131772285Y-49671070D01*
X132401238Y-50106499D02*
X132304476Y-50058118D01*
X132256095Y-49961356D01*
X132256095Y-49090499D01*
X133175333Y-50058118D02*
X133078571Y-50106499D01*
X132885047Y-50106499D01*
X132788285Y-50058118D01*
X132739904Y-49961356D01*
X132739904Y-49574308D01*
X132788285Y-49477546D01*
X132885047Y-49429165D01*
X133078571Y-49429165D01*
X133175333Y-49477546D01*
X133223714Y-49574308D01*
X133223714Y-49671070D01*
X132739904Y-49767832D01*
X134094571Y-50106499D02*
X134094571Y-49090499D01*
X134094571Y-50058118D02*
X133997809Y-50106499D01*
X133804285Y-50106499D01*
X133707523Y-50058118D01*
X133659142Y-50009737D01*
X133610761Y-49912975D01*
X133610761Y-49622689D01*
X133659142Y-49525927D01*
X133707523Y-49477546D01*
X133804285Y-49429165D01*
X133997809Y-49429165D01*
X134094571Y-49477546D01*
X135352476Y-49574308D02*
X135691142Y-49574308D01*
X135836285Y-50106499D02*
X135352476Y-50106499D01*
X135352476Y-49090499D01*
X135836285Y-49090499D01*
X136271714Y-49429165D02*
X136271714Y-50106499D01*
X136271714Y-49525927D02*
X136320095Y-49477546D01*
X136416857Y-49429165D01*
X136562000Y-49429165D01*
X136658761Y-49477546D01*
X136707142Y-49574308D01*
X136707142Y-50106499D01*
X137626380Y-49429165D02*
X137626380Y-50251641D01*
X137578000Y-50348403D01*
X137529619Y-50396784D01*
X137432857Y-50445165D01*
X137287714Y-50445165D01*
X137190952Y-50396784D01*
X137626380Y-50058118D02*
X137529619Y-50106499D01*
X137336095Y-50106499D01*
X137239333Y-50058118D01*
X137190952Y-50009737D01*
X137142571Y-49912975D01*
X137142571Y-49622689D01*
X137190952Y-49525927D01*
X137239333Y-49477546D01*
X137336095Y-49429165D01*
X137529619Y-49429165D01*
X137626380Y-49477546D01*
X138110190Y-50106499D02*
X138110190Y-49429165D01*
X138110190Y-49090499D02*
X138061809Y-49138880D01*
X138110190Y-49187260D01*
X138158571Y-49138880D01*
X138110190Y-49090499D01*
X138110190Y-49187260D01*
X138594000Y-49429165D02*
X138594000Y-50106499D01*
X138594000Y-49525927D02*
X138642380Y-49477546D01*
X138739142Y-49429165D01*
X138884285Y-49429165D01*
X138981047Y-49477546D01*
X139029428Y-49574308D01*
X139029428Y-50106499D01*
X139900285Y-50058118D02*
X139803523Y-50106499D01*
X139610000Y-50106499D01*
X139513238Y-50058118D01*
X139464857Y-49961356D01*
X139464857Y-49574308D01*
X139513238Y-49477546D01*
X139610000Y-49429165D01*
X139803523Y-49429165D01*
X139900285Y-49477546D01*
X139948666Y-49574308D01*
X139948666Y-49671070D01*
X139464857Y-49767832D01*
X140771142Y-50058118D02*
X140674380Y-50106499D01*
X140480857Y-50106499D01*
X140384095Y-50058118D01*
X140335714Y-49961356D01*
X140335714Y-49574308D01*
X140384095Y-49477546D01*
X140480857Y-49429165D01*
X140674380Y-49429165D01*
X140771142Y-49477546D01*
X140819523Y-49574308D01*
X140819523Y-49671070D01*
X140335714Y-49767832D01*
X141254952Y-50106499D02*
X141254952Y-49429165D01*
X141254952Y-49622689D02*
X141303333Y-49525927D01*
X141351714Y-49477546D01*
X141448476Y-49429165D01*
X141545238Y-49429165D01*
X141883904Y-50106499D02*
X141883904Y-49429165D01*
X141883904Y-49090499D02*
X141835523Y-49138880D01*
X141883904Y-49187260D01*
X141932285Y-49138880D01*
X141883904Y-49090499D01*
X141883904Y-49187260D01*
X142367714Y-49429165D02*
X142367714Y-50106499D01*
X142367714Y-49525927D02*
X142416095Y-49477546D01*
X142512857Y-49429165D01*
X142658000Y-49429165D01*
X142754761Y-49477546D01*
X142803142Y-49574308D01*
X142803142Y-50106499D01*
X143722380Y-49429165D02*
X143722380Y-50251641D01*
X143674000Y-50348403D01*
X143625619Y-50396784D01*
X143528857Y-50445165D01*
X143383714Y-50445165D01*
X143286952Y-50396784D01*
X143722380Y-50058118D02*
X143625619Y-50106499D01*
X143432095Y-50106499D01*
X143335333Y-50058118D01*
X143286952Y-50009737D01*
X143238571Y-49912975D01*
X143238571Y-49622689D01*
X143286952Y-49525927D01*
X143335333Y-49477546D01*
X143432095Y-49429165D01*
X143625619Y-49429165D01*
X143722380Y-49477546D01*
X128506571Y-50968163D02*
X128409809Y-50919782D01*
X128216285Y-50919782D01*
X128119523Y-50968163D01*
X128022761Y-51064925D01*
X127974380Y-51161687D01*
X127974380Y-51355211D01*
X128022761Y-51451973D01*
X128119523Y-51548735D01*
X128216285Y-51597116D01*
X128409809Y-51597116D01*
X128506571Y-51548735D01*
X128313047Y-50581116D02*
X128071142Y-50629497D01*
X127829238Y-50774640D01*
X127684095Y-51016544D01*
X127635714Y-51258449D01*
X127684095Y-51500354D01*
X127829238Y-51742259D01*
X128071142Y-51887401D01*
X128313047Y-51935782D01*
X128554952Y-51887401D01*
X128796857Y-51742259D01*
X128942000Y-51500354D01*
X128990380Y-51258449D01*
X128942000Y-51016544D01*
X128796857Y-50774640D01*
X128554952Y-50629497D01*
X128313047Y-50581116D01*
X129377428Y-50823020D02*
X129425809Y-50774640D01*
X129522571Y-50726259D01*
X129764476Y-50726259D01*
X129861238Y-50774640D01*
X129909619Y-50823020D01*
X129958000Y-50919782D01*
X129958000Y-51016544D01*
X129909619Y-51161687D01*
X129329047Y-51742259D01*
X129958000Y-51742259D01*
X130586952Y-50726259D02*
X130683714Y-50726259D01*
X130780476Y-50774640D01*
X130828857Y-50823020D01*
X130877238Y-50919782D01*
X130925619Y-51113306D01*
X130925619Y-51355211D01*
X130877238Y-51548735D01*
X130828857Y-51645497D01*
X130780476Y-51693878D01*
X130683714Y-51742259D01*
X130586952Y-51742259D01*
X130490190Y-51693878D01*
X130441809Y-51645497D01*
X130393428Y-51548735D01*
X130345047Y-51355211D01*
X130345047Y-51113306D01*
X130393428Y-50919782D01*
X130441809Y-50823020D01*
X130490190Y-50774640D01*
X130586952Y-50726259D01*
X131312666Y-50823020D02*
X131361047Y-50774640D01*
X131457809Y-50726259D01*
X131699714Y-50726259D01*
X131796476Y-50774640D01*
X131844857Y-50823020D01*
X131893238Y-50919782D01*
X131893238Y-51016544D01*
X131844857Y-51161687D01*
X131264285Y-51742259D01*
X131893238Y-51742259D01*
X132231904Y-50726259D02*
X132860857Y-50726259D01*
X132522190Y-51113306D01*
X132667333Y-51113306D01*
X132764095Y-51161687D01*
X132812476Y-51210068D01*
X132860857Y-51306830D01*
X132860857Y-51548735D01*
X132812476Y-51645497D01*
X132764095Y-51693878D01*
X132667333Y-51742259D01*
X132377047Y-51742259D01*
X132280285Y-51693878D01*
X132231904Y-51645497D01*
X134650952Y-51645497D02*
X134602571Y-51693878D01*
X134457428Y-51742259D01*
X134360666Y-51742259D01*
X134215523Y-51693878D01*
X134118761Y-51597116D01*
X134070380Y-51500354D01*
X134022000Y-51306830D01*
X134022000Y-51161687D01*
X134070380Y-50968163D01*
X134118761Y-50871401D01*
X134215523Y-50774640D01*
X134360666Y-50726259D01*
X134457428Y-50726259D01*
X134602571Y-50774640D01*
X134650952Y-50823020D01*
X135666952Y-51645497D02*
X135618571Y-51693878D01*
X135473428Y-51742259D01*
X135376666Y-51742259D01*
X135231523Y-51693878D01*
X135134761Y-51597116D01*
X135086380Y-51500354D01*
X135038000Y-51306830D01*
X135038000Y-51161687D01*
X135086380Y-50968163D01*
X135134761Y-50871401D01*
X135231523Y-50774640D01*
X135376666Y-50726259D01*
X135473428Y-50726259D01*
X135618571Y-50774640D01*
X135666952Y-50823020D01*
X137215142Y-51210068D02*
X137360285Y-51258449D01*
X137408666Y-51306830D01*
X137457047Y-51403592D01*
X137457047Y-51548735D01*
X137408666Y-51645497D01*
X137360285Y-51693878D01*
X137263523Y-51742259D01*
X136876476Y-51742259D01*
X136876476Y-50726259D01*
X137215142Y-50726259D01*
X137311904Y-50774640D01*
X137360285Y-50823020D01*
X137408666Y-50919782D01*
X137408666Y-51016544D01*
X137360285Y-51113306D01*
X137311904Y-51161687D01*
X137215142Y-51210068D01*
X136876476Y-51210068D01*
X138086000Y-51258449D02*
X138086000Y-51742259D01*
X137747333Y-50726259D02*
X138086000Y-51258449D01*
X138424666Y-50726259D01*
X138763333Y-51355211D02*
X139537428Y-51355211D01*
X139972857Y-51693878D02*
X140118000Y-51742259D01*
X140359904Y-51742259D01*
X140456666Y-51693878D01*
X140505047Y-51645497D01*
X140553428Y-51548735D01*
X140553428Y-51451973D01*
X140505047Y-51355211D01*
X140456666Y-51306830D01*
X140359904Y-51258449D01*
X140166380Y-51210068D01*
X140069619Y-51161687D01*
X140021238Y-51113306D01*
X139972857Y-51016544D01*
X139972857Y-50919782D01*
X140021238Y-50823020D01*
X140069619Y-50774640D01*
X140166380Y-50726259D01*
X140408285Y-50726259D01*
X140553428Y-50774640D01*
X140940476Y-51451973D02*
X141424285Y-51451973D01*
X140843714Y-51742259D02*
X141182380Y-50726259D01*
X141521047Y-51742259D01*
X155261238Y-46738217D02*
X155212857Y-46786598D01*
X155067714Y-46834979D01*
X154970952Y-46834979D01*
X154825809Y-46786598D01*
X154729047Y-46689836D01*
X154680666Y-46593074D01*
X154632285Y-46399550D01*
X154632285Y-46254407D01*
X154680666Y-46060883D01*
X154729047Y-45964121D01*
X154825809Y-45867360D01*
X154970952Y-45818979D01*
X155067714Y-45818979D01*
X155212857Y-45867360D01*
X155261238Y-45915740D01*
X155696666Y-46834979D02*
X155696666Y-45818979D01*
X156277238Y-46834979D02*
X155841809Y-46254407D01*
X156277238Y-45818979D02*
X155696666Y-46399550D01*
X156567523Y-45818979D02*
X157148095Y-45818979D01*
X156857809Y-46834979D02*
X156857809Y-45818979D01*
X157486761Y-46447931D02*
X158260857Y-46447931D01*
X158744666Y-46834979D02*
X158744666Y-45818979D01*
X158986571Y-45818979D01*
X159131714Y-45867360D01*
X159228476Y-45964121D01*
X159276857Y-46060883D01*
X159325238Y-46254407D01*
X159325238Y-46399550D01*
X159276857Y-46593074D01*
X159228476Y-46689836D01*
X159131714Y-46786598D01*
X158986571Y-46834979D01*
X158744666Y-46834979D01*
X159760666Y-46834979D02*
X159760666Y-45818979D01*
X160244476Y-46834979D02*
X160244476Y-45818979D01*
X160825047Y-46834979D01*
X160825047Y-45818979D01*
X161841047Y-45867360D02*
X161744285Y-45818979D01*
X161599142Y-45818979D01*
X161454000Y-45867360D01*
X161357238Y-45964121D01*
X161308857Y-46060883D01*
X161260476Y-46254407D01*
X161260476Y-46399550D01*
X161308857Y-46593074D01*
X161357238Y-46689836D01*
X161454000Y-46786598D01*
X161599142Y-46834979D01*
X161695904Y-46834979D01*
X161841047Y-46786598D01*
X161889428Y-46738217D01*
X161889428Y-46399550D01*
X161695904Y-46399550D01*
X162324857Y-46834979D02*
X162324857Y-45818979D01*
X162566761Y-45818979D01*
X162711904Y-45867360D01*
X162808666Y-45964121D01*
X162857047Y-46060883D01*
X162905428Y-46254407D01*
X162905428Y-46399550D01*
X162857047Y-46593074D01*
X162808666Y-46689836D01*
X162711904Y-46786598D01*
X162566761Y-46834979D01*
X162324857Y-46834979D01*
X163534380Y-45818979D02*
X163727904Y-45818979D01*
X163824666Y-45867360D01*
X163921428Y-45964121D01*
X163969809Y-46157645D01*
X163969809Y-46496312D01*
X163921428Y-46689836D01*
X163824666Y-46786598D01*
X163727904Y-46834979D01*
X163534380Y-46834979D01*
X163437619Y-46786598D01*
X163340857Y-46689836D01*
X163292476Y-46496312D01*
X163292476Y-46157645D01*
X163340857Y-45964121D01*
X163437619Y-45867360D01*
X163534380Y-45818979D01*
X164405238Y-46834979D02*
X164405238Y-45818979D01*
X164985809Y-46834979D01*
X164985809Y-45818979D01*
X166001809Y-45867360D02*
X165905047Y-45818979D01*
X165759904Y-45818979D01*
X165614761Y-45867360D01*
X165518000Y-45964121D01*
X165469619Y-46060883D01*
X165421238Y-46254407D01*
X165421238Y-46399550D01*
X165469619Y-46593074D01*
X165518000Y-46689836D01*
X165614761Y-46786598D01*
X165759904Y-46834979D01*
X165856666Y-46834979D01*
X166001809Y-46786598D01*
X166050190Y-46738217D01*
X166050190Y-46399550D01*
X165856666Y-46399550D01*
X166485619Y-46447931D02*
X167259714Y-46447931D01*
X167695142Y-46786598D02*
X167840285Y-46834979D01*
X168082190Y-46834979D01*
X168178952Y-46786598D01*
X168227333Y-46738217D01*
X168275714Y-46641455D01*
X168275714Y-46544693D01*
X168227333Y-46447931D01*
X168178952Y-46399550D01*
X168082190Y-46351169D01*
X167888666Y-46302788D01*
X167791904Y-46254407D01*
X167743523Y-46206026D01*
X167695142Y-46109264D01*
X167695142Y-46012502D01*
X167743523Y-45915740D01*
X167791904Y-45867360D01*
X167888666Y-45818979D01*
X168130571Y-45818979D01*
X168275714Y-45867360D01*
X168711142Y-46834979D02*
X168711142Y-45818979D01*
X169098190Y-45818979D01*
X169194952Y-45867360D01*
X169243333Y-45915740D01*
X169291714Y-46012502D01*
X169291714Y-46157645D01*
X169243333Y-46254407D01*
X169194952Y-46302788D01*
X169098190Y-46351169D01*
X168711142Y-46351169D01*
X169727142Y-46834979D02*
X169727142Y-45818979D01*
X170307714Y-46834979D02*
X169872285Y-46254407D01*
X170307714Y-45818979D02*
X169727142Y-46399550D01*
X161018571Y-47793405D02*
X161260476Y-48470739D01*
X161502380Y-47793405D01*
X161841047Y-47551500D02*
X161889428Y-47503120D01*
X161986190Y-47454739D01*
X162228095Y-47454739D01*
X162324857Y-47503120D01*
X162373238Y-47551500D01*
X162421619Y-47648262D01*
X162421619Y-47745024D01*
X162373238Y-47890167D01*
X161792666Y-48470739D01*
X162421619Y-48470739D01*
X162857047Y-48373977D02*
X162905428Y-48422358D01*
X162857047Y-48470739D01*
X162808666Y-48422358D01*
X162857047Y-48373977D01*
X162857047Y-48470739D01*
X163534380Y-47454739D02*
X163631142Y-47454739D01*
X163727904Y-47503120D01*
X163776285Y-47551500D01*
X163824666Y-47648262D01*
X163873047Y-47841786D01*
X163873047Y-48083691D01*
X163824666Y-48277215D01*
X163776285Y-48373977D01*
X163727904Y-48422358D01*
X163631142Y-48470739D01*
X163534380Y-48470739D01*
X163437619Y-48422358D01*
X163389238Y-48373977D01*
X163340857Y-48277215D01*
X163292476Y-48083691D01*
X163292476Y-47841786D01*
X163340857Y-47648262D01*
X163389238Y-47551500D01*
X163437619Y-47503120D01*
X163534380Y-47454739D01*
X153277619Y-50106499D02*
X153277619Y-49090499D01*
X153906571Y-50106499D02*
X153809809Y-50058118D01*
X153761428Y-50009737D01*
X153713047Y-49912975D01*
X153713047Y-49622689D01*
X153761428Y-49525927D01*
X153809809Y-49477546D01*
X153906571Y-49429165D01*
X154051714Y-49429165D01*
X154148476Y-49477546D01*
X154196857Y-49525927D01*
X154245238Y-49622689D01*
X154245238Y-49912975D01*
X154196857Y-50009737D01*
X154148476Y-50058118D01*
X154051714Y-50106499D01*
X153906571Y-50106499D01*
X154583904Y-49429165D02*
X154777428Y-50106499D01*
X154970952Y-49622689D01*
X155164476Y-50106499D01*
X155358000Y-49429165D01*
X156180476Y-50106499D02*
X156180476Y-49574308D01*
X156132095Y-49477546D01*
X156035333Y-49429165D01*
X155841809Y-49429165D01*
X155745047Y-49477546D01*
X156180476Y-50058118D02*
X156083714Y-50106499D01*
X155841809Y-50106499D01*
X155745047Y-50058118D01*
X155696666Y-49961356D01*
X155696666Y-49864594D01*
X155745047Y-49767832D01*
X155841809Y-49719451D01*
X156083714Y-49719451D01*
X156180476Y-49671070D01*
X157390000Y-50058118D02*
X157535142Y-50106499D01*
X157777047Y-50106499D01*
X157873809Y-50058118D01*
X157922190Y-50009737D01*
X157970571Y-49912975D01*
X157970571Y-49816213D01*
X157922190Y-49719451D01*
X157873809Y-49671070D01*
X157777047Y-49622689D01*
X157583523Y-49574308D01*
X157486761Y-49525927D01*
X157438380Y-49477546D01*
X157390000Y-49380784D01*
X157390000Y-49284022D01*
X157438380Y-49187260D01*
X157486761Y-49138880D01*
X157583523Y-49090499D01*
X157825428Y-49090499D01*
X157970571Y-49138880D01*
X158841428Y-50058118D02*
X158744666Y-50106499D01*
X158551142Y-50106499D01*
X158454380Y-50058118D01*
X158406000Y-50009737D01*
X158357619Y-49912975D01*
X158357619Y-49622689D01*
X158406000Y-49525927D01*
X158454380Y-49477546D01*
X158551142Y-49429165D01*
X158744666Y-49429165D01*
X158841428Y-49477546D01*
X159712285Y-50106499D02*
X159712285Y-49574308D01*
X159663904Y-49477546D01*
X159567142Y-49429165D01*
X159373619Y-49429165D01*
X159276857Y-49477546D01*
X159712285Y-50058118D02*
X159615523Y-50106499D01*
X159373619Y-50106499D01*
X159276857Y-50058118D01*
X159228476Y-49961356D01*
X159228476Y-49864594D01*
X159276857Y-49767832D01*
X159373619Y-49719451D01*
X159615523Y-49719451D01*
X159712285Y-49671070D01*
X160341238Y-50106499D02*
X160244476Y-50058118D01*
X160196095Y-49961356D01*
X160196095Y-49090499D01*
X161115333Y-50058118D02*
X161018571Y-50106499D01*
X160825047Y-50106499D01*
X160728285Y-50058118D01*
X160679904Y-49961356D01*
X160679904Y-49574308D01*
X160728285Y-49477546D01*
X160825047Y-49429165D01*
X161018571Y-49429165D01*
X161115333Y-49477546D01*
X161163714Y-49574308D01*
X161163714Y-49671070D01*
X160679904Y-49767832D01*
X162034571Y-50106499D02*
X162034571Y-49090499D01*
X162034571Y-50058118D02*
X161937809Y-50106499D01*
X161744285Y-50106499D01*
X161647523Y-50058118D01*
X161599142Y-50009737D01*
X161550761Y-49912975D01*
X161550761Y-49622689D01*
X161599142Y-49525927D01*
X161647523Y-49477546D01*
X161744285Y-49429165D01*
X161937809Y-49429165D01*
X162034571Y-49477546D01*
X163292476Y-49574308D02*
X163631142Y-49574308D01*
X163776285Y-50106499D02*
X163292476Y-50106499D01*
X163292476Y-49090499D01*
X163776285Y-49090499D01*
X164211714Y-49429165D02*
X164211714Y-50106499D01*
X164211714Y-49525927D02*
X164260095Y-49477546D01*
X164356857Y-49429165D01*
X164502000Y-49429165D01*
X164598761Y-49477546D01*
X164647142Y-49574308D01*
X164647142Y-50106499D01*
X165566380Y-49429165D02*
X165566380Y-50251641D01*
X165518000Y-50348403D01*
X165469619Y-50396784D01*
X165372857Y-50445165D01*
X165227714Y-50445165D01*
X165130952Y-50396784D01*
X165566380Y-50058118D02*
X165469619Y-50106499D01*
X165276095Y-50106499D01*
X165179333Y-50058118D01*
X165130952Y-50009737D01*
X165082571Y-49912975D01*
X165082571Y-49622689D01*
X165130952Y-49525927D01*
X165179333Y-49477546D01*
X165276095Y-49429165D01*
X165469619Y-49429165D01*
X165566380Y-49477546D01*
X166050190Y-50106499D02*
X166050190Y-49429165D01*
X166050190Y-49090499D02*
X166001809Y-49138880D01*
X166050190Y-49187260D01*
X166098571Y-49138880D01*
X166050190Y-49090499D01*
X166050190Y-49187260D01*
X166534000Y-49429165D02*
X166534000Y-50106499D01*
X166534000Y-49525927D02*
X166582380Y-49477546D01*
X166679142Y-49429165D01*
X166824285Y-49429165D01*
X166921047Y-49477546D01*
X166969428Y-49574308D01*
X166969428Y-50106499D01*
X167840285Y-50058118D02*
X167743523Y-50106499D01*
X167550000Y-50106499D01*
X167453238Y-50058118D01*
X167404857Y-49961356D01*
X167404857Y-49574308D01*
X167453238Y-49477546D01*
X167550000Y-49429165D01*
X167743523Y-49429165D01*
X167840285Y-49477546D01*
X167888666Y-49574308D01*
X167888666Y-49671070D01*
X167404857Y-49767832D01*
X168711142Y-50058118D02*
X168614380Y-50106499D01*
X168420857Y-50106499D01*
X168324095Y-50058118D01*
X168275714Y-49961356D01*
X168275714Y-49574308D01*
X168324095Y-49477546D01*
X168420857Y-49429165D01*
X168614380Y-49429165D01*
X168711142Y-49477546D01*
X168759523Y-49574308D01*
X168759523Y-49671070D01*
X168275714Y-49767832D01*
X169194952Y-50106499D02*
X169194952Y-49429165D01*
X169194952Y-49622689D02*
X169243333Y-49525927D01*
X169291714Y-49477546D01*
X169388476Y-49429165D01*
X169485238Y-49429165D01*
X169823904Y-50106499D02*
X169823904Y-49429165D01*
X169823904Y-49090499D02*
X169775523Y-49138880D01*
X169823904Y-49187260D01*
X169872285Y-49138880D01*
X169823904Y-49090499D01*
X169823904Y-49187260D01*
X170307714Y-49429165D02*
X170307714Y-50106499D01*
X170307714Y-49525927D02*
X170356095Y-49477546D01*
X170452857Y-49429165D01*
X170598000Y-49429165D01*
X170694761Y-49477546D01*
X170743142Y-49574308D01*
X170743142Y-50106499D01*
X171662380Y-49429165D02*
X171662380Y-50251641D01*
X171614000Y-50348403D01*
X171565619Y-50396784D01*
X171468857Y-50445165D01*
X171323714Y-50445165D01*
X171226952Y-50396784D01*
X171662380Y-50058118D02*
X171565619Y-50106499D01*
X171372095Y-50106499D01*
X171275333Y-50058118D01*
X171226952Y-50009737D01*
X171178571Y-49912975D01*
X171178571Y-49622689D01*
X171226952Y-49525927D01*
X171275333Y-49477546D01*
X171372095Y-49429165D01*
X171565619Y-49429165D01*
X171662380Y-49477546D01*
X156446571Y-50968163D02*
X156349809Y-50919782D01*
X156156285Y-50919782D01*
X156059523Y-50968163D01*
X155962761Y-51064925D01*
X155914380Y-51161687D01*
X155914380Y-51355211D01*
X155962761Y-51451973D01*
X156059523Y-51548735D01*
X156156285Y-51597116D01*
X156349809Y-51597116D01*
X156446571Y-51548735D01*
X156253047Y-50581116D02*
X156011142Y-50629497D01*
X155769238Y-50774640D01*
X155624095Y-51016544D01*
X155575714Y-51258449D01*
X155624095Y-51500354D01*
X155769238Y-51742259D01*
X156011142Y-51887401D01*
X156253047Y-51935782D01*
X156494952Y-51887401D01*
X156736857Y-51742259D01*
X156882000Y-51500354D01*
X156930380Y-51258449D01*
X156882000Y-51016544D01*
X156736857Y-50774640D01*
X156494952Y-50629497D01*
X156253047Y-50581116D01*
X157317428Y-50823020D02*
X157365809Y-50774640D01*
X157462571Y-50726259D01*
X157704476Y-50726259D01*
X157801238Y-50774640D01*
X157849619Y-50823020D01*
X157898000Y-50919782D01*
X157898000Y-51016544D01*
X157849619Y-51161687D01*
X157269047Y-51742259D01*
X157898000Y-51742259D01*
X158526952Y-50726259D02*
X158623714Y-50726259D01*
X158720476Y-50774640D01*
X158768857Y-50823020D01*
X158817238Y-50919782D01*
X158865619Y-51113306D01*
X158865619Y-51355211D01*
X158817238Y-51548735D01*
X158768857Y-51645497D01*
X158720476Y-51693878D01*
X158623714Y-51742259D01*
X158526952Y-51742259D01*
X158430190Y-51693878D01*
X158381809Y-51645497D01*
X158333428Y-51548735D01*
X158285047Y-51355211D01*
X158285047Y-51113306D01*
X158333428Y-50919782D01*
X158381809Y-50823020D01*
X158430190Y-50774640D01*
X158526952Y-50726259D01*
X159252666Y-50823020D02*
X159301047Y-50774640D01*
X159397809Y-50726259D01*
X159639714Y-50726259D01*
X159736476Y-50774640D01*
X159784857Y-50823020D01*
X159833238Y-50919782D01*
X159833238Y-51016544D01*
X159784857Y-51161687D01*
X159204285Y-51742259D01*
X159833238Y-51742259D01*
X160171904Y-50726259D02*
X160800857Y-50726259D01*
X160462190Y-51113306D01*
X160607333Y-51113306D01*
X160704095Y-51161687D01*
X160752476Y-51210068D01*
X160800857Y-51306830D01*
X160800857Y-51548735D01*
X160752476Y-51645497D01*
X160704095Y-51693878D01*
X160607333Y-51742259D01*
X160317047Y-51742259D01*
X160220285Y-51693878D01*
X160171904Y-51645497D01*
X162590952Y-51645497D02*
X162542571Y-51693878D01*
X162397428Y-51742259D01*
X162300666Y-51742259D01*
X162155523Y-51693878D01*
X162058761Y-51597116D01*
X162010380Y-51500354D01*
X161962000Y-51306830D01*
X161962000Y-51161687D01*
X162010380Y-50968163D01*
X162058761Y-50871401D01*
X162155523Y-50774640D01*
X162300666Y-50726259D01*
X162397428Y-50726259D01*
X162542571Y-50774640D01*
X162590952Y-50823020D01*
X163606952Y-51645497D02*
X163558571Y-51693878D01*
X163413428Y-51742259D01*
X163316666Y-51742259D01*
X163171523Y-51693878D01*
X163074761Y-51597116D01*
X163026380Y-51500354D01*
X162978000Y-51306830D01*
X162978000Y-51161687D01*
X163026380Y-50968163D01*
X163074761Y-50871401D01*
X163171523Y-50774640D01*
X163316666Y-50726259D01*
X163413428Y-50726259D01*
X163558571Y-50774640D01*
X163606952Y-50823020D01*
X165155142Y-51210068D02*
X165300285Y-51258449D01*
X165348666Y-51306830D01*
X165397047Y-51403592D01*
X165397047Y-51548735D01*
X165348666Y-51645497D01*
X165300285Y-51693878D01*
X165203523Y-51742259D01*
X164816476Y-51742259D01*
X164816476Y-50726259D01*
X165155142Y-50726259D01*
X165251904Y-50774640D01*
X165300285Y-50823020D01*
X165348666Y-50919782D01*
X165348666Y-51016544D01*
X165300285Y-51113306D01*
X165251904Y-51161687D01*
X165155142Y-51210068D01*
X164816476Y-51210068D01*
X166026000Y-51258449D02*
X166026000Y-51742259D01*
X165687333Y-50726259D02*
X166026000Y-51258449D01*
X166364666Y-50726259D01*
X166703333Y-51355211D02*
X167477428Y-51355211D01*
X167912857Y-51693878D02*
X168058000Y-51742259D01*
X168299904Y-51742259D01*
X168396666Y-51693878D01*
X168445047Y-51645497D01*
X168493428Y-51548735D01*
X168493428Y-51451973D01*
X168445047Y-51355211D01*
X168396666Y-51306830D01*
X168299904Y-51258449D01*
X168106380Y-51210068D01*
X168009619Y-51161687D01*
X167961238Y-51113306D01*
X167912857Y-51016544D01*
X167912857Y-50919782D01*
X167961238Y-50823020D01*
X168009619Y-50774640D01*
X168106380Y-50726259D01*
X168348285Y-50726259D01*
X168493428Y-50774640D01*
X168880476Y-51451973D02*
X169364285Y-51451973D01*
X168783714Y-51742259D02*
X169122380Y-50726259D01*
X169461047Y-51742259D01*
X183201238Y-46738217D02*
X183152857Y-46786598D01*
X183007714Y-46834979D01*
X182910952Y-46834979D01*
X182765809Y-46786598D01*
X182669047Y-46689836D01*
X182620666Y-46593074D01*
X182572285Y-46399550D01*
X182572285Y-46254407D01*
X182620666Y-46060883D01*
X182669047Y-45964121D01*
X182765809Y-45867360D01*
X182910952Y-45818979D01*
X183007714Y-45818979D01*
X183152857Y-45867360D01*
X183201238Y-45915740D01*
X183636666Y-46834979D02*
X183636666Y-45818979D01*
X184217238Y-46834979D02*
X183781809Y-46254407D01*
X184217238Y-45818979D02*
X183636666Y-46399550D01*
X184507523Y-45818979D02*
X185088095Y-45818979D01*
X184797809Y-46834979D02*
X184797809Y-45818979D01*
X185426761Y-46447931D02*
X186200857Y-46447931D01*
X186684666Y-46834979D02*
X186684666Y-45818979D01*
X186926571Y-45818979D01*
X187071714Y-45867360D01*
X187168476Y-45964121D01*
X187216857Y-46060883D01*
X187265238Y-46254407D01*
X187265238Y-46399550D01*
X187216857Y-46593074D01*
X187168476Y-46689836D01*
X187071714Y-46786598D01*
X186926571Y-46834979D01*
X186684666Y-46834979D01*
X187700666Y-46834979D02*
X187700666Y-45818979D01*
X188184476Y-46834979D02*
X188184476Y-45818979D01*
X188765047Y-46834979D01*
X188765047Y-45818979D01*
X189781047Y-45867360D02*
X189684285Y-45818979D01*
X189539142Y-45818979D01*
X189394000Y-45867360D01*
X189297238Y-45964121D01*
X189248857Y-46060883D01*
X189200476Y-46254407D01*
X189200476Y-46399550D01*
X189248857Y-46593074D01*
X189297238Y-46689836D01*
X189394000Y-46786598D01*
X189539142Y-46834979D01*
X189635904Y-46834979D01*
X189781047Y-46786598D01*
X189829428Y-46738217D01*
X189829428Y-46399550D01*
X189635904Y-46399550D01*
X190264857Y-46834979D02*
X190264857Y-45818979D01*
X190506761Y-45818979D01*
X190651904Y-45867360D01*
X190748666Y-45964121D01*
X190797047Y-46060883D01*
X190845428Y-46254407D01*
X190845428Y-46399550D01*
X190797047Y-46593074D01*
X190748666Y-46689836D01*
X190651904Y-46786598D01*
X190506761Y-46834979D01*
X190264857Y-46834979D01*
X191474380Y-45818979D02*
X191667904Y-45818979D01*
X191764666Y-45867360D01*
X191861428Y-45964121D01*
X191909809Y-46157645D01*
X191909809Y-46496312D01*
X191861428Y-46689836D01*
X191764666Y-46786598D01*
X191667904Y-46834979D01*
X191474380Y-46834979D01*
X191377619Y-46786598D01*
X191280857Y-46689836D01*
X191232476Y-46496312D01*
X191232476Y-46157645D01*
X191280857Y-45964121D01*
X191377619Y-45867360D01*
X191474380Y-45818979D01*
X192345238Y-46834979D02*
X192345238Y-45818979D01*
X192925809Y-46834979D01*
X192925809Y-45818979D01*
X193941809Y-45867360D02*
X193845047Y-45818979D01*
X193699904Y-45818979D01*
X193554761Y-45867360D01*
X193458000Y-45964121D01*
X193409619Y-46060883D01*
X193361238Y-46254407D01*
X193361238Y-46399550D01*
X193409619Y-46593074D01*
X193458000Y-46689836D01*
X193554761Y-46786598D01*
X193699904Y-46834979D01*
X193796666Y-46834979D01*
X193941809Y-46786598D01*
X193990190Y-46738217D01*
X193990190Y-46399550D01*
X193796666Y-46399550D01*
X194425619Y-46447931D02*
X195199714Y-46447931D01*
X195635142Y-46786598D02*
X195780285Y-46834979D01*
X196022190Y-46834979D01*
X196118952Y-46786598D01*
X196167333Y-46738217D01*
X196215714Y-46641455D01*
X196215714Y-46544693D01*
X196167333Y-46447931D01*
X196118952Y-46399550D01*
X196022190Y-46351169D01*
X195828666Y-46302788D01*
X195731904Y-46254407D01*
X195683523Y-46206026D01*
X195635142Y-46109264D01*
X195635142Y-46012502D01*
X195683523Y-45915740D01*
X195731904Y-45867360D01*
X195828666Y-45818979D01*
X196070571Y-45818979D01*
X196215714Y-45867360D01*
X196651142Y-46834979D02*
X196651142Y-45818979D01*
X197038190Y-45818979D01*
X197134952Y-45867360D01*
X197183333Y-45915740D01*
X197231714Y-46012502D01*
X197231714Y-46157645D01*
X197183333Y-46254407D01*
X197134952Y-46302788D01*
X197038190Y-46351169D01*
X196651142Y-46351169D01*
X197667142Y-46834979D02*
X197667142Y-45818979D01*
X198247714Y-46834979D02*
X197812285Y-46254407D01*
X198247714Y-45818979D02*
X197667142Y-46399550D01*
X188958571Y-47793405D02*
X189200476Y-48470739D01*
X189442380Y-47793405D01*
X189781047Y-47551500D02*
X189829428Y-47503120D01*
X189926190Y-47454739D01*
X190168095Y-47454739D01*
X190264857Y-47503120D01*
X190313238Y-47551500D01*
X190361619Y-47648262D01*
X190361619Y-47745024D01*
X190313238Y-47890167D01*
X189732666Y-48470739D01*
X190361619Y-48470739D01*
X190797047Y-48373977D02*
X190845428Y-48422358D01*
X190797047Y-48470739D01*
X190748666Y-48422358D01*
X190797047Y-48373977D01*
X190797047Y-48470739D01*
X191474380Y-47454739D02*
X191571142Y-47454739D01*
X191667904Y-47503120D01*
X191716285Y-47551500D01*
X191764666Y-47648262D01*
X191813047Y-47841786D01*
X191813047Y-48083691D01*
X191764666Y-48277215D01*
X191716285Y-48373977D01*
X191667904Y-48422358D01*
X191571142Y-48470739D01*
X191474380Y-48470739D01*
X191377619Y-48422358D01*
X191329238Y-48373977D01*
X191280857Y-48277215D01*
X191232476Y-48083691D01*
X191232476Y-47841786D01*
X191280857Y-47648262D01*
X191329238Y-47551500D01*
X191377619Y-47503120D01*
X191474380Y-47454739D01*
X181217619Y-50106499D02*
X181217619Y-49090499D01*
X181846571Y-50106499D02*
X181749809Y-50058118D01*
X181701428Y-50009737D01*
X181653047Y-49912975D01*
X181653047Y-49622689D01*
X181701428Y-49525927D01*
X181749809Y-49477546D01*
X181846571Y-49429165D01*
X181991714Y-49429165D01*
X182088476Y-49477546D01*
X182136857Y-49525927D01*
X182185238Y-49622689D01*
X182185238Y-49912975D01*
X182136857Y-50009737D01*
X182088476Y-50058118D01*
X181991714Y-50106499D01*
X181846571Y-50106499D01*
X182523904Y-49429165D02*
X182717428Y-50106499D01*
X182910952Y-49622689D01*
X183104476Y-50106499D01*
X183298000Y-49429165D01*
X184120476Y-50106499D02*
X184120476Y-49574308D01*
X184072095Y-49477546D01*
X183975333Y-49429165D01*
X183781809Y-49429165D01*
X183685047Y-49477546D01*
X184120476Y-50058118D02*
X184023714Y-50106499D01*
X183781809Y-50106499D01*
X183685047Y-50058118D01*
X183636666Y-49961356D01*
X183636666Y-49864594D01*
X183685047Y-49767832D01*
X183781809Y-49719451D01*
X184023714Y-49719451D01*
X184120476Y-49671070D01*
X185330000Y-50058118D02*
X185475142Y-50106499D01*
X185717047Y-50106499D01*
X185813809Y-50058118D01*
X185862190Y-50009737D01*
X185910571Y-49912975D01*
X185910571Y-49816213D01*
X185862190Y-49719451D01*
X185813809Y-49671070D01*
X185717047Y-49622689D01*
X185523523Y-49574308D01*
X185426761Y-49525927D01*
X185378380Y-49477546D01*
X185330000Y-49380784D01*
X185330000Y-49284022D01*
X185378380Y-49187260D01*
X185426761Y-49138880D01*
X185523523Y-49090499D01*
X185765428Y-49090499D01*
X185910571Y-49138880D01*
X186781428Y-50058118D02*
X186684666Y-50106499D01*
X186491142Y-50106499D01*
X186394380Y-50058118D01*
X186346000Y-50009737D01*
X186297619Y-49912975D01*
X186297619Y-49622689D01*
X186346000Y-49525927D01*
X186394380Y-49477546D01*
X186491142Y-49429165D01*
X186684666Y-49429165D01*
X186781428Y-49477546D01*
X187652285Y-50106499D02*
X187652285Y-49574308D01*
X187603904Y-49477546D01*
X187507142Y-49429165D01*
X187313619Y-49429165D01*
X187216857Y-49477546D01*
X187652285Y-50058118D02*
X187555523Y-50106499D01*
X187313619Y-50106499D01*
X187216857Y-50058118D01*
X187168476Y-49961356D01*
X187168476Y-49864594D01*
X187216857Y-49767832D01*
X187313619Y-49719451D01*
X187555523Y-49719451D01*
X187652285Y-49671070D01*
X188281238Y-50106499D02*
X188184476Y-50058118D01*
X188136095Y-49961356D01*
X188136095Y-49090499D01*
X189055333Y-50058118D02*
X188958571Y-50106499D01*
X188765047Y-50106499D01*
X188668285Y-50058118D01*
X188619904Y-49961356D01*
X188619904Y-49574308D01*
X188668285Y-49477546D01*
X188765047Y-49429165D01*
X188958571Y-49429165D01*
X189055333Y-49477546D01*
X189103714Y-49574308D01*
X189103714Y-49671070D01*
X188619904Y-49767832D01*
X189974571Y-50106499D02*
X189974571Y-49090499D01*
X189974571Y-50058118D02*
X189877809Y-50106499D01*
X189684285Y-50106499D01*
X189587523Y-50058118D01*
X189539142Y-50009737D01*
X189490761Y-49912975D01*
X189490761Y-49622689D01*
X189539142Y-49525927D01*
X189587523Y-49477546D01*
X189684285Y-49429165D01*
X189877809Y-49429165D01*
X189974571Y-49477546D01*
X191232476Y-49574308D02*
X191571142Y-49574308D01*
X191716285Y-50106499D02*
X191232476Y-50106499D01*
X191232476Y-49090499D01*
X191716285Y-49090499D01*
X192151714Y-49429165D02*
X192151714Y-50106499D01*
X192151714Y-49525927D02*
X192200095Y-49477546D01*
X192296857Y-49429165D01*
X192442000Y-49429165D01*
X192538761Y-49477546D01*
X192587142Y-49574308D01*
X192587142Y-50106499D01*
X193506380Y-49429165D02*
X193506380Y-50251641D01*
X193458000Y-50348403D01*
X193409619Y-50396784D01*
X193312857Y-50445165D01*
X193167714Y-50445165D01*
X193070952Y-50396784D01*
X193506380Y-50058118D02*
X193409619Y-50106499D01*
X193216095Y-50106499D01*
X193119333Y-50058118D01*
X193070952Y-50009737D01*
X193022571Y-49912975D01*
X193022571Y-49622689D01*
X193070952Y-49525927D01*
X193119333Y-49477546D01*
X193216095Y-49429165D01*
X193409619Y-49429165D01*
X193506380Y-49477546D01*
X193990190Y-50106499D02*
X193990190Y-49429165D01*
X193990190Y-49090499D02*
X193941809Y-49138880D01*
X193990190Y-49187260D01*
X194038571Y-49138880D01*
X193990190Y-49090499D01*
X193990190Y-49187260D01*
X194474000Y-49429165D02*
X194474000Y-50106499D01*
X194474000Y-49525927D02*
X194522380Y-49477546D01*
X194619142Y-49429165D01*
X194764285Y-49429165D01*
X194861047Y-49477546D01*
X194909428Y-49574308D01*
X194909428Y-50106499D01*
X195780285Y-50058118D02*
X195683523Y-50106499D01*
X195490000Y-50106499D01*
X195393238Y-50058118D01*
X195344857Y-49961356D01*
X195344857Y-49574308D01*
X195393238Y-49477546D01*
X195490000Y-49429165D01*
X195683523Y-49429165D01*
X195780285Y-49477546D01*
X195828666Y-49574308D01*
X195828666Y-49671070D01*
X195344857Y-49767832D01*
X196651142Y-50058118D02*
X196554380Y-50106499D01*
X196360857Y-50106499D01*
X196264095Y-50058118D01*
X196215714Y-49961356D01*
X196215714Y-49574308D01*
X196264095Y-49477546D01*
X196360857Y-49429165D01*
X196554380Y-49429165D01*
X196651142Y-49477546D01*
X196699523Y-49574308D01*
X196699523Y-49671070D01*
X196215714Y-49767832D01*
X197134952Y-50106499D02*
X197134952Y-49429165D01*
X197134952Y-49622689D02*
X197183333Y-49525927D01*
X197231714Y-49477546D01*
X197328476Y-49429165D01*
X197425238Y-49429165D01*
X197763904Y-50106499D02*
X197763904Y-49429165D01*
X197763904Y-49090499D02*
X197715523Y-49138880D01*
X197763904Y-49187260D01*
X197812285Y-49138880D01*
X197763904Y-49090499D01*
X197763904Y-49187260D01*
X198247714Y-49429165D02*
X198247714Y-50106499D01*
X198247714Y-49525927D02*
X198296095Y-49477546D01*
X198392857Y-49429165D01*
X198538000Y-49429165D01*
X198634761Y-49477546D01*
X198683142Y-49574308D01*
X198683142Y-50106499D01*
X199602380Y-49429165D02*
X199602380Y-50251641D01*
X199554000Y-50348403D01*
X199505619Y-50396784D01*
X199408857Y-50445165D01*
X199263714Y-50445165D01*
X199166952Y-50396784D01*
X199602380Y-50058118D02*
X199505619Y-50106499D01*
X199312095Y-50106499D01*
X199215333Y-50058118D01*
X199166952Y-50009737D01*
X199118571Y-49912975D01*
X199118571Y-49622689D01*
X199166952Y-49525927D01*
X199215333Y-49477546D01*
X199312095Y-49429165D01*
X199505619Y-49429165D01*
X199602380Y-49477546D01*
X184386571Y-50968163D02*
X184289809Y-50919782D01*
X184096285Y-50919782D01*
X183999523Y-50968163D01*
X183902761Y-51064925D01*
X183854380Y-51161687D01*
X183854380Y-51355211D01*
X183902761Y-51451973D01*
X183999523Y-51548735D01*
X184096285Y-51597116D01*
X184289809Y-51597116D01*
X184386571Y-51548735D01*
X184193047Y-50581116D02*
X183951142Y-50629497D01*
X183709238Y-50774640D01*
X183564095Y-51016544D01*
X183515714Y-51258449D01*
X183564095Y-51500354D01*
X183709238Y-51742259D01*
X183951142Y-51887401D01*
X184193047Y-51935782D01*
X184434952Y-51887401D01*
X184676857Y-51742259D01*
X184822000Y-51500354D01*
X184870380Y-51258449D01*
X184822000Y-51016544D01*
X184676857Y-50774640D01*
X184434952Y-50629497D01*
X184193047Y-50581116D01*
X185257428Y-50823020D02*
X185305809Y-50774640D01*
X185402571Y-50726259D01*
X185644476Y-50726259D01*
X185741238Y-50774640D01*
X185789619Y-50823020D01*
X185838000Y-50919782D01*
X185838000Y-51016544D01*
X185789619Y-51161687D01*
X185209047Y-51742259D01*
X185838000Y-51742259D01*
X186466952Y-50726259D02*
X186563714Y-50726259D01*
X186660476Y-50774640D01*
X186708857Y-50823020D01*
X186757238Y-50919782D01*
X186805619Y-51113306D01*
X186805619Y-51355211D01*
X186757238Y-51548735D01*
X186708857Y-51645497D01*
X186660476Y-51693878D01*
X186563714Y-51742259D01*
X186466952Y-51742259D01*
X186370190Y-51693878D01*
X186321809Y-51645497D01*
X186273428Y-51548735D01*
X186225047Y-51355211D01*
X186225047Y-51113306D01*
X186273428Y-50919782D01*
X186321809Y-50823020D01*
X186370190Y-50774640D01*
X186466952Y-50726259D01*
X187192666Y-50823020D02*
X187241047Y-50774640D01*
X187337809Y-50726259D01*
X187579714Y-50726259D01*
X187676476Y-50774640D01*
X187724857Y-50823020D01*
X187773238Y-50919782D01*
X187773238Y-51016544D01*
X187724857Y-51161687D01*
X187144285Y-51742259D01*
X187773238Y-51742259D01*
X188111904Y-50726259D02*
X188740857Y-50726259D01*
X188402190Y-51113306D01*
X188547333Y-51113306D01*
X188644095Y-51161687D01*
X188692476Y-51210068D01*
X188740857Y-51306830D01*
X188740857Y-51548735D01*
X188692476Y-51645497D01*
X188644095Y-51693878D01*
X188547333Y-51742259D01*
X188257047Y-51742259D01*
X188160285Y-51693878D01*
X188111904Y-51645497D01*
X190530952Y-51645497D02*
X190482571Y-51693878D01*
X190337428Y-51742259D01*
X190240666Y-51742259D01*
X190095523Y-51693878D01*
X189998761Y-51597116D01*
X189950380Y-51500354D01*
X189902000Y-51306830D01*
X189902000Y-51161687D01*
X189950380Y-50968163D01*
X189998761Y-50871401D01*
X190095523Y-50774640D01*
X190240666Y-50726259D01*
X190337428Y-50726259D01*
X190482571Y-50774640D01*
X190530952Y-50823020D01*
X191546952Y-51645497D02*
X191498571Y-51693878D01*
X191353428Y-51742259D01*
X191256666Y-51742259D01*
X191111523Y-51693878D01*
X191014761Y-51597116D01*
X190966380Y-51500354D01*
X190918000Y-51306830D01*
X190918000Y-51161687D01*
X190966380Y-50968163D01*
X191014761Y-50871401D01*
X191111523Y-50774640D01*
X191256666Y-50726259D01*
X191353428Y-50726259D01*
X191498571Y-50774640D01*
X191546952Y-50823020D01*
X193095142Y-51210068D02*
X193240285Y-51258449D01*
X193288666Y-51306830D01*
X193337047Y-51403592D01*
X193337047Y-51548735D01*
X193288666Y-51645497D01*
X193240285Y-51693878D01*
X193143523Y-51742259D01*
X192756476Y-51742259D01*
X192756476Y-50726259D01*
X193095142Y-50726259D01*
X193191904Y-50774640D01*
X193240285Y-50823020D01*
X193288666Y-50919782D01*
X193288666Y-51016544D01*
X193240285Y-51113306D01*
X193191904Y-51161687D01*
X193095142Y-51210068D01*
X192756476Y-51210068D01*
X193966000Y-51258449D02*
X193966000Y-51742259D01*
X193627333Y-50726259D02*
X193966000Y-51258449D01*
X194304666Y-50726259D01*
X194643333Y-51355211D02*
X195417428Y-51355211D01*
X195852857Y-51693878D02*
X195998000Y-51742259D01*
X196239904Y-51742259D01*
X196336666Y-51693878D01*
X196385047Y-51645497D01*
X196433428Y-51548735D01*
X196433428Y-51451973D01*
X196385047Y-51355211D01*
X196336666Y-51306830D01*
X196239904Y-51258449D01*
X196046380Y-51210068D01*
X195949619Y-51161687D01*
X195901238Y-51113306D01*
X195852857Y-51016544D01*
X195852857Y-50919782D01*
X195901238Y-50823020D01*
X195949619Y-50774640D01*
X196046380Y-50726259D01*
X196288285Y-50726259D01*
X196433428Y-50774640D01*
X196820476Y-51451973D02*
X197304285Y-51451973D01*
X196723714Y-51742259D02*
X197062380Y-50726259D01*
X197401047Y-51742259D01*
X211141238Y-46738217D02*
X211092857Y-46786598D01*
X210947714Y-46834979D01*
X210850952Y-46834979D01*
X210705809Y-46786598D01*
X210609047Y-46689836D01*
X210560666Y-46593074D01*
X210512285Y-46399550D01*
X210512285Y-46254407D01*
X210560666Y-46060883D01*
X210609047Y-45964121D01*
X210705809Y-45867360D01*
X210850952Y-45818979D01*
X210947714Y-45818979D01*
X211092857Y-45867360D01*
X211141238Y-45915740D01*
X211576666Y-46834979D02*
X211576666Y-45818979D01*
X212157238Y-46834979D02*
X211721809Y-46254407D01*
X212157238Y-45818979D02*
X211576666Y-46399550D01*
X212447523Y-45818979D02*
X213028095Y-45818979D01*
X212737809Y-46834979D02*
X212737809Y-45818979D01*
X213366761Y-46447931D02*
X214140857Y-46447931D01*
X214624666Y-46834979D02*
X214624666Y-45818979D01*
X214866571Y-45818979D01*
X215011714Y-45867360D01*
X215108476Y-45964121D01*
X215156857Y-46060883D01*
X215205238Y-46254407D01*
X215205238Y-46399550D01*
X215156857Y-46593074D01*
X215108476Y-46689836D01*
X215011714Y-46786598D01*
X214866571Y-46834979D01*
X214624666Y-46834979D01*
X215640666Y-46834979D02*
X215640666Y-45818979D01*
X216124476Y-46834979D02*
X216124476Y-45818979D01*
X216705047Y-46834979D01*
X216705047Y-45818979D01*
X217721047Y-45867360D02*
X217624285Y-45818979D01*
X217479142Y-45818979D01*
X217334000Y-45867360D01*
X217237238Y-45964121D01*
X217188857Y-46060883D01*
X217140476Y-46254407D01*
X217140476Y-46399550D01*
X217188857Y-46593074D01*
X217237238Y-46689836D01*
X217334000Y-46786598D01*
X217479142Y-46834979D01*
X217575904Y-46834979D01*
X217721047Y-46786598D01*
X217769428Y-46738217D01*
X217769428Y-46399550D01*
X217575904Y-46399550D01*
X218204857Y-46834979D02*
X218204857Y-45818979D01*
X218446761Y-45818979D01*
X218591904Y-45867360D01*
X218688666Y-45964121D01*
X218737047Y-46060883D01*
X218785428Y-46254407D01*
X218785428Y-46399550D01*
X218737047Y-46593074D01*
X218688666Y-46689836D01*
X218591904Y-46786598D01*
X218446761Y-46834979D01*
X218204857Y-46834979D01*
X219414380Y-45818979D02*
X219607904Y-45818979D01*
X219704666Y-45867360D01*
X219801428Y-45964121D01*
X219849809Y-46157645D01*
X219849809Y-46496312D01*
X219801428Y-46689836D01*
X219704666Y-46786598D01*
X219607904Y-46834979D01*
X219414380Y-46834979D01*
X219317619Y-46786598D01*
X219220857Y-46689836D01*
X219172476Y-46496312D01*
X219172476Y-46157645D01*
X219220857Y-45964121D01*
X219317619Y-45867360D01*
X219414380Y-45818979D01*
X220285238Y-46834979D02*
X220285238Y-45818979D01*
X220865809Y-46834979D01*
X220865809Y-45818979D01*
X221881809Y-45867360D02*
X221785047Y-45818979D01*
X221639904Y-45818979D01*
X221494761Y-45867360D01*
X221398000Y-45964121D01*
X221349619Y-46060883D01*
X221301238Y-46254407D01*
X221301238Y-46399550D01*
X221349619Y-46593074D01*
X221398000Y-46689836D01*
X221494761Y-46786598D01*
X221639904Y-46834979D01*
X221736666Y-46834979D01*
X221881809Y-46786598D01*
X221930190Y-46738217D01*
X221930190Y-46399550D01*
X221736666Y-46399550D01*
X222365619Y-46447931D02*
X223139714Y-46447931D01*
X223575142Y-46786598D02*
X223720285Y-46834979D01*
X223962190Y-46834979D01*
X224058952Y-46786598D01*
X224107333Y-46738217D01*
X224155714Y-46641455D01*
X224155714Y-46544693D01*
X224107333Y-46447931D01*
X224058952Y-46399550D01*
X223962190Y-46351169D01*
X223768666Y-46302788D01*
X223671904Y-46254407D01*
X223623523Y-46206026D01*
X223575142Y-46109264D01*
X223575142Y-46012502D01*
X223623523Y-45915740D01*
X223671904Y-45867360D01*
X223768666Y-45818979D01*
X224010571Y-45818979D01*
X224155714Y-45867360D01*
X224591142Y-46834979D02*
X224591142Y-45818979D01*
X224978190Y-45818979D01*
X225074952Y-45867360D01*
X225123333Y-45915740D01*
X225171714Y-46012502D01*
X225171714Y-46157645D01*
X225123333Y-46254407D01*
X225074952Y-46302788D01*
X224978190Y-46351169D01*
X224591142Y-46351169D01*
X225607142Y-46834979D02*
X225607142Y-45818979D01*
X226187714Y-46834979D02*
X225752285Y-46254407D01*
X226187714Y-45818979D02*
X225607142Y-46399550D01*
X216898571Y-47793405D02*
X217140476Y-48470739D01*
X217382380Y-47793405D01*
X217721047Y-47551500D02*
X217769428Y-47503120D01*
X217866190Y-47454739D01*
X218108095Y-47454739D01*
X218204857Y-47503120D01*
X218253238Y-47551500D01*
X218301619Y-47648262D01*
X218301619Y-47745024D01*
X218253238Y-47890167D01*
X217672666Y-48470739D01*
X218301619Y-48470739D01*
X218737047Y-48373977D02*
X218785428Y-48422358D01*
X218737047Y-48470739D01*
X218688666Y-48422358D01*
X218737047Y-48373977D01*
X218737047Y-48470739D01*
X219414380Y-47454739D02*
X219511142Y-47454739D01*
X219607904Y-47503120D01*
X219656285Y-47551500D01*
X219704666Y-47648262D01*
X219753047Y-47841786D01*
X219753047Y-48083691D01*
X219704666Y-48277215D01*
X219656285Y-48373977D01*
X219607904Y-48422358D01*
X219511142Y-48470739D01*
X219414380Y-48470739D01*
X219317619Y-48422358D01*
X219269238Y-48373977D01*
X219220857Y-48277215D01*
X219172476Y-48083691D01*
X219172476Y-47841786D01*
X219220857Y-47648262D01*
X219269238Y-47551500D01*
X219317619Y-47503120D01*
X219414380Y-47454739D01*
X209157619Y-50106499D02*
X209157619Y-49090499D01*
X209786571Y-50106499D02*
X209689809Y-50058118D01*
X209641428Y-50009737D01*
X209593047Y-49912975D01*
X209593047Y-49622689D01*
X209641428Y-49525927D01*
X209689809Y-49477546D01*
X209786571Y-49429165D01*
X209931714Y-49429165D01*
X210028476Y-49477546D01*
X210076857Y-49525927D01*
X210125238Y-49622689D01*
X210125238Y-49912975D01*
X210076857Y-50009737D01*
X210028476Y-50058118D01*
X209931714Y-50106499D01*
X209786571Y-50106499D01*
X210463904Y-49429165D02*
X210657428Y-50106499D01*
X210850952Y-49622689D01*
X211044476Y-50106499D01*
X211238000Y-49429165D01*
X212060476Y-50106499D02*
X212060476Y-49574308D01*
X212012095Y-49477546D01*
X211915333Y-49429165D01*
X211721809Y-49429165D01*
X211625047Y-49477546D01*
X212060476Y-50058118D02*
X211963714Y-50106499D01*
X211721809Y-50106499D01*
X211625047Y-50058118D01*
X211576666Y-49961356D01*
X211576666Y-49864594D01*
X211625047Y-49767832D01*
X211721809Y-49719451D01*
X211963714Y-49719451D01*
X212060476Y-49671070D01*
X213270000Y-50058118D02*
X213415142Y-50106499D01*
X213657047Y-50106499D01*
X213753809Y-50058118D01*
X213802190Y-50009737D01*
X213850571Y-49912975D01*
X213850571Y-49816213D01*
X213802190Y-49719451D01*
X213753809Y-49671070D01*
X213657047Y-49622689D01*
X213463523Y-49574308D01*
X213366761Y-49525927D01*
X213318380Y-49477546D01*
X213270000Y-49380784D01*
X213270000Y-49284022D01*
X213318380Y-49187260D01*
X213366761Y-49138880D01*
X213463523Y-49090499D01*
X213705428Y-49090499D01*
X213850571Y-49138880D01*
X214721428Y-50058118D02*
X214624666Y-50106499D01*
X214431142Y-50106499D01*
X214334380Y-50058118D01*
X214286000Y-50009737D01*
X214237619Y-49912975D01*
X214237619Y-49622689D01*
X214286000Y-49525927D01*
X214334380Y-49477546D01*
X214431142Y-49429165D01*
X214624666Y-49429165D01*
X214721428Y-49477546D01*
X215592285Y-50106499D02*
X215592285Y-49574308D01*
X215543904Y-49477546D01*
X215447142Y-49429165D01*
X215253619Y-49429165D01*
X215156857Y-49477546D01*
X215592285Y-50058118D02*
X215495523Y-50106499D01*
X215253619Y-50106499D01*
X215156857Y-50058118D01*
X215108476Y-49961356D01*
X215108476Y-49864594D01*
X215156857Y-49767832D01*
X215253619Y-49719451D01*
X215495523Y-49719451D01*
X215592285Y-49671070D01*
X216221238Y-50106499D02*
X216124476Y-50058118D01*
X216076095Y-49961356D01*
X216076095Y-49090499D01*
X216995333Y-50058118D02*
X216898571Y-50106499D01*
X216705047Y-50106499D01*
X216608285Y-50058118D01*
X216559904Y-49961356D01*
X216559904Y-49574308D01*
X216608285Y-49477546D01*
X216705047Y-49429165D01*
X216898571Y-49429165D01*
X216995333Y-49477546D01*
X217043714Y-49574308D01*
X217043714Y-49671070D01*
X216559904Y-49767832D01*
X217914571Y-50106499D02*
X217914571Y-49090499D01*
X217914571Y-50058118D02*
X217817809Y-50106499D01*
X217624285Y-50106499D01*
X217527523Y-50058118D01*
X217479142Y-50009737D01*
X217430761Y-49912975D01*
X217430761Y-49622689D01*
X217479142Y-49525927D01*
X217527523Y-49477546D01*
X217624285Y-49429165D01*
X217817809Y-49429165D01*
X217914571Y-49477546D01*
X219172476Y-49574308D02*
X219511142Y-49574308D01*
X219656285Y-50106499D02*
X219172476Y-50106499D01*
X219172476Y-49090499D01*
X219656285Y-49090499D01*
X220091714Y-49429165D02*
X220091714Y-50106499D01*
X220091714Y-49525927D02*
X220140095Y-49477546D01*
X220236857Y-49429165D01*
X220382000Y-49429165D01*
X220478761Y-49477546D01*
X220527142Y-49574308D01*
X220527142Y-50106499D01*
X221446380Y-49429165D02*
X221446380Y-50251641D01*
X221398000Y-50348403D01*
X221349619Y-50396784D01*
X221252857Y-50445165D01*
X221107714Y-50445165D01*
X221010952Y-50396784D01*
X221446380Y-50058118D02*
X221349619Y-50106499D01*
X221156095Y-50106499D01*
X221059333Y-50058118D01*
X221010952Y-50009737D01*
X220962571Y-49912975D01*
X220962571Y-49622689D01*
X221010952Y-49525927D01*
X221059333Y-49477546D01*
X221156095Y-49429165D01*
X221349619Y-49429165D01*
X221446380Y-49477546D01*
X221930190Y-50106499D02*
X221930190Y-49429165D01*
X221930190Y-49090499D02*
X221881809Y-49138880D01*
X221930190Y-49187260D01*
X221978571Y-49138880D01*
X221930190Y-49090499D01*
X221930190Y-49187260D01*
X222414000Y-49429165D02*
X222414000Y-50106499D01*
X222414000Y-49525927D02*
X222462380Y-49477546D01*
X222559142Y-49429165D01*
X222704285Y-49429165D01*
X222801047Y-49477546D01*
X222849428Y-49574308D01*
X222849428Y-50106499D01*
X223720285Y-50058118D02*
X223623523Y-50106499D01*
X223430000Y-50106499D01*
X223333238Y-50058118D01*
X223284857Y-49961356D01*
X223284857Y-49574308D01*
X223333238Y-49477546D01*
X223430000Y-49429165D01*
X223623523Y-49429165D01*
X223720285Y-49477546D01*
X223768666Y-49574308D01*
X223768666Y-49671070D01*
X223284857Y-49767832D01*
X224591142Y-50058118D02*
X224494380Y-50106499D01*
X224300857Y-50106499D01*
X224204095Y-50058118D01*
X224155714Y-49961356D01*
X224155714Y-49574308D01*
X224204095Y-49477546D01*
X224300857Y-49429165D01*
X224494380Y-49429165D01*
X224591142Y-49477546D01*
X224639523Y-49574308D01*
X224639523Y-49671070D01*
X224155714Y-49767832D01*
X225074952Y-50106499D02*
X225074952Y-49429165D01*
X225074952Y-49622689D02*
X225123333Y-49525927D01*
X225171714Y-49477546D01*
X225268476Y-49429165D01*
X225365238Y-49429165D01*
X225703904Y-50106499D02*
X225703904Y-49429165D01*
X225703904Y-49090499D02*
X225655523Y-49138880D01*
X225703904Y-49187260D01*
X225752285Y-49138880D01*
X225703904Y-49090499D01*
X225703904Y-49187260D01*
X226187714Y-49429165D02*
X226187714Y-50106499D01*
X226187714Y-49525927D02*
X226236095Y-49477546D01*
X226332857Y-49429165D01*
X226478000Y-49429165D01*
X226574761Y-49477546D01*
X226623142Y-49574308D01*
X226623142Y-50106499D01*
X227542380Y-49429165D02*
X227542380Y-50251641D01*
X227494000Y-50348403D01*
X227445619Y-50396784D01*
X227348857Y-50445165D01*
X227203714Y-50445165D01*
X227106952Y-50396784D01*
X227542380Y-50058118D02*
X227445619Y-50106499D01*
X227252095Y-50106499D01*
X227155333Y-50058118D01*
X227106952Y-50009737D01*
X227058571Y-49912975D01*
X227058571Y-49622689D01*
X227106952Y-49525927D01*
X227155333Y-49477546D01*
X227252095Y-49429165D01*
X227445619Y-49429165D01*
X227542380Y-49477546D01*
X212326571Y-50968163D02*
X212229809Y-50919782D01*
X212036285Y-50919782D01*
X211939523Y-50968163D01*
X211842761Y-51064925D01*
X211794380Y-51161687D01*
X211794380Y-51355211D01*
X211842761Y-51451973D01*
X211939523Y-51548735D01*
X212036285Y-51597116D01*
X212229809Y-51597116D01*
X212326571Y-51548735D01*
X212133047Y-50581116D02*
X211891142Y-50629497D01*
X211649238Y-50774640D01*
X211504095Y-51016544D01*
X211455714Y-51258449D01*
X211504095Y-51500354D01*
X211649238Y-51742259D01*
X211891142Y-51887401D01*
X212133047Y-51935782D01*
X212374952Y-51887401D01*
X212616857Y-51742259D01*
X212762000Y-51500354D01*
X212810380Y-51258449D01*
X212762000Y-51016544D01*
X212616857Y-50774640D01*
X212374952Y-50629497D01*
X212133047Y-50581116D01*
X213197428Y-50823020D02*
X213245809Y-50774640D01*
X213342571Y-50726259D01*
X213584476Y-50726259D01*
X213681238Y-50774640D01*
X213729619Y-50823020D01*
X213778000Y-50919782D01*
X213778000Y-51016544D01*
X213729619Y-51161687D01*
X213149047Y-51742259D01*
X213778000Y-51742259D01*
X214406952Y-50726259D02*
X214503714Y-50726259D01*
X214600476Y-50774640D01*
X214648857Y-50823020D01*
X214697238Y-50919782D01*
X214745619Y-51113306D01*
X214745619Y-51355211D01*
X214697238Y-51548735D01*
X214648857Y-51645497D01*
X214600476Y-51693878D01*
X214503714Y-51742259D01*
X214406952Y-51742259D01*
X214310190Y-51693878D01*
X214261809Y-51645497D01*
X214213428Y-51548735D01*
X214165047Y-51355211D01*
X214165047Y-51113306D01*
X214213428Y-50919782D01*
X214261809Y-50823020D01*
X214310190Y-50774640D01*
X214406952Y-50726259D01*
X215132666Y-50823020D02*
X215181047Y-50774640D01*
X215277809Y-50726259D01*
X215519714Y-50726259D01*
X215616476Y-50774640D01*
X215664857Y-50823020D01*
X215713238Y-50919782D01*
X215713238Y-51016544D01*
X215664857Y-51161687D01*
X215084285Y-51742259D01*
X215713238Y-51742259D01*
X216051904Y-50726259D02*
X216680857Y-50726259D01*
X216342190Y-51113306D01*
X216487333Y-51113306D01*
X216584095Y-51161687D01*
X216632476Y-51210068D01*
X216680857Y-51306830D01*
X216680857Y-51548735D01*
X216632476Y-51645497D01*
X216584095Y-51693878D01*
X216487333Y-51742259D01*
X216197047Y-51742259D01*
X216100285Y-51693878D01*
X216051904Y-51645497D01*
X218470952Y-51645497D02*
X218422571Y-51693878D01*
X218277428Y-51742259D01*
X218180666Y-51742259D01*
X218035523Y-51693878D01*
X217938761Y-51597116D01*
X217890380Y-51500354D01*
X217842000Y-51306830D01*
X217842000Y-51161687D01*
X217890380Y-50968163D01*
X217938761Y-50871401D01*
X218035523Y-50774640D01*
X218180666Y-50726259D01*
X218277428Y-50726259D01*
X218422571Y-50774640D01*
X218470952Y-50823020D01*
X219486952Y-51645497D02*
X219438571Y-51693878D01*
X219293428Y-51742259D01*
X219196666Y-51742259D01*
X219051523Y-51693878D01*
X218954761Y-51597116D01*
X218906380Y-51500354D01*
X218858000Y-51306830D01*
X218858000Y-51161687D01*
X218906380Y-50968163D01*
X218954761Y-50871401D01*
X219051523Y-50774640D01*
X219196666Y-50726259D01*
X219293428Y-50726259D01*
X219438571Y-50774640D01*
X219486952Y-50823020D01*
X221035142Y-51210068D02*
X221180285Y-51258449D01*
X221228666Y-51306830D01*
X221277047Y-51403592D01*
X221277047Y-51548735D01*
X221228666Y-51645497D01*
X221180285Y-51693878D01*
X221083523Y-51742259D01*
X220696476Y-51742259D01*
X220696476Y-50726259D01*
X221035142Y-50726259D01*
X221131904Y-50774640D01*
X221180285Y-50823020D01*
X221228666Y-50919782D01*
X221228666Y-51016544D01*
X221180285Y-51113306D01*
X221131904Y-51161687D01*
X221035142Y-51210068D01*
X220696476Y-51210068D01*
X221906000Y-51258449D02*
X221906000Y-51742259D01*
X221567333Y-50726259D02*
X221906000Y-51258449D01*
X222244666Y-50726259D01*
X222583333Y-51355211D02*
X223357428Y-51355211D01*
X223792857Y-51693878D02*
X223938000Y-51742259D01*
X224179904Y-51742259D01*
X224276666Y-51693878D01*
X224325047Y-51645497D01*
X224373428Y-51548735D01*
X224373428Y-51451973D01*
X224325047Y-51355211D01*
X224276666Y-51306830D01*
X224179904Y-51258449D01*
X223986380Y-51210068D01*
X223889619Y-51161687D01*
X223841238Y-51113306D01*
X223792857Y-51016544D01*
X223792857Y-50919782D01*
X223841238Y-50823020D01*
X223889619Y-50774640D01*
X223986380Y-50726259D01*
X224228285Y-50726259D01*
X224373428Y-50774640D01*
X224760476Y-51451973D02*
X225244285Y-51451973D01*
X224663714Y-51742259D02*
X225002380Y-50726259D01*
X225341047Y-51742259D01*
X239081238Y-46738217D02*
X239032857Y-46786598D01*
X238887714Y-46834979D01*
X238790952Y-46834979D01*
X238645809Y-46786598D01*
X238549047Y-46689836D01*
X238500666Y-46593074D01*
X238452285Y-46399550D01*
X238452285Y-46254407D01*
X238500666Y-46060883D01*
X238549047Y-45964121D01*
X238645809Y-45867360D01*
X238790952Y-45818979D01*
X238887714Y-45818979D01*
X239032857Y-45867360D01*
X239081238Y-45915740D01*
X239516666Y-46834979D02*
X239516666Y-45818979D01*
X240097238Y-46834979D02*
X239661809Y-46254407D01*
X240097238Y-45818979D02*
X239516666Y-46399550D01*
X240387523Y-45818979D02*
X240968095Y-45818979D01*
X240677809Y-46834979D02*
X240677809Y-45818979D01*
X241306761Y-46447931D02*
X242080857Y-46447931D01*
X242564666Y-46834979D02*
X242564666Y-45818979D01*
X242806571Y-45818979D01*
X242951714Y-45867360D01*
X243048476Y-45964121D01*
X243096857Y-46060883D01*
X243145238Y-46254407D01*
X243145238Y-46399550D01*
X243096857Y-46593074D01*
X243048476Y-46689836D01*
X242951714Y-46786598D01*
X242806571Y-46834979D01*
X242564666Y-46834979D01*
X243580666Y-46834979D02*
X243580666Y-45818979D01*
X244064476Y-46834979D02*
X244064476Y-45818979D01*
X244645047Y-46834979D01*
X244645047Y-45818979D01*
X245661047Y-45867360D02*
X245564285Y-45818979D01*
X245419142Y-45818979D01*
X245274000Y-45867360D01*
X245177238Y-45964121D01*
X245128857Y-46060883D01*
X245080476Y-46254407D01*
X245080476Y-46399550D01*
X245128857Y-46593074D01*
X245177238Y-46689836D01*
X245274000Y-46786598D01*
X245419142Y-46834979D01*
X245515904Y-46834979D01*
X245661047Y-46786598D01*
X245709428Y-46738217D01*
X245709428Y-46399550D01*
X245515904Y-46399550D01*
X246144857Y-46834979D02*
X246144857Y-45818979D01*
X246386761Y-45818979D01*
X246531904Y-45867360D01*
X246628666Y-45964121D01*
X246677047Y-46060883D01*
X246725428Y-46254407D01*
X246725428Y-46399550D01*
X246677047Y-46593074D01*
X246628666Y-46689836D01*
X246531904Y-46786598D01*
X246386761Y-46834979D01*
X246144857Y-46834979D01*
X247354380Y-45818979D02*
X247547904Y-45818979D01*
X247644666Y-45867360D01*
X247741428Y-45964121D01*
X247789809Y-46157645D01*
X247789809Y-46496312D01*
X247741428Y-46689836D01*
X247644666Y-46786598D01*
X247547904Y-46834979D01*
X247354380Y-46834979D01*
X247257619Y-46786598D01*
X247160857Y-46689836D01*
X247112476Y-46496312D01*
X247112476Y-46157645D01*
X247160857Y-45964121D01*
X247257619Y-45867360D01*
X247354380Y-45818979D01*
X248225238Y-46834979D02*
X248225238Y-45818979D01*
X248805809Y-46834979D01*
X248805809Y-45818979D01*
X249821809Y-45867360D02*
X249725047Y-45818979D01*
X249579904Y-45818979D01*
X249434761Y-45867360D01*
X249338000Y-45964121D01*
X249289619Y-46060883D01*
X249241238Y-46254407D01*
X249241238Y-46399550D01*
X249289619Y-46593074D01*
X249338000Y-46689836D01*
X249434761Y-46786598D01*
X249579904Y-46834979D01*
X249676666Y-46834979D01*
X249821809Y-46786598D01*
X249870190Y-46738217D01*
X249870190Y-46399550D01*
X249676666Y-46399550D01*
X250305619Y-46447931D02*
X251079714Y-46447931D01*
X251515142Y-46786598D02*
X251660285Y-46834979D01*
X251902190Y-46834979D01*
X251998952Y-46786598D01*
X252047333Y-46738217D01*
X252095714Y-46641455D01*
X252095714Y-46544693D01*
X252047333Y-46447931D01*
X251998952Y-46399550D01*
X251902190Y-46351169D01*
X251708666Y-46302788D01*
X251611904Y-46254407D01*
X251563523Y-46206026D01*
X251515142Y-46109264D01*
X251515142Y-46012502D01*
X251563523Y-45915740D01*
X251611904Y-45867360D01*
X251708666Y-45818979D01*
X251950571Y-45818979D01*
X252095714Y-45867360D01*
X252531142Y-46834979D02*
X252531142Y-45818979D01*
X252918190Y-45818979D01*
X253014952Y-45867360D01*
X253063333Y-45915740D01*
X253111714Y-46012502D01*
X253111714Y-46157645D01*
X253063333Y-46254407D01*
X253014952Y-46302788D01*
X252918190Y-46351169D01*
X252531142Y-46351169D01*
X253547142Y-46834979D02*
X253547142Y-45818979D01*
X254127714Y-46834979D02*
X253692285Y-46254407D01*
X254127714Y-45818979D02*
X253547142Y-46399550D01*
X244838571Y-47793405D02*
X245080476Y-48470739D01*
X245322380Y-47793405D01*
X245661047Y-47551500D02*
X245709428Y-47503120D01*
X245806190Y-47454739D01*
X246048095Y-47454739D01*
X246144857Y-47503120D01*
X246193238Y-47551500D01*
X246241619Y-47648262D01*
X246241619Y-47745024D01*
X246193238Y-47890167D01*
X245612666Y-48470739D01*
X246241619Y-48470739D01*
X246677047Y-48373977D02*
X246725428Y-48422358D01*
X246677047Y-48470739D01*
X246628666Y-48422358D01*
X246677047Y-48373977D01*
X246677047Y-48470739D01*
X247354380Y-47454739D02*
X247451142Y-47454739D01*
X247547904Y-47503120D01*
X247596285Y-47551500D01*
X247644666Y-47648262D01*
X247693047Y-47841786D01*
X247693047Y-48083691D01*
X247644666Y-48277215D01*
X247596285Y-48373977D01*
X247547904Y-48422358D01*
X247451142Y-48470739D01*
X247354380Y-48470739D01*
X247257619Y-48422358D01*
X247209238Y-48373977D01*
X247160857Y-48277215D01*
X247112476Y-48083691D01*
X247112476Y-47841786D01*
X247160857Y-47648262D01*
X247209238Y-47551500D01*
X247257619Y-47503120D01*
X247354380Y-47454739D01*
X237097619Y-50106499D02*
X237097619Y-49090499D01*
X237726571Y-50106499D02*
X237629809Y-50058118D01*
X237581428Y-50009737D01*
X237533047Y-49912975D01*
X237533047Y-49622689D01*
X237581428Y-49525927D01*
X237629809Y-49477546D01*
X237726571Y-49429165D01*
X237871714Y-49429165D01*
X237968476Y-49477546D01*
X238016857Y-49525927D01*
X238065238Y-49622689D01*
X238065238Y-49912975D01*
X238016857Y-50009737D01*
X237968476Y-50058118D01*
X237871714Y-50106499D01*
X237726571Y-50106499D01*
X238403904Y-49429165D02*
X238597428Y-50106499D01*
X238790952Y-49622689D01*
X238984476Y-50106499D01*
X239178000Y-49429165D01*
X240000476Y-50106499D02*
X240000476Y-49574308D01*
X239952095Y-49477546D01*
X239855333Y-49429165D01*
X239661809Y-49429165D01*
X239565047Y-49477546D01*
X240000476Y-50058118D02*
X239903714Y-50106499D01*
X239661809Y-50106499D01*
X239565047Y-50058118D01*
X239516666Y-49961356D01*
X239516666Y-49864594D01*
X239565047Y-49767832D01*
X239661809Y-49719451D01*
X239903714Y-49719451D01*
X240000476Y-49671070D01*
X241210000Y-50058118D02*
X241355142Y-50106499D01*
X241597047Y-50106499D01*
X241693809Y-50058118D01*
X241742190Y-50009737D01*
X241790571Y-49912975D01*
X241790571Y-49816213D01*
X241742190Y-49719451D01*
X241693809Y-49671070D01*
X241597047Y-49622689D01*
X241403523Y-49574308D01*
X241306761Y-49525927D01*
X241258380Y-49477546D01*
X241210000Y-49380784D01*
X241210000Y-49284022D01*
X241258380Y-49187260D01*
X241306761Y-49138880D01*
X241403523Y-49090499D01*
X241645428Y-49090499D01*
X241790571Y-49138880D01*
X242661428Y-50058118D02*
X242564666Y-50106499D01*
X242371142Y-50106499D01*
X242274380Y-50058118D01*
X242226000Y-50009737D01*
X242177619Y-49912975D01*
X242177619Y-49622689D01*
X242226000Y-49525927D01*
X242274380Y-49477546D01*
X242371142Y-49429165D01*
X242564666Y-49429165D01*
X242661428Y-49477546D01*
X243532285Y-50106499D02*
X243532285Y-49574308D01*
X243483904Y-49477546D01*
X243387142Y-49429165D01*
X243193619Y-49429165D01*
X243096857Y-49477546D01*
X243532285Y-50058118D02*
X243435523Y-50106499D01*
X243193619Y-50106499D01*
X243096857Y-50058118D01*
X243048476Y-49961356D01*
X243048476Y-49864594D01*
X243096857Y-49767832D01*
X243193619Y-49719451D01*
X243435523Y-49719451D01*
X243532285Y-49671070D01*
X244161238Y-50106499D02*
X244064476Y-50058118D01*
X244016095Y-49961356D01*
X244016095Y-49090499D01*
X244935333Y-50058118D02*
X244838571Y-50106499D01*
X244645047Y-50106499D01*
X244548285Y-50058118D01*
X244499904Y-49961356D01*
X244499904Y-49574308D01*
X244548285Y-49477546D01*
X244645047Y-49429165D01*
X244838571Y-49429165D01*
X244935333Y-49477546D01*
X244983714Y-49574308D01*
X244983714Y-49671070D01*
X244499904Y-49767832D01*
X245854571Y-50106499D02*
X245854571Y-49090499D01*
X245854571Y-50058118D02*
X245757809Y-50106499D01*
X245564285Y-50106499D01*
X245467523Y-50058118D01*
X245419142Y-50009737D01*
X245370761Y-49912975D01*
X245370761Y-49622689D01*
X245419142Y-49525927D01*
X245467523Y-49477546D01*
X245564285Y-49429165D01*
X245757809Y-49429165D01*
X245854571Y-49477546D01*
X247112476Y-49574308D02*
X247451142Y-49574308D01*
X247596285Y-50106499D02*
X247112476Y-50106499D01*
X247112476Y-49090499D01*
X247596285Y-49090499D01*
X248031714Y-49429165D02*
X248031714Y-50106499D01*
X248031714Y-49525927D02*
X248080095Y-49477546D01*
X248176857Y-49429165D01*
X248322000Y-49429165D01*
X248418761Y-49477546D01*
X248467142Y-49574308D01*
X248467142Y-50106499D01*
X249386380Y-49429165D02*
X249386380Y-50251641D01*
X249338000Y-50348403D01*
X249289619Y-50396784D01*
X249192857Y-50445165D01*
X249047714Y-50445165D01*
X248950952Y-50396784D01*
X249386380Y-50058118D02*
X249289619Y-50106499D01*
X249096095Y-50106499D01*
X248999333Y-50058118D01*
X248950952Y-50009737D01*
X248902571Y-49912975D01*
X248902571Y-49622689D01*
X248950952Y-49525927D01*
X248999333Y-49477546D01*
X249096095Y-49429165D01*
X249289619Y-49429165D01*
X249386380Y-49477546D01*
X249870190Y-50106499D02*
X249870190Y-49429165D01*
X249870190Y-49090499D02*
X249821809Y-49138880D01*
X249870190Y-49187260D01*
X249918571Y-49138880D01*
X249870190Y-49090499D01*
X249870190Y-49187260D01*
X250354000Y-49429165D02*
X250354000Y-50106499D01*
X250354000Y-49525927D02*
X250402380Y-49477546D01*
X250499142Y-49429165D01*
X250644285Y-49429165D01*
X250741047Y-49477546D01*
X250789428Y-49574308D01*
X250789428Y-50106499D01*
X251660285Y-50058118D02*
X251563523Y-50106499D01*
X251370000Y-50106499D01*
X251273238Y-50058118D01*
X251224857Y-49961356D01*
X251224857Y-49574308D01*
X251273238Y-49477546D01*
X251370000Y-49429165D01*
X251563523Y-49429165D01*
X251660285Y-49477546D01*
X251708666Y-49574308D01*
X251708666Y-49671070D01*
X251224857Y-49767832D01*
X252531142Y-50058118D02*
X252434380Y-50106499D01*
X252240857Y-50106499D01*
X252144095Y-50058118D01*
X252095714Y-49961356D01*
X252095714Y-49574308D01*
X252144095Y-49477546D01*
X252240857Y-49429165D01*
X252434380Y-49429165D01*
X252531142Y-49477546D01*
X252579523Y-49574308D01*
X252579523Y-49671070D01*
X252095714Y-49767832D01*
X253014952Y-50106499D02*
X253014952Y-49429165D01*
X253014952Y-49622689D02*
X253063333Y-49525927D01*
X253111714Y-49477546D01*
X253208476Y-49429165D01*
X253305238Y-49429165D01*
X253643904Y-50106499D02*
X253643904Y-49429165D01*
X253643904Y-49090499D02*
X253595523Y-49138880D01*
X253643904Y-49187260D01*
X253692285Y-49138880D01*
X253643904Y-49090499D01*
X253643904Y-49187260D01*
X254127714Y-49429165D02*
X254127714Y-50106499D01*
X254127714Y-49525927D02*
X254176095Y-49477546D01*
X254272857Y-49429165D01*
X254418000Y-49429165D01*
X254514761Y-49477546D01*
X254563142Y-49574308D01*
X254563142Y-50106499D01*
X255482380Y-49429165D02*
X255482380Y-50251641D01*
X255434000Y-50348403D01*
X255385619Y-50396784D01*
X255288857Y-50445165D01*
X255143714Y-50445165D01*
X255046952Y-50396784D01*
X255482380Y-50058118D02*
X255385619Y-50106499D01*
X255192095Y-50106499D01*
X255095333Y-50058118D01*
X255046952Y-50009737D01*
X254998571Y-49912975D01*
X254998571Y-49622689D01*
X255046952Y-49525927D01*
X255095333Y-49477546D01*
X255192095Y-49429165D01*
X255385619Y-49429165D01*
X255482380Y-49477546D01*
X240266571Y-50968163D02*
X240169809Y-50919782D01*
X239976285Y-50919782D01*
X239879523Y-50968163D01*
X239782761Y-51064925D01*
X239734380Y-51161687D01*
X239734380Y-51355211D01*
X239782761Y-51451973D01*
X239879523Y-51548735D01*
X239976285Y-51597116D01*
X240169809Y-51597116D01*
X240266571Y-51548735D01*
X240073047Y-50581116D02*
X239831142Y-50629497D01*
X239589238Y-50774640D01*
X239444095Y-51016544D01*
X239395714Y-51258449D01*
X239444095Y-51500354D01*
X239589238Y-51742259D01*
X239831142Y-51887401D01*
X240073047Y-51935782D01*
X240314952Y-51887401D01*
X240556857Y-51742259D01*
X240702000Y-51500354D01*
X240750380Y-51258449D01*
X240702000Y-51016544D01*
X240556857Y-50774640D01*
X240314952Y-50629497D01*
X240073047Y-50581116D01*
X241137428Y-50823020D02*
X241185809Y-50774640D01*
X241282571Y-50726259D01*
X241524476Y-50726259D01*
X241621238Y-50774640D01*
X241669619Y-50823020D01*
X241718000Y-50919782D01*
X241718000Y-51016544D01*
X241669619Y-51161687D01*
X241089047Y-51742259D01*
X241718000Y-51742259D01*
X242346952Y-50726259D02*
X242443714Y-50726259D01*
X242540476Y-50774640D01*
X242588857Y-50823020D01*
X242637238Y-50919782D01*
X242685619Y-51113306D01*
X242685619Y-51355211D01*
X242637238Y-51548735D01*
X242588857Y-51645497D01*
X242540476Y-51693878D01*
X242443714Y-51742259D01*
X242346952Y-51742259D01*
X242250190Y-51693878D01*
X242201809Y-51645497D01*
X242153428Y-51548735D01*
X242105047Y-51355211D01*
X242105047Y-51113306D01*
X242153428Y-50919782D01*
X242201809Y-50823020D01*
X242250190Y-50774640D01*
X242346952Y-50726259D01*
X243072666Y-50823020D02*
X243121047Y-50774640D01*
X243217809Y-50726259D01*
X243459714Y-50726259D01*
X243556476Y-50774640D01*
X243604857Y-50823020D01*
X243653238Y-50919782D01*
X243653238Y-51016544D01*
X243604857Y-51161687D01*
X243024285Y-51742259D01*
X243653238Y-51742259D01*
X243991904Y-50726259D02*
X244620857Y-50726259D01*
X244282190Y-51113306D01*
X244427333Y-51113306D01*
X244524095Y-51161687D01*
X244572476Y-51210068D01*
X244620857Y-51306830D01*
X244620857Y-51548735D01*
X244572476Y-51645497D01*
X244524095Y-51693878D01*
X244427333Y-51742259D01*
X244137047Y-51742259D01*
X244040285Y-51693878D01*
X243991904Y-51645497D01*
X246410952Y-51645497D02*
X246362571Y-51693878D01*
X246217428Y-51742259D01*
X246120666Y-51742259D01*
X245975523Y-51693878D01*
X245878761Y-51597116D01*
X245830380Y-51500354D01*
X245782000Y-51306830D01*
X245782000Y-51161687D01*
X245830380Y-50968163D01*
X245878761Y-50871401D01*
X245975523Y-50774640D01*
X246120666Y-50726259D01*
X246217428Y-50726259D01*
X246362571Y-50774640D01*
X246410952Y-50823020D01*
X247426952Y-51645497D02*
X247378571Y-51693878D01*
X247233428Y-51742259D01*
X247136666Y-51742259D01*
X246991523Y-51693878D01*
X246894761Y-51597116D01*
X246846380Y-51500354D01*
X246798000Y-51306830D01*
X246798000Y-51161687D01*
X246846380Y-50968163D01*
X246894761Y-50871401D01*
X246991523Y-50774640D01*
X247136666Y-50726259D01*
X247233428Y-50726259D01*
X247378571Y-50774640D01*
X247426952Y-50823020D01*
X248975142Y-51210068D02*
X249120285Y-51258449D01*
X249168666Y-51306830D01*
X249217047Y-51403592D01*
X249217047Y-51548735D01*
X249168666Y-51645497D01*
X249120285Y-51693878D01*
X249023523Y-51742259D01*
X248636476Y-51742259D01*
X248636476Y-50726259D01*
X248975142Y-50726259D01*
X249071904Y-50774640D01*
X249120285Y-50823020D01*
X249168666Y-50919782D01*
X249168666Y-51016544D01*
X249120285Y-51113306D01*
X249071904Y-51161687D01*
X248975142Y-51210068D01*
X248636476Y-51210068D01*
X249846000Y-51258449D02*
X249846000Y-51742259D01*
X249507333Y-50726259D02*
X249846000Y-51258449D01*
X250184666Y-50726259D01*
X250523333Y-51355211D02*
X251297428Y-51355211D01*
X251732857Y-51693878D02*
X251878000Y-51742259D01*
X252119904Y-51742259D01*
X252216666Y-51693878D01*
X252265047Y-51645497D01*
X252313428Y-51548735D01*
X252313428Y-51451973D01*
X252265047Y-51355211D01*
X252216666Y-51306830D01*
X252119904Y-51258449D01*
X251926380Y-51210068D01*
X251829619Y-51161687D01*
X251781238Y-51113306D01*
X251732857Y-51016544D01*
X251732857Y-50919782D01*
X251781238Y-50823020D01*
X251829619Y-50774640D01*
X251926380Y-50726259D01*
X252168285Y-50726259D01*
X252313428Y-50774640D01*
X252700476Y-51451973D02*
X253184285Y-51451973D01*
X252603714Y-51742259D02*
X252942380Y-50726259D01*
X253281047Y-51742259D01*
X267021238Y-46738217D02*
X266972857Y-46786598D01*
X266827714Y-46834979D01*
X266730952Y-46834979D01*
X266585809Y-46786598D01*
X266489047Y-46689836D01*
X266440666Y-46593074D01*
X266392285Y-46399550D01*
X266392285Y-46254407D01*
X266440666Y-46060883D01*
X266489047Y-45964121D01*
X266585809Y-45867360D01*
X266730952Y-45818979D01*
X266827714Y-45818979D01*
X266972857Y-45867360D01*
X267021238Y-45915740D01*
X267456666Y-46834979D02*
X267456666Y-45818979D01*
X268037238Y-46834979D02*
X267601809Y-46254407D01*
X268037238Y-45818979D02*
X267456666Y-46399550D01*
X268327523Y-45818979D02*
X268908095Y-45818979D01*
X268617809Y-46834979D02*
X268617809Y-45818979D01*
X269246761Y-46447931D02*
X270020857Y-46447931D01*
X270504666Y-46834979D02*
X270504666Y-45818979D01*
X270746571Y-45818979D01*
X270891714Y-45867360D01*
X270988476Y-45964121D01*
X271036857Y-46060883D01*
X271085238Y-46254407D01*
X271085238Y-46399550D01*
X271036857Y-46593074D01*
X270988476Y-46689836D01*
X270891714Y-46786598D01*
X270746571Y-46834979D01*
X270504666Y-46834979D01*
X271520666Y-46834979D02*
X271520666Y-45818979D01*
X272004476Y-46834979D02*
X272004476Y-45818979D01*
X272585047Y-46834979D01*
X272585047Y-45818979D01*
X273601047Y-45867360D02*
X273504285Y-45818979D01*
X273359142Y-45818979D01*
X273214000Y-45867360D01*
X273117238Y-45964121D01*
X273068857Y-46060883D01*
X273020476Y-46254407D01*
X273020476Y-46399550D01*
X273068857Y-46593074D01*
X273117238Y-46689836D01*
X273214000Y-46786598D01*
X273359142Y-46834979D01*
X273455904Y-46834979D01*
X273601047Y-46786598D01*
X273649428Y-46738217D01*
X273649428Y-46399550D01*
X273455904Y-46399550D01*
X274084857Y-46834979D02*
X274084857Y-45818979D01*
X274326761Y-45818979D01*
X274471904Y-45867360D01*
X274568666Y-45964121D01*
X274617047Y-46060883D01*
X274665428Y-46254407D01*
X274665428Y-46399550D01*
X274617047Y-46593074D01*
X274568666Y-46689836D01*
X274471904Y-46786598D01*
X274326761Y-46834979D01*
X274084857Y-46834979D01*
X275294380Y-45818979D02*
X275487904Y-45818979D01*
X275584666Y-45867360D01*
X275681428Y-45964121D01*
X275729809Y-46157645D01*
X275729809Y-46496312D01*
X275681428Y-46689836D01*
X275584666Y-46786598D01*
X275487904Y-46834979D01*
X275294380Y-46834979D01*
X275197619Y-46786598D01*
X275100857Y-46689836D01*
X275052476Y-46496312D01*
X275052476Y-46157645D01*
X275100857Y-45964121D01*
X275197619Y-45867360D01*
X275294380Y-45818979D01*
X276165238Y-46834979D02*
X276165238Y-45818979D01*
X276745809Y-46834979D01*
X276745809Y-45818979D01*
X277761809Y-45867360D02*
X277665047Y-45818979D01*
X277519904Y-45818979D01*
X277374761Y-45867360D01*
X277278000Y-45964121D01*
X277229619Y-46060883D01*
X277181238Y-46254407D01*
X277181238Y-46399550D01*
X277229619Y-46593074D01*
X277278000Y-46689836D01*
X277374761Y-46786598D01*
X277519904Y-46834979D01*
X277616666Y-46834979D01*
X277761809Y-46786598D01*
X277810190Y-46738217D01*
X277810190Y-46399550D01*
X277616666Y-46399550D01*
X278245619Y-46447931D02*
X279019714Y-46447931D01*
X279455142Y-46786598D02*
X279600285Y-46834979D01*
X279842190Y-46834979D01*
X279938952Y-46786598D01*
X279987333Y-46738217D01*
X280035714Y-46641455D01*
X280035714Y-46544693D01*
X279987333Y-46447931D01*
X279938952Y-46399550D01*
X279842190Y-46351169D01*
X279648666Y-46302788D01*
X279551904Y-46254407D01*
X279503523Y-46206026D01*
X279455142Y-46109264D01*
X279455142Y-46012502D01*
X279503523Y-45915740D01*
X279551904Y-45867360D01*
X279648666Y-45818979D01*
X279890571Y-45818979D01*
X280035714Y-45867360D01*
X280471142Y-46834979D02*
X280471142Y-45818979D01*
X280858190Y-45818979D01*
X280954952Y-45867360D01*
X281003333Y-45915740D01*
X281051714Y-46012502D01*
X281051714Y-46157645D01*
X281003333Y-46254407D01*
X280954952Y-46302788D01*
X280858190Y-46351169D01*
X280471142Y-46351169D01*
X281487142Y-46834979D02*
X281487142Y-45818979D01*
X282067714Y-46834979D02*
X281632285Y-46254407D01*
X282067714Y-45818979D02*
X281487142Y-46399550D01*
X272778571Y-47793405D02*
X273020476Y-48470739D01*
X273262380Y-47793405D01*
X273601047Y-47551500D02*
X273649428Y-47503120D01*
X273746190Y-47454739D01*
X273988095Y-47454739D01*
X274084857Y-47503120D01*
X274133238Y-47551500D01*
X274181619Y-47648262D01*
X274181619Y-47745024D01*
X274133238Y-47890167D01*
X273552666Y-48470739D01*
X274181619Y-48470739D01*
X274617047Y-48373977D02*
X274665428Y-48422358D01*
X274617047Y-48470739D01*
X274568666Y-48422358D01*
X274617047Y-48373977D01*
X274617047Y-48470739D01*
X275294380Y-47454739D02*
X275391142Y-47454739D01*
X275487904Y-47503120D01*
X275536285Y-47551500D01*
X275584666Y-47648262D01*
X275633047Y-47841786D01*
X275633047Y-48083691D01*
X275584666Y-48277215D01*
X275536285Y-48373977D01*
X275487904Y-48422358D01*
X275391142Y-48470739D01*
X275294380Y-48470739D01*
X275197619Y-48422358D01*
X275149238Y-48373977D01*
X275100857Y-48277215D01*
X275052476Y-48083691D01*
X275052476Y-47841786D01*
X275100857Y-47648262D01*
X275149238Y-47551500D01*
X275197619Y-47503120D01*
X275294380Y-47454739D01*
X265037619Y-50106499D02*
X265037619Y-49090499D01*
X265666571Y-50106499D02*
X265569809Y-50058118D01*
X265521428Y-50009737D01*
X265473047Y-49912975D01*
X265473047Y-49622689D01*
X265521428Y-49525927D01*
X265569809Y-49477546D01*
X265666571Y-49429165D01*
X265811714Y-49429165D01*
X265908476Y-49477546D01*
X265956857Y-49525927D01*
X266005238Y-49622689D01*
X266005238Y-49912975D01*
X265956857Y-50009737D01*
X265908476Y-50058118D01*
X265811714Y-50106499D01*
X265666571Y-50106499D01*
X266343904Y-49429165D02*
X266537428Y-50106499D01*
X266730952Y-49622689D01*
X266924476Y-50106499D01*
X267118000Y-49429165D01*
X267940476Y-50106499D02*
X267940476Y-49574308D01*
X267892095Y-49477546D01*
X267795333Y-49429165D01*
X267601809Y-49429165D01*
X267505047Y-49477546D01*
X267940476Y-50058118D02*
X267843714Y-50106499D01*
X267601809Y-50106499D01*
X267505047Y-50058118D01*
X267456666Y-49961356D01*
X267456666Y-49864594D01*
X267505047Y-49767832D01*
X267601809Y-49719451D01*
X267843714Y-49719451D01*
X267940476Y-49671070D01*
X269150000Y-50058118D02*
X269295142Y-50106499D01*
X269537047Y-50106499D01*
X269633809Y-50058118D01*
X269682190Y-50009737D01*
X269730571Y-49912975D01*
X269730571Y-49816213D01*
X269682190Y-49719451D01*
X269633809Y-49671070D01*
X269537047Y-49622689D01*
X269343523Y-49574308D01*
X269246761Y-49525927D01*
X269198380Y-49477546D01*
X269150000Y-49380784D01*
X269150000Y-49284022D01*
X269198380Y-49187260D01*
X269246761Y-49138880D01*
X269343523Y-49090499D01*
X269585428Y-49090499D01*
X269730571Y-49138880D01*
X270601428Y-50058118D02*
X270504666Y-50106499D01*
X270311142Y-50106499D01*
X270214380Y-50058118D01*
X270166000Y-50009737D01*
X270117619Y-49912975D01*
X270117619Y-49622689D01*
X270166000Y-49525927D01*
X270214380Y-49477546D01*
X270311142Y-49429165D01*
X270504666Y-49429165D01*
X270601428Y-49477546D01*
X271472285Y-50106499D02*
X271472285Y-49574308D01*
X271423904Y-49477546D01*
X271327142Y-49429165D01*
X271133619Y-49429165D01*
X271036857Y-49477546D01*
X271472285Y-50058118D02*
X271375523Y-50106499D01*
X271133619Y-50106499D01*
X271036857Y-50058118D01*
X270988476Y-49961356D01*
X270988476Y-49864594D01*
X271036857Y-49767832D01*
X271133619Y-49719451D01*
X271375523Y-49719451D01*
X271472285Y-49671070D01*
X272101238Y-50106499D02*
X272004476Y-50058118D01*
X271956095Y-49961356D01*
X271956095Y-49090499D01*
X272875333Y-50058118D02*
X272778571Y-50106499D01*
X272585047Y-50106499D01*
X272488285Y-50058118D01*
X272439904Y-49961356D01*
X272439904Y-49574308D01*
X272488285Y-49477546D01*
X272585047Y-49429165D01*
X272778571Y-49429165D01*
X272875333Y-49477546D01*
X272923714Y-49574308D01*
X272923714Y-49671070D01*
X272439904Y-49767832D01*
X273794571Y-50106499D02*
X273794571Y-49090499D01*
X273794571Y-50058118D02*
X273697809Y-50106499D01*
X273504285Y-50106499D01*
X273407523Y-50058118D01*
X273359142Y-50009737D01*
X273310761Y-49912975D01*
X273310761Y-49622689D01*
X273359142Y-49525927D01*
X273407523Y-49477546D01*
X273504285Y-49429165D01*
X273697809Y-49429165D01*
X273794571Y-49477546D01*
X275052476Y-49574308D02*
X275391142Y-49574308D01*
X275536285Y-50106499D02*
X275052476Y-50106499D01*
X275052476Y-49090499D01*
X275536285Y-49090499D01*
X275971714Y-49429165D02*
X275971714Y-50106499D01*
X275971714Y-49525927D02*
X276020095Y-49477546D01*
X276116857Y-49429165D01*
X276262000Y-49429165D01*
X276358761Y-49477546D01*
X276407142Y-49574308D01*
X276407142Y-50106499D01*
X277326380Y-49429165D02*
X277326380Y-50251641D01*
X277278000Y-50348403D01*
X277229619Y-50396784D01*
X277132857Y-50445165D01*
X276987714Y-50445165D01*
X276890952Y-50396784D01*
X277326380Y-50058118D02*
X277229619Y-50106499D01*
X277036095Y-50106499D01*
X276939333Y-50058118D01*
X276890952Y-50009737D01*
X276842571Y-49912975D01*
X276842571Y-49622689D01*
X276890952Y-49525927D01*
X276939333Y-49477546D01*
X277036095Y-49429165D01*
X277229619Y-49429165D01*
X277326380Y-49477546D01*
X277810190Y-50106499D02*
X277810190Y-49429165D01*
X277810190Y-49090499D02*
X277761809Y-49138880D01*
X277810190Y-49187260D01*
X277858571Y-49138880D01*
X277810190Y-49090499D01*
X277810190Y-49187260D01*
X278294000Y-49429165D02*
X278294000Y-50106499D01*
X278294000Y-49525927D02*
X278342380Y-49477546D01*
X278439142Y-49429165D01*
X278584285Y-49429165D01*
X278681047Y-49477546D01*
X278729428Y-49574308D01*
X278729428Y-50106499D01*
X279600285Y-50058118D02*
X279503523Y-50106499D01*
X279310000Y-50106499D01*
X279213238Y-50058118D01*
X279164857Y-49961356D01*
X279164857Y-49574308D01*
X279213238Y-49477546D01*
X279310000Y-49429165D01*
X279503523Y-49429165D01*
X279600285Y-49477546D01*
X279648666Y-49574308D01*
X279648666Y-49671070D01*
X279164857Y-49767832D01*
X280471142Y-50058118D02*
X280374380Y-50106499D01*
X280180857Y-50106499D01*
X280084095Y-50058118D01*
X280035714Y-49961356D01*
X280035714Y-49574308D01*
X280084095Y-49477546D01*
X280180857Y-49429165D01*
X280374380Y-49429165D01*
X280471142Y-49477546D01*
X280519523Y-49574308D01*
X280519523Y-49671070D01*
X280035714Y-49767832D01*
X280954952Y-50106499D02*
X280954952Y-49429165D01*
X280954952Y-49622689D02*
X281003333Y-49525927D01*
X281051714Y-49477546D01*
X281148476Y-49429165D01*
X281245238Y-49429165D01*
X281583904Y-50106499D02*
X281583904Y-49429165D01*
X281583904Y-49090499D02*
X281535523Y-49138880D01*
X281583904Y-49187260D01*
X281632285Y-49138880D01*
X281583904Y-49090499D01*
X281583904Y-49187260D01*
X282067714Y-49429165D02*
X282067714Y-50106499D01*
X282067714Y-49525927D02*
X282116095Y-49477546D01*
X282212857Y-49429165D01*
X282358000Y-49429165D01*
X282454761Y-49477546D01*
X282503142Y-49574308D01*
X282503142Y-50106499D01*
X283422380Y-49429165D02*
X283422380Y-50251641D01*
X283374000Y-50348403D01*
X283325619Y-50396784D01*
X283228857Y-50445165D01*
X283083714Y-50445165D01*
X282986952Y-50396784D01*
X283422380Y-50058118D02*
X283325619Y-50106499D01*
X283132095Y-50106499D01*
X283035333Y-50058118D01*
X282986952Y-50009737D01*
X282938571Y-49912975D01*
X282938571Y-49622689D01*
X282986952Y-49525927D01*
X283035333Y-49477546D01*
X283132095Y-49429165D01*
X283325619Y-49429165D01*
X283422380Y-49477546D01*
X268206571Y-50968163D02*
X268109809Y-50919782D01*
X267916285Y-50919782D01*
X267819523Y-50968163D01*
X267722761Y-51064925D01*
X267674380Y-51161687D01*
X267674380Y-51355211D01*
X267722761Y-51451973D01*
X267819523Y-51548735D01*
X267916285Y-51597116D01*
X268109809Y-51597116D01*
X268206571Y-51548735D01*
X268013047Y-50581116D02*
X267771142Y-50629497D01*
X267529238Y-50774640D01*
X267384095Y-51016544D01*
X267335714Y-51258449D01*
X267384095Y-51500354D01*
X267529238Y-51742259D01*
X267771142Y-51887401D01*
X268013047Y-51935782D01*
X268254952Y-51887401D01*
X268496857Y-51742259D01*
X268642000Y-51500354D01*
X268690380Y-51258449D01*
X268642000Y-51016544D01*
X268496857Y-50774640D01*
X268254952Y-50629497D01*
X268013047Y-50581116D01*
X269077428Y-50823020D02*
X269125809Y-50774640D01*
X269222571Y-50726259D01*
X269464476Y-50726259D01*
X269561238Y-50774640D01*
X269609619Y-50823020D01*
X269658000Y-50919782D01*
X269658000Y-51016544D01*
X269609619Y-51161687D01*
X269029047Y-51742259D01*
X269658000Y-51742259D01*
X270286952Y-50726259D02*
X270383714Y-50726259D01*
X270480476Y-50774640D01*
X270528857Y-50823020D01*
X270577238Y-50919782D01*
X270625619Y-51113306D01*
X270625619Y-51355211D01*
X270577238Y-51548735D01*
X270528857Y-51645497D01*
X270480476Y-51693878D01*
X270383714Y-51742259D01*
X270286952Y-51742259D01*
X270190190Y-51693878D01*
X270141809Y-51645497D01*
X270093428Y-51548735D01*
X270045047Y-51355211D01*
X270045047Y-51113306D01*
X270093428Y-50919782D01*
X270141809Y-50823020D01*
X270190190Y-50774640D01*
X270286952Y-50726259D01*
X271012666Y-50823020D02*
X271061047Y-50774640D01*
X271157809Y-50726259D01*
X271399714Y-50726259D01*
X271496476Y-50774640D01*
X271544857Y-50823020D01*
X271593238Y-50919782D01*
X271593238Y-51016544D01*
X271544857Y-51161687D01*
X270964285Y-51742259D01*
X271593238Y-51742259D01*
X271931904Y-50726259D02*
X272560857Y-50726259D01*
X272222190Y-51113306D01*
X272367333Y-51113306D01*
X272464095Y-51161687D01*
X272512476Y-51210068D01*
X272560857Y-51306830D01*
X272560857Y-51548735D01*
X272512476Y-51645497D01*
X272464095Y-51693878D01*
X272367333Y-51742259D01*
X272077047Y-51742259D01*
X271980285Y-51693878D01*
X271931904Y-51645497D01*
X274350952Y-51645497D02*
X274302571Y-51693878D01*
X274157428Y-51742259D01*
X274060666Y-51742259D01*
X273915523Y-51693878D01*
X273818761Y-51597116D01*
X273770380Y-51500354D01*
X273722000Y-51306830D01*
X273722000Y-51161687D01*
X273770380Y-50968163D01*
X273818761Y-50871401D01*
X273915523Y-50774640D01*
X274060666Y-50726259D01*
X274157428Y-50726259D01*
X274302571Y-50774640D01*
X274350952Y-50823020D01*
X275366952Y-51645497D02*
X275318571Y-51693878D01*
X275173428Y-51742259D01*
X275076666Y-51742259D01*
X274931523Y-51693878D01*
X274834761Y-51597116D01*
X274786380Y-51500354D01*
X274738000Y-51306830D01*
X274738000Y-51161687D01*
X274786380Y-50968163D01*
X274834761Y-50871401D01*
X274931523Y-50774640D01*
X275076666Y-50726259D01*
X275173428Y-50726259D01*
X275318571Y-50774640D01*
X275366952Y-50823020D01*
X276915142Y-51210068D02*
X277060285Y-51258449D01*
X277108666Y-51306830D01*
X277157047Y-51403592D01*
X277157047Y-51548735D01*
X277108666Y-51645497D01*
X277060285Y-51693878D01*
X276963523Y-51742259D01*
X276576476Y-51742259D01*
X276576476Y-50726259D01*
X276915142Y-50726259D01*
X277011904Y-50774640D01*
X277060285Y-50823020D01*
X277108666Y-50919782D01*
X277108666Y-51016544D01*
X277060285Y-51113306D01*
X277011904Y-51161687D01*
X276915142Y-51210068D01*
X276576476Y-51210068D01*
X277786000Y-51258449D02*
X277786000Y-51742259D01*
X277447333Y-50726259D02*
X277786000Y-51258449D01*
X278124666Y-50726259D01*
X278463333Y-51355211D02*
X279237428Y-51355211D01*
X279672857Y-51693878D02*
X279818000Y-51742259D01*
X280059904Y-51742259D01*
X280156666Y-51693878D01*
X280205047Y-51645497D01*
X280253428Y-51548735D01*
X280253428Y-51451973D01*
X280205047Y-51355211D01*
X280156666Y-51306830D01*
X280059904Y-51258449D01*
X279866380Y-51210068D01*
X279769619Y-51161687D01*
X279721238Y-51113306D01*
X279672857Y-51016544D01*
X279672857Y-50919782D01*
X279721238Y-50823020D01*
X279769619Y-50774640D01*
X279866380Y-50726259D01*
X280108285Y-50726259D01*
X280253428Y-50774640D01*
X280640476Y-51451973D02*
X281124285Y-51451973D01*
X280543714Y-51742259D02*
X280882380Y-50726259D01*
X281221047Y-51742259D01*
D11*
X212384380Y-40653333D02*
X213098666Y-40653333D01*
X213241523Y-40700952D01*
X213336761Y-40796190D01*
X213384380Y-40939047D01*
X213384380Y-41034285D01*
X213384380Y-39653333D02*
X213384380Y-40224761D01*
X213384380Y-39939047D02*
X212384380Y-39939047D01*
X212527238Y-40034285D01*
X212622476Y-40129523D01*
X212670095Y-40224761D01*
X16804380Y-40653333D02*
X17518666Y-40653333D01*
X17661523Y-40700952D01*
X17756761Y-40796190D01*
X17804380Y-40939047D01*
X17804380Y-41034285D01*
X17804380Y-39653333D02*
X17804380Y-40224761D01*
X17804380Y-39939047D02*
X16804380Y-39939047D01*
X16947238Y-40034285D01*
X17042476Y-40129523D01*
X17090095Y-40224761D01*
X128564380Y-40653333D02*
X129278666Y-40653333D01*
X129421523Y-40700952D01*
X129516761Y-40796190D01*
X129564380Y-40939047D01*
X129564380Y-41034285D01*
X129564380Y-39653333D02*
X129564380Y-40224761D01*
X129564380Y-39939047D02*
X128564380Y-39939047D01*
X128707238Y-40034285D01*
X128802476Y-40129523D01*
X128850095Y-40224761D01*
X268264380Y-40653333D02*
X268978666Y-40653333D01*
X269121523Y-40700952D01*
X269216761Y-40796190D01*
X269264380Y-40939047D01*
X269264380Y-41034285D01*
X269264380Y-39653333D02*
X269264380Y-40224761D01*
X269264380Y-39939047D02*
X268264380Y-39939047D01*
X268407238Y-40034285D01*
X268502476Y-40129523D01*
X268550095Y-40224761D01*
X100624380Y-40653333D02*
X101338666Y-40653333D01*
X101481523Y-40700952D01*
X101576761Y-40796190D01*
X101624380Y-40939047D01*
X101624380Y-41034285D01*
X101624380Y-39653333D02*
X101624380Y-40224761D01*
X101624380Y-39939047D02*
X100624380Y-39939047D01*
X100767238Y-40034285D01*
X100862476Y-40129523D01*
X100910095Y-40224761D01*
X240324380Y-40653333D02*
X241038666Y-40653333D01*
X241181523Y-40700952D01*
X241276761Y-40796190D01*
X241324380Y-40939047D01*
X241324380Y-41034285D01*
X241324380Y-39653333D02*
X241324380Y-40224761D01*
X241324380Y-39939047D02*
X240324380Y-39939047D01*
X240467238Y-40034285D01*
X240562476Y-40129523D01*
X240610095Y-40224761D01*
X184444380Y-40653333D02*
X185158666Y-40653333D01*
X185301523Y-40700952D01*
X185396761Y-40796190D01*
X185444380Y-40939047D01*
X185444380Y-41034285D01*
X185444380Y-39653333D02*
X185444380Y-40224761D01*
X185444380Y-39939047D02*
X184444380Y-39939047D01*
X184587238Y-40034285D01*
X184682476Y-40129523D01*
X184730095Y-40224761D01*
X156504380Y-40653333D02*
X157218666Y-40653333D01*
X157361523Y-40700952D01*
X157456761Y-40796190D01*
X157504380Y-40939047D01*
X157504380Y-41034285D01*
X157504380Y-39653333D02*
X157504380Y-40224761D01*
X157504380Y-39939047D02*
X156504380Y-39939047D01*
X156647238Y-40034285D01*
X156742476Y-40129523D01*
X156790095Y-40224761D01*
X72684380Y-40653333D02*
X73398666Y-40653333D01*
X73541523Y-40700952D01*
X73636761Y-40796190D01*
X73684380Y-40939047D01*
X73684380Y-41034285D01*
X73684380Y-39653333D02*
X73684380Y-40224761D01*
X73684380Y-39939047D02*
X72684380Y-39939047D01*
X72827238Y-40034285D01*
X72922476Y-40129523D01*
X72970095Y-40224761D01*
X44744380Y-40653333D02*
X45458666Y-40653333D01*
X45601523Y-40700952D01*
X45696761Y-40796190D01*
X45744380Y-40939047D01*
X45744380Y-41034285D01*
X45744380Y-39653333D02*
X45744380Y-40224761D01*
X45744380Y-39939047D02*
X44744380Y-39939047D01*
X44887238Y-40034285D01*
X44982476Y-40129523D01*
X45030095Y-40224761D01*
D12*
X210737000Y-38260000D02*
X211727000Y-38260000D01*
X208237000Y-37210000D02*
X210737000Y-37210000D01*
X210737000Y-43430000D02*
X210737000Y-42380000D01*
X210737000Y-37210000D02*
X210737000Y-38260000D01*
X206267000Y-38380000D02*
X206267000Y-42260000D01*
X208237000Y-43430000D02*
X210737000Y-43430000D01*
X15157000Y-38260000D02*
X16147000Y-38260000D01*
X12657000Y-37210000D02*
X15157000Y-37210000D01*
X10687000Y-38380000D02*
X10687000Y-42260000D01*
X15157000Y-37210000D02*
X15157000Y-38260000D01*
X15157000Y-43430000D02*
X15157000Y-42380000D01*
X12657000Y-43430000D02*
X15157000Y-43430000D01*
X126917000Y-37210000D02*
X126917000Y-38260000D01*
X126917000Y-38260000D02*
X127907000Y-38260000D01*
X126917000Y-43430000D02*
X126917000Y-42380000D01*
X124417000Y-43430000D02*
X126917000Y-43430000D01*
X122447000Y-38380000D02*
X122447000Y-42260000D01*
X124417000Y-37210000D02*
X126917000Y-37210000D01*
X266617000Y-37210000D02*
X266617000Y-38260000D01*
X266617000Y-38260000D02*
X267607000Y-38260000D01*
X264117000Y-37210000D02*
X266617000Y-37210000D01*
X264117000Y-43430000D02*
X266617000Y-43430000D01*
X262147000Y-38380000D02*
X262147000Y-42260000D01*
X266617000Y-43430000D02*
X266617000Y-42380000D01*
X98977000Y-37210000D02*
X98977000Y-38260000D01*
X94507000Y-38380000D02*
X94507000Y-42260000D01*
X98977000Y-38260000D02*
X99967000Y-38260000D01*
X96477000Y-43430000D02*
X98977000Y-43430000D01*
X98977000Y-43430000D02*
X98977000Y-42380000D01*
X96477000Y-37210000D02*
X98977000Y-37210000D01*
X236177000Y-43430000D02*
X238677000Y-43430000D01*
X236177000Y-37210000D02*
X238677000Y-37210000D01*
X238677000Y-38260000D02*
X239667000Y-38260000D01*
X238677000Y-37210000D02*
X238677000Y-38260000D01*
X234207000Y-38380000D02*
X234207000Y-42260000D01*
X238677000Y-43430000D02*
X238677000Y-42380000D01*
X182797000Y-38260000D02*
X183787000Y-38260000D01*
X178327000Y-38380000D02*
X178327000Y-42260000D01*
X182797000Y-43430000D02*
X182797000Y-42380000D01*
X182797000Y-37210000D02*
X182797000Y-38260000D01*
X180297000Y-43430000D02*
X182797000Y-43430000D01*
X180297000Y-37210000D02*
X182797000Y-37210000D01*
X152357000Y-37210000D02*
X154857000Y-37210000D01*
X154857000Y-43430000D02*
X154857000Y-42380000D01*
X150387000Y-38380000D02*
X150387000Y-42260000D01*
X154857000Y-38260000D02*
X155847000Y-38260000D01*
X152357000Y-43430000D02*
X154857000Y-43430000D01*
X154857000Y-37210000D02*
X154857000Y-38260000D01*
X68537000Y-43430000D02*
X71037000Y-43430000D01*
X71037000Y-38260000D02*
X72027000Y-38260000D01*
X68537000Y-37210000D02*
X71037000Y-37210000D01*
X71037000Y-43430000D02*
X71037000Y-42380000D01*
X71037000Y-37210000D02*
X71037000Y-38260000D01*
X66567000Y-38380000D02*
X66567000Y-42260000D01*
X43097000Y-43430000D02*
X43097000Y-42380000D01*
X38627000Y-38380000D02*
X38627000Y-42260000D01*
X40597000Y-43430000D02*
X43097000Y-43430000D01*
X43097000Y-37210000D02*
X43097000Y-38260000D01*
X40597000Y-37210000D02*
X43097000Y-37210000D01*
X43097000Y-38260000D02*
X44087000Y-38260000D01*
M02*
