G04 #@! TF.GenerationSoftware,KiCad,Pcbnew,6.0.2+dfsg-1*
G04 #@! TF.CreationDate,2023-03-16T21:42:12-06:00*
G04 #@! TF.ProjectId,ckt-dingdong-spk-array,636b742d-6469-46e6-9764-6f6e672d7370,rev?*
G04 #@! TF.SameCoordinates,Original*
G04 #@! TF.FileFunction,Legend,Bot*
G04 #@! TF.FilePolarity,Positive*
%FSLAX46Y46*%
G04 Gerber Fmt 4.6, Leading zero omitted, Abs format (unit mm)*
G04 Created by KiCad (PCBNEW 6.0.2+dfsg-1) date 2023-03-16 21:42:12*
%MOMM*%
%LPD*%
G01*
G04 APERTURE LIST*
%ADD10C,0.150000*%
%ADD11C,0.120000*%
G04 APERTURE END LIST*
D10*
X192171904Y-37684761D02*
X192029047Y-37732380D01*
X191790952Y-37732380D01*
X191695714Y-37684761D01*
X191648095Y-37637142D01*
X191600476Y-37541904D01*
X191600476Y-37446666D01*
X191648095Y-37351428D01*
X191695714Y-37303809D01*
X191790952Y-37256190D01*
X191981428Y-37208571D01*
X192076666Y-37160952D01*
X192124285Y-37113333D01*
X192171904Y-37018095D01*
X192171904Y-36922857D01*
X192124285Y-36827619D01*
X192076666Y-36780000D01*
X191981428Y-36732380D01*
X191743333Y-36732380D01*
X191600476Y-36780000D01*
X191171904Y-37732380D02*
X191171904Y-36732380D01*
X190790952Y-36732380D01*
X190695714Y-36780000D01*
X190648095Y-36827619D01*
X190600476Y-36922857D01*
X190600476Y-37065714D01*
X190648095Y-37160952D01*
X190695714Y-37208571D01*
X190790952Y-37256190D01*
X191171904Y-37256190D01*
X190171904Y-37732380D02*
X190171904Y-36732380D01*
X189600476Y-37732380D02*
X190029047Y-37160952D01*
X189600476Y-36732380D02*
X190171904Y-37303809D01*
X188648095Y-37732380D02*
X189219523Y-37732380D01*
X188933809Y-37732380D02*
X188933809Y-36732380D01*
X189029047Y-36875238D01*
X189124285Y-36970476D01*
X189219523Y-37018095D01*
X248051904Y-37684761D02*
X247909047Y-37732380D01*
X247670952Y-37732380D01*
X247575714Y-37684761D01*
X247528095Y-37637142D01*
X247480476Y-37541904D01*
X247480476Y-37446666D01*
X247528095Y-37351428D01*
X247575714Y-37303809D01*
X247670952Y-37256190D01*
X247861428Y-37208571D01*
X247956666Y-37160952D01*
X248004285Y-37113333D01*
X248051904Y-37018095D01*
X248051904Y-36922857D01*
X248004285Y-36827619D01*
X247956666Y-36780000D01*
X247861428Y-36732380D01*
X247623333Y-36732380D01*
X247480476Y-36780000D01*
X247051904Y-37732380D02*
X247051904Y-36732380D01*
X246670952Y-36732380D01*
X246575714Y-36780000D01*
X246528095Y-36827619D01*
X246480476Y-36922857D01*
X246480476Y-37065714D01*
X246528095Y-37160952D01*
X246575714Y-37208571D01*
X246670952Y-37256190D01*
X247051904Y-37256190D01*
X246051904Y-37732380D02*
X246051904Y-36732380D01*
X245480476Y-37732380D02*
X245909047Y-37160952D01*
X245480476Y-36732380D02*
X246051904Y-37303809D01*
X244528095Y-37732380D02*
X245099523Y-37732380D01*
X244813809Y-37732380D02*
X244813809Y-36732380D01*
X244909047Y-36875238D01*
X245004285Y-36970476D01*
X245099523Y-37018095D01*
X275991904Y-37684761D02*
X275849047Y-37732380D01*
X275610952Y-37732380D01*
X275515714Y-37684761D01*
X275468095Y-37637142D01*
X275420476Y-37541904D01*
X275420476Y-37446666D01*
X275468095Y-37351428D01*
X275515714Y-37303809D01*
X275610952Y-37256190D01*
X275801428Y-37208571D01*
X275896666Y-37160952D01*
X275944285Y-37113333D01*
X275991904Y-37018095D01*
X275991904Y-36922857D01*
X275944285Y-36827619D01*
X275896666Y-36780000D01*
X275801428Y-36732380D01*
X275563333Y-36732380D01*
X275420476Y-36780000D01*
X274991904Y-37732380D02*
X274991904Y-36732380D01*
X274610952Y-36732380D01*
X274515714Y-36780000D01*
X274468095Y-36827619D01*
X274420476Y-36922857D01*
X274420476Y-37065714D01*
X274468095Y-37160952D01*
X274515714Y-37208571D01*
X274610952Y-37256190D01*
X274991904Y-37256190D01*
X273991904Y-37732380D02*
X273991904Y-36732380D01*
X273420476Y-37732380D02*
X273849047Y-37160952D01*
X273420476Y-36732380D02*
X273991904Y-37303809D01*
X272468095Y-37732380D02*
X273039523Y-37732380D01*
X272753809Y-37732380D02*
X272753809Y-36732380D01*
X272849047Y-36875238D01*
X272944285Y-36970476D01*
X273039523Y-37018095D01*
X108351904Y-37684761D02*
X108209047Y-37732380D01*
X107970952Y-37732380D01*
X107875714Y-37684761D01*
X107828095Y-37637142D01*
X107780476Y-37541904D01*
X107780476Y-37446666D01*
X107828095Y-37351428D01*
X107875714Y-37303809D01*
X107970952Y-37256190D01*
X108161428Y-37208571D01*
X108256666Y-37160952D01*
X108304285Y-37113333D01*
X108351904Y-37018095D01*
X108351904Y-36922857D01*
X108304285Y-36827619D01*
X108256666Y-36780000D01*
X108161428Y-36732380D01*
X107923333Y-36732380D01*
X107780476Y-36780000D01*
X107351904Y-37732380D02*
X107351904Y-36732380D01*
X106970952Y-36732380D01*
X106875714Y-36780000D01*
X106828095Y-36827619D01*
X106780476Y-36922857D01*
X106780476Y-37065714D01*
X106828095Y-37160952D01*
X106875714Y-37208571D01*
X106970952Y-37256190D01*
X107351904Y-37256190D01*
X106351904Y-37732380D02*
X106351904Y-36732380D01*
X105780476Y-37732380D02*
X106209047Y-37160952D01*
X105780476Y-36732380D02*
X106351904Y-37303809D01*
X104828095Y-37732380D02*
X105399523Y-37732380D01*
X105113809Y-37732380D02*
X105113809Y-36732380D01*
X105209047Y-36875238D01*
X105304285Y-36970476D01*
X105399523Y-37018095D01*
X24531904Y-37684761D02*
X24389047Y-37732380D01*
X24150952Y-37732380D01*
X24055714Y-37684761D01*
X24008095Y-37637142D01*
X23960476Y-37541904D01*
X23960476Y-37446666D01*
X24008095Y-37351428D01*
X24055714Y-37303809D01*
X24150952Y-37256190D01*
X24341428Y-37208571D01*
X24436666Y-37160952D01*
X24484285Y-37113333D01*
X24531904Y-37018095D01*
X24531904Y-36922857D01*
X24484285Y-36827619D01*
X24436666Y-36780000D01*
X24341428Y-36732380D01*
X24103333Y-36732380D01*
X23960476Y-36780000D01*
X23531904Y-37732380D02*
X23531904Y-36732380D01*
X23150952Y-36732380D01*
X23055714Y-36780000D01*
X23008095Y-36827619D01*
X22960476Y-36922857D01*
X22960476Y-37065714D01*
X23008095Y-37160952D01*
X23055714Y-37208571D01*
X23150952Y-37256190D01*
X23531904Y-37256190D01*
X22531904Y-37732380D02*
X22531904Y-36732380D01*
X21960476Y-37732380D02*
X22389047Y-37160952D01*
X21960476Y-36732380D02*
X22531904Y-37303809D01*
X21008095Y-37732380D02*
X21579523Y-37732380D01*
X21293809Y-37732380D02*
X21293809Y-36732380D01*
X21389047Y-36875238D01*
X21484285Y-36970476D01*
X21579523Y-37018095D01*
X80411904Y-37684761D02*
X80269047Y-37732380D01*
X80030952Y-37732380D01*
X79935714Y-37684761D01*
X79888095Y-37637142D01*
X79840476Y-37541904D01*
X79840476Y-37446666D01*
X79888095Y-37351428D01*
X79935714Y-37303809D01*
X80030952Y-37256190D01*
X80221428Y-37208571D01*
X80316666Y-37160952D01*
X80364285Y-37113333D01*
X80411904Y-37018095D01*
X80411904Y-36922857D01*
X80364285Y-36827619D01*
X80316666Y-36780000D01*
X80221428Y-36732380D01*
X79983333Y-36732380D01*
X79840476Y-36780000D01*
X79411904Y-37732380D02*
X79411904Y-36732380D01*
X79030952Y-36732380D01*
X78935714Y-36780000D01*
X78888095Y-36827619D01*
X78840476Y-36922857D01*
X78840476Y-37065714D01*
X78888095Y-37160952D01*
X78935714Y-37208571D01*
X79030952Y-37256190D01*
X79411904Y-37256190D01*
X78411904Y-37732380D02*
X78411904Y-36732380D01*
X77840476Y-37732380D02*
X78269047Y-37160952D01*
X77840476Y-36732380D02*
X78411904Y-37303809D01*
X76888095Y-37732380D02*
X77459523Y-37732380D01*
X77173809Y-37732380D02*
X77173809Y-36732380D01*
X77269047Y-36875238D01*
X77364285Y-36970476D01*
X77459523Y-37018095D01*
X52471904Y-37684761D02*
X52329047Y-37732380D01*
X52090952Y-37732380D01*
X51995714Y-37684761D01*
X51948095Y-37637142D01*
X51900476Y-37541904D01*
X51900476Y-37446666D01*
X51948095Y-37351428D01*
X51995714Y-37303809D01*
X52090952Y-37256190D01*
X52281428Y-37208571D01*
X52376666Y-37160952D01*
X52424285Y-37113333D01*
X52471904Y-37018095D01*
X52471904Y-36922857D01*
X52424285Y-36827619D01*
X52376666Y-36780000D01*
X52281428Y-36732380D01*
X52043333Y-36732380D01*
X51900476Y-36780000D01*
X51471904Y-37732380D02*
X51471904Y-36732380D01*
X51090952Y-36732380D01*
X50995714Y-36780000D01*
X50948095Y-36827619D01*
X50900476Y-36922857D01*
X50900476Y-37065714D01*
X50948095Y-37160952D01*
X50995714Y-37208571D01*
X51090952Y-37256190D01*
X51471904Y-37256190D01*
X50471904Y-37732380D02*
X50471904Y-36732380D01*
X49900476Y-37732380D02*
X50329047Y-37160952D01*
X49900476Y-36732380D02*
X50471904Y-37303809D01*
X48948095Y-37732380D02*
X49519523Y-37732380D01*
X49233809Y-37732380D02*
X49233809Y-36732380D01*
X49329047Y-36875238D01*
X49424285Y-36970476D01*
X49519523Y-37018095D01*
X164231904Y-37684761D02*
X164089047Y-37732380D01*
X163850952Y-37732380D01*
X163755714Y-37684761D01*
X163708095Y-37637142D01*
X163660476Y-37541904D01*
X163660476Y-37446666D01*
X163708095Y-37351428D01*
X163755714Y-37303809D01*
X163850952Y-37256190D01*
X164041428Y-37208571D01*
X164136666Y-37160952D01*
X164184285Y-37113333D01*
X164231904Y-37018095D01*
X164231904Y-36922857D01*
X164184285Y-36827619D01*
X164136666Y-36780000D01*
X164041428Y-36732380D01*
X163803333Y-36732380D01*
X163660476Y-36780000D01*
X163231904Y-37732380D02*
X163231904Y-36732380D01*
X162850952Y-36732380D01*
X162755714Y-36780000D01*
X162708095Y-36827619D01*
X162660476Y-36922857D01*
X162660476Y-37065714D01*
X162708095Y-37160952D01*
X162755714Y-37208571D01*
X162850952Y-37256190D01*
X163231904Y-37256190D01*
X162231904Y-37732380D02*
X162231904Y-36732380D01*
X161660476Y-37732380D02*
X162089047Y-37160952D01*
X161660476Y-36732380D02*
X162231904Y-37303809D01*
X160708095Y-37732380D02*
X161279523Y-37732380D01*
X160993809Y-37732380D02*
X160993809Y-36732380D01*
X161089047Y-36875238D01*
X161184285Y-36970476D01*
X161279523Y-37018095D01*
X220111904Y-37684761D02*
X219969047Y-37732380D01*
X219730952Y-37732380D01*
X219635714Y-37684761D01*
X219588095Y-37637142D01*
X219540476Y-37541904D01*
X219540476Y-37446666D01*
X219588095Y-37351428D01*
X219635714Y-37303809D01*
X219730952Y-37256190D01*
X219921428Y-37208571D01*
X220016666Y-37160952D01*
X220064285Y-37113333D01*
X220111904Y-37018095D01*
X220111904Y-36922857D01*
X220064285Y-36827619D01*
X220016666Y-36780000D01*
X219921428Y-36732380D01*
X219683333Y-36732380D01*
X219540476Y-36780000D01*
X219111904Y-37732380D02*
X219111904Y-36732380D01*
X218730952Y-36732380D01*
X218635714Y-36780000D01*
X218588095Y-36827619D01*
X218540476Y-36922857D01*
X218540476Y-37065714D01*
X218588095Y-37160952D01*
X218635714Y-37208571D01*
X218730952Y-37256190D01*
X219111904Y-37256190D01*
X218111904Y-37732380D02*
X218111904Y-36732380D01*
X217540476Y-37732380D02*
X217969047Y-37160952D01*
X217540476Y-36732380D02*
X218111904Y-37303809D01*
X216588095Y-37732380D02*
X217159523Y-37732380D01*
X216873809Y-37732380D02*
X216873809Y-36732380D01*
X216969047Y-36875238D01*
X217064285Y-36970476D01*
X217159523Y-37018095D01*
X136291904Y-37684761D02*
X136149047Y-37732380D01*
X135910952Y-37732380D01*
X135815714Y-37684761D01*
X135768095Y-37637142D01*
X135720476Y-37541904D01*
X135720476Y-37446666D01*
X135768095Y-37351428D01*
X135815714Y-37303809D01*
X135910952Y-37256190D01*
X136101428Y-37208571D01*
X136196666Y-37160952D01*
X136244285Y-37113333D01*
X136291904Y-37018095D01*
X136291904Y-36922857D01*
X136244285Y-36827619D01*
X136196666Y-36780000D01*
X136101428Y-36732380D01*
X135863333Y-36732380D01*
X135720476Y-36780000D01*
X135291904Y-37732380D02*
X135291904Y-36732380D01*
X134910952Y-36732380D01*
X134815714Y-36780000D01*
X134768095Y-36827619D01*
X134720476Y-36922857D01*
X134720476Y-37065714D01*
X134768095Y-37160952D01*
X134815714Y-37208571D01*
X134910952Y-37256190D01*
X135291904Y-37256190D01*
X134291904Y-37732380D02*
X134291904Y-36732380D01*
X133720476Y-37732380D02*
X134149047Y-37160952D01*
X133720476Y-36732380D02*
X134291904Y-37303809D01*
X132768095Y-37732380D02*
X133339523Y-37732380D01*
X133053809Y-37732380D02*
X133053809Y-36732380D01*
X133149047Y-36875238D01*
X133244285Y-36970476D01*
X133339523Y-37018095D01*
D11*
X196410000Y-31280000D02*
X184410000Y-31280000D01*
X181410000Y-44280000D02*
X199410000Y-44280000D01*
X199410000Y-44280000D02*
X199410000Y-34280000D01*
X181410000Y-34280000D02*
X181410000Y-44280000D01*
X252290000Y-31280000D02*
X240290000Y-31280000D01*
X237290000Y-44280000D02*
X255290000Y-44280000D01*
X237290000Y-34280000D02*
X237290000Y-44280000D01*
X255290000Y-44280000D02*
X255290000Y-34280000D01*
X265230000Y-44280000D02*
X283230000Y-44280000D01*
X265230000Y-34280000D02*
X265230000Y-44280000D01*
X280230000Y-31280000D02*
X268230000Y-31280000D01*
X283230000Y-44280000D02*
X283230000Y-34280000D01*
X97590000Y-34280000D02*
X97590000Y-44280000D01*
X97590000Y-44280000D02*
X115590000Y-44280000D01*
X112590000Y-31280000D02*
X100590000Y-31280000D01*
X115590000Y-44280000D02*
X115590000Y-34280000D01*
X13770000Y-44280000D02*
X31770000Y-44280000D01*
X13770000Y-34280000D02*
X13770000Y-44280000D01*
X28770000Y-31280000D02*
X16770000Y-31280000D01*
X31770000Y-44280000D02*
X31770000Y-34280000D01*
X69650000Y-34280000D02*
X69650000Y-44280000D01*
X84650000Y-31280000D02*
X72650000Y-31280000D01*
X69650000Y-44280000D02*
X87650000Y-44280000D01*
X87650000Y-44280000D02*
X87650000Y-34280000D01*
X41710000Y-34280000D02*
X41710000Y-44280000D01*
X41710000Y-44280000D02*
X59710000Y-44280000D01*
X59710000Y-44280000D02*
X59710000Y-34280000D01*
X56710000Y-31280000D02*
X44710000Y-31280000D01*
X153470000Y-44280000D02*
X171470000Y-44280000D01*
X171470000Y-44280000D02*
X171470000Y-34280000D01*
X153470000Y-34280000D02*
X153470000Y-44280000D01*
X168470000Y-31280000D02*
X156470000Y-31280000D01*
X227350000Y-44280000D02*
X227350000Y-34280000D01*
X209350000Y-44280000D02*
X227350000Y-44280000D01*
X224350000Y-31280000D02*
X212350000Y-31280000D01*
X209350000Y-34280000D02*
X209350000Y-44280000D01*
X125530000Y-34280000D02*
X125530000Y-44280000D01*
X125530000Y-44280000D02*
X143530000Y-44280000D01*
X143530000Y-44280000D02*
X143530000Y-34280000D01*
X140530000Y-31280000D02*
X128530000Y-31280000D01*
M02*
