G04 #@! TF.GenerationSoftware,KiCad,Pcbnew,6.0.2+dfsg-1*
G04 #@! TF.CreationDate,2023-03-16T21:42:12-06:00*
G04 #@! TF.ProjectId,ckt-dingdong-spk-array,636b742d-6469-46e6-9764-6f6e672d7370,rev?*
G04 #@! TF.SameCoordinates,Original*
G04 #@! TF.FileFunction,Soldermask,Bot*
G04 #@! TF.FilePolarity,Negative*
%FSLAX46Y46*%
G04 Gerber Fmt 4.6, Leading zero omitted, Abs format (unit mm)*
G04 Created by KiCad (PCBNEW 6.0.2+dfsg-1) date 2023-03-16 21:42:12*
%MOMM*%
%LPD*%
G01*
G04 APERTURE LIST*
%ADD10C,0.500000*%
%ADD11C,2.000000*%
G04 APERTURE END LIST*
D10*
X10070000Y-58946666D03*
X275500000Y-27620000D03*
X10070000Y-55560000D03*
X286930000Y-58100000D03*
X23193333Y-53020000D03*
X190833333Y-27620000D03*
X10070000Y-22540000D03*
X247560000Y-27620000D03*
X217926666Y-53020000D03*
X4990000Y-27620000D03*
X10070000Y-60640000D03*
X134106666Y-53020000D03*
X7530000Y-27620000D03*
X49440000Y-53020000D03*
X133260000Y-27620000D03*
X289470000Y-27620000D03*
X218773333Y-27620000D03*
X274653333Y-53020000D03*
X105320000Y-27620000D03*
X6683334Y-53020000D03*
X272960000Y-27620000D03*
X286930000Y-22540000D03*
X286930000Y-20000000D03*
X286930000Y-58946666D03*
X10070000Y-20846667D03*
X217926666Y-27620000D03*
X291163333Y-27620000D03*
X21500000Y-27620000D03*
X191680000Y-53020000D03*
X292856666Y-53020000D03*
X105320000Y-53020000D03*
X51133333Y-53020000D03*
X107860000Y-27620000D03*
X286930000Y-55560000D03*
X107013333Y-27620000D03*
X274653333Y-27620000D03*
X189986666Y-53020000D03*
X189140000Y-53020000D03*
X10070000Y-24233334D03*
X10070000Y-20000000D03*
X272960000Y-53020000D03*
X293703333Y-27620000D03*
X78226666Y-53020000D03*
X107013333Y-53020000D03*
X2450000Y-27620000D03*
X4143334Y-27620000D03*
X190833333Y-53020000D03*
X49440000Y-27620000D03*
X106166666Y-27620000D03*
X246713333Y-27620000D03*
X161200000Y-27620000D03*
X162046666Y-27620000D03*
X50286666Y-27620000D03*
X294550000Y-53020000D03*
X10070000Y-21693334D03*
X24040000Y-27620000D03*
X246713333Y-53020000D03*
X286930000Y-23386667D03*
X135800000Y-27620000D03*
X191680000Y-27620000D03*
X107860000Y-53020000D03*
X22346667Y-53020000D03*
X51980000Y-53020000D03*
X290316666Y-53020000D03*
X51980000Y-27620000D03*
X290316666Y-27620000D03*
X10070000Y-57253333D03*
X292010000Y-53020000D03*
X289470000Y-53020000D03*
X7530000Y-53020000D03*
X21500000Y-53020000D03*
X291163333Y-53020000D03*
X135800000Y-53020000D03*
X2450000Y-53020000D03*
X133260000Y-53020000D03*
X106166666Y-53020000D03*
X134953333Y-53020000D03*
X5836667Y-53020000D03*
X245020000Y-53020000D03*
X162893333Y-27620000D03*
X51133333Y-27620000D03*
X10070000Y-25080000D03*
X189140000Y-27620000D03*
X22346667Y-27620000D03*
X79073333Y-53020000D03*
X10070000Y-58100000D03*
X79920000Y-53020000D03*
X50286666Y-53020000D03*
X4990000Y-53020000D03*
X23193333Y-27620000D03*
X286930000Y-57253333D03*
X163740000Y-53020000D03*
X245020000Y-27620000D03*
X3296667Y-27620000D03*
X286930000Y-59793333D03*
X292856666Y-27620000D03*
X77380000Y-27620000D03*
X217080000Y-27620000D03*
X247560000Y-53020000D03*
X273806666Y-27620000D03*
X286930000Y-24233334D03*
X273806666Y-53020000D03*
X6683334Y-27620000D03*
X245866666Y-53020000D03*
X78226666Y-27620000D03*
X286930000Y-25080000D03*
X77380000Y-53020000D03*
X162893333Y-53020000D03*
X79073333Y-27620000D03*
X10070000Y-59793333D03*
X286930000Y-20846667D03*
X189986666Y-27620000D03*
X245866666Y-27620000D03*
X5836667Y-27620000D03*
X218773333Y-53020000D03*
X134106666Y-27620000D03*
X3296667Y-53020000D03*
X219620000Y-27620000D03*
X79920000Y-27620000D03*
X134953333Y-27620000D03*
X163740000Y-27620000D03*
X292010000Y-27620000D03*
X161200000Y-53020000D03*
X293703333Y-53020000D03*
X10070000Y-23386667D03*
X10070000Y-56406666D03*
X286930000Y-21693334D03*
X294550000Y-27620000D03*
X275500000Y-53020000D03*
X219620000Y-53020000D03*
X162046666Y-53020000D03*
X286930000Y-60640000D03*
X286930000Y-56406666D03*
X217080000Y-53020000D03*
X24040000Y-53020000D03*
X4143334Y-53020000D03*
D11*
X4990000Y-50480000D03*
G36*
G01*
X199486200Y-31905000D02*
X199486200Y-33155000D01*
G75*
G02*
X198785000Y-33856200I-701200J0D01*
G01*
X197535000Y-33856200D01*
G75*
G02*
X196833800Y-33155000I0J701200D01*
G01*
X196833800Y-31905000D01*
G75*
G02*
X197535000Y-31203800I701200J0D01*
G01*
X198785000Y-31203800D01*
G75*
G02*
X199486200Y-31905000I0J-701200D01*
G01*
G37*
G36*
G01*
X183986200Y-31905000D02*
X183986200Y-33155000D01*
G75*
G02*
X183285000Y-33856200I-701200J0D01*
G01*
X182035000Y-33856200D01*
G75*
G02*
X181333800Y-33155000I0J701200D01*
G01*
X181333800Y-31905000D01*
G75*
G02*
X182035000Y-31203800I701200J0D01*
G01*
X183285000Y-31203800D01*
G75*
G02*
X183986200Y-31905000I0J-701200D01*
G01*
G37*
G36*
G01*
X255366200Y-31905000D02*
X255366200Y-33155000D01*
G75*
G02*
X254665000Y-33856200I-701200J0D01*
G01*
X253415000Y-33856200D01*
G75*
G02*
X252713800Y-33155000I0J701200D01*
G01*
X252713800Y-31905000D01*
G75*
G02*
X253415000Y-31203800I701200J0D01*
G01*
X254665000Y-31203800D01*
G75*
G02*
X255366200Y-31905000I0J-701200D01*
G01*
G37*
G36*
G01*
X239866200Y-31905000D02*
X239866200Y-33155000D01*
G75*
G02*
X239165000Y-33856200I-701200J0D01*
G01*
X237915000Y-33856200D01*
G75*
G02*
X237213800Y-33155000I0J701200D01*
G01*
X237213800Y-31905000D01*
G75*
G02*
X237915000Y-31203800I701200J0D01*
G01*
X239165000Y-31203800D01*
G75*
G02*
X239866200Y-31905000I0J-701200D01*
G01*
G37*
G36*
G01*
X283306200Y-31905000D02*
X283306200Y-33155000D01*
G75*
G02*
X282605000Y-33856200I-701200J0D01*
G01*
X281355000Y-33856200D01*
G75*
G02*
X280653800Y-33155000I0J701200D01*
G01*
X280653800Y-31905000D01*
G75*
G02*
X281355000Y-31203800I701200J0D01*
G01*
X282605000Y-31203800D01*
G75*
G02*
X283306200Y-31905000I0J-701200D01*
G01*
G37*
G36*
G01*
X267806200Y-31905000D02*
X267806200Y-33155000D01*
G75*
G02*
X267105000Y-33856200I-701200J0D01*
G01*
X265855000Y-33856200D01*
G75*
G02*
X265153800Y-33155000I0J701200D01*
G01*
X265153800Y-31905000D01*
G75*
G02*
X265855000Y-31203800I701200J0D01*
G01*
X267105000Y-31203800D01*
G75*
G02*
X267806200Y-31905000I0J-701200D01*
G01*
G37*
G36*
G01*
X115666200Y-31905000D02*
X115666200Y-33155000D01*
G75*
G02*
X114965000Y-33856200I-701200J0D01*
G01*
X113715000Y-33856200D01*
G75*
G02*
X113013800Y-33155000I0J701200D01*
G01*
X113013800Y-31905000D01*
G75*
G02*
X113715000Y-31203800I701200J0D01*
G01*
X114965000Y-31203800D01*
G75*
G02*
X115666200Y-31905000I0J-701200D01*
G01*
G37*
G36*
G01*
X100166200Y-31905000D02*
X100166200Y-33155000D01*
G75*
G02*
X99465000Y-33856200I-701200J0D01*
G01*
X98215000Y-33856200D01*
G75*
G02*
X97513800Y-33155000I0J701200D01*
G01*
X97513800Y-31905000D01*
G75*
G02*
X98215000Y-31203800I701200J0D01*
G01*
X99465000Y-31203800D01*
G75*
G02*
X100166200Y-31905000I0J-701200D01*
G01*
G37*
G36*
G01*
X31846200Y-31905000D02*
X31846200Y-33155000D01*
G75*
G02*
X31145000Y-33856200I-701200J0D01*
G01*
X29895000Y-33856200D01*
G75*
G02*
X29193800Y-33155000I0J701200D01*
G01*
X29193800Y-31905000D01*
G75*
G02*
X29895000Y-31203800I701200J0D01*
G01*
X31145000Y-31203800D01*
G75*
G02*
X31846200Y-31905000I0J-701200D01*
G01*
G37*
G36*
G01*
X16346200Y-31905000D02*
X16346200Y-33155000D01*
G75*
G02*
X15645000Y-33856200I-701200J0D01*
G01*
X14395000Y-33856200D01*
G75*
G02*
X13693800Y-33155000I0J701200D01*
G01*
X13693800Y-31905000D01*
G75*
G02*
X14395000Y-31203800I701200J0D01*
G01*
X15645000Y-31203800D01*
G75*
G02*
X16346200Y-31905000I0J-701200D01*
G01*
G37*
G36*
G01*
X87726200Y-31905000D02*
X87726200Y-33155000D01*
G75*
G02*
X87025000Y-33856200I-701200J0D01*
G01*
X85775000Y-33856200D01*
G75*
G02*
X85073800Y-33155000I0J701200D01*
G01*
X85073800Y-31905000D01*
G75*
G02*
X85775000Y-31203800I701200J0D01*
G01*
X87025000Y-31203800D01*
G75*
G02*
X87726200Y-31905000I0J-701200D01*
G01*
G37*
G36*
G01*
X72226200Y-31905000D02*
X72226200Y-33155000D01*
G75*
G02*
X71525000Y-33856200I-701200J0D01*
G01*
X70275000Y-33856200D01*
G75*
G02*
X69573800Y-33155000I0J701200D01*
G01*
X69573800Y-31905000D01*
G75*
G02*
X70275000Y-31203800I701200J0D01*
G01*
X71525000Y-31203800D01*
G75*
G02*
X72226200Y-31905000I0J-701200D01*
G01*
G37*
G36*
G01*
X59786200Y-31905000D02*
X59786200Y-33155000D01*
G75*
G02*
X59085000Y-33856200I-701200J0D01*
G01*
X57835000Y-33856200D01*
G75*
G02*
X57133800Y-33155000I0J701200D01*
G01*
X57133800Y-31905000D01*
G75*
G02*
X57835000Y-31203800I701200J0D01*
G01*
X59085000Y-31203800D01*
G75*
G02*
X59786200Y-31905000I0J-701200D01*
G01*
G37*
G36*
G01*
X44286200Y-31905000D02*
X44286200Y-33155000D01*
G75*
G02*
X43585000Y-33856200I-701200J0D01*
G01*
X42335000Y-33856200D01*
G75*
G02*
X41633800Y-33155000I0J701200D01*
G01*
X41633800Y-31905000D01*
G75*
G02*
X42335000Y-31203800I701200J0D01*
G01*
X43585000Y-31203800D01*
G75*
G02*
X44286200Y-31905000I0J-701200D01*
G01*
G37*
X292010000Y-30160000D03*
X4990000Y-30160000D03*
G36*
G01*
X171546200Y-31905000D02*
X171546200Y-33155000D01*
G75*
G02*
X170845000Y-33856200I-701200J0D01*
G01*
X169595000Y-33856200D01*
G75*
G02*
X168893800Y-33155000I0J701200D01*
G01*
X168893800Y-31905000D01*
G75*
G02*
X169595000Y-31203800I701200J0D01*
G01*
X170845000Y-31203800D01*
G75*
G02*
X171546200Y-31905000I0J-701200D01*
G01*
G37*
G36*
G01*
X156046200Y-31905000D02*
X156046200Y-33155000D01*
G75*
G02*
X155345000Y-33856200I-701200J0D01*
G01*
X154095000Y-33856200D01*
G75*
G02*
X153393800Y-33155000I0J701200D01*
G01*
X153393800Y-31905000D01*
G75*
G02*
X154095000Y-31203800I701200J0D01*
G01*
X155345000Y-31203800D01*
G75*
G02*
X156046200Y-31905000I0J-701200D01*
G01*
G37*
G36*
G01*
X227426200Y-31905000D02*
X227426200Y-33155000D01*
G75*
G02*
X226725000Y-33856200I-701200J0D01*
G01*
X225475000Y-33856200D01*
G75*
G02*
X224773800Y-33155000I0J701200D01*
G01*
X224773800Y-31905000D01*
G75*
G02*
X225475000Y-31203800I701200J0D01*
G01*
X226725000Y-31203800D01*
G75*
G02*
X227426200Y-31905000I0J-701200D01*
G01*
G37*
G36*
G01*
X211926200Y-31905000D02*
X211926200Y-33155000D01*
G75*
G02*
X211225000Y-33856200I-701200J0D01*
G01*
X209975000Y-33856200D01*
G75*
G02*
X209273800Y-33155000I0J701200D01*
G01*
X209273800Y-31905000D01*
G75*
G02*
X209975000Y-31203800I701200J0D01*
G01*
X211225000Y-31203800D01*
G75*
G02*
X211926200Y-31905000I0J-701200D01*
G01*
G37*
G36*
G01*
X143606200Y-31905000D02*
X143606200Y-33155000D01*
G75*
G02*
X142905000Y-33856200I-701200J0D01*
G01*
X141655000Y-33856200D01*
G75*
G02*
X140953800Y-33155000I0J701200D01*
G01*
X140953800Y-31905000D01*
G75*
G02*
X141655000Y-31203800I701200J0D01*
G01*
X142905000Y-31203800D01*
G75*
G02*
X143606200Y-31905000I0J-701200D01*
G01*
G37*
G36*
G01*
X128106200Y-31905000D02*
X128106200Y-33155000D01*
G75*
G02*
X127405000Y-33856200I-701200J0D01*
G01*
X126155000Y-33856200D01*
G75*
G02*
X125453800Y-33155000I0J701200D01*
G01*
X125453800Y-31905000D01*
G75*
G02*
X126155000Y-31203800I701200J0D01*
G01*
X127405000Y-31203800D01*
G75*
G02*
X128106200Y-31905000I0J-701200D01*
G01*
G37*
M02*
