M48
INCH,TZ
T1C0.0120
%
G90
G05
T1
X5915Y-11624
X6065Y-14874
X6865Y-15424
X6865Y-16424
X7365Y-14874
X12015Y-11624
X16915Y-11624
X17065Y-14874
X17865Y-15424
X17865Y-16424
X18365Y-14874
X23015Y-11624
X27915Y-11624
X28065Y-14874
X28865Y-15424
X28865Y-16424
X29365Y-14874
X34015Y-11624
X38915Y-11624
X39065Y-14874
X39865Y-15424
X39865Y-16424
X40365Y-14874
X45015Y-11624
X49915Y-11624
X50065Y-14874
X50865Y-15424
X50865Y-16424
X51365Y-14874
X56015Y-11624
X60915Y-11624
X61065Y-14874
X61865Y-15424
X61865Y-16424
X62365Y-14874
X67015Y-11624
X71915Y-11624
X72065Y-14874
X72865Y-15424
X72865Y-16424
X73365Y-14874
X78015Y-11624
X82915Y-11624
X83065Y-14874
X83865Y-15424
X83865Y-16424
X84365Y-14874
X89015Y-11624
X93915Y-11624
X94065Y-14874
X94865Y-15424
X94865Y-16424
X95365Y-14874
X100015Y-11624
X104915Y-11624
X105065Y-14874
X105865Y-15424
X105865Y-16424
X106365Y-14874
X111015Y-11624
T0
M30
