M48
INCH,TZ
T1C0.0197
%
G90
G05
T1
X965Y-10874
X965Y-20874
X1298Y-10874
X1298Y-20874
X1631Y-10874
X1631Y-20874
X1965Y-10874
X1965Y-20874
X2298Y-10874
X2298Y-20874
X2631Y-10874
X2631Y-20874
X2965Y-10874
X2965Y-20874
X3965Y-7874
X3965Y-8207
X3965Y-8541
X3965Y-8874
X3965Y-9207
X3965Y-9541
X3965Y-9874
X3965Y-21874
X3965Y-22207
X3965Y-22541
X3965Y-22874
X3965Y-23207
X3965Y-23541
X3965Y-23874
X8465Y-10874
X8465Y-20874
X8798Y-10874
X8798Y-20874
X9131Y-10874
X9131Y-20874
X9465Y-10874
X9465Y-20874
X19465Y-10874
X19465Y-20874
X19798Y-10874
X19798Y-20874
X20131Y-10874
X20131Y-20874
X20465Y-10874
X20465Y-20874
X30465Y-10874
X30465Y-20874
X30798Y-10874
X30798Y-20874
X31131Y-10874
X31131Y-20874
X31465Y-10874
X31465Y-20874
X41465Y-10874
X41465Y-20874
X41798Y-10874
X41798Y-20874
X42131Y-10874
X42131Y-20874
X42465Y-10874
X42465Y-20874
X52465Y-10874
X52465Y-20874
X52798Y-10874
X52798Y-20874
X53131Y-10874
X53131Y-20874
X53465Y-10874
X53465Y-20874
X63465Y-10874
X63465Y-20874
X63798Y-10874
X63798Y-20874
X64131Y-10874
X64131Y-20874
X64465Y-10874
X64465Y-20874
X74465Y-10874
X74465Y-20874
X74798Y-10874
X74798Y-20874
X75131Y-10874
X75131Y-20874
X75465Y-10874
X75465Y-20874
X85465Y-10874
X85465Y-20874
X85798Y-10874
X85798Y-20874
X86131Y-10874
X86131Y-20874
X86465Y-10874
X86465Y-20874
X96465Y-10874
X96465Y-20874
X96798Y-10874
X96798Y-20874
X97131Y-10874
X97131Y-20874
X97465Y-10874
X97465Y-20874
X107465Y-10874
X107465Y-20874
X107798Y-10874
X107798Y-20874
X108131Y-10874
X108131Y-20874
X108465Y-10874
X108465Y-20874
X112965Y-7874
X112965Y-8207
X112965Y-8541
X112965Y-8874
X112965Y-9207
X112965Y-9541
X112965Y-9874
X112965Y-21874
X112965Y-22207
X112965Y-22541
X112965Y-22874
X112965Y-23207
X112965Y-23541
X112965Y-23874
X113965Y-10874
X113965Y-20874
X114298Y-10874
X114298Y-20874
X114631Y-10874
X114631Y-20874
X114965Y-10874
X114965Y-20874
X115298Y-10874
X115298Y-20874
X115631Y-10874
X115631Y-20874
X115965Y-10874
X115965Y-20874
T0
M30
